<svg xmlns="http://www.w3.org/2000/svg" xmlns:xlink="http://www.w3.org/1999/xlink" viewBox="0 0 132.06 264.24"><defs><style>.cls-1{fill:none;}.cls-2{isolation:isolate;}.cls-3{fill:#c9a63e;}.cls-4{clip-path:url(#clip-path);}.cls-5{fill:#461d2c;}.cls-6{fill:#d4b865;opacity:0.51;mix-blend-mode:multiply;}</style><clipPath id="clip-path"><path class="cls-1" d="M97.91,14,.71,257.16s3,11.15,9.68,4C80.5,122.57,116.53,47.47,127.62,24.07a14.75,14.75,0,0,0-1.54-15.19l-.22-.28a14.13,14.13,0,0,0-18.19-3.84l-3.26,1.83A14.77,14.77,0,0,0,97.91,14Z"/></clipPath></defs><title>1920x1080 UI Landing Page</title><g class="cls-2"><g id="Layer_1" data-name="Layer 1"><path class="cls-3" d="M97.91,14,.71,257.16s3,11.15,9.68,4C80.5,122.57,116.53,47.47,127.62,24.07a14.75,14.75,0,0,0-1.54-15.19l-.22-.28a14.13,14.13,0,0,0-18.19-3.84l-3.26,1.83A14.77,14.77,0,0,0,97.91,14Z"/><g class="cls-4"><path class="cls-5" d="M132,25.06c.6.32,1.19.66,1.8,1a14.41,14.41,0,0,0,1.85.81,13.4,13.4,0,0,0,2,.53,23.32,23.32,0,0,0,4.13.41l1.08,0,1.09-.09c.37,0,.75-.09,1.13-.16a8.86,8.86,0,0,0,1.16-.28l.21-.61a10.14,10.14,0,0,0-.75-.93c-.25-.29-.52-.56-.78-.82s-.54-.51-.81-.75-.56-.46-.84-.68a22.14,22.14,0,0,0-3.51-2.21,13.79,13.79,0,0,0-1.86-.78,14.43,14.43,0,0,0-2-.5c-.67-.12-1.35-.22-2-.33s-1.34-.24-2-.39L130.73,19l1.13.14c.67.08,1.34.19,2,.32s1.34.27,2,.38a13.73,13.73,0,0,0,2,.22,15.17,15.17,0,0,0,2-.09,22.84,22.84,0,0,0,4.06-.87c.34-.1.68-.22,1-.35s.67-.27,1-.41.68-.32,1-.5a10.42,10.42,0,0,0,1-.62v-.65a11.35,11.35,0,0,0-1-.66c-.34-.2-.67-.37-1-.54s-.67-.32-1-.46-.67-.28-1-.4a21.93,21.93,0,0,0-4-1,13.78,13.78,0,0,0-2-.18,15.21,15.21,0,0,0-2,.12l-2,.3c-.68.1-1.35.18-2,.23l-1.14.1,1.11-.21c.67-.13,1.34-.22,2-.31s1.36-.15,2-.24a14.48,14.48,0,0,0,2-.41,13.13,13.13,0,0,0,1.9-.7,23.1,23.1,0,0,0,3.6-2.05c.29-.21.58-.42.86-.65s.57-.46.85-.7.55-.51.82-.79a9.89,9.89,0,0,0,.78-.9l-.18-.62a10.54,10.54,0,0,0-1.15-.33c-.38-.09-.75-.15-1.11-.21s-.73-.11-1.1-.14-.71-.06-1.07-.07a21.8,21.8,0,0,0-4.14.23,13.06,13.06,0,0,0-2,.44,14.46,14.46,0,0,0-1.89.73c-.62.29-1.23.6-1.84.9s-1.23.58-1.86.83l-1.06.44,1-.54c.6-.32,1.21-.61,1.83-.9s1.25-.55,1.86-.85a14.57,14.57,0,0,0,1.77-1,13.43,13.43,0,0,0,1.59-1.25,22.2,22.2,0,0,0,2.81-3c.21-.28.42-.57.62-.87s.4-.61.59-.93.37-.65.54-1a8.34,8.34,0,0,0,.48-1.09l-.36-.54a7.89,7.89,0,0,0-1.2,0c-.38,0-.76.08-1.13.13l-1.08.2-1,.26a22.24,22.24,0,0,0-3.88,1.48,13.6,13.6,0,0,0-1.74,1,15,15,0,0,0-1.58,1.28c-.5.46-1,.94-1.48,1.41S128,4,127.5,4.41l-.88.74.79-.81c.47-.49,1-1,1.46-1.42l1.52-1.37A14.94,14.94,0,0,0,131.77.06a12.93,12.93,0,0,0,1.14-1.67,22.7,22.7,0,0,0,1.75-3.76c.11-.33.23-.67.32-1s.2-.7.28-1.07.16-.73.22-1.11a8.88,8.88,0,0,0,.12-1.19l-.51-.4a9.39,9.39,0,0,0-1.13.4,10.76,10.76,0,0,0-1,.47c-.33.17-.66.34-1,.52s-.62.37-.92.56a22.44,22.44,0,0,0-3.24,2.59,13.65,13.65,0,0,0-1.35,1.5,13.74,13.74,0,0,0-1.12,1.69c-.33.59-.65,1.2-1,1.8s-.67,1.18-1,1.75l-.61,1,.5-1c.3-.61.63-1.21,1-1.8s.7-1.17,1-1.77a15.26,15.26,0,0,0,.86-1.83,14,14,0,0,0,.58-1.94,22,22,0,0,0,.52-4.11c0-.35,0-.71,0-1.08s0-.72,0-1.09-.08-.75-.14-1.13a10.58,10.58,0,0,0-.24-1.17l-.61-.23a10.71,10.71,0,0,0-.95.72c-.3.25-.58.51-.85.77s-.52.52-.76.79-.48.54-.7.81a22.33,22.33,0,0,0-2.31,3.45,14.41,14.41,0,0,0-.83,1.84,14.46,14.46,0,0,0-.55,2c-.14.67-.26,1.34-.39,2s-.27,1.33-.44,2l-.51,2-.5,2,0,.14c-.37-.07-.75-.13-1.12-.17h0V3l.11-2,.09-2c0-.67.08-1.35.16-2s.16-1.36.22-2a13.8,13.8,0,0,0,0-2,13.5,13.5,0,0,0-.25-2,22.87,22.87,0,0,0-1.19-4c-.13-.33-.27-.65-.43-1s-.32-.66-.5-1-.37-.66-.58-1a11.6,11.6,0,0,0-.69-1l-.65,0a10,10,0,0,0-.58,1c-.17.35-.32.69-.46,1s-.27.69-.38,1-.22.69-.32,1a22.62,22.62,0,0,0-.71,4.09,13.62,13.62,0,0,0,0,2,13.58,13.58,0,0,0,.29,2c.14.67.3,1.33.46,2s.28,1.33.39,2L111.4.42l-.3-1.1c-.18-.65-.33-1.31-.47-2s-.26-1.34-.4-2a14.39,14.39,0,0,0-.57-1.94,12.64,12.64,0,0,0-.85-1.83,21.91,21.91,0,0,0-2.34-3.43c-.23-.27-.46-.54-.71-.81s-.5-.52-.77-.78-.55-.51-.85-.75a10.44,10.44,0,0,0-1-.72l-.6.24a10.58,10.58,0,0,0-.24,1.17c-.06.38-.09.75-.12,1.13s0,.73,0,1.09,0,.73,0,1.08a23,23,0,0,0,.56,4.11,13.94,13.94,0,0,0,.6,1.93,15.25,15.25,0,0,0,.88,1.82c.34.6.7,1.18,1,1.77s.67,1.18,1,1.78l.52,1-.62-.95c-.36-.57-.71-1.15-1-1.75s-.66-1.2-1-1.79A14.51,14.51,0,0,0,103-4a12.78,12.78,0,0,0-1.37-1.48A22.55,22.55,0,0,0,98.34-8c-.3-.19-.6-.38-.92-.55s-.64-.35-1-.51-.68-.32-1-.46a9.37,9.37,0,0,0-1.13-.39l-.51.4a8.81,8.81,0,0,0,.14,1.19c.06.38.14.75.22,1.11s.18.72.29,1.07.22.68.34,1a23,23,0,0,0,1.78,3.74A13.7,13.7,0,0,0,97.7.28a14.83,14.83,0,0,0,1.39,1.47c.5.46,1,.91,1.53,1.36s1,.92,1.48,1.4l.81.82L102,4.6c-.52-.42-1-.88-1.53-1.34s-1-.95-1.49-1.4A14.65,14.65,0,0,0,97.42.6a12.57,12.57,0,0,0-1.75-1,22.54,22.54,0,0,0-3.89-1.44c-.35-.09-.69-.18-1-.25l-1.08-.19c-.37-.05-.75-.1-1.13-.12a9.47,9.47,0,0,0-1.2,0L87-1.89A9.94,9.94,0,0,0,87.45-.8c.18.35.36.67.55,1l.6.92c.21.3.42.59.64.87a22.65,22.65,0,0,0,2.83,3,12.7,12.7,0,0,0,1.61,1.23,14.5,14.5,0,0,0,1.77,1c.62.29,1.25.55,1.87.83s1.24.57,1.84.88l1,.54-1.06-.42c-.63-.25-1.25-.53-1.86-.82s-1.23-.6-1.85-.88a14.54,14.54,0,0,0-1.9-.72,14.19,14.19,0,0,0-2-.42A22.64,22.64,0,0,0,87.39,6c-.35,0-.71,0-1.07.09s-.72.08-1.09.14-.74.13-1.11.23A8.77,8.77,0,0,0,83,6.82l-.18.62a10,10,0,0,0,.8.89c.27.28.55.53.83.78s.56.48.85.7.57.43.87.63a21.58,21.58,0,0,0,3.62,2,14.38,14.38,0,0,0,1.9.69,16.26,16.26,0,0,0,2,.38c.67.09,1.35.15,2,.23s1.35.17,2,.28l1.13.2-1.13-.08c-.68-.05-1.35-.12-2-.21s-1.35-.2-2-.28a13.67,13.67,0,0,0-2-.1,12.45,12.45,0,0,0-2,.2,21.78,21.78,0,0,0-4,1.08c-.34.12-.67.25-1,.4s-.66.3-1,.47-.66.35-1,.55a11.51,11.51,0,0,0-1,.67l0,.65a10.27,10.27,0,0,0,1,.61c.35.18.69.34,1,.49l1,.41,1,.34a22.66,22.66,0,0,0,4.06.82,13.67,13.67,0,0,0,4-.16c.67-.12,1.33-.27,2-.4s1.34-.25,2-.34L99,19.2l-1.1.27c-.66.16-1.33.29-2,.41s-1.35.22-2,.35a14.11,14.11,0,0,0-2,.52,12.71,12.71,0,0,0-1.86.8,22.65,22.65,0,0,0-3.49,2.24c-.28.22-.55.45-.82.69s-.54.49-.81.75-.52.54-.77.83a8.76,8.76,0,0,0-.74.94l.22.61a10.19,10.19,0,0,0,1.16.27c.38.07.75.11,1.12.15s.74.07,1.1.08.72,0,1.08,0a21.39,21.39,0,0,0,4.12-.45,13.09,13.09,0,0,0,2-.54A16,16,0,0,0,96,26.3c.6-.32,1.19-.67,1.79-1s1.2-.64,1.81-.93l1-.5-1,.59c-.58.35-1.17.69-1.78,1s-1.21.62-1.81.95a14,14,0,0,0-3.24,2.41A22.87,22.87,0,0,0,90.24,32c-.2.3-.4.6-.58.91s-.37.63-.54,1-.34.67-.49,1A11.32,11.32,0,0,0,88.21,36l.4.52a11.45,11.45,0,0,0,1.19-.1c.38-.05.75-.12,1.11-.2s.72-.16,1.07-.26.7-.2,1-.31A22,22,0,0,0,96.8,34a13.67,13.67,0,0,0,1.69-1.11A13.84,13.84,0,0,0,100,31.53c.47-.48.93-1,1.4-1.49s.94-1,1.44-1.44l.84-.78-.75.85c-.44.51-.91,1-1.39,1.5s-1,1-1.43,1.45a14.62,14.62,0,0,0-1.3,1.55,13.29,13.29,0,0,0-1,1.73,22.94,22.94,0,0,0-1.55,3.85c-.1.34-.19.69-.27,1s-.16.71-.22,1.08-.12.74-.15,1.12a9.36,9.36,0,0,0-.06,1.2l.53.37a9.06,9.06,0,0,0,1.1-.46c.35-.16.68-.34,1-.52l.94-.58c.3-.19.6-.4.88-.61a21.59,21.59,0,0,0,3.1-2.75,14.63,14.63,0,0,0,1.28-1.57,15.1,15.1,0,0,0,1-1.75c.3-.61.58-1.23.88-1.85s.6-1.22.93-1.81l.56-1-.45,1c-.26.62-.56,1.24-.87,1.85s-.63,1.21-.92,1.82a14.42,14.42,0,0,0-.77,1.87,13.14,13.14,0,0,0-.47,2,21.71,21.71,0,0,0-.3,4.14c0,.35,0,.71.05,1.07s.07.73.12,1.09.11.74.19,1.12a11.14,11.14,0,0,0,.31,1.16l.62.19A13,13,0,0,0,107,46.4c.25-.27.49-.55.72-.83s.45-.56.66-.85a22.51,22.51,0,0,0,2.12-3.57,13.34,13.34,0,0,0,1.17-3.86c.11-.67.19-1.35.28-2s.21-1.35.34-2l.23-1.13-.11,1.13c-.07.68-.16,1.35-.27,2s-.23,1.35-.33,2a15.41,15.41,0,0,0-.16,2,13.73,13.73,0,0,0,.15,2,22.7,22.7,0,0,0,1,4c.11.33.24.67.38,1s.28.67.44,1,.33.67.53,1a9.3,9.3,0,0,0,.64,1h.65a9.28,9.28,0,0,0,.63-1c.19-.34.36-.67.52-1s.3-.68.43-1,.26-.68.37-1a22,22,0,0,0,.93-4,12.53,12.53,0,0,0,.13-2,15.31,15.31,0,0,0-.18-2c-.1-.67-.23-1.34-.35-2s-.21-1.35-.28-2l-.13-1.14.24,1.11c.14.66.26,1.33.36,2s.18,1.36.3,2a13.11,13.11,0,0,0,.46,2,13.63,13.63,0,0,0,.75,1.88,22.45,22.45,0,0,0,2.15,3.54,10.72,10.72,0,0,0,.67.84c.23.28.47.56.73.83s.52.54.8.8a10,10,0,0,0,.92.76l.62-.2a11,11,0,0,0,.3-1.16c.07-.38.13-.75.18-1.12s.08-.73.11-1.09,0-.72,0-1.08a22.43,22.43,0,0,0-.34-4.13,14.4,14.4,0,0,0-.49-2,13.25,13.25,0,0,0-.79-1.87c-.3-.61-.63-1.21-.94-1.81s-.61-1.22-.89-1.84l-.46-1.05.56,1c.34.59.65,1.19,1,1.8s.59,1.23.9,1.84a13.32,13.32,0,0,0,2.33,3.3A22.79,22.79,0,0,0,130,41.2q.43.31.9.6c.3.2.62.38.94.57s.66.35,1,.51a8.57,8.57,0,0,0,1.11.45l.53-.38a11.2,11.2,0,0,0-.07-1.19c0-.39-.1-.76-.17-1.12s-.14-.73-.23-1.08-.18-.7-.28-1a22.47,22.47,0,0,0-1.58-3.83A13.75,13.75,0,0,0,131.11,33a14.62,14.62,0,0,0-1.31-1.54c-.48-.49-1-1-1.45-1.44s-1-1-1.41-1.48l-.76-.86.84.77c.5.46,1,.93,1.45,1.43s.94,1,1.42,1.47a14.62,14.62,0,0,0,1.51,1.34,13.83,13.83,0,0,0,1.71,1.1,21.56,21.56,0,0,0,3.8,1.64c.34.11.68.22,1,.31L139,36c.37.07.74.13,1.13.18a9,9,0,0,0,1.19.09l.38-.52a11.32,11.32,0,0,0-.42-1.12c-.16-.35-.33-.69-.5-1s-.36-.64-.55-1-.39-.61-.59-.9A21.12,21.12,0,0,0,137,28.55a13.66,13.66,0,0,0-1.53-1.32,17,17,0,0,0-1.72-1.07c-.6-.32-1.22-.62-1.83-.93s-1.2-.63-1.78-1l-1-.59,1,.48C130.78,24.42,131.38,24.73,132,25.06ZM122.51,3,123.6,1.3c.34-.54.68-1.12,1-1.78.11-.21.23-.42.34-.64l.63-1.15a15.24,15.24,0,0,1,1.09-1.65A13.7,13.7,0,0,1,128-5.39a21.54,21.54,0,0,1,3.19-2.54c.35-.23.63-.4.91-.56s.58-.32.94-.51.65-.31,1-.46.57-.23.93-.34l.25.19c0,.38-.07.72-.11,1s-.14.78-.21,1.09-.19.74-.28,1-.18.61-.32,1a22.1,22.1,0,0,1-1.72,3.71,14,14,0,0,1-1.11,1.63,14.72,14.72,0,0,1-1.36,1.45c-.31.3-.65.6-1,.89l-.54.48c-.55.5-1,1-1.48,1.43l-1.41,1.45L124.34,7l-.12.12c.08.09.17.18.25.28l.14-.12L126.15,6l1.56-1.31c.48-.41,1-.86,1.53-1.37l.52-.51c.31-.3.63-.61,1-.9A15.14,15.14,0,0,1,132.25.63a13.24,13.24,0,0,1,1.71-1,21.45,21.45,0,0,1,3.81-1.46c.41-.11.72-.19,1-.25l1.06-.2c.32,0,.71-.1,1.11-.13a9.45,9.45,0,0,1,1,0l.18.26c-.14.35-.29.67-.41.91s-.37.69-.53,1-.4.65-.58.92-.36.52-.61.86a22.19,22.19,0,0,1-2.77,3,13,13,0,0,1-1.56,1.22,13.36,13.36,0,0,1-1.72,1c-.39.19-.8.37-1.2.55l-.66.3c-.68.31-1.28.61-1.84.91l-1.79,1-1.79.94-.2.09h0a12.56,12.56,0,0,0-.71-1.3h0l2.06-1.32q1.23-.78,2.4-1.62l1.18-.86c.39-.29.78-.57,1.16-.87.77-.59,1.53-1.19,2.26-1.83l0-.07c-.87.45-1.71.93-2.54,1.43-.42.24-.83.5-1.24.75l-1.23.77c-.82.53-1.62,1.07-2.4,1.64l-2,1.42a13.16,13.16,0,0,0-2.26-2.46h0l1.53-1.85q.93-1.11,1.8-2.28l.86-1.17c.28-.39.57-.78.84-1.18.55-.8,1.09-1.6,1.6-2.44l-.06,0c-.69.69-1.35,1.41-2,2.13-.32.36-.64.73-1,1.1l-.94,1.11c-.61.75-1.21,1.51-1.79,2.28l-1.43,1.93h0a14.77,14.77,0,0,0-1.24-.82h0l.08-.13Zm4,17.39A12.49,12.49,0,1,1,119.2,4.33,12.5,12.5,0,0,1,126.53,20.4ZM117.66,3.27l.49-2,.51-2c.16-.62.31-1.27.45-2,0-.23.09-.47.14-.71.08-.42.16-.86.25-1.29A14,14,0,0,1,120-6.58a12.83,12.83,0,0,1,.82-1.79,21.64,21.64,0,0,1,2.27-3.4c.26-.33.48-.57.69-.8s.46-.49.75-.78.52-.49.83-.75a9.07,9.07,0,0,1,.78-.6l.3.11c.09.36.15.7.19,1s.1.78.13,1.1,0,.76.06,1.09,0,.63,0,1a22,22,0,0,1-.52,4.05,13.71,13.71,0,0,1-.56,1.9,14.1,14.1,0,0,1-.85,1.79c-.21.38-.44.76-.66,1.14l-.36.62c-.37.65-.69,1.24-1,1.81L122,2.75l-.92,1.8-.06.13h0a14.19,14.19,0,0,0-1.68-.77l.33.14.9-2.21c.36-.9.7-1.81,1-2.72l.46-1.38c.15-.46.3-.92.44-1.38.28-.93.56-1.86.79-2.81l-.08,0c-.45.86-.85,1.74-1.25,2.63-.2.44-.38.89-.57,1.33l-.55,1.34c-.37.9-.7,1.81-1,2.73l-.77,2.25a12.8,12.8,0,0,0-1.43-.41h0ZM106.54,1c-.29-.57-.61-1.16-1-1.8l-.37-.62c-.22-.37-.45-.76-.66-1.14a13.12,13.12,0,0,1-.87-1.78,13.4,13.4,0,0,1-.58-1.88,21.39,21.39,0,0,1-.55-4.05c0-.42,0-.75,0-1.06s0-.67,0-1.08.06-.71.12-1.11.1-.6.19-1l.29-.11a6.7,6.7,0,0,1,.79.6c.31.25.6.51.83.73s.54.54.76.78.43.47.7.79a21.49,21.49,0,0,1,2.3,3.37,13.6,13.6,0,0,1,.84,1.79,13.82,13.82,0,0,1,.55,1.91c.09.42.18.86.26,1.28l.15.71c.14.74.3,1.39.47,2l.52,2,.51,2,0,.12.38-.08,0-.13-.34-2-.33-2c-.1-.63-.23-1.29-.4-2,0-.24-.11-.47-.16-.71-.1-.42-.2-.86-.29-1.28a14.78,14.78,0,0,1-.29-2,14.64,14.64,0,0,1,0-2,21.64,21.64,0,0,1,.71-4c.11-.41.2-.72.31-1s.22-.62.37-1,.27-.66.45-1,.28-.55.47-.87l.32,0c.23.3.42.59.57.82s.41.67.57.95.35.67.49,1,.26.58.42,1A21.92,21.92,0,0,1,116.26-9a14.21,14.21,0,0,1,.25,2,15.14,15.14,0,0,1-.05,2c0,.43-.09.88-.14,1.31l-.09.72c-.08.74-.13,1.41-.16,2.05L116,1l-.11,2v.12a12.19,12.19,0,0,0-1.48,0L114.3.74c0-1-.08-1.93-.16-2.9L114-3.6c0-.49-.09-1-.15-1.45-.12-1-.25-1.92-.42-2.88h-.08c-.06,1-.07,1.95-.07,2.91,0,.49,0,1,0,1.46l0,1.45c0,1,.1,1.93.18,2.9l.2,2.35a12.93,12.93,0,0,0-3.27.73l-.8-2.24c-.32-.91-.66-1.81-1-2.71L108-2.41c-.2-.45-.38-.89-.59-1.33-.4-.88-.81-1.76-1.27-2.62l-.07,0c.23.94.51,1.87.81,2.79.14.47.3.92.45,1.38l.48,1.38c.32.91.67,1.81,1,2.7l.92,2.19c-.46.2-.91.42-1.34.66h0l-.07-.12-.93-1.8Zm-4.21,3.24c-.45-.45-.93-.91-1.49-1.41l-.54-.48c-.33-.29-.67-.58-1-.88A13.65,13.65,0,0,1,98,.07a12.14,12.14,0,0,1-1.13-1.62,21.6,21.6,0,0,1-1.75-3.68c-.15-.4-.25-.71-.34-1s-.18-.64-.28-1-.16-.69-.22-1.09a7.67,7.67,0,0,1-.12-1l.24-.19a8.27,8.27,0,0,1,.94.33c.37.14.72.31,1,.45s.68.34,1,.5.56.32.91.55a22,22,0,0,1,3.22,2.51,13.7,13.7,0,0,1,1.34,1.45,15.22,15.22,0,0,1,1.1,1.65c.22.37.44.77.64,1.15.12.21.24.42.35.63.37.65.72,1.23,1.06,1.76L107,3.14l1.08,1.71.07.11h0q-.63.39-1.23.84l-1.44-1.9c-.58-.77-1.19-1.52-1.81-2.26l-1-1.1c-.32-.37-.63-.73-1-1.09-.65-.72-1.31-1.43-2-2.11l-.06.05c.51.83,1.06,1.63,1.62,2.42L102.14,1,103,2.15c.58.77,1.19,1.52,1.81,2.26l1.55,1.82a13.38,13.38,0,0,0-1.08,1v0l-.11-.11-1.44-1.43Zm-3,4.37c-.57-.3-1.17-.59-1.86-.9l-.66-.29c-.39-.17-.8-.35-1.2-.54a13.21,13.21,0,0,1-1.74-1,13.58,13.58,0,0,1-1.56-1.2,22.32,22.32,0,0,1-2.8-3c-.25-.33-.44-.59-.62-.86S88.5.38,88.28,0s-.36-.62-.54-1-.27-.56-.41-.91l.17-.26a10,10,0,0,1,1,0c.4,0,.78.08,1.1.12s.75.13,1.07.19.62.14,1,.24A22.63,22.63,0,0,1,95.53-.11a14.49,14.49,0,0,1,1.71,1A13.59,13.59,0,0,1,98.79,2.1c.33.29.65.6,1,.9l.52.49c.55.52,1,1,1.54,1.37l1.57,1.28,1.55,1.31.11.1a13,13,0,0,0-.9,1.17l-2-1.38c-.8-.56-1.6-1.1-2.42-1.61L98.52,5c-.41-.25-.82-.51-1.24-.75-.84-.48-1.69-1-2.56-1.4l0,.07c.74.63,1.5,1.23,2.28,1.81.38.29.78.58,1.17.86l1.18.84c.79.56,1.6,1.09,2.42,1.61l2,1.28c-.25.42-.48.86-.69,1.31l-.18-.09-1.81-.92Zm-1.56,5.07c-.62-.11-1.29-.2-2-.28L95,13.36c-.43,0-.88-.09-1.31-.15a14.2,14.2,0,0,1-1.94-.38,11.63,11.63,0,0,1-1.86-.67,21.19,21.19,0,0,1-3.57-2c-.34-.23-.61-.43-.85-.62s-.53-.42-.84-.69-.53-.47-.81-.76-.43-.44-.67-.73l.09-.31c.36-.12.69-.2,1-.27s.77-.16,1.09-.22.75-.11,1.08-.14.63-.06,1-.08a21.7,21.7,0,0,1,4.08.18,13.11,13.11,0,0,1,1.93.41,15.1,15.1,0,0,1,1.85.7c.4.18.8.38,1.19.57l.66.31c.67.32,1.29.59,1.88.83l1.88.75,1.87.77.18.08c-.08.18-.15.36-.22.55s-.2.56-.28.84l-2.34-.74c-.93-.28-1.86-.55-2.79-.79l-1.41-.35c-.47-.11-.94-.23-1.42-.33-.94-.21-1.89-.41-2.86-.56l0,.08c.9.37,1.81.71,2.73,1l1.37.46,1.39.45c.92.29,1.85.55,2.79.79l2.38.61a14.71,14.71,0,0,0-.26,1.45l-.24,0-2-.33ZM97.82,19c-.63.09-1.3.2-2,.35l-.71.14-1.29.26a13.9,13.9,0,0,1-2,.23,13.3,13.3,0,0,1-2-.07,22.14,22.14,0,0,1-4-.81l-1-.34-1-.4c-.3-.13-.65-.29-1-.48s-.54-.29-.86-.49V17.1c.31-.23.6-.41.83-.55s.68-.39,1-.54.68-.33,1-.46.59-.25,1-.4a21.3,21.3,0,0,1,3.94-1.06,12.77,12.77,0,0,1,2-.2,15.88,15.88,0,0,1,2,.1l1.3.18.72.1c.74.1,1.41.17,2,.22l2,.14,2,.17.23,0a14.44,14.44,0,0,0,0,1.47l-2.49,0c-1,0-1.94,0-2.9.08l-1.45.1c-.49,0-1,.07-1.45.12-1,.08-1.93.18-2.89.33V17c1,.09,1.94.13,2.91.16l1.45,0h1.45c1,0,1.94,0,2.9-.09l2.5-.15a13.86,13.86,0,0,0,.19,1.46l-.28,0-2,.29Zm1.67,5c-.57.28-1.17.59-1.83.95l-.63.35L95.88,26a15.9,15.9,0,0,1-1.8.82,16,16,0,0,1-1.91.53,22,22,0,0,1-4.06.44c-.42,0-.74,0-1.06,0s-.66,0-1.07-.07-.71-.08-1.11-.15-.6-.11-1-.21l-.11-.3c.22-.31.44-.57.62-.78s.53-.58.76-.8.55-.53.8-.74.48-.42.8-.68a22.23,22.23,0,0,1,3.44-2.21A13.28,13.28,0,0,1,92,21.05a16.05,16.05,0,0,1,1.92-.5l1.29-.23L96,20.2c.73-.13,1.39-.27,2-.42l2-.47,2-.46.28-.06a11.46,11.46,0,0,0,.39,1.42l-2.41.78c-.92.3-1.84.62-2.74,1l-1.35.53L94.73,23c-.89.38-1.78.77-2.65,1.2l0,.08c1-.22,1.88-.47,2.81-.74.47-.13.93-.28,1.4-.42l1.38-.44c.92-.3,1.83-.62,2.73-1l2.38-.91c.19.45.4.89.63,1.33l-.29.14-1.83.89Zm3.13,4.3c-.47.43-.94.91-1.46,1.45l-.49.53-.9,1a13.06,13.06,0,0,1-1.48,1.32,12.42,12.42,0,0,1-1.65,1.09,21.45,21.45,0,0,1-3.73,1.65c-.4.14-.71.23-1,.31s-.65.17-1.05.26-.7.14-1.1.19-.61.08-1,.09L88.57,36c.12-.36.25-.68.36-.93s.33-.71.48-1,.36-.67.53-.95.33-.54.56-.89a22.36,22.36,0,0,1,2.61-3.15,12.83,12.83,0,0,1,3.16-2.35l1.16-.62.64-.33c.67-.35,1.25-.68,1.8-1l1.73-1,1.74-1,.28-.16a11.27,11.27,0,0,0,.8,1.23h0l-2.1,1.51c-.78.56-1.55,1.14-2.31,1.75l-1.13.91-1.11.94c-.74.63-1.46,1.27-2.16,2l0,.06c.84-.49,1.65-1,2.46-1.56.4-.26.8-.54,1.2-.82l1.18-.84c.79-.56,1.56-1.15,2.31-1.75l2-1.62h0a14.25,14.25,0,0,0,1,1.07l-.26.26L104.1,27Zm5.27,1.36-1,1.77c-.31.56-.62,1.16-.94,1.83-.11.22-.21.44-.31.66l-.57,1.18a13.6,13.6,0,0,1-1,1.71,15.21,15.21,0,0,1-1.24,1.54,22.68,22.68,0,0,1-3.06,2.71c-.34.25-.6.43-.87.6s-.56.36-.92.56-.63.35-1,.52a9.52,9.52,0,0,1-.91.39L95.83,43a8.75,8.75,0,0,1,.06-1c0-.4.1-.79.15-1.1s.14-.75.22-1.07.15-.62.27-1a21.13,21.13,0,0,1,1.52-3.79,13,13,0,0,1,1-1.69,15.48,15.48,0,0,1,1.27-1.52l.92-.93.52-.52c.52-.53,1-1,1.4-1.5l1.33-1.53,1.34-1.52.24-.26h0a11.18,11.18,0,0,0,1.14.92l-1.56,2.1c-.58.78-1.14,1.57-1.68,2.38l-.79,1.21-.78,1.23c-.51.82-1,1.66-1.47,2.51l.07,0c.65-.72,1.27-1.47,1.87-2.23.31-.38.6-.77.89-1.15l.88-1.16c.57-.78,1.13-1.57,1.66-2.37l1.46-2.19a12.94,12.94,0,0,0,1.26.73l-.18.34Zm3.7,5.49c0,.24-.06.48-.1.72,0,.43-.11.87-.18,1.3a13.77,13.77,0,0,1-.43,1.94,12.81,12.81,0,0,1-.72,1.83,21.33,21.33,0,0,1-2.08,3.52c-.25.34-.45.59-.65.84s-.43.51-.71.81-.49.52-.78.79a9.26,9.26,0,0,1-.75.65l-.3-.09a9.34,9.34,0,0,1-.25-1c-.08-.39-.14-.77-.19-1.09s-.09-.75-.11-1.08,0-.63-.06-1a22,22,0,0,1,.3-4.08,12,12,0,0,1,.46-1.92,14.81,14.81,0,0,1,.75-1.83c.19-.39.39-.79.59-1.17.11-.22.23-.43.33-.65.34-.66.63-1.27.88-1.86l.8-1.86.82-1.85.17-.36c.3.14.6.27.92.39.14.06.29.1.44.15h0l-.86,2.5c-.32.92-.61,1.84-.88,2.77l-.38,1.4c-.13.47-.26.94-.37,1.41-.23.94-.46,1.88-.63,2.84l.07,0c.4-.88.76-1.79,1.11-2.69.17-.45.33-.91.5-1.36l.48-1.37c.31-.92.6-1.84.86-2.77l.73-2.55a11.76,11.76,0,0,0,1.43.31h0l-.08.41-.38,2-.41,2C111.81,33.82,111.69,34.48,111.59,35.22Zm5.65-1.95c.07.64.17,1.3.29,2,0,.24.09.48.13.71.08.43.16.87.22,1.3a15,15,0,0,1,.18,2,12.29,12.29,0,0,1-.13,2,21,21,0,0,1-.92,4c-.13.4-.24.71-.36,1s-.25.61-.42,1-.31.64-.51,1a8.18,8.18,0,0,1-.52.85h-.31a9.77,9.77,0,0,1-.53-.84c-.2-.35-.37-.7-.52-1s-.31-.69-.43-1-.24-.59-.37-1a21.53,21.53,0,0,1-1-4,12.34,12.34,0,0,1-.14-2,14.58,14.58,0,0,1,.15-2l.21-1.3.12-.72c.12-.73.21-1.4.27-2l.2-2,.22-2,0-.41a12,12,0,0,0,1.46.11l-.06,2.65c0,1,0,1.94,0,2.9l.05,1.45c0,.49,0,1,.08,1.46.06,1,.14,1.93.26,2.9H115c.11-1,.18-1.94.23-2.91,0-.48,0-1,.07-1.45l0-1.45c0-1,0-1.93,0-2.9L115.28,29h0a11.66,11.66,0,0,0,1.45-.13l.06.41.23,2Zm5.09-1.53c.25.58.55,1.18.89,1.85l.34.64c.2.38.41.78.6,1.17a14.44,14.44,0,0,1,.77,1.82,13.14,13.14,0,0,1,.48,1.92,22.82,22.82,0,0,1,.34,4.07c0,.42,0,.74,0,1.06s0,.66-.1,1.07-.1.71-.18,1.1-.13.6-.24,1l-.3.1c-.3-.23-.56-.46-.76-.64s-.56-.55-.79-.78-.51-.56-.72-.82-.4-.49-.65-.82a22.45,22.45,0,0,1-2.12-3.5,14.22,14.22,0,0,1-.73-1.83,13.79,13.79,0,0,1-.45-1.93c-.07-.43-.14-.87-.2-1.3,0-.24-.07-.48-.1-.72-.11-.74-.23-1.4-.36-2l-.43-2-.4-2-.08-.4-.27,0a12.29,12.29,0,0,0,1.7-.38h0l.76,2.55c.27.93.57,1.85.89,2.76l.49,1.37c.17.45.34.9.52,1.35.35.91.72,1.8,1.12,2.69l.08,0c-.19-.95-.42-1.89-.66-2.83-.12-.47-.25-.94-.38-1.41l-.4-1.39q-.42-1.4-.9-2.76l-.89-2.5h0q.69-.26,1.35-.57l.17.37.84,1.85Zm4.37-3c.42.47.89,1,1.42,1.49l.51.51c.31.3.63.61.93.92a14.53,14.53,0,0,1,1.29,1.51,14.17,14.17,0,0,1,1,1.68,21.71,21.71,0,0,1,1.56,3.78c.12.4.2.71.28,1s.15.65.22,1,.12.71.16,1.1a8.84,8.84,0,0,1,.07,1l-.25.19c-.36-.13-.68-.27-.92-.38s-.71-.35-1-.51-.66-.38-.93-.55-.54-.35-.88-.59a22,22,0,0,1-3.08-2.69,13,13,0,0,1-1.25-1.52,13.62,13.62,0,0,1-1-1.7c-.2-.39-.39-.79-.58-1.18-.11-.22-.21-.44-.32-.65-.33-.67-.64-1.27-1-1.82l-1-1.76-1-1.77-.19-.35a14.25,14.25,0,0,0,1.25-.75l1.48,2.18c.55.81,1.11,1.59,1.69,2.36l.89,1.16c.3.37.59.76.9,1.13q.91,1.14,1.89,2.22l.07,0c-.47-.85-1-1.68-1.49-2.5L126.71,32l-.81-1.21c-.54-.8-1.11-1.58-1.69-2.35l-1.6-2.11h0a11.15,11.15,0,0,0,1.12-.94h0l.26.28,1.36,1.51Zm3.25-4.2c.55.32,1.14.65,1.81,1l.64.33c.39.19.79.39,1.17.6a13.71,13.71,0,0,1,1.68,1,12.42,12.42,0,0,1,1.5,1.29,21.84,21.84,0,0,1,2.64,3.12c.23.35.41.62.57.89s.34.57.54.93.33.64.49,1a9.39,9.39,0,0,1,.36.92l-.19.25c-.37,0-.72,0-1-.08s-.77-.12-1.09-.18-.74-.16-1.06-.25-.61-.17-1-.3a21.79,21.79,0,0,1-3.75-1.62,12.13,12.13,0,0,1-1.66-1.06,14,14,0,0,1-1.48-1.32l-.92-.94c-.16-.18-.33-.35-.5-.53-.51-.54-1-1-1.46-1.44l-1.49-1.37-1.48-1.39-.28-.26h0a12.69,12.69,0,0,0,1-1.09l2,1.61c.76.6,1.54,1.18,2.33,1.74l1.19.83c.4.27.8.54,1.21.8.81.54,1.63,1.06,2.47,1.54l.05-.06c-.71-.68-1.44-1.31-2.18-1.93-.37-.32-.75-.62-1.12-.93l-1.14-.9c-.76-.6-1.54-1.18-2.33-1.73l-2.13-1.5a12,12,0,0,0,.84-1.37l-.06.13.31.17,1.75,1ZM128.46,23l-1.83-.87-.31-.15a15.05,15.05,0,0,0,.63-1.41l0,.07,2.41.9c.91.34,1.82.66,2.75.95l1.38.43,1.4.4c.93.26,1.87.51,2.82.71l0-.08c-.88-.42-1.77-.8-2.66-1.17l-1.35-.54-1.36-.52c-.91-.33-1.82-.65-2.75-.94L127.14,20a12.68,12.68,0,0,0,.61-3.25l2.53.13c1,0,1.93.07,2.9.06h1.45l1.45,0c1,0,1.94-.09,2.91-.18v-.08c-1-.14-1.93-.24-2.9-.31-.48-.05-1-.07-1.45-.11l-1.45-.08c-1,0-1.93-.06-2.9-.06h-2.52a13,13,0,0,0-.42-3.29l2.41-.64c.93-.25,1.86-.52,2.78-.81l1.38-.46c.46-.16.92-.31,1.37-.48.91-.33,1.82-.67,2.72-1.06l0-.07c-1,.16-1.91.36-2.85.58l-1.41.34-1.41.37c-.93.25-1.86.52-2.78.82l-2.36.77a13.54,13.54,0,0,0-.53-1.38h0l.21-.09,1.87-.79,1.88-.78c.59-.24,1.2-.51,1.87-.84l.65-.32c.39-.19.79-.39,1.19-.57a12.58,12.58,0,0,1,1.84-.72,11.9,11.9,0,0,1,1.93-.43A21.82,21.82,0,0,1,142.16,6c.42,0,.74,0,1.06.08s.66.07,1.06.13.71.12,1.1.21.6.14,1,.26l.09.3a9,9,0,0,1-.67.74c-.27.29-.56.56-.8.77s-.57.5-.83.7-.5.39-.85.63a21.72,21.72,0,0,1-3.54,2,12.86,12.86,0,0,1-1.86.69,15.66,15.66,0,0,1-1.94.4l-1.3.16-.72.08c-.74.09-1.41.19-2,.31l-2,.37-2,.35-.26,0c0,.12,0,.25,0,.37l.27,0,2-.19,2-.16c.63-.05,1.3-.13,2-.24l.72-.11,1.3-.18a13,13,0,0,1,2-.13,13.73,13.73,0,0,1,2,.18,21.48,21.48,0,0,1,4,1c.39.14.69.26,1,.39s.61.26,1,.45a10.93,10.93,0,0,1,1,.53c.23.14.53.32.83.54V17c-.32.21-.62.37-.86.5s-.7.36-1,.49-.7.3-1,.41-.6.22-1,.34a21.17,21.17,0,0,1-4,.85,13.35,13.35,0,0,1-2,.09,12.5,12.5,0,0,1-2-.21c-.43-.07-.87-.16-1.29-.24l-.71-.14c-.74-.14-1.4-.25-2-.32l-2-.26-2-.27-.3-.05c0,.13,0,.25-.07.37l.31.07,2,.43,2,.46c.62.15,1.28.28,2,.4l.71.11,1.3.22a16.79,16.79,0,0,1,1.92.48,13.18,13.18,0,0,1,1.82.77A22.2,22.2,0,0,1,143,23.7c.34.26.59.46.82.67s.5.44.8.73.5.5.77.8.4.47.63.77l-.11.3c-.36.1-.7.17-1,.22s-.78.12-1.1.16-.76.07-1.08.09-.64,0-1.06,0a21.08,21.08,0,0,1-4.06-.4,14,14,0,0,1-1.91-.51,14.87,14.87,0,0,1-1.81-.8c-.39-.2-.78-.42-1.16-.63l-.63-.35c-.66-.35-1.26-.66-1.84-.92Z"/><circle class="cls-5" cx="114.83" cy="16.03" r="7.69" transform="translate(73.25 124.26) rotate(-76.93)"/><path class="cls-5" d="M118.71,5.63a11.1,11.1,0,1,0,6.52,14.29A11.1,11.1,0,0,0,118.71,5.63ZM111,26.22a10.88,10.88,0,1,1,14-6.38A10.89,10.89,0,0,1,111,26.22Z"/><path class="cls-5" d="M113.58,80.76l1,.53a7.58,7.58,0,0,0,1,.45,7.51,7.51,0,0,0,1.06.28,12.6,12.6,0,0,0,2.24.23l.59,0c.19,0,.39,0,.59,0l.62-.08a5.83,5.83,0,0,0,.63-.16l.11-.33a5.31,5.31,0,0,0-.4-.51l-.43-.44-.44-.41-.46-.37a12.85,12.85,0,0,0-1.9-1.2,7.6,7.6,0,0,0-1-.43,8.81,8.81,0,0,0-1.07-.27l-1.09-.18c-.37-.06-.73-.13-1.09-.21l-.61-.14.61.08c.37,0,.73.1,1.1.17l1.09.21a7.17,7.17,0,0,0,2.2.07,12.54,12.54,0,0,0,2.2-.47,5.14,5.14,0,0,0,.55-.2c.19-.06.37-.14.56-.22s.37-.17.55-.27a5.58,5.58,0,0,0,.56-.34v-.35a5.63,5.63,0,0,0-.54-.36c-.18-.11-.37-.2-.55-.3l-.54-.25q-.27-.12-.54-.21a11.78,11.78,0,0,0-2.19-.57,8,8,0,0,0-1.09-.1,10,10,0,0,0-1.1.07l-1.1.16c-.37.06-.74.1-1.1.13l-.63,0,.61-.11c.36-.07.73-.12,1.1-.17l1.1-.13a7.65,7.65,0,0,0,1.08-.22,6.41,6.41,0,0,0,1-.39,12,12,0,0,0,2-1.11l.47-.35c.15-.12.31-.25.46-.39a5.77,5.77,0,0,0,.44-.42,4.07,4.07,0,0,0,.43-.49l-.1-.34a5.34,5.34,0,0,0-.62-.18l-.61-.12-.59-.07-.59,0a12.85,12.85,0,0,0-2.25.12,9.73,9.73,0,0,0-1.07.24,10,10,0,0,0-1,.4l-1,.49c-.33.16-.67.32-1,.46l-.58.23.55-.29c.32-.17.65-.33,1-.49l1-.46a7.43,7.43,0,0,0,1-.54,6.36,6.36,0,0,0,.87-.68A12.15,12.15,0,0,0,118.09,68l.34-.47.32-.51c.1-.18.2-.35.29-.54a3.62,3.62,0,0,0,.26-.6l-.2-.29a4.47,4.47,0,0,0-.64,0l-.62.07-.59.11-.56.14a11.83,11.83,0,0,0-2.11.81,6.9,6.9,0,0,0-1,.55,8.12,8.12,0,0,0-.86.69l-.8.77c-.27.26-.55.51-.83.74l-.48.4.43-.44.8-.77c.27-.25.56-.49.82-.75a8.18,8.18,0,0,0,.76-.8,9.7,9.7,0,0,0,.62-.91,12.39,12.39,0,0,0,1-2.05c.06-.18.12-.36.17-.56s.11-.38.16-.57.08-.4.11-.61a4.46,4.46,0,0,0,.07-.65l-.28-.21a4.84,4.84,0,0,0-.61.21c-.2.08-.38.17-.56.26s-.36.18-.53.28-.34.2-.5.31a11.64,11.64,0,0,0-1.76,1.4,7.12,7.12,0,0,0-.74.82,9.78,9.78,0,0,0-.61.92c-.18.32-.35.65-.53,1s-.36.64-.56.95l-.33.53.27-.55c.17-.33.34-.66.53-1s.38-.64.56-1a10.07,10.07,0,0,0,.47-1,7.46,7.46,0,0,0,.31-1.05,11.73,11.73,0,0,0,.28-2.24c0-.19,0-.39,0-.58s0-.4,0-.6,0-.41-.07-.61a5.19,5.19,0,0,0-.13-.64l-.33-.12a4.15,4.15,0,0,0-.52.39c-.16.13-.31.27-.46.41l-.41.43c-.14.15-.26.3-.39.45a11.72,11.72,0,0,0-1.25,1.87,6.82,6.82,0,0,0-.45,1,8,8,0,0,0-.3,1.06c-.08.37-.14.73-.21,1.1s-.15.72-.25,1.08l-.27,1.07-.27,1.07,0,.08a4.31,4.31,0,0,0-.61-.1h0v-.07l.06-1.1,0-1.1q0-.56.09-1.11c0-.37.09-.73.12-1.1a8.13,8.13,0,0,0,0-1.1,8.27,8.27,0,0,0-.14-1.1,12.63,12.63,0,0,0-.64-2.16c-.08-.18-.15-.35-.24-.53s-.17-.36-.27-.54l-.31-.53c-.12-.17-.24-.35-.38-.53l-.36,0a5.21,5.21,0,0,0-.31.56c-.09.19-.17.38-.25.57s-.15.37-.21.56-.12.37-.17.56a13.25,13.25,0,0,0-.39,2.22,8.09,8.09,0,0,0,0,1.1,8,8,0,0,0,.16,1.09c.08.36.17.72.25,1.09s.15.72.21,1.08l.1.62-.16-.6c-.09-.35-.18-.71-.25-1.08s-.14-.73-.22-1.09a7.46,7.46,0,0,0-.31-1.05,7,7,0,0,0-.46-1,12,12,0,0,0-1.27-1.86l-.39-.44-.42-.43c-.15-.14-.3-.28-.46-.41a5.42,5.42,0,0,0-.52-.39l-.33.13a5.19,5.19,0,0,0-.13.64c0,.2,0,.41-.07.61s0,.4,0,.6,0,.39,0,.58a11.74,11.74,0,0,0,.31,2.24,7.49,7.49,0,0,0,.32,1,9,9,0,0,0,.48,1c.18.32.38.64.57,1s.37.64.53,1l.29.56-.34-.52c-.2-.31-.39-.63-.57-.95s-.35-.66-.54-1a9.62,9.62,0,0,0-.61-.91,7.2,7.2,0,0,0-.75-.81,11.77,11.77,0,0,0-1.78-1.39l-.5-.3c-.17-.1-.35-.19-.53-.28L93.69,62a5.64,5.64,0,0,0-.62-.21L92.8,62a6.47,6.47,0,0,0,.07.65c0,.2.08.4.12.6s.1.39.16.58l.18.55a13.21,13.21,0,0,0,1,2,7.39,7.39,0,0,0,1.39,1.7l.83.74c.28.25.55.5.81.76l.44.45-.48-.39c-.28-.24-.56-.48-.83-.74l-.81-.76a8.14,8.14,0,0,0-.87-.68,6.9,6.9,0,0,0-1-.55,13,13,0,0,0-2.12-.78,4.76,4.76,0,0,0-.57-.13l-.59-.11-.61-.07c-.21,0-.42,0-.65,0l-.19.3a3.91,3.91,0,0,0,.26.59c.09.19.2.36.3.54s.21.34.33.5.22.32.34.47a12.12,12.12,0,0,0,1.54,1.65,7.53,7.53,0,0,0,1.84,1.2l1,.45c.34.15.67.31,1,.48l.55.29-.57-.23c-.34-.13-.68-.28-1-.44l-1-.48a8,8,0,0,0-1-.39,7.67,7.67,0,0,0-1.08-.23,12,12,0,0,0-2.25-.1l-.59,0-.59.08c-.2,0-.4.07-.6.12a5.59,5.59,0,0,0-.63.19l-.09.34a5,5,0,0,0,.43.48l.45.43c.15.13.31.26.46.37s.31.24.47.35a12.42,12.42,0,0,0,2,1.1,6.79,6.79,0,0,0,1,.37,7.64,7.64,0,0,0,1.08.21l1.11.13c.36,0,.73.09,1.09.15l.62.11-.62,0c-.36,0-.73-.06-1.1-.11s-.73-.11-1.1-.15a7.17,7.17,0,0,0-2.2.05,12.5,12.5,0,0,0-2.17.59,5.25,5.25,0,0,0-.55.22l-.54.25c-.18.1-.36.19-.54.3a4.6,4.6,0,0,0-.53.37v.35a4.56,4.56,0,0,0,.56.33c.18.1.37.19.55.27l.56.22c.18.07.37.13.55.18a11.72,11.72,0,0,0,2.21.45,6.79,6.79,0,0,0,1.1,0,6.87,6.87,0,0,0,1.1-.13l1.09-.21c.36-.08.73-.14,1.09-.19l.62-.08-.6.14c-.36.09-.72.16-1.08.22l-1.1.2a7.53,7.53,0,0,0-2.08.71,13.21,13.21,0,0,0-1.89,1.22l-.45.38-.44.41q-.21.21-.42.45a4.09,4.09,0,0,0-.4.51l.11.33a5.35,5.35,0,0,0,.64.15l.61.08.6,0h.58A11.73,11.73,0,0,0,92,82.18,7.18,7.18,0,0,0,93,81.89a7.64,7.64,0,0,0,1-.46l1-.54c.32-.18.65-.35,1-.5l.57-.27-.53.32c-.31.19-.64.37-1,.54s-.66.34-1,.52a7.33,7.33,0,0,0-.93.59,7.14,7.14,0,0,0-.83.72,12.93,12.93,0,0,0-1.44,1.74c-.1.16-.21.32-.31.49s-.2.35-.29.53a5.6,5.6,0,0,0-.27.55c-.08.2-.16.39-.23.61L90,87a4.37,4.37,0,0,0,.64-.05l.61-.11.58-.14c.2,0,.38-.11.56-.17a12.47,12.47,0,0,0,2.07-.91,8.15,8.15,0,0,0,.92-.61,7,7,0,0,0,.81-.74c.26-.26.51-.54.77-.81s.51-.53.78-.78l.46-.43-.41.47q-.36.42-.75.81c-.27.26-.53.52-.79.79a8.1,8.1,0,0,0-.7.85,5.6,5.6,0,0,0-.57.94,11.27,11.27,0,0,0-.84,2.09,5.29,5.29,0,0,0-.15.57,5.41,5.41,0,0,0-.12.58,6,6,0,0,0-.09.61c0,.21,0,.43,0,.65l.29.21c.22-.08.41-.16.6-.25s.37-.19.55-.29l.51-.31.48-.33a12.84,12.84,0,0,0,1.69-1.5,7.22,7.22,0,0,0,.69-.86,6.9,6.9,0,0,0,.55-1c.17-.33.32-.67.48-1s.33-.66.51-1l.31-.54-.25.57c-.14.33-.3.67-.47,1l-.51,1a7.49,7.49,0,0,0-.41,1,6.42,6.42,0,0,0-.26,1.07,11.93,11.93,0,0,0-.16,2.25,5.63,5.63,0,0,0,0,.58q0,.3.06.6c0,.2.06.4.11.61a5.15,5.15,0,0,0,.16.62l.34.11c.18-.13.34-.28.5-.42s.29-.29.43-.44.27-.3.39-.45.25-.31.36-.46a12.51,12.51,0,0,0,1.15-1.94,6.84,6.84,0,0,0,.4-1,7.87,7.87,0,0,0,.24-1.07c.06-.37.1-.74.16-1.11s.11-.73.18-1.09l.12-.61-.06.61c0,.37-.08.74-.14,1.1s-.13.74-.18,1.1a7.16,7.16,0,0,0,0,2.2,12.46,12.46,0,0,0,.53,2.19c.06.18.13.36.21.55s.15.36.24.54a5.68,5.68,0,0,0,.28.55c.11.18.22.37.35.55h.36c.13-.19.24-.37.34-.55l.28-.55c.09-.19.17-.37.24-.55s.14-.37.2-.55a12.66,12.66,0,0,0,.5-2.2,6.77,6.77,0,0,0,.07-1.1,8.29,8.29,0,0,0-.09-1.1c-.06-.36-.13-.73-.19-1.09s-.12-.73-.16-1.1l-.07-.62.13.6c.08.36.14.73.2,1.09s.1.74.16,1.11a7.91,7.91,0,0,0,.25,1.07,7.49,7.49,0,0,0,.41,1A12.11,12.11,0,0,0,108,91.41c.11.15.23.31.36.46l.4.45c.14.14.28.29.44.43a4.21,4.21,0,0,0,.5.41l.33-.1a5.83,5.83,0,0,0,.16-.63,4.55,4.55,0,0,0,.1-.61q0-.3.06-.6c0-.2,0-.39,0-.58a11.85,11.85,0,0,0-.19-2.25,6.71,6.71,0,0,0-.27-1.07,7.42,7.42,0,0,0-.42-1l-.52-1c-.17-.33-.33-.66-.48-1l-.25-.57.3.54c.19.32.36.64.52,1s.32.67.49,1a6.92,6.92,0,0,0,.57.94,7,7,0,0,0,.7.85,12.2,12.2,0,0,0,1.7,1.48l.48.33.52.31c.17.09.35.19.55.28a4.69,4.69,0,0,0,.6.24l.28-.21a4.43,4.43,0,0,0,0-.64c0-.21-.06-.42-.09-.62s-.08-.39-.13-.58-.1-.38-.15-.56a12.91,12.91,0,0,0-.86-2.09,8.18,8.18,0,0,0-.58-.94,8.08,8.08,0,0,0-.72-.83c-.25-.27-.52-.53-.79-.79s-.52-.53-.76-.8l-.41-.47.45.42c.27.25.53.51.79.78s.51.54.77.8a8.18,8.18,0,0,0,.83.73,6.84,6.84,0,0,0,.92.59,12,12,0,0,0,2.07.9l.56.16.59.14.61.1a4.37,4.37,0,0,0,.64,0l.21-.29a3.92,3.92,0,0,0-.23-.6,5.77,5.77,0,0,0-.27-.56c-.1-.17-.19-.35-.3-.52s-.21-.33-.32-.49a11.48,11.48,0,0,0-1.45-1.72,8.08,8.08,0,0,0-.83-.72,9.86,9.86,0,0,0-.94-.58l-1-.5c-.33-.17-.66-.35-1-.54L112,80l.56.26C112.93,80.42,113.25,80.58,113.58,80.76Zm-5.15-12,.59-.93c.19-.3.37-.61.57-1l.18-.35c.12-.2.23-.42.35-.62a7,7,0,0,1,.59-.9,7.42,7.42,0,0,1,.72-.8,11.7,11.7,0,0,1,1.74-1.38l.49-.31.51-.27.56-.26.5-.18.14.11c0,.2,0,.39-.06.53s-.08.42-.12.6a5.16,5.16,0,0,1-.15.57c0,.16-.1.33-.17.54a11.48,11.48,0,0,1-.94,2,7.67,7.67,0,0,1-.6.89,6.54,6.54,0,0,1-.74.78c-.17.17-.35.33-.53.49l-.29.26c-.3.27-.56.53-.8.78l-.77.79-.77.78-.07.07.14.15.07-.07.84-.71.85-.71.83-.75.28-.27.52-.5a9,9,0,0,1,.84-.68,7.35,7.35,0,0,1,.93-.54,13.11,13.11,0,0,1,2.07-.79l.56-.13c.17,0,.36-.08.58-.11a4.73,4.73,0,0,1,.6-.07,4.16,4.16,0,0,1,.54,0l.1.15c-.08.19-.16.36-.23.49s-.2.38-.28.53l-.32.5c-.09.14-.2.28-.33.46a11.61,11.61,0,0,1-1.51,1.64,6.92,6.92,0,0,1-.84.66,8.76,8.76,0,0,1-.94.53l-.65.3-.36.16c-.37.17-.7.33-1,.5l-1,.52-1,.51-.11,0h0a6,6,0,0,0-.39-.7h0l1.12-.72c.45-.28.88-.58,1.31-.88l.64-.47.63-.47c.42-.32.83-.65,1.23-1l0,0q-.7.38-1.38.78l-.68.41-.67.42c-.44.29-.87.58-1.3.89l-1.08.77a7,7,0,0,0-1.23-1.33h0l.84-1c.33-.41.66-.82,1-1.24l.47-.64c.15-.21.31-.42.46-.64.3-.43.59-.87.87-1.33l0,0c-.37.37-.73.76-1.08,1.16l-.52.59-.5.61c-.34.4-.66.82-1,1.24l-.78,1h0a7.83,7.83,0,0,0-.67-.45h0l0-.07Zm2.19,9.46a6.8,6.8,0,1,1-4-8.74A6.82,6.82,0,0,1,110.62,78.23Zm-4.83-9.32.27-1.07.28-1.07c.08-.33.16-.69.24-1.09,0-.13,0-.26.07-.39s.09-.47.14-.7a9.52,9.52,0,0,1,.29-1,6.43,6.43,0,0,1,.45-1,11.66,11.66,0,0,1,1.23-1.85c.14-.18.26-.31.38-.44s.24-.26.4-.42l.45-.41c.11-.09.26-.21.43-.33l.16.06c0,.2.08.39.11.53s0,.43.07.6,0,.41,0,.59,0,.35,0,.58a12.16,12.16,0,0,1-.28,2.2,8.94,8.94,0,0,1-.31,1,6.4,6.4,0,0,1-.46,1c-.11.21-.24.42-.36.62s-.13.23-.19.34c-.21.36-.38.68-.54,1l-.49,1-.5,1,0,.07h0a7,7,0,0,0-.92-.42l.19.07.48-1.2c.2-.49.39-1,.56-1.48l.25-.75.24-.75c.15-.5.3-1,.43-1.52l0,0c-.25.47-.47,1-.68,1.43-.11.24-.21.49-.32.73l-.3.73c-.19.49-.38,1-.55,1.48l-.42,1.22a7.59,7.59,0,0,0-.78-.22h0ZM99.74,67.7c-.16-.31-.33-.63-.54-1l-.2-.34c-.12-.2-.25-.41-.36-.62a6.53,6.53,0,0,1-.47-1,6.79,6.79,0,0,1-.32-1,12.35,12.35,0,0,1-.3-2.2c0-.23,0-.41,0-.58s0-.36,0-.59,0-.38.06-.6a5.24,5.24,0,0,1,.1-.53l.16-.06a4.57,4.57,0,0,1,.44.33c.16.13.32.28.45.4s.29.29.41.42.23.25.38.43a11.35,11.35,0,0,1,1.25,1.83,7.8,7.8,0,0,1,.76,2c0,.23.09.47.14.7s0,.26.08.39c.08.4.16.76.25,1.09l.29,1.06.28,1.07V69l.21,0,0-.07-.18-1.09-.18-1.09c-.06-.34-.13-.7-.22-1.09l-.09-.39c-.05-.23-.11-.46-.16-.69a8,8,0,0,1-.15-1.07,7.69,7.69,0,0,1,0-1.07,11.64,11.64,0,0,1,.38-2.19c.06-.22.11-.39.17-.56s.12-.34.2-.55.15-.35.25-.55a3.92,3.92,0,0,1,.26-.47h.17c.12.16.23.31.31.44s.22.36.31.52.19.36.26.52a5.57,5.57,0,0,1,.23.53,11.73,11.73,0,0,1,.64,2.13,6.81,6.81,0,0,1,.13,1.06,8,8,0,0,1,0,1.08c0,.24,0,.48-.08.71s0,.26,0,.39c0,.41-.08.77-.09,1.12l-.05,1.1-.06,1.1v.07a5.48,5.48,0,0,0-.81,0l0-1.29c0-.52,0-1-.09-1.57l-.07-.79c0-.26,0-.52-.08-.78-.06-.53-.13-1-.23-1.57h0c0,.53,0,1.06,0,1.58,0,.27,0,.53,0,.79l0,.79c0,.53,0,1,.1,1.58l.11,1.28a7.17,7.17,0,0,0-1.78.39L101.43,68q-.27-.75-.57-1.47l-.31-.73c-.1-.24-.21-.48-.32-.72-.21-.48-.44-1-.69-1.43l0,0c.13.51.28,1,.44,1.52.08.25.17.5.25.75l.26.74c.18.5.37,1,.57,1.48l.49,1.19a4.84,4.84,0,0,0-.72.36h0l0-.07-.51-1Zm-2.29,1.76c-.24-.25-.51-.5-.81-.77l-.29-.26L95.81,68a7.47,7.47,0,0,1-.74-.78,5.93,5.93,0,0,1-.61-.88,11.18,11.18,0,0,1-1-2c-.08-.21-.13-.38-.18-.54s-.1-.35-.15-.57-.09-.38-.12-.59A3.57,3.57,0,0,1,93,62l.13-.11a4,4,0,0,1,.51.19,5,5,0,0,1,.55.24c.21.1.37.19.53.28l.49.29a11.7,11.7,0,0,1,1.75,1.37,6.63,6.63,0,0,1,.73.79,8,8,0,0,1,.6.89c.12.21.24.42.35.63l.19.34c.2.36.39.67.57,1l.6.93.59.93,0,.06h0a6.11,6.11,0,0,0-.67.46l-.78-1c-.32-.42-.65-.83-1-1.24l-.51-.6c-.18-.19-.35-.39-.53-.59-.35-.39-.71-.78-1.09-1.15l0,0c.28.45.58.89.89,1.32.15.21.31.42.46.64l.48.63c.31.42.64.83,1,1.23l.84,1a7.8,7.8,0,0,0-.58.57h0L99,71l-.78-.77Zm-1.64,2.37c-.31-.16-.64-.32-1-.48l-.36-.16-.65-.29a6.87,6.87,0,0,1-1-.52,9.18,9.18,0,0,1-.85-.65,12.2,12.2,0,0,1-1.52-1.63l-.34-.46c-.1-.14-.2-.3-.32-.49l-.29-.53c-.07-.13-.15-.3-.23-.49l.1-.15.54,0,.6.07c.22,0,.41.06.58.1l.56.13a12.51,12.51,0,0,1,2.08.77,7.34,7.34,0,0,1,.93.53,8.81,8.81,0,0,1,.85.67l.52.49.29.27c.3.28.57.52.84.74l.85.7.84.71.06.06a6.35,6.35,0,0,0-.49.64l-1.07-.76q-.65-.45-1.32-.87l-.67-.42-.68-.4c-.45-.27-.91-.52-1.39-.76l0,0c.4.35.82.67,1.24,1l.64.47.64.46q.64.45,1.32.87l1.11.7a6.8,6.8,0,0,0-.38.71l-.09-.05-1-.5ZM95,74.6c-.34-.06-.7-.11-1.1-.16l-.4,0-.71-.08a6.71,6.71,0,0,1-1-.21,7.22,7.22,0,0,1-1-.36,12.57,12.57,0,0,1-2-1.08c-.18-.13-.33-.24-.46-.35a5.76,5.76,0,0,1-.45-.37c-.14-.11-.29-.26-.45-.41s-.23-.24-.36-.4l0-.17a5.19,5.19,0,0,1,.52-.14,5.63,5.63,0,0,1,.59-.12l.58-.08.58,0a12,12,0,0,1,2.22.11,6.85,6.85,0,0,1,2,.6l.65.31.36.17q.54.26,1,.45l1,.41,1,.41.1,0c0,.09-.08.2-.12.3a4,4,0,0,0-.15.45l-1.28-.4c-.5-.15-1-.3-1.51-.43L94,72.82l-.77-.18c-.52-.11-1-.22-1.56-.3v0c.49.2,1,.39,1.48.56l.75.25.75.24c.51.16,1,.3,1.52.43l1.3.34a6.86,6.86,0,0,0-.14.79l-.13,0-1.09-.18Zm0,2.88c-.35,0-.71.11-1.11.19l-.38.08-.7.14a9.66,9.66,0,0,1-1.07.13,8,8,0,0,1-1.08,0,12.45,12.45,0,0,1-2.17-.44l-.55-.19-.55-.21c-.16-.08-.35-.16-.54-.27a3,3,0,0,1-.47-.27v-.17l.46-.3.52-.29.54-.25c.15-.07.31-.14.53-.22a12.91,12.91,0,0,1,2.14-.58,6.88,6.88,0,0,1,1.07-.1,8.41,8.41,0,0,1,1.08,0l.71.1.39,0c.4.06.76.1,1.11.12l1.1.08,1.1.09h.12c0,.27,0,.54,0,.8H95.86c-.53,0-1.06,0-1.58,0l-.79,0-.79.06c-.52,0-1,.11-1.57.19v0c.53,0,1.06.07,1.58.08l.79,0h.79c.53,0,1.06,0,1.58,0l1.36-.08a6.82,6.82,0,0,0,.1.79l-.15,0-1.09.16Zm.91,2.75c-.31.14-.64.31-1,.51l-.34.19-.63.35a6.79,6.79,0,0,1-1,.44,7.34,7.34,0,0,1-1,.29,12.14,12.14,0,0,1-2.21.24,5.31,5.31,0,0,1-.58,0,4.24,4.24,0,0,1-.58,0c-.18,0-.39,0-.6-.08a5.06,5.06,0,0,1-.53-.11l-.06-.17c.12-.16.24-.31.34-.42l.41-.44.44-.4c.12-.11.26-.23.44-.37A11.73,11.73,0,0,1,90.87,79a6.36,6.36,0,0,1,1-.43,9.73,9.73,0,0,1,1-.27l.71-.12.39-.07c.4-.07.76-.15,1.09-.23l1.07-.26,1.08-.24.15,0a5.16,5.16,0,0,0,.21.77l-1.31.43c-.51.16-1,.34-1.49.53l-.74.28-.73.3c-.49.21-1,.42-1.44.66v0c.52-.12,1-.26,1.53-.4l.76-.23.75-.24c.5-.16,1-.34,1.49-.53l1.3-.49a5.85,5.85,0,0,0,.34.72l-.16.08-1,.48Zm1.7,2.33c-.25.24-.51.5-.79.79l-.27.29-.49.52a8.23,8.23,0,0,1-.8.72,7.78,7.78,0,0,1-.9.59,11.67,11.67,0,0,1-2,.9l-.55.17-.57.14-.6.1a3.69,3.69,0,0,1-.54,0L90,86.7a4.69,4.69,0,0,1,.19-.51c.09-.2.18-.39.26-.54s.2-.37.29-.52.18-.29.31-.48a11.85,11.85,0,0,1,1.41-1.71,6.43,6.43,0,0,1,.81-.71,9.7,9.7,0,0,1,.91-.58l.64-.33.35-.18c.36-.19.68-.37,1-.55l.94-.57,1-.57.15-.08a7.57,7.57,0,0,0,.44.66h0l-1.14.82q-.65.47-1.26,1l-.61.49-.61.51c-.4.34-.79.69-1.17,1.06l0,0c.46-.27.9-.56,1.34-.85l.65-.45.65-.45c.42-.31.84-.63,1.25-1l1.1-.88h0c.17.2.35.4.54.59l-.14.13-.8.77Zm2.87.74-.54,1q-.25.45-.51,1c-.06.12-.12.24-.17.36l-.31.64a6.53,6.53,0,0,1-.55.93,6.32,6.32,0,0,1-.67.84,12.58,12.58,0,0,1-1.66,1.47c-.19.14-.33.24-.48.33s-.3.19-.5.31l-.54.28c-.13.06-.3.14-.49.21l-.14-.1A4.27,4.27,0,0,1,94,90c0-.22,0-.42.08-.6s.08-.4.12-.58.08-.33.15-.55a11.48,11.48,0,0,1,.82-2.06,8,8,0,0,1,.56-.92,8.87,8.87,0,0,1,.69-.83l.5-.51a3.7,3.7,0,0,0,.28-.28,11,11,0,0,0,.76-.82l.73-.83.73-.82L99.5,81h0a6.23,6.23,0,0,0,.62.51l-.85,1.14c-.32.42-.62.85-.91,1.29l-.43.66c-.15.22-.29.44-.43.67-.27.45-.54.9-.8,1.37l0,0c.36-.39.69-.8,1-1.21l.48-.63.48-.63c.31-.42.61-.85.91-1.29l.78-1.19a6.85,6.85,0,0,0,.69.4l-.1.19Zm2,3c0,.13,0,.26,0,.39s-.06.48-.1.71a7.83,7.83,0,0,1-.24,1,6.24,6.24,0,0,1-.39,1,11.58,11.58,0,0,1-1.13,1.91c-.14.19-.24.33-.35.46l-.39.44c-.12.13-.26.28-.42.43s-.25.23-.41.35l-.17,0c-.06-.19-.1-.38-.13-.52a5.2,5.2,0,0,1-.1-.59c0-.23,0-.42-.07-.59s0-.35,0-.58a12,12,0,0,1,.17-2.21,6.46,6.46,0,0,1,.25-1,8.94,8.94,0,0,1,.4-1l.33-.64.18-.35c.18-.36.34-.7.47-1l.44-1,.45-1,.09-.2a4.4,4.4,0,0,0,.5.21l.23.09h0l-.46,1.36q-.25.75-.48,1.5l-.21.76c-.06.26-.13.51-.2.77-.12.51-.25,1-.34,1.54l0,0c.22-.49.41-1,.6-1.47.1-.24.18-.49.27-.74l.26-.74c.17-.5.33-1,.48-1.51l.39-1.39a7.64,7.64,0,0,0,.77.17h0l0,.22-.21,1.09-.22,1.08C102.61,85.53,102.55,85.89,102.49,86.29Zm3.07-1.06c0,.34.09.71.16,1.11,0,.13,0,.26.07.39s.09.47.12.7a9.07,9.07,0,0,1,.1,1.07,8.15,8.15,0,0,1-.07,1.08,12.37,12.37,0,0,1-.5,2.16,5.28,5.28,0,0,1-.2.54,4.58,4.58,0,0,1-.23.54c-.07.16-.17.35-.27.54s-.17.29-.29.46h-.17a4.38,4.38,0,0,1-.28-.46,4.6,4.6,0,0,1-.28-.53c-.1-.21-.18-.38-.24-.54a5.28,5.28,0,0,1-.2-.54,11.36,11.36,0,0,1-.52-2.16,6.75,6.75,0,0,1-.08-1.07,8.72,8.72,0,0,1,.08-1.07l.12-.71.06-.39c.07-.4.12-.76.15-1.11l.11-1.09.12-1.1,0-.22a5.39,5.39,0,0,0,.8.06l0,1.44c0,.53,0,1,0,1.58l0,.79c0,.26,0,.53,0,.79,0,.52.08,1.05.14,1.58h.05c.06-.53.09-1.06.12-1.58,0-.27,0-.53,0-.79l0-.79c0-.53,0-1,0-1.58l0-1.44h0a7.29,7.29,0,0,0,.79-.08l0,.23.13,1.09Zm2.77-.84c.14.32.3.65.49,1l.18.35.33.64a8.57,8.57,0,0,1,.42,1,7.18,7.18,0,0,1,.26,1,12,12,0,0,1,.18,2.21c0,.23,0,.41,0,.58s0,.36-.06.58-.06.39-.1.6-.07.33-.13.53l-.16,0a3.18,3.18,0,0,1-.41-.35l-.43-.42c-.16-.17-.28-.31-.39-.45l-.36-.45A11.84,11.84,0,0,1,107,89.4a6.62,6.62,0,0,1-.4-1,8.13,8.13,0,0,1-.25-1c0-.24-.07-.48-.1-.71l-.06-.39c-.06-.4-.12-.76-.2-1.1l-.23-1.08L105.52,83l0-.22-.14,0a5.8,5.8,0,0,0,.92-.2h0l.4,1.38c.15.51.31,1,.49,1.5l.27.75c.09.24.18.49.28.74.19.49.39,1,.61,1.46l0,0c-.1-.52-.22-1-.36-1.54-.06-.26-.13-.51-.2-.76l-.22-.76c-.15-.51-.31-1-.49-1.5l-.48-1.36h0c.25-.09.49-.2.73-.31l.1.2.45,1Zm2.38-1.63c.23.26.48.52.77.81l.28.27.51.51a6.93,6.93,0,0,1,1.26,1.73,11.64,11.64,0,0,1,.85,2.06c.06.21.11.39.15.55s.08.36.12.58.07.38.09.6a3.83,3.83,0,0,1,0,.53l-.14.1a3.69,3.69,0,0,1-.5-.2c-.2-.09-.38-.19-.54-.28s-.36-.2-.51-.3l-.47-.32a12.63,12.63,0,0,1-1.68-1.46,8.27,8.27,0,0,1-.68-.83,7,7,0,0,1-.55-.92c-.11-.22-.22-.43-.32-.65s-.11-.23-.17-.35c-.18-.37-.35-.69-.52-1l-.55-1-.54-1-.1-.19a6.82,6.82,0,0,0,.68-.41l.81,1.19c.29.44.6.86.92,1.28l.48.63.49.62c.33.41.67.81,1,1.2l0,0c-.25-.47-.53-.92-.81-1.36-.14-.23-.28-.45-.43-.67l-.44-.65c-.29-.44-.6-.87-.92-1.29l-.86-1.14h0a7.34,7.34,0,0,0,.6-.51h0l.15.15.74.82Zm1.77-2.29c.3.18.62.36,1,.54l.35.18.64.33a8,8,0,0,1,.91.57,7.32,7.32,0,0,1,.82.69,12.51,12.51,0,0,1,1.43,1.7c.13.19.22.34.31.49s.19.31.29.51a5.42,5.42,0,0,1,.27.54c.06.13.13.31.2.5l-.1.14-.54,0c-.22,0-.43-.06-.6-.09l-.57-.14-.55-.16a11.32,11.32,0,0,1-2-.88,6.75,6.75,0,0,1-.91-.58,8.23,8.23,0,0,1-.8-.72c-.17-.16-.34-.34-.5-.51l-.27-.29c-.28-.29-.54-.55-.8-.78l-.81-.75-.81-.75-.14-.14h0c.18-.19.36-.39.53-.6l1.11.88c.42.33.84.64,1.27,1l.65.45.65.44c.44.28.89.57,1.35.83l0,0c-.39-.37-.79-.72-1.19-1-.2-.18-.41-.34-.61-.51l-.62-.49c-.41-.32-.84-.64-1.27-.94L110,79.93a6.13,6.13,0,0,0,.46-.74l0,.07.17.1,1,.55Zm-.81-.83-1-.47-.17-.09a6.51,6.51,0,0,0,.34-.76v0l1.31.49c.49.19,1,.36,1.49.52l.76.23.76.22c.5.14,1,.28,1.53.39l0,0c-.48-.23-1-.43-1.45-.63l-.74-.3-.73-.28q-.75-.27-1.5-.51L111,78a6.82,6.82,0,0,0,.33-1.77l1.37.07c.53,0,1,0,1.58,0H115l.79,0c.53,0,1,0,1.58-.1v0c-.52-.07-1-.12-1.57-.16-.26,0-.53,0-.79-.06l-.79,0c-.52,0-1,0-1.58,0h-1.37a7.14,7.14,0,0,0-.23-1.79l1.31-.35c.51-.13,1-.28,1.52-.44l.75-.25.74-.26c.5-.18,1-.37,1.48-.58v0c-.53.09-1,.2-1.56.32l-.76.19-.77.19c-.51.14-1,.29-1.51.45l-1.29.42a6.09,6.09,0,0,0-.28-.75h0l.11,0,1-.43,1-.42c.32-.13.65-.28,1-.46l.35-.17.65-.32a8.15,8.15,0,0,1,1-.39,7.74,7.74,0,0,1,1.05-.23,12,12,0,0,1,2.22-.12l.57,0a4.54,4.54,0,0,1,.58.07c.18,0,.39.06.6.11s.32.08.52.15l0,.16a5.37,5.37,0,0,1-.36.4c-.15.16-.31.3-.44.42l-.45.38c-.13.11-.28.21-.46.34a12.08,12.08,0,0,1-1.93,1.1,7.91,7.91,0,0,1-1,.38,6.71,6.71,0,0,1-1.05.21l-.71.09-.4,0c-.4,0-.76.1-1.1.16l-1.08.2-1.09.19-.14,0,0,.2h.14l1.1-.11,1.1-.08c.35,0,.71-.07,1.11-.13l.39-.06.71-.1a8.59,8.59,0,0,1,1.08-.07,6.65,6.65,0,0,1,1.06.1,11.39,11.39,0,0,1,2.16.55l.53.22a5.64,5.64,0,0,1,.53.24l.54.29c.12.08.28.17.45.3v.17c-.17.11-.33.2-.46.27s-.38.19-.54.27l-.55.22-.54.19a11.71,11.71,0,0,1-2.18.46,7.88,7.88,0,0,1-1.07,0,9.26,9.26,0,0,1-1.07-.11l-.7-.14-.39-.07c-.4-.08-.76-.14-1.1-.18l-1.1-.14-1.09-.15-.16,0c0,.07,0,.13,0,.2l.17,0,1.07.24,1.08.25c.34.08.7.15,1.1.22L115,78c.23,0,.47.07.7.12a7.67,7.67,0,0,1,1,.26,8.13,8.13,0,0,1,1,.42A12.21,12.21,0,0,1,119.58,80c.18.14.31.25.44.37s.27.24.44.39l.41.44c.1.11.22.25.35.42l-.06.16a5.37,5.37,0,0,1-.53.12L120,82l-.59,0h-.58a12.17,12.17,0,0,1-2.21-.22,6.2,6.2,0,0,1-1-.28,8.75,8.75,0,0,1-1-.43L114,80.8l-.35-.19c-.35-.2-.68-.36-1-.51Z"/><path class="cls-5" d="M105.71,71.93a4.18,4.18,0,1,0,2.46,5.39A4.19,4.19,0,0,0,105.71,71.93Z"/><path class="cls-5" d="M106.36,70.19A6,6,0,1,0,109.91,78,6,6,0,0,0,106.36,70.19Zm-4.18,11.2a5.91,5.91,0,1,1,7.61-3.47A5.91,5.91,0,0,1,102.18,81.39Z"/><path class="cls-5" d="M73.47,103.3l1,.53a8.2,8.2,0,0,0,1,.45,7.88,7.88,0,0,0,1.06.28,12.71,12.71,0,0,0,2.25.23l.58,0,.6,0,.61-.09.63-.15.12-.34a5.37,5.37,0,0,0-.41-.51c-.14-.15-.28-.3-.43-.44l-.44-.41-.45-.37a12.43,12.43,0,0,0-1.91-1.2,8.05,8.05,0,0,0-1-.43,9.85,9.85,0,0,0-1.07-.27l-1.1-.18c-.37-.06-.73-.13-1.09-.21l-.61-.14.62.08c.36,0,.73.1,1.09.17l1.09.21a8.22,8.22,0,0,0,1.1.12,8.1,8.1,0,0,0,1.1,0,12.64,12.64,0,0,0,2.21-.47l.55-.19.55-.23c.19-.08.37-.17.56-.27a5.46,5.46,0,0,0,.55-.34v-.35a5.63,5.63,0,0,0-.54-.36l-.54-.3-.55-.25q-.27-.12-.54-.21A11.69,11.69,0,0,0,77.87,97a8.18,8.18,0,0,0-1.1-.1,10.32,10.32,0,0,0-1.1.07l-1.1.16c-.37.06-.73.1-1.1.13l-.62.05.6-.11c.37-.07.73-.12,1.1-.17l1.1-.13a7.65,7.65,0,0,0,1.08-.22,6.52,6.52,0,0,0,1-.39,11.89,11.89,0,0,0,2-1.11l.47-.35a5.58,5.58,0,0,0,.46-.39q.22-.19.45-.42c.14-.15.29-.31.43-.49l-.1-.34A5.49,5.49,0,0,0,80.8,93c-.2,0-.4-.08-.6-.12l-.6-.07-.58,0a11.94,11.94,0,0,0-2.25.13,7.67,7.67,0,0,0-1.08.23,9,9,0,0,0-1,.4l-1,.49c-.33.16-.66.32-1,.46l-.57.23.54-.29,1-.49,1-.46a9.06,9.06,0,0,0,1-.54,6.94,6.94,0,0,0,.86-.68A12.15,12.15,0,0,0,78,90.58c.12-.15.23-.31.34-.47s.22-.34.32-.51.2-.35.3-.54.18-.38.26-.6l-.2-.29a4.61,4.61,0,0,0-.65,0l-.61.07-.59.11-.57.14a12.13,12.13,0,0,0-2.11.81,6.9,6.9,0,0,0-1,.55,9.28,9.28,0,0,0-.86.69l-.8.77c-.27.26-.54.51-.82.74l-.48.4L71,92c.25-.26.52-.52.79-.77s.56-.49.83-.75A7.09,7.09,0,0,0,74,88.8a12.39,12.39,0,0,0,1-2l.18-.55.15-.58c0-.2.09-.4.12-.61a4.48,4.48,0,0,0,.06-.65l-.27-.21a5.64,5.64,0,0,0-.62.21l-.56.26c-.18.09-.36.18-.53.28l-.5.31a12.73,12.73,0,0,0-1.76,1.4,9.61,9.61,0,0,0-.74.82,8.07,8.07,0,0,0-.6.92c-.18.32-.36.65-.53,1s-.37.64-.56,1l-.34.53.28-.55c.16-.33.34-.66.52-1s.38-.64.56-1a7,7,0,0,0,.47-1,7.46,7.46,0,0,0,.31-1A12.59,12.59,0,0,0,70.86,84c0-.19,0-.39,0-.58s0-.4,0-.6,0-.41-.08-.61a5.19,5.19,0,0,0-.13-.64l-.33-.12a4.15,4.15,0,0,0-.52.39,5.92,5.92,0,0,0-.45.41l-.42.43-.38.45A12.51,12.51,0,0,0,67.26,85a8.07,8.07,0,0,0-.45,1,8,8,0,0,0-.3,1.06l-.21,1.1q-.1.54-.24,1.08l-.28,1.07-.27,1.07v.08c-.21,0-.41-.08-.62-.1h0v-.07l.06-1.1,0-1.1c0-.37,0-.74.09-1.11l.12-1.1a8.11,8.11,0,0,0,0-1.1,6.87,6.87,0,0,0-.13-1.1,12.67,12.67,0,0,0-.65-2.16c-.07-.18-.15-.35-.23-.53L64,81.48c-.1-.17-.2-.35-.32-.53a5.31,5.31,0,0,0-.38-.53l-.35,0c-.12.19-.22.38-.32.56s-.17.38-.25.57-.14.37-.2.56-.12.37-.17.56a11.49,11.49,0,0,0-.39,2.22,6.74,6.74,0,0,0,0,1.1,7.94,7.94,0,0,0,.15,1.09c.08.36.17.72.25,1.09s.16.72.22,1.08l.1.62-.16-.6c-.1-.35-.18-.71-.26-1.07s-.14-.73-.22-1.1a7.46,7.46,0,0,0-.31-1,6,6,0,0,0-.46-1,12,12,0,0,0-1.27-1.86,5.34,5.34,0,0,0-.39-.44,5.66,5.66,0,0,0-.42-.43c-.15-.14-.3-.28-.46-.41s-.33-.26-.52-.39l-.33.13a5.19,5.19,0,0,0-.13.64c0,.2-.05.41-.06.61s0,.4,0,.6a5.56,5.56,0,0,0,0,.58,12.47,12.47,0,0,0,.3,2.24,7.53,7.53,0,0,0,.33,1.05,6.45,6.45,0,0,0,.48,1c.18.32.37.64.56,1s.37.64.54,1l.28.56-.33-.52c-.2-.31-.39-.63-.57-1l-.54-1A7.74,7.74,0,0,0,57,86.71a12.29,12.29,0,0,0-1.78-1.39l-.5-.3c-.17-.1-.35-.19-.53-.28l-.57-.25a4.84,4.84,0,0,0-.61-.21l-.28.22a6.47,6.47,0,0,0,.07.65c0,.21.08.4.13.6s.1.39.15.58.12.37.19.56a11.5,11.5,0,0,0,1,2,7.39,7.39,0,0,0,1.39,1.7l.83.74c.27.25.54.5.8.76l.44.45-.48-.39c-.28-.24-.56-.48-.83-.74s-.53-.51-.81-.76a8,8,0,0,0-.86-.68,7.66,7.66,0,0,0-1-.55,13.26,13.26,0,0,0-2.11-.78L51,88.54l-.59-.11a6.2,6.2,0,0,0-.62-.06,4.61,4.61,0,0,0-.65,0l-.19.3c.08.21.17.4.26.59s.2.36.3.54l.33.5.34.47a12.85,12.85,0,0,0,1.55,1.65,7.18,7.18,0,0,0,.87.67,8.24,8.24,0,0,0,1,.53l1,.45c.34.15.67.31,1,.48l.55.29-.57-.23c-.34-.13-.68-.28-1-.44s-.67-.33-1-.48a8,8,0,0,0-1-.39,7.67,7.67,0,0,0-1.08-.23,12,12,0,0,0-2.25-.1l-.58,0-.59.08c-.21,0-.41.07-.61.12a5.45,5.45,0,0,0-.62.19l-.1.34a5,5,0,0,0,.43.48l.45.43.47.38c.15.12.31.23.47.34a11.6,11.6,0,0,0,2,1.1,6.68,6.68,0,0,0,1,.37,6.86,6.86,0,0,0,1.08.21l1.11.13c.37,0,.73.09,1.1.15l.61.11-.61,0c-.37,0-.74-.06-1.11-.11s-.73-.11-1.1-.15a7.09,7.09,0,0,0-2.19,0,12.37,12.37,0,0,0-2.18.59c-.18.06-.36.14-.54.22l-.54.25c-.18.1-.36.19-.54.3a5.77,5.77,0,0,0-.54.37v.35a5.45,5.45,0,0,0,.56.33c.19.1.37.19.56.27l.55.22c.19.07.37.13.56.18a11.56,11.56,0,0,0,2.21.45,6.75,6.75,0,0,0,1.1,0,8.07,8.07,0,0,0,1.09-.12l1.09-.22c.37-.08.73-.14,1.1-.19l.62-.08-.61.14c-.35.09-.72.16-1.08.23l-1.1.19a7.61,7.61,0,0,0-2.07.71,13.3,13.3,0,0,0-1.9,1.22l-.45.38-.44.41q-.21.21-.42.45a5.31,5.31,0,0,0-.4.51l.12.33a5.21,5.21,0,0,0,.63.15l.61.08.6,0h.59a11.82,11.82,0,0,0,2.24-.25,7.92,7.92,0,0,0,1.06-.29,9.88,9.88,0,0,0,1-.45l1-.55c.33-.18.66-.35,1-.5l.56-.27-.53.32q-.46.28-1,.54L54,104a9.1,9.1,0,0,0-.93.59,8.08,8.08,0,0,0-.83.72,12.16,12.16,0,0,0-1.43,1.74c-.11.16-.22.32-.32.49s-.2.35-.29.53l-.27.55a5.48,5.48,0,0,0-.22.61l.21.28a4.51,4.51,0,0,0,.65,0l.61-.11.58-.14.56-.17a11.92,11.92,0,0,0,2.06-.91,7,7,0,0,0,.92-.61,7.12,7.12,0,0,0,.82-.74c.26-.26.51-.54.76-.81s.51-.53.78-.78l.46-.43-.41.47q-.36.42-.75.81c-.26.26-.53.52-.78.79a7.11,7.11,0,0,0-.71.85,7.34,7.34,0,0,0-.57.94,12,12,0,0,0-.84,2.09c-.05.19-.11.37-.15.57l-.12.58c0,.2-.06.4-.08.61a4.64,4.64,0,0,0,0,.65l.28.21c.22-.08.41-.16.6-.25s.37-.19.55-.29.35-.2.51-.31l.48-.33a12.23,12.23,0,0,0,1.69-1.5,6.34,6.34,0,0,0,.69-.86,8.17,8.17,0,0,0,.56-1l.48-1q.24-.5.51-1l.3-.54-.24.57c-.15.33-.31.67-.48,1s-.34.66-.5,1a7.54,7.54,0,0,0-.42,1,9.81,9.81,0,0,0-.26,1.07,12.82,12.82,0,0,0-.16,2.25c0,.19,0,.39,0,.58l.06.6c0,.2.07.4.11.61a3.84,3.84,0,0,0,.17.62l.34.11a5.12,5.12,0,0,0,.49-.42c.15-.14.3-.29.44-.44l.39-.45.36-.46a13.36,13.36,0,0,0,1.15-1.94,10,10,0,0,0,.4-1,9.73,9.73,0,0,0,.24-1.07l.15-1.1c0-.37.11-.74.18-1.1l.13-.61-.06.62c0,.36-.09.73-.15,1.09s-.13.74-.18,1.1a10.19,10.19,0,0,0-.09,1.1,8.14,8.14,0,0,0,.08,1.1,12.46,12.46,0,0,0,.53,2.19c.07.18.13.37.21.55s.15.36.24.55.18.36.29.54a3.63,3.63,0,0,0,.35.55h.35c.13-.19.24-.37.34-.55s.2-.37.29-.55.16-.37.23-.55.14-.37.2-.55a11.84,11.84,0,0,0,.51-2.2,8.13,8.13,0,0,0,.07-1.1A8,8,0,0,0,66,110c-.06-.37-.13-.74-.19-1.1s-.12-.73-.16-1.1l-.06-.62.13.6c.07.36.14.73.19,1.1s.1.73.16,1.1A7.91,7.91,0,0,0,66.3,111a7.49,7.49,0,0,0,.41,1A12.9,12.9,0,0,0,67.88,114c.12.15.24.31.37.46s.25.3.39.45l.44.43c.15.14.32.28.5.42l.34-.11a5.83,5.83,0,0,0,.16-.63c0-.21.07-.41.1-.61l.06-.6c0-.2,0-.39,0-.58a11.85,11.85,0,0,0-.19-2.25,7.94,7.94,0,0,0-.26-1.07,9.87,9.87,0,0,0-.43-1c-.16-.33-.34-.66-.51-1s-.34-.66-.49-1l-.25-.57.31.54c.18.32.35.64.51,1s.33.67.49,1a7.66,7.66,0,0,0,1.27,1.79,12.2,12.2,0,0,0,1.7,1.48,5.25,5.25,0,0,0,.49.33c.16.11.33.21.51.31L74,113a5.36,5.36,0,0,0,.6.24l.29-.21c0-.22,0-.44,0-.64a6,6,0,0,0-.09-.61c0-.2-.08-.4-.13-.59a5.12,5.12,0,0,0-.15-.56,12.07,12.07,0,0,0-.86-2.09,6.31,6.31,0,0,0-.58-.93,7.16,7.16,0,0,0-.71-.84L71.5,106c-.27-.26-.52-.52-.77-.8l-.41-.47.45.42c.28.25.54.51.8.78s.5.54.77.8a8.07,8.07,0,0,0,.82.73,6.36,6.36,0,0,0,.93.59,11.66,11.66,0,0,0,2.07.9,5.15,5.15,0,0,0,.56.16l.58.14.61.1a4.51,4.51,0,0,0,.65,0l.21-.28c-.07-.22-.15-.42-.23-.61s-.18-.38-.28-.56-.19-.35-.29-.51-.21-.34-.32-.5a12.8,12.8,0,0,0-1.45-1.72,8.19,8.19,0,0,0-.84-.72,9.86,9.86,0,0,0-.94-.58l-1-.5c-.33-.17-.65-.35-1-.54l-.54-.32.57.26Zm-5.14-12,.58-.93c.19-.3.37-.61.57-1l.19-.34c.11-.21.22-.43.34-.63a8.29,8.29,0,0,1,.59-.9,8.66,8.66,0,0,1,.72-.8,11.7,11.7,0,0,1,1.74-1.38l.49-.31.52-.27c.16-.08.35-.17.55-.25a4.69,4.69,0,0,1,.51-.19l.13.11c0,.2,0,.39-.06.53s-.07.43-.11.6-.1.4-.15.57-.1.33-.18.54a12.19,12.19,0,0,1-.93,2,7.7,7.7,0,0,1-.61.89,7.3,7.3,0,0,1-.73.78l-.53.49-.29.26c-.31.27-.57.53-.81.78l-.77.79-.77.78-.07.07.14.15.08-.07.83-.71.85-.71c.26-.23.54-.47.83-.75l.29-.27c.16-.17.34-.34.51-.5a8.45,8.45,0,0,1,.84-.67,6,6,0,0,1,.93-.54,12,12,0,0,1,2.08-.8l.56-.13a5.8,5.8,0,0,1,.57-.11,5.21,5.21,0,0,1,.6-.07,4.27,4.27,0,0,1,.54,0l.1.15c-.07.19-.16.36-.22.49s-.2.38-.29.53l-.32.5c-.09.14-.19.28-.33.47a12,12,0,0,1-1.5,1.63,7,7,0,0,1-.85.66,8.76,8.76,0,0,1-.94.53l-.65.3-.36.16c-.37.17-.7.33-1,.5l-1,.52-1,.51-.11,0h0a5.9,5.9,0,0,0-.38-.7h0l1.12-.72c.44-.28.88-.58,1.3-.88l.64-.47c.21-.16.43-.31.63-.47.42-.32.84-.65,1.24-1l0,0q-.7.38-1.38.78l-.68.41-.66.42c-.45.29-.88.58-1.31.89l-1.08.77A6.73,6.73,0,0,0,68.66,93h0l.84-1c.34-.41.66-.82,1-1.24l.46-.64c.16-.21.31-.42.46-.64.3-.43.6-.87.87-1.33l0,0c-.38.37-.73.76-1.08,1.16-.18.19-.35.39-.52.59l-.51.61c-.34.4-.66.82-1,1.24l-.78,1h0a8,8,0,0,0-.68-.45h0l0-.07Zm2.18,9.46a6.8,6.8,0,1,1-4-8.74A6.8,6.8,0,0,1,70.51,100.77Zm-4.83-9.32L66,90.38l.28-1.07c.09-.33.17-.69.24-1.09,0-.13,0-.26.08-.39s.09-.47.14-.7a6.47,6.47,0,0,1,.29-1,6.35,6.35,0,0,1,.44-1,11.66,11.66,0,0,1,1.23-1.85l.38-.44.41-.42c.13-.12.28-.27.45-.41s.25-.21.42-.33l.16.06a3.6,3.6,0,0,1,.11.53,5,5,0,0,1,.07.6c0,.23,0,.42,0,.59a5.58,5.58,0,0,1,0,.58,11.33,11.33,0,0,1-.28,2.2,7.33,7.33,0,0,1-.3,1,7.7,7.7,0,0,1-.47,1c-.11.21-.23.42-.35.62l-.2.34c-.2.36-.38.68-.53,1l-.49,1-.5,1,0,.07h0a6.86,6.86,0,0,0-.91-.42l.18.07.49-1.2c.19-.49.38-1,.55-1.48l.25-.75c.08-.25.17-.5.24-.75.16-.5.31-1,.43-1.52l0,0c-.24.47-.47.95-.68,1.43-.11.24-.21.49-.31.73l-.3.73c-.2.49-.38,1-.55,1.48l-.42,1.22a7.59,7.59,0,0,0-.78-.22h0Zm-6-1.21c-.16-.31-.34-.63-.54-1l-.21-.34-.36-.62a7.09,7.09,0,0,1-.47-1,6.79,6.79,0,0,1-.32-1,12.35,12.35,0,0,1-.3-2.2,5.58,5.58,0,0,1,0-.58c0-.17,0-.36,0-.59s0-.38.07-.6a5.24,5.24,0,0,1,.1-.53l.16-.06a3.41,3.41,0,0,1,.43.33c.17.13.32.28.45.4s.29.29.41.42a4.41,4.41,0,0,1,.38.43,12.08,12.08,0,0,1,1.26,1.83,8.39,8.39,0,0,1,.45,1,8.63,8.63,0,0,1,.3,1c.05.23.1.47.14.7s0,.26.08.39c.08.4.17.76.26,1.09l.28,1.06.28,1.07,0,.06.2,0v-.07l-.19-1.09-.18-1.08c-.05-.35-.13-.71-.22-1.1,0-.13-.06-.26-.09-.39l-.15-.69A6.78,6.78,0,0,1,61.73,86a7.69,7.69,0,0,1,0-1.07,11.64,11.64,0,0,1,.39-2.19c.06-.22.11-.39.16-.55s.12-.35.21-.55.15-.36.24-.56.15-.3.26-.47h.17a5.38,5.38,0,0,1,.31.44c.12.18.22.36.31.52s.19.36.27.52l.23.53a12,12,0,0,1,.63,2.13,6.83,6.83,0,0,1,.14,1.07,8,8,0,0,1,0,1.07c0,.24,0,.48-.08.71s0,.26,0,.39c0,.41-.07.77-.09,1.12l0,1.1-.06,1.1v.07a7.3,7.3,0,0,0-.81,0l0-1.29c0-.52,0-1-.09-1.57l-.07-.79-.09-.78c-.06-.53-.13-1.05-.22-1.57h0c0,.53,0,1.06,0,1.58,0,.27,0,.53,0,.79l0,.79c0,.53.05,1,.09,1.58l.11,1.28a6.76,6.76,0,0,0-1.78.4l-.43-1.22c-.18-.5-.36-1-.56-1.47l-.31-.73-.32-.72c-.22-.48-.45-1-.69-1.43l0,0c.13.51.29,1,.45,1.52l.24.75.26.75q.27.73.57,1.47l.5,1.19a7.05,7.05,0,0,0-.73.36h0l0-.07-.51-1ZM57.35,92c-.25-.25-.51-.5-.82-.77L56.24,91l-.53-.48a7.64,7.64,0,0,1-.75-.78,7.94,7.94,0,0,1-.61-.88,12.19,12.19,0,0,1-1-2l-.18-.55c-.05-.17-.1-.35-.15-.57s-.09-.38-.12-.59,0-.33-.07-.54l.14-.1a3.73,3.73,0,0,1,.51.18c.2.08.39.16.55.24l.52.28.49.29a11.21,11.21,0,0,1,1.75,1.37,6.63,6.63,0,0,1,.73.79,7.62,7.62,0,0,1,.6.89c.12.21.24.42.35.63s.13.23.19.34c.2.36.39.67.58,1l.59.93.59.93,0,.06h0a7.25,7.25,0,0,0-.67.46l-.78-1c-.32-.42-.65-.83-1-1.24l-.51-.6c-.18-.19-.35-.39-.53-.59-.35-.39-.71-.77-1.09-1.15l0,0c.28.45.58.89.88,1.32l.47.64.47.63q.48.63,1,1.23l.84,1a7.94,7.94,0,0,0-.59.57h0l-.06-.06-.79-.77ZM55.7,94.38c-.3-.17-.63-.32-1-.49l-.36-.16-.65-.29a7.34,7.34,0,0,1-.94-.52,8.1,8.1,0,0,1-.86-.65,13.53,13.53,0,0,1-1.52-1.62L50,90.18c-.09-.14-.2-.3-.31-.49s-.2-.34-.3-.53a3.89,3.89,0,0,1-.22-.49l.09-.15.54,0c.22,0,.43,0,.6.07a5.73,5.73,0,0,1,.58.1l.56.13a12.29,12.29,0,0,1,2.09.77,7.56,7.56,0,0,1,.93.54,7.27,7.27,0,0,1,.84.66l.53.49.28.27c.3.28.57.52.84.74l.85.7.85.71.06.06a5.16,5.16,0,0,0-.49.64l-1.08-.76c-.43-.3-.87-.59-1.31-.87l-.67-.42L54.6,92c-.46-.27-.92-.52-1.39-.76l0,0c.41.35.82.67,1.24,1l.64.47.64.46c.44.3.87.59,1.32.87l1.12.7a5.33,5.33,0,0,0-.38.71l-.1,0-1-.5Zm-.84,2.76c-.34-.06-.71-.11-1.11-.16l-.39,0-.71-.08a6.85,6.85,0,0,1-1.06-.21,7.7,7.7,0,0,1-1-.36,12.46,12.46,0,0,1-1.94-1.08l-.47-.34-.45-.38c-.13-.11-.29-.26-.44-.41s-.24-.24-.37-.4l.05-.17.52-.14a5.63,5.63,0,0,1,.59-.12l.59-.08.57,0a12,12,0,0,1,2.22.11,6.49,6.49,0,0,1,1,.22,7.21,7.21,0,0,1,1,.38l.65.31.35.17c.37.17.7.32,1,.45l1,.41,1,.41.09,0-.12.3c-.06.15-.1.3-.15.45L56.13,96c-.51-.15-1-.3-1.52-.43l-.77-.19-.77-.18c-.51-.11-1-.22-1.55-.3v0c.48.2,1,.39,1.48.56l.75.25.75.24c.5.16,1,.3,1.52.43l1.29.34a6.86,6.86,0,0,0-.14.79l-.13,0-1.09-.18Zm0,2.89c-.34,0-.7.1-1.1.18l-.39.08-.7.14a9.66,9.66,0,0,1-1.07.13,7.89,7.89,0,0,1-1.07,0,12.56,12.56,0,0,1-2.18-.44l-.55-.19-.54-.21c-.16-.08-.36-.16-.55-.27a4.88,4.88,0,0,1-.47-.26V99c.16-.12.32-.22.45-.3s.37-.21.53-.29l.53-.25.53-.22a13,13,0,0,1,2.15-.58,6.66,6.66,0,0,1,1.07-.1,8.26,8.26,0,0,1,1.07,0l.71.1.39.05q.6.09,1.11.12l1.1.08,1.1.09h.13a5.4,5.4,0,0,0,0,.8H55.75c-.53,0-1,0-1.58,0l-.79,0-.78.06c-.53,0-1.05.11-1.58.19v0c.53,0,1.06.07,1.59.08l.79,0h.79c.52,0,1.05,0,1.57,0l1.36-.08a6.83,6.83,0,0,0,.11.79l-.15,0L56,99.88Zm.91,2.74q-.46.21-1,.51l-.35.19-.62.35a7.93,7.93,0,0,1-1,.44,6.32,6.32,0,0,1-1,.29,12.14,12.14,0,0,1-2.21.24,5.17,5.17,0,0,1-.57,0,4.38,4.38,0,0,1-.59,0,5.26,5.26,0,0,1-.6-.08l-.53-.11,0-.16a4.63,4.63,0,0,1,.34-.43l.41-.44.43-.4c.13-.11.26-.23.44-.37a11.73,11.73,0,0,1,1.87-1.2,7.61,7.61,0,0,1,1-.43,8.62,8.62,0,0,1,1-.27l.7-.12.39-.07c.4-.07.76-.15,1.1-.23l1.07-.26,1.07-.24.15,0c.06.27.13.52.21.77l-1.31.43c-.5.16-1,.34-1.49.53l-.73.28-.74.31c-.48.2-1,.41-1.44.65l0,0c.51-.12,1-.26,1.53-.4l.76-.23.75-.24c.5-.16,1-.34,1.49-.53l1.29-.49a7.79,7.79,0,0,0,.34.72l-.16.08-1,.48Zm1.7,2.33c-.25.24-.51.5-.79.79l-.27.29c-.16.17-.32.35-.49.52a7.21,7.21,0,0,1-.8.72,7,7,0,0,1-.9.59,11.34,11.34,0,0,1-2,.9,4.17,4.17,0,0,1-.55.17l-.57.14-.6.1a3.68,3.68,0,0,1-.53.05l-.11-.13c.07-.2.14-.37.2-.51a5.51,5.51,0,0,1,.26-.54c.1-.2.19-.36.29-.52s.18-.29.3-.48a11.82,11.82,0,0,1,1.42-1.71,5.8,5.8,0,0,1,.81-.71,8.54,8.54,0,0,1,.91-.58l.63-.33.35-.18c.36-.19.68-.37,1-.55l.94-.57.95-.57.15-.08a7.48,7.48,0,0,0,.43.66h0l-1.14.82q-.63.47-1.26,1l-.61.49-.6.51c-.4.35-.8.69-1.18,1.06l0,0c.45-.27.9-.56,1.33-.85.22-.14.44-.3.66-.45l.64-.45q.65-.47,1.26-1l1.1-.88h0a6,6,0,0,0,.54.59l-.14.14-.8.76Zm2.87.75-.54,1q-.26.45-.51,1l-.17.36c-.1.21-.2.43-.31.64a7.66,7.66,0,0,1-.54.93,7.36,7.36,0,0,1-.68.84A12.06,12.06,0,0,1,56,112.05l-.47.32-.5.31-.54.28-.5.21-.14-.1c0-.2,0-.39,0-.54s.06-.42.08-.6.08-.4.12-.57.09-.34.15-.56a12.33,12.33,0,0,1,.83-2.06,6.78,6.78,0,0,1,.55-.92,10.77,10.77,0,0,1,.69-.83l.51-.51.27-.28c.29-.29.54-.55.77-.82l.72-.83.73-.82.13-.14h0c.2.17.4.34.62.5l-.85,1.14c-.31.42-.62.85-.91,1.29l-.43.66c-.14.22-.29.44-.42.67-.28.45-.55.9-.8,1.37l0,0c.36-.39.69-.8,1-1.21l.49-.62.47-.64c.32-.42.62-.85.91-1.29l.79-1.19a5.9,5.9,0,0,0,.69.4l-.1.19Zm2,3c0,.13,0,.26-.05.39s-.06.48-.1.71a7.91,7.91,0,0,1-.23,1,7.35,7.35,0,0,1-.39,1,12.36,12.36,0,0,1-1.14,1.91,5.43,5.43,0,0,1-.35.46c-.11.13-.23.28-.38.44l-.43.43c-.11.1-.25.23-.41.35l-.16,0c-.06-.19-.11-.38-.14-.52s-.08-.42-.1-.59,0-.41-.06-.59a4.79,4.79,0,0,1,0-.57,11.22,11.22,0,0,1,.16-2.22,6.46,6.46,0,0,1,.25-1,7.49,7.49,0,0,1,.41-1c.1-.22.21-.43.32-.64l.18-.35c.19-.36.34-.7.48-1l.44-1,.44-1,.09-.2a4.4,4.4,0,0,0,.5.21l.24.09h0l-.47,1.36c-.17.5-.33,1-.47,1.5l-.21.76c-.07.26-.14.51-.2.77-.13.51-.25,1-.35,1.55h0q.33-.72.6-1.47c.1-.24.19-.49.28-.74l.26-.74c.17-.5.32-1,.47-1.51l.39-1.39a7.25,7.25,0,0,0,.78.17h0l0,.22-.21,1.09-.22,1.08C62.5,108.07,62.44,108.43,62.38,108.83Zm3.08-1.06c0,.35.09.71.16,1.11l.06.39c0,.23.09.47.13.7A7.22,7.22,0,0,1,65.9,111a6.75,6.75,0,0,1-.07,1.08,11.53,11.53,0,0,1-.5,2.16c-.07.22-.13.38-.19.54s-.14.34-.23.54-.17.35-.28.54-.17.29-.28.46h-.17a4.67,4.67,0,0,1-.29-.46c-.11-.18-.2-.37-.28-.53s-.17-.38-.24-.54-.13-.32-.2-.54a11.36,11.36,0,0,1-.52-2.16,8.19,8.19,0,0,1-.08-1.07,7.22,7.22,0,0,1,.09-1.07c0-.24.07-.48.11-.71s0-.26.07-.39c.06-.4.11-.76.14-1.11l.11-1.09.12-1.1,0-.22a5.25,5.25,0,0,0,.79.06l0,1.44c0,.53,0,1,0,1.58l0,.79c0,.26,0,.53,0,.79,0,.53.07,1,.14,1.58h0c.06-.53.1-1.06.13-1.58l0-.79,0-.79c0-.53,0-1,0-1.58l0-1.44h0a7,7,0,0,0,.79-.08l0,.23.13,1.09Zm2.76-.84c.14.32.3.65.49,1l.18.35c.11.21.23.42.33.64a6.88,6.88,0,0,1,.68,2,12,12,0,0,1,.18,2.21c0,.23,0,.41,0,.58s0,.36-.06.58a5,5,0,0,1-.1.6,3.5,3.5,0,0,1-.12.53l-.17.05c-.16-.12-.3-.25-.41-.35l-.43-.42c-.15-.17-.28-.31-.39-.45l-.36-.45a11.84,11.84,0,0,1-1.15-1.9,7.9,7.9,0,0,1-.4-1,6.8,6.8,0,0,1-.24-1c0-.24-.08-.48-.11-.71s0-.26-.05-.39c-.06-.4-.13-.76-.2-1.1l-.23-1.08-.22-1.08,0-.22-.15,0a7.21,7.21,0,0,0,.92-.21h0l.41,1.38q.22.77.48,1.5l.27.75c.09.24.18.49.28.74.19.49.39,1,.62,1.46l0,0c-.1-.52-.23-1-.36-1.54l-.21-.76-.22-.76c-.15-.51-.31-1-.49-1.5L66.49,105h0c.25-.09.5-.2.73-.31l.1.2.46,1Zm2.38-1.63c.23.26.48.52.77.81l.28.28.51.5a7.9,7.9,0,0,1,.7.82,6.68,6.68,0,0,1,.56.91,11.64,11.64,0,0,1,.85,2.06c.07.22.11.39.15.55a5.68,5.68,0,0,1,.13.58c0,.17.06.38.09.6s0,.33,0,.53l-.14.1a5.19,5.19,0,0,1-.5-.2c-.19-.09-.38-.19-.53-.28s-.36-.2-.51-.3l-.48-.32a11.34,11.34,0,0,1-1.67-1.46,7.22,7.22,0,0,1-.69-.83,10.16,10.16,0,0,1-.55-.92c-.11-.21-.21-.43-.31-.65l-.18-.35c-.18-.37-.35-.69-.52-1l-.55-1-.53-1-.11-.19a6,6,0,0,0,.69-.41l.8,1.19c.3.44.6.86.92,1.28l.48.63.49.62c.34.41.67.81,1,1.2l0,0c-.26-.47-.53-.92-.81-1.36-.14-.23-.29-.45-.43-.67l-.44-.65c-.3-.44-.61-.87-.92-1.28L68.38,104h0c.21-.16.41-.33.61-.51h0l.14.15.74.82ZM72.37,103c.3.18.62.36,1,.54l.35.18.64.33a7.12,7.12,0,0,1,1.73,1.26A12.4,12.4,0,0,1,77.5,107c.13.19.23.34.32.49l.29.51a5.51,5.51,0,0,1,.26.54,4.32,4.32,0,0,1,.2.5l-.1.14-.54,0c-.21,0-.42-.06-.59-.09l-.58-.14-.55-.16a11.64,11.64,0,0,1-2-.88,6.63,6.63,0,0,1-.9-.58,9.56,9.56,0,0,1-.81-.71l-.5-.52-.27-.29c-.28-.29-.54-.55-.8-.78l-.81-.75-.8-.75-.15-.14h0a7.57,7.57,0,0,0,.53-.6l1.12.88c.41.33.83.64,1.26,1l.65.45.66.44c.44.29.88.57,1.34.83l0,0c-.38-.37-.78-.71-1.19-1l-.61-.51-.62-.49c-.41-.32-.83-.64-1.26-.94l-1.16-.81c.16-.24.32-.49.46-.75l0,.07.17.1,1,.55Zm-.81-.83-1-.47-.16-.09c.12-.24.24-.5.34-.76l0,0,1.31.49c.5.19,1,.36,1.5.52l.75.23.76.22c.51.14,1,.28,1.54.39v0c-.48-.24-1-.44-1.45-.64-.24-.11-.49-.2-.73-.3l-.74-.28c-.49-.18-1-.35-1.49-.51l-1.34-.42a6.82,6.82,0,0,0,.33-1.77l1.38.07c.52,0,1,0,1.58,0h.78l.79,0c.53,0,1.06,0,1.59-.1v0c-.53-.08-1.05-.13-1.58-.17-.26,0-.52,0-.79-.06l-.79,0c-.52,0-1,0-1.57,0H71.18A6.7,6.7,0,0,0,71,96.63l1.31-.35c.5-.13,1-.28,1.51-.44l.75-.25.75-.26c.49-.18,1-.37,1.47-.58v0c-.52.09-1,.2-1.55.32l-.77.19-.76.19c-.51.14-1,.29-1.52.45l-1.28.42a6.13,6.13,0,0,0-.29-.75h0l.12,0,1-.43,1-.42c.32-.13.66-.28,1-.46L74.1,94c.21-.11.42-.22.64-.32a8.83,8.83,0,0,1,1-.39,7.74,7.74,0,0,1,1.05-.23A12,12,0,0,1,79,92.94l.58,0c.17,0,.36,0,.58.07s.38.06.59.11.33.08.52.15l0,.16a5.37,5.37,0,0,1-.36.4c-.15.16-.3.3-.43.42l-.46.38a5.54,5.54,0,0,1-.46.34,11.27,11.27,0,0,1-1.93,1.1,7.79,7.79,0,0,1-1,.38,7.1,7.1,0,0,1-1.06.21c-.23,0-.48.06-.71.09l-.39,0c-.41,0-.77.1-1.11.16l-1.08.2-1.09.2-.13,0a1.36,1.36,0,0,0,0,.2h.15l1.09-.1,1.1-.09c.35,0,.71-.07,1.12-.13l.39-.06.7-.1a8.71,8.71,0,0,1,1.08-.07,6.88,6.88,0,0,1,1.07.1,12.09,12.09,0,0,1,2.15.55l.54.22a5.64,5.64,0,0,1,.53.24l.53.29a3.89,3.89,0,0,1,.45.3v.17c-.17.11-.34.2-.47.27s-.38.19-.54.27l-.55.22-.54.19a11.43,11.43,0,0,1-2.17.46,8,8,0,0,1-1.07,0,9.19,9.19,0,0,1-1.08-.11l-.7-.14-.39-.07c-.4-.08-.76-.14-1.1-.18l-1.09-.14-1.1-.15-.16,0a1.42,1.42,0,0,1,0,.2l.17,0,1.08.24,1.07.25c.34.08.7.15,1.1.22l.39.06.71.12a7.89,7.89,0,0,1,1,.26,7.52,7.52,0,0,1,1,.42,12.21,12.21,0,0,1,1.88,1.18c.18.14.32.25.45.37l.43.39.42.44a4.36,4.36,0,0,1,.34.42l-.06.16a3.41,3.41,0,0,1-.52.12l-.6.09-.59,0h-.57a11.26,11.26,0,0,1-2.21-.22,6.06,6.06,0,0,1-1-.28,8.75,8.75,0,0,1-1-.43l-.63-.34-.34-.19c-.36-.2-.69-.36-1-.51Z"/><circle class="cls-5" cx="64.14" cy="98.39" r="4.18" transform="translate(-52.41 83.88) rotate(-49.8)"/><path class="cls-5" d="M66.26,92.74a6,6,0,1,0,3.54,7.77A6,6,0,0,0,66.26,92.74Zm-4.19,11.2a5.92,5.92,0,1,1,7.62-3.48A5.94,5.94,0,0,1,62.07,103.94Z"/><path class="cls-5" d="M79.59,152.5l1,.53a7.66,7.66,0,0,0,2.07.73,11.84,11.84,0,0,0,2.25.22h.58l.6-.05.61-.09a5.21,5.21,0,0,0,.63-.15l.12-.33a4.35,4.35,0,0,0-.41-.51,6.14,6.14,0,0,0-.43-.45c-.14-.14-.29-.27-.44-.4l-.45-.37a11.07,11.07,0,0,0-1.91-1.2,6.8,6.8,0,0,0-1-.43,8,8,0,0,0-1.07-.27l-1.1-.18c-.37-.06-.73-.13-1.09-.22l-.61-.14.62.08,1.09.17,1.09.21a6.85,6.85,0,0,0,1.1.12,8.17,8.17,0,0,0,1.1,0,12.35,12.35,0,0,0,2.2-.47l.56-.19.55-.23c.19-.08.37-.17.56-.27a5.33,5.33,0,0,0,.55-.33v-.36q-.27-.2-.54-.36l-.54-.29c-.18-.09-.37-.18-.55-.25l-.54-.22a12.48,12.48,0,0,0-2.18-.56,7.16,7.16,0,0,0-2.2,0c-.37,0-.73.1-1.1.16s-.73.09-1.1.12l-.62,0,.6-.11c.37-.07.73-.12,1.1-.16l1.1-.14a7.65,7.65,0,0,0,1.08-.22,7.47,7.47,0,0,0,1-.38,11.63,11.63,0,0,0,2-1.12,5.2,5.2,0,0,0,.47-.35c.16-.12.31-.25.46-.38l.45-.43c.14-.15.29-.31.43-.49l-.1-.34c-.22-.07-.42-.13-.63-.18l-.61-.11-.59-.08-.58,0a12,12,0,0,0-2.26.13,6.61,6.61,0,0,0-1.07.24,6.84,6.84,0,0,0-1,.4l-1,.48c-.33.17-.67.32-1,.46l-.57.24.54-.29c.32-.18.66-.34,1-.49l1-.47a7.59,7.59,0,0,0,1-.54,7.93,7.93,0,0,0,.86-.67,12.76,12.76,0,0,0,1.53-1.66l.34-.48c.11-.16.22-.33.32-.51l.3-.54c.09-.19.18-.38.26-.59l-.2-.3-.65,0-.62.08-.58.11-.57.14a11.8,11.8,0,0,0-2.11.8,8.1,8.1,0,0,0-1,.55,9.4,9.4,0,0,0-.86.7l-.8.77c-.27.25-.54.5-.83.74l-.47.4.43-.45c.25-.26.52-.52.79-.77l.83-.74a8.18,8.18,0,0,0,.75-.81,7.28,7.28,0,0,0,.62-.91,12.28,12.28,0,0,0,1-2l.18-.56.15-.58.12-.61a6.33,6.33,0,0,0,.06-.64l-.28-.22a6.32,6.32,0,0,0-.61.22l-.56.25-.53.29c-.17.09-.33.2-.5.3a12.22,12.22,0,0,0-1.76,1.41,7.11,7.11,0,0,0-.74.81,8.07,8.07,0,0,0-.6.92c-.19.33-.36.66-.54,1s-.36.65-.56,1l-.33.53.28-.56c.16-.33.34-.65.52-1s.38-.64.56-1a7.46,7.46,0,0,0,.47-1,7.59,7.59,0,0,0,.31-1.06,12.48,12.48,0,0,0,.29-2.23c0-.2,0-.39,0-.59l0-.6c0-.2,0-.4-.08-.61a5.19,5.19,0,0,0-.13-.64l-.33-.12a5.42,5.42,0,0,0-.52.39l-.46.42c-.14.14-.28.28-.41.43a5.2,5.2,0,0,0-.38.44,12.59,12.59,0,0,0-1.26,1.88,6.93,6.93,0,0,0-.45,1,7.56,7.56,0,0,0-.3,1.06c-.08.36-.14.73-.21,1.09s-.15.73-.24,1.08l-.28,1.07-.27,1.07,0,.08a6,6,0,0,0-.61-.09h0v-.07l.06-1.11.05-1.1c0-.37,0-.73.08-1.1s.09-.74.12-1.11a6.74,6.74,0,0,0,0-1.1,5.71,5.71,0,0,0-.14-1.09,11.34,11.34,0,0,0-.64-2.16q-.1-.27-.24-.54c-.08-.18-.17-.35-.27-.53a5.64,5.64,0,0,0-.31-.53,3.7,3.7,0,0,0-.38-.53l-.35,0a5.45,5.45,0,0,0-.32.57c-.09.19-.17.37-.25.56s-.14.38-.2.56-.12.38-.18.56a12.54,12.54,0,0,0-.38,2.23,6.72,6.72,0,0,0,0,1.1,8.39,8.39,0,0,0,.15,1.09c.08.36.17.72.25,1.08s.16.72.22,1.09l.1.61-.16-.59c-.1-.36-.18-.72-.26-1.08s-.14-.73-.22-1.09a7.59,7.59,0,0,0-.31-1.06,6.89,6.89,0,0,0-.46-1,12.5,12.5,0,0,0-1.27-1.86c-.13-.15-.25-.3-.39-.44s-.27-.29-.42-.43l-.46-.41a5.37,5.37,0,0,0-.52-.38l-.33.12a5.19,5.19,0,0,0-.13.64c0,.21,0,.41-.07.61s0,.41,0,.6a5.81,5.81,0,0,0,0,.59,12.48,12.48,0,0,0,.3,2.23,7.5,7.5,0,0,0,.81,2c.18.33.37.64.56,1s.37.64.54,1l.28.56-.33-.52c-.2-.31-.39-.63-.57-1s-.36-.65-.55-1a7,7,0,0,0-.61-.92,9.47,9.47,0,0,0-.75-.81,11.62,11.62,0,0,0-1.77-1.38c-.17-.11-.33-.21-.5-.3l-.53-.28a5.79,5.79,0,0,0-.57-.25,4.84,4.84,0,0,0-.61-.22l-.28.23c0,.22,0,.43.07.64s.08.41.13.61.1.39.15.57.12.38.19.56a11.6,11.6,0,0,0,1,2,6.93,6.93,0,0,0,.63.9,8.12,8.12,0,0,0,.76.8l.83.74c.27.24.54.5.8.76l.44.44-.48-.39c-.28-.23-.56-.48-.83-.73s-.54-.52-.81-.76a9.28,9.28,0,0,0-.86-.69,9.06,9.06,0,0,0-1-.54,11.56,11.56,0,0,0-2.11-.78l-.57-.14-.59-.1a6.18,6.18,0,0,0-.62-.07,3.5,3.5,0,0,0-.65,0l-.19.29c.08.21.17.41.26.59s.2.37.3.54l.33.5c.11.17.23.32.34.48a12.1,12.1,0,0,0,1.55,1.64,6.29,6.29,0,0,0,.87.67,9,9,0,0,0,1,.53l1,.45c.34.16.67.31,1,.49l.55.29-.57-.23c-.34-.14-.68-.29-1-.45l-1-.48a9.88,9.88,0,0,0-1-.39,9.4,9.4,0,0,0-1.08-.23,12,12,0,0,0-2.25-.1,5.67,5.67,0,0,0-.58.05c-.2,0-.4,0-.6.08l-.6.12a4.83,4.83,0,0,0-.62.18l-.1.34a5.19,5.19,0,0,0,.43.49q.23.22.45.42l.46.38.48.35a12.27,12.27,0,0,0,2,1.09,7.47,7.47,0,0,0,1,.38,9.81,9.81,0,0,0,1.08.21c.37.05.74.08,1.11.12s.73.09,1.1.16l.61.1-.61,0q-.56,0-1.11-.12l-1.1-.15a10.14,10.14,0,0,0-1.1-.06,7.89,7.89,0,0,0-1.09.11,12.37,12.37,0,0,0-2.18.59l-.54.22-.54.26-.54.3a5.63,5.63,0,0,0-.54.36v.36c.19.12.37.23.56.33l.56.26c.18.08.37.16.55.22l.56.19a12.38,12.38,0,0,0,2.21.45,8,8,0,0,0,1.1,0,10.12,10.12,0,0,0,1.09-.13l1.09-.22c.37-.07.73-.14,1.09-.19l.62-.08-.6.15c-.35.08-.72.16-1.08.22l-1.1.19a7.51,7.51,0,0,0-1.06.28,7,7,0,0,0-1,.44,11.76,11.76,0,0,0-1.9,1.22l-.45.37-.44.41c-.14.15-.28.29-.42.45s-.27.33-.4.51l.12.34c.21.06.42.1.63.14s.41.06.61.08l.6,0h.58a11.84,11.84,0,0,0,2.25-.24,8,8,0,0,0,1.06-.3,8.07,8.07,0,0,0,1-.45c.33-.17.65-.36,1-.54s.65-.35,1-.51l.56-.27-.53.32c-.31.19-.63.37-1,.55l-1,.51a8.12,8.12,0,0,0-.93.59,7.11,7.11,0,0,0-.83.73,11.54,11.54,0,0,0-1.43,1.73c-.11.16-.22.33-.32.5s-.2.34-.29.52-.18.36-.27.56a4.84,4.84,0,0,0-.22.61l.21.28c.23,0,.44,0,.65-.06l.61-.1c.19-.05.39-.09.58-.15s.37-.1.56-.17a11.92,11.92,0,0,0,2.06-.91,8.07,8.07,0,0,0,.92-.6,9.61,9.61,0,0,0,.82-.74l.76-.81c.25-.27.51-.53.78-.79l.46-.42-.41.46q-.36.42-.75.81c-.26.27-.53.53-.78.8a6.31,6.31,0,0,0-.71.84,8.11,8.11,0,0,0-.57.94,12,12,0,0,0-.84,2.09q-.09.28-.15.57c-.05.19-.08.39-.12.59s-.06.4-.08.61a4.54,4.54,0,0,0,0,.65l.29.2a4.7,4.7,0,0,0,.6-.25l.55-.28.51-.32a4.07,4.07,0,0,0,.48-.33,11.61,11.61,0,0,0,1.69-1.5,8,8,0,0,0,.69-.85,8.17,8.17,0,0,0,.56-.95l.48-1c.16-.33.33-.66.51-1l.3-.55-.24.57c-.15.34-.31.67-.48,1s-.34.66-.5,1a8.78,8.78,0,0,0-.42,1,7.94,7.94,0,0,0-.26,1.07,11.93,11.93,0,0,0-.16,2.25,5.83,5.83,0,0,0,0,.59c0,.19,0,.39.06.59s.07.41.11.61a4,4,0,0,0,.17.63l.33.1a3.47,3.47,0,0,0,.5-.42c.15-.14.3-.29.43-.43s.27-.3.4-.46.24-.3.35-.46a11.71,11.71,0,0,0,1.16-1.94,9,9,0,0,0,.4-1,9.41,9.41,0,0,0,.24-1.08l.15-1.1c0-.37.11-.73.18-1.09l.13-.62-.06.62c0,.37-.09.73-.15,1.1s-.13.73-.18,1.1a7.09,7.09,0,0,0,0,2.19,12.46,12.46,0,0,0,.53,2.19,5.2,5.2,0,0,0,.21.55c.07.18.15.37.24.55l.28.55a5.63,5.63,0,0,0,.36.54h.35a4.53,4.53,0,0,0,.34-.55,4.75,4.75,0,0,0,.28-.55c.09-.18.17-.37.24-.55s.14-.36.2-.55a11.48,11.48,0,0,0,.51-2.2,8,8,0,0,0,.07-1.09,10,10,0,0,0-.1-1.1c-.06-.37-.13-.73-.19-1.1s-.12-.73-.16-1.09l-.06-.63.12.61c.08.36.14.72.2,1.09s.1.74.16,1.1a7.91,7.91,0,0,0,.25,1.07,7.49,7.49,0,0,0,.41,1A12.41,12.41,0,0,0,74,163.14l.36.46.4.45a6,6,0,0,0,.44.43,4.11,4.11,0,0,0,.5.42l.34-.11a4.85,4.85,0,0,0,.16-.63c0-.2.07-.41.1-.61s0-.4,0-.59,0-.4,0-.59a11.92,11.92,0,0,0-.19-2.25,7.46,7.46,0,0,0-.26-1.06,9.16,9.16,0,0,0-.43-1c-.16-.33-.34-.66-.51-1s-.34-.66-.49-1l-.25-.58.31.54c.18.32.35.65.51,1s.32.67.49,1a8.24,8.24,0,0,0,.57.95,6.24,6.24,0,0,0,.7.84,11.63,11.63,0,0,0,1.7,1.49l.48.32.52.31.55.28a4.69,4.69,0,0,0,.6.24l.29-.2c0-.23,0-.44,0-.65a6,6,0,0,0-.09-.61c0-.2-.08-.39-.13-.59a5.12,5.12,0,0,0-.15-.56,12.91,12.91,0,0,0-.86-2.09,6.88,6.88,0,0,0-.58-.93,8.09,8.09,0,0,0-.71-.84l-.79-.78c-.27-.26-.52-.53-.77-.81l-.41-.46.45.41c.27.25.54.51.79.78s.51.54.77.8a8,8,0,0,0,.83.73,7.39,7.39,0,0,0,.93.6,11.33,11.33,0,0,0,2.07.89l.56.17.58.13a6,6,0,0,0,.61.1,4.51,4.51,0,0,0,.65,0l.21-.28a4.84,4.84,0,0,0-.24-.61,5.6,5.6,0,0,0-.27-.55c-.09-.18-.19-.35-.29-.52l-.32-.49a11.71,11.71,0,0,0-1.46-1.73,7.1,7.1,0,0,0-1.77-1.29c-.32-.18-.66-.34-1-.51s-.65-.35-1-.53l-.54-.32.56.26C78.94,152.15,79.27,152.32,79.59,152.5Zm-5.15-12,.59-.93c.19-.29.37-.61.57-1a3.9,3.9,0,0,1,.19-.35c.11-.21.22-.42.34-.63a7.81,7.81,0,0,1,.59-.9,7.46,7.46,0,0,1,.72-.79,11.78,11.78,0,0,1,1.74-1.39c.19-.12.34-.22.49-.3l.52-.28c.16-.08.35-.17.55-.25a4,4,0,0,1,.51-.19l.13.11c0,.21,0,.39-.06.54s-.07.42-.11.59-.1.4-.15.57-.1.33-.18.55a12.48,12.48,0,0,1-.93,2,7.7,7.7,0,0,1-.61.89,8.41,8.41,0,0,1-.73.79l-.53.48-.3.26c-.3.28-.56.53-.8.78l-.77.79-.77.79-.07.06.14.16.08-.07.83-.72.85-.71c.26-.22.54-.47.83-.75l.28-.27.52-.49a6.6,6.6,0,0,1,.84-.68,6.88,6.88,0,0,1,.93-.54,11.41,11.41,0,0,1,2.07-.79l.57-.14.57-.11.6-.07.54,0,.1.14c-.08.19-.16.36-.22.49s-.2.38-.29.53-.22.36-.32.5-.19.29-.33.47a11.49,11.49,0,0,1-1.51,1.63,7,7,0,0,1-.84.67,7.34,7.34,0,0,1-.94.52c-.21.11-.44.21-.65.3l-.36.16c-.37.17-.7.34-1,.5l-1,.52-1,.51-.11.06h0a4.9,4.9,0,0,0-.39-.71h0l1.13-.72c.44-.28.88-.57,1.3-.88l.64-.46.63-.48c.42-.32.84-.65,1.24-1l0,0c-.47.24-.93.5-1.38.77l-.68.41-.66.43c-.45.28-.88.58-1.31.88l-1.08.78a6.81,6.81,0,0,0-1.23-1.34h0l.84-1c.33-.4.66-.81,1-1.24l.46-.63.46-.65c.3-.43.6-.87.87-1.32l0,0c-.38.38-.73.77-1.08,1.16l-.52.6-.51.6c-.34.41-.66.82-1,1.24L74.49,142h0a5.16,5.16,0,0,0-.67-.44h0l.05-.08ZM76.63,150a6.79,6.79,0,1,1-4-8.74A6.81,6.81,0,0,1,76.63,150Zm-4.83-9.32.27-1.07.28-1.06c.09-.34.17-.7.24-1.09,0-.13,0-.26.08-.39s.08-.47.13-.7a7.64,7.64,0,0,1,.74-2,12.13,12.13,0,0,1,1.23-1.85c.15-.17.26-.31.38-.43s.25-.27.41-.42a4.69,4.69,0,0,1,.45-.41,3.24,3.24,0,0,1,.42-.33l.16.06a5.06,5.06,0,0,1,.11.53c0,.21.06.42.07.6s0,.41,0,.59a5.39,5.39,0,0,1,0,.57,11.23,11.23,0,0,1-.28,2.2,5.92,5.92,0,0,1-.31,1,6.48,6.48,0,0,1-.46,1c-.11.21-.23.42-.35.62a3.79,3.79,0,0,0-.2.34c-.21.35-.38.67-.53,1l-.49,1-.5,1,0,.07h0a6.86,6.86,0,0,0-.91-.42l.18.08.49-1.21c.19-.48.38-1,.55-1.47l.25-.75c.08-.25.17-.5.24-.75.16-.51.3-1,.43-1.53l0,0c-.25.48-.47.95-.68,1.44-.11.24-.21.48-.31.72l-.3.73c-.2.49-.38,1-.55,1.48l-.43,1.23a5.2,5.2,0,0,0-.77-.22h0Zm-6-1.21c-.15-.31-.33-.63-.54-1l-.2-.34-.36-.61a7.7,7.7,0,0,1-.47-1,7.32,7.32,0,0,1-.32-1,12.11,12.11,0,0,1-.3-2.2,5.59,5.59,0,0,1,0-.58c0-.17,0-.36,0-.58a4.62,4.62,0,0,1,.07-.6,4.77,4.77,0,0,1,.1-.53l.16-.07c.17.12.31.24.43.33s.32.28.45.4l.41.42c.12.13.24.26.38.43a11,11,0,0,1,1.25,1.84,6.52,6.52,0,0,1,.46,1,8.82,8.82,0,0,1,.3,1c0,.23.1.47.14.7s0,.26.08.38c.08.4.16.76.25,1.09l.29,1.07.28,1.06v.07l.21-.05v-.07l-.19-1.08-.18-1.09c-.06-.34-.13-.7-.22-1.1l-.09-.38c0-.23-.11-.47-.15-.7a6.62,6.62,0,0,1-.16-1.07,7.69,7.69,0,0,1,0-1.07,11.78,11.78,0,0,1,.39-2.19c.06-.22.11-.39.16-.55s.12-.34.21-.55a4.86,4.86,0,0,1,.24-.55c.07-.14.15-.3.26-.48h.17a5.38,5.38,0,0,1,.31.44c.12.19.22.37.31.52s.19.37.27.53l.23.52a12.21,12.21,0,0,1,.63,2.13,7.15,7.15,0,0,1,.14,1.07,10.35,10.35,0,0,1,0,1.08c0,.23-.05.47-.08.71s0,.26,0,.39q-.06.6-.09,1.11l0,1.11-.06,1.1v.06a7.3,7.3,0,0,0-.81,0l0-1.28c0-.53,0-1.05-.09-1.58l-.08-.78c0-.27,0-.53-.08-.79-.06-.52-.13-1.05-.23-1.57h0c0,.53,0,1.06,0,1.59,0,.26,0,.52,0,.79l0,.79c0,.52,0,1.05.09,1.57l.11,1.28a7.18,7.18,0,0,0-1.78.4l-.43-1.22q-.27-.74-.57-1.47l-.3-.73-.32-.72c-.22-.48-.45-1-.69-1.42h0c.13.51.29,1,.45,1.52.07.25.16.5.24.75l.26.75c.18.49.37,1,.57,1.47l.5,1.19c-.25.11-.5.23-.73.36h0l0-.07-.51-1Zm-2.28,1.77c-.25-.25-.51-.5-.82-.77l-.29-.27-.53-.47a8.83,8.83,0,0,1-.75-.78,10.41,10.41,0,0,1-.61-.88,12.68,12.68,0,0,1-1-2c-.07-.22-.13-.38-.18-.55s-.1-.35-.15-.56-.09-.38-.12-.6a5.33,5.33,0,0,1-.07-.53l.14-.11c.19.06.37.12.51.18l.55.24.52.28.49.29A11.84,11.84,0,0,1,63,136a7.5,7.5,0,0,1,.73.79,7.8,7.8,0,0,1,.6.9c.12.2.24.42.35.62l.19.35c.2.35.39.67.58,1l.59.92.59.93,0,.07h0c-.23.14-.45.29-.67.45l-.78-1q-.48-.63-1-1.23l-.51-.6c-.18-.2-.35-.4-.53-.59-.35-.39-.71-.78-1.09-1.15l0,0c.28.45.58.88.88,1.31.15.22.31.43.46.64l.48.63q.48.63,1,1.23l.84,1a4.53,4.53,0,0,0-.59.57h0l-.07-.06-.78-.78Zm-1.65,2.37c-.3-.16-.63-.32-1-.49l-.36-.16-.65-.29a7.34,7.34,0,0,1-.94-.52,6.94,6.94,0,0,1-.86-.65,12.17,12.17,0,0,1-1.52-1.62c-.14-.18-.24-.32-.34-.47s-.2-.3-.31-.49a5,5,0,0,1-.3-.53,3.89,3.89,0,0,1-.22-.49l.09-.14a3,3,0,0,1,.54,0c.22,0,.43,0,.6.06l.58.1.56.14a10.71,10.71,0,0,1,2.08.77,7,7,0,0,1,.94.53,7.44,7.44,0,0,1,.84.67l.52.49.29.27c.3.27.57.52.84.74l.85.7.84.71L65,143a7.84,7.84,0,0,0-.5.64l-1.07-.75c-.43-.31-.87-.6-1.31-.88l-.67-.41-.68-.41c-.46-.26-.92-.52-1.39-.76l0,0c.41.34.82.67,1.24,1l.64.47.64.46q.65.45,1.32.87l1.12.7a6,6,0,0,0-.38.71l-.1,0-1-.5ZM61,146.33c-.34-.06-.71-.11-1.11-.16l-.39,0-.71-.08a8.38,8.38,0,0,1-1.06-.2,6.56,6.56,0,0,1-1-.37,11.69,11.69,0,0,1-1.94-1.08l-.47-.34-.45-.37c-.13-.12-.29-.26-.44-.42a3.78,3.78,0,0,1-.37-.4l0-.16a4,4,0,0,1,.52-.15l.59-.12.59-.08.57,0a12,12,0,0,1,2.22.1,7.77,7.77,0,0,1,1,.22,8.73,8.73,0,0,1,1,.38l.64.31.36.17c.37.17.7.32,1,.45l1,.41,1,.42.09,0-.12.3a4.11,4.11,0,0,0-.15.46l-1.27-.4c-.51-.16-1-.3-1.52-.44l-.77-.19-.77-.17c-.51-.12-1-.23-1.55-.31l0,0c.49.21,1,.39,1.49.56l.75.26.75.24c.5.16,1,.3,1.52.43l1.29.33a7.27,7.27,0,0,0-.14.79l-.13,0-1.09-.18Zm0,2.89c-.34.05-.7.11-1.1.19l-.39.08-.7.14a7.6,7.6,0,0,1-1.07.12,7.89,7.89,0,0,1-1.07,0,11.69,11.69,0,0,1-2.18-.44l-.55-.18-.54-.22c-.16-.07-.36-.16-.55-.26l-.47-.27v-.17a2.92,2.92,0,0,1,.45-.3l.52-.29.54-.26c.15-.07.32-.13.53-.21a11.12,11.12,0,0,1,2.15-.58,6.7,6.7,0,0,1,1.06-.11,7,7,0,0,1,1.08.06l.71.09.39.06,1.11.12,1.1.07,1.1.09.13,0a5.3,5.3,0,0,0,0,.8H61.87c-.53,0-1,0-1.58,0l-.79.05-.78.07c-.53,0-1,.1-1.58.18v0c.53,0,1.06.06,1.59.08h1.58c.52,0,1,0,1.57-.05l1.36-.08a7,7,0,0,0,.11.8l-.15,0-1.1.16Zm.91,2.74-1,.51-.35.2L60,153a8.11,8.11,0,0,1-1,.45,9.18,9.18,0,0,1-1,.29,12.14,12.14,0,0,1-2.21.24h-.57l-.59,0-.6-.08c-.14,0-.33-.06-.53-.12l0-.16c.12-.17.24-.31.33-.42s.29-.32.42-.44.3-.29.43-.4.26-.23.44-.37a11.77,11.77,0,0,1,1.87-1.21,8,8,0,0,1,1-.42,6.4,6.4,0,0,1,1-.27l.7-.13.39-.07c.4-.07.76-.14,1.09-.22l1.08-.26,1.07-.25.15,0c.06.26.13.52.21.77l-1.31.43c-.5.16-1,.33-1.49.52l-.74.29-.73.3c-.48.2-1,.42-1.44.65v0c.52-.11,1-.25,1.54-.4l.75-.22.76-.24c.5-.17,1-.34,1.48-.53l1.3-.5a5.93,5.93,0,0,0,.34.72l-.16.08-1,.49Zm1.7,2.34c-.25.23-.51.49-.79.79l-.27.28c-.16.18-.32.36-.49.53a8.37,8.37,0,0,1-.8.72,7,7,0,0,1-.9.59,12.1,12.1,0,0,1-2,.9l-.55.16a5.29,5.29,0,0,1-.57.14c-.17,0-.38.08-.6.11l-.53,0-.11-.14c.07-.19.14-.37.2-.5s.18-.39.26-.55a4.63,4.63,0,0,1,.29-.51c.08-.15.18-.3.3-.49a11.82,11.82,0,0,1,1.42-1.71,7.48,7.48,0,0,1,.81-.71,7.22,7.22,0,0,1,.91-.57c.2-.12.42-.23.63-.34l.35-.18c.36-.19.68-.37,1-.55l1-.57.94-.56.16-.09c.13.23.28.45.43.67h0l-1.14.82c-.43.3-.85.62-1.26.95l-.61.5c-.2.17-.41.33-.6.51-.4.34-.8.69-1.18,1.06l0,0c.45-.27.9-.55,1.33-.85l.66-.44.64-.46c.43-.31.85-.62,1.26-.95l1.1-.89h0a4.29,4.29,0,0,0,.54.59l-.15.14-.79.76Zm2.87.74L66,156c-.17.3-.34.63-.51,1l-.17.35c-.1.22-.2.44-.31.65a8.51,8.51,0,0,1-.54.93,8.27,8.27,0,0,1-.68.83,11.44,11.44,0,0,1-1.66,1.48l-.48.33-.5.3c-.15.09-.34.19-.53.28l-.5.21-.14-.1c0-.2,0-.39,0-.53s0-.43.08-.6.08-.41.12-.58.08-.34.15-.56a11.1,11.1,0,0,1,.83-2.06,6.78,6.78,0,0,1,.55-.92,9.12,9.12,0,0,1,.69-.82l.51-.51.27-.28c.29-.29.54-.56.77-.82l.72-.83.73-.83.13-.14h0a5.9,5.9,0,0,0,.62.5l-.85,1.14c-.31.43-.62.86-.91,1.29l-.43.67c-.14.22-.29.44-.42.66-.28.45-.55.9-.8,1.37l0,0c.36-.4.69-.8,1-1.22.17-.2.32-.41.49-.62l.47-.63c.32-.42.62-.86.91-1.29l.79-1.19a7.69,7.69,0,0,0,.69.39l-.1.19Zm2,3c0,.13,0,.27,0,.4s-.06.47-.1.7a8.09,8.09,0,0,1-.23,1.06,8.53,8.53,0,0,1-.39,1,12.85,12.85,0,0,1-1.14,1.91c-.13.18-.24.32-.35.45l-.38.45c-.13.12-.27.28-.43.43l-.41.35-.16-.05a3.85,3.85,0,0,1-.14-.53c0-.21-.08-.42-.1-.59s-.05-.41-.06-.59a4.67,4.67,0,0,1,0-.57,11.28,11.28,0,0,1,.16-2.22,6.33,6.33,0,0,1,.25-1,7.06,7.06,0,0,1,.41-1l.32-.64.18-.35c.18-.36.34-.69.48-1l.43-1,.45-1,.09-.19c.16.07.33.15.5.21l.24.08h0l-.47,1.36c-.17.5-.33,1-.47,1.51l-.22.76-.19.76c-.13.51-.25,1-.35,1.55h0c.22-.48.42-1,.6-1.46.1-.25.19-.5.28-.75l.26-.74c.17-.5.32-1,.47-1.51l.39-1.38a7.25,7.25,0,0,0,.78.17h0l0,.22-.21,1.08-.22,1.08C68.62,157.26,68.56,157.62,68.5,158ZM71.58,157c0,.35.09.71.16,1.11l.06.39c0,.23.09.47.12.71a6.09,6.09,0,0,1,.1,1.07,6.7,6.7,0,0,1-.07,1.07,11.45,11.45,0,0,1-.5,2.17c-.07.21-.13.38-.19.54s-.14.33-.24.54a5.42,5.42,0,0,1-.27.54c-.07.12-.17.29-.28.46h-.18c-.11-.17-.21-.33-.28-.46s-.2-.38-.28-.54-.17-.37-.24-.54-.13-.32-.2-.53a11.55,11.55,0,0,1-.52-2.16,6.79,6.79,0,0,1-.08-1.08,7.22,7.22,0,0,1,.09-1.07c0-.23.07-.47.11-.71l.06-.38c.07-.41.12-.77.15-1.11l.11-1.1.12-1.1,0-.21a7,7,0,0,0,.79.05l0,1.45c0,.52,0,1.05,0,1.57l0,.79c0,.27,0,.53,0,.79,0,.53.07,1.06.14,1.58h0c.06-.53.1-1.05.13-1.58l0-.79,0-.79c0-.52,0-1,0-1.58l0-1.44h0a7,7,0,0,0,.79-.07l0,.22.13,1.1Zm2.76-.83c.14.32.3.64.49,1l.18.34c.11.21.23.43.33.64a7.66,7.66,0,0,1,.42,1,7.9,7.9,0,0,1,.26,1,12.15,12.15,0,0,1,.18,2.22c0,.23,0,.4,0,.58s0,.36-.06.58a5.75,5.75,0,0,1-.1.6c0,.14-.07.32-.13.52l-.16,0c-.16-.12-.3-.25-.41-.35a5.78,5.78,0,0,1-.43-.42l-.39-.44-.36-.45a12.79,12.79,0,0,1-1.15-1.9,6.72,6.72,0,0,1-.4-1,6.54,6.54,0,0,1-.24-1c0-.23-.08-.47-.11-.71l-.06-.39c-.06-.4-.12-.76-.19-1.1l-.23-1.08-.22-1.08,0-.22-.15,0a7.21,7.21,0,0,0,.92-.21h0l.41,1.39q.22.75.48,1.5l.27.74c.09.25.18.5.28.74.19.49.39,1,.62,1.46h0c-.1-.52-.23-1-.36-1.55l-.21-.76-.22-.76c-.15-.5-.31-1-.49-1.5l-.48-1.36h0a6.66,6.66,0,0,0,.73-.31l.1.21.45,1Zm2.38-1.64c.23.26.48.53.77.81l.28.28.51.5a7.9,7.9,0,0,1,.7.82,6.81,6.81,0,0,1,.56.92,11.25,11.25,0,0,1,.85,2.05c.07.22.11.39.15.56s.08.35.13.57.06.38.08.6a4,4,0,0,1,0,.54l-.14.1-.5-.21-.54-.27-.5-.31a5.68,5.68,0,0,1-.48-.32A11.34,11.34,0,0,1,77,159.67a5.84,5.84,0,0,1-.69-.83,8.93,8.93,0,0,1-.55-.92c-.11-.21-.21-.43-.32-.64s-.11-.24-.17-.36c-.18-.36-.35-.69-.52-1l-.55-1-.53-1-.11-.2a7.58,7.58,0,0,0,.68-.4L75,154.6c.3.44.6.87.92,1.29l.48.62c.16.21.32.42.49.62.33.41.67.82,1,1.21l0,0c-.26-.46-.53-.91-.82-1.36-.13-.22-.28-.44-.42-.66l-.44-.66c-.3-.43-.61-.86-.92-1.28l-.87-1.14h0a7.31,7.31,0,0,0,.61-.52h0l.14.16.74.82Zm1.77-2.28c.3.18.62.35,1,.54l.35.18.64.32a8,8,0,0,1,.91.57,6.49,6.49,0,0,1,.82.7,11.31,11.31,0,0,1,1.43,1.7c.13.19.23.33.32.48l.29.51c.08.16.18.34.26.54a4.54,4.54,0,0,1,.2.51l-.1.13a4,4,0,0,1-.54,0l-.59-.1c-.23,0-.41-.09-.58-.13l-.55-.16a12.5,12.5,0,0,1-2-.89,6.06,6.06,0,0,1-.9-.58,7.09,7.09,0,0,1-.81-.71l-.5-.52-.27-.28c-.28-.3-.54-.55-.8-.79l-.81-.74-.8-.75-.15-.15h0a6,6,0,0,0,.53-.59l1.12.88c.41.32.83.64,1.26.94l.65.45c.22.15.43.3.66.44.44.29.88.57,1.34.84l0,0c-.39-.37-.78-.71-1.19-1.05l-.61-.5-.62-.49c-.41-.33-.83-.64-1.26-.94L76,151.67c.16-.24.32-.49.46-.74a.43.43,0,0,0,0,.07l.17.09,1,.55Zm-.81-.84-1-.47-.17-.08a6.71,6.71,0,0,0,.35-.77l0,0,1.31.49c.5.18,1,.35,1.5.51l.75.24.76.21c.51.15,1,.28,1.54.39v0c-.48-.23-1-.44-1.45-.64l-.73-.29-.74-.28c-.49-.19-1-.36-1.49-.51L77,149.75a6.9,6.9,0,0,0,.33-1.77l1.38.07c.52,0,1,0,1.57,0H81l.79,0c.53,0,1.06,0,1.59-.1v0c-.53-.08-1-.13-1.58-.17l-.79-.06-.79,0c-.52,0-1,0-1.57,0H77.3a7.06,7.06,0,0,0-.22-1.78l1.3-.35c.51-.14,1-.29,1.52-.45l.75-.25.75-.26c.49-.18,1-.36,1.47-.57v0c-.52.08-1,.2-1.55.31l-.77.19-.77.2c-.5.14-1,.28-1.51.45l-1.29.41a7.61,7.61,0,0,0-.28-.75h0l.11-.05,1-.43,1-.42c.32-.13.66-.28,1-.46l.35-.17.65-.31a6.8,6.8,0,0,1,1-.39,7.72,7.72,0,0,1,1-.24,12,12,0,0,1,2.22-.12l.57,0,.59.07.59.12a3.75,3.75,0,0,1,.52.14l0,.16c-.13.16-.26.3-.36.41s-.31.3-.44.41l-.45.38a5.43,5.43,0,0,1-.46.35,11.66,11.66,0,0,1-1.93,1.1,6.56,6.56,0,0,1-1,.37,8,8,0,0,1-1,.22L81,146l-.39.05c-.41.05-.77.1-1.11.17l-1.08.2-1.09.19-.14,0,0,.21.15,0,1.09-.1,1.1-.09c.35,0,.71-.07,1.11-.13l.39-.06.71-.1a8.59,8.59,0,0,1,1.08-.07,8.36,8.36,0,0,1,1.07.1,12.32,12.32,0,0,1,2.15.56c.21.08.38.14.53.21l.54.25c.15.08.34.17.53.29a4.66,4.66,0,0,1,.45.29v.17a4.41,4.41,0,0,1-.47.28l-.54.26-.55.22a4.67,4.67,0,0,1-.54.19,11.43,11.43,0,0,1-2.17.46,6.66,6.66,0,0,1-1.08.05,7.47,7.47,0,0,1-1.07-.11l-.7-.13-.39-.08-1.1-.18L78.46,149l-1.1-.15-.16,0a1.18,1.18,0,0,1,0,.2l.17,0,1.08.24,1.07.25,1.1.21.39.06.71.12a7.82,7.82,0,0,1,1,.27,6.3,6.3,0,0,1,1,.41,11.54,11.54,0,0,1,1.88,1.19l.45.36c.13.12.27.24.43.4s.27.27.42.44.22.25.34.41l-.06.17-.52.12c-.22,0-.43.06-.6.08s-.41,0-.59,0a5.17,5.17,0,0,1-.57,0,11.19,11.19,0,0,1-2.21-.22,6.06,6.06,0,0,1-1-.28,6.19,6.19,0,0,1-1-.43l-.63-.34-.34-.19c-.36-.19-.69-.36-1-.5Z"/><path class="cls-5" d="M71.73,143.67a4.18,4.18,0,1,0,2.45,5.38A4.17,4.17,0,0,0,71.73,143.67Z"/><path class="cls-5" d="M72.38,141.93a6,6,0,1,0,3.54,7.77A6,6,0,0,0,72.38,141.93Zm-4.19,11.2a5.92,5.92,0,1,1,7.62-3.47A5.93,5.93,0,0,1,68.19,153.13Z"/></g><path class="cls-5" d="M4.81,264c-3.25-1.21-4.69-6.42-4.75-6.66L0,257.12l.08-.21L97.29,13.74A15.51,15.51,0,0,1,104.08,6l3.26-1.83a14.87,14.87,0,0,1,19.06,4l.21.29a15.39,15.39,0,0,1,1.62,15.88C116,50.07,80.21,124.64,11,261.49l-.11.16c-2,2.09-3.85,2.92-5.64,2.47ZM1.42,257.2c.46,1.56,1.91,5.07,4.14,5.62,1.27.31,2.7-.37,4.27-2C79,124,114.83,49.48,127,23.78a14,14,0,0,0-1.47-14.5L125.33,9A13.51,13.51,0,0,0,108,5.35l-3.26,1.82a14.11,14.11,0,0,0-6.2,7.06Z"/><path class="cls-6" d="M106.59,11.67a4.76,4.76,0,0,0-4.6,3l-68.85,176L110.78,18.39a4.77,4.77,0,0,0-4.19-6.72Z"/></g></g></svg>