<svg id="Layer_1" data-name="Layer 1" xmlns="http://www.w3.org/2000/svg" viewBox="0 0 493.36 146.59"><defs><style>.cls-1{fill:#fedc01;}</style></defs><title>001</title><path class="cls-1" d="M96.13,42.54q10,0,14,9.65l.51,4.57q0,6.48-7.37,8.89l-3.8.51h-1q-9.78,0-13.71-5.59L84,56.76c.42-3.22,1.94-4.82,4.57-4.82,1.52,0,2.54,1.18,3,3.55A3.24,3.24,0,0,1,90.29,58H87.5v.25c0,.68,1.1,1.27,3.3,1.78q3.75,0,4.57-4.82,0-5.6-4.57-5.59-8.11,0-11.68,10.41l-.25,2.54v1c0,1.86.25,2.79.76,2.79H95.12q10.53,0,13.71,10.41a29.86,29.86,0,0,1,.76,6.35v.76q0,14.79-14.22,20.06a25,25,0,0,1-6.85.76q-9.84,0-14.22-6.6Q70.12,105,59.06,105q-14.54,0-19.8-15l-.51-4.31q0-6.6,5.59-12.95H36.72c-.51-.17-.76-.68-.76-1.53V67.42l.51-.5,27.67-.26h4.07l.5-4.06q0-5.72-6.6-11.17a13.8,13.8,0,0,0-5.58-1.52c-3.9.25-5.84,2-5.84,5.33,0,3,1.77,4.69,5.33,5.08a5.1,5.1,0,0,0,4.06-1.78v-.26H57.79c-1.35,0-2-.93-2-2.79.47-2,1.4-3.05,2.8-3.05h1q2.93,0,3.81,4.83,0,5.9-7.62,8.38a19.18,19.18,0,0,1-5.33.76h-.51q-10.59,0-13-4.57a11.62,11.62,0,0,1-1.52-5.59q0-8.31,9.4-12.44a17.42,17.42,0,0,1,4.57-.76h3q9.72,0,17,9.65a27.32,27.32,0,0,1,4.07,14.72l-.26,5.08q0,1.08-18.53,1.27A10.4,10.4,0,0,0,45.1,79.1l-.25,1.27v1q0,5.52,12.44,7.36h.76q7.94,0,12.19-4.82v-.76l-.51-2q0-2.36,3.3-2.8h.76a4.15,4.15,0,0,1,3.56,1.78,8.37,8.37,0,0,1-.51,3.3q3.24,5.08,11.68,5.08H90q10.72,0,12.7-8.38v-1c0-2.53-1.53-4.4-4.57-5.58l-4.32-.76L80.65,73Q74,73,74,72.25V65.9Q74,49.6,88.52,44.07,90.35,43.05,96.13,42.54Z"/><path class="cls-1" d="M101.09,95l.25,1.78-.25,11.17v10.16q0,9.39,2.28,9.39a7.26,7.26,0,0,1,2,4.32v.51c0,2.83-1.86,4.53-5.58,5.08-3.39-.89-5.08-2.42-5.08-4.57a5.72,5.72,0,0,1,1.78-3.05v-.26h-.26q-1.59,0-22.34,8.64a44,44,0,0,1-12.7,2.28q-16.76,0-22.34-12.69a27.86,27.86,0,0,1-1-6.6v-.77q0-9.58,10.41-13l2.54-.25h1q7.94,0,10.66,8.13v1.27q-1.08,6.6-5.58,6.6-5.59-1-5.59-5.08,0-2.16,3.3-3a4.82,4.82,0,0,1,2.79,1.53l.26-.26v-.25a2.76,2.76,0,0,0-1.78-2.54H54.37q-4.57,1.26-4.57,5.84v.51q0,5.33,9.39,7.11l6.1.5q10.65,0,23.61-5.58l2.79-.26h1l1.77.26V99.8l-.25-3Z"/><path class="cls-1" d="M138.79,26.29q17,0,30.22,13,13.45,14.59,13.45,33.26V73a39.61,39.61,0,0,1-6.34,21.58q-7.25,9.9-18.79,9.9-12.06,0-15.24-13.45l-.51-4.57V83.93q0-9.15,8.13-14.73a4.52,4.52,0,0,0,1-2.79v-1q0-5.72-10.41-6.6-10.59,0-17.26,10.41a16,16,0,0,0-1.78,7.62q0,8.19,7.62,9.9h.76q3.81,0,5.08-4.31V80.88q-.57-4.06-3-4.06-.83,3.81-3.3,3.81h-1c-1.87-.34-2.8-1.27-2.8-2.8v-.76q0-4,5.84-4.82,7.31,0,9.65,11.68l.25,4.57q0,14.16-11.68,16.5-10.9,0-14-17.52l-.25-4.82v-.25q0-18.16,16.5-30.22,7.88-4.83,14.73-4.82h2.79q12.12,0,16.25,9.9l.76,4.06q0,8.51-12.19,11.43-3,2-3,7.61v1.27q0,6.1,6.34,6.1,9.47,0,15.49-11.17a23.8,23.8,0,0,0,1.78-8.64q0-15.23-14.47-28.69-9.9-7.37-19.55-7.36-15.75,0-27.17,14.72c-1.52,3.18-2.29,5.72-2.29,7.62a6.9,6.9,0,0,0,2,4.83,5.74,5.74,0,0,1,4.07-1.78q3.55.82,3.55,3.3v.25c0,2.29-2.11,3.56-6.35,3.81q-8.37-2.16-8.37-10.41,0-12.37,14.21-22.34A36,36,0,0,1,138.79,26.29Z"/><path class="cls-1" d="M199,42q13.4,0,19.8,14.48a39.84,39.84,0,0,1,1.53,10.66c0,3.39-.43,5.08-1.27,5.08h-.26L209.19,72q-10.6,0-12.7,4.83v1.27q0,8.19,20.57,11.17h2.79q15.1,0,22.34-4.82,3.81-3.3,3.81-6.35v-.51q0-4.12-6.09-5.84L221.37,72l-.5-.5V64.63q0-15.67,13.71-21.33A21.9,21.9,0,0,1,241.69,42h.76q9.53,0,13.71,9.65l.25,2.8v.76q0,6.34-5.58,8.63A15.46,15.46,0,0,1,245,65.14q-8.9,0-13.21-5.84l-.76-3c0-3.38,1.69-5.08,5.08-5.08A4.08,4.08,0,0,1,238.64,55v.76a2.62,2.62,0,0,1-2.29,1.53h-1.27l-.25-.26h-.25v.51a2.61,2.61,0,0,0,2.28,1.53h.76q2.48,0,3.3-3.56V53.21c-.29-2.88-1.65-4.32-4.06-4.32q-7.68,0-11.17,10.16l-.25,2.79v.51c0,2.2.25,3.3.76,3.3h9.9q13.52,0,17.52,9.39a11.37,11.37,0,0,1,1.52,5.33v.51q0,13.08-11.93,20.57Q235.91,105,225.69,105h-8.12q-18.85,0-24.89-7.61-6.85-5.72-6.85-12.7V82.91q0-10,10.92-15.74a24.81,24.81,0,0,1,9.14-1.78l9.39.26v-.26l.51-3.55q0-7.25-8.38-12.19a6.15,6.15,0,0,0-3.3-.76h-.26q-5.07,1-5.07,5.08v.76c.5,3.22,2.11,4.82,4.82,4.82a4.6,4.6,0,0,0,4.06-2h-2.79a2.11,2.11,0,0,1-1.27-2V54.22q0-1.9,2.79-2.79,4.32.69,4.32,5.33,0,5.46-6.86,7.87a15.4,15.4,0,0,1-6.09,1q-10.6,0-12.95-6.86l-.51-3.3v-1q0-7.3,8.64-11.43A24.84,24.84,0,0,1,199,42Z"/><path class="cls-1" d="M260.29,61h25.39c1.86.34,2.79,1.19,2.79,2.54q0,2.61-10.41,13.21-8.64,11.35-8.63,20.56Q270.51,108,278.57,108a9.68,9.68,0,0,0,8.88-5.34l.26-2c-.64-3.55-2-5.33-4.07-5.33a8.24,8.24,0,0,1,1,4.06v.51q0,3.61-4.57,4.32c-3.55,0-5.59-2.2-6.09-6.6q0-5,7.87-6.1h.76q8.19,0,11.42,9.9l.51,4.07q0,11.1-11.68,15l-4.57.51h-1.52q-12.63,0-16.76-12.7l-.51-5.08q0-16.05,17.27-32.75h-.51l-15.49.51q-2.28-.77-2.28-4.32V65.08C258.76,62.37,259.35,61,260.29,61Z"/><path class="cls-1" d="M314.37,42.54a28.22,28.22,0,0,1,20.82,8.89q9.45-6.09,19-6.1,15.61,0,24.12,18.54a44.32,44.32,0,0,1,2,12.19q0,17.7-11.93,30-9.27,6.6-17.27,6.6-5.83,0-5.84-4.57c.51-3.22,1.78-4.82,3.81-4.82s3.6,1.26,4.32,3.8q.31,1,2.28,1H356q4.82,0,9.65-11.43a29.26,29.26,0,0,0,2-11.17v-.76q0-15.42-14-24.88a17.52,17.52,0,0,0-8.38-2.54h-2.79a18.27,18.27,0,0,0-5.33,1l.51.51h1q13.08,0,20.06,13.71a23.6,23.6,0,0,1,2,9.4q0,17.89-23.61,22.85l-5.08.25q-18.66,0-23.1-13a5.27,5.27,0,0,0-2-2.54h-1.27c-2.32,0-3.93,2.21-4.82,6.61l-2,.76h-.51c-2.2-.26-3.3-1.27-3.3-3q0-4.18,25.64-30L330.36,55q-4.07-7.35-11.42-7.36h-1q-11.18.95-11.17,7.36v.26q0,4.56,6.35,5.33,4.06-1,4.06-3.3l-.25.25h-1q-3.3-.32-3.3-3.3,0-3.16,4.06-3.81c3.22.68,4.83,2,4.83,4.07v2Q321.48,67,306,70.22l-3.81.25Q291,67.74,291,59.55q0-9.7,12.44-15.23A40.25,40.25,0,0,1,314.37,42.54ZM308,83.93h.51a40.48,40.48,0,0,1,7.61-2.79q3.12,0,7.88,6.09a13.71,13.71,0,0,0,6.34,2h1.78q9,0,16.5-9.65a30.71,30.71,0,0,0,1.27-7.36q0-6.91-6.09-9.14a12.25,12.25,0,0,0-4.57-.76l-6.86.76-.25-.26V60.57h-.25Q319.76,67.49,308,83.93Z"/><path class="cls-1" d="M350.17,105.76c2,.43,3,1.44,3,3v.76c-.33,2.37-1.52,3.56-3.55,3.56-2.2-.21-3.3-1.06-3.3-2.54q-1.77,0-3.56,6.85v.26q0,7.29,12.45,8.88h1.27q8.31,0,10.15-7.36V118c-.51-3-1.69-4.57-3.55-4.57a3,3,0,0,0-3.05,2.54l2-.51q3,0,3,4.07c0,1.9-1.36,3.08-4.06,3.55h-.26q-3,0-3.81-4.82v-.77q1-6.34,7.62-6.34h.51q7.23,0,9.9,7.87l.25,2.54q0,10.1-11.93,14.22l-4.57.5h-1.52q-12.19,0-17.27-10.66a10.59,10.59,0,0,1-.76-4.57,16.4,16.4,0,0,1,8.89-15.24Z"/><path class="cls-1" d="M410.72,12.58h3.56q14.73,0,21.33,18.79,3.17,6.85,5.84,6.86A3.65,3.65,0,0,0,444,34.42a4.63,4.63,0,0,1-2.8,1.52h-.5a4.21,4.21,0,0,1-3.56-4.57q.83-3.81,4.57-3.81,6.35,1.22,6.35,6.35v1q0,5.53-5.33,7.62h-1.78q-3.44,0-9.65-8.38-9.46-9.39-19.3-9.39h-.76c-4.19,0-7,1-8.38,3.05l1.78-.26h3.3q19.43,0,31.49,17a44.65,44.65,0,0,1,6.34,23.36q0,21.58-17,33-7.54,4.07-14,4.06h-3.05Q395,105,386.1,87.74a26.22,26.22,0,0,1-2.29-9.91V75.55a26.6,26.6,0,0,1,8.63-19.81,13.17,13.17,0,0,1,6.6-2.28h.26q2.85,0,3.3,4.32l-1.78,6.6q2.1,6.34,12.44,6.35h3.56q9.53,0,12.69-5.59a9.43,9.43,0,0,0,1.27-4.06c-1-3.9-3-5.84-5.84-5.84h-1.27c-3.89.34-5.84,1.77-5.84,4.31a3,3,0,0,0,3.3,2.8c1.27,0,1.95-.26,2-.77-1,0-1.57-.67-1.78-2,.46-1.69,1.31-2.54,2.54-2.54h.25q3.3.26,3.3,3.31v1.26q0,4.45-10.15,5.84h-.51q-10.41,0-13.2-7.1L403.36,58V57q0-8.94,13.46-10.91h1.52q8.13,0,14.22,8.12a14,14,0,0,1,2.29,8.13q0,8.19-10.41,11.93a40.92,40.92,0,0,1-9.15,1.27q-10.59,0-16.75-6.09a9.66,9.66,0,0,1-2.29-5.59A13,13,0,0,1,398,58.28h-.51q-3.61,0-5.84,9.14V69q0,11.1,13.71,15.23a56.49,56.49,0,0,0,10.67,1.27q17.26,0,22.34-16.5l.51-4.57V62.6q0-14.41-16-24.63a32.52,32.52,0,0,0-15.74-4.06H405.9A30.85,30.85,0,0,0,388.13,39c0,.34-.43.5-1.27.5h-1.27c-2-.46-3-1.39-3-2.79v-.51q0-2.47,6.09-4.57l4.58-2.28q0-11.74,14.72-16.51Z"/><path class="cls-1" d="M468.81,15.12q7.74,0,9.64,12.19l.26,3v4.07q-5.85,18.92-5.84,34.78a98.42,98.42,0,0,0,1,12.7l-.25.25-2.29-.51-7.1,1.27-.26-.25q0-35.8-5.08-45.7-1.51-1-1.52-5.84v-2q0-8.94,8.12-13.2A7.05,7.05,0,0,1,468.81,15.12Zm1.52,72.62q8.39,1.26,8.38,8.38-1.14,8.88-8.63,8.88h-.51q-6.35,0-8.13-7.36V95.1Q462.84,87.74,470.33,87.74Z"/></svg>