<svg id="Layer_1" data-name="Layer 1" xmlns="http://www.w3.org/2000/svg" xmlns:xlink="http://www.w3.org/1999/xlink" viewBox="0 0 152.62 473.46"><defs><style>.cls-1,.cls-8{fill:none;}.cls-2{fill:#313536;}.cls-3{fill:#d3cfac;}.cls-4{fill:#461d2c;}.cls-5{fill:#626b6d;}.cls-6{fill:#92a0a3;}.cls-7{clip-path:url(#clip-path);}.cls-8{stroke:#461d2c;stroke-miterlimit:10;stroke-width:0.5px;}.cls-9{clip-path:url(#clip-path-2);}.cls-10{fill:#c3d5d9;}.cls-11{clip-path:url(#clip-path-3);}.cls-12{fill:#c9a63e;}.cls-13{fill:#222118;}.cls-14{fill:#211f1f;}.cls-15{fill:#d0a94c;}</style><clipPath id="clip-path"><path class="cls-1" d="M132.52,282.54c1.66,14.49-.71,42-1,73.14s10.69,56.05-7.84,74.33c-17.57-13.3-36.09-20.66-43.22-29.92S59.85,371.83,60.57,354,132.52,282.54,132.52,282.54Z"/></clipPath><clipPath id="clip-path-2"><path class="cls-1" d="M87.64,400.33A47.14,47.14,0,0,1,67.93,417.9c-13.3,6.18-18.29,14.73-18.29,14.73s-14.48-12.35-8.55-70.3c0,0,17.34,2.85,27.31-3.56S87.64,400.33,87.64,400.33Z"/></clipPath><clipPath id="clip-path-3"><path class="cls-1" d="M125.16,247.63s19,21.61,6.17,56.05S71.49,373,34.21,366.37c-.24-61.74,1.9-82.88,19.94-115.65C69.11,254.05,81.23,257.61,125.16,247.63Z"/></clipPath></defs><title>1920x1080 UI Landing Page</title><g id="mutti_man"><path class="cls-2" d="M97.85,410.54c-.48,5.22,2.53,30.24,2.53,30.24s-20.74.63-28.65-2.22c1.58-23.59,1.58-30.87,1.58-30.87l13.77-10.76Z"/><path class="cls-3" d="M46.55,406.74c3.33,16.62,7.19,31,6.76,37.42s-10.75,9.46-17.2,9.46-27.52,1.72-27.52,1.72,1.72,10.32,19.78,10.75,49.89-1.72,49.89-1.72l4.44-77.14Z"/><path class="cls-4" d="M28.36,466.59C10.1,466.16,8.17,455.86,8.1,455.42L8,454.89l.54-.05c.21,0,21.17-1.72,27.56-1.72,6.75,0,16.31-3.12,16.7-9,.31-4.53-1.53-13-3.86-23.68-1-4.34-1.93-8.84-2.89-13.61l-.07-.36,37.26-20.12-4.52,78.48-.44,0c-.29,0-26.54,1.78-44.74,1.78C31.73,466.65,30,466.63,28.36,466.59Zm53.79-78.5L47.12,407c.93,4.63,1.88,9,2.8,13.24,2.35,10.77,4.2,19.28,3.89,23.95-.45,6.78-10.83,9.93-17.7,9.93-5.75,0-23.44,1.4-26.89,1.67.63,2.09,3.93,9.44,19.16,9.8,16.68.4,45.5-1.43,49.4-1.69Z"/><path class="cls-3" d="M124.29,411.48,123,450.18s14.62,15.05,5.16,21.5c-31.39,0-64.93,2.15-69.66.86S46.89,470.39,45.6,470s.86-3.44,9-6.45,20.21-1.29,28.38-6,16.34-9.89,16.34-23.65-12.9-49.45-12.9-49.45Z"/><path class="cls-4" d="M58.37,473c-2.83-.78-6.49-1.4-9.16-1.86-1.87-.32-3.22-.55-3.77-.73a1,1,0,0,1-.69-.91c0-1.44,3-4,9.71-6.49,3.55-1.31,7.72-1.73,12.13-2.17,5.7-.57,11.59-1.16,16.17-3.81,7.54-4.37,16.09-9.32,16.09-23.22,0-13.52-12.74-48.93-12.87-49.28L85.43,383l39.37,28.19L123.51,450c1.22,1.29,9,9.81,8.3,16.64a7.33,7.33,0,0,1-3.36,5.47l-.13.08h-.16c-14,0-28.74.44-40.57.79-8.88.26-16.33.49-21.57.49A39.49,39.49,0,0,1,58.37,473Zm72.44-6.5c.69-6.79-8.08-15.91-8.16-16l-.15-.15,1.29-38.65-36.33-26c2.47,7,12.39,35.88,12.39,48.12,0,14.48-9.2,19.81-16.59,24.08-4.76,2.76-10.77,3.37-16.57,3.95-4.35.43-8.45.85-11.89,2.11-7.06,2.6-9.13,5-9,5.51.47.16,1.93.41,3.62.7,2.69.46,6.38,1.09,9.25,1.87,2.55.69,14.19.35,28.93-.09,11.79-.35,26.47-.78,40.45-.79A6.28,6.28,0,0,0,130.81,466.53Z"/><path class="cls-5" d="M87.64,400.33A47.14,47.14,0,0,1,67.93,417.9c-13.3,6.18-18.29,14.73-18.29,14.73s-14.48-12.35-8.55-70.3c0,0,17.34,2.85,27.31-3.56S87.64,400.33,87.64,400.33Z"/><path class="cls-4" d="M49.32,433c-.6-.52-14.62-13.18-8.72-70.73l0-.53.52.09c.17,0,17.26,2.75,27-3.49A3.73,3.73,0,0,1,71.8,358c8.81,3.77,16,40.66,16.33,42.22l0,.18-.09.16a48.1,48.1,0,0,1-19.93,17.79c-13,6-18,14.43-18.07,14.52l-.3.51Zm22.09-74.08a2.76,2.76,0,0,0-2.74.26c-9.16,5.89-24.1,4.15-27.13,3.72-5.14,50.92,5.75,66.3,8,68.91,1.35-2,6.65-9,18.16-14.37a47.24,47.24,0,0,0,19.39-17.21C86.54,397.37,79.43,362.36,71.41,358.93Z"/><path class="cls-6" d="M132.52,282.54c1.66,14.49-.71,42-1,73.14s10.69,56.05-7.84,74.33c-17.57-13.3-36.09-20.66-43.22-29.92S59.85,371.83,60.57,354,132.52,282.54,132.52,282.54Z"/><path class="cls-4" d="M123.43,430.41a239.31,239.31,0,0,0-22-14.37c-9.2-5.51-17.14-10.26-21.28-15.64-13.82-18-20.57-33.58-20.05-46.4.71-17.84,69.23-69.66,72.15-71.86l.7-.52.1.87c1,8.89.51,22.91-.07,39.14-.37,10.31-.79,22-.88,34.06a227.89,227.89,0,0,0,1.62,25.51c2,19.33,3.7,36-9.61,49.17l-.3.3ZM61.07,354c-.51,12.58,6.17,28,19.84,45.75,4,5.23,11.89,9.94,21,15.39a242.18,242.18,0,0,1,21.78,14.17c12.63-12.75,10.95-29.12,9-48.05a227,227,0,0,1-1.63-25.62c.09-12.09.51-23.77.88-34.09.56-15.66,1.05-29.26.17-38.11C124.71,289.13,61.72,337.61,61.07,354Z"/><g class="cls-7"><path class="cls-8" d="M136.44,328.53c.26-7.3-8.08-13.56-14.08-17.22"/><path class="cls-8" d="M136.59,335.35a11.37,11.37,0,0,0-2.5-6.54c-2.16-2.88-5-5-8-8.29S121,314.2,119,313"/><path class="cls-8" d="M136.74,342.16a12.62,12.62,0,0,0-3.7-7.68c-3-3.25-6.58-5.09-10.25-9.68s-5.34-9-7.25-10.19"/><path class="cls-8" d="M136.88,349c-.28-3-1.92-6-4.88-8.83-3.81-3.62-8.13-5.22-12.47-11.08s-5.63-11.74-7.4-12.82"/><path class="cls-8" d="M137,355.79c-.41-3.42-2.4-6.81-6.07-10-4.63-4-9.7-5.35-14.68-12.48s-5.92-14.44-7.55-15.44"/><path class="cls-8" d="M137.18,362.61c-.53-3.82-2.88-7.6-7.26-11.12-5.44-4.37-11.26-5.47-16.9-13.87s-6.2-17.16-7.7-18.07"/><path class="cls-8" d="M137.32,369.42c-.64-4.2-3.35-8.39-8.45-12.27-6.24-4.74-12.82-5.58-19.1-15.26s-6.5-19.87-7.86-20.7"/><path class="cls-8" d="M137.47,376.24c-.76-4.59-3.83-9.2-9.64-13.42-7.06-5.13-14.38-5.7-21.31-16.66s-6.79-22.57-8-23.32"/><path class="cls-8" d="M137.62,383.05c-.88-5-4.31-10-10.83-14.56-7.87-5.51-16-5.82-23.53-18.06s-7.08-25.28-8.16-25.94"/><path class="cls-8" d="M137.76,389.87c-1-5.37-4.78-10.79-12-15.71-8.67-5.9-17.5-5.94-25.73-19.45s-7.37-28-8.32-28.58"/><path class="cls-8" d="M137.91,396.68c-1.12-5.75-5.26-11.59-13.21-16.85-9.49-6.29-19.07-6.07-27.95-20.85s-7.65-30.7-8.47-31.2"/><path class="cls-8" d="M138.06,403.5c-1.24-6.15-5.74-12.4-14.4-18-10.3-6.67-20.63-6.18-30.16-22.24s-8-33.41-8.63-33.82"/><path class="cls-8" d="M138.2,410.31c-1.35-6.53-6.21-13.19-15.59-19.15-11.1-7.06-22.18-6.3-32.37-23.63S82,331.41,81.46,331.08"/><path class="cls-8" d="M138.35,417.13c-1.47-6.92-6.69-14-16.78-20.3-11.92-7.44-23.75-6.42-34.58-25S78.47,333,78.06,332.72"/><path class="cls-8" d="M138.5,423.94c-1.59-7.31-7.17-14.81-18-21.44-12.72-7.85-25.31-6.54-36.8-26.43s-8.81-41.54-9.08-41.7"/><path class="cls-8" d="M138.64,430.76c-1.7-7.7-7.64-15.61-19.15-22.59-13.54-8.23-26.88-6.66-39-27.82S71.38,336.1,71.24,336"/><path class="cls-8" d="M138.79,437.58c-1.83-8.09-8.12-16.41-20.35-23.74-14.34-8.61-28.43-6.79-41.21-29.22s-9.4-47-9.4-47"/></g><g class="cls-9"><path class="cls-8" d="M59.16,363.23S61.9,395.71,86,408.62"/><path class="cls-8" d="M56.05,361.36s1,37.58,26.26,50.85"/><path class="cls-8" d="M52.94,359.49s-.82,42.69,25.72,56.3"/><path class="cls-8" d="M49.83,357.62s-2.6,47.8,25.18,61.76"/><path class="cls-8" d="M46.73,355.75S42.33,408.66,71.36,423"/><path class="cls-8" d="M43.62,353.88s-6.18,58,24.08,72.67"/><path class="cls-8" d="M40.51,352s-8,63.13,23.54,78.13"/><path class="cls-8" d="M37.4,350.14s-9.74,68.24,23,83.59"/><path class="cls-8" d="M34.29,348.27s-11.52,73.35,22.46,89"/><path class="cls-8" d="M31.18,346.4s-13.3,78.46,21.92,94.5"/></g><path class="cls-10" d="M125.16,247.63s19,21.61,6.17,56.05S71.49,373,34.21,366.37c-.24-61.74,1.9-82.88,19.94-115.65C69.11,254.05,81.23,257.61,125.16,247.63Z"/><path class="cls-4" d="M34.12,366.86l-.41-.07v-.42c-.25-63.12,2.08-83.35,20-115.89l.18-.33,2.18.49c13.85,3.11,26.93,6.05,69-3.49l.29-.07.19.22c.2.22,19.05,22.24,6.27,56.55-6.3,16.91-21.09,34.48-39.58,47-16.16,10.94-33.38,16.83-48.65,16.83A53.08,53.08,0,0,1,34.12,366.86ZM55.86,251.62l-1.45-.33C36.8,283.37,34.48,303.57,34.7,366c17,2.88,37.73-2.91,57-15.93,18.32-12.41,33-29.8,39.2-46.52,11.88-31.89-4-52.92-5.89-55.31C83,257.7,69.79,254.74,55.86,251.62Z"/><g class="cls-11"><path class="cls-4" d="M43.33,370.18l.49-.06c-8-62.17,14.62-117,14.85-117.57l-.46-.2C58,252.9,35.32,307.87,43.33,370.18Z"/><path class="cls-4" d="M57.05,372.19l.48-.12c-14.6-60.74,2-118.08,2.15-118.65l-.48-.14C59,253.85,42.42,311.32,57.05,372.19Z"/><path class="cls-4" d="M70.89,372.44l.47-.17c-21-58.47-10.7-117.52-10.59-118.11l-.49-.09C60.17,254.66,49.83,313.84,70.89,372.44Z"/><path class="cls-4" d="M84.66,370.94l.45-.22C58,315.31,61.89,255.36,61.93,254.76l-.5,0C61.39,255.32,57.47,315.41,84.66,370.94Z"/><path class="cls-4" d="M98.18,367.71l.43-.27C65.72,315.85,63.17,255.8,63.15,255.2l-.5,0C62.67,255.82,65.22,316,98.18,367.71Z"/><path class="cls-4" d="M111.27,362.78l.39-.31c-38.2-47.08-47.17-106.38-47.26-107l-.49.07C64,256.16,73,315.6,111.27,362.78Z"/><path class="cls-4" d="M123.73,356.23l.35-.36C81.1,314,65.83,256.2,65.69,255.62l-.49.12C65.35,256.32,80.65,314.22,123.73,356.23Z"/><path class="cls-4" d="M135.41,348.15l.31-.4C88.53,311.57,67.18,256.14,67,255.58l-.47.18C66.71,256.32,88.12,311.89,135.41,348.15Z"/><path class="cls-4" d="M146.15,338.64l.25-.43c-50.74-29.95-77.89-82.3-78.16-82.83l-.44.23C68.07,256.14,95.28,308.62,146.15,338.64Z"/><path class="cls-4" d="M155.79,327.83l.2-.46C102.38,304.06,69.81,255.51,69.48,255l-.41.28C69.39,255.79,102.05,304.46,155.79,327.83Z"/><path class="cls-4" d="M164.2,315.88l.14-.48C108.61,299,71.05,255,70.68,254.51l-.39.32C70.67,255.27,108.32,299.48,164.2,315.88Z"/><path class="cls-4" d="M171.28,302.94l.08-.49c-57.1-9.18-99.13-48.21-99.55-48.61l-.34.37C71.88,254.6,114,293.74,171.28,302.94Z"/><path class="cls-4" d="M176.93,289.2v-.5C119.24,286.81,73.32,253.38,72.86,253l-.3.4C73,253.78,119.07,287.31,176.93,289.2Z"/><path class="cls-4" d="M165.67,275.55c5,0,10.18-.23,15.39-.72l-.05-.5c-57.51,5.44-106.7-21.94-107.2-22.22l-.24.44C74,252.8,114.88,275.55,165.67,275.55Z"/><path class="cls-4" d="M145.5,264.13A174.33,174.33,0,0,0,183.62,260l-.11-.49C127,272.24,75.18,251.28,74.67,251.06l-.2.47C74.87,251.69,105.6,264.13,145.5,264.13Z"/></g><path class="cls-12" d="M23.89,13.19l4.42,194.94s-5,7-7.81.28C7.73,93.46,2.18,31.68.54,12.48a11,11,0,0,1,5-10.2l.22-.14A10.53,10.53,0,0,1,19.49,4.21l1.8,2.12A11,11,0,0,1,23.89,13.19Z"/><path class="cls-4" d="M23.33,211.8c-1.36-.15-2.47-1.23-3.29-3.19l0-.14C7.4,95,1.84,33.63,0,12.52A11.48,11.48,0,0,1,5.31,1.86l.22-.14A11.07,11.07,0,0,1,19.87,3.88L21.67,6a11.54,11.54,0,0,1,2.72,7.16l4.42,194.94v.17l-.1.14c-.1.14-2.47,3.4-5,3.4Zm.06-198.6a10.61,10.61,0,0,0-2.48-6.55l-1.8-2.12a10.07,10.07,0,0,0-13-2l-.23.15A10.46,10.46,0,0,0,1,12.43c1.8,21.1,7.35,82.41,20,195.86.67,1.56,1.49,2.41,2.45,2.52,1.7.2,3.63-1.88,4.36-2.84Z"/><path class="cls-10" d="M104.74,224.6c16.38-5.46,19.47-2.85,17.09,7.6C108.77,237.9,91,242.41,71.73,240s-24-6.65-17.81-17.82,17.57,5.7,21.61,5.47S104.74,224.6,104.74,224.6Z"/><path class="cls-4" d="M71.67,240.53C59.53,239,53.52,236.77,51.58,233c-1.36-2.68-.76-6.17,1.9-11,1.26-2.27,2.85-3.61,4.73-4,3.94-.76,8.37,2.86,11.95,5.77,2.18,1.79,4.25,3.46,5.34,3.41,3.89-.23,27.84-2.94,29.13-3.08,9.48-3.16,14.52-3.6,16.86-1.48,1.76,1.6,2,4.49.83,9.68l0,.25-.24.1a100.06,100.06,0,0,1-39.58,8.53A86.83,86.83,0,0,1,71.67,240.53Zm49.15-17.16c-2-1.82-6.93-1.3-15.93,1.7l-.1,0c-1,.11-25.23,2.85-29.23,3.09-1.48.09-3.49-1.56-6-3.63-3.4-2.78-7.64-6.24-11.12-5.57-1.6.31-2.92,1.44-4,3.48-2.48,4.49-3.08,7.68-1.88,10,1.78,3.48,7.55,5.59,19.32,7,20.45,2.53,38.23-2.77,49.61-7.7C122.41,227.27,122.23,224.65,120.82,223.37Z"/><path class="cls-3" d="M80.12,117.66s10.92,16,18,20.26,20.73,5.39,21.53,36.73c.31,31.35-.24,47.18-.24,47.18l-10.69,2.37s-10.29,14.57-15.2,15.52-16.3-6.33-24.53-13-17.26-14.25-17.26-14.25L40.54,212s-5.7,3.64-10.29,4S15.53,215,15.53,215s-1.43-3.48.47-4c-1.58-.95-2.22-3.95-1.11-4.27-1.11-.95.79-4,.79-4a3.54,3.54,0,0,1-.79-5.22c-3.64-2.69-4.91-4.75-4.11-7.29,6.33-.15,5.85.48,5.85.48s-4.27-3.64-.79-5.38c-1.42-2.06-2.06-3.49-.47-5.7-.32-3.33-2.22-2.06-3.49-2.54s-3-5.85,0-6.8,6.65-2.54,11.72-3.49,10.45,5.39,14.56,10.45,4.44,6.34,10.45,10a46.68,46.68,0,0,0,9.82,4.75s-2.69-12.83-3.17-18.84,1.43-18,10.61-28.18c-1.11-4.59-3.17-15.83-3.17-15.83Z"/><path class="cls-4" d="M68.72,227.13c-7.61-6.15-16-13.19-17.13-14.15l-10.92-.46c-.91.57-6.06,3.65-10.39,3.95-4.59.32-14.4-.9-14.82-.95l-.29,0-.11-.27c-.1-.25-1-2.44-.3-3.75a1.65,1.65,0,0,1,.35-.47,4.63,4.63,0,0,1-1.25-3.47,1.6,1.6,0,0,1,.34-.85c-.5-1.11.35-2.87.83-3.71a3.93,3.93,0,0,1-.8-5.23c-3.61-2.74-4.74-4.95-3.93-7.55l.11-.35h.35c2,0,3.4,0,4.32.05A4.24,4.24,0,0,1,14,187a2.42,2.42,0,0,1,1.14-1.72c-1.17-1.78-1.83-3.4-.28-5.68-.21-1.77-.82-1.77-1.82-1.77a3.52,3.52,0,0,1-1.32-.16c-1-.39-2-2.75-2-4.68a3,3,0,0,1,2-3.07c.8-.25,1.64-.55,2.54-.86a60.27,60.27,0,0,1,9.24-2.64c5.14-1,10.25,4.72,15,10.63.73.89,1.34,1.67,1.88,2.36,2.52,3.22,3.56,4.55,8.44,7.5a53.16,53.16,0,0,0,8.89,4.42c-.61-3-2.59-13-3-18-.44-5.68,1.28-18,10.56-28.36-1.11-4.7-3.09-15.49-3.11-15.6l-.06-.33,18.1-12,.28.41c.11.16,10.94,15.94,17.89,20.11,1,.62,2.2,1.17,3.45,1.76,7.44,3.51,17.64,8.33,18.33,35.4.31,31-.24,47-.24,47.2v.38l-10.88,2.42c-1.2,1.67-10.58,14.63-15.4,15.56a5.67,5.67,0,0,1-1,.09C87.05,240.3,76.46,233.38,68.72,227.13Zm50.48-52.47c-.67-26.44-10.55-31.1-17.76-34.51a37.39,37.39,0,0,1-3.53-1.8c-6.59-3.95-16.13-17.43-17.92-20l-16.74,11.1c.35,1.88,2.12,11.39,3.11,15.48l.06.26-.18.19c-9.2,10.16-10.92,22.26-10.48,27.81.47,5.91,3.13,18.65,3.16,18.77l.17.82-.8-.23a46.88,46.88,0,0,1-9.94-4.81A25.22,25.22,0,0,1,39.64,180c-.53-.69-1.14-1.46-1.86-2.35-3.41-4.19-9.11-11.21-14.09-10.27A58.69,58.69,0,0,0,14.6,170c-.91.32-1.76.62-2.57.87A2,2,0,0,0,10.72,173c0,1.71.87,3.54,1.34,3.72a3.17,3.17,0,0,0,1,.09c1.07,0,2.56,0,2.84,2.86v.19l-.11.15c-1.4,2-.9,3.12.48,5.12l.33.48-.51.25A1.68,1.68,0,0,0,15,187.1c-.13,1.05,1,2.38,1.68,3.06a.64.64,0,0,1,.41.35l.14.34-.51.67-.4-.34a1.1,1.1,0,0,1-.17-.15,20.94,20.94,0,0,0-5-.21c-.49,2.08.68,3.91,4,6.39l.38.28-.26.39a3.44,3.44,0,0,0-.68,2.62A3.34,3.34,0,0,0,16,202.41l.42.27-.26.42c-.7,1.11-1.4,2.87-.89,3.31l.7.61-.89.25c-.1,0-.16.22-.18.38a3.53,3.53,0,0,0,1.41,3l1,.62-1.17.29a.67.67,0,0,0-.47.36,4.16,4.16,0,0,0,.24,2.65c1.7.21,10.28,1.19,14.32.91,4.41-.3,10-3.84,10.06-3.88l.13-.08L52,212l.13.11c.09.07,9.12,7.67,17.25,14.24,8.44,6.82,19.58,13.76,24.13,12.88s14.78-15.17,14.88-15.31l.12-.16L119,221.43C119.05,218.81,119.48,203,119.2,174.66Z"/><path class="cls-3" d="M53.52,77.29C48.14,82.35,43.55,89,47,100.4c-4.12,4-7.92,10-5.54,13.46l5.54.47s-2.53,6,.16,8.08c-.95,1.74-2.85,8.55.16,13.45s19,2.06,25.8-1.58,10.09-19.83,10.09-19.83,4,1.78,6.85-2.49,2.22-13.3-3-14.25-5.54,5.54-5.54,5.54l-1.42.16s3.48-16.94-6.81-22.32A34.34,34.34,0,0,0,53.52,77.29Z"/><path class="cls-4" d="M46.92,136.13c-2.93-4.79-1.38-11.32-.35-13.6-2-2-.81-6.16-.24-7.76l-5.12-.43-.13-.2c-2.44-3.57.92-9.5,5.38-13.89C43,88.54,47.9,81.89,53.18,76.92l.11-.1.15,0a34.7,34.7,0,0,1,20.1,3.85c9.45,4.94,7.74,18.92,7.19,22.2l.35,0A7.46,7.46,0,0,1,83.35,98a4.57,4.57,0,0,1,3.82-.81,5.73,5.73,0,0,1,4.23,3.72,13.2,13.2,0,0,1-.89,11.3,6.1,6.1,0,0,1-6.89,2.86C83,118,79.69,131.35,73.39,134.72A44.06,44.06,0,0,1,55.3,139C51.41,139,48.17,138.17,46.92,136.13ZM83.45,114c.14.06,3.64,1.56,6.23-2.32a12.28,12.28,0,0,0,.8-10.35A4.88,4.88,0,0,0,87,98.2a3.63,3.63,0,0,0-3,.61c-1.76,1.4-1.94,4.44-1.94,4.47l0,.42-2.53.28.14-.67c0-.17,3.28-16.64-6.55-21.78a34.48,34.48,0,0,0-19.33-3.77c-5,4.78-9.69,11.2-6.24,22.5l.09.29-.22.21c-4.05,3.9-7.47,9.45-5.6,12.62l6,.51-.27.64c-.66,1.57-2,6,0,7.48l.34.26-.2.38c-.94,1.72-2.73,8.26.14,12.95,2.68,4.37,18.07,2,25.15-1.76,6.52-3.49,9.8-19.33,9.83-19.49l.13-.61Z"/><path class="cls-2" d="M81,106.58S80,99.45,86.45,98.5s4.75,12.11,1,14.73-3.8-1-3.8-1L80,122.49l12.58,10.39a24.75,24.75,0,0,0,14.73-21.79c1-16.62.24-28-15-40.13S53,75.23,45.84,64.07c-.71,5.7,5.46,15.2,5.46,15.2Z"/><path class="cls-4" d="M79.45,122.65l4.63-13.26,0,2.88c0,.29.11,1.08.59,1.32s1.33,0,2.43-.78c2.46-1.69,4-8.44,2.63-11.83a2.77,2.77,0,0,0-3.23-2c-5.84.86-5.07,7.24-5,7.51l.18,1.37L51,79.64l-.08-.1c-.26-.39-6.27-9.72-5.54-15.53l.17-1.38.74,1.17c3.25,5.09,10.43,4.12,18.73,3,9.21-1.25,19.65-2.66,27.71,3.76,15.54,12.39,16.09,24.1,15.15,40.56a25.48,25.48,0,0,1-15.06,22.23l-.27.1ZM65.13,67.79c-8,1.08-15,2-18.83-2.29.26,5.27,5,12.75,5.39,13.44L80.45,105.4c0-2.2.81-6.63,5.93-7.39a3.75,3.75,0,0,1,4.3,2.61c1.52,3.87-.13,11-3,13-1.45,1-2.62,1.28-3.46.84a1.79,1.79,0,0,1-.65-.6l-2.95,8.44,12.08,10a24.46,24.46,0,0,0,14.15-21.24c.92-16.14.39-27.63-14.77-39.71-4.49-3.58-9.81-4.61-15.25-4.61A88.32,88.32,0,0,0,65.13,67.79Z"/><path class="cls-13" d="M45.92,90.74l-2.53,13.94s17.57,6.65,26.44,5.7,25.49-8.08,37.52.71c.31-6.26.59-8.08.59-8.08s-16.27-11.32-28.46-12S45.92,90.74,45.92,90.74Z"/><polygon class="cls-13" points="105.96 101.63 114.63 133.09 107.86 133.57 105.96 101.63"/><polygon class="cls-13" points="107.58 102.66 103.64 128.34 97.5 125.45 107.58 102.66"/><path class="cls-4" d="M85.79,209.46c.07-.22,1.58-5.54,1.07-26.77-.51-20.6,11.53-21.38,12-21.4l0-1c-.14,0-13.53.79-13,22.43.51,21-1,26.4-1,26.45Z"/><path class="cls-4" d="M66.28,145.64c14.15-.26,20.71-7.94,21-8.27l-.77-.64c-.06.08-6.56,7.66-20.23,7.91Z"/><path class="cls-4" d="M91.57,240.57a9.36,9.36,0,0,0,1.18-.08c3.5-.46,6.62-2.9,10.45-8.19,8.83-12.21,12.57-32.61,12.6-32.81l-1-.18c0,.21-3.74,20.38-12.43,32.41-3.6,5-6.61,7.37-9.77,7.78-4.83.63-10.44-3.13-19.77-10.75l-.64.78C81.05,236.74,86.67,240.57,91.57,240.57Z"/><path class="cls-14" d="M46.18,115.49c3.19.8,11.56,8.24,17,4.65-4.79,4.39-17.81,1.07-17.81,1.07Z"/><path class="cls-4" d="M96.67,221.89l.77-.63c-4.86-5.89-12.06-12.14-22-19.14A110,110,0,0,0,60.56,193c-1.05-.55-2.16-1.13-3.44-1.82l-.48.87c1.28.7,2.4,1.29,3.46,1.84a109.11,109.11,0,0,1,14.75,9.09C84.73,209.88,91.86,216.08,96.67,221.89Z"/><path class="cls-4" d="M51.39,212.81l.78-.64A178.07,178.07,0,0,0,36.6,195.64l-.25-.23-.3.15c-5.93,3-18.16-5.1-18.29-5.18l-.55.83c.51.34,12.45,8.21,19,5.39A177.44,177.44,0,0,1,51.39,212.81Z"/><path class="cls-4" d="M23.86,199.66a23,23,0,0,0,7.36-1.09l-.34-.94a25.46,25.46,0,0,1-15.82-.49l-.34.94A27.35,27.35,0,0,0,23.86,199.66Z"/><rect class="cls-4" x="20.52" y="197.85" width="1" height="10.7" transform="translate(-183.16 209.9) rotate(-85.97)"/><rect class="cls-4" x="20.26" y="173.07" width="1" height="10.7" transform="translate(-158.68 186.59) rotate(-85.97)"/><rect class="cls-4" x="19.86" y="176.56" width="1" height="11.5" transform="translate(-162.92 190.17) rotate(-86.08)"/><rect class="cls-4" x="20.26" y="180.9" width="1" height="10.7" transform="translate(-166.49 193.87) rotate(-85.97)"/><rect class="cls-4" x="20.52" y="202.29" width="1" height="10.7" transform="translate(-187.58 214.02) rotate(-85.97)"/><rect class="cls-4" x="20.52" y="206.72" width="1" height="10.7" transform="translate(-192.01 218.14) rotate(-85.97)"/><path class="cls-15" d="M125.4,248.82s6.17-12.35-5-19c-9.5,4.52-24.46,12.12-45.12,8.55s-21.37-5-21.37-5-9.74,12.11-.48,20.42S100.7,257.13,125.4,248.82Z"/><path class="cls-4" d="M53.11,254.18c-9.51-8.53.32-21,.42-21.11l.49-.6.3.61c.33.22,3.07,1.7,21.05,4.8,19.82,3.42,34.28-3.48,43.85-8l1.22-.58.23.13c11.42,6.81,5.24,19.53,5.17,19.66l-.09.18-.2.07c-15.21,5.12-36.77,9.3-52.83,9.3C63.81,258.6,56.6,257.32,53.11,254.18Zm67.27-23.79-.73.35c-9.69,4.62-24.33,11.59-44.45,8.13-11.58-2-19.08-3.71-21.17-4.81-1.52,2.05-8.29,12.16-.25,19.38,8.63,7.74,45.33,3.66,71.26-5C125.76,246.85,130.12,236.39,120.38,230.39Z"/></g></svg>