<svg id="Layer_1" data-name="Layer 1" xmlns="http://www.w3.org/2000/svg" viewBox="0 0 276.97 245.53"><defs><style>.cls-1{fill:#d4af25;}.cls-2{fill:#461d2c;}</style></defs><title>1920x1080 UI Landing Page</title><g id="error"><path class="cls-1" d="M120,10.68a21.36,21.36,0,0,1,37,0l58.54,101.41,58.55,101.4a21.36,21.36,0,0,1-18.5,32H21.39a21.36,21.36,0,0,1-18.5-32l58.55-101.4Z"/><path class="cls-2" d="M140.42,187.42a14.07,14.07,0,0,1,10.47,4.41,14.63,14.63,0,0,1,4.3,10.59,14.17,14.17,0,0,1-4.52,10.69,15,15,0,0,1-10.69,4.3,13.9,13.9,0,0,1-10.47-4.52,15,15,0,0,1-4.3-10.69,13.9,13.9,0,0,1,4.52-10.48A15,15,0,0,1,140.42,187.42ZM127.85,58h24.26V177.06H127.85Z"/></g></svg>