<svg id="Layer_1" data-name="Layer 1" xmlns="http://www.w3.org/2000/svg" viewBox="0 0 70.83 70.83"><defs><style>.cls-1{fill:#461d2c;}.cls-2{fill:#f5e7b4;}</style></defs><title>1920x1080 UI Landing Page</title><g id="facebook_icon"><path class="cls-1" d="M70.83,35.42a35.42,35.42,0,1,0-40.95,35V45.65h-9V35.42h9V27.61c0-8.87,5.29-13.78,13.38-13.78a54,54,0,0,1,7.93.7v8.71H46.72C42.32,23.24,41,26,41,28.77v6.65h9.82L49.2,45.65H41V70.4A35.43,35.43,0,0,0,70.83,35.42Z"/><path class="cls-2" d="M49.2,45.65l1.57-10.23H41V28.77c0-2.8,1.37-5.53,5.77-5.53h4.47V14.53a54,54,0,0,0-7.93-.7c-8.09,0-13.38,4.91-13.38,13.78v7.81h-9V45.65h9V70.4A35.84,35.84,0,0,0,41,70.4V45.65Z"/></g></svg>