<svg id="Layer_1" data-name="Layer 1" xmlns="http://www.w3.org/2000/svg" viewBox="0 0 78.94 78.94"><defs><style>.cls-1{fill:#461d2c;}.cls-2{fill:#e5c344;}.cls-3{fill:#b2203d;}.cls-4{fill:#f8ecee;}</style></defs><title>1920x1080 UI Landing Page</title><circle class="cls-1" cx="39.47" cy="39.47" r="39.47" transform="translate(-8.01 68.82) rotate(-76.72)"/><path class="cls-2" d="M42.64,25.48l4.78-13.67a.45.45,0,0,1,.85.3L43.51,25.7a14.5,14.5,0,0,1,4.17,2l8.24-9.9a8.82,8.82,0,0,0,.94-9.95l-.24-.43A8.84,8.84,0,0,0,40.07,11L38.94,25.15c.18,0,.35,0,.53,0A14.39,14.39,0,0,1,42.64,25.48Z"/><path class="cls-2" d="M51.2,31.22l12.57-6.09a.44.44,0,0,1,.6.21.45.45,0,0,1-.2.6L51.7,32a14.16,14.16,0,0,1,1.81,4.53l12.06-1.13A8.85,8.85,0,0,0,73.26,29l.13-.48a8.84,8.84,0,0,0-14.26-9.13l-10.53,9A14.56,14.56,0,0,1,51.2,31.22Z"/><path class="cls-2" d="M74.87,46.73a8.84,8.84,0,0,0-8.14-8l-13-1a16,16,0,0,1,.11,1.7,14.21,14.21,0,0,1-.22,2.37L66,46.1a.45.45,0,0,1,.28.57.46.46,0,0,1-.42.31l-.15,0L53.44,42.73a14.26,14.26,0,0,1-2.07,4.77L60,54.63a8.83,8.83,0,0,0,10,.89l.43-.24A8.82,8.82,0,0,0,74.87,46.73Z"/><path class="cls-2" d="M47.32,51.48l5.41,11a.45.45,0,0,1-.2.6.51.51,0,0,1-.2,0,.45.45,0,0,1-.41-.25L46.55,52a14.18,14.18,0,0,1-5.11,1.72l1.05,10.69A8.84,8.84,0,0,0,48.92,72l.47.13a8.85,8.85,0,0,0,9.07-14.3l-8-9.21A14.16,14.16,0,0,1,47.32,51.48Z"/><path class="cls-2" d="M35.68,53.3,31.77,64.81a.45.45,0,0,1-.43.3.34.34,0,0,1-.14,0,.44.44,0,0,1-.28-.57L34.82,53a14.27,14.27,0,0,1-4.66-2.66l-6.95,8.51a8.85,8.85,0,0,0-.85,10l.25.43a8.84,8.84,0,0,0,16.51-3.74L40,53.8l-.48,0A14.39,14.39,0,0,1,35.68,53.3Z"/><path class="cls-2" d="M15.29,51.65a.45.45,0,0,1-.4-.81l11.42-5.66a14,14,0,0,1-1.15-5L13.4,41.41a8.85,8.85,0,0,0-7.63,6.47l-.12.47a8.84,8.84,0,0,0,14.34,9l9.13-8A14.11,14.11,0,0,1,26.7,46Z"/><path class="cls-2" d="M12.9,30.69a.45.45,0,0,1,.29-.85l13,4.34a14.52,14.52,0,0,1,2.49-4.1l-9.84-8a8.84,8.84,0,0,0-10-.8l-.43.24a8.84,8.84,0,0,0,3.82,16.5l12.94.86A14.22,14.22,0,0,1,25.83,35Z"/><path class="cls-2" d="M26,14.16a.46.46,0,0,1,.2-.61.46.46,0,0,1,.6.2l6.43,12.82a14.24,14.24,0,0,1,4.39-1.32l-1.39-13a8.86,8.86,0,0,0-6.5-7.6l-.48-.12a8.84,8.84,0,0,0-8.93,14.38l9.11,10.35a14.44,14.44,0,0,1,3-2.25Z"/><path class="cls-3" d="M48.27,12.11a.45.45,0,0,0-.85-.3L42.64,25.48l.87.22Z"/><path class="cls-3" d="M64.17,25.94a.45.45,0,0,0,.2-.6.44.44,0,0,0-.6-.21L51.2,31.22c.18.24.34.5.5.76Z"/><path class="cls-3" d="M65.68,47l.15,0a.46.46,0,0,0,.42-.31A.45.45,0,0,0,66,46.1L53.61,41.84c0,.3-.1.6-.17.89Z"/><path class="cls-3" d="M51.92,62.91a.45.45,0,0,0,.41.25.51.51,0,0,0,.2,0,.45.45,0,0,0,.2-.6l-5.41-11-.77.47Z"/><path class="cls-3" d="M30.92,64.52a.44.44,0,0,0,.28.57.34.34,0,0,0,.14,0,.45.45,0,0,0,.43-.3L35.68,53.3c-.29-.08-.58-.16-.86-.26Z"/><path class="cls-3" d="M14.89,50.84a.45.45,0,0,0,.4.81L26.7,46q-.21-.39-.39-.81Z"/><path class="cls-3" d="M13.19,29.84a.45.45,0,0,0-.29.85L25.83,35c.09-.29.2-.57.31-.84Z"/><path class="cls-3" d="M26.79,13.75a.46.46,0,0,0-.6-.2.46.46,0,0,0-.2.61L32.42,27c.26-.15.53-.28.8-.41Z"/><path class="cls-3" d="M41.44,38.12a.45.45,0,0,1,.57-.28l1.78.62.36-1.08-.45,0-.64-1.26L41.35,37a.41.41,0,0,1-.19.05.43.43,0,0,1-.4-.25.44.44,0,0,1,.2-.6l1.7-.82-.51-1-.29.35-1.34-.45L39.89,36a.43.43,0,0,1-.42.3l-.15,0a.45.45,0,0,1-.27-.57L39.67,34l-1.16-.39.05.49-1.26.65.85,1.7a.43.43,0,0,1-.2.6.35.35,0,0,1-.2.05.45.45,0,0,1-.4-.25l-.84-1.68-1,.52.35.28-.43,1.35,1.8.6a.45.45,0,0,1,.28.57.44.44,0,0,1-.42.31.35.35,0,0,1-.14,0l-1.79-.59-.34,1.08.44,0,.65,1.26,1.7-.85a.45.45,0,0,1,.4.81l-1.69.84.52,1,.28-.34,1.35.43.61-1.8a.45.45,0,0,1,.85.29l-.61,1.79,1.08.35,0-.45,1.26-.64-.84-1.71a.45.45,0,1,1,.81-.39l.83,1.69,1-.51-.35-.29.44-1.34-1.79-.62A.45.45,0,0,1,41.44,38.12Z"/><path class="cls-3" d="M39.32,36.31l.15,0a.43.43,0,0,0,.42-.3l.63-1.79L39.67,34l-.62,1.78A.45.45,0,0,0,39.32,36.31Z"/><polygon class="cls-3" points="42 34.04 42.15 34.34 43.41 32.84 42 34.04"/><path class="cls-3" d="M40.76,36.78a.43.43,0,0,0,.4.25.41.41,0,0,0,.19-.05l1.71-.82-.4-.8-1.7.82A.44.44,0,0,0,40.76,36.78Z"/><polygon class="cls-3" points="44.25 37.06 44.15 37.38 46.1 37.2 44.25 37.06"/><path class="cls-3" d="M42,37.84a.45.45,0,0,0-.29.85l1.79.62.28-.85Z"/><polygon class="cls-3" points="43.72 40.78 43.42 40.94 44.93 42.18 43.72 40.78"/><path class="cls-3" d="M41,39.55a.45.45,0,0,0-.21.6l.84,1.71.8-.41-.83-1.69A.45.45,0,0,0,41,39.55Z"/><polygon class="cls-3" points="40.71 43.05 40.39 42.95 40.58 44.9 40.71 43.05"/><path class="cls-3" d="M39.64,40.24a.45.45,0,0,0-.57.28l-.61,1.8.85.28.61-1.79A.45.45,0,0,0,39.64,40.24Z"/><polygon class="cls-3" points="36.98 42.53 36.83 42.23 35.59 43.75 36.98 42.53"/><path class="cls-3" d="M38.2,39.79a.45.45,0,0,0-.6-.21l-1.7.85.41.8L38,40.39A.45.45,0,0,0,38.2,39.79Z"/><polygon class="cls-3" points="34.7 39.54 34.81 39.22 32.86 39.42 34.7 39.54"/><path class="cls-3" d="M37.08,38.76a.44.44,0,0,0,.42-.31.45.45,0,0,0-.28-.57l-1.8-.6-.27.86,1.79.59A.35.35,0,0,0,37.08,38.76Z"/><polygon class="cls-3" points="38.28 33.49 38.51 33.57 38.37 32.31 38.28 33.49"/><polygon class="cls-3" points="35.2 35.81 35.5 35.65 33.98 34.42 35.2 35.81"/><path class="cls-3" d="M37.75,37.06A.35.35,0,0,0,38,37a.43.43,0,0,0,.2-.6l-.85-1.7-.79.42.84,1.68A.45.45,0,0,0,37.75,37.06Z"/><path class="cls-3" d="M39.67,34l.85.28,1.34.45.29-.35L42,34l1.41-1.2,4.27-5.13a14.5,14.5,0,0,0-4.17-2l-.87-.22a14.39,14.39,0,0,0-3.17-.36c-.18,0-.35,0-.53,0l-.57,7.16.14,1.26Z"/><path class="cls-3" d="M42.66,35.36l.4.8.64,1.26.45,0,.1-.32,1.85.14,7.41-.69A14.16,14.16,0,0,0,51.7,32c-.16-.26-.32-.52-.5-.76a14.56,14.56,0,0,0-2.6-2.83l-5.19,4.45-1.26,1.5Z"/><path class="cls-3" d="M53.72,37.77,46.1,37.2l-2,.18-.36,1.08-.28.85-.44,1.34.35.29.3-.16,1.21,1.4,6.44,5.32a14.26,14.26,0,0,0,2.07-4.77c.07-.29.12-.59.17-.89a14.21,14.21,0,0,0,.22-2.37A16,16,0,0,0,53.72,37.77Z"/><path class="cls-3" d="M42.41,41.45l-.8.41-1.26.64,0,.45.32.1-.13,1.85.86,8.77A14.18,14.18,0,0,0,46.55,52l.77-.47a14.16,14.16,0,0,0,3.19-2.84l-5.58-6.46-1.51-1.24Z"/><path class="cls-3" d="M39.31,42.6l-.85-.28-1.35-.43-.28.34.15.3-1.39,1.22-5.43,6.63A14.27,14.27,0,0,0,34.82,53c.28.1.57.18.86.26a14.39,14.39,0,0,0,3.79.53l.48,0,.63-8.9L40.39,43Z"/><path class="cls-3" d="M36.31,41.23l-.41-.8-.65-1.26-.44,0-.11.32-1.84-.12-7.7.79a14,14,0,0,0,1.15,5q.18.42.39.81a14.11,14.11,0,0,0,2.42,3.4l6.47-5.64,1.24-1.52Z"/><path class="cls-3" d="M35.15,38.14l.27-.86.43-1.35-.35-.28-.3.16L34,34.42l-5.35-4.34a14.52,14.52,0,0,0-2.49,4.1c-.11.27-.22.55-.31.84a14.22,14.22,0,0,0-.68,3.89l7.71.51,2-.2Z"/><path class="cls-3" d="M36.51,35.13l.79-.42,1.26-.65-.05-.49-.23-.08.09-1.18-.76-7.06a14.24,14.24,0,0,0-4.39,1.32c-.27.13-.54.26-.8.41a14.44,14.44,0,0,0-3,2.25L34,34.42l1.52,1.23Z"/><circle class="cls-4" cx="39.47" cy="39.47" r="9.57" transform="translate(-8.01 68.82) rotate(-76.72)"/><path class="cls-3" d="M44.26,39.47a4.79,4.79,0,1,1-4.79-4.78A4.8,4.8,0,0,1,44.26,39.47Z"/></svg>