<svg id="Layer_1" data-name="Layer 1" xmlns="http://www.w3.org/2000/svg" xmlns:xlink="http://www.w3.org/1999/xlink" viewBox="0 0 187 137"><defs><style>.cls-1{fill:none;}.cls-2{clip-path:url(#clip-path);}.cls-3{fill:#273b2a;}.cls-4{fill:#567c5c;}.cls-5{fill:#73a57a;}</style><clipPath id="clip-path"><rect class="cls-1" width="187" height="137"/></clipPath></defs><title>1920x1080 UI Landing Page</title><g class="cls-2"><g id="right_leaf_part"><path class="cls-3" d="M106.52,73a315.49,315.49,0,0,1,39.17,13.71c12.76,5.36,25.22,11.36,37.5,17.58s24.39,12.65,36.52,18.75A361.61,361.61,0,0,0,256.4,139.5,161.64,161.64,0,0,0,275,145.15c3.12.75,6.24,1.32,9.35,1.82s6.23.81,9.33.94A81.11,81.11,0,0,0,314,146.59v21.06a102.09,102.09,0,0,1-22.05-.4c-3.73-.42-7.39-1.12-11-1.87s-7.16-1.74-10.64-2.82a180.94,180.94,0,0,1-20.18-7.64,373.56,373.56,0,0,1-37.05-19.66c-11.89-7-23.51-14.24-35.22-21.2s-23.52-13.67-35.64-19.75a310.25,310.25,0,0,0-37.34-16A228.12,228.12,0,0,0,24.69,65.17,231.12,231.12,0,0,1,106.52,73Z"/><path class="cls-4" d="M79.26,71.19c.39,17.62,16.91,30.12,32.06,35.68A96.08,96.08,0,0,0,126,111.08c13.85,2.73,29.84.52,40.87-8.24a1.09,1.09,0,0,0,.33-.6L81.88,59.61A25.61,25.61,0,0,0,79.26,71.19Z"/><path class="cls-5" d="M151.61,67.33C143.7,59.84,135,52.34,124.92,48,113.31,42.89,98,42.29,88.09,51.23a27,27,0,0,0-6.21,8.38l85.32,42.63a12.57,12.57,0,0,0,.07-2.9C167.44,87,160.33,75.58,151.61,67.33Z"/><path class="cls-3" d="M165.74,103.7S110.09,74.26,94.05,65.48c0,0,53.57,25.57,73.41,35C167.46,100.44,169.11,103,165.74,103.7Z"/><path class="cls-3" d="M158,96.48s.07-.41.14-1.17.15-1.86.17-3.17a44.84,44.84,0,0,0-.14-4.49c-.06-.82-.16-1.67-.27-2.52s-.26-1.73-.45-2.59c-.08-.43-.18-.86-.29-1.28s-.21-.85-.33-1.27c-.23-.83-.5-1.64-.79-2.41s-.6-1.51-.92-2.2-.64-1.32-1-1.9-.66-1.08-.94-1.54-.58-.82-.81-1.13l-.76-1,.8.92.86,1.11c.3.45.67.94,1,1.51s.71,1.19,1.07,1.87.69,1.41,1,2.18.63,1.58.9,2.41c.14.42.27.84.39,1.27s.24.86.35,1.29c.22.86.4,1.74.56,2.6s.29,1.73.39,2.56c.2,1.66.3,3.23.33,4.57s0,2.46,0,3.25-.09,1.24-.09,1.24Z"/><path class="cls-3" d="M145.63,90.6l.05-.32c0-.2.07-.51.12-.91s.08-.88.14-1.43.09-1.18.1-1.87c0-.34,0-.7,0-1.07V83.85c0-.79,0-1.62-.07-2.48s-.12-1.75-.23-2.64-.21-1.82-.4-2.72l-.24-1.35c-.09-.45-.21-.89-.32-1.33s-.2-.88-.32-1.31l-.39-1.25c-.13-.41-.25-.82-.38-1.22s-.3-.76-.45-1.13-.28-.73-.42-1.08-.31-.66-.45-1c-.31-.63-.57-1.2-.83-1.71l-.74-1.25-.65-1.1.69,1.07.8,1.23c.27.49.56,1.06.89,1.67.16.31.35.63.5,1l.47,1.06c.16.37.32.75.49,1.13s.29.8.43,1.21l.45,1.25c.13.43.25.87.38,1.31s.26.88.37,1.33l.3,1.36c.23.91.35,1.83.52,2.73s.23,1.81.33,2.68S147,83,147,83.83c0,.4,0,.79.05,1.16s0,.75,0,1.1c0,.7,0,1.34,0,1.91s0,1.07-.09,1.48-.06.73-.09,1l0,.34Z"/><path class="cls-3" d="M133.59,84.94s.08-.5.16-1.43.19-2.26.22-3.86A56.59,56.59,0,0,0,133,68c-.2-1.06-.44-2.1-.7-3.12s-.57-2-.89-3c-.16-.48-.34-.94-.5-1.39s-.36-.89-.53-1.31c-.37-.85-.72-1.64-1.1-2.35s-.74-1.36-1.06-1.93l-.9-1.43c-.55-.77-.85-1.21-.85-1.21l.89,1.18,1,1.4c.33.57.74,1.18,1.12,1.9s.79,1.49,1.19,2.32c.19.43.39.86.58,1.31s.38.91.56,1.38c.35,1,.69,1.94,1,3s.58,2.07.82,3.13A57.07,57.07,0,0,1,135,79.66c0,1.63,0,3-.09,3.93s-.12,1.51-.12,1.51Z"/><path class="cls-3" d="M123.21,80.09s0-.46,0-1.28-.09-2-.21-3.37a73.25,73.25,0,0,0-1.59-10.16c-.21-.91-.45-1.81-.7-2.7s-.53-1.75-.82-2.57-.6-1.62-.92-2.36-.64-1.43-1-2.06l-.47-.89-.46-.78c-.29-.5-.58-.9-.8-1.25s-.43-.59-.56-.77l-.2-.28.21.27c.13.17.34.42.59.75s.55.73.85,1.22c.15.24.32.49.49.77l.51.87c.35.62.7,1.3,1,2s.69,1.52,1,2.34.63,1.69.93,2.57.57,1.79.82,2.7a73.44,73.44,0,0,1,2,10.19c.17,1.41.28,2.59.35,3.42s.08,1.31.08,1.31Z"/><path class="cls-3" d="M112.07,74.68s-.25-1.56-.76-3.9c-.13-.58-.27-1.21-.43-1.88s-.33-1.37-.52-2.09-.38-1.47-.59-2.23-.45-1.52-.68-2.28-.49-1.52-.73-2.27-.52-1.47-.79-2.17-.53-1.37-.81-2-.54-1.22-.78-1.76l-.74-1.46c-.21-.45-.44-.8-.61-1.11l-.55-1,.59.93c.18.3.44.64.67,1.07l.8,1.43.87,1.74c.31.62.59,1.29.91,2s.58,1.42.89,2.15.57,1.49.84,2.24.55,1.51.79,2.27.49,1.49.7,2.21.43,1.42.62,2.08.36,1.3.52,1.88c.62,2.33,1,3.91,1,3.91Z"/><path class="cls-3" d="M100.11,69s-.31-1.06-.84-2.63c-.27-.78-.59-1.69-1-2.66s-.76-2-1.17-3c-.22-.5-.43-1-.64-1.51s-.43-1-.66-1.45-.42-.93-.64-1.35-.41-.82-.61-1.19l-.54-1c-.16-.29-.32-.54-.44-.75l-.39-.65.41.64c.12.21.29.45.45.74l.57,1c.2.36.4.76.63,1.18s.44.87.67,1.33.46,1,.69,1.44.45,1,.68,1.51c.44,1,.87,2,1.24,3s.72,1.87,1,2.64c.57,1.56.9,2.62.9,2.62Z"/><path class="cls-3" d="M156.37,97.63s-.27.35-.76.9-1.22,1.33-2.14,2.2a40.32,40.32,0,0,1-3.27,2.81c-.63.49-1.29,1-2,1.42s-1.4.91-2.13,1.32-1.48.81-2.24,1.15-1.5.65-2.24.92-1.48.48-2.18.65c-.34.1-.69.16-1,.23a8.83,8.83,0,0,1-1,.17c-.62.11-1.2.15-1.7.2s-1,0-1.32.05l-1.15,0,1.15,0,1.31-.11c.5-.07,1.07-.13,1.67-.27.31-.06.63-.12,1-.21s.66-.16,1-.27c.68-.2,1.39-.45,2.11-.74a23.29,23.29,0,0,0,2.17-1c.73-.37,1.44-.79,2.14-1.22s1.38-.91,2-1.39,1.28-1,1.87-1.48a40.63,40.63,0,0,0,3.08-2.89c.85-.89,1.52-1.67,2-2.23s.68-.87.68-.87Z"/><path class="cls-3" d="M144.37,91.45s-.27.37-.77,1-1.24,1.41-2.18,2.35a41.84,41.84,0,0,1-7.55,6c-.75.47-1.51.9-2.28,1.3-.38.2-.77.38-1.15.57l-1.14.52-1.12.45-1.1.39c-.71.23-1.39.44-2,.6s-1.23.27-1.75.39l-1.36.21-1.19.13,1.18-.18,1.35-.27c.51-.14,1.1-.26,1.72-.46s1.29-.42,2-.68l1.06-.43,1.1-.49,1.1-.56,1.11-.61c.74-.43,1.47-.88,2.19-1.37a41.57,41.57,0,0,0,7.15-6.22c.88-.95,1.56-1.78,2-2.38s.7-.93.7-.93Z"/><path class="cls-3" d="M132.69,85.4s-.33.42-.92,1.09-1.45,1.62-2.55,2.69a52,52,0,0,1-3.92,3.46c-.75.61-1.54,1.19-2.36,1.77s-1.68,1.14-2.55,1.66c-.44.27-.88.53-1.32.77s-.89.48-1.34.7c-.9.46-1.8.86-2.68,1.22s-1.76.66-2.6.91c-.41.14-.83.23-1.22.35s-.79.19-1.16.27c-.74.17-1.44.26-2,.36l-1.6.17-1.39.07,1.39-.12,1.58-.22c.6-.13,1.29-.24,2-.44.37-.09.75-.19,1.14-.31s.79-.23,1.2-.39c.82-.28,1.67-.62,2.53-1s1.74-.81,2.6-1.29c.44-.24.87-.48,1.3-.75s.85-.52,1.28-.8c.84-.54,1.66-1.13,2.45-1.72s1.54-1.21,2.25-1.83a50.49,50.49,0,0,0,3.73-3.54c1-1.09,1.85-2,2.4-2.72s.84-1.07.84-1.07Z"/><path class="cls-3" d="M122.52,80.3s-.33.3-.93.8-1.45,1.21-2.51,2a61.46,61.46,0,0,1-8.19,5.27q-1.19.62-2.37,1.17l-1.19.52-1.17.46c-.78.29-1.54.55-2.27.76s-1.43.39-2.08.53l-.93.17-.85.12c-.53.09-1,.09-1.39.13s-.68,0-.89,0h-.32l.32,0c.2,0,.51,0,.89-.06s.85-.08,1.37-.19l.84-.15.92-.21c.64-.17,1.32-.36,2-.61s1.45-.53,2.21-.84l1.14-.51,1.15-.57c.76-.39,1.53-.81,2.29-1.25a60.47,60.47,0,0,0,7.86-5.53c1-.84,1.82-1.56,2.39-2.08s.86-.81.86-.81Z"/><path class="cls-3" d="M111.45,74.92s-1.28.79-3.26,1.86c-.5.26-1,.56-1.6.85s-1.18.6-1.81.9-1.29.62-2,.92-1.37.6-2,.9-1.39.56-2.07.83-1.38.5-2,.72-1.32.43-1.93.6L93,83l-1.5.31c-.44.11-.84.13-1.17.19l-1,.14,1-.19c.31-.07.71-.11,1.15-.24l1.47-.38,1.71-.55c.61-.2,1.24-.45,1.89-.69s1.31-.54,2-.82,1.35-.6,2-.92,1.34-.64,2-1,1.29-.67,1.89-1,1.2-.66,1.75-1,1.07-.63,1.55-.92c1.9-1.15,3.11-2,3.11-2Z"/><path class="cls-3" d="M99.34,68.27s-.94.44-2.36,1c-.71.29-1.55.63-2.45,1s-1.87.68-2.84,1l-1.46.46c-.49.14-1,.29-1.43.41s-.91.25-1.34.35-.83.2-1.21.27l-1,.2c-.31.07-.58.09-.8.13l-.7.11.7-.13c.22,0,.49-.07.79-.14l1-.23c.37-.08.77-.19,1.2-.3s.87-.25,1.33-.38.93-.29,1.41-.44l1.45-.5c1-.35,1.92-.71,2.8-1.07s1.72-.72,2.42-1c1.4-.62,2.32-1.07,2.32-1.07Z"/><path class="cls-4" d="M229.11,13.36C240,29.25,233.73,52.19,224.28,68a118,118,0,0,1-9.91,14.29c-10.14,12.37-25.26,21.91-40.27,22.08a1.06,1.06,0,0,1-.66-.3L219.51,5A26.15,26.15,0,0,1,229.11,13.36Z"/><path class="cls-5" d="M164.64,62c2-12.32,4.73-25.21,10.57-36.35C182,12.79,194.7,1.25,208.87,2a26.58,26.58,0,0,1,10.64,3l-46.07,99.08a13.68,13.68,0,0,1-1.91-2.51C163.52,90.71,162.4,75.54,164.64,62Z"/><path class="cls-3" d="M175.62,104.32s29-66.07,37.18-85.38c0,0-29.68,61.15-40.73,83.74C172.07,102.68,172.29,106.13,175.62,104.32Z"/><path class="cls-3" d="M177.7,92.34s-.32-.32-.86-.94-1.31-1.54-2.16-2.68A48.78,48.78,0,0,1,172,84.64c-.47-.77-.93-1.59-1.37-2.43s-.87-1.71-1.26-2.61c-.2-.44-.39-.89-.57-1.34s-.35-.91-.51-1.36c-.33-.91-.61-1.82-.86-2.71s-.45-1.77-.61-2.6-.28-1.64-.36-2.39-.12-1.43-.17-2,0-1.15,0-1.59l0-1.39s0,.51-.09,1.39c0,.44,0,1,0,1.6s0,1.31.09,2.06.15,1.57.28,2.43.29,1.74.5,2.66.47,1.85.76,2.78c.15.47.3.94.47,1.41s.34.93.52,1.39c.36.93.76,1.83,1.17,2.71s.85,1.73,1.3,2.54c.88,1.62,1.79,3.07,2.61,4.28s1.57,2.18,2.1,2.85.87,1,.87,1Z"/><path class="cls-3" d="M184.54,78.27,184.3,78c-.16-.16-.39-.4-.68-.72s-.64-.72-1-1.17-.83-1-1.28-1.58l-.71-.93c-.24-.32-.48-.66-.73-1-.51-.69-1-1.47-1.51-2.25s-1-1.63-1.48-2.51-1-1.75-1.38-2.68c-.22-.46-.44-.92-.65-1.38s-.39-.94-.58-1.4-.38-.93-.55-1.39-.31-.94-.46-1.39-.31-.91-.44-1.36-.23-.89-.34-1.32-.22-.85-.33-1.25-.15-.81-.23-1.2c-.13-.76-.27-1.47-.37-2.1s-.12-1.18-.16-1.64c-.09-.91-.14-1.44-.14-1.44s0,.53.08,1.45l.11,1.66c.07.63.18,1.34.29,2.12.06.39.1.8.19,1.21s.18.84.27,1.28l.3,1.35c.11.46.26.91.39,1.38s.27,1,.41,1.43.34,1,.51,1.43.33,1,.52,1.45.41,1,.61,1.42c.38,1,.86,1.87,1.3,2.79s.94,1.77,1.4,2.61,1,1.63,1.45,2.36l.7,1.07.69,1c.43.63.87,1.18,1.24,1.67s.72.91,1,1.25l.68.79.25.27Z"/><path class="cls-3" d="M191.27,64.6s-.39-.4-1.05-1.16-1.59-1.86-2.64-3.25a61.33,61.33,0,0,1-6.62-11c-.5-1.07-1-2.16-1.37-3.26s-.8-2.18-1.13-3.26c-.16-.53-.3-1.07-.45-1.59s-.26-1-.38-1.54c-.22-1-.42-2-.55-2.87s-.22-1.73-.31-2.47-.11-1.38-.13-1.92c0-1.07,0-1.68,0-1.68s0,.61,0,1.69c0,.53,0,1.18.07,1.93s.11,1.58.24,2.49.27,1.88.45,2.91c.11.51.21,1,.34,1.57s.25,1.08.4,1.63c.3,1.09.64,2.21,1,3.33s.81,2.25,1.28,3.35a62.21,62.21,0,0,0,6.34,11.43c1,1.46,1.92,2.62,2.58,3.42s1.05,1.25,1.05,1.25Z"/><path class="cls-3" d="M197.08,52.84s-.29-.4-.78-1.15-1.18-1.82-2-3.14a80.55,80.55,0,0,1-5.09-10.13c-.4-1-.77-1.93-1.12-2.9s-.65-1.93-.92-2.87-.52-1.87-.71-2.75-.36-1.73-.49-2.51c0-.39-.11-.77-.16-1.13s-.07-.7-.1-1c-.08-.65-.07-1.22-.11-1.68s0-.84,0-1.09v-.38s0,.13,0,.38,0,.62,0,1.09,0,1,0,1.69c0,.33,0,.67.07,1s.08.74.12,1.14c.1.79.22,1.65.39,2.55s.37,1.84.61,2.8.53,1.95.83,2.95.65,2,1,3a81.84,81.84,0,0,0,4.75,10.47c.75,1.37,1.4,2.49,1.87,3.27s.76,1.22.76,1.22Z"/><path class="cls-3" d="M179.8,92.21s.45.11,1.22.25,1.89.3,3.23.41a41.19,41.19,0,0,0,4.59.14c.84,0,1.71-.08,2.6-.16s1.77-.21,2.67-.37,1.77-.35,2.64-.59,1.7-.51,2.51-.8,1.56-.64,2.27-1c.36-.16.7-.36,1-.54s.64-.36.93-.54c.6-.35,1.12-.73,1.58-1s.85-.65,1.16-.9l1-.85-1,.8c-.32.24-.72.53-1.19.85s-1,.65-1.61,1c-.29.16-.61.34-.94.49s-.67.34-1,.48c-.72.31-1.48.6-2.28.86a24.08,24.08,0,0,1-2.5.67c-.85.2-1.73.34-2.61.46s-1.76.19-2.62.24-1.72.06-2.54,0a38.13,38.13,0,0,1-4.48-.34c-1.3-.17-2.37-.39-3.11-.55s-1.14-.29-1.14-.29Z"/><path class="cls-3" d="M186.15,78.11s.48.13,1.28.29a34,34,0,0,0,3.36.52,42,42,0,0,0,10.3-.09c.93-.13,1.86-.3,2.77-.49l1.35-.32,1.31-.37,1.25-.41L209,76.8c.76-.31,1.48-.61,2.12-.93s1.23-.64,1.75-.91.94-.56,1.3-.79l1.11-.74-1.14.69c-.36.21-.81.45-1.32.73s-1.11.56-1.77.83-1.37.56-2.13.83l-1.19.38-1.25.35-1.3.3-1.34.26c-.9.15-1.82.28-2.74.36A41.64,41.64,0,0,1,191,77.8c-1.35-.22-2.46-.46-3.23-.66s-1.19-.33-1.19-.33Z"/><path class="cls-4" d="M158,64.6c7.53.25,12.5,7.87,14.53,14.82A46.5,46.5,0,0,1,174,86.16c.85,6.36-.46,13.68-4.46,18.69a.47.47,0,0,1-.26.15L153,65.75A10.67,10.67,0,0,1,158,64.6Z"/><path class="cls-5" d="M154.74,97.72c-3-3.65-6-7.67-7.68-12.3-1.91-5.34-1.81-12.35,2.24-16.86A12.47,12.47,0,0,1,153,65.75L169.32,105a5.23,5.23,0,0,1-1.24,0C162.77,105.05,158.07,101.75,154.74,97.72Z"/><path class="cls-3" d="M170,104.34s-11.33-25.61-14.72-33c0,0,9.72,24.64,13.28,33.77C168.54,105.12,169.6,105.88,170,104.34Z"/><path class="cls-3" d="M167.07,100.75l-.51.06c-.33,0-.8.06-1.36.06a16.57,16.57,0,0,1-1.92-.08c-.35,0-.71-.08-1.07-.13s-.73-.13-1.1-.22l-.54-.14c-.18,0-.36-.1-.53-.15-.35-.11-.69-.24-1-.38s-.63-.28-.92-.42-.55-.31-.78-.46-.45-.31-.64-.44l-.47-.37-.39-.36s.13.14.37.37l.46.4c.18.14.38.31.62.47s.5.33.78.5.58.32.91.47.66.3,1,.43l.53.18.55.16a10.38,10.38,0,0,0,1.1.27c.36.08.73.14,1.08.19a18.63,18.63,0,0,0,2,.17c.57,0,1,0,1.39,0l.53,0Z"/><path class="cls-3" d="M164.83,95.07l-.14,0-.39.05-.62.06-.8,0h-.95c-.34,0-.69,0-1.06,0s-.74-.06-1.12-.12-.77-.1-1.15-.19l-.58-.12c-.19,0-.37-.1-.56-.15l-.55-.15-.53-.18c-.17-.07-.35-.12-.51-.18s-.32-.14-.48-.21l-.45-.2c-.14-.06-.27-.14-.4-.21l-.71-.39-.52-.34-.46-.3.44.32.51.37.7.41c.13.08.26.17.4.24l.44.21.47.23c.17.08.34.14.51.21l.53.21.55.18L158,95l.57.15c.39.1.78.16,1.16.24s.77.12,1.14.17.73.08,1.07.09l.5,0h1.29l.63,0,.41,0,.15,0Z"/><path class="cls-3" d="M162.68,89.54l-.61.07c-.4,0-1,.07-1.66.08a21.94,21.94,0,0,1-5-.47c-.44-.09-.88-.21-1.31-.33s-.85-.27-1.25-.42l-.58-.24-.55-.24c-.36-.18-.69-.34-1-.52s-.56-.34-.8-.49l-.59-.42-.5-.4.48.42.58.44c.23.16.49.35.79.53s.61.36,1,.55l.55.27.58.26c.4.17.81.32,1.24.47s.87.27,1.32.38a22.79,22.79,0,0,0,5,.67c.7,0,1.28,0,1.69,0s.64-.05.64-.05Z"/><path class="cls-3" d="M160.84,84.77l-.54,0c-.35,0-.85-.06-1.44-.12a28.31,28.31,0,0,1-4.31-.76l-1.14-.33q-.56-.18-1.08-.39c-.35-.14-.68-.28-1-.43s-.6-.3-.86-.45l-.37-.22-.32-.21c-.21-.13-.37-.27-.52-.37l-.32-.26-.11-.1.11.1.31.28c.14.1.3.25.5.39l.32.23.36.24c.26.16.54.32.85.48s.63.33,1,.48.71.3,1.08.44.75.26,1.14.38a28.34,28.34,0,0,0,4.31,1c.6.08,1.1.14,1.46.17l.55,0Z"/><path class="cls-3" d="M158.79,79.64s-.67-.12-1.66-.36l-.79-.21-.89-.24-.93-.28-1-.32-1-.35c-.31-.12-.62-.24-.91-.37l-.84-.37-.73-.37-.61-.34c-.19-.1-.33-.21-.46-.29l-.39-.26s.13.11.38.28.26.2.44.31l.6.37.72.41.82.42.9.42c.31.13.62.27.94.39s.64.26.95.37l.93.33c.31.11.6.21.88.29s.55.17.79.25c1,.29,1.65.45,1.65.45Z"/><path class="cls-3" d="M156.61,74.14s-.44-.15-1.1-.4l-1.12-.44c-.41-.17-.84-.35-1.26-.55l-.64-.3-.6-.3-.56-.3-.5-.29-.41-.25-.31-.2-.27-.18.26.18.31.22.41.26.49.29c.17.11.36.21.55.32l.6.32.63.31c.42.21.85.41,1.25.59l1.11.47,1.1.42Z"/><path class="cls-3" d="M167.59,100s.16-.12.41-.34.59-.56,1-1a19,19,0,0,0,1.28-1.49c.22-.28.44-.59.66-.9s.42-.64.61-1,.38-.68.54-1,.31-.69.44-1,.24-.67.33-1a4.77,4.77,0,0,0,.13-.47,3.82,3.82,0,0,0,.09-.44c.06-.28.09-.54.12-.78s0-.43,0-.6c0-.33,0-.52,0-.52l0,.52c0,.17,0,.37-.07.6s-.08.49-.16.77a3.89,3.89,0,0,1-.11.43,4.75,4.75,0,0,1-.14.46q-.15.47-.36,1t-.48,1c-.17.33-.37.66-.57,1s-.42.63-.64.92-.45.59-.68.85a18.55,18.55,0,0,1-1.3,1.4c-.4.39-.75.69-1,.9s-.39.31-.39.31Z"/><path class="cls-3" d="M165.22,94.5s.17-.12.43-.35.63-.56,1.06-1a20.35,20.35,0,0,0,2.74-3.44c.22-.34.42-.69.61-1,.1-.17.18-.35.27-.52l.25-.52.22-.52.19-.5c.11-.32.22-.63.3-.93s.15-.56.21-.79.09-.45.12-.63l.08-.54s0,.2-.1.54l-.15.62c-.07.23-.13.5-.23.78s-.21.59-.34.91l-.21.49-.23.49-.27.51c-.09.16-.18.34-.28.5-.2.34-.41.68-.64,1a19.82,19.82,0,0,1-2.82,3.25c-.43.4-.8.71-1.07.92s-.41.31-.41.31Z"/><path class="cls-3" d="M162.9,89.13s.19-.15.49-.42.72-.66,1.21-1.16,1-1.1,1.57-1.78c.27-.34.54-.7.81-1.07s.52-.76.77-1.16c.12-.2.24-.4.35-.61s.23-.4.34-.61c.21-.4.4-.82.58-1.22s.32-.8.45-1.18c.07-.19.11-.38.17-.56s.1-.36.14-.53c.1-.34.15-.66.21-.94s.08-.52.11-.73c0-.4.06-.63.06-.63s0,.23-.09.63c0,.2-.07.45-.13.72s-.13.59-.23.93c-.05.16-.1.34-.16.52s-.12.36-.19.55c-.14.37-.3.76-.49,1.15s-.39.79-.61,1.19c-.11.2-.23.39-.35.59s-.24.39-.37.58c-.25.38-.52.76-.79,1.12s-.56.7-.84,1c-.55.65-1.11,1.22-1.6,1.7s-.91.83-1.22,1.08-.47.38-.47.38Z"/><path class="cls-3" d="M161,84.45s.14-.15.36-.42.55-.66.92-1.15a29.49,29.49,0,0,0,2.44-3.73c.2-.35.38-.72.56-1.08l.24-.54c.08-.18.16-.36.23-.54.14-.35.27-.7.38-1s.19-.65.27-.95.06-.29.1-.43,0-.26.07-.38.06-.46.08-.64,0-.31,0-.41v0c0,.1,0,.23,0,.41s-.05.39-.11.63-.05.25-.09.38l-.11.42c-.08.29-.18.61-.3.93s-.26.66-.42,1c-.07.17-.16.34-.24.52L165,78c-.18.34-.38.7-.58,1a30.57,30.57,0,0,1-2.55,3.58c-.38.46-.71.83-.94,1.08l-.37.4Z"/><path class="cls-3" d="M158.9,79.36s.37-.59.87-1.49l.4-.73c.14-.26.28-.54.43-.83s.29-.58.44-.89.28-.62.43-.93.27-.64.4-.95l.35-.93c.11-.31.22-.6.3-.88s.17-.55.24-.8l.17-.69c0-.2.07-.38.1-.53s.09-.46.09-.46l-.11.46a3.92,3.92,0,0,1-.13.52c0,.2-.12.43-.19.68s-.18.5-.28.78-.22.56-.33.86l-.4.91c-.14.3-.29.61-.44.91s-.3.62-.47.91-.31.59-.47.86-.31.55-.46.8l-.43.7c-.54.87-.92,1.42-.92,1.42Z"/><path class="cls-3" d="M156.33,73.78s.21-.42.5-1.07l.47-1.12c.16-.41.33-.85.49-1.3.08-.22.16-.44.23-.66s.15-.44.21-.66.13-.41.18-.61.1-.38.15-.55l.11-.47c0-.14.05-.27.07-.37l.06-.32s0,.12-.07.32,0,.22-.08.36l-.12.47c0,.17-.1.35-.16.55s-.12.4-.19.61-.15.42-.22.64-.16.44-.25.66c-.17.44-.34.88-.52,1.28s-.34.79-.49,1.11c-.3.64-.52,1-.52,1Z"/><path class="cls-4" d="M222.16,103c-3.26-9.6-14-12.74-22.85-12.39a50.47,50.47,0,0,0-8.36,1c-7.67,1.62-15.6,6.45-19.81,13.76a.7.7,0,0,0-.07.4l51.73,4.19A16.06,16.06,0,0,0,222.16,103Z"/><path class="cls-5" d="M185.23,121.42c5.41,2.34,11.23,4.5,17.23,4.64,6.91.16,15-3,18.57-10.12a17.93,17.93,0,0,0,1.77-6l-51.73-4.19a8.57,8.57,0,0,0,.46,1.61C173.59,114.2,179.26,118.85,185.23,121.42Z"/><path class="cls-3" d="M171.58,104.6s34,3.64,43.88,4.85c0,0-32.27-2-44.22-2.66C171.24,106.79,169.94,105.75,171.58,104.6Z"/><path class="cls-3" d="M176.87,106.82s0,.24.13.68.24,1,.46,1.78.5,1.57.85,2.44c.17.44.37.88.58,1.33s.44.88.68,1.32c.12.21.24.43.37.64l.4.62c.26.4.54.79.82,1.15s.58.69.86,1,.57.58.84.82.53.45.76.63.44.33.62.45l.56.35-.58-.33-.64-.41c-.23-.18-.51-.36-.78-.6s-.58-.5-.88-.79-.61-.62-.91-1-.6-.72-.89-1.12c-.14-.2-.29-.4-.42-.61s-.28-.42-.41-.63c-.26-.43-.51-.87-.74-1.31s-.45-.88-.64-1.31a26.16,26.16,0,0,1-1-2.44c-.25-.73-.42-1.36-.54-1.8s-.17-.71-.17-.71Z"/><path class="cls-3" d="M184.3,107.27l0,.19.09.53.18.82c.08.31.16.67.27,1,0,.19.11.39.17.6s.13.41.2.63c.13.43.3.88.47,1.34s.36.94.57,1.41.43,1,.68,1.4l.36.69c.13.23.27.44.4.66l.39.65.42.6.41.58.43.52.4.5c.13.16.28.29.41.43l.72.75.61.53.52.45-.54-.43-.63-.5c-.23-.2-.48-.45-.75-.71s-.29-.27-.43-.42l-.43-.48q-.21-.25-.45-.51l-.43-.57-.45-.58-.42-.64c-.14-.21-.29-.42-.43-.65l-.39-.68c-.28-.44-.5-.93-.74-1.39s-.44-.94-.64-1.39-.38-.91-.53-1.34c-.08-.22-.15-.43-.23-.64s-.13-.4-.19-.6c-.13-.38-.22-.74-.32-1.06s-.16-.59-.21-.83-.1-.42-.12-.55l0-.19Z"/><path class="cls-3" d="M177.5,105.83s.08-.25.24-.67.4-1,.73-1.69.73-1.47,1.21-2.28q.36-.61.78-1.23c.28-.41.57-.82.88-1.21s.63-.78,1-1.13.67-.7,1-1a10.93,10.93,0,0,1,1-.85,5.1,5.1,0,0,1,.49-.36,5.41,5.41,0,0,1,.47-.31c.3-.2.6-.35.85-.5l.68-.32.6-.24-.59.27-.67.35c-.24.16-.53.32-.82.53l-.46.33-.47.37c-.32.27-.64.57-1,.89s-.64.67-.95,1-.61.75-.9,1.15-.56.81-.82,1.22-.5.83-.72,1.24c-.44.81-.8,1.6-1.1,2.28s-.5,1.27-.64,1.67-.2.64-.2.64Z"/><path class="cls-3" d="M184.8,106.52s.08-.26.24-.7.4-1.06.72-1.78a27.9,27.9,0,0,1,2.89-5c.3-.42.63-.83.95-1.23l.5-.57.51-.54.5-.5.5-.46c.33-.29.65-.56,1-.79s.59-.43.84-.61l.67-.42.59-.35-.58.37-.65.45c-.25.2-.53.39-.82.65s-.6.52-.92.82l-.47.47-.48.52-.48.56c-.16.19-.32.38-.47.58-.31.4-.62.82-.9,1.25a27.05,27.05,0,0,0-2.64,5c-.29.73-.5,1.34-.64,1.77s-.2.67-.2.67Z"/><path class="cls-4" d="M135.86,119.92c4.67,5.79,12.87,5.24,18.86,2.76a37.94,37.94,0,0,0,5.5-2.8c4.87-3.06,9.11-8.39,10.16-14.48a.56.56,0,0,0,0-.3l-36.68,10.2A11.87,11.87,0,0,0,135.86,119.92Z"/><path class="cls-5" d="M156.62,97.89c-4.32-.24-8.87-.26-13,1.16-4.79,1.64-9.55,5.83-10.22,11.66a13.17,13.17,0,0,0,.29,4.59l36.68-10.2a5.78,5.78,0,0,0-.73-1C166.45,99.91,161.38,98.15,156.62,97.89Z"/><path class="cls-3" d="M170.27,106s-24.35,6.1-31.44,7.76c0,0,22.72-6.8,31.11-9.34C169.94,104.43,171.1,104.81,170.27,106Z"/><path class="cls-3" d="M166.06,105.83s-.08-.16-.26-.44-.43-.66-.77-1.11a18.64,18.64,0,0,0-1.2-1.46c-.23-.26-.48-.51-.73-.77l-.8-.74-.42-.34c-.14-.12-.29-.22-.43-.33s-.58-.4-.86-.58a8.08,8.08,0,0,0-.85-.47q-.41-.21-.78-.36c-.25-.1-.48-.17-.68-.24l-.54-.15-.47-.1.47.08.55.12c.2.06.44.12.69.22a7.12,7.12,0,0,1,.81.32c.28.12.57.27.87.43s.59.35.89.55l.45.31.43.34c.3.22.57.46.85.71s.53.49.77.74a19.06,19.06,0,0,1,1.28,1.44c.36.44.64.82.83,1.1s.29.44.29.44Z"/><path class="cls-3" d="M160.83,107.39l-.06-.12-.2-.34-.33-.52c-.14-.19-.28-.42-.45-.65l-.27-.37-.3-.39c-.2-.26-.43-.52-.66-.8s-.49-.55-.75-.82-.53-.55-.82-.8l-.43-.38c-.14-.13-.29-.24-.43-.36l-.44-.34-.44-.31-.43-.3-.43-.25-.4-.24-.39-.19-.69-.34-.55-.21-.47-.18.48.16.56.19.7.3.4.18.41.22.44.24.44.28.46.29.45.33.46.34c.15.12.3.24.44.37.31.24.58.51.86.77s.54.53.8.79.49.53.7.8l.32.37.28.37c.19.23.34.45.49.65s.26.37.35.52l.23.34.07.13Z"/><path class="cls-3" d="M155.75,109l-.32-.53c-.21-.33-.53-.81-.93-1.35a23.71,23.71,0,0,0-3.3-3.64c-.33-.3-.67-.58-1-.85s-.69-.51-1-.73l-.51-.33-.5-.28c-.33-.18-.64-.34-.94-.48s-.57-.24-.81-.34l-.64-.22-.57-.16.57.14.65.2c.25.09.53.18.83.31s.62.27,1,.44q.26.12.51.27l.53.3c.35.22.71.45,1.06.71s.71.52,1.05.81a23.8,23.8,0,0,1,3.46,3.57c.43.53.76,1,1,1.34s.35.54.35.54Z"/><path class="cls-3" d="M151.38,110.3l-.34-.42c-.22-.26-.54-.63-.94-1.07a30,30,0,0,0-3.1-2.94c-.3-.25-.6-.48-.91-.71s-.61-.43-.91-.62-.6-.37-.89-.53-.56-.29-.82-.41l-.37-.16-.34-.13c-.21-.09-.41-.14-.56-.19l-.37-.1-.13,0,.13,0,.37.09a5.2,5.2,0,0,1,.57.16l.35.12.38.14.84.38c.29.15.6.31.91.49s.63.39.94.6.64.43.95.67a29.2,29.2,0,0,1,3.23,2.84c.42.42.76.78,1,1l.36.41Z"/><path class="cls-3" d="M146.63,111.69s-.48-.45-1.24-1.09l-.61-.51-.7-.55-.75-.58-.8-.57-.8-.54c-.27-.17-.54-.35-.8-.5l-.76-.44-.69-.37-.6-.28a4.63,4.63,0,0,0-.47-.19l-.41-.16.42.14c.13,0,.29.09.47.17l.61.25.72.33.78.4c.27.14.54.3.82.46l.83.51c.28.18.56.35.82.53l.79.54.72.52.64.48c.79.6,1.3,1,1.3,1Z"/><path class="cls-3" d="M141.55,113.2s-.36-.26-.93-.63l-1-.63c-.36-.22-.74-.45-1.13-.67l-.59-.32c-.19-.1-.38-.21-.57-.3s-.36-.19-.54-.27l-.49-.22-.42-.18-.32-.12-.29-.11.29.1.33.12.42.16.5.22.54.25.58.28.59.31,1.15.65c.37.21.7.42,1,.6.57.36.95.62.95.62Z"/><path class="cls-3" d="M165.88,106.67s0,.19,0,.52,0,.79-.07,1.34-.13,1.2-.26,1.88c-.06.35-.14.69-.23,1a10.34,10.34,0,0,1-.3,1.05c-.11.35-.23.69-.37,1s-.29.65-.44.95-.32.58-.48.84-.17.25-.25.37-.17.23-.25.33-.32.39-.46.56l-.38.39-.36.32s.13-.12.34-.34.23-.25.37-.41.29-.35.44-.57l.23-.34.23-.38c.15-.26.3-.55.44-.85s.27-.63.39-1,.23-.67.33-1,.18-.7.26-1.05.13-.69.18-1a16.94,16.94,0,0,0,.17-1.85c0-.54,0-1,0-1.31a4.68,4.68,0,0,0,0-.49Z"/><path class="cls-3" d="M160.68,108s0,.2,0,.54,0,.83-.05,1.41a19.75,19.75,0,0,1-.71,4.18c-.11.37-.23.74-.35,1.09-.06.18-.13.35-.2.52l-.21.5-.22.48-.23.44a8,8,0,0,1-.46.78c-.14.24-.29.44-.42.63s-.25.34-.35.46l-.33.39.31-.4c.1-.13.21-.29.34-.48s.26-.4.39-.64.28-.51.43-.8a4.54,4.54,0,0,1,.21-.45c.06-.16.13-.32.2-.48l.19-.5c.05-.17.11-.35.17-.52.11-.36.22-.72.3-1.09a19.77,19.77,0,0,0,.55-4.13c0-.57,0-1,0-1.38s0-.51,0-.51Z"/><path class="cls-3" d="M155.6,109.36s0,.23,0,.63,0,1-.07,1.63-.14,1.46-.28,2.29c-.07.41-.16.83-.25,1.26s-.21.87-.34,1.29c-.07.21-.13.43-.2.64s-.15.41-.22.62a12.47,12.47,0,0,1-.5,1.17,11.43,11.43,0,0,1-.54,1c-.09.17-.19.32-.28.47a4.38,4.38,0,0,1-.28.42c-.17.27-.36.5-.52.71s-.31.37-.43.51l-.4.42.38-.43.42-.53c.15-.22.33-.45.49-.73.09-.13.18-.27.27-.43s.18-.3.26-.47c.17-.33.34-.69.5-1.06s.31-.77.45-1.18c.07-.21.14-.41.2-.62s.12-.42.17-.64c.12-.42.21-.85.3-1.28s.15-.84.2-1.26c.12-.82.18-1.59.21-2.25s0-1.21,0-1.6,0-.6,0-.6Z"/><path class="cls-3" d="M151.22,110.57s0,.2-.07.53-.13.82-.24,1.4a28.69,28.69,0,0,1-1.1,4.11c-.13.36-.27.72-.41,1.07l-.22.51c-.08.17-.15.34-.23.5-.16.32-.33.62-.49.9s-.33.54-.49.77l-.23.33-.23.28c-.14.18-.28.32-.38.44a3.37,3.37,0,0,1-.27.27l-.09.09.09-.1c.06-.06.15-.15.25-.27s.24-.27.37-.46.14-.18.21-.29l.22-.33c.15-.24.31-.51.46-.79s.3-.59.44-.92c.08-.16.14-.33.22-.5s.13-.34.2-.51c.12-.36.25-.72.36-1.08a27.81,27.81,0,0,0,.93-4.11c.09-.57.15-1,.19-1.38s0-.52,0-.52Z"/><path class="cls-3" d="M146.5,111.94s-.18.64-.5,1.56c-.08.23-.16.48-.26.74l-.31.83-.35.87c-.12.29-.26.59-.39.88s-.27.59-.41.87-.28.57-.42.83l-.43.76-.4.65-.37.54c-.11.16-.22.28-.31.39l-.27.34.26-.35c.08-.12.18-.24.28-.41s.22-.35.35-.55l.37-.68c.13-.24.25-.5.39-.77s.25-.56.39-.84l.36-.89c.12-.3.24-.6.34-.9s.22-.59.31-.88.19-.56.27-.83.16-.52.23-.75c.28-.93.42-1.56.42-1.56Z"/><path class="cls-3" d="M141.14,113.19s-.16.42-.44,1c-.14.3-.3.66-.49,1s-.38.76-.59,1.15c-.11.19-.21.39-.32.57s-.21.38-.32.55-.21.34-.32.5l-.29.44-.26.36a2.33,2.33,0,0,1-.21.27l-.18.24.18-.24c.06-.08.13-.17.2-.28l.25-.37c.09-.13.18-.28.28-.44s.2-.34.31-.51.2-.37.31-.55l.3-.58c.2-.4.4-.79.57-1.17s.33-.73.46-1c.26-.61.42-1,.42-1Z"/><path class="cls-3" d="M172.33,107.62a4.25,4.25,0,0,1,.68,1l.07-.09s.1-1.93-2.09-1.23h0l1,.1A.73.73,0,0,1,172.33,107.62Z"/></g></g></svg>