<svg id="Layer_1" data-name="Layer 1" xmlns="http://www.w3.org/2000/svg" viewBox="0 0 408 224.44"><defs><style>.cls-1{fill:#273b2a;}.cls-2{fill:#567c5c;}.cls-3{fill:#73a57a;}.cls-4{fill:#303336;}.cls-5{fill:#18191b;}.cls-6{fill:#fff;}.cls-7{fill:#ee412b;}</style></defs><title>1920x1080 UI Landing Page</title><g id="left_leaf_part"><path class="cls-1" d="M280.41,96a427.21,427.21,0,0,0-52.94,18.53c-17.24,7.24-34.08,15.35-50.68,23.76s-33,17.1-49.37,25.34-32.86,16-49.57,22.19a220.75,220.75,0,0,1-25.19,7.64c-4.22,1-8.44,1.78-12.65,2.45S31.6,197,27.41,197.2A109.81,109.81,0,0,1,0,195.41v28.46a137.9,137.9,0,0,0,29.8-.53c5-.58,10-1.52,14.88-2.54s9.68-2.34,14.38-3.81a244.87,244.87,0,0,0,27.27-10.32c17.55-7.86,34-17.1,50.08-26.57s31.77-19.25,47.6-28.65,31.78-18.47,48.16-26.69a418.55,418.55,0,0,1,50.46-21.59A308.77,308.77,0,0,1,391,85.37,312.28,312.28,0,0,0,280.41,96Z"/><path class="cls-2" d="M317.25,93.51c-.53,23.82-22.86,40.7-43.33,48.22a131.39,131.39,0,0,1-19.84,5.69c-18.72,3.69-40.33.7-55.24-11.14a1.47,1.47,0,0,1-.44-.81L313.71,77.86A34.81,34.81,0,0,1,317.25,93.51Z"/><path class="cls-3" d="M219.47,88.29C230.16,78.16,241.92,68,255.54,62.1c15.69-6.84,36.38-7.65,49.78,4.43a36.72,36.72,0,0,1,8.39,11.33L198.4,135.47a17.65,17.65,0,0,1-.1-3.92C198.07,114.81,207.68,99.45,219.47,88.29Z"/><path class="cls-1" d="M200.38,137.45s75.2-39.79,96.88-51.66c0,0-72.4,34.55-99.22,47.25C198,133,195.81,136.51,200.38,137.45Z"/><path class="cls-1" d="M210.88,127.69s-.09-.56-.18-1.59-.2-2.5-.23-4.28a59.36,59.36,0,0,1,.18-6.07c.08-1.11.22-2.25.37-3.41s.36-2.33.6-3.49c.12-.58.25-1.16.39-1.73s.3-1.15.46-1.71c.31-1.13.68-2.22,1.06-3.27s.81-2,1.24-3,.88-1.79,1.33-2.56.89-1.46,1.28-2.08.78-1.12,1.09-1.54l1-1.29L218.41,93l-1.16,1.49c-.41.61-.9,1.27-1.36,2s-1,1.62-1.45,2.53-.94,1.9-1.38,2.94-.85,2.14-1.22,3.27c-.18.56-.37,1.13-.52,1.71s-.33,1.16-.48,1.74c-.3,1.17-.54,2.35-.76,3.52s-.39,2.33-.52,3.45c-.27,2.25-.4,4.36-.44,6.18s0,3.33,0,4.39.13,1.68.13,1.68Z"/><path class="cls-1" d="M227.55,119.75l-.07-.44q-.06-.42-.15-1.23c-.07-.53-.12-1.19-.19-1.93s-.13-1.6-.15-2.53c0-.47,0-1,0-1.45v-1.55c0-1.07.07-2.19.1-3.35s.16-2.36.31-3.57.28-2.45.53-3.67c.12-.61.23-1.22.34-1.83s.28-1.2.42-1.8.28-1.19.44-1.77.35-1.14.53-1.69.33-1.11.52-1.64l.59-1.54c.2-.5.39-1,.57-1.45s.42-.9.62-1.32c.41-.84.77-1.62,1.11-2.3l1-1.7.87-1.48L234,83l-1.07,1.66c-.38.66-.77,1.43-1.22,2.26-.21.42-.46.84-.67,1.3s-.41.95-.63,1.44-.44,1-.66,1.52-.39,1.08-.59,1.64-.4,1.12-.6,1.69-.34,1.17-.52,1.76-.35,1.2-.5,1.81-.27,1.22-.41,1.84c-.3,1.22-.47,2.47-.69,3.69s-.32,2.44-.46,3.61-.21,2.32-.24,3.41c0,.54,0,1.06-.06,1.57s0,1,0,1.48c0,1,0,1.82,0,2.59s.06,1.44.11,2,.08,1,.12,1.29l.05.46Z"/><path class="cls-1" d="M243.83,112.1s-.11-.69-.23-1.95-.25-3-.29-5.2a76.11,76.11,0,0,1,1.26-15.8c.26-1.42.59-2.83.94-4.2s.77-2.72,1.2-4c.21-.64.46-1.26.68-1.88s.48-1.2.71-1.77c.5-1.14,1-2.22,1.49-3.18s1-1.83,1.43-2.6.88-1.4,1.23-1.94l1.15-1.63-1.21,1.6c-.37.51-.8,1.16-1.3,1.89s-1,1.6-1.52,2.56-1.07,2-1.61,3.15c-.25.57-.53,1.15-.78,1.76s-.51,1.23-.75,1.87c-.48,1.28-.94,2.62-1.34,4s-.79,2.79-1.1,4.22A77.18,77.18,0,0,0,242,105c0,2.2,0,4,.12,5.32s.16,2,.16,2Z"/><path class="cls-1" d="M257.85,105.53s0-.61,0-1.72.13-2.67.29-4.56a98.13,98.13,0,0,1,2.14-13.72c.28-1.23.61-2.46.94-3.66s.72-2.36,1.12-3.48.81-2.18,1.24-3.18.87-1.93,1.3-2.78l.64-1.21c.21-.37.42-.72.62-1.06.38-.67.78-1.21,1.08-1.68s.58-.8.76-1,.27-.36.27-.36l-.29.35c-.18.24-.46.57-.8,1s-.74,1-1.15,1.64c-.2.33-.44.67-.66,1l-.69,1.18c-.47.84-.95,1.75-1.42,2.74s-.93,2-1.37,3.17-.86,2.27-1.27,3.46-.76,2.42-1.1,3.65a99.26,99.26,0,0,0-2.7,13.78c-.24,1.9-.39,3.5-.48,4.61s-.11,1.77-.11,1.77Z"/><path class="cls-1" d="M272.9,98.23s.35-2.11,1-5.27c.18-.79.36-1.65.58-2.55s.44-1.85.7-2.82.52-2,.81-3,.6-2,.91-3.09.66-2,1-3.06.7-2,1.07-2.93.72-1.85,1.08-2.7l1.07-2.39,1-2c.28-.59.61-1.07.83-1.49l.75-1.28s-.3.45-.81,1.25c-.24.4-.59.87-.9,1.45l-1.08,1.94c-.37.72-.76,1.51-1.18,2.34s-.8,1.74-1.22,2.67-.8,1.91-1.21,2.9-.77,2-1.14,3-.73,2-1.06,3.06-.66,2-.95,3-.58,1.92-.84,2.82-.48,1.75-.7,2.53c-.83,3.15-1.29,5.29-1.29,5.29Z"/><path class="cls-1" d="M289.07,90.5s.42-1.42,1.14-3.54c.36-1.06.79-2.29,1.27-3.6s1-2.7,1.59-4.08c.29-.68.58-1.37.87-2s.58-1.34.88-2,.58-1.24.87-1.81.56-1.12.82-1.61.52-.94.73-1.34.43-.73.6-1l.52-.88-.54.87c-.17.28-.39.61-.62,1l-.76,1.32c-.28.49-.55,1-.86,1.59s-.59,1.18-.91,1.8-.61,1.29-.93,2l-.92,2c-.59,1.37-1.16,2.75-1.68,4s-1,2.53-1.35,3.58c-.77,2.11-1.23,3.54-1.23,3.54Z"/><path class="cls-1" d="M213,129.25s.37.46,1,1.21,1.64,1.79,2.88,3a54.36,54.36,0,0,0,4.43,3.8c.84.66,1.74,1.3,2.67,1.92s1.89,1.23,2.88,1.79,2,1.09,3,1.55,2,.88,3,1.24,2,.65,2.93.88c.47.14.94.22,1.38.32s.89.16,1.31.23c.83.14,1.61.19,2.3.26l1.78.06,1.55,0-1.55,0c-.49,0-1.09-.08-1.77-.15s-1.45-.18-2.27-.36c-.41-.08-.84-.16-1.28-.29s-.89-.21-1.35-.36c-.92-.28-1.88-.61-2.85-1s-2-.84-2.94-1.35-1.94-1.06-2.89-1.65-1.86-1.22-2.75-1.87-1.73-1.32-2.53-2a52.47,52.47,0,0,1-4.16-3.91c-1.16-1.2-2.06-2.26-2.67-3s-.93-1.18-.93-1.18Z"/><path class="cls-1" d="M229.25,120.89s.37.5,1,1.29,1.68,1.92,2.94,3.18a56.73,56.73,0,0,0,10.21,8.14c1,.63,2.05,1.21,3.08,1.76.52.27,1,.52,1.56.77l1.54.7,1.52.61,1.47.52c1,.32,1.89.6,2.75.81s1.66.37,2.36.53,1.33.22,1.84.28l1.61.18-1.6-.24c-.5-.09-1.11-.23-1.82-.37s-1.48-.35-2.32-.62-1.75-.57-2.69-.91l-1.44-.59-1.47-.66-1.5-.75c-.49-.28-1-.54-1.5-.83-1-.58-2-1.19-3-1.86a55.32,55.32,0,0,1-9.67-8.4c-1.19-1.29-2.11-2.41-2.73-3.21s-.94-1.26-.94-1.26Z"/><path class="cls-1" d="M245,112.71s.44.57,1.23,1.48,2,2.18,3.46,3.63a68.1,68.1,0,0,0,5.3,4.68c1,.82,2.08,1.61,3.18,2.4s2.27,1.53,3.45,2.24c.59.35,1.18.71,1.79,1s1.2.65,1.81,1c1.21.61,2.43,1.15,3.62,1.63s2.38.9,3.51,1.24c.56.19,1.12.31,1.65.47s1.06.26,1.57.36c1,.24,1.94.36,2.76.5s1.55.17,2.15.22l1.88.1-1.87-.16c-.6-.08-1.32-.18-2.14-.31s-1.74-.32-2.73-.59c-.49-.12-1-.25-1.53-.42s-1.08-.31-1.63-.52q-1.67-.57-3.42-1.35c-1.16-.52-2.35-1.1-3.52-1.75-.59-.32-1.17-.65-1.75-1s-1.16-.71-1.72-1.08c-1.14-.74-2.25-1.53-3.32-2.33s-2.09-1.63-3-2.47a66.2,66.2,0,0,1-5-4.79c-1.41-1.47-2.5-2.76-3.25-3.67s-1.13-1.45-1.13-1.45Z"/><path class="cls-1" d="M258.78,105.82s.45.41,1.26,1.09,2,1.62,3.4,2.71a83.55,83.55,0,0,0,11.06,7.12c1.06.56,2.14,1.08,3.21,1.58l1.6.7,1.59.63c1.05.39,2.08.74,3.06,1s1.93.52,2.81.71l1.26.23c.4.07.79.11,1.15.17.71.11,1.35.12,1.87.17s.93,0,1.21,0h.43l-.43,0c-.28,0-.69,0-1.21-.08s-1.14-.11-1.85-.25c-.36-.07-.74-.12-1.13-.21l-1.25-.28c-.86-.23-1.78-.49-2.75-.82s-2-.72-3-1.15c-.51-.21-1-.46-1.55-.69l-1.55-.76c-1-.53-2.08-1.09-3.1-1.69a81.85,81.85,0,0,1-10.62-7.48c-1.36-1.13-2.47-2.11-3.23-2.8s-1.16-1.11-1.16-1.11Z"/><path class="cls-1" d="M273.74,98.54s1.74,1.08,4.4,2.52c.68.36,1.4.76,2.18,1.15s1.59.81,2.44,1.22,1.74.83,2.65,1.25,1.84.8,2.77,1.21L291,107c.94.33,1.86.68,2.75,1s1.78.57,2.61.81l2.37.62,2,.42c.6.14,1.14.18,1.58.25l1.37.19-1.36-.26c-.43-.09-1-.15-1.56-.32l-2-.52-2.32-.74c-.81-.27-1.66-.61-2.54-.93s-1.77-.73-2.69-1.1-1.81-.82-2.72-1.25-1.81-.87-2.68-1.34-1.74-.9-2.56-1.36-1.61-.9-2.36-1.33-1.44-.85-2.09-1.24c-2.57-1.56-4.2-2.69-4.2-2.69Z"/><path class="cls-1" d="M290.11,89.57s1.27.59,3.19,1.38c1,.4,2.09.86,3.31,1.31s2.52.92,3.84,1.37l2,.62c.66.19,1.3.39,1.93.56s1.23.34,1.81.47,1.13.27,1.64.37l1.39.27c.42.08.78.12,1.08.17l1,.14-.94-.16c-.3-.06-.67-.11-1.08-.2l-1.38-.3-1.63-.41c-.57-.15-1.17-.34-1.8-.52s-1.25-.39-1.9-.6-1.3-.44-2-.67c-1.3-.47-2.59-1-3.79-1.45s-2.32-1-3.26-1.38c-1.9-.84-3.14-1.45-3.14-1.45Z"/><path class="cls-2" d="M114.73,15.36c-14.68,21.46-6.25,52.47,6.52,73.84a158.77,158.77,0,0,0,13.4,19.3c13.7,16.73,34.13,29.62,54.42,29.85a1.44,1.44,0,0,0,.9-.4L127.7,4.05A35.14,35.14,0,0,0,114.73,15.36Z"/><path class="cls-3" d="M201.86,81c-2.74-16.65-6.39-34.07-14.29-49.12C178.46,14.58,161.23-1,142.08.05a36,36,0,0,0-14.38,4L190,138a18.58,18.58,0,0,0,2.57-3.39C203.37,119.9,204.88,99.39,201.86,81Z"/><path class="cls-1" d="M187,138.29S147.81,49,136.76,22.9c0,0,40.13,82.64,55.06,113.16C191.82,136.06,191.52,140.73,187,138.29Z"/><path class="cls-1" d="M184.2,122.09s.43-.43,1.17-1.27,1.76-2.07,2.92-3.63a65.28,65.28,0,0,0,3.69-5.5c.64-1,1.25-2.15,1.85-3.29s1.18-2.32,1.7-3.52c.27-.6.53-1.21.77-1.82s.47-1.22.69-1.84c.45-1.22.83-2.45,1.17-3.66s.6-2.38.81-3.52.39-2.21.49-3.22.17-1.94.23-2.76,0-1.55,0-2.15c0-1.19,0-1.87,0-1.87s0,.68.13,1.87c0,.6,0,1.33,0,2.16s0,1.77-.12,2.79-.2,2.12-.37,3.28-.4,2.36-.68,3.6-.63,2.5-1,3.76c-.2.63-.4,1.27-.63,1.9s-.46,1.26-.71,1.88c-.48,1.25-1,2.47-1.58,3.66s-1.14,2.34-1.75,3.43a67.41,67.41,0,0,1-3.54,5.79c-1.11,1.64-2.11,3-2.83,3.85s-1.18,1.4-1.18,1.4Z"/><path class="cls-1" d="M175,103.07l.33-.33c.22-.22.53-.55.92-1s.86-1,1.39-1.58,1.12-1.32,1.73-2.13l1-1.25c.31-.45.64-.9,1-1.38.69-.93,1.33-2,2-3s1.36-2.21,2-3.39,1.31-2.37,1.86-3.63c.3-.62.59-1.24.88-1.86s.52-1.27.78-1.9.51-1.25.75-1.88.42-1.26.62-1.88.42-1.22.6-1.82.31-1.21.46-1.79.29-1.15.43-1.7.21-1.09.31-1.61c.19-1,.37-2,.51-2.84s.15-1.6.22-2.22l.19-1.94s-.05.71-.12,1.95c0,.62-.08,1.38-.14,2.24s-.25,1.82-.39,2.87c-.09.53-.14,1.09-.26,1.64s-.24,1.14-.37,1.73-.26,1.2-.4,1.83-.35,1.23-.53,1.86-.37,1.28-.56,1.93-.45,1.28-.68,1.94-.45,1.31-.71,2L188,85.8c-.51,1.3-1.16,2.53-1.75,3.76s-1.28,2.39-1.9,3.53-1.29,2.21-2,3.19c-.32.49-.64,1-.94,1.44L180.47,99c-.59.85-1.18,1.59-1.68,2.26s-1,1.23-1.37,1.69-.7.82-.92,1.06l-.33.36Z"/><path class="cls-1" d="M165.86,84.6s.53-.53,1.43-1.56,2.15-2.51,3.56-4.4a83,83,0,0,0,9-14.89c.68-1.44,1.29-2.93,1.86-4.4s1.07-3,1.52-4.41c.22-.72.41-1.45.61-2.15s.34-1.41.51-2.08c.3-1.37.57-2.67.74-3.89s.3-2.33.43-3.33.14-1.87.17-2.59c0-1.45.06-2.27.06-2.27s0,.82,0,2.27c0,.73-.06,1.61-.1,2.61s-.14,2.14-.32,3.37-.36,2.55-.61,3.94c-.15.68-.28,1.4-.45,2.12s-.35,1.45-.55,2.19c-.4,1.48-.86,3-1.38,4.51s-1.1,3-1.74,4.53A84.89,84.89,0,0,1,172,79.62c-1.37,2-2.59,3.54-3.48,4.62s-1.43,1.68-1.43,1.68Z"/><path class="cls-1" d="M158,68.71s.39-.55,1.06-1.55,1.59-2.46,2.65-4.25a107.81,107.81,0,0,0,6.88-13.69c.54-1.29,1-2.61,1.5-3.91s.89-2.61,1.26-3.89.69-2.52,1-3.71.48-2.34.65-3.39c.08-.54.15-1,.22-1.53s.09-.95.14-1.39c.1-.87.1-1.64.14-2.27s0-1.13,0-1.46v-.52s0,.18,0,.52,0,.83.05,1.47,0,1.4-.06,2.28c0,.44-.05.91-.1,1.4s-.1,1-.15,1.55c-.14,1.07-.3,2.23-.53,3.45s-.51,2.48-.83,3.78-.71,2.64-1.12,4-.88,2.69-1.37,4A112.2,112.2,0,0,1,163,63.75c-1,1.85-1.89,3.37-2.53,4.42s-1,1.65-1,1.65Z"/><path class="cls-1" d="M149.74,51.42s1-2.12,2.47-5.41c.34-.83.74-1.71,1.12-2.67s.79-2,1.19-3,.82-2.14,1.22-3.25.78-2.25,1.18-3.38.73-2.3,1.09-3.43.66-2.26,1-3.36.56-2.16.78-3.18.42-2,.61-2.88.28-1.73.4-2.46.17-1.38.24-1.91c.11-1.07.17-1.68.17-1.68s0,.61-.1,1.69c-.05.53-.05,1.19-.15,1.93l-.3,2.49-.48,2.93c-.18,1-.42,2.11-.65,3.24s-.53,2.26-.8,3.43-.62,2.33-1,3.51-.67,2.33-1,3.47-.71,2.26-1.08,3.33-.72,2.11-1.07,3.09-.7,1.9-1,2.75c-1.28,3.39-2.25,5.61-2.25,5.61Z"/><path class="cls-1" d="M140.79,33s.54-1.56,1.27-4c.37-1.2.78-2.59,1.2-4.1s.83-3.13,1.22-4.75c.19-.82.38-1.64.56-2.44s.35-1.6.49-2.37.3-1.52.41-2.24.23-1.39.31-2,.16-1.2.23-1.71.09-1,.13-1.33l.11-1.16-.08,1.16c0,.37,0,.82-.11,1.34s-.12,1.09-.19,1.72-.18,1.3-.27,2-.24,1.47-.36,2.25-.3,1.58-.44,2.39-.34,1.64-.51,2.46c-.36,1.64-.74,3.27-1.13,4.8s-.77,2.93-1.11,4.14c-.68,2.42-1.2,4-1.2,4Z"/><path class="cls-1" d="M181.37,121.92s-.61.15-1.65.33-2.55.41-4.36.56a55,55,0,0,1-6.21.18c-1.14,0-2.31-.1-3.51-.21s-2.4-.28-3.61-.5-2.4-.47-3.56-.8a35.51,35.51,0,0,1-3.4-1.08c-1.08-.41-2.11-.86-3.07-1.33-.49-.21-.94-.48-1.39-.72s-.86-.48-1.26-.73c-.81-.47-1.51-1-2.14-1.42s-1.14-.87-1.57-1.22l-1.3-1.15,1.35,1.09c.44.32,1,.71,1.6,1.14s1.36.88,2.18,1.31c.4.23.82.46,1.28.67s.9.45,1.39.65c1,.42,2,.81,3.08,1.16a34.62,34.62,0,0,0,3.37.91c1.16.27,2.34.46,3.53.62s2.38.26,3.55.32,2.32.08,3.43,0a54.22,54.22,0,0,0,6.05-.47c1.76-.23,3.2-.52,4.2-.74s1.55-.39,1.55-.39Z"/><path class="cls-1" d="M172.78,102.87s-.64.17-1.72.39-2.65.49-4.54.7a56.7,56.7,0,0,1-13.92-.13c-1.26-.17-2.52-.4-3.75-.66-.62-.13-1.22-.29-1.82-.43l-1.77-.5-1.69-.55-1.6-.59c-1-.42-2-.83-2.87-1.27s-1.65-.86-2.35-1.23-1.28-.76-1.76-1.06l-1.5-1,1.53.94c.49.28,1.1.6,1.79,1s1.5.76,2.39,1.12,1.85.76,2.89,1.13l1.6.52,1.69.46,1.75.42c.6.11,1.2.24,1.81.34,1.22.2,2.47.38,3.71.48a55.46,55.46,0,0,0,13.63-.48c1.83-.29,3.34-.63,4.38-.89s1.6-.44,1.6-.44Z"/><path class="cls-1" d="M164.44,84.27s-.74.19-2,.42-3.08.52-5.27.73a68.21,68.21,0,0,1-7.51.34c-1.38,0-2.81-.07-4.25-.17s-2.92-.27-4.38-.49c-.74-.11-1.47-.23-2.19-.38s-1.45-.28-2.16-.45c-1.42-.33-2.81-.73-4.15-1.16s-2.6-.91-3.79-1.42c-.6-.23-1.16-.53-1.71-.78s-1.07-.53-1.57-.8c-1-.51-1.89-1.08-2.69-1.55s-1.44-1-2-1.34L119.12,76l1.7,1.2c.56.36,1.24.79,2,1.27s1.69,1,2.71,1.44c.51.24,1,.5,1.59.73s1.12.5,1.72.71c1.19.45,2.46.88,3.79,1.26s2.71.72,4.13,1c.7.14,1.42.27,2.14.37s1.44.2,2.16.28c1.45.17,2.9.26,4.32.32s2.83.06,4.18,0A70.56,70.56,0,0,0,157,83.9c2.14-.3,3.9-.65,5.12-.92S164,82.5,164,82.5Z"/><path class="cls-1" d="M157,68.29s-.66,0-1.77.06-2.72,0-4.64,0a83.61,83.61,0,0,1-14-1.66c-1.26-.26-2.52-.57-3.75-.9l-1.82-.53-1.76-.58c-1.15-.41-2.25-.84-3.28-1.3s-2-.93-2.85-1.38l-1.24-.7c-.38-.23-.74-.47-1.08-.69-.69-.41-1.24-.86-1.72-1.19s-.81-.65-1.05-.84l-.37-.3.38.28c.25.19.61.47,1.08.8s1,.73,1.75,1.11c.35.2.71.42,1.11.63l1.24.64c.88.42,1.84.85,2.88,1.25s2.14.78,3.29,1.13c.57.18,1.16.34,1.76.5L133,65c1.23.27,2.48.52,3.73.73a83.56,83.56,0,0,0,13.85,1c1.89,0,3.46-.09,4.55-.16s1.7-.14,1.7-.14Z"/><path class="cls-1" d="M148.83,51.1s-2.17-.3-5.38-.94c-.8-.17-1.67-.34-2.58-.55s-1.89-.42-2.88-.68-2-.51-3.06-.8-2.09-.61-3.14-.91-2.09-.69-3.11-1-2-.73-3-1.11-1.88-.77-2.75-1.16l-2.42-1.15-2-1.08c-.6-.3-1.08-.66-1.5-.91l-1.3-.82,1.33.75c.43.23.92.56,1.54.83l2,1,2.45,1c.88.34,1.82.66,2.78,1s2,.62,3,.94,2.07.59,3.12.86,2.1.53,3.15.74,2.06.45,3.06.63,1.95.37,2.86.52,1.78.28,2.58.41c3.2.47,5.32.65,5.32.65Z"/><path class="cls-1" d="M140.49,31.38S139,31,136.88,30.31c-1.08-.34-2.33-.74-3.67-1.22s-2.75-1-4.16-1.55c-.7-.29-1.4-.57-2.08-.87s-1.36-.58-2-.89-1.27-.58-1.85-.89-1.14-.57-1.64-.84l-1.37-.77c-.41-.22-.75-.45-1-.62l-.9-.55.91.53c.29.16.63.38,1,.59l1.38.73c.51.26,1.07.52,1.66.8s1.22.55,1.86.84,1.34.56,2,.84,1.4.54,2.1.81c1.42.52,2.83,1,4.17,1.45s2.6.81,3.68,1.12c2.16.62,3.61,1,3.61,1Z"/><path class="cls-2" d="M210.78,84.6c-10.18.33-16.89,10.63-19.64,20a62.1,62.1,0,0,0-2,9.11c-1.15,8.58.62,18.47,6,25.25a.6.6,0,0,0,.36.2l22-53A14.46,14.46,0,0,0,210.78,84.6Z"/><path class="cls-3" d="M215.24,129.37c4.09-4.94,8.15-10.37,10.38-16.63,2.57-7.21,2.45-16.69-3-22.78a16.83,16.83,0,0,0-5-3.8l-22,53a6.78,6.78,0,0,0,1.67,0C204.38,139.27,210.73,134.81,215.24,129.37Z"/><path class="cls-1" d="M194.64,138.31S210,103.7,214.54,93.73c0,0-13.14,33.29-18,45.63C196.58,139.36,195.15,140.39,194.64,138.31Z"/><path class="cls-1" d="M198.58,133.46l.68.07c.44,0,1.08.09,1.84.09a21.86,21.86,0,0,0,2.59-.11c.47,0,1-.1,1.45-.18s1-.17,1.48-.29l.74-.18.72-.22c.47-.15.93-.32,1.37-.5s.85-.38,1.24-.58.75-.41,1.07-.62.6-.41.86-.59.46-.36.63-.51l.53-.47-.51.5-.61.53c-.25.2-.52.43-.84.64s-.67.45-1,.67-.8.44-1.23.64-.89.4-1.37.58l-.72.24c-.24.09-.49.16-.73.23-.5.14-1,.25-1.49.36s-1,.19-1.47.25a24.47,24.47,0,0,1-2.63.23c-.77,0-1.42,0-1.88,0s-.72,0-.72,0Z"/><path class="cls-1" d="M201.6,125.79l.19,0,.52.07c.23,0,.52,0,.84.07s.68.05,1.08.06l.62,0h.67c.45,0,.93,0,1.43-.06s1-.09,1.52-.16,1-.14,1.56-.26l.77-.16.76-.2.75-.2.71-.25c.23-.09.47-.16.69-.25l.64-.28L215,124c.2-.09.38-.2.55-.29l1-.52.7-.47.62-.4-.6.43-.69.5-.94.56a5.47,5.47,0,0,1-.54.31l-.6.3-.64.31-.68.28-.71.28-.74.24-.76.24-.78.19c-.52.15-1.05.23-1.57.33s-1,.16-1.53.23-1,.1-1.45.12l-.68,0h-.63c-.4,0-.78,0-1.11,0l-.85,0-.56,0-.2,0Z"/><path class="cls-1" d="M204.5,118.3s.3,0,.84.1,1.3.1,2.23.11a29.58,29.58,0,0,0,6.73-.64c.6-.12,1.2-.28,1.78-.45s1.14-.36,1.68-.56l.79-.32c.26-.1.5-.22.74-.33.48-.23.93-.46,1.33-.7s.76-.46,1.08-.66l.8-.57.67-.53-.65.55-.78.61c-.32.21-.66.47-1.07.7s-.83.5-1.3.75l-.74.37c-.26.11-.51.24-.78.35-.54.22-1.1.44-1.68.63s-1.18.37-1.78.52a30.91,30.91,0,0,1-6.79.9c-.94,0-1.73,0-2.28,0s-.87-.07-.87-.07Z"/><path class="cls-1" d="M207,111.86l.73,0c.47,0,1.14-.07,1.95-.15a38.42,38.42,0,0,0,5.82-1c.52-.14,1-.29,1.54-.45s1-.34,1.47-.53.91-.38,1.33-.58.81-.4,1.16-.6l.5-.3.44-.29c.28-.18.5-.36.7-.5l.43-.35.15-.13-.15.13c-.09.09-.23.22-.41.37s-.41.35-.68.54-.28.2-.43.31l-.49.32c-.35.21-.73.44-1.15.66s-.85.43-1.32.64-1,.4-1.45.59-1,.36-1.54.52a39.09,39.09,0,0,1-5.83,1.29c-.81.12-1.49.19-2,.24l-.76.06Z"/><path class="cls-1" d="M209.77,104.93s.89-.17,2.23-.49c.33-.09.7-.17,1.08-.28l1.19-.33c.42-.11.84-.25,1.27-.38s.86-.29,1.3-.43l1.29-.47,1.23-.5c.39-.17.77-.33,1.13-.5l1-.5c.3-.17.57-.33.82-.46s.44-.28.62-.39l.53-.35-.52.38c-.17.11-.36.27-.6.41l-.8.51-1,.55c-.35.19-.73.37-1.11.57l-1.21.56-1.27.54c-.44.16-.86.34-1.29.49s-.85.32-1.26.45-.81.27-1.18.4l-1.07.33c-1.33.39-2.24.61-2.24.61Z"/><path class="cls-1" d="M212.71,97.49s.6-.19,1.49-.53c.44-.17,1-.37,1.51-.6s1.13-.48,1.71-.74l.85-.41c.28-.14.56-.27.82-.41s.52-.27.76-.41.46-.25.67-.38l.55-.34.43-.27.36-.25-.36.26-.41.28-.55.36-.66.39c-.24.15-.49.28-.75.43s-.54.29-.82.43l-.84.43c-.58.28-1.15.55-1.7.79s-1.06.45-1.5.63c-.88.36-1.48.58-1.48.58Z"/><path class="cls-1" d="M197.86,132.48l-.54-.47c-.33-.31-.8-.75-1.33-1.31a23.61,23.61,0,0,1-1.73-2c-.3-.39-.6-.8-.89-1.22s-.56-.86-.82-1.31-.52-.91-.74-1.38-.42-.93-.6-1.39-.32-.9-.44-1.34c-.07-.21-.11-.42-.17-.63s-.09-.4-.12-.6c-.09-.38-.12-.73-.17-1s-.05-.59-.07-.81c0-.45,0-.71,0-.71s0,.26.05.71c0,.22.06.49.1.81s.11.66.21,1c0,.19.09.39.15.59s.11.41.19.62c.14.42.3.86.49,1.3s.41.89.65,1.34.5.88.77,1.32.57.85.86,1.25.61.79.92,1.15c.61.73,1.22,1.36,1.76,1.89s1,.93,1.35,1.21.53.42.53.42Z"/><path class="cls-1" d="M201.07,125s-.22-.17-.58-.48-.85-.76-1.42-1.33a27.08,27.08,0,0,1-3.72-4.65c-.29-.45-.56-.93-.82-1.4-.13-.23-.25-.47-.37-.71l-.33-.7-.3-.69c-.08-.23-.17-.46-.25-.68-.16-.44-.3-.86-.41-1.25s-.2-.76-.28-1.08-.13-.61-.17-.85l-.11-.73.14.73c.05.23.12.51.2.83s.18.68.32,1.06.28.8.45,1.23c.09.22.19.43.28.66l.32.67.36.68c.13.23.25.46.39.69.27.45.55.9.86,1.34a26.33,26.33,0,0,0,3.81,4.4c.58.54,1.08.95,1.44,1.24l.56.42Z"/><path class="cls-1" d="M204.21,117.75s-.25-.2-.66-.56-1-.89-1.63-1.57-1.39-1.48-2.13-2.4c-.37-.46-.73-1-1.09-1.46s-.71-1-1-1.57q-.25-.39-.48-.81c-.16-.27-.31-.55-.45-.83-.29-.55-.55-1.1-.79-1.65s-.43-1.08-.61-1.6c-.09-.25-.16-.51-.23-.76s-.14-.48-.2-.71c-.12-.46-.19-.89-.27-1.26s-.11-.72-.15-1c0-.55-.08-.86-.08-.86l.11.86.18,1c.09.37.18.79.32,1.24.06.23.13.47.21.71s.16.49.26.74c.19.5.41,1,.66,1.56s.52,1.07.83,1.6c.15.27.3.54.47.8s.33.53.5.79c.34.52.7,1,1.07,1.51s.75.95,1.13,1.38c.75.88,1.5,1.65,2.16,2.29s1.24,1.13,1.65,1.47.64.51.64.51Z"/><path class="cls-1" d="M206.85,111.43l-.5-.57c-.31-.37-.74-.9-1.24-1.55a40.91,40.91,0,0,1-3.29-5c-.27-.48-.52-1-.75-1.46l-.34-.73c-.1-.25-.21-.49-.31-.73-.19-.48-.36-.95-.51-1.4s-.26-.88-.36-1.28c-.05-.2-.09-.39-.13-.57s-.07-.37-.1-.53c-.06-.33-.08-.62-.12-.86s0-.42,0-.55V96l0,.2c0,.13,0,.31.06.55s.08.53.15.85c0,.16.07.34.12.52l.15.57c.12.39.25.81.41,1.25s.35.9.56,1.37c.1.23.22.46.33.7l.36.71c.25.47.52.95.8,1.41a38.89,38.89,0,0,0,3.44,4.83c.51.63.95,1.13,1.27,1.47s.5.53.5.53Z"/><path class="cls-1" d="M209.62,104.55s-.5-.79-1.18-2c-.17-.31-.36-.63-.54-1s-.38-.72-.58-1.11-.39-.8-.59-1.21-.39-.84-.58-1.26-.37-.86-.55-1.28-.33-.85-.48-1.26-.28-.81-.4-1.19l-.33-1.09c-.08-.33-.15-.64-.22-.92a6.89,6.89,0,0,1-.14-.72l-.12-.63s.06.23.15.62a7.1,7.1,0,0,0,.17.71c.08.28.17.58.27.91s.23.69.36,1.06.3.76.46,1.17.35.8.54,1.22.39.83.59,1.24.41.83.63,1.23.43.79.64,1.16.43.74.63,1.08.4.65.57,1c.73,1.17,1.25,1.92,1.25,1.92Z"/><path class="cls-1" d="M213.08,97s-.28-.57-.66-1.45c-.19-.44-.41-1-.64-1.51s-.45-1.15-.67-1.75c-.1-.31-.21-.61-.31-.91s-.2-.59-.28-.88-.17-.56-.24-.83l-.2-.74-.15-.64c0-.19-.07-.36-.1-.49l-.08-.44.09.43c0,.14.06.31.11.5l.16.63c.06.23.14.48.22.74s.17.54.26.82.2.58.3.87.22.6.33.9c.23.59.47,1.18.71,1.73s.46,1.05.66,1.49c.4.86.69,1.43.69,1.43Z"/><path class="cls-2" d="M124.12,136.46c4.4-13,18.94-17.22,30.88-16.74a66.76,66.76,0,0,1,11.3,1.35c10.37,2.19,21.08,8.71,26.78,18.59a1,1,0,0,1,.09.55l-69.92,5.66A22,22,0,0,1,124.12,136.46Z"/><path class="cls-3" d="M174,161.4c-7.32,3.15-15.18,6.07-23.29,6.26-9.34.22-20.24-4-25.1-13.67a24.37,24.37,0,0,1-2.4-8.12l69.92-5.66a10.75,10.75,0,0,1-.63,2.17C189.76,151.64,182.1,157.92,174,161.4Z"/><path class="cls-1" d="M192.48,138.67s-46,4.91-59.3,6.55c0,0,43.61-2.67,59.75-3.6C192.93,141.62,194.69,140.21,192.48,138.67Z"/><path class="cls-1" d="M185.33,141.66s-.05.33-.18.92-.33,1.42-.62,2.41-.67,2.11-1.15,3.29c-.23.6-.5,1.19-.78,1.8s-.59,1.2-.92,1.78q-.24.44-.51.87c-.16.28-.34.56-.53.83-.36.55-.73,1.07-1.12,1.56a17.68,17.68,0,0,1-1.16,1.35,14.62,14.62,0,0,1-1.13,1.11c-.36.34-.72.61-1,.86s-.6.44-.84.6l-.75.48.77-.45.86-.56c.32-.24.7-.49,1.07-.81s.78-.67,1.19-1.06.82-.84,1.23-1.31.81-1,1.19-1.52c.2-.27.39-.54.58-.82s.37-.57.54-.86c.36-.57.69-1.17,1-1.76s.6-1.19.87-1.78c.53-1.18,1-2.31,1.3-3.3s.58-1.83.73-2.43.23-1,.23-1Z"/><path class="cls-1" d="M175.29,142.27s0,.09,0,.26-.07.4-.13.71-.15.68-.24,1.11-.21.91-.36,1.42c-.08.26-.15.53-.23.81s-.18.56-.27.85c-.17.59-.41,1.19-.63,1.82s-.5,1.26-.78,1.89-.57,1.29-.92,1.9c-.16.31-.32.62-.49.93s-.35.6-.53.9-.35.59-.53.87l-.57.81c-.19.27-.37.54-.56.79l-.57.71-.55.67c-.18.21-.37.39-.55.58-.36.37-.68.72-1,1l-.81.7-.71.62.73-.58c.24-.19.52-.42.85-.67s.64-.62,1-1c.18-.19.39-.36.57-.57l.58-.65.61-.69c.2-.24.39-.5.59-.76l.61-.8c.19-.27.37-.56.57-.85s.39-.58.57-.88.36-.61.53-.92c.37-.6.68-1.25,1-1.87s.59-1.27.87-1.89.51-1.22.71-1.82c.11-.29.21-.57.31-.85s.18-.55.26-.81c.18-.52.3-1,.43-1.43s.21-.81.28-1.13.13-.56.17-.74l.05-.26Z"/><path class="cls-1" d="M165.51,142.81s-.07.4-.22,1.12-.4,1.73-.75,2.93a44,44,0,0,1-3.4,8.4c-.38.72-.79,1.42-1.22,2.1s-.87,1.32-1.31,1.93c-.23.31-.46.6-.68.88s-.46.55-.68.82c-.46.51-.9,1-1.33,1.41s-.83.78-1.19,1.11l-1,.78-.88.64.9-.6,1-.75c.37-.32.8-.65,1.24-1.07s.9-.86,1.38-1.36l.71-.79c.23-.29.48-.57.71-.87.47-.59,1-1.23,1.4-1.89s.89-1.36,1.3-2.07a44.94,44.94,0,0,0,3.72-8.37c.39-1.2.68-2.23.86-2.95s.26-1.16.26-1.16Z"/><path class="cls-1" d="M157.08,143.25s-.11.34-.32.94-.53,1.44-.94,2.44a54.5,54.5,0,0,1-3.49,7.07c-.36.61-.74,1.21-1.13,1.8s-.78,1.13-1.18,1.66-.8,1-1.2,1.47-.78.87-1.15,1.24l-.54.51c-.18.17-.35.31-.51.45-.32.28-.62.49-.85.68l-.58.4-.2.14.21-.13.59-.37c.24-.18.55-.38.88-.65l.53-.42.56-.5c.39-.35.8-.75,1.21-1.19s.84-.92,1.26-1.43.85-1.05,1.26-1.62.82-1.15,1.21-1.76a56.42,56.42,0,0,0,3.79-7c.45-1,.81-1.84,1-2.44s.36-.94.36-.94Z"/><path class="cls-1" d="M148,143.87s-.55,1.09-1.45,2.67c-.23.39-.47.82-.74,1.27s-.55.92-.85,1.4-.62,1-.95,1.47-.67,1-1,1.49L142,153.63c-.36.47-.71.94-1.06,1.37s-.7.86-1,1.24-.67.74-1,1.08l-.85.86c-.25.26-.5.45-.69.63l-.61.54.63-.51a9.09,9.09,0,0,0,.72-.59l.9-.82,1-1c.36-.36.72-.77,1.1-1.19s.74-.87,1.13-1.32.75-.93,1.12-1.41.73-1,1.08-1.44.69-1,1-1.43.63-.93.92-1.36l.81-1.24c1-1.54,1.58-2.62,1.58-2.62Z"/><path class="cls-1" d="M138.25,144.48s-.47.68-1.21,1.69c-.37.5-.8,1.08-1.28,1.69s-1,1.25-1.54,1.88l-.8.93c-.28.3-.54.61-.8.88s-.52.56-.77.81-.48.48-.7.7l-.62.57c-.18.17-.35.3-.48.42l-.43.37.44-.36c.13-.11.31-.24.49-.41l.63-.56.72-.68c.26-.24.51-.51.78-.78s.54-.57.82-.86l.83-.91c.55-.62,1.09-1.25,1.58-1.85s.94-1.17,1.33-1.67c.76-1,1.24-1.66,1.24-1.66Z"/><path class="cls-1" d="M184.48,140.32s-.11-.34-.33-.9-.54-1.35-1-2.28-1-2-1.64-3.09c-.32-.55-.68-1.1-1.05-1.66s-.78-1.1-1.2-1.63-.84-1-1.29-1.53-.91-.95-1.37-1.37-.92-.81-1.37-1.15c-.22-.18-.45-.33-.66-.49l-.64-.42c-.41-.27-.81-.47-1.15-.66l-.91-.44-.82-.32.8.36.9.48c.33.21.72.42,1.11.71.2.14.41.28.62.44s.43.32.64.51c.43.36.87.76,1.31,1.2s.87.9,1.29,1.4.82,1,1.21,1.56.76,1.1,1.11,1.65.67,1.12,1,1.67c.6,1.1,1.09,2.17,1.48,3.09s.68,1.71.87,2.26.27.86.27.86Z"/><path class="cls-1" d="M174.61,141.26s-.11-.36-.32-.95-.54-1.43-1-2.41a37.53,37.53,0,0,0-3.9-6.78c-.41-.57-.85-1.13-1.29-1.66l-.67-.77-.69-.74-.68-.67-.68-.63c-.44-.39-.87-.75-1.28-1.06s-.8-.58-1.14-.82l-.91-.58-.8-.46.79.5c.25.16.54.38.88.61s.71.53,1.1.87.81.7,1.24,1.11l.65.64.65.7.64.75c.21.26.43.52.64.79.41.55.83,1.11,1.21,1.69a36.65,36.65,0,0,1,3.57,6.81c.39,1,.68,1.8.86,2.38s.27.9.27.9Z"/><path class="cls-1" d="M165,142.2s-.13-.41-.39-1.09-.64-1.65-1.16-2.78-1.17-2.43-1.94-3.77c-.38-.68-.81-1.35-1.24-2s-.91-1.35-1.41-2c-.24-.33-.49-.65-.75-1s-.51-.63-.77-.93c-.52-.61-1.06-1.19-1.6-1.72s-1.08-1-1.61-1.47c-.26-.23-.53-.43-.78-.63a9.11,9.11,0,0,0-.75-.56c-.48-.35-.94-.63-1.35-.89l-1.08-.61-1-.48.95.51,1.06.65c.39.28.85.57,1.31.94.24.18.48.37.73.58s.5.42.75.65c.51.46,1,1,1.55,1.52s1,1.13,1.52,1.75c.25.31.5.63.74,1s.47.66.71,1c.46.66.9,1.35,1.31,2s.81,1.37,1.16,2c.72,1.35,1.31,2.65,1.79,3.77s.82,2.09,1,2.76.33,1.05.33,1.05Z"/><path class="cls-1" d="M156.65,142.89s-.17-.33-.47-.88-.74-1.34-1.3-2.26a54,54,0,0,0-4.52-6.42c-.45-.54-.92-1.07-1.38-1.59l-.72-.75-.71-.7c-.48-.45-1-.88-1.42-1.26s-.91-.72-1.33-1l-.62-.42-.57-.34c-.35-.23-.68-.38-.94-.52l-.62-.29-.22-.1.21.11c.15.07.36.17.62.31s.57.32.92.56l.55.37.6.44c.4.32.84.67,1.28,1.07s.9.84,1.36,1.3l.68.73.68.77c.44.53.89,1.07,1.31,1.63a53.13,53.13,0,0,1,4.23,6.51c.51.93.91,1.72,1.19,2.27s.41.87.41.87Z"/><path class="cls-1" d="M147.61,143.51s-.72-1-1.85-2.38l-.93-1.12-1.06-1.22c-.37-.42-.77-.85-1.16-1.28s-.82-.86-1.23-1.29-.85-.84-1.26-1.25-.85-.79-1.27-1.16-.82-.72-1.21-1l-1.12-.87-1-.69a7.21,7.21,0,0,0-.78-.49l-.68-.42.67.45c.2.15.47.3.75.53l.94.73,1.08.93c.38.34.76.71,1.16,1.09s.79.8,1.2,1.21.81.86,1.2,1.3.79.89,1.16,1.34.75.89,1.1,1.33.68.86,1,1.26.6.8.87,1.15c1.07,1.45,1.73,2.43,1.73,2.43Z"/><path class="cls-1" d="M137.54,144.76s-.55-.62-1.41-1.49c-.43-.43-.94-.94-1.49-1.46s-1.16-1.08-1.76-1.62l-.92-.79c-.31-.25-.61-.51-.91-.74l-.86-.67c-.28-.2-.54-.4-.79-.57l-.67-.46c-.2-.14-.39-.25-.53-.34l-.47-.29.46.3c.15.1.33.21.52.35l.67.48.77.59c.28.21.56.45.85.69l.89.76c.3.26.6.54.9.81.59.55,1.18,1.11,1.72,1.65s1,1.06,1.45,1.5c.85.89,1.38,1.51,1.38,1.51Z"/><path class="cls-2" d="M240.75,159.37c-6.31,7.83-17.39,7.07-25.48,3.72a49.54,49.54,0,0,1-7.44-3.78c-6.59-4.13-12.31-11.33-13.74-19.57a.77.77,0,0,1,.08-.4l49.56,13.78A15.76,15.76,0,0,1,240.75,159.37Z"/><path class="cls-3" d="M212.7,129.59c5.83-.33,12-.34,17.61,1.57,6.49,2.21,12.92,7.88,13.83,15.76a18,18,0,0,1-.41,6.2l-49.56-13.78a7.64,7.64,0,0,1,1-1.34C199.41,132.33,206.27,129.94,212.7,129.59Z"/><path class="cls-1" d="M194.25,140.57s32.9,8.25,42.49,10.49c0,0-30.7-9.2-42.05-12.63C194.69,138.43,193.12,139,194.25,140.57Z"/><path class="cls-1" d="M199.93,140.32s.12-.22.36-.59.59-.89,1-1.5a24.17,24.17,0,0,1,1.62-2c.31-.34.65-.69,1-1s.71-.68,1.09-1l.56-.47.58-.44c.38-.29.78-.55,1.16-.79s.77-.45,1.14-.63.73-.35,1.06-.48.65-.24.93-.33l.72-.21.64-.13-.64.1-.74.17c-.28.09-.6.17-.94.29s-.7.27-1.08.44a13,13,0,0,0-1.18.59c-.4.22-.81.47-1.21.74q-.3.19-.6.42c-.2.14-.4.29-.59.45-.39.3-.77.63-1.14,1s-.72.67-1,1a25.62,25.62,0,0,0-1.73,1.94c-.48.59-.86,1.11-1.12,1.48s-.39.6-.39.6Z"/><path class="cls-1" d="M207,142.44l.09-.17.27-.46c.12-.19.27-.43.45-.7s.37-.57.61-.88c.11-.16.23-.33.36-.5l.4-.52c.27-.36.58-.71.89-1.09s.66-.75,1-1.11.72-.74,1.11-1.08l.57-.51.59-.48.59-.47.6-.42.58-.4.57-.34.55-.32c.18-.11.36-.18.53-.27l.93-.45.74-.28.64-.24-.65.21-.75.25-.95.41c-.17.08-.36.15-.54.25l-.56.3-.59.32c-.2.11-.4.24-.6.37l-.62.4c-.21.14-.41.29-.61.44s-.42.3-.62.46l-.6.5c-.41.32-.78.69-1.16,1s-.73.72-1.07,1.08-.67.71-1,1.07l-.43.51-.38.49c-.26.31-.47.61-.66.88s-.35.5-.48.7l-.3.46-.1.17Z"/><path class="cls-1" d="M213.87,144.54s.15-.26.44-.71.71-1.09,1.25-1.83a32.5,32.5,0,0,1,4.46-4.93c.45-.4.91-.77,1.37-1.13s.94-.69,1.4-1l.69-.44c.22-.14.45-.26.67-.39.45-.23.87-.45,1.27-.63s.77-.33,1.1-.46l.87-.3.77-.22-.78.19-.88.27c-.33.12-.71.24-1.12.42s-.84.36-1.29.59c-.23.12-.46.23-.69.36l-.71.42c-.48.29-1,.6-1.44.95s-1,.71-1.42,1.1a32.13,32.13,0,0,0-4.68,4.82c-.57.72-1,1.36-1.33,1.81s-.48.73-.48.73Z"/><path class="cls-1" d="M219.78,146.37s.16-.21.46-.57.73-.86,1.27-1.44a39.06,39.06,0,0,1,4.19-4c.4-.33.81-.65,1.22-.95s.83-.59,1.24-.85.81-.5,1.2-.71.76-.4,1.1-.56l.51-.22.46-.18c.29-.11.55-.18.76-.25l.5-.13.17-.05-.18,0-.5.11c-.21.06-.48.12-.77.22l-.47.16-.51.2q-.54.21-1.14.51c-.39.2-.81.42-1.23.66s-.84.52-1.27.8-.86.59-1.28.91a40.12,40.12,0,0,0-4.37,3.84c-.56.56-1,1.06-1.34,1.4l-.49.56Z"/><path class="cls-1" d="M226.2,148.24s.65-.61,1.67-1.47l.83-.69.94-.74,1-.78,1.07-.77,1.09-.74c.37-.23.73-.47,1.08-.68l1-.59.93-.49.81-.38a6.66,6.66,0,0,1,.64-.26l.55-.22-.56.19a6.61,6.61,0,0,0-.65.23l-.82.33-1,.45c-.34.16-.69.36-1.06.54l-1.11.63-1.13.69c-.37.24-.75.47-1.11.72s-.72.48-1.06.73-.67.47-1,.7-.59.45-.86.65c-1.07.81-1.76,1.4-1.76,1.4Z"/><path class="cls-1" d="M233.06,150.29s.49-.36,1.25-.86c.39-.25.83-.54,1.32-.84s1-.61,1.53-.91l.79-.44.77-.4.73-.36.66-.3.57-.24.44-.17.39-.15-.39.14-.45.16-.57.22-.67.29-.74.34-.78.39-.8.41c-.53.29-1.06.59-1.55.88s-.95.56-1.33.81c-.78.48-1.28.83-1.28.83Z"/><path class="cls-1" d="M200.18,141.45s0,.27,0,.71,0,1.07.1,1.82a22.86,22.86,0,0,0,.35,2.54q.12.69.3,1.41c.12.47.26.95.41,1.42s.32.94.51,1.39a13.75,13.75,0,0,0,.59,1.28c.21.41.43.79.65,1.14.11.18.23.34.34.5a5.22,5.22,0,0,0,.33.45c.21.29.44.53.62.75l.52.53c.3.28.48.43.48.43l-.46-.45-.5-.55c-.17-.23-.38-.48-.58-.78a4.1,4.1,0,0,1-.31-.46c-.11-.16-.22-.33-.32-.51-.2-.36-.41-.74-.6-1.15s-.37-.85-.53-1.3-.31-.91-.44-1.38-.25-.94-.34-1.41-.18-.94-.25-1.4c-.13-.91-.2-1.76-.24-2.5s0-1.35,0-1.77,0-.67,0-.67Z"/><path class="cls-1" d="M207.21,143.31s0,.27,0,.73,0,1.12.06,1.91a27.93,27.93,0,0,0,1,5.65c.14.5.31,1,.48,1.47.08.24.18.47.26.7l.29.68.3.64.31.6c.21.38.41.74.61,1.06s.41.6.58.85.34.45.48.62l.44.53-.42-.55c-.13-.17-.28-.39-.46-.64s-.35-.54-.53-.88-.38-.68-.58-1.07l-.28-.61-.27-.65-.26-.68c-.07-.23-.16-.46-.23-.7-.15-.48-.29-1-.41-1.47a27.33,27.33,0,0,1-.74-5.59c0-.77,0-1.41,0-1.85s0-.7,0-.7Z"/><path class="cls-1" d="M214.08,145.1s0,.31,0,.84,0,1.3.1,2.21.19,2,.38,3.09c.09.56.21,1.13.34,1.71s.28,1.17.46,1.74c.08.29.17.58.27.86s.19.56.3.84c.2.55.43,1.08.66,1.59s.49,1,.74,1.42c.12.22.25.42.37.63l.38.57c.24.36.49.67.7,1l.59.69.54.57-.52-.59-.56-.72c-.2-.29-.44-.6-.67-1a6.36,6.36,0,0,1-.35-.58c-.12-.21-.25-.41-.36-.64-.23-.44-.46-.93-.68-1.43s-.42-1-.6-1.6q-.15-.41-.27-.84c-.09-.28-.16-.57-.24-.85-.15-.58-.28-1.16-.39-1.73s-.21-1.15-.28-1.7c-.16-1.11-.24-2.16-.28-3s0-1.64,0-2.16,0-.81,0-.81Z"/><path class="cls-1" d="M220,146.73s0,.27.1.72.17,1.11.32,1.89a39.56,39.56,0,0,0,1.49,5.55c.17.49.36,1,.55,1.45l.3.69c.11.23.21.45.32.67.21.43.43.84.65,1.22s.45.73.66,1.05l.32.44.31.38c.18.24.37.43.51.6l.36.35.13.13-.13-.13c-.07-.09-.19-.21-.34-.38s-.31-.36-.49-.61-.19-.25-.29-.4l-.3-.45c-.2-.32-.41-.68-.61-1.06s-.41-.8-.6-1.24c-.1-.22-.19-.45-.29-.67l-.27-.7c-.18-.48-.34-1-.5-1.46a40.52,40.52,0,0,1-1.26-5.55c-.12-.77-.19-1.41-.24-1.86s-.07-.71-.07-.71Z"/><path class="cls-1" d="M226.37,148.58s.24.86.67,2.11c.11.31.23.65.36,1s.27.73.42,1.12l.47,1.17c.16.4.35.8.52,1.2s.37.79.56,1.18.38.76.57,1.12.39.7.58,1l.55.88.5.73c.14.21.29.38.41.53l.36.46-.34-.48c-.11-.16-.25-.33-.39-.55s-.29-.48-.46-.75l-.51-.91-.52-1c-.18-.37-.35-.75-.52-1.14s-.34-.8-.5-1.2-.32-.81-.46-1.22-.29-.8-.42-1.18-.25-.77-.36-1.13-.22-.7-.31-1c-.37-1.26-.57-2.11-.57-2.11Z"/><path class="cls-1" d="M233.61,150.27s.23.56.6,1.38c.19.41.41.88.66,1.39s.52,1,.8,1.55c.15.26.29.53.43.78s.29.5.44.74.28.47.42.68.27.41.4.59l.35.49c.1.15.2.27.28.37l.25.31-.24-.32c-.08-.1-.18-.22-.28-.37l-.33-.5c-.13-.19-.25-.39-.39-.61s-.26-.44-.4-.68-.28-.5-.42-.75l-.42-.78c-.27-.54-.53-1.07-.76-1.58s-.45-1-.63-1.4c-.35-.82-.56-1.38-.56-1.38Z"/><path class="cls-1" d="M191.47,142.74a5.73,5.73,0,0,0-.93,1.33l-.09-.12s-.14-2.61,2.82-1.67l0,0c-.43,0-.87.07-1.3.13A1,1,0,0,0,191.47,142.74Z"/><path class="cls-4" d="M342.56,65.85s-12.76-11.17-19-20.41-14.1-8.81-22.63-5.27c4.72.6,14.16,5.69,18.32,15.5S342.56,65.85,342.56,65.85Z"/><path class="cls-5" d="M403.75,48.13S392.42,53,394.5,63.89s-20.41,32.64-50.81,10.38-59.56-27.61-59.56-27.61,22.35-11.16,37.76,1.75S344,67.72,349.47,70.63s34,15.39,40.16-3.34l-4.71-3.61-.14-1.53S396.44,39.75,403.75,48.13Z"/><path class="cls-4" d="M350.63,67.57a20.5,20.5,0,0,0,13.78,11.54c5.54,1.52,12,1.93,16.85-1l1.21-.76a21.56,21.56,0,0,0,4.77-4.11l0,0c1.92-2.35,2.53-4.56,2.31-6.33a1.36,1.36,0,0,0,0-.29,5.4,5.4,0,0,0-.61-1.69.24.24,0,0,0-.06-.08,4.32,4.32,0,0,0-3.19-2.15s6.67-16.64,16.21-16c0,0-5.93-4.35-10.55,2.5-2.67,3.93-4,6.44-5.72,8.34a14.41,14.41,0,0,1-5.21,3.56c-4.7,2.07-11.44-3.2-14.65-6a32.35,32.35,0,0,1-2.45-2.38l-.14-.15c-3.69-3.72-5-7.46-5.12-10.88a12,12,0,0,0-1.84-4.22c-.16-.21-.33-.42-.52-.63a12.27,12.27,0,0,0-1.24-1.37A16.57,16.57,0,0,0,353,34.11c-1.26,3.6-.61,7.5-1.55,8.88C349.61,45.69,343.41,51.32,350.63,67.57Z"/><path class="cls-4" d="M350.63,67.57a20.5,20.5,0,0,0,13.78,11.54,25.49,25.49,0,0,0,18.06-1.75,13.42,13.42,0,0,0,4.77-4.11l0,0c1.84-2.76,2.42-4.81,2.31-6.33a1.36,1.36,0,0,0,0-.29,4,4,0,0,0-.61-1.69.24.24,0,0,0-.06-.08,5.72,5.72,0,0,0-3.51-2.15c-15.78,6.66-31.05-11.39-30.31-22.22a17.93,17.93,0,0,1,.64-3.68,14.33,14.33,0,0,1,9.22-9.64,17.17,17.17,0,0,0-11.94,7c-4.54,6.52-1.07,8.07-1.55,8.88C349.76,45.79,343.41,51.32,350.63,67.57Z"/><path class="cls-5" d="M351.55,51.27s.47,4.45,6.66,6.11c-3.78,1.95-3,12.6,6.72,15.32,8.78,2.45,18.7,1.79,20.45-10a28.81,28.81,0,0,0,.26-5.17s-9.61,7.8-22.31-4.85l-.14-.15c-3.69-3.72-5-7.46-5.12-10.88-.18-8.15,6.86-14.49,6.86-14.49h-.09a13.67,13.67,0,0,0-10.37,8.26c-2.92,7.38.41,8.85.41,8.85S350.72,47.11,351.55,51.27Z"/><path class="cls-6" d="M398.3,47.22s-2.05.06-2.09,1.07S397.94,47.74,398.3,47.22Z"/><path class="cls-7" d="M401.56,46.43a3.1,3.1,0,0,1-.16,3,21.52,21.52,0,0,1,6.6-1.22A21.74,21.74,0,0,0,401.56,46.43Z"/><path class="cls-5" d="M396.79,47.85a.35.35,0,1,0,.69,0,.35.35,0,0,0-.69,0Z"/></g></svg>