<svg id="Layer_1" data-name="Layer 1" xmlns="http://www.w3.org/2000/svg" viewBox="0 0 29.06 1080"><defs><style>.cls-1{fill:#dd7922;}</style></defs><title>1920x1080 UI Landing Page</title><path class="cls-1" d="M16.46,914.82c1.05.89,2.1,1.81,3.23,2.59,2.6,1.76,5.37,3,8.63,2.32.15,0,.32.1.47.16.25,2.11-.31,2.84-2.29,2.46a11.62,11.62,0,0,1-4.3-1.69,52.4,52.4,0,0,1-5.55-4.57,15.57,15.57,0,0,0-6.39-3.91c-2.65-.7-5-.28-6.89,1.87a2.82,2.82,0,0,0-.72,3.15c.38.89,1.77,1.3,3.11,1,1.14-.25,1.83,0,2.25.92.65,1.47,2.13,2.57,2,4.41,0,.19.24.41.37.61h0c.18.29.34.58.54.91a8.22,8.22,0,0,0,.86,0,4.48,4.48,0,0,1,4.31,2.4,2.14,2.14,0,0,1,.38,1.16,1.1,1.1,0,0,1-.54.78c-.13.08-.58-.14-.71-.35-.31-.44-.47-1-.75-1.43A3.28,3.28,0,0,0,10.54,926c3,2,3.67,3.49,2.68,5.36-.81,1.5-2.62,2.07-4.8,1.24l1-.64h0c.54-.61,1.23-.43,1.93-.39A1.69,1.69,0,0,0,13,930c0-1-.71-1.08-1.49-1.14a2.46,2.46,0,0,1-1.53-.39,4.51,4.51,0,0,0-3.73-1.35,6.43,6.43,0,0,1-1.22-.31c-2.16-.4-2.37-2.78-3.87-3.88a3.08,3.08,0,0,1-1-1.87c-1-5.65,4.06-11.08,9.7-9.81A15.41,15.41,0,0,1,16.46,914.82Z"/><path class="cls-1" d="M19.46,966.22c2.61,1.86,5.42,3.13,8.76,2.5.15,0,.33.1.48.14.54,2.11.37,2.45-1.67,2.42a8.12,8.12,0,0,1-3.12-.66,23.46,23.46,0,0,1-6.75-5c-2.3-2.28-4.83-4.14-8.16-4.61a5.94,5.94,0,0,0-5.63,2.09c-1.33,1.53-1.22,2.89.24,4.42h0c.23.18.44.38.66.57-.22-.19-.43-.39-.66-.57h0c.65-.06,1.31-.06,1.94-.18,1.69-.33,1.94-.24,2.62,1.25.1.22.1.56.26.65,1.42.79,1.33,2.12,1.34,3.43l.05.11v0c1.11,0,.34.92.56,1.42.32-.05.61-.11.9-.14A4.58,4.58,0,0,1,16,976.52a1.7,1.7,0,0,1,.31.83,4.17,4.17,0,0,1-.41,1,2.67,2.67,0,0,1-.87-.46,4.51,4.51,0,0,1-.47-1c-1.1-2.06-2.51-2.6-4.94-1.78,1.87.16,3.28.83,3.8,2.63a3,3,0,0,1-1,3.39,3.44,3.44,0,0,1-3.61.61c.06-.23.06-.37.13-.44a2,2,0,0,1,.4-.29c.44-.92,1.27-.62,2-.64A1.64,1.64,0,0,0,13,978.87c-.08-.94-.78-1-1.55-1.15a3.73,3.73,0,0,1-2-.66,3.59,3.59,0,0,0-2.44-.9c-2.07-.12-3.89-.74-4.77-2.9a1.84,1.84,0,0,0-.54-.7,5.2,5.2,0,0,1-1.67-4.73c.33-4.35,4.33-7.87,8.07-7.73a12.25,12.25,0,0,1,7.37,2.95C16.85,964.1,18.09,965.24,19.46,966.22Z"/><path class="cls-1" d="M16.31,865.77c3.44,2.78,6.77,5.69,11.69,5,.25,0,.73.41.84.72a1.29,1.29,0,0,1-1.18,1.8,6.71,6.71,0,0,1-5.1-1.4,73.94,73.94,0,0,1-6-4.9,15.2,15.2,0,0,0-7.13-4,6.21,6.21,0,0,0-6.56,2.73,3.07,3.07,0,0,0,.12,3.4,2.29,2.29,0,0,0,2.67,1.32c.81-.21,1.25.24,1.47,1,.1.34.14.69.23,1.1,1.06-.13,1.45.42,1.49,1.36a1.7,1.7,0,0,0,1.5,1.76c.64.12,1.27.29,1.91.35a5,5,0,0,1,4,3.19,1.36,1.36,0,0,1-.33,1.21c-.56.37-.77-.22-1-.63a11.78,11.78,0,0,0-1.52-2.2,2.49,2.49,0,0,0-3-.51c2.94,1.61,3.8,3.23,2.82,5.18a3.36,3.36,0,0,1-4.46,1.42,1.6,1.6,0,0,1,1.63-1.15,7.45,7.45,0,0,0,1.25,0A1.6,1.6,0,0,0,13,880.82c-.15-.78-.68-1-1.45-1a2.94,2.94,0,0,1-1.83-.54,3.58,3.58,0,0,0-2.75-1,6.29,6.29,0,0,1-1.76-.33,4.51,4.51,0,0,1-2.46-1.83c1.23.29,2,1.05,3,.43a19.49,19.49,0,0,1-2.64-1A5.36,5.36,0,0,1,.06,871c-.36-5,4.88-11.12,11.72-8.09A20.45,20.45,0,0,1,16.31,865.77Z"/><path class="cls-1" d="M8.6,985.19l.75.85h0l.06.05v0c.5.19,1,.41,1.51.56s1,0,1.18.19a2.86,2.86,0,0,1,.87,1.6c0,.63-.59,1-1.27.94a2.86,2.86,0,0,0-2.69,1c-.3.32-1,.34-1.46.45a25.52,25.52,0,0,0-2.79.57,3.36,3.36,0,0,0-2.08,1.94H2.61a5.61,5.61,0,0,1-.8,1.15c-2,1.75-2.07,4-1.43,6.28a8.1,8.1,0,0,0,10.86,5.7,16,16,0,0,0,4.91-3,51.31,51.31,0,0,1,4.43-3.38,9.75,9.75,0,0,1,7.33-1.81,2.87,2.87,0,0,0,.66,0c.63-1.93.07-2.91-1.73-2.63a10.43,10.43,0,0,0-4.17,1.49,72.47,72.47,0,0,0-6.56,5.31,13.86,13.86,0,0,1-5.67,3.36c-2.37.62-4.66.55-6.59-1.23-1.68-1.56-1.79-3.05-.41-4.88a4.16,4.16,0,0,0,.24-.47c1.89,1.29,3.71.91,4.57-1,0,0,0-.14.05-.16,1.52-.86,1.26-2.56,1.85-3.86l0,.07.66-1.33a4.49,4.49,0,0,0,4.85-1.83,5,5,0,0,0,.77-1.77c.05-.2-.32-.6-.58-.74s-.54.18-.7.39a6.1,6.1,0,0,0-.44,1c-1,2-2.36,2.58-4.84,2.05,1.5-.51,2.93-.85,3.42-2.31a4.47,4.47,0,0,0,.2-2.26C13.05,985.59,11.66,984.94,8.6,985.19Zm1.5,9.15h0c-.17-.32-.37-.46-.55-.44C9.73,993.88,9.93,994,10.1,994.34Z"/><path class="cls-1" d="M10.15,1009.2c-5.68-1.55-10.94,3.8-10,9.62A6.68,6.68,0,0,0,1.36,1021a14.68,14.68,0,0,0,1.12,1.38h0c.76,1.93,2.43,2.49,4.25,2.63a3.91,3.91,0,0,1,3,1.14c.36.41,1.18.48,1.81.59,1.08.18,1.48.47,1.42,1.19a1.69,1.69,0,0,1-1.74,1.47c-.71-.07-1.38-.23-1.89.42h0l-1.08.46c2.44.88,4.26.3,5-1.21,1-2,.12-3.53-3-5.27a3.19,3.19,0,0,1,3.6,1c.49.58.76,1.35,1.22,2,.2.27.64.36,1,.54.12-.36.4-.76.34-1.09a4.77,4.77,0,0,0-4.43-3.33c-.35,0-.7.09-1.12.14l-.79-1.48h0c-.09-.52-.18-1-.29-1.55-.08-.35-.08-.83-.3-1a5.66,5.66,0,0,1-1.58-2.26,1.65,1.65,0,0,0-1.3-.7,13.18,13.18,0,0,0-2.4.45H3.57a1.36,1.36,0,0,0-.11-.2c-1.46-2-1.29-3.48.65-5.09a6.43,6.43,0,0,1,6.13-1.1,15.2,15.2,0,0,1,6.26,3.76,72.15,72.15,0,0,0,5.85,4.78,11.78,11.78,0,0,0,3.42,1.55,4.72,4.72,0,0,0,2.3,0c.77-.16.93-.87.79-1.59a1,1,0,0,0-1.17-.86c-4,.54-7-1.59-9.93-3.87a36.07,36.07,0,0,0-3.09-2.48A19.07,19.07,0,0,0,10.15,1009.2Zm-.72,20.67c.23.31.37.48.55.55-.18-.07-.32-.24-.55-.55Z"/><path class="cls-1" d="M11.69,838.32A8.05,8.05,0,0,1,13.22,840a4.63,4.63,0,0,1,.24,2.11c-.07,1.74-1.7,2.21-3.08,3.25,3.21.41,4.06-1.91,5.18-3.8a1.35,1.35,0,0,1,.44,2.15,4.77,4.77,0,0,1-4.27,2.53c-1.81,0-2.58.6-2.86,2.26a1.36,1.36,0,0,1-1.51,1.26c-.43,1.84-.63,2.07-1.67,2.06a3,3,0,0,0-2.81,4.64,6.08,6.08,0,0,0,6.53,2.76,14.48,14.48,0,0,0,6.86-3.76c1.69-1.55,3.39-3.07,5.22-4.44a13.64,13.64,0,0,1,3.65-1.9A6.67,6.67,0,0,1,28,849c.77.08,1.09.87.92,1.68s-.7.87-1.38.73a8.42,8.42,0,0,0-5.23,1,23.79,23.79,0,0,0-5.91,4.08A15.88,15.88,0,0,1,11,859.69c-5.1,1.76-9.75-1.54-10.79-6.38C-.26,851.1,0,848.9,2,847.48A10.57,10.57,0,0,1,5.45,846a17.12,17.12,0,0,1,3.39-.21c-1.07-.89-1.06-.88-2.1-.65-1.24.28-2.49.52-3.79.79.93-1.4,2.38-1.73,3.88-1.88A3.9,3.9,0,0,0,9.74,843c.35-.41,1.18-.45,1.82-.53,1-.13,1.5-.48,1.47-1.19a1.52,1.52,0,0,0-1.33-1.49,13.57,13.57,0,0,0-1.43,0,1.35,1.35,0,0,1-1.4-1.37C10.28,839.47,10.62,839.47,11.69,838.32Z"/><path class="cls-1" d="M9.51,741.25a10.93,10.93,0,0,0,1.3.51c.34.08.74-.06,1.07,0A1.54,1.54,0,0,1,13,743.44c-.06.82-.66,1.1-1.41,1a3.18,3.18,0,0,0-2.42.94,3.57,3.57,0,0,1-2,.67c-2.26.13-4.13.79-5.06,3.06a1.65,1.65,0,0,1-.33.43,7,7,0,0,0-.1,9.19c2.41,3.1,5.39,4.06,9.48,2.83a16.33,16.33,0,0,0,5.6-3.54,38.27,38.27,0,0,1,4-3,9.93,9.93,0,0,1,6.51-1.69,7.94,7.94,0,0,0,.84,0c.55-2,.24-2.41-1.58-2.45a6.5,6.5,0,0,0-4,1.39c-1.93,1.42-3.81,2.92-5.59,4.52a19.62,19.62,0,0,1-5.62,3.86,6.83,6.83,0,0,1-5.26.38,7.27,7.27,0,0,1-2.29-1.37c-1.93-1.82-2-3-.08-5.41a1.87,1.87,0,0,1,1.25-.57c1.84-.13,1.85-.1,2.36-2,1,0,1.34-.56,1.47-1.56a2.27,2.27,0,0,1,2.72-2.07,4.43,4.43,0,0,0,4.17-2,2.76,2.76,0,0,0,.37-.61c.17-.57.48-1.28-.24-1.58s-.86.45-1.06.93a3.79,3.79,0,0,1-4.05,2.65,5.32,5.32,0,0,1-.92-.32c1.86-.62,3.45-1.22,3.6-3.24a3.08,3.08,0,0,0-1.57-3.29A2.81,2.81,0,0,1,9.51,741.25ZM8,750.81l-1.13-.25,1.13.25c.29-.76.31-1.14-.06-1.34C8.28,749.67,8.26,750.05,8,750.81Z"/><path class="cls-1" d="M16.8,1062c1.27.9,2.44,2,3.75,2.8a10.32,10.32,0,0,0,7.17,1.87,3.76,3.76,0,0,1,.83,0c.59,1.83.3,2.3-1.37,2.45a6.73,6.73,0,0,1-4-1,30.75,30.75,0,0,1-6.35-5,13.9,13.9,0,0,0-7.72-4.34,5.89,5.89,0,0,0-6,2.39c-1.15,1.53-1,2.7.42,4.09l0-.07a.39.39,0,0,0,.11.06c.88-.11,1.75-.28,2.63-.31a1.76,1.76,0,0,1,1.29.43c.7,1,1.26,2,1.87,3v0l0,.08,0,0c.13.79.25,1.58.37,2.37l.4-.06c-.08.86-.61,1.16-1.42,1.29a13.12,13.12,0,0,1-5.9-.61l0,0,0,0,.1,0c-3.17-2.2-3.59-5.2-2-8.53,2.13-4.57,6.48-6.05,11-4.14A27.5,27.5,0,0,1,16.8,1062Z"/><path class="cls-1" d="M18.41,818.5c2.11,1.61,4.33,3,7.08,3.34.71.07,1.43,0,2.15,0a1.15,1.15,0,0,1,1.21,1.09A1.09,1.09,0,0,1,28,824.3a2.94,2.94,0,0,1-1.4.12,16.54,16.54,0,0,1-3.39-1.16c-2.8-1.45-5-3.71-7.3-5.82s-5-3.73-8.4-3.51a5.27,5.27,0,0,0-4.8,3.28,3.06,3.06,0,0,0,2.79,4.26,2.24,2.24,0,0,1,1,.13c.91.57.58,2.26,2.09,2.35.07,0,.13.31.19.48L9.67,827a8,8,0,0,1-6.83-.65A4.8,4.8,0,0,1,.2,823c-.95-5.4,3.36-9.91,7.75-9.93a11.31,11.31,0,0,1,7,2.53C16.13,816.53,17.22,817.58,18.41,818.5Z"/><path class="cls-1" d="M17.06,768.39c1.72,1.2,3.43,2.42,5.23,3.49a8.27,8.27,0,0,0,4.87,1c.35,0,.7,0,1,0,.68,1.87.34,2.53-1.4,2.45a6.64,6.64,0,0,1-2.75-.68,30.46,30.46,0,0,1-4.36-2.84c-1.5-1.19-2.82-2.61-4.29-3.84a11.86,11.86,0,0,0-7-3.09,5.85,5.85,0,0,0-5.52,2.75A2.9,2.9,0,0,0,3,771c.63,1,1.31,1.94,2.76,1.38.63-.24,1.06.15,1.28.7a11.13,11.13,0,0,1,.37,1.44c1-.08,1.44.38,1.47,1.35,0,.67.19,1.31,1,1.47l.24.43a1.45,1.45,0,0,1-.31.2,10.84,10.84,0,0,1-7.1-.57h0s0,0,0,0h0a9,9,0,0,1-1.28-1.26,7.07,7.07,0,0,1-1.23-2.35,8.62,8.62,0,0,1,4.21-8.7,8.55,8.55,0,0,1,8.61.31A46.19,46.19,0,0,1,17.06,768.39Z"/><path class="cls-1" d="M9.88,777.38h0v0Z"/><path class="cls-1" d="M9.72,797.42a6,6,0,0,0-.78,1.33c-.23.9,0,2-1.44,2.1-.11,0-.21.39-.29.61-.52,1.34-.52,1.28-1.87,1.28a2.83,2.83,0,0,0-1.63.5,3.27,3.27,0,0,0-.45,4.81,6.21,6.21,0,0,0,7,2,14.9,14.9,0,0,0,6.39-3.92,25.23,25.23,0,0,1,7.3-5.52,9.52,9.52,0,0,1,3.29-.76c1.19-.08,1.52.35,1.43,1.31s-.4,1.15-1.54,1.23a16.14,16.14,0,0,0-4.05.63,19.41,19.41,0,0,0-6.47,4.2,17,17,0,0,1-5.13,3.28c-5.15,2-9.8-.94-11.14-5.75-.53-1.94-.59-3.93,1-5.61C3.38,796.87,7.6,796.11,9.72,797.42Z"/><path class="cls-1" d="M12.49,905.82a5.07,5.07,0,0,1-5.87-.23c3.29.78,5.74-.63,7.88-2.86.37-.39.73-.8,1.07-1.22a24.12,24.12,0,0,0,4-7.4,3.69,3.69,0,0,1,2.3-2.59,9,9,0,0,1,6.38.42,8.91,8.91,0,0,0-6,3.44c-1.95,2.37-3.81,4.81-5.86,7.08A19.22,19.22,0,0,1,12.49,905.82Z"/><path class="cls-1" d="M19.44,974.65a21.11,21.11,0,0,0-5-8.24c-2.05-2.06-4.31-3.46-7.43-2.93a3.49,3.49,0,0,1,3.13-.93A7.72,7.72,0,0,1,14.81,965C17,967.39,19,969.82,21,972.28c1.85,2.27,3.76,4.42,6.84,5.14a15.58,15.58,0,0,1-3.2.66A4.64,4.64,0,0,1,19.44,974.65Z"/><path class="cls-1" d="M16.17,1000.71a11.1,11.1,0,0,1-4.41,3.35,4.84,4.84,0,0,1-5.07-.56c1.81.26,3.62.3,5.15-.8a21.61,21.61,0,0,0,3.38-2.94,22,22,0,0,0,4.4-7.81,3.64,3.64,0,0,1,2.49-2.64,8.84,8.84,0,0,1,6,.47c-3.31.59-5.15,2.62-6.89,4.79S17.87,998.69,16.17,1000.71Z"/><path class="cls-1" d="M19.47,925.75a20.63,20.63,0,0,0-4.26-7.47c-2.24-2.57-4.74-4.61-8.56-3.7a4.49,4.49,0,0,1,4.54-.77,8.21,8.21,0,0,1,3.07,1.79c2.29,2.37,4.42,4.89,6.55,7.41,1.9,2.24,3.68,4.61,6.86,5.21,0,.13-.08.26-.11.38a22.91,22.91,0,0,1-2.83.48C22.26,929.22,20.31,928.44,19.47,925.75Z"/><path class="cls-1" d="M24.18,1027a5,5,0,0,0,3.43-.81c-3.15-.77-5-3-6.79-5.23-1.58-2-3.1-4-4.83-5.82a16.64,16.64,0,0,0-4-3.06,4.66,4.66,0,0,0-5.39.45c3.85-.87,6.4,1.13,8.68,3.78a24,24,0,0,1,4.19,7.33C20.42,1026,21.6,1027,24.18,1027Zm-2.73-2a3.31,3.31,0,0,1-.47-.56,3.31,3.31,0,0,0,.47.56,2.28,2.28,0,0,0,.6.41A2.28,2.28,0,0,1,21.45,1025Zm-1.14-2.08c.06.19.12.37.18.53C20.43,1023.25,20.37,1023.07,20.31,1022.88Zm0-.44-.16.08h0Z"/><path class="cls-1" d="M19.51,876.73a23.39,23.39,0,0,0-4.39-7.6c-2.3-2.61-4.95-4.49-8.92-3.3,2.18-1.48,3.5-1.65,5.57-.82a11.3,11.3,0,0,1,4.4,3.36q2.73,3.24,5.37,6.55c1.6,2,3.4,3.72,6,4.3,0,.15,0,.3,0,.45-1.12.11-2.23.29-3.35.31C21.43,880,20.46,879.33,19.51,876.73Z"/><path class="cls-1" d="M14.88,953.08a7.92,7.92,0,0,1-4.49,2.5,4.09,4.09,0,0,1-3.72-1c3,.7,5.28-.4,7.34-2.4a22.54,22.54,0,0,0,5.42-8.59c1-2.66,2.18-3.52,5-3.44a28.67,28.67,0,0,1,3.17.42c0,.13,0,.27-.05.41a9.65,9.65,0,0,0-4.84,3c-.81,1-1.6,1.94-2.42,2.9C18.49,948.92,16.73,951.05,14.88,953.08Z"/><path class="cls-1" d="M16.58,1049.17a22.72,22.72,0,0,1-4.07,3.51,4.68,4.68,0,0,1-5.16.14c3.85.19,6.33-2,8.46-4.74a25.43,25.43,0,0,0,3.77-6.95,5.36,5.36,0,0,1,8-2.26,9.61,9.61,0,0,0-5.76,3.89C20.13,1044.93,18.44,1047.13,16.58,1049.17Z"/><path class="cls-1" d="M19.45,1072.52a20.35,20.35,0,0,0-4.28-7.44c-2.16-2.48-4.61-4.34-8.24-3.81a4.38,4.38,0,0,1,3.33-.83A8.11,8.11,0,0,1,14.9,1063c2.3,2.6,4.53,5.28,6.77,7.93,1.67,2,3.44,3.75,6.15,4.3a11.9,11.9,0,0,1-2.64.67C22.4,1076.22,20.29,1075.31,19.45,1072.52Z"/><path class="cls-1" d="M21.22,847.68c1.7-2.15,3.52-4.11,6.34-4.84a8.72,8.72,0,0,0-5-.5,3.74,3.74,0,0,0-2.94,2.85,22.28,22.28,0,0,1-4.31,7.65,16,16,0,0,1-2.92,2.65,5.81,5.81,0,0,1-6.16.72,4.49,4.49,0,0,0,4.37,1.32,10,10,0,0,0,5.48-3.6C17.83,851.9,19.54,849.79,21.22,847.68Zm0-3.3a4,4,0,0,0-.39.65A4,4,0,0,1,21.22,844.38Zm-.84,2.2,3.17-3h0Z"/><path class="cls-1" d="M19.56,827.92a24.27,24.27,0,0,0-4-7.22c-2.2-2.69-4.69-4.85-8.64-4.43a5.07,5.07,0,0,1,1.38-.56,5.76,5.76,0,0,1,4.33.75,25.13,25.13,0,0,1,3.67,3.14c1.78,1.95,3.38,4.06,5,6.12s3.59,4.12,6.55,4.63A7.78,7.78,0,0,1,26,831a13,13,0,0,1-2.16.09C21.49,831,20.36,830.15,19.56,827.92Z"/><path class="cls-1" d="M28.81,913.77c.06.77.14,1.29.14,1.82,0,1.79-.5,2.43-2.32,2.46a10.69,10.69,0,0,1-3.7-.51c-3.2-1.14-5.63-3.4-7.88-5.85a3.6,3.6,0,0,1-.23-.8A18.13,18.13,0,0,0,28.81,913.77Z"/><path class="cls-1" d="M12,759.08a4.84,4.84,0,0,1-5-.32,7.29,7.29,0,0,0,6.32-2,23.43,23.43,0,0,0,3.6-4.23,35.08,35.08,0,0,0,2.68-5.47A4.27,4.27,0,0,1,23,744.23a8.54,8.54,0,0,1,5,.67,9.15,9.15,0,0,0-5.46,3.25c-1.9,2.32-3.79,4.65-5.73,6.94A13.63,13.63,0,0,1,12,759.08Z"/><path class="cls-1" d="M23.9,902.64a12.06,12.06,0,0,1,3.88.05,1.22,1.22,0,0,1,1.12,1.23c0,.88,0,1.75,0,2.84a19,19,0,0,0-13.93,2.46C17.37,906.25,20.1,903.64,23.9,902.64Z"/><path class="cls-1" d="M16.93,803.89A22.73,22.73,0,0,1,13,807.54a5.06,5.06,0,0,1-6.24.09,5.82,5.82,0,0,0,4.36-.43,16.69,16.69,0,0,0,3.7-2.8,22.88,22.88,0,0,0,4.76-8c.92-2.52,2.08-3.3,4.73-3.28a12.85,12.85,0,0,1,2.15.22,5.9,5.9,0,0,1,1.29.67c-3,.51-4.55,2.33-6.11,4.17S18.57,802.06,16.93,803.89Z"/><path class="cls-1" d="M28.81,1011.75c.05.73.14,1.37.13,2,0,1.42-.29,1.89-1.71,2a9.36,9.36,0,0,1-3.88-.24c-3.66-1.22-6.38-3.76-9.09-7C21.05,1012.1,21.15,1012.12,28.81,1011.75Z"/><path class="cls-1" d="M14.6,960.21c2.44.91,4.64,1.79,6.89,2.54s4.73.26,7.27.09c.08.76.18,1.39.21,2,.06,1.48-.18,1.8-1.62,2a8.39,8.39,0,0,1-5.26-.66A24.88,24.88,0,0,1,14.6,960.21Z"/><path class="cls-1" d="M19.36,778.49a23.83,23.83,0,0,0-2.49-5,23.76,23.76,0,0,0-3.5-4.07,7.1,7.1,0,0,0-6.68-1.88,4.79,4.79,0,0,1,5.28-.42,10.57,10.57,0,0,1,2.92,2c2,2.19,4,4.49,5.87,6.81s3.68,4.6,6.85,5.23l-.12.41A23.46,23.46,0,0,1,25,782C22.48,782.17,20.62,781.9,19.36,778.49Z"/><path class="cls-1" d="M23.84,1000.51a10.06,10.06,0,0,1,3.71,0,1.84,1.84,0,0,1,1.26,1.06,3.66,3.66,0,0,1-.27,3,18.6,18.6,0,0,0-13.65,2.49C17.37,1004.19,20.06,1001.55,23.84,1000.51Z"/><path class="cls-1" d="M21.74,854.41a8.48,8.48,0,0,1,4.87-.93c2,.19,2.51.75,2.32,2.77-.11,1.27-.38,1.48-1.74,1.28a13,13,0,0,0-6.05.27c-2.14.69-4.22,1.6-6.64,2.53A27.24,27.24,0,0,1,21.74,854.41Z"/><path class="cls-1" d="M15.09,1058.6s0-.2,0-.31.25-.07.33,0c3.79,2.21,7.79,3.34,12.21,2.49a1.22,1.22,0,0,1,.95.32,2.45,2.45,0,0,1-1.25,3.7,7.85,7.85,0,0,1-4.42-.31A22.12,22.12,0,0,1,15.09,1058.6Z"/><path class="cls-1" d="M16,1054.64a33.4,33.4,0,0,1,3.15-2.69,22.36,22.36,0,0,1,3.58-2.07,6.83,6.83,0,0,1,4.93-.36c1.19.35,1.61,1.45,1.26,3-.21.92-.46,1-2,.84a16.17,16.17,0,0,0-8.31,1.08c-1.14.47-2.24,1-3.36,1.58l-.18-.16A7.18,7.18,0,0,1,16,1054.64Z"/><path class="cls-1" d="M17.72,955.2a39.41,39.41,0,0,1,5-3.2,6.55,6.55,0,0,1,4.75-.44c1.34.35,1.81,1.39,1.45,3-.22,1-.57,1.13-2.12.9a15.69,15.69,0,0,0-9,1.42c-.86.38-1.69.83-2.54,1.26l-.24-.32A26.59,26.59,0,0,1,17.72,955.2Z"/><path class="cls-1" d="M15.32,862.37c1.19.56,2.36,1.18,3.58,1.67a16.35,16.35,0,0,0,8.31,1,1.86,1.86,0,0,1,1.44.33,2.43,2.43,0,0,1-1.28,3.6,6.93,6.93,0,0,1-4.08-.22A16.8,16.8,0,0,1,15.32,862.37Z"/><path class="cls-1" d="M18.8,758.34a11.5,11.5,0,0,1,5.57-2.78,10,10,0,0,1,3.17.14,1.44,1.44,0,0,1,.92.94,3.8,3.8,0,0,1-.32,3.06c-4.91-1.15-9.32.27-13.64,2.62C15.93,761,17.31,759.6,18.8,758.34Z"/><path class="cls-1" d="M14.55,813.16c2.22.87,4.38,1.82,6.61,2.57s4.72.45,7.27.11c.09,1,.15,1.79.25,2.6s-.19,1.23-.87,1.33a9.75,9.75,0,0,1-3.16.23C20.28,819.19,17.41,816.14,14.55,813.16Z"/><path class="cls-1" d="M22.51,805.08a7.84,7.84,0,0,1,4.75-.56c1.18.24,1.37.51,1.37,1.7a9.75,9.75,0,0,1,0,1.08c-.12,1.15-.31,1.26-1.49,1.22a35.37,35.37,0,0,0-4.83,0,20.94,20.94,0,0,0-7.39,2.71A20.81,20.81,0,0,1,22.51,805.08Z"/><path class="cls-1" d="M15,764.16c.63.34,1.25.7,1.89,1a15.81,15.81,0,0,0,8.84,2c2.88-.28,2.89-.31,2.87,2.62a4.07,4.07,0,0,1-.13.65,6.47,6.47,0,0,1-6,0A18.06,18.06,0,0,1,15,764.16Z"/><path class="cls-1" d="M11.19,789.31c1.79.89,2.22,1.5,2.32,3,.14,2.21-1.35,3.12-3.25,3.85a3.34,3.34,0,0,0,4.21-1.61c.28-.46.47-1,.77-1.42a.69.69,0,0,1,.62-.2.67.67,0,0,1,.42.48,3.06,3.06,0,0,1-.21,1.21,4.48,4.48,0,0,1-4.41,2.52c-.88-.08-1.75-.37-2.64-.5-2-.3-4-.68-5.92.51,0,0-.14-.11-.24-.2A5.8,5.8,0,0,1,7.16,795c.58,0,1.36,0,1.69-.35a4.6,4.6,0,0,1,3.2-1.36,1,1,0,0,0,.78-1.69,3.46,3.46,0,0,0-1.59-.95,9,9,0,0,0-1.81-.29C10.16,790.27,11.09,790.5,11.19,789.31Z"/><path class="cls-1" d="M9.43,790.4l-.15,0,.05,0Z"/><path class="cls-1" d="M8.75,827.64c.88-.21,1.76-.37,2.65-.52,2-.35,3.45.67,4.52,2.27a2.18,2.18,0,0,1,.39,1.17,1.16,1.16,0,0,1-.52.79c-.11.07-.56-.18-.69-.39-.36-.54-.57-1.2-.95-1.72a3.1,3.1,0,0,0-4.08-1.11c3,1,4.11,2.7,3.23,5-.66,1.68-2.56,2.36-4.56,1.53l.66-.6v0c.46-.17.92-.38,1.4-.51s.93,0,1.21-.2A2.76,2.76,0,0,0,13,832c.07-.3-.43-1.07-.68-1.07a6.69,6.69,0,0,1-4-1.58c-.37-.28-1-.13-1.58-.23a13.38,13.38,0,0,1-2.08-.49,2,2,0,0,1-1.46-1.44A7.44,7.44,0,0,0,8.75,827.64Z"/><path class="cls-1" d="M9.8,1078.56l.1,0H9.85Z"/><path class="cls-1" d="M7.82,1072.69c.64-.14,1.28-.34,1.93-.43a15.43,15.43,0,0,1,2.86-.25c1.69.1,3.6,1.79,3.71,3.21,0,.33-.29.69-.45,1-.29-.17-.66-.28-.84-.53-.3-.43-.44-1-.73-1.44a3.06,3.06,0,0,0-4.15-1.22c1.65.42,3.06,1.08,3.32,2.92a3.07,3.07,0,0,1-1.5,3.42l-2.07-.82,1.64-.22a1.76,1.76,0,0,0,1.51-1.54c0-.7-.45-1.12-1.47-1.17a2.42,2.42,0,0,1-2-.64A2.93,2.93,0,0,0,7,1074a5.6,5.6,0,0,1-3.93-1.52c-.28-.25-.61-.56-.25-1A5.07,5.07,0,0,0,7.82,1072.69Z"/><path class="cls-1" d="M6.1,779c1.06-.05,2.12-.25,3.18-.39l0,0,.1,0H9.29a10.19,10.19,0,0,0,1.63.86,3.38,3.38,0,0,1,1.19,6c-1.09-.54-2.21-1-3.13.73,0-.54-.09-.74,0-.85a2,2,0,0,1,2-.84A1.82,1.82,0,0,0,13.05,783c0-.77-.39-1-1.79-1.28a3.8,3.8,0,0,1-1.91-.79,2.83,2.83,0,0,0-2.27-.8,5.23,5.23,0,0,1-3.93-1.49c-.28-.27-.32-.79-.46-1.19A3.76,3.76,0,0,0,6.1,779Z"/><path class="cls-1" d="M16,780.5c.3.58.72,1.32-.08,1.71s-.91-.48-1.15-1a4,4,0,0,0-4.3-2.51,4.35,4.35,0,0,1-1.12-.14c.5-.13,1-.3,1.5-.4A4.55,4.55,0,0,1,16,780.5Z"/><path class="cls-1" d="M21.83,1019.63c2.8,1.6,2.81,1.59,6.06,2a4.11,4.11,0,0,1,1.07.56C26.93,1023.28,24,1022.18,21.83,1019.63Z"/><path class="cls-1" d="M29,944.9c-1.23,1-2.6.36-3.69.9s-2.33,1.09-3.39,1.59C23.54,945.07,26.77,943.79,29,944.9Z"/><path class="cls-1" d="M21.77,921.65a20.73,20.73,0,0,0,3,1.53,30.15,30.15,0,0,0,3.31.6c.27.05.49.36.79.59C26.89,925.42,23.53,924.09,21.77,921.65Z"/><path class="cls-1" d="M27.74,993.24c.53,0,1,0,.94.8a26.59,26.59,0,0,0-3.75.79,25.65,25.65,0,0,0-3.44,1.8A8.59,8.59,0,0,1,27.74,993.24Z"/><path class="cls-1" d="M28.82,798.11a32.35,32.35,0,0,0-3.8.81,26.48,26.48,0,0,0-3.16,1.56C23.47,798.18,26.83,796.81,28.82,798.11Z"/><path class="cls-1" d="M22.18,1045.08c2.16-2.59,5.51-3.61,6.83-1.67C26.26,1043,24.2,1044,22.18,1045.08Z"/><path class="cls-1" d="M25.3,874.38a33.89,33.89,0,0,0,3.31.79l-.18.59c-2.64.37-4.6-.93-6.36-2.7C23.18,873.43,24.21,874,25.3,874.38Z"/><path class="cls-1" d="M28.83,847c-1.34.31-2.49.49-3.57.86A35.36,35.36,0,0,0,22,849.32C24.06,846.87,26.82,845.85,28.83,847Z"/><path class="cls-1" d="M22.29,971.12c1.24.51,2.21,1,3.24,1.31s2.08.45,3.47.73C26.64,974.27,24.27,973.47,22.29,971.12Z"/><path class="cls-1" d="M22.23,775a12.75,12.75,0,0,0,6.29,2C27.34,778.51,24.34,777.52,22.23,775Z"/><path class="cls-1" d="M28.87,896.08c-1.22.24-2.17.36-3.09.62s-2,.72-3.06,1.13A4.8,4.8,0,0,1,28.87,896.08Z"/><path class="cls-1" d="M22.44,1069.09c1,.43,2,.91,3,1.22a30.91,30.91,0,0,0,3.07.63c0,.13-.05.27-.07.4A5.57,5.57,0,0,1,22.44,1069.09Z"/><path class="cls-1" d="M22.65,824.36c1.21.47,2.14.91,3.11,1.18a29.6,29.6,0,0,0,3.1.53C26.94,827.27,24.42,826.54,22.65,824.36Z"/><path class="cls-1" d="M28.35,748.93c-.82.86-2,.39-2.83.79s-2,.83-3.23,1.35C24.31,748.84,26.55,748.06,28.35,748.93Z"/><path class="cls-1" d="M9.55,823.26c-1.2-.44-1.24-.5-2.22-2.9C8.17,821.24,8.41,822.62,9.55,823.26Z"/><path class="cls-1" d="M8.06,870.24a3.66,3.66,0,0,0-3.47-.58C7,868.9,7.07,868.89,8.06,870.24Z"/><path class="cls-1" d="M9.63,751.89h0l0,0h0v0Z"/><path class="cls-1" d="M9.6,751.9l-2.16,2.7C8.28,752.44,8.29,752.42,9.6,751.9Z"/><path class="cls-1" d="M7.09,853.15l-2.49-.44.05-.26a12.17,12.17,0,0,0,1.33.3,8.8,8.8,0,0,0,1.15,0C7.12,852.89,7.1,853,7.09,853.15Z"/><path class="cls-1" d="M8.49,1079.54l1.31-.91V1080Z"/><path class="cls-1" d="M9.8,1078.56l0,0,0,0Z"/><path class="cls-1" d="M9.42,873.1l.93,2.09C9.34,874.69,9.56,873.81,9.42,873.1Z"/><path class="cls-1" d="M10.3,847.11l-.87,2C9.56,848.36,9.28,847.44,10.3,847.11Z"/><path class="cls-1" d="M9.35,1045c.17-.72.34-1.43.5-2.15l.3.1C9.88,1043.59,9.62,1044.28,9.35,1045Z"/><path class="cls-1" d="M9.27,1045.23v-.06h0l.08-.21-.06.24Z"/><path class="cls-1" d="M8,1046.86l1.28-1.63C9.28,1046.27,9.26,1046.29,8,1046.86Z"/><path class="cls-1" d="M9.32,872.78a1.19,1.19,0,0,1,.1.32l-.13-.28a.64.64,0,0,1,0-.07l0,0Z"/><path class="cls-1" d="M9.31,872.75c-.16-.24-.29-.57-.52-.67-.86-.38-.83-1-.65-1.71a3.8,3.8,0,0,0,.78,1.24A.9.9,0,0,1,9.31,872.75Z"/><path class="cls-1" d="M8.14,870.37l0,0h0l-.07-.09.09.06A.15.15,0,0,0,8.14,870.37Z"/><path class="cls-1" d="M9.32,849.45l0-.05h0c0-.11.09-.21.13-.31a1.22,1.22,0,0,1-.1.34Z"/><path class="cls-1" d="M8,850.86l1.32-1.41C9.74,850.62,8.54,850.48,8,850.86Z"/><path class="cls-1" d="M9.74,801,7.8,802.27A1.92,1.92,0,0,1,9.74,801Z"/><path class="cls-1" d="M8.3,773l1.23,1.47C8.94,774.19,8.28,774,8.3,773Z"/><path class="cls-1" d="M9.88,777.38l0,0a.35.35,0,0,1,0-.11Z"/><path class="cls-1" d="M9.87,777.23c-.06-.57-.11-1.14-.17-1.71A3,3,0,0,1,9.87,777.23Z"/><path class="cls-1" d="M9.59,774.57l-.06-.07.08,0,.09,1a2.72,2.72,0,0,1-.11-.94Z"/><path class="cls-1" d="M9.4,741.21l.11,0H9.35l0-.06h0Z"/><path class="cls-1" d="M10.1,740.17l-.71,1-.69-.88Z"/><path class="cls-1" d="M7.06,804l.71-1.63C8.09,803.1,8,803.65,7.06,804Z"/><path class="cls-1" d="M7.77,802.32h0v0l0,0,0,.05Z"/><path class="cls-1" d="M9.28,790.43l0-.07,0,0Z"/><path class="cls-1" d="M8.7,789.44l1-.22-.43,1.14C9.14,790.09,9,789.83,8.7,789.44Z"/><path class="cls-1" d="M9.71,750.16l-.09,1.7-.15-1.69Z"/><path class="cls-1" d="M9.62,823.4v-.08h0s0,0-.07,0l.08,0Z"/><path class="cls-1" d="M9.44,825l.18-1.62L9.71,825Z"/><path class="cls-1" d="M11.85,936.82c.81,0,1.14.57,1.41,1.17a3.37,3.37,0,0,1-1.48,4.47c-.43.25-.88.48-1.52.82,2.1.32,3.32-.22,4.17-1.71a13.93,13.93,0,0,1,.62-1.29c.17-.24.55-.33.84-.49.17.34.48.68.47,1a2.2,2.2,0,0,1-.47,1.14,4.35,4.35,0,0,1-3.87,2.2,2.46,2.46,0,0,0-2.2.75,1.68,1.68,0,0,0-.38.18,1.06,1.06,0,0,0-.42.48,1.06,1.06,0,0,1,.42-.48,1.68,1.68,0,0,1,.38-.18h0l0,.05.59.06a4.79,4.79,0,0,0-.55.91c-.1.34,0,.73-.12,1.07a6.37,6.37,0,0,1-.56,1.47c-.31.54-.8,1-1.1,1.53-.64,1.14-1.12,1.31-2.41.75h-.2l-.12,0a3.15,3.15,0,0,0-.92.13c-2.14.79-2.57,2.39-1.15,4.21a5.75,5.75,0,0,0,3.79,2.23,8.46,8.46,0,0,0,4.73-.78,17.31,17.31,0,0,0,5.39-3.86,25.14,25.14,0,0,1,6.74-5.07,6.86,6.86,0,0,1,4-.67,1.05,1.05,0,0,1,1,1.37c-.13.94-.43,1.27-1.43,1.15a9.11,9.11,0,0,0-6,1.37c-1.63,1-3.12,2.23-4.7,3.32a31.4,31.4,0,0,1-4.94,3.25c-5,2.2-10-.23-11.48-5.52-.61-2.15-.6-4.3,1.22-6a2,2,0,0,0,.43-.57c1-2.32,2.95-3.16,5.38-3.16a2.33,2.33,0,0,0,1.49-.42,4.09,4.09,0,0,1,3-1.31c1.05,0,1.41-.89.86-1.77a1.54,1.54,0,0,0-1.81-.83c-1.16.29-1.76-.37-2.32-1.34a2.92,2.92,0,0,1,3.19.43Z"/><path class="cls-1" d="M11.16,887.46a3.41,3.41,0,0,0-2.54-.11l.81.81a.11.11,0,0,0,0,.06h.08c.41.67,1.09.48,1.71.57a2.44,2.44,0,0,1,1.42.56,1.17,1.17,0,0,1-.74,2.09,3.89,3.89,0,0,0-3,1.24A2,2,0,0,1,7.5,893a5.83,5.83,0,0,0-5.12,2.46H2.31a5.28,5.28,0,0,1-.77,1.38C-.1,898.45-.17,900.41.25,902.4a8.18,8.18,0,0,0,11.85,5.82,47.9,47.9,0,0,0,5.17-3.55c1.74-1.17,3.44-2.42,5.26-3.44a9.19,9.19,0,0,1,6.17-.71c.13-.74.24-1.4.35-2a3.21,3.21,0,0,0-2.66-.67c-2.69.39-4.76,1.93-6.76,3.58-1.44,1.18-2.73,2.53-4.15,3.74-2.35,2-5,3.38-8.2,3.08A5.26,5.26,0,0,1,2.67,905a3,3,0,0,1,.19-2.59c.06-.15.47-.14.71-.21l.06,0A11.08,11.08,0,0,1,5.69,902c1.48.18,1.9,0,2.49-1.35.05-.11,0-.28.11-.33,1.34-1,1.37-2.59,1.86-4,0,0,0,.07-.05.07l.7-1.33c2,.6,3.6-.28,4.9-1.9a4.34,4.34,0,0,0,.6-1.1c.19-.47.23-1-.35-1.22s-.81.24-1,.7a8.31,8.31,0,0,1-1.1,1.84c-.92,1-2.13,1.22-3.78.75a14.56,14.56,0,0,0,1.83-.76,3.13,3.13,0,0,0,1.7-3.31,2.6,2.6,0,0,0-2.3-2.59v0Zm-1.06,9h0c-.14-.53-.41-.59-.62-.47C9.69,895.84,10,895.9,10.1,896.43Z"/><path class="cls-1" d="M11.84,1034.72c.32.13.72.17.92.4a3.38,3.38,0,0,1-.94,5.21c-.44.25-.9.45-1.51.75a3.24,3.24,0,0,0,4-1.41c.32-.49.46-1.11.8-1.58a1.07,1.07,0,0,1,.88-.32c.18,0,.4.43.43.68a1.46,1.46,0,0,1-.21.85c-.91,1.59-2.1,2.76-4.09,2.75a2.59,2.59,0,0,0-2.22.7l0,.06h0l0,0,0,0,.06,0a1.16,1.16,0,0,0-1,1.31,1.35,1.35,0,0,1-1.49,1.55c-.46,1.92-.46,1.9-2.27,1.94A2.19,2.19,0,0,0,4,1048a3.35,3.35,0,0,0-.75,4.91A6.71,6.71,0,0,0,5,1054.38c2.23,1.34,4.52.95,6.75,0a18.27,18.27,0,0,0,5.8-4.21,23.19,23.19,0,0,1,6.65-4.88,6.1,6.1,0,0,1,3.51-.56,1.28,1.28,0,0,1,1.2,1.64c-.14.86-.69.89-1.45.92a17.59,17.59,0,0,0-4.23.56,17.77,17.77,0,0,0-6.08,3.77,32.52,32.52,0,0,1-4.05,3c-5.33,3.14-11.37.68-12.78-5.19-.64-2.65-.16-5,2.31-6.63.12-.08.16-.28.24-.43h0c0-.22-.13-.5,0-.61a5.53,5.53,0,0,1,4-1.8c.69,0,1.62,0,2-.42a4.45,4.45,0,0,1,3.19-1.32c1-.06,1.32-1,.74-1.84a1.84,1.84,0,0,0-1.84-.81c-1.39.07-1.5,0-2-1.43a3,3,0,0,1,2.93.57Z"/><path class="cls-1" d="M16.46,520.21c1.05.89,2.1,1.81,3.23,2.59,2.6,1.76,5.37,3,8.63,2.32.15,0,.32.1.47.16.25,2.1-.31,2.84-2.29,2.46a11.62,11.62,0,0,1-4.3-1.69,53.65,53.65,0,0,1-5.55-4.57,15.57,15.57,0,0,0-6.39-3.91c-2.65-.7-5-.29-6.89,1.87a2.8,2.8,0,0,0-.72,3.14c.38.9,1.77,1.31,3.11,1,1.14-.25,1.83,0,2.25.92.65,1.47,2.13,2.57,2,4.41,0,.19.24.4.37.61h0c.18.29.34.58.54.91a8.22,8.22,0,0,0,.86,0A4.49,4.49,0,0,1,16,532.83,2.2,2.2,0,0,1,16.4,534a1.1,1.1,0,0,1-.54.78c-.13.08-.58-.15-.71-.35-.31-.44-.47-1-.75-1.43a3.28,3.28,0,0,0-3.86-1.65c3,2,3.67,3.49,2.68,5.35-.81,1.51-2.62,2.08-4.8,1.25l1-.64h0c.54-.61,1.23-.43,1.93-.39A1.69,1.69,0,0,0,13,535.37c0-1-.71-1.08-1.49-1.14-.53,0-1.22-.06-1.53-.39a4.51,4.51,0,0,0-3.73-1.35,7.28,7.28,0,0,1-1.22-.31c-2.16-.4-2.37-2.78-3.87-3.88a3.08,3.08,0,0,1-1-1.87c-1-5.65,4.06-11.08,9.7-9.81A15.31,15.31,0,0,1,16.46,520.21Z"/><path class="cls-1" d="M19.46,571.61c2.61,1.86,5.42,3.13,8.76,2.5.15,0,.33.09.48.14.54,2.11.37,2.45-1.67,2.41a7.93,7.93,0,0,1-3.12-.65,23.46,23.46,0,0,1-6.75-5c-2.3-2.28-4.83-4.14-8.16-4.61a5.91,5.91,0,0,0-5.63,2.09c-1.33,1.53-1.22,2.89.24,4.42h0c.23.18.44.38.66.57-.22-.19-.43-.39-.66-.57h0a17.7,17.7,0,0,0,1.94-.19c1.69-.32,1.94-.23,2.62,1.26.1.22.1.56.26.65,1.42.79,1.33,2.12,1.34,3.42l.05.11v.06c1.11,0,.34.92.56,1.42.32-.05.61-.11.9-.14A4.58,4.58,0,0,1,16,581.91a1.7,1.7,0,0,1,.31.83,4.17,4.17,0,0,1-.41,1,2.88,2.88,0,0,1-.87-.46,4.51,4.51,0,0,1-.47-1c-1.1-2.06-2.51-2.6-4.94-1.78,1.87.16,3.28.83,3.8,2.63a3,3,0,0,1-1,3.39,3.46,3.46,0,0,1-3.61.61c.06-.23.06-.37.13-.44a2,2,0,0,1,.4-.29c.44-.92,1.27-.62,2-.65A1.63,1.63,0,0,0,13,584.26c-.08-.94-.78-1-1.55-1.15a3.73,3.73,0,0,1-2-.66,3.54,3.54,0,0,0-2.44-.9c-2.07-.12-3.89-.75-4.77-2.9a1.84,1.84,0,0,0-.54-.7,5.21,5.21,0,0,1-1.67-4.73c.33-4.36,4.33-7.87,8.07-7.74a12.32,12.32,0,0,1,7.37,3C16.85,569.49,18.09,570.63,19.46,571.61Z"/><path class="cls-1" d="M16.31,471.15c3.44,2.79,6.77,5.7,11.69,5,.25,0,.73.41.84.72a1.3,1.3,0,0,1-1.18,1.8,6.68,6.68,0,0,1-5.1-1.41,71.76,71.76,0,0,1-6-4.89,15.2,15.2,0,0,0-7.13-4,6.21,6.21,0,0,0-6.56,2.73,3.07,3.07,0,0,0,.12,3.4,2.27,2.27,0,0,0,2.67,1.31c.81-.2,1.25.24,1.47,1,.1.34.14.69.23,1.1,1.06-.13,1.45.42,1.49,1.36a1.7,1.7,0,0,0,1.5,1.76c.64.12,1.27.29,1.91.35a5,5,0,0,1,4,3.19,1.36,1.36,0,0,1-.33,1.21c-.56.37-.77-.22-1-.64a11.7,11.7,0,0,0-1.52-2.19,2.49,2.49,0,0,0-3-.51c2.94,1.61,3.8,3.23,2.82,5.18A3.36,3.36,0,0,1,8.8,489a1.59,1.59,0,0,1,1.63-1.15,8.69,8.69,0,0,0,1.25,0A1.6,1.6,0,0,0,13,486.21c-.15-.78-.68-1-1.45-1a2.94,2.94,0,0,1-1.83-.54,3.58,3.58,0,0,0-2.75-1,6,6,0,0,1-1.76-.34,4.44,4.44,0,0,1-2.46-1.82c1.23.28,2,1.05,3,.42a18.21,18.21,0,0,1-2.64-1,5.36,5.36,0,0,1-3.08-4.52c-.36-5,4.88-11.12,11.72-8.09A20.77,20.77,0,0,1,16.31,471.15Z"/><path class="cls-1" d="M8.6,590.58l.75.85h0l.06.05v0c.5.19,1,.41,1.51.56s1,0,1.18.19a2.86,2.86,0,0,1,.87,1.6c0,.63-.59,1-1.27.94a2.84,2.84,0,0,0-2.69,1c-.3.32-1,.34-1.46.45a25.52,25.52,0,0,0-2.79.57,3.36,3.36,0,0,0-2.08,1.94H2.61a5.61,5.61,0,0,1-.8,1.15c-2,1.75-2.07,4-1.43,6.28a8.11,8.11,0,0,0,10.86,5.7,16,16,0,0,0,4.91-3,51.31,51.31,0,0,1,4.43-3.38,9.75,9.75,0,0,1,7.33-1.81,2.87,2.87,0,0,0,.66,0c.63-1.93.07-2.91-1.73-2.63a10.28,10.28,0,0,0-4.17,1.49,70.79,70.79,0,0,0-6.56,5.31,14,14,0,0,1-5.67,3.36c-2.37.62-4.66.55-6.59-1.23-1.68-1.56-1.79-3-.41-4.88a3.58,3.58,0,0,0,.24-.48c1.89,1.3,3.71.92,4.57-1,0,0,0-.14.05-.17,1.52-.85,1.26-2.56,1.85-3.85l0,.07.66-1.33a4.49,4.49,0,0,0,4.85-1.83,5.1,5.1,0,0,0,.77-1.77c.05-.2-.32-.61-.58-.74s-.54.18-.7.39a5.72,5.72,0,0,0-.44,1c-1,1.94-2.36,2.57-4.84,2.05,1.5-.51,2.93-.85,3.42-2.31a4.48,4.48,0,0,0,.2-2.26C13.05,591,11.66,590.33,8.6,590.58Zm1.5,9.15h0c-.17-.32-.37-.46-.55-.44C9.73,599.27,9.93,599.41,10.1,599.73Z"/><path class="cls-1" d="M10.15,614.59C4.47,613-.79,618.39.2,624.2a6.63,6.63,0,0,0,1.16,2.19,14.68,14.68,0,0,0,1.12,1.38h0c.76,1.92,2.43,2.49,4.25,2.63a3.91,3.91,0,0,1,3,1.14c.36.41,1.18.48,1.81.59,1.08.18,1.48.47,1.42,1.19a1.68,1.68,0,0,1-1.74,1.46c-.71-.06-1.38-.22-1.89.43h0l-1.08.46c2.44.88,4.26.29,5-1.21,1-2,.12-3.53-3-5.27a3.19,3.19,0,0,1,3.6,1c.49.59.76,1.35,1.22,2,.2.27.64.36,1,.54.12-.37.4-.76.34-1.09a4.77,4.77,0,0,0-4.43-3.33c-.35,0-.7.09-1.12.14L10,626.91h0c-.09-.52-.18-1-.29-1.55-.08-.35-.08-.83-.3-1a5.66,5.66,0,0,1-1.58-2.26,1.66,1.66,0,0,0-1.3-.71,14.12,14.12,0,0,0-2.4.46H3.57a.78.78,0,0,0-.11-.2c-1.46-2-1.29-3.48.65-5.09a6.43,6.43,0,0,1,6.13-1.1,15.2,15.2,0,0,1,6.26,3.76A72.15,72.15,0,0,0,22.35,624a11.78,11.78,0,0,0,3.42,1.55,4.84,4.84,0,0,0,2.3,0c.77-.16.93-.87.79-1.59a1,1,0,0,0-1.17-.86c-4,.54-7-1.59-9.93-3.87a34.23,34.23,0,0,0-3.09-2.48A19.07,19.07,0,0,0,10.15,614.59Zm-.72,20.67c.23.31.37.48.55.55-.18-.07-.32-.24-.55-.55Z"/><path class="cls-1" d="M11.69,443.71a8.05,8.05,0,0,1,1.53,1.69,4.61,4.61,0,0,1,.24,2.11c-.07,1.74-1.7,2.21-3.08,3.25,3.21.41,4.06-1.91,5.18-3.8a1.35,1.35,0,0,1,.44,2.15,4.79,4.79,0,0,1-4.27,2.53c-1.81,0-2.58.6-2.86,2.26a1.36,1.36,0,0,1-1.51,1.26c-.43,1.84-.63,2.07-1.67,2.06a3,3,0,0,0-2.81,4.64,6.08,6.08,0,0,0,6.53,2.76,14.41,14.41,0,0,0,6.86-3.77c1.69-1.54,3.39-3.06,5.22-4.43a13.35,13.35,0,0,1,3.65-1.9,6.67,6.67,0,0,1,2.82-.15c.77.08,1.09.87.92,1.68s-.7.87-1.38.73a8.41,8.41,0,0,0-5.23,1,23.83,23.83,0,0,0-5.91,4.09A15.88,15.88,0,0,1,11,465.08c-5.1,1.76-9.75-1.54-10.79-6.38-.48-2.21-.24-4.41,1.81-5.83a10.57,10.57,0,0,1,3.42-1.45,17.12,17.12,0,0,1,3.39-.21c-1.07-.9-1.06-.88-2.1-.65-1.24.27-2.49.52-3.79.79.93-1.41,2.38-1.73,3.88-1.88a3.94,3.94,0,0,0,2.91-1.11c.35-.41,1.18-.45,1.82-.53,1-.13,1.5-.48,1.47-1.2a1.51,1.51,0,0,0-1.33-1.48,13.57,13.57,0,0,0-1.43,0,1.36,1.36,0,0,1-1.4-1.37C10.28,444.85,10.62,444.86,11.69,443.71Z"/><path class="cls-1" d="M9.51,346.64a10.93,10.93,0,0,0,1.3.51c.34.08.74-.07,1.07.05A1.54,1.54,0,0,1,13,348.82c-.06.82-.66,1.1-1.41,1a3.18,3.18,0,0,0-2.42.94,3.57,3.57,0,0,1-2,.67c-2.26.13-4.13.79-5.06,3.06a1.65,1.65,0,0,1-.33.43,7,7,0,0,0-.1,9.18c2.41,3.11,5.39,4.07,9.48,2.84a16.33,16.33,0,0,0,5.6-3.54,38.27,38.27,0,0,1,4-3,9.93,9.93,0,0,1,6.51-1.69,7.94,7.94,0,0,0,.84,0c.55-2,.24-2.41-1.58-2.45a6.43,6.43,0,0,0-4,1.38c-1.93,1.43-3.81,2.93-5.59,4.53a19.62,19.62,0,0,1-5.62,3.86,6.83,6.83,0,0,1-5.26.38,7.27,7.27,0,0,1-2.29-1.37c-1.93-1.82-2-2.95-.08-5.41a1.88,1.88,0,0,1,1.25-.58c1.84-.12,1.85-.09,2.36-1.95,1,0,1.34-.56,1.47-1.56a2.27,2.27,0,0,1,2.72-2.07,4.43,4.43,0,0,0,4.17-2,2.61,2.61,0,0,0,.37-.62c.17-.56.48-1.27-.24-1.57s-.86.45-1.06.93a3.79,3.79,0,0,1-4.05,2.65,5.32,5.32,0,0,1-.92-.32c1.86-.62,3.45-1.22,3.6-3.25A3.07,3.07,0,0,0,11.9,346,2.81,2.81,0,0,1,9.51,346.64ZM8,356.2,6.84,356,8,356.2c.29-.76.31-1.14-.06-1.34C8.28,355.06,8.26,355.44,8,356.2Z"/><path class="cls-1" d="M16.8,667.42c1.27.9,2.44,2,3.75,2.8a10.38,10.38,0,0,0,7.17,1.87,4.51,4.51,0,0,1,.83,0c.59,1.84.3,2.31-1.37,2.46a6.73,6.73,0,0,1-4-1,30.75,30.75,0,0,1-6.35-5,13.9,13.9,0,0,0-7.72-4.34,5.89,5.89,0,0,0-6,2.39c-1.15,1.53-1,2.7.42,4.09l0-.07a.39.39,0,0,0,.11.06c.88-.11,1.75-.28,2.63-.31a1.76,1.76,0,0,1,1.29.43c.7.95,1.26,2,1.87,3v0l0,.09,0,0c.13.79.25,1.58.37,2.36l.4-.06c-.08.87-.61,1.17-1.42,1.29a13.26,13.26,0,0,1-5.9-.6l0,0,0,0,.1,0c-3.17-2.2-3.59-5.2-2-8.53,2.13-4.57,6.48-6,11-4.14A27.5,27.5,0,0,1,16.8,667.42Z"/><path class="cls-1" d="M18.41,423.88c2.11,1.62,4.33,3.06,7.08,3.35.71.07,1.43,0,2.15,0a1.15,1.15,0,0,1,1.21,1.09,1.07,1.07,0,0,1-.88,1.35,2.83,2.83,0,0,1-1.4.13,17.16,17.16,0,0,1-3.39-1.16c-2.8-1.46-5-3.71-7.3-5.82s-5-3.73-8.4-3.51a5.27,5.27,0,0,0-4.8,3.28,3.06,3.06,0,0,0,2.79,4.26,2.24,2.24,0,0,1,1,.13c.91.56.58,2.26,2.09,2.35.07,0,.13.31.19.48l.87,2.53a8,8,0,0,1-6.83-.65A4.82,4.82,0,0,1,.2,428.42c-.95-5.4,3.36-9.91,7.75-9.93a11.31,11.31,0,0,1,7,2.53C16.13,421.92,17.22,423,18.41,423.88Z"/><path class="cls-1" d="M19.85,718.78a12.14,12.14,0,0,0,5.79,2.35,25.27,25.27,0,0,0,2.61,0c.56,2,.16,2.63-1.73,2.45a8.27,8.27,0,0,1-2.57-.71,21.89,21.89,0,0,1-6.37-4.67A19.46,19.46,0,0,0,12,714a8.43,8.43,0,0,0-4.55-.87,5.62,5.62,0,0,0-4.72,3.16,2.91,2.91,0,0,0,.46,3.21c.61.82,1.23,1.64,2.54,1.14.77-.29,1.2.32,1.44,1,.11.33.14,1,.29,1,1.34.24,1.32,1.34,1.62,2.29.1.31.57.51.89.75,0,.19,0,.5-.1.52a12.35,12.35,0,0,1-1.91.35,11.86,11.86,0,0,1-5.19-.86l0,0c-1.09-1-2.35-2-2.6-3.56-.83-5.29,3.46-9.91,7.92-9.8a12.54,12.54,0,0,1,7.67,3.15C17.12,716.62,18.44,717.77,19.85,718.78Z"/><path class="cls-1" d="M17.06,373.78c1.72,1.2,3.43,2.42,5.23,3.48a8.2,8.2,0,0,0,4.87,1c.35,0,.7,0,1,0,.68,1.88.34,2.54-1.4,2.46a6.64,6.64,0,0,1-2.75-.68,30.53,30.53,0,0,1-4.36-2.85c-1.5-1.18-2.82-2.61-4.29-3.83a11.93,11.93,0,0,0-7-3.1A5.88,5.88,0,0,0,2.91,373,2.9,2.9,0,0,0,3,376.42c.63.95,1.31,1.94,2.76,1.38.63-.24,1.06.15,1.28.7a11.39,11.39,0,0,1,.37,1.43c1-.07,1.44.39,1.47,1.36,0,.67.19,1.31,1,1.47l.24.43a1.45,1.45,0,0,1-.31.2,10.78,10.78,0,0,1-7.1-.58h0s0,0,0,0h0a9,9,0,0,1-1.28-1.26,7.07,7.07,0,0,1-1.23-2.35,8.62,8.62,0,0,1,4.21-8.7,8.53,8.53,0,0,1,8.61.31A46.19,46.19,0,0,1,17.06,373.78Z"/><path class="cls-1" d="M9.88,382.77h0v0Z"/><path class="cls-1" d="M8.76,696.26c.81.12,1.31.43,1.41,1.28a.55.55,0,0,0-.17.14c-.19.72-.38,1.45-.56,2.17h0l0,.08v0c-.57,1-1.08,2-1.74,2.89a1.26,1.26,0,0,1-1.84.35L3.67,703l-.16.07h0l0-.06h0a3.2,3.2,0,0,1,.29-.52,3.2,3.2,0,0,0-.29.52C2.17,704.4,2,705.5,3,707a5.9,5.9,0,0,0,3.27,2.39,7.76,7.76,0,0,0,6.39-1.06,30,30,0,0,0,4.54-3.5A31.35,31.35,0,0,1,23.51,700a5.65,5.65,0,0,1,5.14-.45c-.07.68-.13,1.35-.22,2.15-4.1-.67-7.19,1.11-10.12,3.33-.58.43-1.07,1-1.65,1.39A30.27,30.27,0,0,1,12,709.51a8,8,0,0,1-9.94-2.1c-2.31-2.81-3.44-7.73.83-10.49l-.11,0,.06,0,0,0A13,13,0,0,1,8.76,696.26Z"/><path class="cls-1" d="M9.72,402.81a6,6,0,0,0-.78,1.33c-.23.89,0,2-1.44,2.1-.11,0-.21.39-.29.61-.52,1.34-.52,1.28-1.87,1.28a2.76,2.76,0,0,0-1.63.5,3.26,3.26,0,0,0-.45,4.8,6.2,6.2,0,0,0,7,2,14.9,14.9,0,0,0,6.39-3.92A25.44,25.44,0,0,1,24,406a9.74,9.74,0,0,1,3.29-.75c1.19-.09,1.52.35,1.43,1.3s-.4,1.16-1.54,1.24a16.14,16.14,0,0,0-4.05.63,19.41,19.41,0,0,0-6.47,4.2,17,17,0,0,1-5.13,3.28c-5.15,2-9.8-.94-11.14-5.75-.53-1.94-.59-3.94,1-5.61C3.38,402.26,7.6,401.5,9.72,402.81Z"/><path class="cls-1" d="M12.49,511.21A5.07,5.07,0,0,1,6.62,511c3.29.78,5.74-.63,7.88-2.86.37-.39.73-.8,1.07-1.22a24.12,24.12,0,0,0,4-7.4,3.69,3.69,0,0,1,2.3-2.59,9,9,0,0,1,6.38.42,8.91,8.91,0,0,0-6,3.44c-1.95,2.36-3.81,4.81-5.86,7.08A19.53,19.53,0,0,1,12.49,511.21Z"/><path class="cls-1" d="M19.44,580a21,21,0,0,0-5-8.24c-2.05-2.06-4.31-3.46-7.43-2.93a3.49,3.49,0,0,1,3.13-.93,7.72,7.72,0,0,1,4.69,2.48C17,572.78,19,575.21,21,577.67c1.85,2.27,3.76,4.42,6.84,5.14a15.58,15.58,0,0,1-3.2.66A4.64,4.64,0,0,1,19.44,580Z"/><path class="cls-1" d="M16.17,606.1a11.1,11.1,0,0,1-4.41,3.35,4.84,4.84,0,0,1-5.07-.56c1.81.26,3.62.3,5.15-.81a21,21,0,0,0,3.38-2.93,22,22,0,0,0,4.4-7.81,3.64,3.64,0,0,1,2.49-2.64,8.79,8.79,0,0,1,6,.47c-3.31.59-5.15,2.62-6.89,4.79S17.87,604.07,16.17,606.1Z"/><path class="cls-1" d="M19.47,531.13a20.67,20.67,0,0,0-4.26-7.46c-2.24-2.57-4.74-4.61-8.56-3.7a4.49,4.49,0,0,1,4.54-.77A8.21,8.21,0,0,1,14.26,521c2.29,2.37,4.42,4.89,6.55,7.4,1.9,2.25,3.68,4.61,6.86,5.22,0,.13-.08.26-.11.38a22.91,22.91,0,0,1-2.83.48C22.26,534.61,20.31,533.83,19.47,531.13Z"/><path class="cls-1" d="M24.18,632.34a5,5,0,0,0,3.43-.81c-3.15-.77-5-3-6.79-5.23-1.58-2-3.1-4-4.83-5.83a16.87,16.87,0,0,0-4-3.05,4.68,4.68,0,0,0-5.39.44c3.85-.87,6.4,1.14,8.68,3.79A23.94,23.94,0,0,1,19.5,629C20.42,631.43,21.6,632.37,24.18,632.34Zm-2.73-2a3.4,3.4,0,0,1-.47-.57,3.4,3.4,0,0,0,.47.57,2.25,2.25,0,0,0,.6.4A2.25,2.25,0,0,1,21.45,630.35Zm-1.14-2.08c.06.18.12.37.18.53C20.43,628.64,20.37,628.45,20.31,628.27Zm0-.44-.16.08h0Z"/><path class="cls-1" d="M19.51,482.12a23.39,23.39,0,0,0-4.39-7.6c-2.3-2.61-4.95-4.49-8.92-3.3,2.18-1.49,3.5-1.65,5.57-.82a11.3,11.3,0,0,1,4.4,3.36q2.73,3.24,5.37,6.55c1.6,2,3.4,3.72,6,4.3,0,.15,0,.3,0,.45-1.12.11-2.23.29-3.35.31C21.43,485.42,20.46,484.72,19.51,482.12Z"/><path class="cls-1" d="M14.88,558.47a7.92,7.92,0,0,1-4.49,2.5,4.09,4.09,0,0,1-3.72-1c3,.7,5.28-.4,7.34-2.4a22.5,22.5,0,0,0,5.42-8.6c1-2.65,2.18-3.51,5-3.43a31.24,31.24,0,0,1,3.17.41c0,.14,0,.28-.05.42a9.65,9.65,0,0,0-4.84,3c-.81,1-1.6,1.94-2.42,2.9C18.49,554.31,16.73,556.44,14.88,558.47Z"/><path class="cls-1" d="M16.58,654.55a22,22,0,0,1-4.07,3.51,4.67,4.67,0,0,1-5.16.15c3.85.19,6.33-2,8.46-4.74a25.58,25.58,0,0,0,3.77-7,5.36,5.36,0,0,1,8-2.26,9.61,9.61,0,0,0-5.76,3.89C20.13,650.31,18.44,652.51,16.58,654.55Z"/><path class="cls-1" d="M19.45,677.91a20.19,20.19,0,0,0-4.28-7.44c-2.16-2.48-4.61-4.34-8.24-3.81a4.38,4.38,0,0,1,3.33-.83,8.11,8.11,0,0,1,4.64,2.59c2.3,2.6,4.53,5.27,6.77,7.93,1.67,2,3.44,3.75,6.15,4.3a11.9,11.9,0,0,1-2.64.67C22.4,681.61,20.29,680.69,19.45,677.91Z"/><path class="cls-1" d="M21.22,453.06c1.7-2.14,3.52-4.1,6.34-4.84a8.71,8.71,0,0,0-5-.49,3.74,3.74,0,0,0-2.94,2.85,22.38,22.38,0,0,1-4.31,7.65,16,16,0,0,1-2.92,2.65,5.81,5.81,0,0,1-6.16.72,4.51,4.51,0,0,0,4.37,1.32,10,10,0,0,0,5.48-3.6C17.83,457.28,19.54,455.18,21.22,453.06Zm0-3.29a4,4,0,0,0-.39.65A4,4,0,0,1,21.22,449.77Zm-.84,2.2,3.17-3h0Z"/><path class="cls-1" d="M19.56,433.31a24.27,24.27,0,0,0-4-7.22c-2.2-2.69-4.69-4.85-8.64-4.43a5.45,5.45,0,0,1,1.38-.57,5.76,5.76,0,0,1,4.33.76A25.13,25.13,0,0,1,16.32,425c1.78,1.95,3.38,4.06,5,6.12s3.59,4.12,6.55,4.62a7.41,7.41,0,0,1-1.91.61,13,13,0,0,1-2.16.09C21.49,436.37,20.36,435.54,19.56,433.31Z"/><path class="cls-1" d="M16.84,703.27a13.23,13.23,0,0,1-5,4.1A4.64,4.64,0,0,1,7,707c4,.74,6.46-1.64,8.71-4.3a23.24,23.24,0,0,0,4-7.24A4,4,0,0,1,24,692.39a32,32,0,0,1,3.87.48,12.37,12.37,0,0,0-6.35,4.67C20,699.45,18.43,701.39,16.84,703.27Z"/><path class="cls-1" d="M28.81,519.16c.06.76.14,1.29.14,1.82,0,1.79-.5,2.43-2.32,2.46a10.94,10.94,0,0,1-3.7-.51c-3.2-1.14-5.63-3.4-7.88-5.85a3.6,3.6,0,0,1-.23-.8A18.13,18.13,0,0,0,28.81,519.16Z"/><path class="cls-1" d="M12,364.47a4.84,4.84,0,0,1-5-.32,7.27,7.27,0,0,0,6.32-2,23.37,23.37,0,0,0,3.6-4.22,35.08,35.08,0,0,0,2.68-5.47A4.27,4.27,0,0,1,23,349.62a8.54,8.54,0,0,1,5,.67,9.15,9.15,0,0,0-5.46,3.25c-1.9,2.32-3.79,4.65-5.73,6.94A13.74,13.74,0,0,1,12,364.47Z"/><path class="cls-1" d="M23.9,508a11.78,11.78,0,0,1,3.88.05,1.22,1.22,0,0,1,1.12,1.23c0,.88,0,1.75,0,2.84a19,19,0,0,0-13.93,2.46C17.37,511.64,20.1,509,23.9,508Z"/><path class="cls-1" d="M16.93,409.28A23.13,23.13,0,0,1,13,412.93a5.06,5.06,0,0,1-6.24.09,5.82,5.82,0,0,0,4.36-.43,16.69,16.69,0,0,0,3.7-2.8,22.88,22.88,0,0,0,4.76-8c.92-2.52,2.08-3.31,4.73-3.28a11.88,11.88,0,0,1,2.15.22,5.9,5.9,0,0,1,1.29.67c-3,.5-4.55,2.33-6.11,4.17S18.57,407.45,16.93,409.28Z"/><path class="cls-1" d="M19.47,727a28.09,28.09,0,0,0-2.56-5.15c-2.43-3.54-5.09-6.91-10.24-6A5.15,5.15,0,0,1,11,715a8.15,8.15,0,0,1,3.95,2.41c2.31,2.61,4.55,5.29,6.77,8a12.28,12.28,0,0,0,5.85,4.35,12.53,12.53,0,0,1-1.37.36,13.08,13.08,0,0,1-2,.16C21.54,730.27,20.5,729.44,19.47,727Z"/><path class="cls-1" d="M28.81,617.14c.05.73.14,1.37.13,2,0,1.42-.29,1.89-1.71,2.05a9.36,9.36,0,0,1-3.88-.24c-3.66-1.22-6.38-3.76-9.09-7C21.05,617.49,21.15,617.51,28.81,617.14Z"/><path class="cls-1" d="M14.6,565.6c2.44.9,4.64,1.78,6.89,2.53s4.73.27,7.27.1c.08.76.18,1.39.21,2,.06,1.48-.18,1.8-1.62,2a8.39,8.39,0,0,1-5.26-.66A25,25,0,0,1,14.6,565.6Z"/><path class="cls-1" d="M19.36,383.88a23.83,23.83,0,0,0-2.49-5,23.38,23.38,0,0,0-3.5-4.07A7.1,7.1,0,0,0,6.69,373a4.79,4.79,0,0,1,5.28-.42,10.57,10.57,0,0,1,2.92,2c2,2.19,4,4.49,5.87,6.81s3.68,4.6,6.85,5.23l-.12.41a23.46,23.46,0,0,1-2.47.39C22.48,387.56,20.62,387.29,19.36,383.88Z"/><path class="cls-1" d="M23.84,605.9a10.06,10.06,0,0,1,3.71,0A1.84,1.84,0,0,1,28.81,607a3.63,3.63,0,0,1-.27,3,18.65,18.65,0,0,0-13.65,2.5C17.37,609.58,20.06,606.94,23.84,605.9Z"/><path class="cls-1" d="M21.74,459.79a8.55,8.55,0,0,1,4.87-.92c2,.19,2.51.75,2.32,2.77-.11,1.27-.38,1.48-1.74,1.28a13,13,0,0,0-6.05.27c-2.14.69-4.22,1.6-6.64,2.53A27.47,27.47,0,0,1,21.74,459.79Z"/><path class="cls-1" d="M15.09,664s0-.2,0-.31.25-.07.33,0c3.79,2.21,7.79,3.34,12.21,2.49a1.22,1.22,0,0,1,.95.32,2.45,2.45,0,0,1-1.25,3.7,7.85,7.85,0,0,1-4.42-.31A22.12,22.12,0,0,1,15.09,664Z"/><path class="cls-1" d="M16,660a32,32,0,0,1,3.15-2.69,22.36,22.36,0,0,1,3.58-2.07,6.83,6.83,0,0,1,4.93-.36c1.19.35,1.61,1.45,1.26,3-.21.92-.46,1-2,.84a16.17,16.17,0,0,0-8.31,1.08c-1.14.47-2.24,1.05-3.36,1.58l-.18-.17A7.53,7.53,0,0,1,16,660Z"/><path class="cls-1" d="M17.72,560.59a39.41,39.41,0,0,1,5-3.2,6.55,6.55,0,0,1,4.75-.44c1.34.35,1.81,1.38,1.45,3-.22,1-.57,1.13-2.12.89a15.86,15.86,0,0,0-9,1.42c-.86.39-1.69.84-2.54,1.27l-.24-.32A26.59,26.59,0,0,1,17.72,560.59Z"/><path class="cls-1" d="M15.32,467.76c1.19.56,2.36,1.18,3.58,1.66a16.35,16.35,0,0,0,8.31,1,1.86,1.86,0,0,1,1.44.33,2.43,2.43,0,0,1-1.28,3.6,6.93,6.93,0,0,1-4.08-.22A16.8,16.8,0,0,1,15.32,467.76Z"/><path class="cls-1" d="M18.66,706.7a13.4,13.4,0,0,1,5.69-3,5.29,5.29,0,0,1,3.51.27c.34.17.78.55.79.84a26.26,26.26,0,0,1-.22,2.94c-7.62-.49-8,.08-13.91,2.75C15.9,709.26,17.21,707.89,18.66,706.7Z"/><path class="cls-1" d="M18.8,363.73a11.6,11.6,0,0,1,5.57-2.79,10.26,10.26,0,0,1,3.17.15,1.42,1.42,0,0,1,.92.94,3.8,3.8,0,0,1-.32,3.06c-4.91-1.15-9.32.27-13.64,2.62C15.93,366.38,17.31,365,18.8,363.73Z"/><path class="cls-1" d="M14.55,418.55c2.22.87,4.38,1.82,6.61,2.57s4.72.44,7.27.11c.09,1,.15,1.79.25,2.6a1,1,0,0,1-.87,1.33,9.75,9.75,0,0,1-3.16.23C20.28,424.58,17.41,421.53,14.55,418.55Z"/><path class="cls-1" d="M14.88,712.5c3.9,2.12,7.88,3.58,12.4,2.71.3-.06.92.1,1,.26a8.8,8.8,0,0,1,.31,2.78c0,.37-.82.82-1.33.94a7.55,7.55,0,0,1-5.22-.77A21.08,21.08,0,0,1,14.88,712.5Z"/><path class="cls-1" d="M22.51,410.47a7.77,7.77,0,0,1,4.75-.56c1.18.24,1.37.51,1.37,1.7a9.75,9.75,0,0,1,0,1.08c-.12,1.15-.31,1.25-1.49,1.22a35.37,35.37,0,0,0-4.83,0,20.94,20.94,0,0,0-7.39,2.71A20.81,20.81,0,0,1,22.51,410.47Z"/><path class="cls-1" d="M15,369.55c.63.34,1.25.7,1.89,1a15.89,15.89,0,0,0,8.84,2c2.88-.28,2.89-.31,2.87,2.62a4.07,4.07,0,0,1-.13.65,6.47,6.47,0,0,1-6,0A18.06,18.06,0,0,1,15,369.55Z"/><path class="cls-1" d="M11.19,394.69c1.79.9,2.22,1.51,2.32,3,.14,2.21-1.35,3.12-3.25,3.85a3.34,3.34,0,0,0,4.21-1.61c.28-.46.47-1,.77-1.42a.69.69,0,0,1,.62-.2.67.67,0,0,1,.42.48,3.06,3.06,0,0,1-.21,1.21,4.49,4.49,0,0,1-4.41,2.52c-.88-.09-1.75-.37-2.64-.5-2-.3-4-.68-5.92.51,0,0-.14-.11-.24-.2a5.8,5.8,0,0,1,4.3-1.91c.58,0,1.36,0,1.69-.35a4.56,4.56,0,0,1,3.2-1.36,1,1,0,0,0,.78-1.69,3.38,3.38,0,0,0-1.59-.95,9,9,0,0,0-1.81-.29C10.16,395.66,11.09,395.89,11.19,394.69Z"/><path class="cls-1" d="M9.43,395.79l-.15,0,.05,0Z"/><path class="cls-1" d="M8.75,433c.88-.21,1.76-.38,2.65-.52,2-.35,3.45.67,4.52,2.27a2.18,2.18,0,0,1,.39,1.17,1.18,1.18,0,0,1-.52.79c-.11.07-.56-.18-.69-.39-.36-.55-.57-1.2-.95-1.72a3.09,3.09,0,0,0-4.08-1.11c3,1,4.11,2.7,3.23,5-.66,1.68-2.56,2.35-4.56,1.53l.66-.6s0,0,0,0a13.76,13.76,0,0,1,1.4-.51c.4-.11.93,0,1.21-.2a2.81,2.81,0,0,0,1-1.38c.07-.3-.43-1.07-.68-1.07a6.69,6.69,0,0,1-4-1.58c-.37-.28-1-.13-1.58-.23a13.41,13.41,0,0,1-2.08-.5,2,2,0,0,1-1.46-1.44A7.4,7.4,0,0,0,8.75,433Z"/><path class="cls-1" d="M10.23,695.4a1.81,1.81,0,0,0,.24.24,1,1,0,0,0,.35.08,3.77,3.77,0,0,0,4-2.67c.2-.48.38-1.2,1.07-.91s.48,1,.27,1.56a2.76,2.76,0,0,1-.37.61,4.24,4.24,0,0,1-4.13,2c-1.36-.16-2.71-.49-4.06-.75a5,5,0,0,0-4.74,1.25c-.36-.4-.05-.72.23-1A6.2,6.2,0,0,1,7,694.32a3.33,3.33,0,0,0,1.86-.43,4.34,4.34,0,0,1,3-1.24,1.06,1.06,0,0,0,.85-1.78,3.28,3.28,0,0,0-1.45-.88,6.36,6.36,0,0,0-1.46-.23l2.09-.84C14.68,691.06,14,693.71,10.23,695.4Z"/><path class="cls-1" d="M9.89,689.76l-.1,0,.05,0Z"/><path class="cls-1" d="M9.8,684l.1,0H9.85Z"/><path class="cls-1" d="M7.82,678.08c.64-.15,1.28-.34,1.93-.43a15.43,15.43,0,0,1,2.86-.25c1.69.1,3.6,1.78,3.71,3.21,0,.33-.29.69-.45,1-.29-.17-.66-.28-.84-.53-.3-.43-.44-1-.73-1.44a3.06,3.06,0,0,0-4.15-1.22c1.65.42,3.06,1.08,3.32,2.92a3,3,0,0,1-1.5,3.41L9.9,684l1.64-.22a1.76,1.76,0,0,0,1.51-1.54c0-.71-.45-1.12-1.47-1.18a2.38,2.38,0,0,1-2-.63,2.93,2.93,0,0,0-2.56-1,5.64,5.64,0,0,1-3.93-1.52c-.28-.25-.61-.56-.25-1A5.07,5.07,0,0,0,7.82,678.08Z"/><path class="cls-1" d="M6.1,384.36c1.06-.06,2.12-.25,3.18-.39l0,0,.1,0H9.29a10.19,10.19,0,0,0,1.63.86,3.38,3.38,0,0,1,1.19,6c-1.09-.54-2.21-1-3.13.73,0-.54-.09-.74,0-.85a2,2,0,0,1,2-.84,1.83,1.83,0,0,0,2.07-1.53c0-.77-.39-1-1.79-1.28a3.8,3.8,0,0,1-1.91-.79,2.87,2.87,0,0,0-2.27-.81A5.18,5.18,0,0,1,3.15,384c-.28-.27-.32-.79-.46-1.19A3.76,3.76,0,0,0,6.1,384.36Z"/><path class="cls-1" d="M6.31,727.24a30.05,30.05,0,0,0,3-.41l0,0,.09,0h0a7.55,7.55,0,0,0,1.63.87,3.12,3.12,0,0,1,2.48,2.54,2.94,2.94,0,0,1-1.26,3.41,5.3,5.3,0,0,0-1.77-.39c-.49.06-.93.53-1.49.88a1.88,1.88,0,0,1,.1-.6,2.06,2.06,0,0,1,2.06-.77,1.78,1.78,0,0,0,2-1.62c-.08-1-.91-1.07-1.71-1.2a3.28,3.28,0,0,1-1.8-.61,3.28,3.28,0,0,0-2.75-1A5,5,0,0,1,3,726.65c-.18-.19-.12-.6-.18-.91l0,0A3.77,3.77,0,0,0,6.31,727.24Z"/><path class="cls-1" d="M16,385.89c.3.58.72,1.32-.08,1.71s-.91-.49-1.15-1a4,4,0,0,0-4.3-2.51A4.35,4.35,0,0,1,9.34,384c.5-.13,1-.3,1.5-.4A4.55,4.55,0,0,1,16,385.89Z"/><path class="cls-1" d="M16,728.8c.27.54.6,1.24,0,1.61-.8.46-1-.36-1.2-.89a4,4,0,0,0-4.3-2.58,5.52,5.52,0,0,1-1.14-.12c.51-.14,1-.32,1.51-.41A4.57,4.57,0,0,1,16,728.8Z"/><path class="cls-1" d="M21.83,625c2.8,1.59,2.81,1.58,6.06,2a4.36,4.36,0,0,1,1.07.55C26.93,628.67,24,627.57,21.83,625Z"/><path class="cls-1" d="M29,550.29c-1.23,1-2.6.36-3.69.9s-2.33,1.09-3.39,1.59C23.54,550.46,26.77,549.18,29,550.29Z"/><path class="cls-1" d="M21.77,527a20.73,20.73,0,0,0,3,1.53,32.72,32.72,0,0,0,3.31.6c.27.05.49.36.79.59C26.89,530.81,23.53,529.48,21.77,527Z"/><path class="cls-1" d="M27.74,598.63c.53,0,1,0,.94.8a26.59,26.59,0,0,0-3.75.79,25.65,25.65,0,0,0-3.44,1.8A8.56,8.56,0,0,1,27.74,598.63Z"/><path class="cls-1" d="M28.82,403.5a32.35,32.35,0,0,0-3.8.81,26.48,26.48,0,0,0-3.16,1.56C23.47,403.57,26.83,402.2,28.82,403.5Z"/><path class="cls-1" d="M22.18,650.47c2.16-2.59,5.51-3.61,6.83-1.67C26.26,648.38,24.2,649.38,22.18,650.47Z"/><path class="cls-1" d="M25.3,479.77a33.89,33.89,0,0,0,3.31.79l-.18.59c-2.64.37-4.6-.93-6.36-2.71C23.18,478.82,24.21,479.39,25.3,479.77Z"/><path class="cls-1" d="M28.83,452.37c-1.34.31-2.49.49-3.57.86A35.36,35.36,0,0,0,22,454.71C24.06,452.25,26.82,451.24,28.83,452.37Z"/><path class="cls-1" d="M22.29,576.51c1.24.51,2.21,1,3.24,1.31s2.08.44,3.47.72C26.64,579.66,24.27,578.86,22.29,576.51Z"/><path class="cls-1" d="M22.23,380.41a12.75,12.75,0,0,0,6.29,2C27.34,383.9,24.34,382.91,22.23,380.41Z"/><path class="cls-1" d="M22.41,723.54c1.79.6,3.84,1.27,6,2C27.08,726.66,23.81,725.5,22.41,723.54Z"/><path class="cls-1" d="M28.87,501.46c-1.22.24-2.17.37-3.09.63s-2,.72-3.06,1.13A4.81,4.81,0,0,1,28.87,501.46Z"/><path class="cls-1" d="M22.44,674.48c1,.43,2,.91,3,1.22a30.91,30.91,0,0,0,3.07.63c0,.13-.05.27-.07.4A5.57,5.57,0,0,1,22.44,674.48Z"/><path class="cls-1" d="M22.65,429.75c1.21.47,2.14.91,3.11,1.18a29.76,29.76,0,0,0,3.1.52C26.94,432.66,24.42,431.93,22.65,429.75Z"/><path class="cls-1" d="M28.5,697.38c-1.21.24-2.25.37-3.24.67s-1.84.78-2.76,1.17C24.67,696.89,26.83,696.21,28.5,697.38Z"/><path class="cls-1" d="M28.35,354.32c-.82.86-2,.39-2.83.79s-2,.83-3.23,1.35C24.31,354.23,26.55,353.45,28.35,354.32Z"/><path class="cls-1" d="M9.55,428.65c-1.2-.44-1.24-.5-2.22-2.91C8.17,426.63,8.41,428,9.55,428.65Z"/><path class="cls-1" d="M8.06,475.63a3.66,3.66,0,0,0-3.47-.58C7,474.28,7.07,474.28,8.06,475.63Z"/><path class="cls-1" d="M9.63,357.28h0l0,0h0Z"/><path class="cls-1" d="M9.6,357.29,7.44,360C8.28,357.82,8.29,357.8,9.6,357.29Z"/><path class="cls-1" d="M7.09,458.54,4.6,458.1l.05-.26a12.17,12.17,0,0,0,1.33.3,8.8,8.8,0,0,0,1.15,0C7.12,458.28,7.1,458.41,7.09,458.54Z"/><path class="cls-1" d="M9.79,689.8v-.06h.05Z"/><path class="cls-1" d="M8.88,688.55l.91-.18v1.37A1.12,1.12,0,0,1,8.88,688.55Z"/><path class="cls-1" d="M8.49,684.93,9.8,684v1.37Z"/><path class="cls-1" d="M9.8,684l0,0,0,0Z"/><path class="cls-1" d="M9.42,478.49l.93,2.09C9.34,480.08,9.56,479.2,9.42,478.49Z"/><path class="cls-1" d="M10.3,452.49c-.29.68-.58,1.33-.87,2C9.56,453.75,9.28,452.83,10.3,452.49Z"/><path class="cls-1" d="M9.35,650.35c.17-.72.34-1.43.5-2.15l.3.1C9.88,649,9.62,649.67,9.35,650.35Z"/><path class="cls-1" d="M9.27,650.62v-.06h0l.08-.21-.06.24Z"/><path class="cls-1" d="M8,652.25l1.28-1.63C9.28,651.66,9.26,651.68,8,652.25Z"/><path class="cls-1" d="M8.32,721.26l1.16,1.48C8.94,722.39,8.19,722.24,8.32,721.26Z"/><path class="cls-1" d="M9.32,478.17a1.19,1.19,0,0,1,.1.32l-.13-.28s0,0,0-.08,0,0,0,0Z"/><path class="cls-1" d="M9.31,478.13c-.16-.23-.29-.56-.52-.66-.86-.38-.83-1-.65-1.71A3.8,3.8,0,0,0,8.92,477,.89.89,0,0,1,9.31,478.13Z"/><path class="cls-1" d="M8.14,475.76l0,0h0l-.07-.09.09.05A.22.22,0,0,0,8.14,475.76Z"/><path class="cls-1" d="M9.32,454.84l0,0h0l.13-.3a1.33,1.33,0,0,1-.1.34Z"/><path class="cls-1" d="M8,456.25l1.32-1.41C9.74,456,8.54,455.87,8,456.25Z"/><path class="cls-1" d="M9.74,406.4,7.8,407.66A1.91,1.91,0,0,1,9.74,406.4Z"/><path class="cls-1" d="M8.3,378.42l1.23,1.47C8.94,379.58,8.28,379.34,8.3,378.42Z"/><path class="cls-1" d="M9.88,382.76l0,0a.35.35,0,0,1,0-.11Z"/><path class="cls-1" d="M9.87,382.62c-.06-.57-.11-1.15-.17-1.72A3.08,3.08,0,0,1,9.87,382.62Z"/><path class="cls-1" d="M9.59,380l-.06-.07.08,0,.09,1a2.64,2.64,0,0,1-.11-.93Z"/><path class="cls-1" d="M9.4,346.6l.11,0H9.35l0-.06h0Z"/><path class="cls-1" d="M10.1,345.56l-.71,1c-.18-.24-.37-.47-.69-.88Z"/><path class="cls-1" d="M9.56,722.84l-.08-.1.11.06c0,.05,0,.09,0,.14s0-.06,0-.09Z"/><path class="cls-1" d="M9.57,722.94c.12.9.24,1.8.37,2.7A4.09,4.09,0,0,1,9.57,722.94Z"/><path class="cls-1" d="M9.94,725.64l0,.06h0l0,0v-.05Z"/><path class="cls-1" d="M7.06,409.34l.71-1.63C8.09,408.49,8,409,7.06,409.34Z"/><path class="cls-1" d="M7.77,407.71v0h0l0,0,0,0Z"/><path class="cls-1" d="M9.28,395.82l0-.07,0,0Z"/><path class="cls-1" d="M8.7,394.83l1-.22-.43,1.14C9.14,395.48,9,395.21,8.7,394.83Z"/><path class="cls-1" d="M9.71,355.55l-.09,1.7-.15-1.69Z"/><path class="cls-1" d="M9.62,428.79v-.08h0s0,0-.07-.05l.08,0Z"/><path class="cls-1" d="M9.44,430.41l.18-1.62.09,1.63Z"/><path class="cls-1" d="M11.85,542.21c.81,0,1.14.57,1.41,1.17a3.37,3.37,0,0,1-1.48,4.47c-.43.25-.88.48-1.52.82,2.1.32,3.32-.22,4.17-1.71a13.93,13.93,0,0,1,.62-1.29c.17-.24.55-.33.84-.49.17.34.48.68.47,1a2.2,2.2,0,0,1-.47,1.14,4.37,4.37,0,0,1-3.87,2.2,2.43,2.43,0,0,0-2.2.75,1.68,1.68,0,0,0-.38.18,1.06,1.06,0,0,0-.42.48,1.06,1.06,0,0,1,.42-.48,1.68,1.68,0,0,1,.38-.18h0l0,.05.59,0a5.18,5.18,0,0,0-.55.92c-.1.34,0,.73-.12,1.07a6.37,6.37,0,0,1-.56,1.47c-.31.54-.8,1-1.1,1.53-.64,1.14-1.12,1.31-2.41.75h-.2l-.12,0a3.52,3.52,0,0,0-.92.12c-2.14.8-2.57,2.4-1.15,4.22a5.75,5.75,0,0,0,3.79,2.23,8.46,8.46,0,0,0,4.73-.78A17.47,17.47,0,0,0,17.17,558a25.14,25.14,0,0,1,6.74-5.07,6.86,6.86,0,0,1,4-.67,1.05,1.05,0,0,1,1,1.37c-.13.94-.43,1.27-1.43,1.15a9.1,9.1,0,0,0-6,1.36c-1.63,1-3.12,2.24-4.7,3.33a31.4,31.4,0,0,1-4.94,3.25c-5,2.2-10-.24-11.48-5.52-.61-2.15-.6-4.3,1.22-6a2,2,0,0,0,.43-.57c1-2.33,2.95-3.16,5.38-3.17A2.26,2.26,0,0,0,8.89,547a4.09,4.09,0,0,1,3-1.31c1.05,0,1.41-.89.86-1.78a1.54,1.54,0,0,0-1.81-.82c-1.16.29-1.76-.37-2.32-1.34a2.92,2.92,0,0,1,3.19.43Z"/><path class="cls-1" d="M11.16,492.85a3.41,3.41,0,0,0-2.54-.11l.81.81a.11.11,0,0,0,0,.06h.08c.41.67,1.09.48,1.71.57a2.5,2.5,0,0,1,1.42.55,1.17,1.17,0,0,1-.74,2.1,3.89,3.89,0,0,0-3,1.24,2,2,0,0,1-1.35.36,5.83,5.83,0,0,0-5.12,2.46H2.31a5.28,5.28,0,0,1-.77,1.38C-.1,503.84-.17,505.8.25,507.79a8.18,8.18,0,0,0,11.85,5.82,47.9,47.9,0,0,0,5.17-3.55c1.74-1.18,3.44-2.42,5.26-3.44a9.19,9.19,0,0,1,6.17-.71c.13-.74.24-1.4.35-2a3.21,3.21,0,0,0-2.66-.67c-2.69.39-4.76,1.93-6.76,3.58-1.44,1.18-2.73,2.53-4.15,3.74-2.35,2-5,3.37-8.2,3.08a5.26,5.26,0,0,1-4.61-3.24,3,3,0,0,1,.19-2.59c.06-.15.47-.14.71-.21l.06-.06a10.27,10.27,0,0,1,2.06-.12c1.48.18,1.9,0,2.49-1.35.05-.11,0-.28.11-.33,1.34-1,1.37-2.59,1.86-4l-.05.07.7-1.33c2,.59,3.6-.28,4.9-1.9a4.34,4.34,0,0,0,.6-1.1c.19-.47.23-1-.35-1.22s-.81.24-1,.7a8.31,8.31,0,0,1-1.1,1.84c-.92,1-2.13,1.22-3.78.74a13.2,13.2,0,0,0,1.83-.75,3.13,3.13,0,0,0,1.7-3.31,2.6,2.6,0,0,0-2.3-2.59v0Zm-1.06,9h0c-.14-.53-.41-.6-.62-.47C9.69,501.22,10,501.29,10.1,501.81Z"/><path class="cls-1" d="M11.84,640.11c.32.13.72.17.92.4a3.38,3.38,0,0,1-.94,5.21c-.44.25-.9.45-1.51.75a3.24,3.24,0,0,0,4-1.41c.32-.5.46-1.11.8-1.59a1.09,1.09,0,0,1,.88-.31c.18,0,.4.42.43.68a1.46,1.46,0,0,1-.21.85c-.91,1.58-2.1,2.76-4.09,2.74a2.65,2.65,0,0,0-2.22.7l0,.07h0l0,0,0,0,.06-.06a1.17,1.17,0,0,0-1,1.32A1.35,1.35,0,0,1,7.4,651c-.46,1.92-.46,1.9-2.27,1.94a2.19,2.19,0,0,0-1.16.4,3.34,3.34,0,0,0-.75,4.9A6.74,6.74,0,0,0,5,659.77c2.23,1.34,4.52,1,6.75,0a18.15,18.15,0,0,0,5.8-4.22,23.34,23.34,0,0,1,6.65-4.87,6,6,0,0,1,3.51-.56,1.27,1.27,0,0,1,1.2,1.64c-.14.85-.69.89-1.45.92a17.58,17.58,0,0,0-4.23.55A18,18,0,0,0,17.12,657a32.52,32.52,0,0,1-4.05,3c-5.33,3.14-11.37.68-12.78-5.19-.64-2.65-.16-5,2.31-6.63.12-.08.16-.28.24-.43h0c0-.22-.13-.51,0-.61a5.53,5.53,0,0,1,4-1.8c.69,0,1.62,0,2-.42A4.45,4.45,0,0,1,12,643.62c1-.07,1.32-1,.74-1.84a1.84,1.84,0,0,0-1.84-.81c-1.39.07-1.5-.05-2-1.43a3,3,0,0,1,2.93.57Z"/><path class="cls-1" d="M16.46,125.6a39.67,39.67,0,0,0,3.23,2.58c2.6,1.77,5.37,3,8.63,2.32.15,0,.32.11.47.17.25,2.1-.31,2.83-2.29,2.46a11.62,11.62,0,0,1-4.3-1.69,53.65,53.65,0,0,1-5.55-4.57A15.57,15.57,0,0,0,10.26,123c-2.65-.7-5-.29-6.89,1.87A2.8,2.8,0,0,0,2.65,128c.38.9,1.77,1.31,3.11,1,1.14-.25,1.83,0,2.25.92.65,1.47,2.13,2.57,2,4.41,0,.19.24.4.37.61h0c.18.29.34.57.54.91.27,0,.57,0,.86,0A4.49,4.49,0,0,1,16,138.22a2.2,2.2,0,0,1,.38,1.17,1.11,1.11,0,0,1-.54.78c-.13.08-.58-.15-.71-.35-.31-.44-.47-1-.75-1.43a3.28,3.28,0,0,0-3.86-1.65c3,2,3.67,3.49,2.68,5.35-.81,1.51-2.62,2.08-4.8,1.25l1-.64h0c.54-.61,1.23-.43,1.93-.4A1.67,1.67,0,0,0,13,140.76c0-1-.71-1.09-1.49-1.14a2.6,2.6,0,0,1-1.53-.39,4.47,4.47,0,0,0-3.73-1.35,7.28,7.28,0,0,1-1.22-.31c-2.16-.4-2.37-2.78-3.87-3.88a3.14,3.14,0,0,1-1-1.87c-1-5.65,4.06-11.08,9.7-9.82A15.33,15.33,0,0,1,16.46,125.6Z"/><path class="cls-1" d="M19.46,177c2.61,1.86,5.42,3.12,8.76,2.5.15,0,.33.09.48.14.54,2.11.37,2.45-1.67,2.41a8.29,8.29,0,0,1-3.12-.65,23.64,23.64,0,0,1-6.75-5.05c-2.3-2.28-4.83-4.14-8.16-4.61a5.91,5.91,0,0,0-5.63,2.09c-1.33,1.53-1.22,2.89.24,4.42h0c.23.17.44.38.66.57-.22-.19-.43-.4-.66-.57h0a17.7,17.7,0,0,0,1.94-.19c1.69-.33,1.94-.23,2.62,1.26.1.21.1.56.26.65,1.42.79,1.33,2.12,1.34,3.42l.05.11v.06c1.11,0,.34.92.56,1.42l.9-.15A4.6,4.6,0,0,1,16,187.3a1.64,1.64,0,0,1,.31.83,4.32,4.32,0,0,1-.41,1,2.88,2.88,0,0,1-.87-.46,4.51,4.51,0,0,1-.47-1c-1.1-2.07-2.51-2.6-4.94-1.78,1.87.16,3.28.83,3.8,2.62a3,3,0,0,1-1,3.4,3.46,3.46,0,0,1-3.61.61c.06-.23.06-.37.13-.44a2,2,0,0,1,.4-.29c.44-.92,1.27-.62,2-.65A1.63,1.63,0,0,0,13,189.65c-.08-.94-.78-1-1.55-1.15a3.82,3.82,0,0,1-2-.66,3.54,3.54,0,0,0-2.44-.9c-2.07-.12-3.89-.75-4.77-2.9a1.77,1.77,0,0,0-.54-.7,5.21,5.21,0,0,1-1.67-4.73c.33-4.36,4.33-7.87,8.07-7.74a12.32,12.32,0,0,1,7.37,3C16.85,174.87,18.09,176,19.46,177Z"/><path class="cls-1" d="M16.31,76.54c3.44,2.79,6.77,5.7,11.69,5,.25,0,.73.41.84.72a1.3,1.3,0,0,1-1.18,1.8,6.68,6.68,0,0,1-5.1-1.41,71.76,71.76,0,0,1-6-4.89,15.2,15.2,0,0,0-7.13-4A6.18,6.18,0,0,0,2.88,76.5,3.07,3.07,0,0,0,3,79.9a2.27,2.27,0,0,0,2.67,1.31c.81-.2,1.25.24,1.47,1,.1.34.14.69.23,1.1,1.06-.13,1.45.42,1.49,1.36a1.71,1.71,0,0,0,1.5,1.76c.64.12,1.27.29,1.91.35a5,5,0,0,1,4,3.19A1.37,1.37,0,0,1,16,91.15c-.56.37-.77-.22-1-.64a11.39,11.39,0,0,0-1.52-2.19,2.49,2.49,0,0,0-3-.51c2.94,1.6,3.8,3.23,2.82,5.18A3.37,3.37,0,0,1,8.8,94.41a1.59,1.59,0,0,1,1.63-1.15,8.69,8.69,0,0,0,1.25,0A1.6,1.6,0,0,0,13,91.6c-.15-.78-.68-1-1.45-1A2.94,2.94,0,0,1,9.75,90,3.54,3.54,0,0,0,7,89a6,6,0,0,1-1.76-.34,4.41,4.41,0,0,1-2.46-1.83c1.23.29,2,1.06,3,.43a18.21,18.21,0,0,1-2.64-1A5.36,5.36,0,0,1,.06,81.73c-.36-5,4.88-11.12,11.72-8.09A20.77,20.77,0,0,1,16.31,76.54Z"/><path class="cls-1" d="M8.6,196l.75.85h0l.06.05v0c.5.19,1,.41,1.51.56s1,0,1.18.19a2.86,2.86,0,0,1,.87,1.6c0,.63-.59,1-1.27.93A2.87,2.87,0,0,0,9,201.18c-.3.32-1,.34-1.46.45a25.52,25.52,0,0,0-2.79.57,3.36,3.36,0,0,0-2.08,1.94H2.61a5.61,5.61,0,0,1-.8,1.15c-2,1.75-2.07,4-1.43,6.28a8.11,8.11,0,0,0,10.86,5.7,16.21,16.21,0,0,0,4.91-3,53.29,53.29,0,0,1,4.43-3.37,9.75,9.75,0,0,1,7.33-1.81,2.87,2.87,0,0,0,.66,0c.63-1.93.07-2.91-1.73-2.63a10.28,10.28,0,0,0-4.17,1.49,70.79,70.79,0,0,0-6.56,5.31,14.08,14.08,0,0,1-5.67,3.36c-2.37.62-4.66.55-6.59-1.24-1.68-1.55-1.79-3-.41-4.87a3.58,3.58,0,0,0,.24-.48c1.89,1.3,3.71.92,4.57-1,0-.05,0-.15.05-.17,1.52-.85,1.26-2.56,1.85-3.85a.43.43,0,0,0,0,.07l.66-1.33a4.48,4.48,0,0,0,4.85-1.84,4.94,4.94,0,0,0,.77-1.77c.05-.19-.32-.6-.58-.73s-.54.18-.7.39a5.72,5.72,0,0,0-.44,1c-1,1.94-2.36,2.57-4.84,2,1.5-.51,2.93-.85,3.42-2.31a4.48,4.48,0,0,0,.2-2.26C13.05,196.37,11.66,195.71,8.6,196Zm1.5,9.15h0c-.17-.32-.37-.46-.55-.44C9.73,204.66,9.93,204.8,10.1,205.12Z"/><path class="cls-1" d="M10.15,220c-5.68-1.55-10.94,3.8-10,9.61a6.63,6.63,0,0,0,1.16,2.19,14.68,14.68,0,0,0,1.12,1.38h0c.76,1.92,2.43,2.49,4.25,2.62a4,4,0,0,1,3,1.15c.36.41,1.18.48,1.81.58,1.08.19,1.48.48,1.42,1.2a1.68,1.68,0,0,1-1.74,1.46c-.71-.06-1.38-.22-1.89.43h0l-1.08.46c2.44.88,4.26.29,5-1.21,1-2,.12-3.53-3-5.28a3.21,3.21,0,0,1,3.6,1c.49.59.76,1.35,1.22,2,.2.27.64.36,1,.54.12-.37.4-.76.34-1.09a4.77,4.77,0,0,0-4.43-3.33c-.35,0-.7.09-1.12.14L10,232.29l0,0c-.09-.52-.18-1-.29-1.55-.08-.35-.08-.84-.3-1a5.66,5.66,0,0,1-1.58-2.26,1.66,1.66,0,0,0-1.3-.71,14.12,14.12,0,0,0-2.4.46H3.57a.78.78,0,0,0-.11-.2c-1.46-2-1.29-3.48.65-5.09a6.46,6.46,0,0,1,6.13-1.11,15.33,15.33,0,0,1,6.26,3.77,72.15,72.15,0,0,0,5.85,4.78,11.78,11.78,0,0,0,3.42,1.55,4.84,4.84,0,0,0,2.3,0c.77-.16.93-.87.79-1.59a1,1,0,0,0-1.17-.87c-4,.55-7-1.58-9.93-3.86a34.23,34.23,0,0,0-3.09-2.48A19.07,19.07,0,0,0,10.15,220Zm-.72,20.67c.23.31.37.48.55.55-.18-.07-.32-.24-.55-.55Z"/><path class="cls-1" d="M11.69,49.1a7.81,7.81,0,0,1,1.53,1.69,4.61,4.61,0,0,1,.24,2.11c-.07,1.73-1.7,2.21-3.08,3.24,3.21.42,4.06-1.9,5.18-3.79A1.34,1.34,0,0,1,16,54.49,4.77,4.77,0,0,1,11.73,57c-1.81,0-2.58.61-2.86,2.27a1.35,1.35,0,0,1-1.51,1.25c-.43,1.85-.63,2.08-1.67,2.07a3,3,0,0,0-2.81,4.64A6.06,6.06,0,0,0,9.41,70a14.31,14.31,0,0,0,6.86-3.76c1.69-1.54,3.39-3.06,5.22-4.43a13.35,13.35,0,0,1,3.65-1.9A6.67,6.67,0,0,1,28,59.76c.77.08,1.09.86.92,1.68s-.7.87-1.38.73a8.34,8.34,0,0,0-5.23.95,23.57,23.57,0,0,0-5.91,4.09A15.88,15.88,0,0,1,11,70.47C5.91,72.23,1.26,68.93.22,64.09-.26,61.88,0,59.68,2,58.26A10.82,10.82,0,0,1,5.45,56.8a18.77,18.77,0,0,1,3.39-.21c-1.07-.89-1.06-.87-2.1-.64-1.24.27-2.49.52-3.79.79.93-1.41,2.38-1.73,3.88-1.88a4,4,0,0,0,2.91-1.12c.35-.4,1.18-.44,1.82-.52,1-.14,1.5-.48,1.47-1.2a1.53,1.53,0,0,0-1.33-1.49c-.46-.1-1,0-1.43-.05a1.35,1.35,0,0,1-1.4-1.36C10.28,50.24,10.62,50.25,11.69,49.1Z"/><path class="cls-1" d="M16.8,272.81c1.27.9,2.44,1.95,3.75,2.8a10.32,10.32,0,0,0,7.17,1.86,5.56,5.56,0,0,1,.83,0c.59,1.84.3,2.31-1.37,2.46a6.66,6.66,0,0,1-4-1,30.38,30.38,0,0,1-6.35-5,13.84,13.84,0,0,0-7.72-4.34,5.87,5.87,0,0,0-6,2.39c-1.15,1.53-1,2.7.42,4.09l0-.07a.39.39,0,0,0,.11.06,26.17,26.17,0,0,1,2.63-.31,1.72,1.72,0,0,1,1.29.43c.7,1,1.26,2,1.87,3v0l0,.09,0,0c.13.79.25,1.57.37,2.36l.4-.06c-.08.87-.61,1.17-1.42,1.29a13.12,13.12,0,0,1-5.9-.61l0,0a.1.1,0,0,0,0,0l.1,0C-.26,280-.68,277,.87,273.69c2.13-4.57,6.48-6.06,11-4.14A27.5,27.5,0,0,1,16.8,272.81Z"/><path class="cls-1" d="M18.41,29.27c2.11,1.62,4.33,3.06,7.08,3.35.71.07,1.43,0,2.15,0a1.15,1.15,0,0,1,1.21,1.09A1.07,1.07,0,0,1,28,35.07a3,3,0,0,1-1.4.13A17.16,17.16,0,0,1,23.18,34c-2.8-1.46-5-3.71-7.3-5.83s-5-3.72-8.4-3.5A5.27,5.27,0,0,0,2.68,28a3.06,3.06,0,0,0,2.79,4.26,2.24,2.24,0,0,1,1,.13c.91.56.58,2.26,2.09,2.35.07,0,.13.31.19.48l.87,2.53a8,8,0,0,1-6.83-.65A4.82,4.82,0,0,1,.2,33.81C-.75,28.41,3.56,23.9,8,23.88a11.3,11.3,0,0,1,7,2.52C16.13,27.31,17.22,28.36,18.41,29.27Z"/><path class="cls-1" d="M19.85,324.17a12.14,12.14,0,0,0,5.79,2.35,25.27,25.27,0,0,0,2.61,0c.56,2,.16,2.63-1.73,2.45a8.27,8.27,0,0,1-2.57-.71,21.89,21.89,0,0,1-6.37-4.67A19.67,19.67,0,0,0,12,319.42a8.52,8.52,0,0,0-4.55-.86,5.62,5.62,0,0,0-4.72,3.16,2.91,2.91,0,0,0,.46,3.21c.61.82,1.23,1.64,2.54,1.14.77-.29,1.2.32,1.44,1,.11.33.14.95.29,1,1.34.24,1.32,1.34,1.62,2.29.1.31.57.51.89.75,0,.19,0,.5-.1.52a12.35,12.35,0,0,1-1.91.35,12,12,0,0,1-5.19-.86l0,0c-1.09-1-2.35-2-2.6-3.56-.83-5.29,3.46-9.91,7.92-9.8a12.54,12.54,0,0,1,7.67,3.15C17.12,322,18.44,323.16,19.85,324.17Z"/><path class="cls-1" d="M8.76,301.65c.81.12,1.31.43,1.41,1.28a.44.44,0,0,0-.17.14c-.19.72-.38,1.44-.56,2.17h0l0,.08v0a33.7,33.7,0,0,1-1.74,2.9,1.26,1.26,0,0,1-1.84.35l-2.17-.11-.16.07h0l0-.06h0a3.2,3.2,0,0,1,.29-.52,3.2,3.2,0,0,0-.29.52C2.17,309.78,2,310.89,3,312.36a6,6,0,0,0,3.27,2.39,7.76,7.76,0,0,0,6.39-1.06,29.44,29.44,0,0,0,4.54-3.51,31.68,31.68,0,0,1,6.28-4.78,5.65,5.65,0,0,1,5.14-.45c-.07.68-.13,1.35-.22,2.15-4.1-.67-7.19,1.11-10.12,3.33-.58.43-1.07,1-1.65,1.39A30.27,30.27,0,0,1,12,314.9a8,8,0,0,1-9.94-2.1c-2.31-2.81-3.44-7.73.83-10.49l-.11,0,.06-.05,0,0A13,13,0,0,1,8.76,301.65Z"/><path class="cls-1" d="M9.72,8.2a6,6,0,0,0-.78,1.33c-.23.89,0,2-1.44,2.1-.11,0-.21.39-.29.61-.52,1.34-.52,1.28-1.87,1.27A2.84,2.84,0,0,0,3.71,14a3.26,3.26,0,0,0-.45,4.8,6.22,6.22,0,0,0,7,2,14.83,14.83,0,0,0,6.39-3.93A25.59,25.59,0,0,1,24,11.38a9.74,9.74,0,0,1,3.29-.75c1.19-.09,1.52.35,1.43,1.3s-.4,1.16-1.54,1.23a15.71,15.71,0,0,0-4.05.64A19.38,19.38,0,0,0,16.61,18a16.8,16.8,0,0,1-5.13,3.29c-5.15,2-9.8-.94-11.14-5.75-.53-1.94-.59-3.94,1-5.61C3.38,7.65,7.6,6.89,9.72,8.2Z"/><path class="cls-1" d="M12.49,116.6a5.07,5.07,0,0,1-5.87-.23c3.29.78,5.74-.63,7.88-2.86.37-.39.73-.81,1.07-1.23a24,24,0,0,0,4-7.4,3.73,3.73,0,0,1,2.3-2.59,9,9,0,0,1,6.38.43,8.91,8.91,0,0,0-6,3.44c-1.95,2.36-3.81,4.81-5.86,7.08A19.53,19.53,0,0,1,12.49,116.6Z"/><path class="cls-1" d="M19.44,185.43a21,21,0,0,0-5-8.24c-2.05-2.06-4.31-3.46-7.43-2.93a3.53,3.53,0,0,1,3.13-.94,7.78,7.78,0,0,1,4.69,2.49C17,178.17,19,180.6,21,183.06c1.85,2.27,3.76,4.41,6.84,5.13a14.36,14.36,0,0,1-3.2.66A4.64,4.64,0,0,1,19.44,185.43Z"/><path class="cls-1" d="M16.17,211.49a11.1,11.1,0,0,1-4.41,3.35,4.82,4.82,0,0,1-5.07-.57c1.81.26,3.62.31,5.15-.8a21,21,0,0,0,3.38-2.93,22,22,0,0,0,4.4-7.81,3.64,3.64,0,0,1,2.49-2.64,8.79,8.79,0,0,1,6,.47c-3.31.59-5.15,2.61-6.89,4.79S17.87,209.46,16.17,211.49Z"/><path class="cls-1" d="M19.47,136.52a20.67,20.67,0,0,0-4.26-7.46c-2.24-2.57-4.74-4.61-8.56-3.7a4.49,4.49,0,0,1,4.54-.77,8.19,8.19,0,0,1,3.07,1.78c2.29,2.38,4.42,4.9,6.55,7.41,1.9,2.25,3.68,4.61,6.86,5.22,0,.13-.08.25-.11.38a22.91,22.91,0,0,1-2.83.48C22.26,140,20.31,139.22,19.47,136.52Z"/><path class="cls-1" d="M24.18,237.73a5.07,5.07,0,0,0,3.43-.81c-3.15-.77-5-3-6.79-5.23-1.58-2-3.1-4-4.83-5.83a16.87,16.87,0,0,0-4-3.05,4.64,4.64,0,0,0-5.39.44c3.85-.87,6.4,1.14,8.68,3.79a23.94,23.94,0,0,1,4.19,7.32C20.42,236.82,21.6,237.76,24.18,237.73Zm-2.73-2a3.4,3.4,0,0,1-.47-.57,3.4,3.4,0,0,0,.47.57,2.25,2.25,0,0,0,.6.4A2.25,2.25,0,0,1,21.45,235.74Zm-1.14-2.08c.06.18.12.37.18.53C20.43,234,20.37,233.84,20.31,233.66Zm0-.44-.16.08h0Z"/><path class="cls-1" d="M19.51,87.51a23.39,23.39,0,0,0-4.39-7.6c-2.3-2.61-4.95-4.49-8.92-3.3,2.18-1.49,3.5-1.65,5.57-.82a11.3,11.3,0,0,1,4.4,3.36q2.73,3.24,5.37,6.55c1.6,2,3.4,3.72,6,4.3,0,.15,0,.3,0,.45-1.12.11-2.23.29-3.35.31C21.43,90.81,20.46,90.11,19.51,87.51Z"/><path class="cls-1" d="M14.88,163.86a7.92,7.92,0,0,1-4.49,2.5,4.09,4.09,0,0,1-3.72-1c3,.7,5.28-.4,7.34-2.4a22.58,22.58,0,0,0,5.42-8.6c1-2.65,2.18-3.51,5-3.43a31.24,31.24,0,0,1,3.17.41c0,.14,0,.28-.05.42a9.58,9.58,0,0,0-4.84,3c-.81,1-1.6,1.94-2.42,2.9C18.49,159.7,16.73,161.83,14.88,163.86Z"/><path class="cls-1" d="M16.58,259.94a22,22,0,0,1-4.07,3.51,4.65,4.65,0,0,1-5.16.14c3.85.2,6.33-2,8.46-4.73a25.73,25.73,0,0,0,3.77-7,5.36,5.36,0,0,1,8-2.26,9.57,9.57,0,0,0-5.76,3.89C20.13,255.7,18.44,257.9,16.58,259.94Z"/><path class="cls-1" d="M19.45,283.3a20.19,20.19,0,0,0-4.28-7.44c-2.16-2.48-4.61-4.34-8.24-3.81a4.34,4.34,0,0,1,3.33-.83,8.11,8.11,0,0,1,4.64,2.59c2.3,2.6,4.53,5.27,6.77,7.92,1.67,2,3.44,3.76,6.15,4.31a12.48,12.48,0,0,1-2.64.67C22.4,287,20.29,286.08,19.45,283.3Z"/><path class="cls-1" d="M21.22,58.45c1.7-2.14,3.52-4.1,6.34-4.84a8.63,8.63,0,0,0-5-.49A3.74,3.74,0,0,0,19.6,56a22.38,22.38,0,0,1-4.31,7.65,16,16,0,0,1-2.92,2.65A5.81,5.81,0,0,1,6.21,67a4.53,4.53,0,0,0,4.37,1.32,10,10,0,0,0,5.48-3.6C17.83,62.67,19.54,60.57,21.22,58.45Zm0-3.29a4.35,4.35,0,0,0-.39.64A4.35,4.35,0,0,1,21.22,55.16Zm-.84,2.2,3.17-3h0Z"/><path class="cls-1" d="M19.56,38.7a24.27,24.27,0,0,0-4-7.22c-2.2-2.69-4.69-4.85-8.64-4.44a5.8,5.8,0,0,1,1.38-.56,5.8,5.8,0,0,1,4.33.75,25.19,25.19,0,0,1,3.67,3.15c1.78,1.95,3.38,4.05,5,6.11s3.59,4.13,6.55,4.63a7.41,7.41,0,0,1-1.91.61,13,13,0,0,1-2.16.09C21.49,41.76,20.36,40.93,19.56,38.7Z"/><path class="cls-1" d="M16.84,308.66a13.23,13.23,0,0,1-5,4.1A4.66,4.66,0,0,1,7,312.37c4,.73,6.46-1.65,8.71-4.3a23.35,23.35,0,0,0,4-7.24A4.05,4.05,0,0,1,24,297.77a34.11,34.11,0,0,1,3.87.49,12.26,12.26,0,0,0-6.35,4.67C20,304.84,18.43,306.78,16.84,308.66Z"/><path class="cls-1" d="M28.81,124.55c.06.76.14,1.29.14,1.82,0,1.79-.5,2.43-2.32,2.46a10.7,10.7,0,0,1-3.7-.52c-3.2-1.13-5.63-3.39-7.88-5.85-.09-.1-.09-.3-.23-.79A18.13,18.13,0,0,0,28.81,124.55Z"/><path class="cls-1" d="M23.9,113.42a11.78,11.78,0,0,1,3.88,0,1.22,1.22,0,0,1,1.12,1.23c0,.87,0,1.75,0,2.84A19,19,0,0,0,14.93,120C17.37,117,20.1,114.42,23.9,113.42Z"/><path class="cls-1" d="M16.93,14.67A23.54,23.54,0,0,1,13,18.32a5.06,5.06,0,0,1-6.24.09A5.87,5.87,0,0,0,11.1,18a16.69,16.69,0,0,0,3.7-2.8,22.88,22.88,0,0,0,4.76-8c.92-2.52,2.08-3.31,4.73-3.28a12.84,12.84,0,0,1,2.15.21,6.6,6.6,0,0,1,1.29.68c-3,.5-4.55,2.33-6.11,4.17S18.57,12.84,16.93,14.67Z"/><path class="cls-1" d="M19.47,332.34a28.09,28.09,0,0,0-2.56-5.15c-2.43-3.54-5.09-6.92-10.24-6a5.12,5.12,0,0,1,4.3-.75,8.08,8.08,0,0,1,3.95,2.41c2.31,2.61,4.55,5.29,6.77,8a12.24,12.24,0,0,0,5.85,4.36,12.53,12.53,0,0,1-1.37.36,13.08,13.08,0,0,1-2,.16C21.54,335.66,20.5,334.83,19.47,332.34Z"/><path class="cls-1" d="M28.81,222.53c.05.73.14,1.37.13,2,0,1.42-.29,1.89-1.71,2.05a9.2,9.2,0,0,1-3.88-.25c-3.66-1.21-6.38-3.75-9.09-7C21.05,222.88,21.15,222.9,28.81,222.53Z"/><path class="cls-1" d="M14.6,171c2.44.9,4.64,1.78,6.89,2.53s4.73.27,7.27.1c.08.75.18,1.39.21,2,.06,1.47-.18,1.8-1.62,2a8.46,8.46,0,0,1-5.26-.66A25,25,0,0,1,14.6,171Z"/><path class="cls-1" d="M23.84,211.29a10.06,10.06,0,0,1,3.71,0,1.84,1.84,0,0,1,1.26,1.06,3.64,3.64,0,0,1-.27,3,18.64,18.64,0,0,0-13.65,2.49C17.37,215,20.06,212.33,23.84,211.29Z"/><path class="cls-1" d="M21.74,65.18a8.47,8.47,0,0,1,4.87-.92c2,.19,2.51.75,2.32,2.77-.11,1.27-.38,1.48-1.74,1.27a13.28,13.28,0,0,0-6.05.27c-2.14.7-4.22,1.6-6.64,2.54A27.47,27.47,0,0,1,21.74,65.18Z"/><path class="cls-1" d="M15.09,269.38c0-.05,0-.2,0-.31s.25-.07.33,0c3.79,2.21,7.79,3.33,12.21,2.49a1.22,1.22,0,0,1,.95.32,2.44,2.44,0,0,1-1.25,3.69,7.76,7.76,0,0,1-4.42-.3A22.12,22.12,0,0,1,15.09,269.38Z"/><path class="cls-1" d="M16,265.42a32,32,0,0,1,3.15-2.69,22.36,22.36,0,0,1,3.58-2.07,6.83,6.83,0,0,1,4.93-.36c1.19.34,1.61,1.45,1.26,3-.21.92-.46,1-2,.84a16.28,16.28,0,0,0-8.31,1.07c-1.14.48-2.24,1.06-3.36,1.59l-.18-.17A7.53,7.53,0,0,1,16,265.42Z"/><path class="cls-1" d="M17.72,166a39.41,39.41,0,0,1,5-3.2,6.55,6.55,0,0,1,4.75-.44c1.34.34,1.81,1.38,1.45,3-.22,1-.57,1.13-2.12.89a15.86,15.86,0,0,0-9,1.42c-.86.39-1.69.84-2.54,1.26l-.24-.31A26.59,26.59,0,0,1,17.72,166Z"/><path class="cls-1" d="M15.32,73.14c1.19.57,2.36,1.19,3.58,1.67a16.35,16.35,0,0,0,8.31,1,1.89,1.89,0,0,1,1.44.32,2.44,2.44,0,0,1-1.28,3.61,6.93,6.93,0,0,1-4.08-.22A16.77,16.77,0,0,1,15.32,73.14Z"/><path class="cls-1" d="M18.66,312.09a13.4,13.4,0,0,1,5.69-3,5.29,5.29,0,0,1,3.51.27c.34.17.78.55.79.84a26.26,26.26,0,0,1-.22,2.94c-7.62-.49-8,.08-13.91,2.75C15.9,314.64,17.21,313.28,18.66,312.09Z"/><path class="cls-1" d="M14.55,23.94c2.22.87,4.38,1.82,6.61,2.57s4.72.44,7.27.11c.09,1,.15,1.79.25,2.6a1,1,0,0,1-.87,1.33,9.75,9.75,0,0,1-3.16.23C20.28,30,17.41,26.92,14.55,23.94Z"/><path class="cls-1" d="M14.88,317.89c3.9,2.12,7.88,3.58,12.4,2.71.3-.06.92.1,1,.26a8.8,8.8,0,0,1,.31,2.78c0,.37-.82.82-1.33.94a7.6,7.6,0,0,1-5.22-.77A21.08,21.08,0,0,1,14.88,317.89Z"/><path class="cls-1" d="M22.51,15.86a7.77,7.77,0,0,1,4.75-.56c1.18.24,1.37.51,1.37,1.7a9.75,9.75,0,0,1,0,1.08c-.12,1.15-.31,1.25-1.49,1.22a32.43,32.43,0,0,0-4.83,0A20.94,20.94,0,0,0,14.88,22,20.81,20.81,0,0,1,22.51,15.86Z"/><path class="cls-1" d="M11.19.08c1.79.89,2.22,1.51,2.32,3,.14,2.21-1.35,3.12-3.25,3.84a3.33,3.33,0,0,0,4.21-1.6c.28-.46.47-1,.77-1.42a.69.69,0,0,1,.62-.2.67.67,0,0,1,.42.48,3.06,3.06,0,0,1-.21,1.21,4.49,4.49,0,0,1-4.41,2.52c-.88-.09-1.75-.37-2.64-.51-2-.29-4-.68-5.92.52,0,0-.14-.11-.24-.2a5.77,5.77,0,0,1,4.3-1.91c.58,0,1.36,0,1.69-.35a4.51,4.51,0,0,1,3.2-1.36,1,1,0,0,0,.78-1.69,3.38,3.38,0,0,0-1.59-.95,9,9,0,0,0-1.81-.29C10.16,1.05,11.09,1.28,11.19.08Z"/><path class="cls-1" d="M9.43,1.18l-.15,0,.05,0Z"/><path class="cls-1" d="M8.75,38.42c.88-.21,1.76-.38,2.65-.52,2-.35,3.45.67,4.52,2.27a2.18,2.18,0,0,1,.39,1.17,1.18,1.18,0,0,1-.52.79c-.11.07-.56-.18-.69-.39-.36-.55-.57-1.2-.95-1.72a3.09,3.09,0,0,0-4.08-1.11c3,1,4.11,2.7,3.23,4.94-.66,1.68-2.56,2.36-4.56,1.54l.66-.6v0a13.76,13.76,0,0,1,1.4-.51c.4-.11.93,0,1.21-.2a2.81,2.81,0,0,0,1-1.38c.07-.31-.43-1.07-.68-1.07a6.69,6.69,0,0,1-4-1.58c-.37-.28-1-.13-1.58-.23a13.41,13.41,0,0,1-2.08-.5,2,2,0,0,1-1.46-1.44A7.4,7.4,0,0,0,8.75,38.42Z"/><path class="cls-1" d="M10.23,300.79a1.29,1.29,0,0,0,.24.23.82.82,0,0,0,.35.09,3.78,3.78,0,0,0,4-2.67c.2-.48.38-1.2,1.07-.91s.48,1,.27,1.56a2.76,2.76,0,0,1-.37.61,4.24,4.24,0,0,1-4.13,2c-1.36-.16-2.71-.49-4.06-.75a5,5,0,0,0-4.74,1.25c-.36-.4-.05-.72.23-1A6.2,6.2,0,0,1,7,299.71a3.33,3.33,0,0,0,1.86-.43A4.34,4.34,0,0,1,12,298a1.06,1.06,0,0,0,.85-1.78,3.11,3.11,0,0,0-1.45-.88,6.36,6.36,0,0,0-1.46-.23l2.09-.84C14.68,296.44,14,299.1,10.23,300.79Z"/><path class="cls-1" d="M9.89,295.15l-.1,0,.05-.05Z"/><path class="cls-1" d="M9.8,289.33l.1,0H9.85Z"/><path class="cls-1" d="M7.82,283.47c.64-.15,1.28-.34,1.93-.43a15.43,15.43,0,0,1,2.86-.25c1.69.09,3.6,1.78,3.71,3.21,0,.33-.29.69-.45,1-.29-.17-.66-.28-.84-.53-.3-.43-.44-1-.73-1.44a3.06,3.06,0,0,0-4.15-1.22c1.65.42,3.06,1.08,3.32,2.92a3,3,0,0,1-1.5,3.41l-2.07-.81,1.64-.22a1.76,1.76,0,0,0,1.51-1.55c0-.7-.45-1.11-1.47-1.17a2.38,2.38,0,0,1-2-.63,2.93,2.93,0,0,0-2.56-1,5.69,5.69,0,0,1-3.93-1.52c-.28-.25-.61-.56-.25-1A5.07,5.07,0,0,0,7.82,283.47Z"/><path class="cls-1" d="M6.31,332.63a30.05,30.05,0,0,0,3-.41l0,0,.09,0h0a7.55,7.55,0,0,0,1.63.87,3.11,3.11,0,0,1,2.48,2.54A2.94,2.94,0,0,1,12.16,339a5.3,5.3,0,0,0-1.77-.39c-.49.06-.93.53-1.49.88a1.88,1.88,0,0,1,.1-.6,2.06,2.06,0,0,1,2.06-.77,1.78,1.78,0,0,0,2-1.62c-.08-1-.91-1.07-1.71-1.2a3.28,3.28,0,0,1-1.8-.61,3.25,3.25,0,0,0-2.75-1A5,5,0,0,1,3,332c-.18-.19-.12-.6-.18-.91l0,0A3.77,3.77,0,0,0,6.31,332.63Z"/><path class="cls-1" d="M16,334.19c.27.54.6,1.24,0,1.61-.8.46-1-.36-1.2-.89a4,4,0,0,0-4.3-2.58,5.52,5.52,0,0,1-1.14-.12c.51-.14,1-.32,1.51-.42A4.59,4.59,0,0,1,16,334.19Z"/><path class="cls-1" d="M21.83,230.41c2.8,1.59,2.81,1.58,6.06,2A4,4,0,0,1,29,233C26.93,234.06,24,233,21.83,230.41Z"/><path class="cls-1" d="M29,155.68c-1.23,1-2.6.35-3.69.89s-2.33,1.1-3.39,1.6C23.54,155.84,26.77,154.57,29,155.68Z"/><path class="cls-1" d="M21.77,132.43a21.79,21.79,0,0,0,3,1.53,32.72,32.72,0,0,0,3.31.6c.27.05.49.36.79.59C26.89,136.2,23.53,134.87,21.77,132.43Z"/><path class="cls-1" d="M27.74,204c.53,0,1,0,.94.8a26.59,26.59,0,0,0-3.75.79,26.79,26.79,0,0,0-3.44,1.79A8.58,8.58,0,0,1,27.74,204Z"/><path class="cls-1" d="M28.82,8.89A30.43,30.43,0,0,0,25,9.7a26.48,26.48,0,0,0-3.16,1.56C23.47,9,26.83,7.59,28.82,8.89Z"/><path class="cls-1" d="M22.18,255.86c2.16-2.59,5.51-3.61,6.83-1.67C26.26,253.77,24.2,254.77,22.18,255.86Z"/><path class="cls-1" d="M25.3,85.16a33.89,33.89,0,0,0,3.31.79l-.18.59c-2.64.37-4.6-.93-6.36-2.71C23.18,84.2,24.21,84.78,25.3,85.16Z"/><path class="cls-1" d="M28.83,57.76c-1.34.31-2.49.49-3.57.86s-2.11.94-3.28,1.47C24.06,57.64,26.82,56.63,28.83,57.76Z"/><path class="cls-1" d="M22.29,181.9c1.24.51,2.21,1,3.24,1.31s2.08.44,3.47.72C26.64,185.05,24.27,184.25,22.29,181.9Z"/><path class="cls-1" d="M22.41,328.93l6,2C27.08,332.05,23.81,330.88,22.41,328.93Z"/><path class="cls-1" d="M28.87,106.85c-1.22.24-2.17.37-3.09.63s-2,.72-3.06,1.13A4.81,4.81,0,0,1,28.87,106.85Z"/><path class="cls-1" d="M22.44,279.87c1,.42,2,.91,3,1.22a30.91,30.91,0,0,0,3.07.63c0,.13-.05.26-.07.4A5.57,5.57,0,0,1,22.44,279.87Z"/><path class="cls-1" d="M22.65,35.14c1.21.47,2.14.91,3.11,1.18a29.76,29.76,0,0,0,3.1.52C26.94,38.05,24.42,37.32,22.65,35.14Z"/><path class="cls-1" d="M28.5,302.77c-1.21.24-2.25.37-3.24.67a28.88,28.88,0,0,0-2.76,1.17C24.67,302.28,26.83,301.6,28.5,302.77Z"/><path class="cls-1" d="M9.55,34c-1.2-.44-1.24-.5-2.22-2.91C8.17,32,8.41,33.4,9.55,34Z"/><path class="cls-1" d="M8.06,81a3.66,3.66,0,0,0-3.47-.58C7,79.67,7.07,79.66,8.06,81Z"/><path class="cls-1" d="M7.09,63.93,4.6,63.49l.05-.26c.44.1.88.24,1.33.3a8.8,8.8,0,0,0,1.15,0C7.12,63.67,7.1,63.8,7.09,63.93Z"/><path class="cls-1" d="M9.79,295.19v-.06h.05Z"/><path class="cls-1" d="M8.88,293.94l.91-.18v1.37A1.12,1.12,0,0,1,8.88,293.94Z"/><path class="cls-1" d="M8.49,290.32l1.31-.91v1.37Z"/><path class="cls-1" d="M9.8,289.33l0,.05,0,0Z"/><path class="cls-1" d="M9.42,83.88,10.35,86C9.34,85.47,9.56,84.59,9.42,83.88Z"/><path class="cls-1" d="M10.3,57.88c-.29.68-.58,1.33-.87,2C9.56,59.14,9.28,58.22,10.3,57.88Z"/><path class="cls-1" d="M9.35,255.74c.17-.72.34-1.43.5-2.15l.3.1C9.88,254.37,9.62,255.05,9.35,255.74Z"/><path class="cls-1" d="M9.27,256V256h0l.08-.21-.06.24Z"/><path class="cls-1" d="M8,257.64,9.27,256C9.28,257.05,9.26,257.06,8,257.64Z"/><path class="cls-1" d="M8.32,326.65l1.16,1.48C8.94,327.78,8.19,327.63,8.32,326.65Z"/><path class="cls-1" d="M9.32,83.56a1.19,1.19,0,0,1,.1.32l-.13-.29a.64.64,0,0,0,0-.07l0,0Z"/><path class="cls-1" d="M9.31,83.52c-.16-.24-.29-.56-.52-.66-.86-.38-.83-1-.65-1.71a3.8,3.8,0,0,0,.78,1.24A.89.89,0,0,1,9.31,83.52Z"/><path class="cls-1" d="M8.14,81.15l0,0h0L8.06,81l.09,0A.22.22,0,0,0,8.14,81.15Z"/><path class="cls-1" d="M9.32,60.23l0,0h0l.13-.3a1.33,1.33,0,0,1-.1.34Z"/><path class="cls-1" d="M8,61.64l1.32-1.41C9.74,61.4,8.54,61.26,8,61.64Z"/><path class="cls-1" d="M9.74,11.79,7.8,13.05A1.91,1.91,0,0,1,9.74,11.79Z"/><path class="cls-1" d="M9.56,328.23l-.08-.1.11.06c0,.05,0,.09,0,.14s0-.06,0-.09Z"/><path class="cls-1" d="M9.57,328.33c.12.9.24,1.8.37,2.7A4.09,4.09,0,0,1,9.57,328.33Z"/><path class="cls-1" d="M9.94,331s0,0,0,.06h0l0,0V331Z"/><path class="cls-1" d="M7.06,14.73l.71-1.63C8.09,13.88,8,14.43,7.06,14.73Z"/><path class="cls-1" d="M7.77,13.1v0h0l0,0,0,0Z"/><path class="cls-1" d="M9.28,1.21l0-.07,0,0Z"/><path class="cls-1" d="M8.7.22l1-.22L9.31,1.14C9.14.87,9,.6,8.7.22Z"/><path class="cls-1" d="M9.62,34.18V34.1h0s0,0-.07-.05l.08,0Z"/><path class="cls-1" d="M9.44,35.8l.18-1.62.09,1.63Z"/><path class="cls-1" d="M11.85,147.6c.81,0,1.14.57,1.41,1.17a3.37,3.37,0,0,1-1.48,4.47c-.43.25-.88.48-1.52.82,2.1.32,3.32-.23,4.17-1.71a13.93,13.93,0,0,1,.62-1.29c.17-.24.55-.33.84-.49.17.34.48.68.47,1a2.2,2.2,0,0,1-.47,1.14,4.37,4.37,0,0,1-3.87,2.2,2.43,2.43,0,0,0-2.2.75,1.68,1.68,0,0,0-.38.18,1.06,1.06,0,0,0-.42.48,1.06,1.06,0,0,1,.42-.48,1.68,1.68,0,0,1,.38-.18h0l0,.05.59.05a5.18,5.18,0,0,0-.55.92c-.1.34,0,.72-.12,1.06a6,6,0,0,1-.56,1.47c-.31.55-.8,1-1.1,1.54-.64,1.14-1.12,1.31-2.41.75h-.2l-.12-.05a4,4,0,0,0-.92.13c-2.14.8-2.57,2.39-1.15,4.22A5.75,5.75,0,0,0,7.05,168a8.46,8.46,0,0,0,4.73-.78,17.47,17.47,0,0,0,5.39-3.86,25.38,25.38,0,0,1,6.74-5.08,6.85,6.85,0,0,1,4-.66A1.05,1.05,0,0,1,29,159c-.13.94-.43,1.27-1.43,1.15a9.1,9.1,0,0,0-6,1.36c-1.63,1-3.12,2.24-4.7,3.33a31.4,31.4,0,0,1-4.94,3.25c-5,2.2-10-.24-11.48-5.52-.61-2.15-.6-4.3,1.22-6A2,2,0,0,0,2,156c1-2.33,2.95-3.16,5.38-3.17a2.26,2.26,0,0,0,1.49-.41,4.06,4.06,0,0,1,3-1.31c1.05,0,1.41-.89.86-1.78a1.53,1.53,0,0,0-1.81-.82c-1.16.29-1.76-.38-2.32-1.35a2.94,2.94,0,0,1,3.19.44Z"/><path class="cls-1" d="M11.16,98.24a3.41,3.41,0,0,0-2.54-.11l.81.81s0,0,0,0h.08c.41.67,1.09.48,1.71.56a2.58,2.58,0,0,1,1.42.56,1.17,1.17,0,0,1-.74,2.09,3.93,3.93,0,0,0-3,1.25,1.91,1.91,0,0,1-1.35.35,5.87,5.87,0,0,0-5.12,2.47H2.31a5.07,5.07,0,0,1-.77,1.37c-1.64,1.58-1.71,3.54-1.29,5.53A8.17,8.17,0,0,0,12.1,119a46.41,46.41,0,0,0,5.17-3.54C19,114.27,20.71,113,22.53,112a9.13,9.13,0,0,1,6.17-.71c.13-.74.24-1.41.35-2a3.21,3.21,0,0,0-2.66-.67c-2.69.39-4.76,1.93-6.76,3.58-1.44,1.18-2.73,2.53-4.15,3.74-2.35,2-5,3.37-8.2,3.08a5.26,5.26,0,0,1-4.61-3.24,3,3,0,0,1,.19-2.59c.06-.15.47-.14.71-.21l.06-.06a11.08,11.08,0,0,1,2.06-.13c1.48.18,1.9,0,2.49-1.34.05-.11,0-.28.11-.34,1.34-1,1.37-2.58,1.86-4l-.05.08.7-1.33c2,.59,3.6-.28,4.9-1.9a4.34,4.34,0,0,0,.6-1.1c.19-.47.23-1-.35-1.22s-.81.24-1,.7a8.31,8.31,0,0,1-1.1,1.84c-.92,1-2.13,1.22-3.78.74a13.2,13.2,0,0,0,1.83-.75,3.13,3.13,0,0,0,1.7-3.31,2.6,2.6,0,0,0-2.3-2.59v0Zm-1.06,9h0c-.14-.52-.41-.59-.62-.46C9.69,106.61,10,106.68,10.1,107.2Z"/><path class="cls-1" d="M11.84,245.5c.32.13.72.17.92.4a3.38,3.38,0,0,1-.94,5.21c-.44.25-.9.45-1.51.75a3.25,3.25,0,0,0,4-1.41c.32-.5.46-1.11.8-1.59a1.09,1.09,0,0,1,.88-.31c.18,0,.4.42.43.68a1.46,1.46,0,0,1-.21.85c-.91,1.58-2.1,2.75-4.09,2.74a2.65,2.65,0,0,0-2.22.7l0,.07h0l0,0,0,0,.06,0a1.17,1.17,0,0,0-1,1.32,1.35,1.35,0,0,1-1.49,1.55c-.46,1.92-.46,1.9-2.27,1.94a2.19,2.19,0,0,0-1.16.4,3.34,3.34,0,0,0-.75,4.9A6.74,6.74,0,0,0,5,265.16c2.23,1.34,4.52.94,6.75,0a18.15,18.15,0,0,0,5.8-4.22,23.34,23.34,0,0,1,6.65-4.87,6,6,0,0,1,3.51-.57,1.28,1.28,0,0,1,1.2,1.65c-.14.85-.69.89-1.45.92a17.58,17.58,0,0,0-4.23.55,18,18,0,0,0-6.08,3.78,32.52,32.52,0,0,1-4.05,3c-5.33,3.14-11.37.68-12.78-5.19-.64-2.65-.16-5,2.31-6.63.12-.08.16-.28.24-.43h0c0-.22-.13-.51,0-.61a5.53,5.53,0,0,1,4-1.8c.69,0,1.62,0,2-.42A4.45,4.45,0,0,1,12,249c1-.07,1.32-.95.74-1.84a1.83,1.83,0,0,0-1.84-.81c-1.39.07-1.5-.06-2-1.43a3,3,0,0,1,2.93.57Z"/></svg>