<svg id="Layer_1" data-name="Layer 1" xmlns="http://www.w3.org/2000/svg" viewBox="0 0 29.06 1080"><defs><style>.cls-1{fill:#dd7922;}</style></defs><title>1920x1080 UI Landing Page</title><g id="floral_line"><path class="cls-1" d="M12.6,914.82c-1,.89-2.1,1.81-3.23,2.59-2.6,1.76-5.37,3-8.63,2.32-.15,0-.32.1-.47.16-.24,2.11.31,2.84,2.29,2.46a11.62,11.62,0,0,0,4.3-1.69,52.4,52.4,0,0,0,5.55-4.57,15.57,15.57,0,0,1,6.39-3.91c2.65-.7,5-.28,6.89,1.87a2.82,2.82,0,0,1,.72,3.15c-.38.89-1.77,1.3-3.11,1-1.14-.25-1.83,0-2.25.92-.65,1.47-2.13,2.57-1.95,4.41,0,.19-.24.41-.37.61h0c-.18.29-.34.58-.54.91a8.22,8.22,0,0,1-.86,0c-2-.18-3.29.86-4.31,2.4a2.14,2.14,0,0,0-.38,1.16,1.1,1.1,0,0,0,.54.78c.13.08.58-.14.71-.35.31-.44.47-1,.75-1.43A3.28,3.28,0,0,1,18.52,926c-2.95,2-3.67,3.49-2.68,5.36.81,1.5,2.62,2.07,4.8,1.24l-1-.64h0c-.54-.61-1.23-.43-1.93-.39A1.69,1.69,0,0,1,16,930c0-1,.71-1.08,1.49-1.14a2.46,2.46,0,0,0,1.53-.39,4.51,4.51,0,0,1,3.73-1.35,6.43,6.43,0,0,0,1.22-.31c2.16-.4,2.37-2.78,3.87-3.88a3.08,3.08,0,0,0,1-1.87c1-5.65-4.05-11.08-9.7-9.81A15.41,15.41,0,0,0,12.6,914.82Z"/><path class="cls-1" d="M9.6,966.22c-2.61,1.86-5.42,3.13-8.76,2.5-.15,0-.33.1-.48.14C-.18,971,0,971.31,2,971.28a8.12,8.12,0,0,0,3.12-.66,23.46,23.46,0,0,0,6.75-5c2.3-2.28,4.83-4.14,8.16-4.61a5.94,5.94,0,0,1,5.63,2.09c1.33,1.53,1.22,2.89-.24,4.42h0c-.23.18-.44.38-.66.57.22-.19.43-.39.66-.57h0c-.65-.06-1.31-.06-1.94-.18-1.69-.33-1.94-.24-2.62,1.25-.1.22-.1.56-.26.65-1.42.79-1.33,2.12-1.34,3.43l-.05.11v0c-1.11,0-.34.92-.56,1.42-.32-.05-.61-.11-.9-.14A4.58,4.58,0,0,0,13,976.52a1.81,1.81,0,0,0-.31.83,3.85,3.85,0,0,0,.42,1,2.73,2.73,0,0,0,.86-.46,4.51,4.51,0,0,0,.47-1c1.1-2.06,2.51-2.6,4.94-1.78-1.87.16-3.28.83-3.8,2.63a3,3,0,0,0,1,3.39,3.44,3.44,0,0,0,3.61.61c-.06-.23-.06-.37-.13-.44a2,2,0,0,0-.4-.29c-.44-.92-1.27-.62-2-.64A1.64,1.64,0,0,1,16,978.87c.08-.94.78-1,1.55-1.15a3.73,3.73,0,0,0,2-.66,3.59,3.59,0,0,1,2.44-.9c2.07-.12,3.89-.74,4.77-2.9a1.77,1.77,0,0,1,.55-.7A5.19,5.19,0,0,0,29,967.83c-.33-4.35-4.32-7.87-8.07-7.73a12.25,12.25,0,0,0-7.37,2.95C12.21,964.1,11,965.24,9.6,966.22Z"/><path class="cls-1" d="M12.75,865.77c-3.44,2.78-6.77,5.69-11.69,5-.25,0-.73.41-.84.72a1.29,1.29,0,0,0,1.18,1.8,6.71,6.71,0,0,0,5.1-1.4,73.94,73.94,0,0,0,6-4.9,15.2,15.2,0,0,1,7.13-4,6.21,6.21,0,0,1,6.56,2.73,3.07,3.07,0,0,1-.12,3.4,2.28,2.28,0,0,1-2.67,1.32c-.81-.21-1.25.24-1.47,1-.1.34-.14.69-.22,1.1-1.07-.13-1.46.42-1.5,1.36a1.7,1.7,0,0,1-1.5,1.76c-.64.12-1.27.29-1.91.35a5,5,0,0,0-4,3.19,1.36,1.36,0,0,0,.33,1.21c.56.37.77-.22,1-.63a11.78,11.78,0,0,1,1.52-2.2,2.49,2.49,0,0,1,3-.51c-2.94,1.61-3.8,3.23-2.82,5.18a3.36,3.36,0,0,0,4.46,1.42,1.6,1.6,0,0,0-1.63-1.15,7.45,7.45,0,0,1-1.25,0A1.6,1.6,0,0,1,16,880.82c.15-.78.68-1,1.45-1a2.88,2.88,0,0,0,1.83-.54,3.58,3.58,0,0,1,2.75-1,6.29,6.29,0,0,0,1.76-.33,4.51,4.51,0,0,0,2.46-1.83c-1.23.29-2,1.05-3,.43a19.49,19.49,0,0,0,2.64-1A5.36,5.36,0,0,0,29,871c.36-5-4.88-11.12-11.72-8.09A20.45,20.45,0,0,0,12.75,865.77Z"/><path class="cls-1" d="M15.61,987.5a4.47,4.47,0,0,0,.2,2.26c.49,1.46,1.92,1.8,3.42,2.31-2.48.53-3.86-.1-4.84-2.05a6.1,6.1,0,0,0-.44-1c-.16-.21-.56-.46-.7-.39s-.63.54-.58.74a5,5,0,0,0,.77,1.77A4.49,4.49,0,0,0,18.29,993l.66,1.33,0-.07c.59,1.3.33,3,1.85,3.86,0,0,0,.11,0,.16.86,1.88,2.68,2.26,4.57,1a4.16,4.16,0,0,0,.24.47c1.39,1.83,1.27,3.32-.41,4.88-1.93,1.78-4.22,1.85-6.59,1.23a13.92,13.92,0,0,1-5.67-3.36,72.47,72.47,0,0,0-6.56-5.31,10.43,10.43,0,0,0-4.17-1.49c-1.8-.28-2.36.7-1.73,2.63a2.87,2.87,0,0,0,.66,0,9.75,9.75,0,0,1,7.33,1.81,51.31,51.31,0,0,1,4.43,3.38,16.1,16.1,0,0,0,4.91,3,8.1,8.1,0,0,0,10.86-5.7c.64-2.29.59-4.53-1.43-6.28a5.61,5.61,0,0,1-.8-1.15h-.07a3.36,3.36,0,0,0-2.08-1.94,25.52,25.52,0,0,0-2.79-.57c-.5-.11-1.16-.13-1.46-.45a2.86,2.86,0,0,0-2.69-1c-.68.09-1.31-.31-1.27-.94a2.86,2.86,0,0,1,.87-1.6c.22-.23.79-.08,1.18-.19s1-.37,1.51-.56l0,0,0-.05h0l.75-.85C17.4,984.94,16,985.59,15.61,987.5Zm3.9,6.4c-.18,0-.38.12-.55.44h0C19.13,994,19.33,993.88,19.51,993.9Z"/><path class="cls-1" d="M14.39,1011.34a36.07,36.07,0,0,0-3.09,2.48c-2.92,2.28-5.9,4.41-9.93,3.87a1,1,0,0,0-1.17.86c-.14.72,0,1.43.79,1.59a4.72,4.72,0,0,0,2.3,0,11.78,11.78,0,0,0,3.42-1.55,72.15,72.15,0,0,0,5.85-4.78,15.2,15.2,0,0,1,6.26-3.76,6.43,6.43,0,0,1,6.13,1.1c1.94,1.61,2.11,3,.65,5.09a1.36,1.36,0,0,0-.11.2h-.55a13.18,13.18,0,0,0-2.4-.45,1.65,1.65,0,0,0-1.3.7,5.66,5.66,0,0,1-1.58,2.26c-.22.17-.22.65-.3,1-.11.51-.2,1-.29,1.55h0l-.79,1.48c-.42,0-.77-.12-1.12-.14a4.77,4.77,0,0,0-4.43,3.33c-.06.33.22.73.35,1.09.32-.18.76-.27,1-.54.46-.61.73-1.38,1.22-2a3.19,3.19,0,0,1,3.6-1c-3.17,1.74-4,3.25-3,5.27.71,1.51,2.53,2.09,5,1.21l-1.08-.46h0c-.5-.65-1.18-.49-1.89-.42a1.69,1.69,0,0,1-1.74-1.47c-.06-.72.34-1,1.42-1.19.63-.11,1.45-.18,1.81-.59a3.92,3.92,0,0,1,3-1.14c1.82-.14,3.49-.7,4.25-2.63h0A14.68,14.68,0,0,0,27.7,1021a6.68,6.68,0,0,0,1.16-2.18c1-5.82-4.27-11.17-9.95-9.62A19.07,19.07,0,0,0,14.39,1011.34Zm5.24,18.53c-.23.31-.37.48-.55.55.18-.07.32-.24.55-.55Z"/><path class="cls-1" d="M17.37,838.32A8.05,8.05,0,0,0,15.84,840a4.63,4.63,0,0,0-.24,2.11c.07,1.74,1.7,2.21,3.08,3.25-3.21.41-4.06-1.91-5.18-3.8a1.35,1.35,0,0,0-.44,2.15,4.79,4.79,0,0,0,4.27,2.53c1.81,0,2.58.6,2.86,2.26a1.36,1.36,0,0,0,1.51,1.26c.43,1.84.63,2.07,1.67,2.06a3,3,0,0,1,2.81,4.64,6.08,6.08,0,0,1-6.53,2.76,14.48,14.48,0,0,1-6.86-3.76C11.1,853.92,9.4,852.4,7.57,851a13.64,13.64,0,0,0-3.65-1.9A6.67,6.67,0,0,0,1.1,849c-.77.08-1.09.87-.91,1.68s.69.87,1.37.73a8.42,8.42,0,0,1,5.23,1,23.79,23.79,0,0,1,5.91,4.08,15.88,15.88,0,0,0,5.35,3.26c5.1,1.76,9.75-1.54,10.79-6.38.48-2.21.24-4.41-1.81-5.83A10.57,10.57,0,0,0,23.61,846a17.12,17.12,0,0,0-3.39-.21c1.07-.89,1.06-.88,2.1-.65,1.24.28,2.49.52,3.79.79-.93-1.4-2.38-1.73-3.88-1.88A3.9,3.9,0,0,1,19.32,843c-.35-.41-1.18-.45-1.81-.53-1-.13-1.51-.48-1.48-1.19a1.52,1.52,0,0,1,1.33-1.49,13.57,13.57,0,0,1,1.43,0,1.35,1.35,0,0,0,1.4-1.37C18.78,839.47,18.44,839.47,17.37,838.32Z"/><path class="cls-1" d="M17.16,740.64a3.09,3.09,0,0,0-1.57,3.29c.15,2,1.74,2.62,3.6,3.24a5,5,0,0,1-.92.32,3.79,3.79,0,0,1-4-2.65c-.2-.48-.36-1.22-1.06-.93s-.41,1-.24,1.58a2.76,2.76,0,0,0,.37.61,4.43,4.43,0,0,0,4.17,2,2.27,2.27,0,0,1,2.72,2.07c.13,1,.47,1.58,1.47,1.56.51,1.86.52,1.83,2.36,2a1.85,1.85,0,0,1,1.25.57c1.92,2.46,1.85,3.59-.08,5.41a7.27,7.27,0,0,1-2.29,1.37,6.83,6.83,0,0,1-5.26-.38A19.62,19.62,0,0,1,12,756.82c-1.78-1.6-3.66-3.1-5.59-4.52a6.5,6.5,0,0,0-4-1.39c-1.82,0-2.13.48-1.58,2.45a7.94,7.94,0,0,0,.84,0A9.93,9.93,0,0,1,8.16,755a38.27,38.27,0,0,1,4.05,3,16.33,16.33,0,0,0,5.6,3.54c4.09,1.23,7.07.27,9.48-2.83a7,7,0,0,0-.1-9.19,1.9,1.9,0,0,1-.33-.43c-.93-2.27-2.8-2.93-5.06-3.06a3.57,3.57,0,0,1-1.95-.67,3.18,3.18,0,0,0-2.42-.94c-.75.07-1.35-.21-1.41-1a1.54,1.54,0,0,1,1.16-1.63c.33-.11.73,0,1.07,0a10.93,10.93,0,0,0,1.3-.51A2.81,2.81,0,0,1,17.16,740.64Zm4,8.83c-.37.2-.35.58,0,1.34l1.13-.25-1.14.25C20.8,750.05,20.78,749.67,21.15,749.47Z"/><path class="cls-1" d="M12.26,1062c-1.27.9-2.44,2-3.75,2.8a10.32,10.32,0,0,1-7.17,1.87,3.76,3.76,0,0,0-.83,0c-.59,1.83-.3,2.3,1.37,2.45a6.73,6.73,0,0,0,4-1,30.75,30.75,0,0,0,6.35-5,13.93,13.93,0,0,1,7.72-4.34,5.89,5.89,0,0,1,6,2.39c1.15,1.53,1,2.7-.42,4.09l.05-.07-.12.06c-.88-.11-1.75-.28-2.63-.31a1.76,1.76,0,0,0-1.29.43c-.7,1-1.26,2-1.87,3v0l0,.08,0,0c-.13.79-.25,1.58-.37,2.37l-.4-.06c.08.86.61,1.16,1.42,1.29a13.12,13.12,0,0,0,5.9-.61l0,0,.05,0-.1,0c3.17-2.2,3.59-5.2,2-8.53-2.13-4.57-6.48-6.05-11-4.14A27.5,27.5,0,0,0,12.26,1062Z"/><path class="cls-1" d="M10.65,818.5c-2.11,1.61-4.33,3-7.08,3.34-.71.07-1.43,0-2.15,0a1.14,1.14,0,0,0-1.2,1.09,1.08,1.08,0,0,0,.87,1.36,2.94,2.94,0,0,0,1.4.12,16.34,16.34,0,0,0,3.39-1.16c2.8-1.45,5-3.71,7.3-5.82s5-3.73,8.41-3.51a5.27,5.27,0,0,1,4.79,3.28,3.06,3.06,0,0,1-2.79,4.26,2.24,2.24,0,0,0-1.05.13c-.91.57-.58,2.26-2.09,2.35-.07,0-.13.31-.19.48L19.39,827a8,8,0,0,0,6.83-.65A4.8,4.8,0,0,0,28.86,823c.95-5.4-3.36-9.91-7.75-9.93a11.31,11.31,0,0,0-7,2.53C12.93,816.53,11.84,817.58,10.65,818.5Z"/><path class="cls-1" d="M12,768.39c-1.71,1.2-3.43,2.42-5.23,3.49a8.27,8.27,0,0,1-4.87,1c-.35,0-.7,0-1,0-.68,1.87-.34,2.53,1.4,2.45A6.64,6.64,0,0,0,5,774.66a30.46,30.46,0,0,0,4.36-2.84c1.5-1.19,2.82-2.61,4.29-3.84a11.86,11.86,0,0,1,7-3.09,5.85,5.85,0,0,1,5.52,2.75,2.9,2.9,0,0,1-.06,3.39c-.63,1-1.31,1.94-2.76,1.38-.63-.24-1.06.15-1.28.7a11.13,11.13,0,0,0-.37,1.44c-1-.08-1.43.38-1.47,1.35,0,.67-.19,1.31-1,1.47l-.23.43a1.2,1.2,0,0,0,.3.2,10.84,10.84,0,0,0,7.1-.57h0s0,0,0,0h0a9,9,0,0,0,1.28-1.26,7.07,7.07,0,0,0,1.23-2.35,8.62,8.62,0,0,0-4.21-8.7,8.55,8.55,0,0,0-8.61.31A46.19,46.19,0,0,0,12,768.39Z"/><path class="cls-1" d="M19.18,777.38h0v0Z"/><path class="cls-1" d="M19.34,797.42a5.64,5.64,0,0,1,.78,1.33c.23.9,0,2,1.44,2.1.11,0,.21.39.29.61.52,1.34.52,1.28,1.88,1.28a2.8,2.8,0,0,1,1.62.5,3.27,3.27,0,0,1,.45,4.81,6.21,6.21,0,0,1-7,2,14.9,14.9,0,0,1-6.39-3.92,25.23,25.23,0,0,0-7.3-5.52,9.75,9.75,0,0,0-3.29-.76c-1.19-.08-1.52.35-1.43,1.31s.4,1.15,1.54,1.23A16.14,16.14,0,0,1,6,803a19.41,19.41,0,0,1,6.47,4.2,17.08,17.08,0,0,0,5.13,3.28c5.15,2,9.8-.94,11.14-5.75.53-1.94.59-3.93-.95-5.61C25.68,796.87,21.46,796.11,19.34,797.42Z"/><path class="cls-1" d="M16.57,905.82a5.07,5.07,0,0,0,5.87-.23c-3.29.78-5.74-.63-7.88-2.86-.37-.39-.73-.8-1.07-1.22a24.12,24.12,0,0,1-4-7.4,3.69,3.69,0,0,0-2.3-2.59,9,9,0,0,0-6.38.42,8.91,8.91,0,0,1,6,3.44c2,2.37,3.81,4.81,5.86,7.08A19.22,19.22,0,0,0,16.57,905.82Z"/><path class="cls-1" d="M9.62,974.65a21.11,21.11,0,0,1,5-8.24c2.05-2.06,4.31-3.46,7.43-2.93a3.49,3.49,0,0,0-3.13-.93A7.72,7.72,0,0,0,14.25,965c-2.13,2.36-4.19,4.79-6.21,7.25-1.85,2.27-3.76,4.42-6.84,5.14a15.53,15.53,0,0,0,3.21.66A4.64,4.64,0,0,0,9.62,974.65Z"/><path class="cls-1" d="M12.89,1000.71a11.1,11.1,0,0,0,4.41,3.35,4.84,4.84,0,0,0,5.07-.56c-1.81.26-3.62.3-5.15-.8a21.61,21.61,0,0,1-3.38-2.94A22,22,0,0,1,9.44,992,3.64,3.64,0,0,0,7,989.31a8.85,8.85,0,0,0-6,.47c3.31.59,5.15,2.62,6.89,4.79S11.19,998.69,12.89,1000.71Z"/><path class="cls-1" d="M9.59,925.75a20.63,20.63,0,0,1,4.26-7.47c2.25-2.57,4.75-4.61,8.56-3.7a4.49,4.49,0,0,0-4.54-.77,8.21,8.21,0,0,0-3.07,1.79c-2.28,2.37-4.42,4.89-6.55,7.41-1.9,2.24-3.67,4.61-6.86,5.21,0,.13.08.26.11.38a22.91,22.91,0,0,0,2.83.48C6.8,929.22,8.75,928.44,9.59,925.75Z"/><path class="cls-1" d="M9.56,1023.59a24,24,0,0,1,4.19-7.33c2.28-2.65,4.83-4.65,8.68-3.78A4.66,4.66,0,0,0,17,1012a16.64,16.64,0,0,0-4,3.06c-1.73,1.82-3.25,3.85-4.83,5.82-1.8,2.26-3.64,4.46-6.79,5.23a5,5,0,0,0,3.43.81C7.46,1027,8.64,1026,9.56,1023.59ZM7,1025.37a2.51,2.51,0,0,0,.61-.41,2.87,2.87,0,0,0,.46-.56,2.87,2.87,0,0,1-.46.56A2.51,2.51,0,0,1,7,1025.37Zm1.56-2c.06-.16.12-.34.18-.53C8.69,1023.07,8.63,1023.25,8.57,1023.41Zm.3-.89h0l-.16-.08Z"/><path class="cls-1" d="M9.55,876.73a23.39,23.39,0,0,1,4.39-7.6c2.3-2.61,5-4.49,8.92-3.3-2.18-1.48-3.5-1.65-5.57-.82a11.3,11.3,0,0,0-4.4,3.36q-2.73,3.24-5.37,6.55c-1.6,2-3.4,3.72-6,4.3l0,.45c1.11.11,2.22.29,3.34.31C7.63,880,8.6,879.33,9.55,876.73Z"/><path class="cls-1" d="M14.18,953.08a7.92,7.92,0,0,0,4.49,2.5,4.09,4.09,0,0,0,3.72-1c-3,.7-5.28-.4-7.34-2.4a22.54,22.54,0,0,1-5.42-8.59c-1-2.66-2.18-3.52-5-3.44a28.19,28.19,0,0,0-3.16.42c0,.13,0,.27,0,.41a9.65,9.65,0,0,1,4.84,3c.81,1,1.61,1.94,2.42,2.9C10.57,948.92,12.33,951.05,14.18,953.08Z"/><path class="cls-1" d="M12.48,1049.17a22.72,22.72,0,0,0,4.07,3.51,4.68,4.68,0,0,0,5.16.14c-3.85.19-6.32-2-8.46-4.74a25.7,25.7,0,0,1-3.77-6.95,5.36,5.36,0,0,0-8-2.26,9.61,9.61,0,0,1,5.76,3.89C8.93,1044.93,10.62,1047.13,12.48,1049.17Z"/><path class="cls-1" d="M9.61,1072.52a20.35,20.35,0,0,1,4.28-7.44c2.16-2.48,4.61-4.34,8.24-3.81a4.38,4.38,0,0,0-3.33-.83,8.11,8.11,0,0,0-4.64,2.59c-2.3,2.6-4.52,5.28-6.77,7.93-1.67,2-3.44,3.75-6.15,4.3a11.9,11.9,0,0,0,2.64.67C6.66,1076.22,8.77,1075.31,9.61,1072.52Z"/><path class="cls-1" d="M13,853.93a10,10,0,0,0,5.48,3.6,4.49,4.49,0,0,0,4.37-1.32,5.81,5.81,0,0,1-6.16-.72,16,16,0,0,1-2.92-2.65,22.28,22.28,0,0,1-4.31-7.65,3.74,3.74,0,0,0-2.94-2.85,8.72,8.72,0,0,0-5,.5c2.82.73,4.64,2.69,6.34,4.84S11.23,851.9,13,853.93ZM8.23,845a4,4,0,0,0-.39-.65A4,4,0,0,1,8.23,845Zm-2.72-1.41h0l3.18,3Z"/><path class="cls-1" d="M9.5,827.92a24.27,24.27,0,0,1,4-7.22c2.21-2.69,4.7-4.85,8.64-4.43a5.07,5.07,0,0,0-1.38-.56,5.76,5.76,0,0,0-4.33.75,25.13,25.13,0,0,0-3.67,3.14c-1.78,1.95-3.38,4.06-5,6.12s-3.6,4.12-6.56,4.62a7.41,7.41,0,0,0,1.91.61,13,13,0,0,0,2.16.09C7.57,831,8.7,830.15,9.5,827.92Z"/><path class="cls-1" d="M.25,913.77c-.06.77-.14,1.29-.14,1.82,0,1.79.5,2.43,2.33,2.46a10.67,10.67,0,0,0,3.69-.51c3.2-1.14,5.63-3.4,7.88-5.85a3.6,3.6,0,0,0,.23-.8A18.13,18.13,0,0,1,.25,913.77Z"/><path class="cls-1" d="M17.07,759.08a4.84,4.84,0,0,0,5-.32,7.29,7.29,0,0,1-6.32-2,23.43,23.43,0,0,1-3.6-4.23,35.08,35.08,0,0,1-2.68-5.47,4.27,4.27,0,0,0-3.39-2.88,8.54,8.54,0,0,0-5,.67,9.15,9.15,0,0,1,5.46,3.25c1.9,2.32,3.79,4.65,5.73,6.94A13.63,13.63,0,0,0,17.07,759.08Z"/><path class="cls-1" d="M5.16,902.64a12.06,12.06,0,0,0-3.88.05,1.22,1.22,0,0,0-1.12,1.23c0,.88,0,1.75,0,2.84a19,19,0,0,1,13.93,2.46C11.69,906.25,9,903.64,5.16,902.64Z"/><path class="cls-1" d="M12.14,803.89a22.32,22.32,0,0,0,3.94,3.65,5.06,5.06,0,0,0,6.24.09A5.82,5.82,0,0,1,18,807.2a16.69,16.69,0,0,1-3.7-2.8,22.88,22.88,0,0,1-4.76-8c-.92-2.52-2.08-3.3-4.73-3.28a12.85,12.85,0,0,0-2.15.22,5.9,5.9,0,0,0-1.29.67c3,.51,4.56,2.33,6.11,4.17S10.49,802.06,12.14,803.89Z"/><path class="cls-1" d="M.25,1011.75c0,.73-.14,1.37-.13,2,0,1.42.29,1.89,1.71,2a9.35,9.35,0,0,0,3.88-.24c3.66-1.22,6.38-3.76,9.09-7C8,1012.1,7.91,1012.12.25,1011.75Z"/><path class="cls-1" d="M14.46,960.21c-2.44.91-4.64,1.79-6.89,2.54s-4.73.26-7.27.09c-.08.76-.18,1.39-.21,2-.06,1.48.18,1.8,1.62,2A8.39,8.39,0,0,0,7,966.24,24.88,24.88,0,0,0,14.46,960.21Z"/><path class="cls-1" d="M9.7,778.49a22.28,22.28,0,0,1,6-9,7.1,7.1,0,0,1,6.68-1.88,4.79,4.79,0,0,0-5.28-.42,10.57,10.57,0,0,0-2.92,2c-2,2.19-4,4.49-5.87,6.81s-3.68,4.6-6.85,5.23c0,.14.08.27.13.41A22.88,22.88,0,0,0,4,782C6.58,782.17,8.45,781.9,9.7,778.49Z"/><path class="cls-1" d="M5.22,1000.51a10.06,10.06,0,0,0-3.71,0,1.84,1.84,0,0,0-1.26,1.06,3.66,3.66,0,0,0,.27,3,18.6,18.6,0,0,1,13.65,2.49C11.69,1004.19,9,1001.55,5.22,1000.51Z"/><path class="cls-1" d="M7.32,854.41a8.48,8.48,0,0,0-4.87-.93c-2,.19-2.51.75-2.32,2.77.11,1.27.38,1.48,1.74,1.28a13,13,0,0,1,6.05.27c2.14.69,4.22,1.6,6.64,2.53A27.24,27.24,0,0,0,7.32,854.41Z"/><path class="cls-1" d="M14,1058.6s0-.2,0-.31-.25-.07-.32,0c-3.8,2.21-7.8,3.34-12.22,2.49a1.23,1.23,0,0,0-.95.32,2.45,2.45,0,0,0,1.25,3.7,7.85,7.85,0,0,0,4.42-.31A22.12,22.12,0,0,0,14,1058.6Z"/><path class="cls-1" d="M13.09,1054.64A33.4,33.4,0,0,0,9.94,1052a22.36,22.36,0,0,0-3.58-2.07,6.83,6.83,0,0,0-4.93-.36c-1.19.35-1.61,1.45-1.26,3,.21.92.46,1,2,.84a16.15,16.15,0,0,1,8.3,1.08c1.14.47,2.24,1,3.36,1.58l.18-.16A7.18,7.18,0,0,0,13.09,1054.64Z"/><path class="cls-1" d="M11.34,955.2a39.41,39.41,0,0,0-5-3.2,6.55,6.55,0,0,0-4.75-.44c-1.34.35-1.81,1.39-1.45,3,.22,1,.57,1.13,2.12.9a15.69,15.69,0,0,1,9,1.42c.86.38,1.69.83,2.54,1.26l.24-.32A25.57,25.57,0,0,0,11.34,955.2Z"/><path class="cls-1" d="M13.74,862.37c-1.19.56-2.36,1.18-3.58,1.67a16.35,16.35,0,0,1-8.31,1,1.86,1.86,0,0,0-1.44.33,2.43,2.43,0,0,0,1.28,3.6,6.93,6.93,0,0,0,4.08-.22A16.8,16.8,0,0,0,13.74,862.37Z"/><path class="cls-1" d="M10.26,758.34a11.5,11.5,0,0,0-5.57-2.78,10,10,0,0,0-3.17.14,1.42,1.42,0,0,0-.92.94,3.8,3.8,0,0,0,.32,3.06c4.91-1.15,9.32.27,13.64,2.62C13.13,761,11.75,759.6,10.26,758.34Z"/><path class="cls-1" d="M14.51,813.16c-2.22.87-4.38,1.82-6.61,2.57s-4.72.45-7.27.11c-.09,1-.15,1.79-.25,2.6s.19,1.23.87,1.33a9.75,9.75,0,0,0,3.16.23C8.78,819.19,11.65,816.14,14.51,813.16Z"/><path class="cls-1" d="M6.55,805.08a7.82,7.82,0,0,0-4.74-.56c-1.19.24-1.38.51-1.38,1.7a9.75,9.75,0,0,0,0,1.08c.12,1.15.31,1.26,1.49,1.22a35.37,35.37,0,0,1,4.83,0,20.94,20.94,0,0,1,7.39,2.71A20.81,20.81,0,0,0,6.55,805.08Z"/><path class="cls-1" d="M14,764.16c-.63.34-1.25.7-1.89,1a15.81,15.81,0,0,1-8.84,2c-2.88-.28-2.89-.31-2.87,2.62a4.07,4.07,0,0,0,.13.65,6.47,6.47,0,0,0,6,0A18.06,18.06,0,0,0,14,764.16Z"/><path class="cls-1" d="M17.87,789.31c-1.79.89-2.22,1.5-2.32,3-.14,2.21,1.35,3.12,3.25,3.85a3.34,3.34,0,0,1-4.21-1.61c-.28-.46-.47-1-.77-1.42a.69.69,0,0,0-.62-.2.67.67,0,0,0-.42.48,3.06,3.06,0,0,0,.21,1.21,4.48,4.48,0,0,0,4.41,2.52c.89-.08,1.75-.37,2.64-.5,2-.3,4-.68,5.92.51,0,0,.14-.11.24-.2A5.8,5.8,0,0,0,21.9,795c-.58,0-1.36,0-1.69-.35a4.6,4.6,0,0,0-3.2-1.36,1,1,0,0,1-.78-1.69,3.46,3.46,0,0,1,1.59-.95,9,9,0,0,1,1.81-.29C18.9,790.27,18,790.5,17.87,789.31Z"/><path class="cls-1" d="M19.63,790.4l.15,0-.05,0Z"/><path class="cls-1" d="M20.31,827.64c-.88-.21-1.76-.37-2.65-.52-2.05-.35-3.45.67-4.52,2.27a2.18,2.18,0,0,0-.39,1.17,1.17,1.17,0,0,0,.53.79c.1.07.55-.18.68-.39.36-.54.57-1.2.95-1.72A3.1,3.1,0,0,1,19,828.13c-3,1-4.11,2.7-3.22,5,.66,1.68,2.55,2.36,4.55,1.53l-.66-.6v0c-.46-.17-.92-.38-1.4-.51s-.93,0-1.21-.2a2.76,2.76,0,0,1-1-1.38c-.07-.3.43-1.07.68-1.07a6.69,6.69,0,0,0,4-1.58c.37-.28,1-.13,1.58-.23a13.38,13.38,0,0,0,2.08-.49,2,2,0,0,0,1.46-1.44A7.44,7.44,0,0,1,20.31,827.64Z"/><path class="cls-1" d="M19.26,1078.56l-.1,0h.05Z"/><path class="cls-1" d="M21.24,1072.69c-.64-.14-1.28-.34-1.93-.43a15.43,15.43,0,0,0-2.86-.25c-1.68.1-3.6,1.79-3.71,3.21,0,.33.29.69.45,1,.29-.17.66-.28.84-.53.3-.43.44-1,.73-1.44a3.06,3.06,0,0,1,4.15-1.22c-1.65.42-3.05,1.08-3.32,2.92a3.07,3.07,0,0,0,1.5,3.42l2.07-.82-1.64-.22a1.76,1.76,0,0,1-1.51-1.54c0-.7.45-1.12,1.47-1.17a2.42,2.42,0,0,0,2-.64,2.93,2.93,0,0,1,2.56-1,5.58,5.58,0,0,0,3.93-1.52c.28-.25.61-.56.25-1A5.07,5.07,0,0,1,21.24,1072.69Z"/><path class="cls-1" d="M23,779c-1.06-.05-2.12-.25-3.17-.39l0,0-.1,0h.05a10.19,10.19,0,0,1-1.63.86,3.37,3.37,0,0,0-1.18,6c1.08-.54,2.2-1,3.12.73,0-.54.09-.74,0-.85a2,2,0,0,0-2-.84A1.82,1.82,0,0,1,16,783c-.05-.77.39-1,1.79-1.28a3.8,3.8,0,0,0,1.91-.79,2.83,2.83,0,0,1,2.27-.8,5.23,5.23,0,0,0,3.93-1.49c.28-.27.32-.79.46-1.19A3.75,3.75,0,0,1,23,779Z"/><path class="cls-1" d="M13.07,780.5c-.3.58-.72,1.32.08,1.71s.91-.48,1.15-1a4,4,0,0,1,4.3-2.51,4.3,4.3,0,0,0,1.12-.14c-.5-.13-1-.3-1.5-.4A4.56,4.56,0,0,0,13.07,780.5Z"/><path class="cls-1" d="M7.23,1019.63c-2.8,1.6-2.8,1.59-6.06,2a4.11,4.11,0,0,0-1.07.56C2.13,1023.28,5,1022.18,7.23,1019.63Z"/><path class="cls-1" d="M.05,944.9c1.23,1,2.6.36,3.69.9s2.33,1.09,3.39,1.59C5.52,945.07,2.29,943.79.05,944.9Z"/><path class="cls-1" d="M7.29,921.65a20.73,20.73,0,0,1-3,1.53,30.15,30.15,0,0,1-3.31.6c-.27.05-.49.36-.79.59C2.17,925.42,5.53,924.09,7.29,921.65Z"/><path class="cls-1" d="M1.32,993.24c-.53,0-1,0-.94.8a26.59,26.59,0,0,1,3.75.79,25.65,25.65,0,0,1,3.44,1.8A8.59,8.59,0,0,0,1.32,993.24Z"/><path class="cls-1" d="M.24,798.11a32.35,32.35,0,0,1,3.8.81,26.48,26.48,0,0,1,3.16,1.56C5.59,798.18,2.23,796.81.24,798.11Z"/><path class="cls-1" d="M6.89,1045.08c-2.17-2.59-5.52-3.61-6.84-1.67C2.8,1043,4.86,1044,6.89,1045.08Z"/><path class="cls-1" d="M3.76,874.38a33.89,33.89,0,0,1-3.31.79l.18.59c2.64.37,4.6-.93,6.36-2.7C5.88,873.43,4.85,874,3.76,874.38Z"/><path class="cls-1" d="M.23,847c1.34.31,2.49.49,3.57.86a35.36,35.36,0,0,1,3.28,1.48C5,846.87,2.24,845.85.23,847Z"/><path class="cls-1" d="M6.77,971.12c-1.24.51-2.21,1-3.24,1.31s-2.08.45-3.47.73C2.43,974.27,4.79,973.47,6.77,971.12Z"/><path class="cls-1" d="M6.84,775a12.82,12.82,0,0,1-6.3,2C1.72,778.51,4.72,777.52,6.84,775Z"/><path class="cls-1" d="M.19,896.08c1.22.24,2.17.36,3.09.62s2,.72,3.06,1.13A4.8,4.8,0,0,0,.19,896.08Z"/><path class="cls-1" d="M6.63,1069.09c-1,.43-2,.91-3,1.22a30.91,30.91,0,0,1-3.07.63c0,.13,0,.27.07.4A5.59,5.59,0,0,0,6.63,1069.09Z"/><path class="cls-1" d="M6.41,824.36c-1.21.47-2.14.91-3.11,1.18a29.6,29.6,0,0,1-3.1.53C2.12,827.27,4.64,826.54,6.41,824.36Z"/><path class="cls-1" d="M.71,748.93c.82.86,2,.39,2.83.79s2,.83,3.23,1.35C4.75,748.84,2.51,748.06.71,748.93Z"/><path class="cls-1" d="M19.51,823.26c1.21-.44,1.24-.5,2.22-2.9C20.89,821.24,20.65,822.62,19.51,823.26Z"/><path class="cls-1" d="M21,870.24a3.67,3.67,0,0,1,3.48-.58C22.05,868.9,22,868.89,21,870.24Z"/><path class="cls-1" d="M19.43,751.89h0l0,0h0v0Z"/><path class="cls-1" d="M19.46,751.9l2.16,2.7C20.78,752.44,20.77,752.42,19.46,751.9Z"/><path class="cls-1" d="M22,853.15l2.49-.44-.05-.26a12.17,12.17,0,0,1-1.33.3,8.8,8.8,0,0,1-1.15,0C22,852.89,22,853,22,853.15Z"/><path class="cls-1" d="M20.57,1079.54l-1.31-.91V1080Z"/><path class="cls-1" d="M19.26,1078.56l-.05,0,.05,0Z"/><path class="cls-1" d="M19.64,873.1l-.93,2.09C19.72,874.69,19.51,873.81,19.64,873.1Z"/><path class="cls-1" d="M18.76,847.11c.3.67.58,1.32.87,2C19.5,848.36,19.78,847.44,18.76,847.11Z"/><path class="cls-1" d="M19.71,1045c-.17-.72-.34-1.43-.5-2.15l-.29.1C19.18,1043.59,19.44,1044.28,19.71,1045Z"/><path class="cls-1" d="M19.79,1045.23v-.06h0l-.08-.21.06.24Z"/><path class="cls-1" d="M21.07,1046.86l-1.28-1.63C19.78,1046.27,19.8,1046.29,21.07,1046.86Z"/><path class="cls-1" d="M19.74,872.78a1.19,1.19,0,0,0-.1.32l.13-.28a.64.64,0,0,0,0-.07l0,0Z"/><path class="cls-1" d="M19.75,872.75c.17-.24.3-.57.52-.67.86-.38.83-1,.66-1.71a4,4,0,0,1-.79,1.24A.9.9,0,0,0,19.75,872.75Z"/><path class="cls-1" d="M20.93,870.37v0h0l.07-.09-.09.06A.64.64,0,0,1,20.93,870.37Z"/><path class="cls-1" d="M19.74,849.45l0-.05h0c0-.11-.09-.21-.13-.31a1.22,1.22,0,0,0,.1.34Z"/><path class="cls-1" d="M21.06,850.86l-1.32-1.41C19.32,850.62,20.52,850.48,21.06,850.86Z"/><path class="cls-1" d="M19.32,801l1.94,1.26A1.92,1.92,0,0,0,19.32,801Z"/><path class="cls-1" d="M20.76,773l-1.23,1.47C20.12,774.19,20.78,774,20.76,773Z"/><path class="cls-1" d="M19.18,777.38l0,0s0-.08,0-.11Z"/><path class="cls-1" d="M19.2,777.23c.05-.57.1-1.14.16-1.71A2.94,2.94,0,0,0,19.2,777.23Z"/><path class="cls-1" d="M19.47,774.57l.06-.07-.08,0-.09,1a2.72,2.72,0,0,0,.11-.94Z"/><path class="cls-1" d="M19.66,741.21l-.11,0h.16l0-.06h0Z"/><path class="cls-1" d="M19,740.17l.71,1,.69-.88Z"/><path class="cls-1" d="M22,804l-.71-1.63C21,803.1,21.11,803.65,22,804Z"/><path class="cls-1" d="M21.29,802.32h0v0l0,0,0,.05Z"/><path class="cls-1" d="M19.78,790.43l0-.07,0,0Z"/><path class="cls-1" d="M20.36,789.44l-1-.22.43,1.14C19.92,790.09,20.1,789.83,20.36,789.44Z"/><path class="cls-1" d="M19.36,750.16c0,.57.05,1.14.08,1.7,0-.56.1-1.13.16-1.69Z"/><path class="cls-1" d="M19.44,823.4v-.08h0s0,0,.07,0l-.08,0Z"/><path class="cls-1" d="M19.62,825l-.18-1.62L19.35,825Z"/><path class="cls-1" d="M17.21,936.82c-.81,0-1.14.57-1.41,1.17a3.37,3.37,0,0,0,1.48,4.47c.43.25.88.48,1.52.82-2.09.32-3.32-.22-4.17-1.71a13.93,13.93,0,0,0-.62-1.29c-.17-.24-.55-.33-.84-.49-.17.34-.48.68-.47,1a2.2,2.2,0,0,0,.47,1.14,4.35,4.35,0,0,0,3.87,2.2,2.46,2.46,0,0,1,2.2.75,1.68,1.68,0,0,1,.38.18,1.06,1.06,0,0,1,.42.48,1.06,1.06,0,0,0-.42-.48,1.68,1.68,0,0,0-.38-.18h0l0,.05-.59.06a4.79,4.79,0,0,1,.55.91c.1.34,0,.73.12,1.07a6.37,6.37,0,0,0,.56,1.47c.31.54.8,1,1.1,1.53.64,1.14,1.12,1.31,2.41.75h.2l.12,0a3.15,3.15,0,0,1,.92.13c2.14.79,2.57,2.39,1.15,4.21A5.72,5.72,0,0,1,22,957.25a8.48,8.48,0,0,1-4.73-.78,17.31,17.31,0,0,1-5.39-3.86,25.14,25.14,0,0,0-6.74-5.07,6.86,6.86,0,0,0-4-.67,1.05,1.05,0,0,0-1,1.37c.13.94.43,1.27,1.44,1.15a9.12,9.12,0,0,1,6,1.37c1.62,1,3.11,2.23,4.69,3.32a31.4,31.4,0,0,0,4.94,3.25c5,2.2,10-.23,11.48-5.52.62-2.15.6-4.3-1.22-6a2,2,0,0,1-.43-.57c-1.05-2.32-2.95-3.16-5.38-3.16a2.33,2.33,0,0,1-1.49-.42,4.09,4.09,0,0,0-3-1.31c-1.05,0-1.41-.89-.86-1.77a1.55,1.55,0,0,1,1.82-.83c1.15.29,1.75-.37,2.31-1.34a2.92,2.92,0,0,0-3.19.43Z"/><path class="cls-1" d="M17.79,887.46v0a2.6,2.6,0,0,0-2.3,2.59,3.13,3.13,0,0,0,1.7,3.31,14.56,14.56,0,0,0,1.83.76c-1.65.47-2.86.28-3.78-.75a8.31,8.31,0,0,1-1.1-1.84c-.23-.46-.44-.93-1-.7s-.54.75-.35,1.22a4.34,4.34,0,0,0,.6,1.1c1.3,1.62,2.91,2.5,4.9,1.9l.7,1.33s-.05-.07-.05-.07c.49,1.38.52,3,1.86,4,.07,0,.06.22.11.33.6,1.35,1,1.53,2.49,1.35a11.08,11.08,0,0,1,2.06.13l.06,0c.24.07.65.06.71.21a2.92,2.92,0,0,1,.19,2.59,5.26,5.26,0,0,1-4.61,3.24c-3.23.3-5.85-1.07-8.2-3.08-1.42-1.21-2.71-2.56-4.15-3.74-2-1.65-4.07-3.19-6.76-3.58a3.21,3.21,0,0,0-2.66.67c.11.63.23,1.29.35,2a9.18,9.18,0,0,1,6.17.71c1.83,1,3.52,2.27,5.26,3.44A47.9,47.9,0,0,0,17,908.22a8.18,8.18,0,0,0,11.85-5.82c.42-2,.35-3.95-1.29-5.53a5.28,5.28,0,0,1-.77-1.38h-.07A5.83,5.83,0,0,0,21.56,893a1.92,1.92,0,0,1-1.34-.36,3.91,3.91,0,0,0-3-1.24,1.17,1.17,0,0,1-.74-2.09,2.44,2.44,0,0,1,1.42-.56c.62-.09,1.3.1,1.71-.57h.08a.11.11,0,0,0,0-.06l.81-.81a3.41,3.41,0,0,0-2.54.11Zm1.79,8.5c-.21-.12-.48-.06-.62.47h0C19.1,895.9,19.37,895.84,19.58,896Z"/><path class="cls-1" d="M17.22,1034.72c-.32.13-.72.17-.92.4a3.38,3.38,0,0,0,.94,5.21c.44.25.9.45,1.51.75a3.24,3.24,0,0,1-4-1.41c-.32-.49-.46-1.11-.8-1.58a1.07,1.07,0,0,0-.88-.32c-.18,0-.4.43-.43.68a1.54,1.54,0,0,0,.21.85c.91,1.59,2.1,2.76,4.09,2.75a2.59,2.59,0,0,1,2.22.7l0,.06h0l0,0,0,0-.06,0a1.16,1.16,0,0,1,1,1.31,1.35,1.35,0,0,0,1.49,1.55c.46,1.92.46,1.9,2.27,1.94a2.19,2.19,0,0,1,1.16.4,3.35,3.35,0,0,1,.75,4.91,6.71,6.71,0,0,1-1.75,1.52c-2.23,1.34-4.52.95-6.75,0a18.27,18.27,0,0,1-5.8-4.21,23.19,23.19,0,0,0-6.65-4.88,6.1,6.1,0,0,0-3.51-.56,1.28,1.28,0,0,0-1.2,1.64c.14.86.69.89,1.45.92a17.59,17.59,0,0,1,4.23.56,17.67,17.67,0,0,1,6.08,3.77,32.52,32.52,0,0,0,4.05,3c5.33,3.14,11.37.68,12.78-5.19.64-2.65.16-5-2.31-6.63-.12-.08-.16-.28-.24-.43h0c0-.22.13-.5,0-.61a5.53,5.53,0,0,0-4-1.8c-.69,0-1.62,0-2-.42a4.45,4.45,0,0,0-3.19-1.32c-1-.06-1.32-1-.74-1.84a1.84,1.84,0,0,1,1.84-.81c1.4.07,1.5,0,2-1.43a3,3,0,0,0-2.93.57Z"/><path class="cls-1" d="M12.6,520.21c-1,.89-2.1,1.81-3.23,2.59-2.6,1.76-5.37,3-8.63,2.32-.15,0-.32.1-.47.16-.24,2.1.31,2.84,2.29,2.46a11.62,11.62,0,0,0,4.3-1.69,53.65,53.65,0,0,0,5.55-4.57,15.57,15.57,0,0,1,6.39-3.91c2.65-.7,5-.29,6.89,1.87a2.82,2.82,0,0,1,.72,3.15c-.38.89-1.77,1.3-3.11,1-1.14-.25-1.83,0-2.25.92-.65,1.47-2.13,2.57-1.95,4.41,0,.19-.24.41-.37.61h0c-.18.29-.34.58-.54.91a8.22,8.22,0,0,1-.86,0A4.5,4.5,0,0,0,13,532.83a2.2,2.2,0,0,0-.38,1.17,1.1,1.1,0,0,0,.54.78c.13.08.58-.15.71-.35.31-.44.47-1,.75-1.43a3.28,3.28,0,0,1,3.86-1.65c-2.95,2-3.67,3.49-2.68,5.35.81,1.51,2.62,2.08,4.8,1.25l-1-.64h0c-.54-.61-1.23-.43-1.93-.39A1.69,1.69,0,0,1,16,535.37c0-1,.71-1.08,1.49-1.14.53,0,1.22-.06,1.53-.39a4.51,4.51,0,0,1,3.73-1.35,7.28,7.28,0,0,0,1.22-.31c2.16-.4,2.37-2.78,3.87-3.88a3.08,3.08,0,0,0,1-1.87c1-5.65-4.05-11.08-9.7-9.81A15.31,15.31,0,0,0,12.6,520.21Z"/><path class="cls-1" d="M9.6,571.61c-2.61,1.86-5.42,3.13-8.76,2.5-.15,0-.33.09-.48.14C-.18,576.36,0,576.7,2,576.66A7.93,7.93,0,0,0,5.15,576a23.46,23.46,0,0,0,6.75-5c2.3-2.28,4.83-4.14,8.16-4.61a5.91,5.91,0,0,1,5.63,2.09c1.33,1.53,1.22,2.89-.24,4.42h0c-.23.18-.44.38-.66.57.22-.19.43-.39.66-.57h0a17.7,17.7,0,0,1-1.94-.19c-1.69-.32-1.94-.23-2.62,1.26-.1.22-.1.56-.26.65-1.42.79-1.33,2.12-1.34,3.42l-.05.11v.06c-1.11,0-.34.92-.56,1.42-.32-.05-.61-.11-.9-.14A4.58,4.58,0,0,0,13,581.91a1.81,1.81,0,0,0-.31.83,4,4,0,0,0,.42,1,3,3,0,0,0,.86-.46,4.51,4.51,0,0,0,.47-1c1.1-2.06,2.51-2.6,4.94-1.78-1.87.16-3.28.83-3.8,2.63a3,3,0,0,0,1,3.39,3.46,3.46,0,0,0,3.61.61c-.06-.23-.06-.37-.13-.44a2,2,0,0,0-.4-.29c-.44-.92-1.27-.62-2-.65A1.63,1.63,0,0,1,16,584.26c.08-.94.78-1,1.55-1.15a3.73,3.73,0,0,0,2-.66,3.54,3.54,0,0,1,2.44-.9c2.07-.12,3.89-.75,4.77-2.9a1.77,1.77,0,0,1,.55-.7A5.2,5.2,0,0,0,29,573.22c-.33-4.36-4.32-7.87-8.07-7.74a12.32,12.32,0,0,0-7.37,3C12.21,569.49,11,570.63,9.6,571.61Z"/><path class="cls-1" d="M12.75,471.15c-3.44,2.79-6.77,5.7-11.69,5-.25,0-.73.41-.84.72a1.3,1.3,0,0,0,1.18,1.8,6.68,6.68,0,0,0,5.1-1.41,71.76,71.76,0,0,0,6-4.89,15.2,15.2,0,0,1,7.13-4,6.21,6.21,0,0,1,6.56,2.73,3.07,3.07,0,0,1-.12,3.4,2.26,2.26,0,0,1-2.67,1.31c-.81-.2-1.25.24-1.47,1-.1.34-.14.69-.22,1.1-1.07-.13-1.46.42-1.5,1.36A1.7,1.7,0,0,1,18.7,481c-.64.12-1.27.29-1.91.35a5,5,0,0,0-4,3.19,1.36,1.36,0,0,0,.33,1.21c.56.37.77-.22,1-.64a11.7,11.7,0,0,1,1.52-2.19,2.49,2.49,0,0,1,3-.51c-2.94,1.61-3.8,3.23-2.82,5.18A3.36,3.36,0,0,0,20.26,489a1.59,1.59,0,0,0-1.63-1.15,8.69,8.69,0,0,1-1.25,0A1.6,1.6,0,0,1,16,486.21c.15-.78.68-1,1.45-1a2.94,2.94,0,0,0,1.83-.54,3.58,3.58,0,0,1,2.75-1,6,6,0,0,0,1.76-.34,4.44,4.44,0,0,0,2.46-1.82c-1.23.28-2,1.05-3,.42a18.21,18.21,0,0,0,2.64-1A5.36,5.36,0,0,0,29,476.34c.36-5-4.88-11.12-11.72-8.09A20.77,20.77,0,0,0,12.75,471.15Z"/><path class="cls-1" d="M15.61,592.89a4.48,4.48,0,0,0,.2,2.26c.49,1.46,1.92,1.8,3.42,2.31-2.48.52-3.86-.11-4.84-2.05a5.72,5.72,0,0,0-.44-1c-.16-.21-.56-.46-.7-.39s-.63.54-.58.74a5.1,5.1,0,0,0,.77,1.77,4.49,4.49,0,0,0,4.85,1.83l.66,1.33,0-.07c.59,1.29.33,3,1.85,3.85,0,0,0,.12,0,.17.86,1.88,2.68,2.26,4.57,1a3.58,3.58,0,0,0,.24.48c1.39,1.83,1.27,3.32-.41,4.88-1.93,1.78-4.22,1.85-6.59,1.23A14,14,0,0,1,13,607.86a70.79,70.79,0,0,0-6.56-5.31,10.28,10.28,0,0,0-4.17-1.49c-1.8-.28-2.36.7-1.73,2.63a2.87,2.87,0,0,0,.66,0,9.75,9.75,0,0,1,7.33,1.81,51.31,51.31,0,0,1,4.43,3.38,16.1,16.1,0,0,0,4.91,3,8.11,8.11,0,0,0,10.86-5.7c.64-2.29.59-4.53-1.43-6.28a5.61,5.61,0,0,1-.8-1.15h-.07a3.36,3.36,0,0,0-2.08-1.94,25.52,25.52,0,0,0-2.79-.57c-.5-.11-1.16-.13-1.46-.45a2.84,2.84,0,0,0-2.69-1c-.68.09-1.31-.31-1.27-.94a2.86,2.86,0,0,1,.87-1.6c.22-.23.79-.08,1.18-.19s1-.37,1.51-.56l0,0,0-.05h0l.75-.85C17.4,590.33,16,591,15.61,592.89Zm3.9,6.4c-.18,0-.38.12-.55.44h0C19.13,599.41,19.33,599.27,19.51,599.29Z"/><path class="cls-1" d="M14.39,616.73a34.23,34.23,0,0,0-3.09,2.48c-2.92,2.28-5.9,4.41-9.93,3.87a1,1,0,0,0-1.17.86c-.14.72,0,1.43.79,1.59a4.84,4.84,0,0,0,2.3,0A11.78,11.78,0,0,0,6.71,624a72.15,72.15,0,0,0,5.85-4.78,15.2,15.2,0,0,1,6.26-3.76,6.43,6.43,0,0,1,6.13,1.1c1.94,1.61,2.11,3,.65,5.09a.78.78,0,0,0-.11.2h-.55a14.12,14.12,0,0,0-2.4-.46,1.66,1.66,0,0,0-1.3.71,5.66,5.66,0,0,1-1.58,2.26c-.22.17-.22.65-.3,1-.11.51-.2,1-.29,1.55h0l-.79,1.48c-.42,0-.77-.12-1.12-.14a4.77,4.77,0,0,0-4.43,3.33c-.06.33.22.72.35,1.09.32-.18.76-.27,1-.54.46-.62.73-1.38,1.22-2a3.19,3.19,0,0,1,3.6-1c-3.17,1.74-4,3.25-3,5.27.71,1.5,2.53,2.09,5,1.21l-1.08-.46h0c-.5-.65-1.18-.49-1.89-.43A1.68,1.68,0,0,1,16,633.33c-.06-.72.34-1,1.42-1.19.63-.11,1.45-.18,1.81-.59a3.92,3.92,0,0,1,3-1.14c1.82-.14,3.49-.71,4.25-2.63h0a14.68,14.68,0,0,0,1.12-1.38,6.63,6.63,0,0,0,1.16-2.19c1-5.81-4.27-11.16-9.95-9.61A19.07,19.07,0,0,0,14.39,616.73Zm5.24,18.53c-.23.31-.37.48-.55.55.18-.07.32-.24.55-.55Z"/><path class="cls-1" d="M17.37,443.71a8.05,8.05,0,0,0-1.53,1.69,4.61,4.61,0,0,0-.24,2.11c.07,1.74,1.7,2.21,3.08,3.25-3.21.41-4.06-1.91-5.18-3.8a1.35,1.35,0,0,0-.44,2.15,4.79,4.79,0,0,0,4.27,2.53c1.81,0,2.58.6,2.86,2.26a1.36,1.36,0,0,0,1.51,1.26c.43,1.84.63,2.07,1.67,2.06a3,3,0,0,1,2.81,4.64,6.08,6.08,0,0,1-6.53,2.76,14.41,14.41,0,0,1-6.86-3.77c-1.69-1.54-3.39-3.06-5.22-4.43a13.35,13.35,0,0,0-3.65-1.9,6.67,6.67,0,0,0-2.82-.15c-.77.08-1.09.87-.91,1.68s.69.87,1.37.73a8.41,8.41,0,0,1,5.23,1,23.83,23.83,0,0,1,5.91,4.09,15.88,15.88,0,0,0,5.35,3.26c5.1,1.76,9.75-1.54,10.79-6.38.48-2.21.24-4.41-1.81-5.83a10.57,10.57,0,0,0-3.42-1.45,17.12,17.12,0,0,0-3.39-.21c1.07-.9,1.06-.88,2.1-.65,1.24.27,2.49.52,3.79.79-.93-1.41-2.38-1.73-3.88-1.88a3.94,3.94,0,0,1-2.91-1.11c-.35-.41-1.18-.45-1.81-.53-1-.13-1.51-.48-1.48-1.2a1.51,1.51,0,0,1,1.33-1.48,13.57,13.57,0,0,1,1.43,0,1.36,1.36,0,0,0,1.4-1.37C18.78,444.85,18.44,444.86,17.37,443.71Z"/><path class="cls-1" d="M17.16,346a3.08,3.08,0,0,0-1.57,3.28c.15,2,1.74,2.63,3.6,3.25a5,5,0,0,1-.92.32,3.79,3.79,0,0,1-4-2.65c-.2-.48-.36-1.22-1.06-.93s-.41,1-.24,1.57a2.61,2.61,0,0,0,.37.62,4.43,4.43,0,0,0,4.17,2,2.27,2.27,0,0,1,2.72,2.07c.13,1,.47,1.58,1.47,1.56.51,1.86.52,1.83,2.36,1.95a1.86,1.86,0,0,1,1.25.58c1.92,2.46,1.85,3.59-.08,5.41a7.27,7.27,0,0,1-2.29,1.37,6.83,6.83,0,0,1-5.26-.38A19.62,19.62,0,0,1,12,362.21c-1.78-1.6-3.66-3.1-5.59-4.53a6.43,6.43,0,0,0-4-1.38c-1.82,0-2.13.48-1.58,2.45a7.94,7.94,0,0,0,.84,0,9.93,9.93,0,0,1,6.51,1.69,38.27,38.27,0,0,1,4.05,3,16.33,16.33,0,0,0,5.6,3.54c4.09,1.23,7.07.27,9.48-2.84a7,7,0,0,0-.1-9.18,1.9,1.9,0,0,1-.33-.43c-.93-2.27-2.8-2.93-5.06-3.06a3.57,3.57,0,0,1-1.95-.67,3.18,3.18,0,0,0-2.42-.94c-.75.06-1.35-.22-1.41-1a1.54,1.54,0,0,1,1.16-1.62c.33-.12.73,0,1.07-.05a10.93,10.93,0,0,0,1.3-.51A2.81,2.81,0,0,1,17.16,346Zm4,8.83c-.37.2-.35.58,0,1.34l1.13-.25-1.14.25C20.8,355.44,20.78,355.06,21.15,354.86Z"/><path class="cls-1" d="M12.26,667.42c-1.27.9-2.44,2-3.75,2.8a10.38,10.38,0,0,1-7.17,1.87,4.51,4.51,0,0,0-.83,0c-.59,1.84-.3,2.31,1.37,2.46a6.73,6.73,0,0,0,4-1,30.75,30.75,0,0,0,6.35-5,13.93,13.93,0,0,1,7.72-4.34,5.89,5.89,0,0,1,6,2.39c1.15,1.53,1,2.7-.42,4.09l.05-.07-.12.06c-.88-.11-1.75-.28-2.63-.31a1.76,1.76,0,0,0-1.29.43c-.7.95-1.26,2-1.87,3v0l0,.09,0,0c-.13.79-.25,1.58-.37,2.36l-.4-.06c.08.87.61,1.17,1.42,1.29a13.26,13.26,0,0,0,5.9-.6l0,0,.05,0-.1,0c3.17-2.2,3.59-5.2,2-8.53-2.13-4.57-6.48-6-11-4.14A27.5,27.5,0,0,0,12.26,667.42Z"/><path class="cls-1" d="M10.65,423.88c-2.11,1.62-4.33,3.06-7.08,3.35-.71.07-1.43,0-2.15,0a1.14,1.14,0,0,0-1.2,1.09,1.06,1.06,0,0,0,.87,1.35,2.83,2.83,0,0,0,1.4.13,17,17,0,0,0,3.39-1.16c2.8-1.46,5-3.71,7.3-5.82s5-3.73,8.41-3.51a5.27,5.27,0,0,1,4.79,3.28,3.06,3.06,0,0,1-2.79,4.26,2.24,2.24,0,0,0-1.05.13c-.91.56-.58,2.26-2.09,2.35-.07,0-.13.31-.19.48l-.87,2.53a8,8,0,0,0,6.83-.65,4.82,4.82,0,0,0,2.64-3.28c.95-5.4-3.36-9.91-7.75-9.93a11.31,11.31,0,0,0-7,2.53C12.93,421.92,11.84,423,10.65,423.88Z"/><path class="cls-1" d="M9.21,718.78a12.1,12.1,0,0,1-5.79,2.35,25.27,25.27,0,0,1-2.61,0c-.56,2-.16,2.63,1.73,2.45a8.27,8.27,0,0,0,2.57-.71,21.89,21.89,0,0,0,6.37-4.67A19.59,19.59,0,0,1,17.09,714a8.45,8.45,0,0,1,4.55-.87,5.62,5.62,0,0,1,4.72,3.16,2.89,2.89,0,0,1-.46,3.21c-.61.82-1.23,1.64-2.54,1.14-.77-.29-1.2.32-1.44,1-.11.33-.14,1-.29,1-1.34.24-1.32,1.34-1.62,2.29-.1.31-.57.51-.89.75,0,.19,0,.5.1.52a12.35,12.35,0,0,0,1.91.35,11.86,11.86,0,0,0,5.19-.86l0,0c1.09-1,2.35-2,2.6-3.56.83-5.29-3.46-9.91-7.92-9.8a12.54,12.54,0,0,0-7.67,3.15C11.94,716.62,10.62,717.77,9.21,718.78Z"/><path class="cls-1" d="M12,373.78c-1.71,1.2-3.43,2.42-5.23,3.48a8.2,8.2,0,0,1-4.87,1c-.35,0-.7,0-1,0-.68,1.88-.34,2.54,1.4,2.46A6.64,6.64,0,0,0,5,380.05a30.53,30.53,0,0,0,4.36-2.85c1.5-1.18,2.82-2.61,4.29-3.83a11.93,11.93,0,0,1,7-3.1A5.88,5.88,0,0,1,26.15,373a2.9,2.9,0,0,1-.06,3.39c-.63.95-1.31,1.94-2.76,1.38-.63-.24-1.06.15-1.28.7a11.39,11.39,0,0,0-.37,1.43c-1-.07-1.43.39-1.47,1.36,0,.67-.19,1.31-1,1.47l-.23.43a1.2,1.2,0,0,0,.3.2,10.78,10.78,0,0,0,7.1-.58h0s0,0,0,0h0a9,9,0,0,0,1.28-1.26,7.07,7.07,0,0,0,1.23-2.35,8.62,8.62,0,0,0-4.21-8.7,8.55,8.55,0,0,0-8.61.3A48.45,48.45,0,0,0,12,373.78Z"/><path class="cls-1" d="M19.18,382.77h0v0Z"/><path class="cls-1" d="M20.3,696.26c-.81.12-1.31.43-1.4,1.28a.67.67,0,0,1,.16.14c.19.72.38,1.45.56,2.17h0l0,.08v0c.57,1,1.08,2,1.74,2.89a1.26,1.26,0,0,0,1.84.35l2.17-.11.16.07h0l0-.06h0a3.2,3.2,0,0,0-.29-.52,3.2,3.2,0,0,1,.29.52c1.38,1.36,1.53,2.46.51,3.93a5.9,5.9,0,0,1-3.27,2.39,7.76,7.76,0,0,1-6.39-1.06,29.44,29.44,0,0,1-4.53-3.5A31.7,31.7,0,0,0,5.55,700a5.64,5.64,0,0,0-5.14-.45c.07.68.13,1.35.22,2.15,4.1-.67,7.19,1.11,10.12,3.33.58.43,1.07,1,1.65,1.39A30.27,30.27,0,0,0,17,709.51a8,8,0,0,0,9.94-2.1c2.31-2.81,3.44-7.73-.83-10.49l.11,0-.06,0,0,0A13,13,0,0,0,20.3,696.26Z"/><path class="cls-1" d="M19.34,402.81a5.64,5.64,0,0,1,.78,1.33c.23.89,0,2,1.44,2.1.11,0,.21.39.29.61.52,1.34.52,1.28,1.88,1.28a2.73,2.73,0,0,1,1.62.5,3.26,3.26,0,0,1,.45,4.8,6.2,6.2,0,0,1-7,2,14.9,14.9,0,0,1-6.39-3.92A25.44,25.44,0,0,0,5.11,406a9.74,9.74,0,0,0-3.29-.75c-1.19-.09-1.52.35-1.43,1.3s.4,1.16,1.54,1.24a16.14,16.14,0,0,1,4.05.63,19.41,19.41,0,0,1,6.47,4.2,17.08,17.08,0,0,0,5.13,3.28c5.15,2,9.8-.94,11.14-5.75.53-1.94.59-3.94-.95-5.61C25.68,402.26,21.46,401.5,19.34,402.81Z"/><path class="cls-1" d="M16.57,511.21a5.07,5.07,0,0,0,5.87-.23c-3.29.78-5.74-.63-7.88-2.86-.37-.39-.73-.8-1.07-1.22a24.12,24.12,0,0,1-4-7.4,3.69,3.69,0,0,0-2.3-2.59,9,9,0,0,0-6.38.42,8.91,8.91,0,0,1,6,3.44c2,2.36,3.81,4.81,5.86,7.08A19.53,19.53,0,0,0,16.57,511.21Z"/><path class="cls-1" d="M9.62,580a21,21,0,0,1,5-8.24c2.05-2.06,4.31-3.46,7.43-2.93a3.49,3.49,0,0,0-3.13-.93,7.72,7.72,0,0,0-4.69,2.48c-2.13,2.36-4.19,4.79-6.21,7.25-1.85,2.27-3.76,4.42-6.84,5.14a15.53,15.53,0,0,0,3.21.66A4.64,4.64,0,0,0,9.62,580Z"/><path class="cls-1" d="M12.89,606.1a11.1,11.1,0,0,0,4.41,3.35,4.84,4.84,0,0,0,5.07-.56c-1.81.26-3.62.3-5.15-.81a21,21,0,0,1-3.38-2.93,22,22,0,0,1-4.4-7.81A3.64,3.64,0,0,0,7,594.7a8.79,8.79,0,0,0-6,.47c3.31.59,5.15,2.62,6.89,4.79S11.19,604.07,12.89,606.1Z"/><path class="cls-1" d="M9.59,531.13a20.67,20.67,0,0,1,4.26-7.46c2.25-2.57,4.75-4.61,8.56-3.7a4.49,4.49,0,0,0-4.54-.77A8.21,8.21,0,0,0,14.8,521c-2.28,2.37-4.42,4.89-6.55,7.4-1.9,2.25-3.67,4.61-6.86,5.22,0,.13.08.26.11.38a22.91,22.91,0,0,0,2.83.48C6.8,534.61,8.75,533.83,9.59,531.13Z"/><path class="cls-1" d="M9.56,629a23.94,23.94,0,0,1,4.19-7.32C16,619,18.58,617,22.43,617.86a4.68,4.68,0,0,0-5.39-.44,16.87,16.87,0,0,0-4,3.05c-1.73,1.83-3.25,3.86-4.83,5.83-1.8,2.26-3.64,4.46-6.79,5.23a5,5,0,0,0,3.43.81C7.46,632.37,8.64,631.43,9.56,629ZM7,630.75a2.47,2.47,0,0,0,.61-.4,2.94,2.94,0,0,0,.46-.57,2.94,2.94,0,0,1-.46.57A2.47,2.47,0,0,1,7,630.75Zm1.56-2c.06-.16.12-.35.18-.53C8.69,628.45,8.63,628.64,8.57,628.8Zm.3-.89h0l-.16-.08Z"/><path class="cls-1" d="M9.55,482.12a23.39,23.39,0,0,1,4.39-7.6c2.3-2.61,5-4.49,8.92-3.3-2.18-1.49-3.5-1.65-5.57-.82a11.3,11.3,0,0,0-4.4,3.36q-2.73,3.24-5.37,6.55c-1.6,2-3.4,3.72-6,4.3l0,.45c1.11.11,2.22.29,3.34.31C7.63,485.42,8.6,484.72,9.55,482.12Z"/><path class="cls-1" d="M14.18,558.47a7.92,7.92,0,0,0,4.49,2.5,4.09,4.09,0,0,0,3.72-1c-3,.7-5.28-.4-7.34-2.4A22.5,22.5,0,0,1,9.63,549c-1-2.65-2.18-3.51-5-3.43a30.69,30.69,0,0,0-3.16.41c0,.14,0,.28,0,.42a9.65,9.65,0,0,1,4.84,3c.81,1,1.61,1.94,2.42,2.9C10.57,554.31,12.33,556.44,14.18,558.47Z"/><path class="cls-1" d="M12.48,654.55a22,22,0,0,0,4.07,3.51,4.67,4.67,0,0,0,5.16.15c-3.85.19-6.32-2-8.46-4.74a25.85,25.85,0,0,1-3.77-7,5.36,5.36,0,0,0-8-2.26,9.61,9.61,0,0,1,5.76,3.89C8.93,650.31,10.62,652.51,12.48,654.55Z"/><path class="cls-1" d="M9.61,677.91a20.19,20.19,0,0,1,4.28-7.44c2.16-2.48,4.61-4.34,8.24-3.81a4.38,4.38,0,0,0-3.33-.83,8.11,8.11,0,0,0-4.64,2.59c-2.3,2.6-4.52,5.27-6.77,7.93-1.67,2-3.44,3.75-6.15,4.3a11.9,11.9,0,0,0,2.64.67C6.66,681.61,8.77,680.69,9.61,677.91Z"/><path class="cls-1" d="M13,459.32a10,10,0,0,0,5.48,3.6,4.51,4.51,0,0,0,4.37-1.32,5.81,5.81,0,0,1-6.16-.72,16,16,0,0,1-2.92-2.65,22.38,22.38,0,0,1-4.31-7.65,3.74,3.74,0,0,0-2.94-2.85,8.71,8.71,0,0,0-5,.49c2.82.74,4.64,2.7,6.34,4.84S11.23,457.28,13,459.32Zm-4.77-8.9a4,4,0,0,0-.39-.65A4,4,0,0,1,8.23,450.42ZM5.51,449h0l3.18,3Z"/><path class="cls-1" d="M9.5,433.31a24.27,24.27,0,0,1,4-7.22c2.21-2.69,4.7-4.85,8.64-4.43a5.45,5.45,0,0,0-1.38-.57,5.76,5.76,0,0,0-4.33.76A25.13,25.13,0,0,0,12.74,425c-1.78,1.95-3.38,4.06-5,6.12s-3.6,4.12-6.56,4.62a7.41,7.41,0,0,0,1.91.61,13,13,0,0,0,2.16.09C7.57,436.37,8.7,435.54,9.5,433.31Z"/><path class="cls-1" d="M12.22,703.27a13.23,13.23,0,0,0,5,4.1,4.64,4.64,0,0,0,4.93-.39c-4,.74-6.46-1.64-8.71-4.3a23.24,23.24,0,0,1-4-7.24,4,4,0,0,0-4.36-3.05,32,32,0,0,0-3.87.48,12.37,12.37,0,0,1,6.35,4.67C9.11,699.45,10.63,701.39,12.22,703.27Z"/><path class="cls-1" d="M.25,519.16c-.06.76-.14,1.29-.14,1.82,0,1.79.5,2.43,2.33,2.46a10.91,10.91,0,0,0,3.69-.51c3.2-1.14,5.63-3.4,7.88-5.85a3.6,3.6,0,0,0,.23-.8A18.13,18.13,0,0,1,.25,519.16Z"/><path class="cls-1" d="M17.07,364.47a4.84,4.84,0,0,0,5-.32,7.27,7.27,0,0,1-6.32-2,23.37,23.37,0,0,1-3.6-4.22,35.08,35.08,0,0,1-2.68-5.47,4.27,4.27,0,0,0-3.39-2.88,8.54,8.54,0,0,0-5,.67,9.15,9.15,0,0,1,5.46,3.25c1.9,2.32,3.79,4.65,5.73,6.94A13.74,13.74,0,0,0,17.07,364.47Z"/><path class="cls-1" d="M5.16,508a11.78,11.78,0,0,0-3.88.05,1.22,1.22,0,0,0-1.12,1.23c0,.88,0,1.75,0,2.84a19,19,0,0,1,13.93,2.46C11.69,511.64,9,509,5.16,508Z"/><path class="cls-1" d="M12.14,409.28a22.7,22.7,0,0,0,3.94,3.65,5.06,5.06,0,0,0,6.24.09,5.82,5.82,0,0,1-4.36-.43,16.69,16.69,0,0,1-3.7-2.8,22.88,22.88,0,0,1-4.76-8c-.92-2.52-2.08-3.31-4.73-3.28a11.88,11.88,0,0,0-2.15.22,5.9,5.9,0,0,0-1.29.67c3,.5,4.56,2.33,6.11,4.17S10.49,407.45,12.14,409.28Z"/><path class="cls-1" d="M9.59,727a28.09,28.09,0,0,1,2.56-5.15c2.43-3.54,5.09-6.91,10.24-6a5.15,5.15,0,0,0-4.3-.75,8.15,8.15,0,0,0-3.95,2.41c-2.31,2.61-4.55,5.29-6.77,8a12.28,12.28,0,0,1-5.85,4.35,12.53,12.53,0,0,0,1.37.36,13.08,13.08,0,0,0,2,.16C7.52,730.27,8.56,729.44,9.59,727Z"/><path class="cls-1" d="M.25,617.14c0,.73-.14,1.37-.13,2,0,1.42.29,1.89,1.71,2.05A9.35,9.35,0,0,0,5.71,621c3.66-1.22,6.38-3.76,9.09-7C8,617.49,7.91,617.51.25,617.14Z"/><path class="cls-1" d="M14.46,565.6c-2.44.9-4.64,1.78-6.89,2.53s-4.73.27-7.27.1c-.08.76-.18,1.39-.21,2-.06,1.48.18,1.8,1.62,2A8.39,8.39,0,0,0,7,571.63,25,25,0,0,0,14.46,565.6Z"/><path class="cls-1" d="M9.7,383.88a23.83,23.83,0,0,1,2.49-5,23.38,23.38,0,0,1,3.5-4.07A7.1,7.1,0,0,1,22.37,373a4.79,4.79,0,0,0-5.28-.42,10.57,10.57,0,0,0-2.92,2c-2,2.19-4,4.49-5.87,6.81s-3.68,4.6-6.85,5.23c0,.14.08.27.13.41a22.88,22.88,0,0,0,2.46.39C6.58,387.56,8.45,387.29,9.7,383.88Z"/><path class="cls-1" d="M5.22,605.9a10.06,10.06,0,0,0-3.71,0A1.84,1.84,0,0,0,.25,607a3.63,3.63,0,0,0,.27,3,18.65,18.65,0,0,1,13.65,2.5C11.69,609.58,9,606.94,5.22,605.9Z"/><path class="cls-1" d="M7.32,459.79a8.55,8.55,0,0,0-4.87-.92c-2,.19-2.51.75-2.32,2.77.11,1.27.38,1.48,1.74,1.28a13,13,0,0,1,6.05.27c2.14.69,4.22,1.6,6.64,2.53A27.47,27.47,0,0,0,7.32,459.79Z"/><path class="cls-1" d="M14,664s0-.2,0-.31-.25-.07-.32,0c-3.8,2.21-7.8,3.34-12.22,2.49a1.23,1.23,0,0,0-.95.32,2.45,2.45,0,0,0,1.25,3.7,7.85,7.85,0,0,0,4.42-.31A22.12,22.12,0,0,0,14,664Z"/><path class="cls-1" d="M13.09,660a32,32,0,0,0-3.15-2.69,22.36,22.36,0,0,0-3.58-2.07,6.83,6.83,0,0,0-4.93-.36c-1.19.35-1.61,1.45-1.26,3,.21.92.46,1,2,.84a16.15,16.15,0,0,1,8.3,1.08c1.14.47,2.24,1.05,3.36,1.58l.18-.17A7.53,7.53,0,0,0,13.09,660Z"/><path class="cls-1" d="M11.34,560.59a39.41,39.41,0,0,0-5-3.2A6.55,6.55,0,0,0,1.61,557c-1.34.35-1.81,1.38-1.45,3,.22,1,.57,1.13,2.12.89a15.86,15.86,0,0,1,9,1.42c.86.39,1.69.84,2.54,1.27l.24-.32A25.57,25.57,0,0,0,11.34,560.59Z"/><path class="cls-1" d="M13.74,467.76c-1.19.56-2.36,1.18-3.58,1.66a16.35,16.35,0,0,1-8.31,1,1.86,1.86,0,0,0-1.44.33,2.43,2.43,0,0,0,1.28,3.6,6.93,6.93,0,0,0,4.08-.22A16.8,16.8,0,0,0,13.74,467.76Z"/><path class="cls-1" d="M10.4,706.7a13.4,13.4,0,0,0-5.69-3A5.29,5.29,0,0,0,1.2,704c-.34.17-.78.55-.79.84a28.86,28.86,0,0,0,.22,2.94c7.62-.49,8,.08,13.91,2.75C13.16,709.26,11.85,707.89,10.4,706.7Z"/><path class="cls-1" d="M10.26,363.73a11.6,11.6,0,0,0-5.57-2.79,10.26,10.26,0,0,0-3.17.15A1.42,1.42,0,0,0,.6,362a3.8,3.8,0,0,0,.32,3.06c4.91-1.15,9.32.27,13.64,2.62C13.13,366.38,11.75,365,10.26,363.73Z"/><path class="cls-1" d="M14.51,418.55c-2.22.87-4.38,1.82-6.61,2.57s-4.72.44-7.27.11c-.09,1-.15,1.79-.25,2.6a1,1,0,0,0,.87,1.33,9.75,9.75,0,0,0,3.16.23C8.78,424.58,11.65,421.53,14.51,418.55Z"/><path class="cls-1" d="M14.18,712.5c-3.9,2.12-7.88,3.58-12.4,2.71-.3-.06-.92.1-.95.26a8.53,8.53,0,0,0-.32,2.78c0,.37.82.82,1.33.94a7.53,7.53,0,0,0,5.22-.77A21.08,21.08,0,0,0,14.18,712.5Z"/><path class="cls-1" d="M6.55,410.47a7.75,7.75,0,0,0-4.74-.56c-1.19.24-1.38.51-1.38,1.7a9.75,9.75,0,0,0,0,1.08c.12,1.15.31,1.25,1.49,1.22a35.37,35.37,0,0,1,4.83,0,20.94,20.94,0,0,1,7.39,2.71A20.81,20.81,0,0,0,6.55,410.47Z"/><path class="cls-1" d="M14,369.55c-.63.34-1.25.7-1.89,1a15.89,15.89,0,0,1-8.84,2c-2.88-.28-2.89-.31-2.87,2.62a4.07,4.07,0,0,0,.13.65,6.47,6.47,0,0,0,6,0A18.06,18.06,0,0,0,14,369.55Z"/><path class="cls-1" d="M17.87,394.69c-1.79.9-2.22,1.51-2.32,3-.14,2.21,1.35,3.12,3.25,3.85a3.34,3.34,0,0,1-4.21-1.61c-.28-.46-.47-1-.77-1.42a.69.69,0,0,0-.62-.2.67.67,0,0,0-.42.48A3.06,3.06,0,0,0,13,400a4.49,4.49,0,0,0,4.41,2.52c.89-.09,1.75-.37,2.64-.5,2-.3,4-.68,5.92.51,0,0,.14-.11.24-.2a5.8,5.8,0,0,0-4.3-1.91c-.58,0-1.36,0-1.69-.35a4.56,4.56,0,0,0-3.2-1.36,1,1,0,0,1-.78-1.69,3.38,3.38,0,0,1,1.59-.95,9,9,0,0,1,1.81-.29C18.9,395.66,18,395.89,17.87,394.69Z"/><path class="cls-1" d="M19.63,395.79l.15,0-.05,0Z"/><path class="cls-1" d="M20.31,433c-.88-.21-1.76-.38-2.65-.52-2.05-.35-3.45.67-4.52,2.27a2.18,2.18,0,0,0-.39,1.17,1.19,1.19,0,0,0,.53.79c.1.07.55-.18.68-.39.36-.55.57-1.2.95-1.72A3.09,3.09,0,0,1,19,433.52c-3,1-4.11,2.7-3.22,5,.66,1.68,2.55,2.35,4.55,1.53l-.66-.6s0,0,0,0a13.76,13.76,0,0,0-1.4-.51c-.4-.11-.93,0-1.21-.2a2.81,2.81,0,0,1-1-1.38c-.07-.3.43-1.07.68-1.07a6.69,6.69,0,0,0,4-1.58c.37-.28,1-.13,1.58-.23a13.41,13.41,0,0,0,2.08-.5,2,2,0,0,0,1.46-1.44A7.4,7.4,0,0,1,20.31,433Z"/><path class="cls-1" d="M18.83,695.4a1.81,1.81,0,0,1-.24.24,1,1,0,0,1-.35.08,3.77,3.77,0,0,1-4-2.67c-.2-.48-.38-1.2-1.07-.91s-.48,1-.27,1.56a2.76,2.76,0,0,0,.37.61,4.24,4.24,0,0,0,4.13,2c1.36-.16,2.71-.49,4.06-.75a5,5,0,0,1,4.74,1.25c.36-.4,0-.72-.23-1A6.18,6.18,0,0,0,22,694.32a3.33,3.33,0,0,1-1.86-.43,4.34,4.34,0,0,0-3.05-1.24,1.06,1.06,0,0,1-.85-1.78,3.28,3.28,0,0,1,1.45-.88,6.36,6.36,0,0,1,1.46-.23l-2.09-.84C14.38,691.06,15.09,693.71,18.83,695.4Z"/><path class="cls-1" d="M19.17,689.76l.1,0-.05,0Z"/><path class="cls-1" d="M19.26,684l-.1,0h.05Z"/><path class="cls-1" d="M21.24,678.08c-.64-.15-1.28-.34-1.93-.43a15.43,15.43,0,0,0-2.86-.25c-1.68.1-3.6,1.78-3.71,3.21,0,.33.29.69.45,1,.29-.17.66-.28.84-.53.3-.43.44-1,.73-1.44a3.06,3.06,0,0,1,4.15-1.22c-1.65.42-3.05,1.08-3.32,2.92a3,3,0,0,0,1.5,3.41l2.07-.81-1.64-.22A1.76,1.76,0,0,1,16,682.22c0-.71.45-1.12,1.47-1.18a2.38,2.38,0,0,0,2-.63,2.93,2.93,0,0,1,2.56-1A5.62,5.62,0,0,0,26,677.87c.28-.25.61-.56.25-1A5.07,5.07,0,0,1,21.24,678.08Z"/><path class="cls-1" d="M23,384.36c-1.06-.06-2.12-.25-3.17-.39l0,0-.1,0h.05a10.19,10.19,0,0,1-1.63.86,3.37,3.37,0,0,0-1.18,6c1.08-.55,2.2-1,3.12.73,0-.54.09-.74,0-.85a2,2,0,0,0-2-.84A1.83,1.83,0,0,1,16,388.38c-.05-.77.39-1,1.79-1.28a3.8,3.8,0,0,0,1.91-.79A2.87,2.87,0,0,1,22,385.5,5.18,5.18,0,0,0,25.91,384c.28-.27.32-.79.46-1.19A3.75,3.75,0,0,1,23,384.36Z"/><path class="cls-1" d="M22.75,727.24a30.05,30.05,0,0,1-3-.41l0,0-.09,0h0a7.33,7.33,0,0,1-1.63.87,3.12,3.12,0,0,0-2.48,2.54,2.94,2.94,0,0,0,1.26,3.41,5.3,5.3,0,0,1,1.77-.39c.49.06.93.53,1.49.88a1.88,1.88,0,0,0-.1-.6,2.06,2.06,0,0,0-2.06-.77,1.79,1.79,0,0,1-2-1.62c.08-1,.91-1.07,1.71-1.2a3.28,3.28,0,0,0,1.8-.61,3.28,3.28,0,0,1,2.75-1,5,5,0,0,0,3.84-1.68c.18-.19.12-.6.18-.91l0,0A3.77,3.77,0,0,1,22.75,727.24Z"/><path class="cls-1" d="M13.07,385.89c-.3.58-.72,1.32.08,1.71s.91-.49,1.15-1a4,4,0,0,1,4.3-2.51,4.3,4.3,0,0,0,1.12-.14c-.5-.13-1-.3-1.5-.4A4.55,4.55,0,0,0,13.07,385.89Z"/><path class="cls-1" d="M13,728.8c-.27.54-.6,1.24,0,1.61.8.46,1-.36,1.2-.89a4,4,0,0,1,4.3-2.58,5.52,5.52,0,0,0,1.14-.12c-.51-.14-1-.32-1.51-.41A4.57,4.57,0,0,0,13,728.8Z"/><path class="cls-1" d="M7.23,625c-2.8,1.59-2.8,1.58-6.06,2a4.36,4.36,0,0,0-1.07.55C2.13,628.67,5,627.57,7.23,625Z"/><path class="cls-1" d="M.05,550.29c1.23,1,2.6.36,3.69.9s2.33,1.09,3.39,1.59C5.52,550.46,2.29,549.18.05,550.29Z"/><path class="cls-1" d="M7.29,527a20.73,20.73,0,0,1-3,1.53,32.72,32.72,0,0,1-3.31.6c-.27.05-.49.36-.79.59C2.17,530.81,5.53,529.48,7.29,527Z"/><path class="cls-1" d="M1.32,598.63c-.53,0-1,0-.94.8a26.59,26.59,0,0,1,3.75.79A25.65,25.65,0,0,1,7.57,602,8.56,8.56,0,0,0,1.32,598.63Z"/><path class="cls-1" d="M.24,403.5a32.35,32.35,0,0,1,3.8.81,26.48,26.48,0,0,1,3.16,1.56C5.59,403.57,2.23,402.2.24,403.5Z"/><path class="cls-1" d="M6.89,650.47c-2.17-2.59-5.52-3.61-6.84-1.67C2.8,648.38,4.86,649.38,6.89,650.47Z"/><path class="cls-1" d="M3.76,479.77a33.89,33.89,0,0,1-3.31.79l.18.59c2.64.37,4.6-.93,6.36-2.71C5.88,478.82,4.85,479.39,3.76,479.77Z"/><path class="cls-1" d="M.23,452.37c1.34.31,2.49.49,3.57.86a35.36,35.36,0,0,1,3.28,1.48C5,452.25,2.24,451.24.23,452.37Z"/><path class="cls-1" d="M6.77,576.51c-1.24.51-2.21,1-3.24,1.31s-2.08.44-3.47.72C2.43,579.66,4.79,578.86,6.77,576.51Z"/><path class="cls-1" d="M6.84,380.41a12.82,12.82,0,0,1-6.3,2C1.72,383.9,4.72,382.91,6.84,380.41Z"/><path class="cls-1" d="M6.66,723.54l-6,2C2,726.66,5.25,725.5,6.66,723.54Z"/><path class="cls-1" d="M.19,501.46c1.22.24,2.17.37,3.09.63s2,.72,3.06,1.13A4.81,4.81,0,0,0,.19,501.46Z"/><path class="cls-1" d="M6.63,674.48c-1,.43-2,.91-3,1.22a30.91,30.91,0,0,1-3.07.63c0,.13,0,.27.07.4A5.59,5.59,0,0,0,6.63,674.48Z"/><path class="cls-1" d="M6.41,429.75c-1.21.47-2.14.91-3.11,1.18a29.76,29.76,0,0,1-3.1.52C2.12,432.66,4.64,431.93,6.41,429.75Z"/><path class="cls-1" d="M.56,697.38c1.21.24,2.25.37,3.24.67s1.84.78,2.76,1.17C4.39,696.89,2.23,696.21.56,697.38Z"/><path class="cls-1" d="M.71,354.32c.82.86,2,.39,2.83.79s2,.83,3.23,1.35C4.75,354.23,2.51,353.45.71,354.32Z"/><path class="cls-1" d="M19.51,428.65c1.21-.44,1.24-.5,2.22-2.91C20.89,426.63,20.65,428,19.51,428.65Z"/><path class="cls-1" d="M21,475.63a3.67,3.67,0,0,1,3.48-.58C22.05,474.28,22,474.28,21,475.63Z"/><path class="cls-1" d="M19.43,357.28h0l0,0h0Z"/><path class="cls-1" d="M19.46,357.29l2.16,2.7C20.78,357.82,20.77,357.8,19.46,357.29Z"/><path class="cls-1" d="M22,458.54l2.49-.44-.05-.26a12.17,12.17,0,0,1-1.33.3,8.8,8.8,0,0,1-1.15,0C22,458.28,22,458.41,22,458.54Z"/><path class="cls-1" d="M19.27,689.8v-.06h-.05Z"/><path class="cls-1" d="M20.18,688.55l-.91-.18v1.37A1.12,1.12,0,0,0,20.18,688.55Z"/><path class="cls-1" d="M20.57,684.93,19.26,684v1.37Z"/><path class="cls-1" d="M19.26,684l-.05,0,.05,0Z"/><path class="cls-1" d="M19.64,478.49l-.93,2.09C19.72,480.08,19.51,479.2,19.64,478.49Z"/><path class="cls-1" d="M18.76,452.49l.87,2C19.5,453.75,19.78,452.83,18.76,452.49Z"/><path class="cls-1" d="M19.71,650.35c-.17-.72-.34-1.43-.5-2.15l-.29.1C19.18,649,19.44,649.67,19.71,650.35Z"/><path class="cls-1" d="M19.79,650.62v-.06h0l-.08-.21.06.24Z"/><path class="cls-1" d="M21.07,652.25l-1.28-1.63C19.78,651.66,19.8,651.68,21.07,652.25Z"/><path class="cls-1" d="M20.74,721.26l-1.16,1.48C20.12,722.39,20.87,722.24,20.74,721.26Z"/><path class="cls-1" d="M19.74,478.17a1.19,1.19,0,0,0-.1.32l.13-.28,0-.08s0,0,0,0Z"/><path class="cls-1" d="M19.75,478.13c.17-.23.3-.56.52-.66.86-.38.83-1,.66-1.71a4,4,0,0,1-.79,1.24A.89.89,0,0,0,19.75,478.13Z"/><path class="cls-1" d="M20.93,475.76v0h0l.07-.09-.09.05S20.92,475.73,20.93,475.76Z"/><path class="cls-1" d="M19.74,454.84l0,0h0l-.13-.3a1.33,1.33,0,0,0,.1.34Z"/><path class="cls-1" d="M21.06,456.25l-1.32-1.41C19.32,456,20.52,455.87,21.06,456.25Z"/><path class="cls-1" d="M19.32,406.4l1.94,1.26A1.91,1.91,0,0,0,19.32,406.4Z"/><path class="cls-1" d="M20.76,378.42l-1.23,1.47C20.12,379.58,20.78,379.34,20.76,378.42Z"/><path class="cls-1" d="M19.18,382.76l0,0s0-.08,0-.11Z"/><path class="cls-1" d="M19.2,382.62c.05-.57.1-1.15.16-1.72A3,3,0,0,0,19.2,382.62Z"/><path class="cls-1" d="M19.47,380l.06-.07-.08,0-.09,1a2.64,2.64,0,0,0,.11-.93Z"/><path class="cls-1" d="M19.66,346.6l-.11,0h.16l0-.06h0Z"/><path class="cls-1" d="M19,345.56l.71,1c.18-.24.37-.47.69-.88Z"/><path class="cls-1" d="M19.5,722.84l.08-.1-.11.06c0,.05,0,.09,0,.14s0-.06,0-.09Z"/><path class="cls-1" d="M19.49,722.94c-.12.9-.24,1.8-.37,2.7A4.09,4.09,0,0,0,19.49,722.94Z"/><path class="cls-1" d="M19.12,725.64s0,0,0,.06h0l0,0v-.05Z"/><path class="cls-1" d="M22,409.34l-.71-1.63C21,408.49,21.11,409,22,409.34Z"/><path class="cls-1" d="M21.29,407.71v0h0l0,0,0,0Z"/><path class="cls-1" d="M19.78,395.82l0-.07,0,0Z"/><path class="cls-1" d="M20.36,394.83l-1-.22.43,1.14C19.92,395.48,20.1,395.21,20.36,394.83Z"/><path class="cls-1" d="M19.36,355.55c0,.57.05,1.13.08,1.7,0-.57.1-1.13.16-1.69Z"/><path class="cls-1" d="M19.44,428.79v-.08h0s0,0,.07-.05l-.08,0Z"/><path class="cls-1" d="M19.62,430.41l-.18-1.62-.09,1.63Z"/><path class="cls-1" d="M17.21,542.21c-.81,0-1.14.57-1.41,1.17a3.37,3.37,0,0,0,1.48,4.47c.43.25.88.48,1.52.82-2.09.32-3.32-.22-4.17-1.71a13.93,13.93,0,0,0-.62-1.29c-.17-.24-.55-.33-.84-.49-.17.34-.48.68-.47,1a2.2,2.2,0,0,0,.47,1.14,4.37,4.37,0,0,0,3.87,2.2,2.43,2.43,0,0,1,2.2.75,1.68,1.68,0,0,1,.38.18,1.06,1.06,0,0,1,.42.48,1.06,1.06,0,0,0-.42-.48,1.68,1.68,0,0,0-.38-.18h0l0,.05-.59,0a5.18,5.18,0,0,1,.55.92c.1.34,0,.73.12,1.07a6.37,6.37,0,0,0,.56,1.47c.31.54.8,1,1.1,1.53.64,1.14,1.12,1.31,2.41.75h.2l.12,0a3.52,3.52,0,0,1,.92.12c2.14.8,2.57,2.4,1.15,4.22A5.72,5.72,0,0,1,22,562.64a8.48,8.48,0,0,1-4.73-.78A17.47,17.47,0,0,1,11.89,558a25.14,25.14,0,0,0-6.74-5.07,6.86,6.86,0,0,0-4-.67,1.05,1.05,0,0,0-1,1.37c.13.94.43,1.27,1.44,1.15a9.11,9.11,0,0,1,6,1.36c1.62,1,3.11,2.24,4.69,3.33a31.4,31.4,0,0,0,4.94,3.25c5,2.2,10-.24,11.48-5.52.62-2.15.6-4.3-1.22-6a2,2,0,0,1-.43-.57c-1.05-2.33-2.95-3.16-5.38-3.17a2.26,2.26,0,0,1-1.49-.41,4.09,4.09,0,0,0-3-1.31c-1.05,0-1.41-.89-.86-1.78a1.55,1.55,0,0,1,1.82-.82c1.15.29,1.75-.37,2.31-1.34a2.92,2.92,0,0,0-3.19.43Z"/><path class="cls-1" d="M17.79,492.85v0a2.6,2.6,0,0,0-2.3,2.59,3.13,3.13,0,0,0,1.7,3.31,13.2,13.2,0,0,0,1.83.75c-1.65.48-2.86.29-3.78-.74a8.31,8.31,0,0,1-1.1-1.84c-.23-.46-.44-.93-1-.7s-.54.75-.35,1.22a4.34,4.34,0,0,0,.6,1.1c1.3,1.62,2.91,2.49,4.9,1.9l.7,1.33-.05-.07c.49,1.38.52,3,1.86,4,.07.05.06.22.11.33.6,1.35,1,1.53,2.49,1.35a10.27,10.27,0,0,1,2.06.12l.06.06c.24.07.65.06.71.21a2.92,2.92,0,0,1,.19,2.59,5.26,5.26,0,0,1-4.61,3.24c-3.23.29-5.85-1.07-8.2-3.08-1.42-1.21-2.71-2.56-4.15-3.74-2-1.65-4.07-3.19-6.76-3.58a3.21,3.21,0,0,0-2.66.67c.11.63.23,1.29.35,2a9.18,9.18,0,0,1,6.17.71c1.83,1,3.52,2.26,5.26,3.44A47.9,47.9,0,0,0,17,513.61a8.18,8.18,0,0,0,11.85-5.82c.42-2,.35-4-1.29-5.53a5.28,5.28,0,0,1-.77-1.38h-.07a5.83,5.83,0,0,0-5.12-2.46,1.92,1.92,0,0,1-1.34-.36,3.91,3.91,0,0,0-3-1.24,1.17,1.17,0,0,1-.74-2.1,2.5,2.5,0,0,1,1.42-.55c.62-.09,1.3.1,1.71-.57h.08a.11.11,0,0,0,0-.06l.81-.81a3.41,3.41,0,0,0-2.54.11Zm1.79,8.5c-.21-.13-.48-.06-.62.47h0C19.1,501.29,19.37,501.22,19.58,501.35Z"/><path class="cls-1" d="M17.22,640.11c-.32.13-.72.17-.92.4a3.38,3.38,0,0,0,.94,5.21c.44.25.9.45,1.51.75a3.24,3.24,0,0,1-4-1.41c-.32-.5-.46-1.11-.8-1.59a1.09,1.09,0,0,0-.88-.31c-.18,0-.4.42-.43.68a1.54,1.54,0,0,0,.21.85c.91,1.58,2.1,2.76,4.09,2.74a2.65,2.65,0,0,1,2.22.7l0,.07h0l0,0,0,0-.06-.06a1.17,1.17,0,0,1,1,1.32A1.35,1.35,0,0,0,21.66,651c.46,1.92.46,1.9,2.27,1.94a2.19,2.19,0,0,1,1.16.4,3.34,3.34,0,0,1,.75,4.9,6.74,6.74,0,0,1-1.75,1.53c-2.23,1.34-4.52,1-6.75,0a18.15,18.15,0,0,1-5.8-4.22,23.34,23.34,0,0,0-6.65-4.87,6,6,0,0,0-3.51-.56,1.28,1.28,0,0,0-1.2,1.64c.14.85.69.89,1.45.92a17.58,17.58,0,0,1,4.23.55A17.85,17.85,0,0,1,11.94,657,32.52,32.52,0,0,0,16,660c5.33,3.14,11.37.68,12.78-5.19.64-2.65.16-5-2.31-6.63-.12-.08-.16-.28-.24-.43h0c0-.22.13-.51,0-.61a5.53,5.53,0,0,0-4-1.8c-.69,0-1.62,0-2-.42a4.45,4.45,0,0,0-3.19-1.32c-1-.07-1.32-1-.74-1.84a1.84,1.84,0,0,1,1.84-.81c1.4.07,1.5-.05,2-1.43a3,3,0,0,0-2.93.57Z"/><path class="cls-1" d="M12.6,125.6a39.67,39.67,0,0,1-3.23,2.58C6.77,130,4,131.18.74,130.5c-.15,0-.32.11-.47.17-.24,2.1.31,2.83,2.29,2.46a11.62,11.62,0,0,0,4.3-1.69,53.65,53.65,0,0,0,5.55-4.57A15.57,15.57,0,0,1,18.8,123c2.65-.7,5-.29,6.89,1.87a2.8,2.8,0,0,1,.72,3.14c-.38.9-1.77,1.31-3.11,1-1.14-.25-1.83,0-2.25.92-.65,1.47-2.13,2.57-1.95,4.41,0,.19-.24.4-.37.61h0c-.18.29-.34.57-.54.91-.27,0-.57,0-.86,0A4.5,4.5,0,0,0,13,138.22a2.2,2.2,0,0,0-.38,1.17,1.11,1.11,0,0,0,.54.78c.13.08.58-.15.71-.35.31-.44.47-1,.75-1.43a3.28,3.28,0,0,1,3.86-1.65c-2.95,2-3.67,3.49-2.68,5.35.81,1.51,2.62,2.08,4.8,1.25l-1-.64h0c-.54-.61-1.23-.43-1.93-.4A1.67,1.67,0,0,1,16,140.76c0-1,.71-1.09,1.49-1.14a2.6,2.6,0,0,0,1.53-.39,4.47,4.47,0,0,1,3.73-1.35,7.28,7.28,0,0,0,1.22-.31c2.16-.4,2.37-2.78,3.87-3.88a3.14,3.14,0,0,0,1-1.87c1-5.65-4.05-11.08-9.7-9.82A15.33,15.33,0,0,0,12.6,125.6Z"/><path class="cls-1" d="M9.6,177C7,178.86,4.18,180.12.84,179.5c-.15,0-.33.09-.48.14-.54,2.11-.37,2.45,1.67,2.41a8.29,8.29,0,0,0,3.12-.65,23.64,23.64,0,0,0,6.75-5.05c2.3-2.28,4.83-4.14,8.16-4.61a5.91,5.91,0,0,1,5.63,2.09c1.33,1.53,1.22,2.89-.24,4.42h0c-.23.17-.44.38-.66.57.22-.19.43-.4.66-.57h0a17.7,17.7,0,0,1-1.94-.19c-1.69-.33-1.94-.23-2.62,1.26-.1.21-.1.56-.26.65-1.42.79-1.33,2.12-1.34,3.42l-.05.11v.06c-1.11,0-.34.92-.56,1.42l-.9-.15A4.6,4.6,0,0,0,13,187.3a1.73,1.73,0,0,0-.31.83,4.13,4.13,0,0,0,.42,1,3,3,0,0,0,.86-.46,4.51,4.51,0,0,0,.47-1c1.1-2.07,2.51-2.6,4.94-1.78-1.87.16-3.28.83-3.8,2.62a3,3,0,0,0,1,3.4,3.46,3.46,0,0,0,3.61.61c-.06-.23-.06-.37-.13-.44a2,2,0,0,0-.4-.29c-.44-.92-1.27-.62-2-.65A1.63,1.63,0,0,1,16,189.65c.08-.94.78-1,1.55-1.15a3.82,3.82,0,0,0,2-.66,3.54,3.54,0,0,1,2.44-.9c2.07-.12,3.89-.75,4.77-2.9a1.7,1.7,0,0,1,.55-.7A5.2,5.2,0,0,0,29,178.61c-.33-4.36-4.32-7.87-8.07-7.74a12.32,12.32,0,0,0-7.37,3C12.21,174.87,11,176,9.6,177Z"/><path class="cls-1" d="M12.75,76.54c-3.44,2.79-6.77,5.7-11.69,5-.25,0-.73.41-.84.72A1.3,1.3,0,0,0,1.4,84.1a6.68,6.68,0,0,0,5.1-1.41,71.76,71.76,0,0,0,6-4.89,15.2,15.2,0,0,1,7.13-4,6.18,6.18,0,0,1,6.56,2.73,3.07,3.07,0,0,1-.12,3.4,2.26,2.26,0,0,1-2.67,1.31c-.81-.2-1.25.24-1.47,1-.1.34-.14.69-.22,1.1-1.07-.13-1.46.42-1.5,1.36a1.71,1.71,0,0,1-1.5,1.76c-.64.12-1.27.29-1.91.35a5,5,0,0,0-4,3.19,1.37,1.37,0,0,0,.33,1.21c.56.37.77-.22,1-.64a11.39,11.39,0,0,1,1.52-2.19,2.49,2.49,0,0,1,3-.51C15.68,89.41,14.82,91,15.8,93a3.37,3.37,0,0,0,4.46,1.42,1.59,1.59,0,0,0-1.63-1.15,8.69,8.69,0,0,1-1.25,0A1.6,1.6,0,0,1,16,91.6c.15-.78.68-1,1.45-1A2.94,2.94,0,0,0,19.31,90a3.54,3.54,0,0,1,2.75-1,6,6,0,0,0,1.76-.34,4.41,4.41,0,0,0,2.46-1.83c-1.23.29-2,1.06-3,.43a18.21,18.21,0,0,0,2.64-1A5.36,5.36,0,0,0,29,81.73c.36-5-4.88-11.12-11.72-8.09A20.77,20.77,0,0,0,12.75,76.54Z"/><path class="cls-1" d="M15.61,198.28a4.48,4.48,0,0,0,.2,2.26c.49,1.46,1.92,1.8,3.42,2.31-2.48.52-3.86-.11-4.84-2a5.72,5.72,0,0,0-.44-1c-.16-.21-.56-.46-.7-.39s-.63.54-.58.73a4.94,4.94,0,0,0,.77,1.77,4.48,4.48,0,0,0,4.85,1.84l.66,1.33a.43.43,0,0,0,0-.07c.59,1.29.33,3,1.85,3.85,0,0,0,.12,0,.17.86,1.88,2.68,2.26,4.57,1a3.58,3.58,0,0,0,.24.48c1.39,1.83,1.27,3.32-.41,4.87-1.93,1.79-4.22,1.86-6.59,1.24A14.15,14.15,0,0,1,13,213.25a70.79,70.79,0,0,0-6.56-5.31,10.28,10.28,0,0,0-4.17-1.49c-1.8-.28-2.36.7-1.73,2.63a2.87,2.87,0,0,0,.66,0,9.75,9.75,0,0,1,7.33,1.81,53.29,53.29,0,0,1,4.43,3.37,16.33,16.33,0,0,0,4.91,3,8.11,8.11,0,0,0,10.86-5.7c.64-2.29.59-4.53-1.43-6.28a5.61,5.61,0,0,1-.8-1.15h-.07a3.36,3.36,0,0,0-2.08-1.94,25.52,25.52,0,0,0-2.79-.57c-.5-.11-1.16-.13-1.46-.45a2.87,2.87,0,0,0-2.69-1.05c-.68.1-1.31-.3-1.27-.93a2.86,2.86,0,0,1,.87-1.6c.22-.23.79-.08,1.18-.19s1-.37,1.51-.56l0,0,0-.05h0l.75-.85C17.4,195.71,16,196.37,15.61,198.28Zm3.9,6.4c-.18,0-.38.12-.55.44h0C19.13,204.8,19.33,204.66,19.51,204.68Z"/><path class="cls-1" d="M14.39,222.12a34.23,34.23,0,0,0-3.09,2.48c-2.92,2.28-5.9,4.41-9.93,3.86a1,1,0,0,0-1.17.87c-.14.72,0,1.43.79,1.59a4.84,4.84,0,0,0,2.3,0,11.78,11.78,0,0,0,3.42-1.55,72.15,72.15,0,0,0,5.85-4.78,15.33,15.33,0,0,1,6.26-3.77A6.46,6.46,0,0,1,25,222c1.94,1.61,2.11,3,.65,5.09a.78.78,0,0,0-.11.2h-.55a14.12,14.12,0,0,0-2.4-.46,1.66,1.66,0,0,0-1.3.71,5.66,5.66,0,0,1-1.58,2.26c-.22.16-.22.65-.3,1-.11.51-.2,1-.29,1.55l0,0-.79,1.49c-.42-.05-.77-.12-1.12-.14A4.77,4.77,0,0,0,12.7,237c-.06.33.22.72.35,1.09.32-.18.76-.27,1-.54.46-.62.73-1.38,1.22-2a3.21,3.21,0,0,1,3.6-1c-3.17,1.75-4,3.26-3,5.28.71,1.5,2.53,2.09,5,1.21l-1.08-.46h0c-.5-.65-1.18-.49-1.89-.43A1.68,1.68,0,0,1,16,238.72c-.06-.72.34-1,1.42-1.2.63-.1,1.45-.17,1.81-.58a4,4,0,0,1,3-1.15c1.82-.13,3.49-.7,4.25-2.62h0a14.68,14.68,0,0,0,1.12-1.38,6.63,6.63,0,0,0,1.16-2.19c1-5.81-4.27-11.16-9.95-9.61A19.07,19.07,0,0,0,14.39,222.12Zm5.24,18.53c-.23.31-.37.48-.55.55.18-.07.32-.24.55-.55Z"/><path class="cls-1" d="M17.37,49.1a7.81,7.81,0,0,0-1.53,1.69,4.61,4.61,0,0,0-.24,2.11c.07,1.73,1.7,2.21,3.08,3.24-3.21.42-4.06-1.9-5.18-3.79a1.34,1.34,0,0,0-.44,2.14A4.77,4.77,0,0,0,17.33,57c1.81,0,2.58.61,2.86,2.27a1.35,1.35,0,0,0,1.51,1.25c.43,1.85.63,2.08,1.67,2.07a3,3,0,0,1,2.81,4.64A6.06,6.06,0,0,1,19.65,70a14.31,14.31,0,0,1-6.86-3.76C11.1,64.7,9.4,63.18,7.57,61.81a13.35,13.35,0,0,0-3.65-1.9,6.67,6.67,0,0,0-2.82-.15c-.77.08-1.09.86-.91,1.68s.69.87,1.37.73a8.34,8.34,0,0,1,5.23.95,23.57,23.57,0,0,1,5.91,4.09,15.88,15.88,0,0,0,5.35,3.26c5.1,1.76,9.75-1.54,10.79-6.38.48-2.21.24-4.41-1.81-5.83a10.82,10.82,0,0,0-3.42-1.46,18.77,18.77,0,0,0-3.39-.21c1.07-.89,1.06-.87,2.1-.64,1.24.27,2.49.52,3.79.79-.93-1.41-2.38-1.73-3.88-1.88a4,4,0,0,1-2.91-1.12c-.35-.4-1.18-.44-1.81-.52-1-.14-1.51-.48-1.48-1.2a1.53,1.53,0,0,1,1.33-1.49c.46-.1,1,0,1.43-.05a1.35,1.35,0,0,0,1.4-1.36C18.78,50.24,18.44,50.25,17.37,49.1Z"/><path class="cls-1" d="M12.26,272.81c-1.27.9-2.44,1.95-3.75,2.8a10.32,10.32,0,0,1-7.17,1.86,5.56,5.56,0,0,0-.83,0c-.59,1.84-.3,2.31,1.37,2.46a6.66,6.66,0,0,0,4-1,30.38,30.38,0,0,0,6.35-5,13.87,13.87,0,0,1,7.72-4.34,5.87,5.87,0,0,1,6,2.39c1.15,1.53,1,2.7-.42,4.09l.05-.07s-.08,0-.12.06a26.17,26.17,0,0,0-2.63-.31,1.72,1.72,0,0,0-1.29.43c-.7,1-1.26,2-1.87,3v0l0,.09,0,0c-.13.79-.25,1.57-.37,2.36l-.4-.06c.08.87.61,1.17,1.42,1.29a13.12,13.12,0,0,0,5.9-.61l0,0a.1.1,0,0,1,.05,0l-.1,0c3.17-2.19,3.59-5.19,2-8.52-2.13-4.57-6.48-6.06-11-4.14A27.5,27.5,0,0,0,12.26,272.81Z"/><path class="cls-1" d="M10.65,29.27c-2.11,1.62-4.33,3.06-7.08,3.35-.71.07-1.43,0-2.15,0a1.14,1.14,0,0,0-1.2,1.09,1.06,1.06,0,0,0,.87,1.35,3,3,0,0,0,1.4.13A17,17,0,0,0,5.88,34c2.8-1.46,5-3.71,7.3-5.83s5-3.72,8.41-3.5A5.27,5.27,0,0,1,26.38,28a3.06,3.06,0,0,1-2.79,4.26,2.24,2.24,0,0,0-1.05.13c-.91.56-.58,2.26-2.09,2.35-.07,0-.13.31-.19.48l-.87,2.53a8,8,0,0,0,6.83-.65,4.82,4.82,0,0,0,2.64-3.28c.95-5.4-3.36-9.91-7.75-9.93a11.3,11.3,0,0,0-7,2.52C12.93,27.31,11.84,28.36,10.65,29.27Z"/><path class="cls-1" d="M9.21,324.17a12.1,12.1,0,0,1-5.79,2.35,25.27,25.27,0,0,1-2.61,0c-.56,2-.16,2.63,1.73,2.45a8.27,8.27,0,0,0,2.57-.71,21.89,21.89,0,0,0,6.37-4.67,19.41,19.41,0,0,1,5.61-4.17,8.45,8.45,0,0,1,4.55-.87,5.62,5.62,0,0,1,4.72,3.16,2.89,2.89,0,0,1-.46,3.21c-.61.82-1.23,1.64-2.54,1.14-.77-.29-1.2.32-1.44,1-.11.33-.14.95-.29,1-1.34.24-1.32,1.34-1.62,2.29-.1.31-.57.51-.89.75,0,.19,0,.5.1.52a12.35,12.35,0,0,0,1.91.35,12,12,0,0,0,5.19-.86l0,0c1.09-1,2.35-2,2.6-3.56.83-5.29-3.46-9.91-7.92-9.8a12.54,12.54,0,0,0-7.67,3.15C11.94,322,10.62,323.16,9.21,324.17Z"/><path class="cls-1" d="M20.3,301.65c-.81.12-1.31.43-1.4,1.28a.5.5,0,0,1,.16.14c.19.72.38,1.44.56,2.17h0l0,.08v0a33.7,33.7,0,0,0,1.74,2.9,1.26,1.26,0,0,0,1.84.35l2.17-.11.16.07h0l0-.06h0a3.2,3.2,0,0,0-.29-.52,3.2,3.2,0,0,1,.29.52c1.38,1.35,1.53,2.46.51,3.93a6,6,0,0,1-3.27,2.39,7.76,7.76,0,0,1-6.39-1.06,28.89,28.89,0,0,1-4.53-3.51,32,32,0,0,0-6.29-4.78A5.64,5.64,0,0,0,.41,305c.07.68.13,1.35.22,2.15,4.1-.67,7.19,1.11,10.12,3.33.58.43,1.07,1,1.65,1.39A30.27,30.27,0,0,0,17,314.9,8,8,0,0,0,27,312.8c2.31-2.81,3.44-7.73-.83-10.49l.11,0-.06-.05,0,0A13,13,0,0,0,20.3,301.65Z"/><path class="cls-1" d="M19.34,8.2a5.64,5.64,0,0,1,.78,1.33c.23.89,0,2,1.44,2.1.11,0,.21.39.29.61.52,1.34.52,1.28,1.88,1.27a2.81,2.81,0,0,1,1.62.51,3.26,3.26,0,0,1,.45,4.8,6.22,6.22,0,0,1-7,2,14.83,14.83,0,0,1-6.39-3.93,25.59,25.59,0,0,0-7.3-5.52,9.74,9.74,0,0,0-3.29-.75C.63,10.54.3,11,.39,11.93s.4,1.16,1.54,1.23A15.71,15.71,0,0,1,6,13.8,19.54,19.54,0,0,1,12.45,18a16.92,16.92,0,0,0,5.13,3.29c5.15,2,9.8-.94,11.14-5.75.53-1.94.59-3.94-.95-5.61C25.68,7.65,21.46,6.89,19.34,8.2Z"/><path class="cls-1" d="M16.57,116.6a5.07,5.07,0,0,0,5.87-.23c-3.29.78-5.74-.63-7.88-2.86-.37-.39-.73-.81-1.07-1.23a24,24,0,0,1-4-7.4,3.73,3.73,0,0,0-2.3-2.59,9,9,0,0,0-6.38.43,8.91,8.91,0,0,1,6,3.44c2,2.36,3.81,4.81,5.86,7.08A19.53,19.53,0,0,0,16.57,116.6Z"/><path class="cls-1" d="M9.62,185.43a21,21,0,0,1,5-8.24c2.05-2.06,4.31-3.46,7.43-2.93a3.53,3.53,0,0,0-3.13-.94,7.78,7.78,0,0,0-4.69,2.49c-2.13,2.36-4.19,4.79-6.21,7.25-1.85,2.27-3.76,4.41-6.84,5.13a14.33,14.33,0,0,0,3.21.66A4.63,4.63,0,0,0,9.62,185.43Z"/><path class="cls-1" d="M12.89,211.49a11.1,11.1,0,0,0,4.41,3.35,4.82,4.82,0,0,0,5.07-.57c-1.81.26-3.62.31-5.15-.8a21,21,0,0,1-3.38-2.93,22,22,0,0,1-4.4-7.81A3.64,3.64,0,0,0,7,200.09a8.79,8.79,0,0,0-6,.47c3.31.59,5.15,2.61,6.89,4.79S11.19,209.46,12.89,211.49Z"/><path class="cls-1" d="M9.59,136.52a20.67,20.67,0,0,1,4.26-7.46c2.25-2.57,4.75-4.61,8.56-3.7a4.49,4.49,0,0,0-4.54-.77,8.19,8.19,0,0,0-3.07,1.78c-2.28,2.38-4.42,4.9-6.55,7.41C6.35,136,4.58,138.39,1.39,139c0,.13.08.25.11.38a22.91,22.91,0,0,0,2.83.48C6.8,140,8.75,139.22,9.59,136.52Z"/><path class="cls-1" d="M9.56,234.36A23.94,23.94,0,0,1,13.75,227c2.28-2.65,4.83-4.66,8.68-3.79a4.64,4.64,0,0,0-5.39-.44,16.87,16.87,0,0,0-4,3.05c-1.73,1.83-3.25,3.86-4.83,5.83-1.8,2.26-3.64,4.46-6.79,5.23a5.07,5.07,0,0,0,3.43.81C7.46,237.76,8.64,236.82,9.56,234.36ZM7,236.14a2.47,2.47,0,0,0,.61-.4,2.94,2.94,0,0,0,.46-.57,2.94,2.94,0,0,1-.46.57A2.47,2.47,0,0,1,7,236.14Zm1.56-1.95c.06-.16.12-.35.18-.53C8.69,233.84,8.63,234,8.57,234.19Zm.3-.89h0l-.16-.08Z"/><path class="cls-1" d="M9.55,87.51a23.54,23.54,0,0,1,4.39-7.61c2.3-2.6,5-4.48,8.92-3.29-2.18-1.49-3.5-1.65-5.57-.82a11.3,11.3,0,0,0-4.4,3.36q-2.73,3.24-5.37,6.55c-1.6,2-3.4,3.72-6,4.3l0,.45c1.11.11,2.22.29,3.34.31C7.63,90.81,8.6,90.11,9.55,87.51Z"/><path class="cls-1" d="M14.18,163.86a7.92,7.92,0,0,0,4.49,2.5,4.09,4.09,0,0,0,3.72-1c-3,.7-5.28-.4-7.34-2.4a22.58,22.58,0,0,1-5.42-8.6c-1-2.65-2.18-3.51-5-3.43a30.69,30.69,0,0,0-3.16.41c0,.14,0,.28,0,.42a9.58,9.58,0,0,1,4.84,3c.81,1,1.61,1.94,2.42,2.9C10.57,159.7,12.33,161.83,14.18,163.86Z"/><path class="cls-1" d="M12.48,259.94a22,22,0,0,0,4.07,3.51,4.65,4.65,0,0,0,5.16.14c-3.85.2-6.32-2-8.46-4.73a26,26,0,0,1-3.77-7,5.36,5.36,0,0,0-8-2.26,9.57,9.57,0,0,1,5.76,3.89C8.93,255.7,10.62,257.9,12.48,259.94Z"/><path class="cls-1" d="M9.61,283.3a20.19,20.19,0,0,1,4.28-7.44c2.16-2.48,4.61-4.34,8.24-3.81a4.34,4.34,0,0,0-3.33-.83,8.11,8.11,0,0,0-4.64,2.59c-2.3,2.6-4.52,5.27-6.77,7.92-1.67,2-3.44,3.76-6.15,4.31a12.48,12.48,0,0,0,2.64.67C6.66,287,8.77,286.08,9.61,283.3Z"/><path class="cls-1" d="M13,64.71a10,10,0,0,0,5.48,3.6A4.53,4.53,0,0,0,22.85,67a5.81,5.81,0,0,1-6.16-.72,16,16,0,0,1-2.92-2.65A22.38,22.38,0,0,1,9.46,56a3.74,3.74,0,0,0-2.94-2.85,8.63,8.63,0,0,0-5,.49c2.82.74,4.64,2.7,6.34,4.84S11.23,62.67,13,64.71ZM8.23,55.8a4.35,4.35,0,0,0-.39-.64A4.35,4.35,0,0,1,8.23,55.8ZM5.51,54.39h0l3.18,3Z"/><path class="cls-1" d="M9.5,38.7a24.27,24.27,0,0,1,4-7.22c2.21-2.69,4.7-4.85,8.64-4.44a5.8,5.8,0,0,0-1.38-.56,5.8,5.8,0,0,0-4.33.75,25.19,25.19,0,0,0-3.67,3.15c-1.78,1.95-3.38,4.05-5,6.11s-3.6,4.13-6.56,4.63a7.41,7.41,0,0,0,1.91.61,13,13,0,0,0,2.16.09C7.57,41.76,8.7,40.93,9.5,38.7Z"/><path class="cls-1" d="M12.22,308.66a13.23,13.23,0,0,0,5,4.1,4.66,4.66,0,0,0,4.93-.39c-4,.73-6.46-1.65-8.71-4.3a23.35,23.35,0,0,1-4-7.24,4.05,4.05,0,0,0-4.36-3.06,34.11,34.11,0,0,0-3.87.49,12.26,12.26,0,0,1,6.35,4.67C9.11,304.84,10.63,306.78,12.22,308.66Z"/><path class="cls-1" d="M.25,124.55c-.06.76-.14,1.29-.14,1.82,0,1.79.5,2.43,2.33,2.46a10.68,10.68,0,0,0,3.69-.52c3.2-1.13,5.63-3.39,7.88-5.85.09-.1.09-.3.23-.79A18.13,18.13,0,0,1,.25,124.55Z"/><path class="cls-1" d="M5.16,113.42a11.78,11.78,0,0,0-3.88,0A1.22,1.22,0,0,0,.16,114.7c0,.87,0,1.75,0,2.84A19,19,0,0,1,14.13,120C11.69,117,9,114.42,5.16,113.42Z"/><path class="cls-1" d="M12.14,14.67a23.1,23.1,0,0,0,3.94,3.65,5.06,5.06,0,0,0,6.24.09A5.87,5.87,0,0,1,18,18a16.69,16.69,0,0,1-3.7-2.8,22.88,22.88,0,0,1-4.76-8C8.58,4.66,7.42,3.87,4.77,3.9a12.84,12.84,0,0,0-2.15.21,6.6,6.6,0,0,0-1.29.68c3,.5,4.56,2.33,6.11,4.17S10.49,12.84,12.14,14.67Z"/><path class="cls-1" d="M9.59,332.34a28.09,28.09,0,0,1,2.56-5.15c2.43-3.54,5.09-6.92,10.24-6a5.12,5.12,0,0,0-4.3-.75,8.08,8.08,0,0,0-3.95,2.41c-2.31,2.61-4.55,5.29-6.77,8a12.24,12.24,0,0,1-5.85,4.36,12.53,12.53,0,0,0,1.37.36,13.08,13.08,0,0,0,2,.16C7.52,335.66,8.56,334.83,9.59,332.34Z"/><path class="cls-1" d="M.25,222.53c0,.73-.14,1.37-.13,2,0,1.42.29,1.89,1.71,2.05a9.19,9.19,0,0,0,3.88-.25c3.66-1.21,6.38-3.75,9.09-7C8,222.88,7.91,222.9.25,222.53Z"/><path class="cls-1" d="M14.46,171c-2.44.9-4.64,1.78-6.89,2.53s-4.73.27-7.27.1c-.08.75-.18,1.39-.21,2-.06,1.47.18,1.8,1.62,2A8.46,8.46,0,0,0,7,177,25,25,0,0,0,14.46,171Z"/><path class="cls-1" d="M5.22,211.29a10.06,10.06,0,0,0-3.71,0,1.84,1.84,0,0,0-1.26,1.06,3.64,3.64,0,0,0,.27,3,18.64,18.64,0,0,1,13.65,2.49C11.69,215,9,212.33,5.22,211.29Z"/><path class="cls-1" d="M7.32,65.18a8.47,8.47,0,0,0-4.87-.92C.42,64.45-.06,65,.13,67c.11,1.27.38,1.48,1.74,1.27a13.28,13.28,0,0,1,6.05.27c2.14.7,4.22,1.6,6.64,2.54A27.47,27.47,0,0,0,7.32,65.18Z"/><path class="cls-1" d="M14,269.38c0-.05,0-.2,0-.31s-.25-.07-.32,0c-3.8,2.21-7.8,3.33-12.22,2.49a1.23,1.23,0,0,0-.95.32,2.44,2.44,0,0,0,1.25,3.69,7.76,7.76,0,0,0,4.42-.3A22.12,22.12,0,0,0,14,269.38Z"/><path class="cls-1" d="M13.09,265.42a32,32,0,0,0-3.15-2.69,22.36,22.36,0,0,0-3.58-2.07,6.83,6.83,0,0,0-4.93-.36c-1.19.34-1.61,1.45-1.26,3,.21.92.46,1,2,.84a16.25,16.25,0,0,1,8.3,1.07c1.14.48,2.24,1.06,3.36,1.59l.18-.17A7.53,7.53,0,0,0,13.09,265.42Z"/><path class="cls-1" d="M11.34,166a39.41,39.41,0,0,0-5-3.2,6.55,6.55,0,0,0-4.75-.44c-1.34.34-1.81,1.38-1.45,3,.22,1,.57,1.13,2.12.89a15.86,15.86,0,0,1,9,1.42c.86.39,1.69.84,2.54,1.26l.24-.31A25.57,25.57,0,0,0,11.34,166Z"/><path class="cls-1" d="M13.74,73.14c-1.19.57-2.36,1.19-3.58,1.67a16.35,16.35,0,0,1-8.31,1,1.89,1.89,0,0,0-1.44.32,2.44,2.44,0,0,0,1.28,3.61,6.93,6.93,0,0,0,4.08-.22A16.77,16.77,0,0,0,13.74,73.14Z"/><path class="cls-1" d="M10.4,312.09a13.4,13.4,0,0,0-5.69-3,5.29,5.29,0,0,0-3.51.27c-.34.17-.78.55-.79.84a28.86,28.86,0,0,0,.22,2.94c7.62-.49,8,.08,13.91,2.75C13.16,314.64,11.85,313.28,10.4,312.09Z"/><path class="cls-1" d="M14.51,23.94c-2.22.87-4.38,1.82-6.61,2.57s-4.72.44-7.27.11c-.09,1-.15,1.79-.25,2.6a1,1,0,0,0,.87,1.33,9.75,9.75,0,0,0,3.16.23C8.78,30,11.65,26.92,14.51,23.94Z"/><path class="cls-1" d="M14.18,317.89c-3.9,2.12-7.88,3.58-12.4,2.71-.3-.06-.92.1-.95.26a8.53,8.53,0,0,0-.32,2.78c0,.37.82.82,1.33.94a7.59,7.59,0,0,0,5.22-.77A21.08,21.08,0,0,0,14.18,317.89Z"/><path class="cls-1" d="M6.55,15.86a7.75,7.75,0,0,0-4.74-.56C.62,15.54.43,15.81.43,17a9.75,9.75,0,0,0,0,1.08C.59,19.23.78,19.33,2,19.3a32.43,32.43,0,0,1,4.83,0A20.94,20.94,0,0,1,14.18,22,20.81,20.81,0,0,0,6.55,15.86Z"/><path class="cls-1" d="M17.87.08c-1.79.89-2.22,1.51-2.32,3C15.41,5.3,16.9,6.21,18.8,6.93a3.33,3.33,0,0,1-4.21-1.6c-.28-.46-.47-1-.77-1.42a.69.69,0,0,0-.62-.2.67.67,0,0,0-.42.48A3.06,3.06,0,0,0,13,5.4,4.49,4.49,0,0,0,17.4,7.92c.89-.09,1.75-.37,2.64-.51,2-.29,4-.68,5.92.52,0,0,.14-.11.24-.2a5.77,5.77,0,0,0-4.3-1.91c-.58,0-1.36,0-1.69-.35A4.51,4.51,0,0,0,17,4.11a1,1,0,0,1-.78-1.69,3.38,3.38,0,0,1,1.59-.95,9,9,0,0,1,1.81-.29C18.9,1.05,18,1.28,17.87.08Z"/><path class="cls-1" d="M19.63,1.18l.15,0-.05,0Z"/><path class="cls-1" d="M20.31,38.42c-.88-.21-1.76-.38-2.65-.52-2.05-.35-3.45.67-4.52,2.27a2.18,2.18,0,0,0-.39,1.17,1.19,1.19,0,0,0,.53.79c.1.07.55-.18.68-.39.36-.55.57-1.2.95-1.72A3.09,3.09,0,0,1,19,38.91c-3,1-4.11,2.7-3.22,4.94.66,1.68,2.55,2.36,4.55,1.54l-.66-.6v0a13.76,13.76,0,0,0-1.4-.51c-.4-.11-.93,0-1.21-.2a2.81,2.81,0,0,1-1-1.38c-.07-.31.43-1.07.68-1.07a6.69,6.69,0,0,0,4-1.58c.37-.28,1-.13,1.58-.23a13.41,13.41,0,0,0,2.08-.5,2,2,0,0,0,1.46-1.44A7.4,7.4,0,0,1,20.31,38.42Z"/><path class="cls-1" d="M18.83,300.79a1.29,1.29,0,0,1-.24.23.82.82,0,0,1-.35.09,3.78,3.78,0,0,1-4-2.67c-.2-.48-.38-1.2-1.07-.91s-.48,1-.27,1.56a2.76,2.76,0,0,0,.37.61,4.24,4.24,0,0,0,4.13,2c1.36-.16,2.71-.49,4.06-.75a5,5,0,0,1,4.74,1.25c.36-.4,0-.72-.23-1A6.18,6.18,0,0,0,22,299.71a3.33,3.33,0,0,1-1.86-.43A4.34,4.34,0,0,0,17.11,298a1.06,1.06,0,0,1-.85-1.78,3.11,3.11,0,0,1,1.45-.88,6.36,6.36,0,0,1,1.46-.23l-2.09-.84C14.38,296.44,15.09,299.1,18.83,300.79Z"/><path class="cls-1" d="M19.17,295.15l.1,0-.05-.05Z"/><path class="cls-1" d="M19.26,289.33l-.1,0h.05Z"/><path class="cls-1" d="M21.24,283.47c-.64-.15-1.28-.34-1.93-.43a15.43,15.43,0,0,0-2.86-.25c-1.68.09-3.6,1.78-3.71,3.21,0,.33.29.69.45,1,.29-.17.66-.28.84-.53.3-.43.44-1,.73-1.44a3.06,3.06,0,0,1,4.15-1.22c-1.65.42-3.05,1.08-3.32,2.92a3,3,0,0,0,1.5,3.41l2.07-.81-1.64-.22A1.76,1.76,0,0,1,16,287.6c0-.7.45-1.11,1.47-1.17a2.38,2.38,0,0,0,2-.63,2.93,2.93,0,0,1,2.56-1A5.67,5.67,0,0,0,26,283.26c.28-.25.61-.56.25-1A5.07,5.07,0,0,1,21.24,283.47Z"/><path class="cls-1" d="M22.75,332.63a30.05,30.05,0,0,1-3-.41l0,0-.09,0h0a7.33,7.33,0,0,1-1.63.87,3.11,3.11,0,0,0-2.48,2.54A2.94,2.94,0,0,0,16.9,339a5.3,5.3,0,0,1,1.77-.39c.49.06.93.53,1.49.88a1.88,1.88,0,0,0-.1-.6,2.06,2.06,0,0,0-2.06-.77,1.79,1.79,0,0,1-2-1.62c.08-1,.91-1.07,1.71-1.2a3.28,3.28,0,0,0,1.8-.61,3.25,3.25,0,0,1,2.75-1A5,5,0,0,0,26.11,332c.18-.19.12-.6.18-.91l0,0A3.77,3.77,0,0,1,22.75,332.63Z"/><path class="cls-1" d="M13,334.19c-.27.54-.6,1.24,0,1.61.8.46,1-.36,1.2-.89a4,4,0,0,1,4.3-2.58,5.52,5.52,0,0,0,1.14-.12c-.51-.14-1-.32-1.51-.42A4.59,4.59,0,0,0,13,334.19Z"/><path class="cls-1" d="M7.23,230.41c-2.8,1.59-2.8,1.58-6.06,2A4,4,0,0,0,.1,233C2.13,234.06,5,233,7.23,230.41Z"/><path class="cls-1" d="M.05,155.68c1.23,1,2.6.35,3.69.89s2.33,1.1,3.39,1.6C5.52,155.84,2.29,154.57.05,155.68Z"/><path class="cls-1" d="M7.29,132.43a21.79,21.79,0,0,1-3,1.53,32.72,32.72,0,0,1-3.31.6c-.27.05-.49.36-.79.59C2.17,136.2,5.53,134.87,7.29,132.43Z"/><path class="cls-1" d="M1.32,204c-.53,0-1,0-.94.8a26.59,26.59,0,0,1,3.75.79,26.79,26.79,0,0,1,3.44,1.79A8.58,8.58,0,0,0,1.32,204Z"/><path class="cls-1" d="M.24,8.89A30.43,30.43,0,0,1,4,9.7,26.48,26.48,0,0,1,7.2,11.26C5.59,9,2.23,7.59.24,8.89Z"/><path class="cls-1" d="M6.89,255.86c-2.17-2.59-5.52-3.61-6.84-1.67C2.8,253.77,4.86,254.77,6.89,255.86Z"/><path class="cls-1" d="M3.76,85.16A33.89,33.89,0,0,1,.45,86l.18.59c2.64.37,4.6-.93,6.36-2.71C5.88,84.2,4.85,84.78,3.76,85.16Z"/><path class="cls-1" d="M.23,57.76c1.34.31,2.49.49,3.57.86s2.11.94,3.28,1.47C5,57.64,2.24,56.63.23,57.76Z"/><path class="cls-1" d="M6.77,181.9c-1.24.51-2.21,1-3.24,1.31s-2.08.44-3.47.72C2.43,185.05,4.79,184.25,6.77,181.9Z"/><path class="cls-1" d="M6.66,328.93l-6,2C2,332.05,5.25,330.88,6.66,328.93Z"/><path class="cls-1" d="M.19,106.85c1.22.24,2.17.37,3.09.63s2,.72,3.06,1.13A4.81,4.81,0,0,0,.19,106.85Z"/><path class="cls-1" d="M6.63,279.87c-1,.42-2,.91-3,1.22a30.91,30.91,0,0,1-3.07.63c0,.13,0,.26.07.4A5.59,5.59,0,0,0,6.63,279.87Z"/><path class="cls-1" d="M6.41,35.14c-1.21.47-2.14.91-3.11,1.18a29.76,29.76,0,0,1-3.1.52C2.12,38.05,4.64,37.32,6.41,35.14Z"/><path class="cls-1" d="M.56,302.77c1.21.24,2.25.37,3.24.67a28.88,28.88,0,0,1,2.76,1.17C4.39,302.28,2.23,301.6.56,302.77Z"/><path class="cls-1" d="M19.51,34c1.21-.44,1.24-.5,2.22-2.91C20.89,32,20.65,33.4,19.51,34Z"/><path class="cls-1" d="M21,81a3.67,3.67,0,0,1,3.48-.58C22.05,79.67,22,79.66,21,81Z"/><path class="cls-1" d="M22,63.93l2.49-.44-.05-.26c-.44.1-.88.24-1.33.3a8.8,8.8,0,0,1-1.15,0C22,63.67,22,63.8,22,63.93Z"/><path class="cls-1" d="M19.27,295.19v-.06h-.05Z"/><path class="cls-1" d="M20.18,293.94l-.91-.18v1.37A1.12,1.12,0,0,0,20.18,293.94Z"/><path class="cls-1" d="M20.57,290.32l-1.31-.91v1.37Z"/><path class="cls-1" d="M19.26,289.33l-.05.05.05,0Z"/><path class="cls-1" d="M19.64,83.88,18.71,86C19.72,85.47,19.51,84.59,19.64,83.88Z"/><path class="cls-1" d="M18.76,57.88l.87,2C19.5,59.14,19.78,58.22,18.76,57.88Z"/><path class="cls-1" d="M19.71,255.74c-.17-.72-.34-1.43-.5-2.15l-.29.1C19.18,254.37,19.44,255.05,19.71,255.74Z"/><path class="cls-1" d="M19.79,256V256h0l-.08-.21.06.24Z"/><path class="cls-1" d="M21.07,257.64,19.79,256C19.78,257.05,19.8,257.06,21.07,257.64Z"/><path class="cls-1" d="M20.74,326.65l-1.16,1.48C20.12,327.78,20.87,327.63,20.74,326.65Z"/><path class="cls-1" d="M19.74,83.56a1.19,1.19,0,0,0-.1.32l.13-.29a.64.64,0,0,1,0-.07l0,0Z"/><path class="cls-1" d="M19.75,83.52c.17-.24.3-.56.52-.66.86-.38.83-1,.66-1.71a4,4,0,0,1-.79,1.24A.89.89,0,0,0,19.75,83.52Z"/><path class="cls-1" d="M20.93,81.15v0h0L21,81l-.09,0S20.92,81.12,20.93,81.15Z"/><path class="cls-1" d="M19.74,60.23l0,0h0l-.13-.3a1.33,1.33,0,0,0,.1.34Z"/><path class="cls-1" d="M21.06,61.64l-1.32-1.41C19.32,61.4,20.52,61.26,21.06,61.64Z"/><path class="cls-1" d="M19.32,11.79l1.94,1.26A1.91,1.91,0,0,0,19.32,11.79Z"/><path class="cls-1" d="M19.5,328.23l.08-.1-.11.06c0,.05,0,.09,0,.14s0-.06,0-.09Z"/><path class="cls-1" d="M19.49,328.33c-.12.9-.24,1.8-.37,2.7A4.09,4.09,0,0,0,19.49,328.33Z"/><path class="cls-1" d="M19.12,331l0,.06h0l0,0V331Z"/><path class="cls-1" d="M22,14.73l-.71-1.63C21,13.88,21.11,14.43,22,14.73Z"/><path class="cls-1" d="M21.29,13.1v0h0l0,0,0,0Z"/><path class="cls-1" d="M19.78,1.21l0-.07,0,0Z"/><path class="cls-1" d="M20.36.22l-1-.22.43,1.14C19.92.87,20.1.6,20.36.22Z"/><path class="cls-1" d="M19.44,34.18V34.1h0s0,0,.07-.05l-.08,0Z"/><path class="cls-1" d="M19.62,35.8l-.18-1.62-.09,1.63Z"/><path class="cls-1" d="M17.21,147.6c-.81,0-1.14.57-1.41,1.17a3.37,3.37,0,0,0,1.48,4.47c.43.25.88.48,1.52.82-2.09.32-3.32-.23-4.17-1.71a13.93,13.93,0,0,0-.62-1.29c-.17-.24-.55-.33-.84-.49-.17.34-.48.68-.47,1a2.2,2.2,0,0,0,.47,1.14,4.37,4.37,0,0,0,3.87,2.2,2.43,2.43,0,0,1,2.2.75,1.68,1.68,0,0,1,.38.18,1.06,1.06,0,0,1,.42.48,1.06,1.06,0,0,0-.42-.48,1.68,1.68,0,0,0-.38-.18h0l0,.05-.59.05a5.18,5.18,0,0,1,.55.92c.1.34,0,.72.12,1.06a6,6,0,0,0,.56,1.47c.31.55.8,1,1.1,1.54.64,1.14,1.12,1.31,2.41.75h.2l.12-.05a4,4,0,0,1,.92.13c2.14.8,2.57,2.39,1.15,4.22A5.72,5.72,0,0,1,22,168a8.48,8.48,0,0,1-4.73-.78,17.47,17.47,0,0,1-5.39-3.86,25.38,25.38,0,0,0-6.74-5.08,6.85,6.85,0,0,0-4-.66A1.05,1.05,0,0,0,.1,159c.13.94.43,1.27,1.44,1.15a9.11,9.11,0,0,1,6,1.36c1.62,1,3.11,2.24,4.69,3.33a31.4,31.4,0,0,0,4.94,3.25c5,2.2,10-.24,11.48-5.52.62-2.15.6-4.3-1.22-6A2,2,0,0,1,27,156c-1.05-2.33-2.95-3.16-5.38-3.17a2.26,2.26,0,0,1-1.49-.41,4.06,4.06,0,0,0-3-1.31c-1.05,0-1.41-.89-.86-1.78a1.54,1.54,0,0,1,1.82-.82c1.15.29,1.75-.38,2.31-1.35a2.94,2.94,0,0,0-3.19.44Z"/><path class="cls-1" d="M17.79,98.23v0a2.6,2.6,0,0,0-2.3,2.59,3.13,3.13,0,0,0,1.7,3.31,13.2,13.2,0,0,0,1.83.75c-1.65.48-2.86.29-3.78-.74a8.31,8.31,0,0,1-1.1-1.84c-.23-.46-.44-.94-1-.7s-.54.75-.35,1.22a4.34,4.34,0,0,0,.6,1.1c1.3,1.62,2.91,2.49,4.9,1.9l.7,1.33-.05-.08c.49,1.39.52,3,1.86,4,.07.06.06.23.11.34.6,1.35,1,1.52,2.49,1.34a11.08,11.08,0,0,1,2.06.13l.06.06c.24.07.65.06.71.21a2.92,2.92,0,0,1,.19,2.59A5.26,5.26,0,0,1,21.78,119c-3.23.29-5.85-1.07-8.2-3.08-1.42-1.21-2.71-2.56-4.15-3.74-2-1.65-4.07-3.19-6.76-3.58a3.21,3.21,0,0,0-2.66.67c.11.62.23,1.29.35,2a9.12,9.12,0,0,1,6.17.71c1.83,1,3.52,2.26,5.26,3.44A46.41,46.41,0,0,0,17,119a8.17,8.17,0,0,0,11.85-5.82c.42-2,.35-4-1.29-5.53a5.07,5.07,0,0,1-.77-1.37h-.07a5.87,5.87,0,0,0-5.12-2.47,1.87,1.87,0,0,1-1.34-.35,4,4,0,0,0-3-1.25,1.17,1.17,0,0,1-.74-2.09,2.58,2.58,0,0,1,1.42-.56c.62-.08,1.3.11,1.71-.56h.08s0,0,0,0l.81-.81a3.41,3.41,0,0,0-2.54.11Zm1.79,8.51c-.21-.13-.48-.06-.62.46h0C19.1,106.68,19.37,106.61,19.58,106.74Z"/><path class="cls-1" d="M17.22,245.5c-.32.13-.72.17-.92.4a3.38,3.38,0,0,0,.94,5.21c.44.25.9.45,1.51.75a3.25,3.25,0,0,1-4-1.41c-.32-.5-.46-1.11-.8-1.59a1.09,1.09,0,0,0-.88-.31c-.18,0-.4.42-.43.68a1.54,1.54,0,0,0,.21.85c.91,1.58,2.1,2.75,4.09,2.74a2.65,2.65,0,0,1,2.22.7l0,.07h0l0,0,0,0-.06,0a1.17,1.17,0,0,1,1,1.32,1.35,1.35,0,0,0,1.49,1.55c.46,1.92.46,1.9,2.27,1.94a2.19,2.19,0,0,1,1.16.4,3.34,3.34,0,0,1,.75,4.9,6.74,6.74,0,0,1-1.75,1.53c-2.23,1.34-4.52.94-6.75,0a18.15,18.15,0,0,1-5.8-4.22,23.34,23.34,0,0,0-6.65-4.87,6,6,0,0,0-3.51-.57,1.29,1.29,0,0,0-1.2,1.65c.14.85.69.89,1.45.92a17.58,17.58,0,0,1,4.23.55,17.85,17.85,0,0,1,6.08,3.78,32.52,32.52,0,0,0,4.05,3c5.33,3.14,11.37.68,12.78-5.19.64-2.65.16-5-2.31-6.63-.12-.08-.16-.28-.24-.43h0c0-.22.13-.51,0-.61a5.53,5.53,0,0,0-4-1.8c-.69,0-1.62,0-2-.42A4.45,4.45,0,0,0,17.05,249c-1-.07-1.32-.95-.74-1.84a1.83,1.83,0,0,1,1.84-.81c1.4.07,1.5-.06,2-1.43a3,3,0,0,0-2.93.57Z"/></g></svg>