<svg id="Layer_1" data-name="Layer 1" xmlns="http://www.w3.org/2000/svg" viewBox="0 0 696.02 278.09"><defs><style>.cls-1{fill:#fedc01;}.cls-2{fill:#461d2c;fill-rule:evenodd;}</style></defs><title>1920x1080 UI Landing Page</title><path class="cls-1" d="M1.34,240.57q4.56,0,10.24,4.6,6.09,5.61,6.08,12.1v.44a9.92,9.92,0,0,1-4.45,8.76,9.37,9.37,0,0,1-4.75,1.41h-.3a7.08,7.08,0,0,1-7.27-5.12,6.23,6.23,0,0,1-.3-2v-.15c0-1.81.47-3.07,1.41-3.79v-.07H0v-.15c.35-.74.74-1.11,1.19-1.11H2.67l8.31.22a1.85,1.85,0,0,0,.15-.82v-.22c0-1.43-.91-2.47-2.74-3.12l-1-.14q-1.45,0-1.71,1.11,0,.76,1.11,1.11h.3l.59-.22a1.5,1.5,0,0,1-.29-.67v-.07c.1-.5.34-.74.74-.74h.3c.69.08,1,.38,1,.89v.74a2.83,2.83,0,0,1-2.82,1.56l-.3.07q-4.53,0-4.53-2.52,0-2.86,4-3.34H6a6.79,6.79,0,0,1,5.57,2.52,6.76,6.76,0,0,1,1,3.27c0,1.12-.3,1.79-.89,2h-.6l-5.27-.3H5.57a2.54,2.54,0,0,0-2.68,1.56l-.07.45v.44q0,2.1,5.05,2.82a5.93,5.93,0,0,0,1.7.15,5.73,5.73,0,0,0,6.09-5.71v-.75c0-2-.91-4.42-2.75-7.34h-.07a1.83,1.83,0,0,1-1.63,2,1.49,1.49,0,0,1-1.49-1.26c0-.37.28-.64.82-.82l.67.23.07-.08v-.15c0-.12-.2-.22-.59-.29h-.15L7,248.21H6.53q-3.55,0-4.82-4.45A2.26,2.26,0,0,0,1,242.05C1,241.06,1.09,240.57,1.34,240.57ZM2.67,244c0,.93,1,1.5,2.9,1.71l3.11-.15a5.08,5.08,0,0,1,1.71.3h.07v-.07c-2.6-1.83-4.81-2.75-6.6-2.75C3.07,243.17,2.67,243.49,2.67,244Z"/><path class="cls-1" d="M13.69,237.66h.6q2.59,0,3.86,3.34l.14,1.56a3.78,3.78,0,0,1-2.74,3.85,1.85,1.85,0,0,1-.82.15h-.15a2.65,2.65,0,0,1-2.82-1.93V244c.17-1.29.69-1.93,1.56-1.93h.22c.62,0,1,.49,1.19,1.48-.18.6-.48.89-.89.89h-.3a1.44,1.44,0,0,1-.89-.37l-.14.15v.37c0,.25.42.47,1.26.67h.44c.58,0,.93-.54,1-1.63-.21-1.53-.83-2.3-1.85-2.3-1.29,0-1.93.77-1.93,2.3V244l.44,7.27q.15,0,.15.75H10.8c-.15,0-.22-.52-.22-1.56l.07-4.46a7.88,7.88,0,0,0-.74-3.93,3.7,3.7,0,0,0-1.63-.52,1.76,1.76,0,0,1-.52-1c0-.72.47-1.16,1.41-1.33.7,0,1.15.47,1.33,1.41h.08c0-1.28.81-2.24,2.45-2.9Z"/><path class="cls-1" d="M24,249.7h.23a8,8,0,0,1,6,2.6,10.86,10.86,0,0,1,5.34-1.71h.52q4.53,0,7,5.71a13.45,13.45,0,0,1,.44,3.12v.3A11.76,11.76,0,0,1,40.3,268a8,8,0,0,1-4.82,2.15H35c-1.09,0-1.63-.39-1.63-1.18v-.23q.16-1.26,1.11-1.26h.08c.57,0,1,.37,1.18,1.11,0,.1.18.18.52.23,1.62,0,2.79-1.34,3.49-4l.15-1.71a11.52,11.52,0,0,0-2.38-6.9c-1.48-1.48-2.86-2.23-4.15-2.23h-.6l-1.11.08v.07c1.54,0,3,.87,4.53,2.6a8.47,8.47,0,0,1,1.48,4.68v.44a6.1,6.1,0,0,1-2.07,4.82,6,6,0,0,1-3.42,1h-.3c-1.45,0-2.3-.59-2.52-1.78a3.64,3.64,0,0,1-3.12,1.93h-.66c-2.28-.29-3.42-1-3.42-2.15V265a.53.53,0,0,0-.59-.6h-.3c-.64,0-1,.23-1,.67s-.3.67-.89.67-.82-.32-.9-1v-.08q1-2.67,10.25-11.43a3.92,3.92,0,0,0-3.64-2c-1.69,0-2.73.62-3.12,1.85v.45A1.65,1.65,0,0,0,23.9,255a1.37,1.37,0,0,0,1.11-.81v-.15l-.37.07c-.52,0-.82-.32-.89-1V253c.16-.64.48-1,1-1h.45c.69,0,1.11.65,1.26,1.93v.15q0,2.45-3.78,3.71a6.79,6.79,0,0,1-1.64.23h-.22a3.32,3.32,0,0,1-3.34-2.68l-.07-.74v-.07q0-3.4,5.19-4.75ZM22,262h.08a5.11,5.11,0,0,1,2.3-1.34h.29a3.4,3.4,0,0,1,1.64,1l.74.15c.74-.18,1.11-.47,1.11-.89a4.51,4.51,0,0,1-.22-1.27c.11-.64.56-1,1.34-1h.07c.64,0,1,.3,1,.89l-.08,1.63c0,.4.32.6,1,.6a5.17,5.17,0,0,0,3.86-1.71,2.73,2.73,0,0,0,.44-1.49c0-1.7-1.21-2.72-3.64-3h-.52a9.35,9.35,0,0,0-1.85.22l-.15-.22V255h-.07c-1.3.6-3.18,2.25-5.64,5A16.73,16.73,0,0,0,22,262Z"/><path class="cls-1" d="M51.08,245.17q6.78,0,10,6.24A12.67,12.67,0,0,1,62.21,257v.08a10.85,10.85,0,0,1-5.41,9.87,10.5,10.5,0,0,1-4.16,1,7.42,7.42,0,0,1-7.12-4.15,6.77,6.77,0,0,1-.75-3.12v-.67q0-4.32,4-7.5A8,8,0,0,1,53.16,251c2.29,0,3.62,1,4,2.9l.07.74a4.76,4.76,0,0,1-.67,2.3h-.14a7.47,7.47,0,0,0-5.2-2.37h-.07a6.07,6.07,0,0,0-4.31,1.85,2.83,2.83,0,0,0-.37,1.12v.37c0,1.59,1,2.76,3,3.49a15.58,15.58,0,0,0,4.08.66c3.44,0,5.64-1.7,6.61-5.12l.15-1.33v-.37q0-4.72-4.75-7.43a11.18,11.18,0,0,0-4.61-1,7.91,7.91,0,0,0-6.68,3.27,3.6,3.6,0,0,0-.37,1.41c.15.89.42,1.34.82,1.34l.59-.08c.69.19,1,.51,1,1V254c0,.56-.39.91-1.19,1-1.58,0-2.52-1-2.82-2.89v-.22c0-1.86,1.27-3.67,3.79-5.42A10,10,0,0,1,51.08,245.17Z"/><path class="cls-1" d="M77.93,249.7h.22a8,8,0,0,1,6,2.6,10.9,10.9,0,0,1,5.35-1.71H90q4.53,0,7,5.71a13,13,0,0,1,.45,3.12v.3A11.76,11.76,0,0,1,94.26,268a8,8,0,0,1-4.83,2.15H89c-1.09,0-1.63-.39-1.63-1.18v-.23q.17-1.26,1.11-1.26h.07c.57,0,1,.37,1.19,1.11,0,.1.17.18.52.23q2.43,0,3.49-4l.15-1.71a11.52,11.52,0,0,0-2.38-6.9C90,254.75,88.64,254,87.36,254h-.6l-1.11.08v.07q2.3,0,4.53,2.6a8.47,8.47,0,0,1,1.48,4.68v.44a6.07,6.07,0,0,1-2.08,4.82,6,6,0,0,1-3.41,1h-.3c-1.46,0-2.3-.59-2.52-1.78a3.64,3.64,0,0,1-3.12,1.93h-.67c-2.27-.29-3.41-1-3.41-2.15V265a.53.53,0,0,0-.6-.6h-.29c-.64,0-1,.23-1,.67s-.29.67-.89.67-.81-.32-.89-1v-.08q1-2.67,10.24-11.43a3.92,3.92,0,0,0-3.63-2c-1.7,0-2.74.62-3.12,1.85v.45A1.65,1.65,0,0,0,77.86,255q.6,0,1.11-.81v-.15l-.37.07c-.52,0-.82-.32-.89-1V253c.16-.64.48-1,1-1h.45c.69,0,1.11.65,1.26,1.93v.15q0,2.45-3.79,3.71a6.65,6.65,0,0,1-1.63.23h-.22a3.32,3.32,0,0,1-3.34-2.68l-.08-.74v-.07c0-2.27,1.74-3.85,5.2-4.75ZM76,262h.07a5.12,5.12,0,0,1,2.31-1.34h.29a3.34,3.34,0,0,1,1.63,1l.75.15c.74-.18,1.11-.47,1.11-.89a4.51,4.51,0,0,1-.22-1.27c.11-.64.55-1,1.33-1h.08c.64,0,1,.3,1,.89l-.07,1.63q0,.6,1,.6a5.16,5.16,0,0,0,3.86-1.71,2.66,2.66,0,0,0,.45-1.49c0-1.7-1.21-2.72-3.64-3h-.52a9.26,9.26,0,0,0-1.85.22l-.15-.22V255h-.08c-1.3.6-3.18,2.25-5.64,5A16.55,16.55,0,0,0,76,262Z"/><path class="cls-1" d="M105.3,245.17q7.35,0,10.39,7.13a14.92,14.92,0,0,1,.82,4.6,11.25,11.25,0,0,1-4.68,9.57,9.7,9.7,0,0,1-4.82,1.41q-5.94,0-8.32-6l-.37-2.15a8.34,8.34,0,0,1,2.38-6.09,3.57,3.57,0,0,1,2.22-.89c.46,0,.76.32.89,1v.37l-.44,1.85c0,1.09,1.38,1.74,4.16,1.93,2.1,0,3.48-.52,4.15-1.56a2.33,2.33,0,0,0,.37-1V255a1.74,1.74,0,0,0-1.85-1.71h-.3c-1,.18-1.56.59-1.56,1.26s.36.82.82.82h.3c.25,0,.4-.07.44-.22-.28,0-.46-.18-.52-.52.1-.55.35-.82.74-.82h.15c.53,0,.83.35.89,1V255c0,.86-.77,1.46-2.3,1.78l-.82.07c-1.85,0-3.09-.56-3.71-1.7l-.22-.82v-.52c0-1.74,1.31-2.81,3.93-3.19h.38a5.14,5.14,0,0,1,4.37,2.67,4.23,4.23,0,0,1,.52,2.08q0,2.4-3,3.49a9.72,9.72,0,0,1-2.67.37c-3-.14-4.82-1.05-5.49-2.75l-.08-.74.45-1.56h-.08c-.73,0-1.29.92-1.7,2.75v.44c0,2,1.23,3.47,3.71,4.31a13,13,0,0,0,3.41.44,6.27,6.27,0,0,0,6.31-4.23,6.73,6.73,0,0,0,.45-2.52,8.32,8.32,0,0,0-3.34-6.61,10.26,10.26,0,0,0-5.94-1.93,8.33,8.33,0,0,0-6.83,3.49,3,3,0,0,0-.59,1.64c.07.54.24.81.52.81l.66-.07c.6.13.9.41.9.81v.15c-.18.89-.58,1.34-1.19,1.34-1.49-.24-2.23-1-2.23-2.23l-.07-.37c0-2.31,1.5-4.39,4.52-6.23A11,11,0,0,1,105.3,245.17Z"/><path class="cls-1" d="M122.93,249.7h.22a8,8,0,0,1,6,2.6,10.89,10.89,0,0,1,5.34-1.71H135q4.53,0,7,5.71a13,13,0,0,1,.45,3.12v.3a11.77,11.77,0,0,1-3.2,8.31,7.94,7.94,0,0,1-4.82,2.15H134c-1.09,0-1.63-.39-1.63-1.18v-.23q.17-1.26,1.11-1.26h.08c.57,0,1,.37,1.19,1.11,0,.1.17.18.52.23q2.43,0,3.48-4l.15-1.71a11.57,11.57,0,0,0-2.37-6.9c-1.49-1.48-2.87-2.23-4.16-2.23h-.59l-1.12.08v.07q2.31,0,4.53,2.6a8.48,8.48,0,0,1,1.49,4.68v.44a6.11,6.11,0,0,1-2.08,4.82,6,6,0,0,1-3.42,1h-.29c-1.46,0-2.3-.59-2.53-1.78a3.64,3.64,0,0,1-3.11,1.93h-.67c-2.28-.29-3.42-1-3.42-2.15V265a.52.52,0,0,0-.59-.6h-.3c-.64,0-1,.23-1,.67s-.3.67-.89.67-.82-.32-.89-1v-.08q1-2.67,10.24-11.43a3.92,3.92,0,0,0-3.64-2c-1.69,0-2.73.62-3.11,1.85v.45a1.65,1.65,0,0,0,1.85,1.48,1.37,1.37,0,0,0,1.11-.81v-.15l-.37.07c-.52,0-.81-.32-.89-1V253c.16-.64.49-1,1-1h.44c.69,0,1.12.65,1.27,1.93v.15c0,1.63-1.27,2.87-3.79,3.71a6.72,6.72,0,0,1-1.63.23h-.23a3.32,3.32,0,0,1-3.34-2.68l-.07-.74v-.07q0-3.4,5.2-4.75ZM121,262h.07a5.11,5.11,0,0,1,2.3-1.34h.3a3.43,3.43,0,0,1,1.63,1l.74.15c.75-.18,1.12-.47,1.12-.89a4.57,4.57,0,0,1-.23-1.27c.11-.64.56-1,1.34-1h.07c.65,0,1,.3,1,.89l-.08,1.63c0,.4.32.6,1,.6a5.17,5.17,0,0,0,3.86-1.71,2.65,2.65,0,0,0,.44-1.49c0-1.7-1.21-2.72-3.63-3h-.52a9.36,9.36,0,0,0-1.86.22l-.15-.22V255h-.07c-1.3.6-3.18,2.25-5.64,5A15.64,15.64,0,0,0,121,262Z"/><path class="cls-1" d="M138.44,237.66H139q2.59,0,3.86,3.34l.15,1.56a3.79,3.79,0,0,1-2.75,3.85,1.83,1.83,0,0,1-.81.15h-.15a2.65,2.65,0,0,1-2.82-1.93V244c.16-1.29.68-1.93,1.56-1.93h.22c.62,0,1,.49,1.19,1.48-.19.6-.49.89-.89.89h-.3a1.42,1.42,0,0,1-.89-.37l-.15.15v.37c0,.25.42.47,1.26.67H139c.58,0,.92-.54,1-1.63-.21-1.53-.83-2.3-1.86-2.3-1.29,0-1.93.77-1.93,2.3V244l.45,7.27c.09,0,.14.25.14.75h-1.26c-.15,0-.22-.52-.22-1.56l.07-4.46a7.77,7.77,0,0,0-.74-3.93,3.65,3.65,0,0,0-1.63-.52,1.76,1.76,0,0,1-.52-1c0-.72.47-1.16,1.41-1.33.71,0,1.15.47,1.34,1.41h.07c0-1.28.82-2.24,2.45-2.9Z"/><path class="cls-1" d="M157.44,249.35a6.9,6.9,0,0,1,5.71,2.67,8.59,8.59,0,0,1,5.42-2.23h.59q4.36,0,7.05,5.12a11.82,11.82,0,0,1-2.37,12.69,9.22,9.22,0,0,1-5.2,2.08c-1.09,0-1.63-.37-1.63-1.11v-.37c.12-.79.5-1.19,1.12-1.19s1.11.43,1.11,1a.6.6,0,0,0,.52.3H170q1.8,0,3.27-4.31a8.24,8.24,0,0,0,.22-1.78v-.15a9,9,0,0,0-4.08-7.64,5.72,5.72,0,0,0-3.19-1,6.53,6.53,0,0,0-2.08.37v.45h.67q4.65,0,6.3,4.75l.15,1.41V261q0,4.58-6.68,6.53l-2.74.3q-5.92,0-8.54-4.75a7.06,7.06,0,0,1-.67-3.19c0-1.24.18-1.86.52-1.86h.23a.5.5,0,0,1,.52.3v.59c0,.64.61,1,1.85,1h.15q3.41,0,5.94-6.24l.37-.44c-.84-1.59-1.93-2.38-3.27-2.38h-.52a3.09,3.09,0,0,0-3,2.08l-.07.52q0,.93,1.26,1.11h.29a2,2,0,0,0,1.64-.67v-.07h-.6c-.41,0-.68-.3-.81-.89v-.08c0-.5.37-.8,1.11-.89h.52q1,0,1,1.41v.38q0,2.55-3.19,3.63l-2.08.3a3.38,3.38,0,0,1-3.34-2.52l-.07-1q0-3.31,4.82-4.68Zm5.27,5.93a14.79,14.79,0,0,1-3.64,5,4.84,4.84,0,0,1-2.37.74H156a3.07,3.07,0,0,1-1.18-.15v.07a5.07,5.07,0,0,0,4.82,2.68h.82a8,8,0,0,0,6.16-3.05,3.93,3.93,0,0,0,.89-2.3c-.2-1.63-1-2.45-2.45-2.45l-.52-.07-1.63.22-.08-.67Z"/><path class="cls-1" d="M178.22,255h7.42c.54.1.82.35.82.75s-1,1.79-3.05,3.86q-2.52,3.31-2.52,6c.21,2.08,1.1,3.11,2.67,3.11a2.84,2.84,0,0,0,2.6-1.55l.07-.6c-.18-1-.58-1.56-1.18-1.56a2.52,2.52,0,0,1,.29,1.19v.15c0,.7-.44,1.13-1.33,1.26s-1.63-.64-1.78-1.93c0-1,.76-1.56,2.3-1.78h.22q2.4,0,3.34,2.89l.15,1.19q0,3.25-3.42,4.38l-1.33.15H183a4.8,4.8,0,0,1-4.9-3.71l-.14-1.49c0-3.12,1.68-6.32,5-9.57h-.15l-4.52.15c-.45-.15-.67-.57-.67-1.26v-.45C177.77,255.42,178,255,178.22,255Z"/><path class="cls-1" d="M192.25,249.07h.52a5.76,5.76,0,0,1,5.78,3.78,9.27,9.27,0,0,1,.3,2.16v.14c-.06,1.76-.21,2.68-.44,2.75h-2.3c-2.54,0-4,.27-4.38.82l-.15.66v.15q0,2.87,4.38,3.49l1.26.08a4.83,4.83,0,0,0,4.75-2.83l.15-1a1.2,1.2,0,0,0-1-1.34H201c-.11,0-.21.42-.29,1.27a1.3,1.3,0,0,1-.75.37h-.22q-.62,0-.81-.75a14.06,14.06,0,0,1,1.85-6.82,4.86,4.86,0,0,1,3.86-2.23h.45q4.89,0,7,6.38a12.77,12.77,0,0,1,.44,2.67q0,7.56-5.94,10.17a5.74,5.74,0,0,1-2.15.52H204c-1-.08-1.56-.41-1.56-1v-.3a1.29,1.29,0,0,1,1-1.34h.37c.43,0,.8.38,1.11,1.12l.37.07h.3q1.93,0,3.19-4.3l.23-2.23a9.24,9.24,0,0,0-2.45-6.68,3.46,3.46,0,0,0-2.38-1h-.07a2.77,2.77,0,0,0-3,2.37v.22h.37a3.08,3.08,0,0,1,3.26,2.6l.15,1.34V261q0,4.62-5.71,6.45a17,17,0,0,1-2.9.3,8.25,8.25,0,0,1-7.79-4.45,7.35,7.35,0,0,1-.59-2.38q0-3.57,4.45-4.82l1.56-.15h2.82l.37.07a4.39,4.39,0,0,0,.3-1.55V254a2.93,2.93,0,0,0-1.71-2.6l-1.34-.3c-1.09.14-1.63.61-1.63,1.41v.3c.14.89.58,1.33,1.34,1.33h.44c.55-.12.84-.27.89-.44v-.15l-.66.08a.63.63,0,0,1-.52-.67v-.3c0-.48.34-.75,1-.82s1,.47,1.12,1.41v.15c0,1.29-1.12,2.13-3.34,2.53l-1.71.14c-1.69,0-2.83-.34-3.41-1a3.21,3.21,0,0,1-.67-2.08q0-2.28,2.89-3.57A9.76,9.76,0,0,1,192.25,249.07Z"/><path class="cls-1" d="M213.51,255h7.42c.54.1.82.35.82.75s-1,1.79-3,3.86q-2.53,3.31-2.53,6c.21,2.08,1.1,3.11,2.67,3.11a2.84,2.84,0,0,0,2.6-1.55l.08-.6c-.19-1-.59-1.56-1.19-1.56a2.41,2.41,0,0,1,.29,1.19v.15c0,.7-.44,1.13-1.33,1.26-1,0-1.63-.64-1.78-1.93,0-1,.76-1.56,2.3-1.78H220q2.4,0,3.34,2.89l.15,1.19q0,3.25-3.41,4.38l-1.34.15h-.45a4.78,4.78,0,0,1-4.89-3.71l-.15-1.49c0-3.12,1.68-6.32,5-9.57h-.14l-4.53.15c-.45-.15-.67-.57-.67-1.26v-.45C213.06,255.42,213.24,255,213.51,255Z"/><path class="cls-1" d="M225.09,262.58h.67c1.48,0,2.49.86,3,2.59l.07.89a3.47,3.47,0,0,1-2.59,3.42l-.67.07H225a2.75,2.75,0,0,1-1.78-.59l.08-.08h.07l1.11.08a2.94,2.94,0,0,0,3-2.08v-.07l-.08-.08h-.15a2.66,2.66,0,0,1-2.07,1h-.3c-1.42,0-2.24-.86-2.45-2.6v-.07a2.33,2.33,0,0,1,1.78-2.38A2,2,0,0,1,225.09,262.58Z"/><path class="cls-1" d="M256.26,248.4q2.25,0,2.89,3.41V252c0,1.31-.81,2.3-2.44,3-.75.38-1.12.82-1.12,1.33h.08a1.72,1.72,0,0,1,.89-.44h.15q.68,0,.81,1v.08c0,.54-.39.86-1.19,1h-.22c-1-.15-1.48-.64-1.48-1.48s.61-1.6,1.85-2.53a.9.9,0,0,0,.3-.59V253c0-.16-.25-.31-.74-.44-.8,0-1.34.57-1.64,1.7l.08,2.16v.52c0,1.73-.13,4.08-.37,7.05q2.82-.63,2.82-2.82v-.45h-.08l-1,.15h-.07c-.69-.17-1-.47-1-.89v-.15c0-.54.42-.89,1.26-1h.23q1.76,0,2.22,3v.07q0,3-3.56,4.75-1.11.39-1.11.75-.37,3.66-.37,5.78c0,1.79.44,2.68,1.33,2.68l.74-.23v-.29l-.89.15c-.33,0-.55-.28-.67-.82v-.15c0-.46.33-.73,1-.82h.3a1.66,1.66,0,0,1,1.33,1.86,2.77,2.77,0,0,1-1.33,2.08,3.47,3.47,0,0,1-1.93.52c-1.66,0-2.73-.6-3.19-1.78a1.85,1.85,0,0,1-.15-.82,27.81,27.81,0,0,1,1.93-5.57,15.88,15.88,0,0,0,.44-2.52,12.58,12.58,0,0,1-3,.3h-.08q-6.44,0-9.42-4a5.31,5.31,0,0,1-.89-3,4.84,4.84,0,0,1,2.74-4.45,7.07,7.07,0,0,1,2.68-.75v-.07c-2.5,0-3.94-.47-4.31-1.41a3.19,3.19,0,0,1-.3-1.26c0-1.55.9-2.64,2.68-3.27a8.24,8.24,0,0,1,2.37-.37h.3a8.89,8.89,0,0,1,6,2.15l-.07-.52v-.22a1.12,1.12,0,0,1,1-1.19h.22c.61,0,1,.4,1.27,1.19l.07.37h.07c.34-1.68,1.18-2.52,2.53-2.52ZM251.81,252h-.15l-.08-.07h-.07V252a7,7,0,0,1,1,3.64v.3a1.48,1.48,0,0,1-.44,1.26,12.11,12.11,0,0,0-4.23-.67h-.08q-3.78,0-4.89,1.93l-.15.82q0,2.19,4.45,4.15a13.16,13.16,0,0,0,4.6.82l1.12-.08v-.07a62.83,62.83,0,0,0,.59-7.12v-1.27c0-2-.35-3.27-1-3.93Zm-7.57.6a1.72,1.72,0,0,0,1.78,1l.81-.23v-.15a.87.87,0,0,1-.22-.52v-.29a1,1,0,0,1,.82-.6H248a1.24,1.24,0,0,1,.67,1.27q0,1.75-4,2.3h-.3v.07h.15l2.08-.15a32.5,32.5,0,0,1,4.6.45l.08-.74c0-1.7-1.17-2.94-3.49-3.72l-.59-.07C245.22,251.22,244.24,251.67,244.24,252.56Z"/><path class="cls-1" d="M263.83,249.48q3.92,0,5.79,4.23a11.49,11.49,0,0,1,.44,3.11c0,1-.12,1.49-.37,1.49h-.07l-2.82-.08c-2.07,0-3.3.47-3.71,1.41V260q0,2.39,6,3.26h.82q4.41,0,6.53-1.41a2.61,2.61,0,0,0,1.11-1.85v-.15c0-.81-.59-1.38-1.78-1.71l-5.42.07-.15-.14v-2a6.16,6.16,0,0,1,4-6.23,6.31,6.31,0,0,1,2.08-.37h.22a4.15,4.15,0,0,1,4,2.82l.07.81v.23a2.49,2.49,0,0,1-1.63,2.52,4.86,4.86,0,0,1-5.57-1.34l-.22-.89a1.31,1.31,0,0,1,1.49-1.48,1.2,1.2,0,0,1,.74,1.11v.22a.78.78,0,0,1-.67.45h-.37l-.08-.08h-.07V254a.77.77,0,0,0,.67.45h.22c.48,0,.8-.35,1-1v-.67c-.09-.84-.49-1.26-1.19-1.26q-2.25,0-3.27,3l-.07.82v.14c0,.65.07,1,.22,1h2.9q3.94,0,5.12,2.74a3.43,3.43,0,0,1,.44,1.56v.15a6.76,6.76,0,0,1-3.49,6,11.49,11.49,0,0,1-5.12,1h-2.37c-3.68,0-6.1-.74-7.28-2.22a4.83,4.83,0,0,1-2-3.72v-.51c0-2,1.06-3.49,3.19-4.61a7.37,7.37,0,0,1,2.67-.52l2.75.08v-.08l.15-1c0-1.42-.82-2.6-2.45-3.57a1.81,1.81,0,0,0-1-.22h-.07c-1,.2-1.48.69-1.48,1.48v.23q.21,1.41,1.41,1.41a1.33,1.33,0,0,0,1.18-.6h-.81a.61.61,0,0,1-.37-.59V253c0-.37.27-.64.81-.82a1.4,1.4,0,0,1,1.26,1.56c0,1.07-.66,1.83-2,2.3a4.49,4.49,0,0,1-1.78.3c-2.07,0-3.33-.67-3.79-2l-.14-1v-.3c0-1.42.84-2.53,2.52-3.34A7.44,7.44,0,0,1,263.83,249.48Z"/><path class="cls-1" d="M269.41,237.79h.89a11.47,11.47,0,0,1,7.87,2.74,6.24,6.24,0,0,1,1.86,4.6q0,3.66-4,4.83a2.43,2.43,0,0,1-1,.15h-.51c-1.59-.16-2.38-.66-2.38-1.49l-.07-.22c.13-.89.58-1.34,1.33-1.34h.3c.69.1,1,.45,1,1a1.4,1.4,0,0,1-.3.75v.07h.08q1.9,0,2.67-2.52v-.3c0-1.92-1.83-3.2-5.5-3.86l-2.07-.15a12.74,12.74,0,0,0-5.87,1.34,3.11,3.11,0,0,0-1.33,2.37v.08a2.54,2.54,0,0,0,1.93,2.52l-.15-.45v-.14c0-.62.37-1,1.11-1h.15q1.26,0,1.26,1.56a1.68,1.68,0,0,1-1.85,1.33h-.37c-2,0-3.58-1.06-4.75-3.19a6.81,6.81,0,0,1-.38-1.86c0-2.73,1.74-4.76,5.2-6.08A17.2,17.2,0,0,1,269.41,237.79Z"/><path class="cls-1" d="M298.27,245.17a14,14,0,0,1,7.27,2.38q5.64,4.42,5.64,10.76v.59a9.14,9.14,0,0,1-5.12,8.61,7,7,0,0,1-2,.3,4.36,4.36,0,0,1-3.79-1.63,3.6,3.6,0,0,1-3.19,1.7q-3.75,0-5.79-4.38a10.58,10.58,0,0,1-.52-3q0-5.4,4.45-7.57l.75-.15q.9,0,1.11,1.26l-.52,2.08c0,.29.32.66,1,1.11a6.6,6.6,0,0,0,3.26.67q3.39,0,4.23-1.78l.3-1c0-.62-.42-1.19-1.26-1.7l-.75-.08a1.57,1.57,0,0,0-1.78,1.26v.08c.11.49.36.74.75.74h.44l.37-.07c-.35-.26-.52-.51-.52-.75.21-.49.48-.74.82-.74.58,0,.9.35,1,1V255c0,.92-.89,1.51-2.67,1.78H301q-2.85,0-3.63-2.07l-.08-.45v-.52q0-2.39,3.49-3.12l.74-.07a5.32,5.32,0,0,1,4.38,2.52,4.46,4.46,0,0,1,.6,2.3q0,2.49-3.27,3.49a7.58,7.58,0,0,1-2.08.3h-.59c-2.8-.15-4.53-1-5.2-2.6l-.15-.74a4.42,4.42,0,0,1,.45-1.63h-.15c-.68,0-1.42.91-2.23,2.74a8,8,0,0,0-.14,1.63,3.86,3.86,0,0,0,2.37,3.86,4.71,4.71,0,0,0,2,.38c1.53-.29,2.3-.81,2.3-1.56V261l-.08-.67a1,1,0,0,1,.89-.67h.45c.59.15.89.35.89.6a3.12,3.12,0,0,0-.22,1.11v.08c.24,1.08.84,1.63,1.78,1.63q2.11,0,4.15-2.53a6.29,6.29,0,0,0,1-3.78q0-4.22-4.23-7.87a9.93,9.93,0,0,0-5.71-2h-.6q-3.69,0-6.9,3.64a4,4,0,0,0-.82,1.85v.22a.65.65,0,0,0,.6.67l.44-.15c.7.2,1,.52,1,1q-.33,1.41-1.26,1.41c-1.48-.31-2.23-1.05-2.23-2.23v-.59c0-2.32,1.73-4.49,5.2-6.53A10.43,10.43,0,0,1,298.27,245.17Z"/><path class="cls-1" d="M319.33,244.87a12.29,12.29,0,0,1,8.83,3.79,14,14,0,0,1,3.93,9.72v.15a11.63,11.63,0,0,1-1.85,6.31,6.51,6.51,0,0,1-5.5,2.89q-3.53,0-4.45-3.93l-.15-1.34v-.74a5,5,0,0,1,2.38-4.3,1.31,1.31,0,0,0,.29-.82v-.3c0-1.11-1-1.75-3-1.93a5.83,5.83,0,0,0-5,3.05,4.75,4.75,0,0,0-.51,2.22,2.65,2.65,0,0,0,2.22,2.9h.22a1.49,1.49,0,0,0,1.49-1.26v-.45c-.11-.79-.41-1.19-.89-1.19-.16.75-.48,1.12-1,1.12H316c-.55-.1-.82-.37-.82-.82v-.22q0-1.19,1.71-1.41,2.13,0,2.82,3.41l.07,1.34q0,4.14-3.41,4.82c-2.13,0-3.49-1.7-4.08-5.12l-.08-1.41v-.07q0-5.31,4.83-8.84a8.39,8.39,0,0,1,4.3-1.41h.82a4.66,4.66,0,0,1,4.75,2.9l.22,1.19c0,1.65-1.19,2.77-3.56,3.34a2.43,2.43,0,0,0-.89,2.22v.37a1.61,1.61,0,0,0,1.85,1.79c1.85,0,3.35-1.09,4.53-3.27a6.89,6.89,0,0,0,.52-2.52q0-4.45-4.23-8.39a9.63,9.63,0,0,0-5.72-2.15q-4.59,0-7.94,4.3A5.66,5.66,0,0,0,311,253a2,2,0,0,0,.6,1.41,1.65,1.65,0,0,1,1.18-.52c.7.16,1,.48,1,1V255c0,.67-.61,1-1.85,1.11a2.9,2.9,0,0,1-2.45-3q0-3.61,4.16-6.53A10.48,10.48,0,0,1,319.33,244.87Z"/><path class="cls-1" d="M339.31,245.17q7.74,0,10.61,7.72a13.79,13.79,0,0,1,.6,4.08v.08a10.82,10.82,0,0,1-5.42,9.87,10.41,10.41,0,0,1-4.08,1,7.25,7.25,0,0,1-7.13-4.45,6.28,6.28,0,0,1-.52-2.45v-.52q0-3.93,3.05-4.68a16,16,0,0,1,3.86-.37h3.48l.08-.52v-.74c0-1.05-.77-1.89-2.3-2.52a2.84,2.84,0,0,0-1.19-.22h-.3c-.95,0-1.5.34-1.63,1s.45,1,1.34,1.19a.66.66,0,0,0,.59-.29v-.08a.83.83,0,0,1-.22-.52v-.15c0-.39.27-.64.81-.74.84,0,1.27.37,1.27,1.11v.23c0,1.05-1,1.72-3,2-2.32-.2-3.61-.52-3.86-1a1.86,1.86,0,0,1-.74-1.56c0-1.57.91-2.64,2.75-3.19l1.33-.15h.23a6.44,6.44,0,0,1,5.64,2.74,6.1,6.1,0,0,1,.81,3v.37c-.09,1.09-.36,1.64-.81,1.64l-.6.07-5.34-.37c-1.49,0-2.45.49-2.9,1.48l-.14.75c0,1.46,1.35,2.42,4.08,2.89a12.1,12.1,0,0,0,2.3.22q5,0,6.53-5l.15-1.41v-.37q0-4.72-4.75-7.43a11.24,11.24,0,0,0-4.6-1,7.9,7.9,0,0,0-6.68,3.27,3.44,3.44,0,0,0-.37,1.41c.14.89.42,1.34.81,1.34l.6-.08c.69.19,1,.51,1,1V254c0,.56-.39.91-1.18,1a2.68,2.68,0,0,1-2.67-2.08,1.8,1.8,0,0,1-.15-.81v-.22q0-2.88,4-5.57A10.54,10.54,0,0,1,339.31,245.17Z"/><path class="cls-1" d="M365.71,249.07h.52a5.76,5.76,0,0,1,5.79,3.78,9.27,9.27,0,0,1,.3,2.16v.14c-.06,1.76-.21,2.68-.45,2.75h-2.3c-2.53,0-4,.27-4.38.82l-.15.66v.15q0,2.87,4.38,3.49l1.27.08a4.83,4.83,0,0,0,4.75-2.83l.14-1a1.2,1.2,0,0,0-1-1.34h-.15c-.11,0-.21.42-.3,1.27a1.25,1.25,0,0,1-.74.37h-.22c-.41,0-.68-.25-.82-.75a14.07,14.07,0,0,1,1.86-6.82,4.84,4.84,0,0,1,3.86-2.23h.44q4.9,0,7.05,6.38a12.29,12.29,0,0,1,.45,2.67q0,7.56-5.94,10.17a5.78,5.78,0,0,1-2.15.52h-.52c-1-.08-1.56-.41-1.56-1v-.3a1.29,1.29,0,0,1,1-1.34h.37c.43,0,.8.38,1.11,1.12l.37.07h.3q1.94,0,3.19-4.3l.22-2.23a9.2,9.2,0,0,0-2.45-6.68,3.42,3.42,0,0,0-2.37-1h-.08a2.79,2.79,0,0,0-3,2.37v.22h.38a3.08,3.08,0,0,1,3.26,2.6l.15,1.34V261q0,4.62-5.71,6.45a17,17,0,0,1-2.9.3,8.25,8.25,0,0,1-7.79-4.45,7.43,7.43,0,0,1-.6-2.38q0-3.57,4.46-4.82l1.56-.15h2.82l.37.07a4.37,4.37,0,0,0,.29-1.55V254a2.92,2.92,0,0,0-1.7-2.6l-1.34-.3c-1.09.14-1.63.61-1.63,1.41v.3c.13.89.58,1.33,1.33,1.33h.45c.54-.12.84-.27.89-.44v-.15l-.67.08a.63.63,0,0,1-.52-.67v-.3c0-.48.35-.75,1-.82s1,.47,1.11,1.41v.15c0,1.29-1.11,2.13-3.33,2.53l-1.71.14c-1.7,0-2.83-.34-3.42-1a3.26,3.26,0,0,1-.66-2.08q0-2.28,2.89-3.57A9.68,9.68,0,0,1,365.71,249.07Z"/><path class="cls-1" d="M374.66,237.79h.89a11.44,11.44,0,0,1,7.86,2.74,6.24,6.24,0,0,1,1.86,4.6q0,3.66-4,4.83a2.4,2.4,0,0,1-1,.15h-.52c-1.58-.16-2.38-.66-2.38-1.49l-.07-.22c.13-.89.58-1.34,1.33-1.34h.3c.69.1,1,.45,1,1a1.4,1.4,0,0,1-.3.75v.07h.08q1.91,0,2.67-2.52v-.3c0-1.92-1.83-3.2-5.49-3.86l-2.08-.15a12.67,12.67,0,0,0-5.86,1.34,3.13,3.13,0,0,0-1.34,2.37v.08a2.54,2.54,0,0,0,1.93,2.52l-.15-.45v-.14c0-.62.37-1,1.11-1h.15q1.26,0,1.26,1.56a1.68,1.68,0,0,1-1.85,1.33h-.37c-2,0-3.58-1.06-4.75-3.19a6.71,6.71,0,0,1-.37-1.86q0-4.1,5.19-6.08A17.21,17.21,0,0,1,374.66,237.79Z"/><path class="cls-1" d="M404.29,249.62a4.13,4.13,0,0,1,4.08,2.82l.15,1.34a2.66,2.66,0,0,1-2.15,2.6l-1.12.15H405c-1.91,0-3.25-.55-4-1.64l-.22-1.11c.12-.94.56-1.41,1.33-1.41.45,0,.74.35.89,1a.94.94,0,0,1-.37.74h-.81v.08c0,.19.32.37,1,.52.73,0,1.17-.47,1.34-1.41,0-1.09-.45-1.64-1.34-1.64q-2.37,0-3.41,3.05l-.08.74v.29c0,.55.08.82.22.82H404a3.88,3.88,0,0,1,4,3,8.67,8.67,0,0,1,.22,1.86v.22a5.8,5.8,0,0,1-4.15,5.87,7.66,7.66,0,0,1-2,.22,4.59,4.59,0,0,1-4.15-1.93c-.82,1.33-2.3,2-4.46,2q-4.24,0-5.79-4.38l-.14-1.26a5.7,5.7,0,0,1,1.63-3.78h-2.23c-.15,0-.22-.2-.22-.45V256.9l.15-.15,8.09-.07h1.19l.14-1.19a4.39,4.39,0,0,0-1.93-3.27,4.11,4.11,0,0,0-1.63-.44q-1.71.1-1.71,1.56c0,.87.52,1.37,1.56,1.48a1.48,1.48,0,0,0,1.19-.52v-.07h-.67c-.39,0-.59-.28-.59-.82s.41-.89.81-.89h.3q.86,0,1.11,1.41c0,1.15-.74,2-2.22,2.45a5.6,5.6,0,0,1-1.56.22h-.15c-2.07,0-3.33-.44-3.78-1.33a3.38,3.38,0,0,1-.45-1.64c0-1.62.91-2.83,2.75-3.63a5.07,5.07,0,0,1,1.33-.23h.89a6.17,6.17,0,0,1,5,2.82,8,8,0,0,1,1.18,4.31l-.07,1.48c0,.21-1.81.34-5.42.37a3,3,0,0,0-2.82,1.56l-.07.37v.3c0,1.08,1.21,1.79,3.63,2.15h.23a4.5,4.5,0,0,0,3.56-1.41v-.22l-.15-.59c0-.46.32-.73,1-.82h.22a1.21,1.21,0,0,1,1,.52,2.4,2.4,0,0,1-.15,1,3.73,3.73,0,0,0,3.41,1.49h.45c2.09,0,3.32-.82,3.71-2.45v-.3a1.75,1.75,0,0,0-1.34-1.63l-1.26-.22-3.86.07c-1.29,0-1.93-.07-1.93-.22v-1.86a6.22,6.22,0,0,1,4.23-6.38A6.54,6.54,0,0,1,404.29,249.62Z"/><path class="cls-1" d="M404.53,237.66h.59c1.74,0,3,1.11,3.86,3.34l.15,1.56a3.78,3.78,0,0,1-2.75,3.85,1.77,1.77,0,0,1-.81.15h-.15a2.65,2.65,0,0,1-2.82-1.93V244c.16-1.29.68-1.93,1.56-1.93h.22c.62,0,1,.49,1.19,1.48-.19.6-.48.89-.89.89h-.3a1.44,1.44,0,0,1-.89-.37l-.15.15v.37c0,.25.42.47,1.26.67h.45c.58,0,.93-.54,1-1.63-.21-1.53-.83-2.3-1.86-2.3-1.28,0-1.93.77-1.93,2.3V244l.45,7.27q.15,0,.15.75h-1.27c-.14,0-.22-.52-.22-1.56l.08-4.46a7.75,7.75,0,0,0-.75-3.93,3.6,3.6,0,0,0-1.63-.52,1.82,1.82,0,0,1-.52-1c0-.72.47-1.16,1.41-1.33.71,0,1.15.47,1.34,1.41h.07c0-1.28.82-2.24,2.45-2.9Z"/><path class="cls-1" d="M436,248.4q2.25,0,2.89,3.41V252c0,1.31-.81,2.3-2.45,3-.74.38-1.11.82-1.11,1.33h.07a1.8,1.8,0,0,1,.89-.44h.15c.46,0,.73.32.82,1v.08c0,.54-.4.86-1.19,1h-.22c-1-.15-1.48-.64-1.48-1.48s.61-1.6,1.85-2.53a.9.9,0,0,0,.3-.59V253c0-.16-.25-.31-.74-.44-.8,0-1.34.57-1.64,1.7l.08,2.16v.52c0,1.73-.13,4.08-.37,7.05q2.82-.63,2.82-2.82v-.45h-.08l-1,.15h-.07c-.69-.17-1-.47-1-.89v-.15c0-.54.42-.89,1.26-1h.22c1.18,0,1.92,1,2.23,3v.07q0,3-3.56,4.75c-.74.26-1.12.51-1.12.75-.24,2.44-.37,4.37-.37,5.78,0,1.79.45,2.68,1.34,2.68l.74-.23v-.29l-.89.15c-.33,0-.56-.28-.67-.82v-.15c0-.46.33-.73,1-.82h.29a1.66,1.66,0,0,1,1.34,1.86,2.75,2.75,0,0,1-1.34,2.08,3.41,3.41,0,0,1-1.92.52c-1.66,0-2.73-.6-3.2-1.78a2,2,0,0,1-.14-.82,28.15,28.15,0,0,1,1.92-5.57,14.74,14.74,0,0,0,.45-2.52,12.58,12.58,0,0,1-3,.3h-.08q-6.44,0-9.42-4a5.23,5.23,0,0,1-.89-3,4.84,4.84,0,0,1,2.74-4.45,7.08,7.08,0,0,1,2.67-.75v-.07c-2.49,0-3.93-.47-4.3-1.41a3.19,3.19,0,0,1-.3-1.26q0-2.33,2.67-3.27a8.36,8.36,0,0,1,2.38-.37h.3a8.89,8.89,0,0,1,6,2.15l-.08-.52v-.22a1.13,1.13,0,0,1,1-1.19h.22c.61,0,1,.4,1.26,1.19l.08.37h.07c.34-1.68,1.18-2.52,2.53-2.52ZM431.54,252h-.14l-.08-.07h-.07V252a7,7,0,0,1,1,3.64v.3a1.51,1.51,0,0,1-.44,1.26,12.11,12.11,0,0,0-4.23-.67h-.08q-3.78,0-4.9,1.93l-.14.82q0,2.19,4.45,4.15a13.12,13.12,0,0,0,4.6.82l1.11-.08v-.07a61,61,0,0,0,.6-7.12v-1.27c0-2-.35-3.27-1-3.93Zm-7.57.6a1.74,1.74,0,0,0,1.79,1l.81-.23v-.15a.81.81,0,0,1-.22-.52v-.29a1,1,0,0,1,.82-.6h.59a1.24,1.24,0,0,1,.67,1.27q0,1.75-4,2.3h-.3v.07h.15l2.08-.15a32.63,32.63,0,0,1,4.6.45L431,255c0-1.7-1.17-2.94-3.49-3.72l-.6-.07C425,251.22,424,251.67,424,252.56Z"/><path class="cls-1" d="M446.09,249.62a8.28,8.28,0,0,1,6.09,2.6,10.17,10.17,0,0,1,5.56-1.78q4.58,0,7.05,5.42a12.89,12.89,0,0,1,.6,3.56,12.07,12.07,0,0,1-3.49,8.76,8.86,8.86,0,0,1-5,1.93c-1.13,0-1.7-.45-1.7-1.34s.52-1.41,1.11-1.41,1.05.37,1.26,1.12c.06.19.29.29.67.29h.07q1.41,0,2.82-3.34a8.42,8.42,0,0,0,.6-3.26v-.23a8.44,8.44,0,0,0-4.08-7.27,5.17,5.17,0,0,0-2.45-.74h-.82a5.27,5.27,0,0,0-1.56.3l.15.14h.3q3.82,0,5.86,4a6.81,6.81,0,0,1,.59,2.75q0,5.24-6.9,6.68l-1.48.07q-5.46,0-6.76-3.78a1.53,1.53,0,0,0-.59-.75h-.37c-.68,0-1.15.65-1.41,1.93l-.6.23h-.14c-.65-.08-1-.37-1-.89q0-1.23,7.5-8.76l2.82-2.6a3.68,3.68,0,0,0-3.34-2.15h-.3c-2.18.18-3.26.9-3.26,2.15v.08c0,.89.61,1.41,1.85,1.55.79-.18,1.19-.5,1.19-1l-.08.07h-.29c-.65-.06-1-.38-1-1s.4-1,1.19-1.11c.94.19,1.41.59,1.41,1.18v.6c0,2-1.51,3.39-4.53,4l-1.11.08c-2.18-.53-3.27-1.6-3.27-3.19,0-1.9,1.22-3.38,3.64-4.46A12.09,12.09,0,0,1,446.09,249.62Zm-1.85,12.1h.14a11.78,11.78,0,0,1,2.23-.81c.61,0,1.37.59,2.3,1.78a4.08,4.08,0,0,0,1.86.59h.52q2.63,0,4.82-2.82a8.87,8.87,0,0,0,.37-2.15,2.57,2.57,0,0,0-1.78-2.67,3.56,3.56,0,0,0-1.33-.23l-2,.23-.07-.08v-.67h-.08A23.21,23.21,0,0,0,444.24,261.72Z"/><path class="cls-1" d="M454.22,237.79h.89a11.47,11.47,0,0,1,7.87,2.74,6.27,6.27,0,0,1,1.85,4.6c0,2.44-1.33,4.05-4,4.83a2.4,2.4,0,0,1-1,.15h-.52c-1.58-.16-2.38-.66-2.38-1.49l-.07-.22c.14-.89.58-1.34,1.34-1.34h.29c.7.1,1,.45,1,1a1.46,1.46,0,0,1-.29.75v.07h.07q1.92,0,2.67-2.52v-.3c0-1.92-1.83-3.2-5.49-3.86l-2.08-.15a12.7,12.7,0,0,0-5.86,1.34,3.13,3.13,0,0,0-1.34,2.37v.08a2.55,2.55,0,0,0,1.93,2.52L449,248v-.14c0-.62.37-1,1.12-1h.15q1.26,0,1.26,1.56a1.69,1.69,0,0,1-1.86,1.33h-.37q-3,0-4.75-3.19a6.71,6.71,0,0,1-.37-1.86q0-4.1,5.19-6.08A17.21,17.21,0,0,1,454.22,237.79Z"/><path class="cls-1" d="M471.09,249.35A6.91,6.91,0,0,1,476.8,252a8.57,8.57,0,0,1,5.42-2.23h.59q4.37,0,7.05,5.12a11.88,11.88,0,0,1-2.37,12.69,9.22,9.22,0,0,1-5.2,2.08c-1.09,0-1.63-.37-1.63-1.11v-.37c.12-.79.49-1.19,1.11-1.19s1.12.43,1.12,1a.6.6,0,0,0,.52.3h.22q1.8,0,3.26-4.31a7.7,7.7,0,0,0,.23-1.78v-.15a9,9,0,0,0-4.08-7.64,5.75,5.75,0,0,0-3.2-1,6.52,6.52,0,0,0-2.07.37v.45h.66q4.67,0,6.31,4.75l.15,1.41V261q0,4.58-6.68,6.53l-2.75.3q-5.91,0-8.53-4.75a6.93,6.93,0,0,1-.67-3.19c0-1.24.17-1.86.52-1.86H467a.48.48,0,0,1,.52.3v.59c0,.64.62,1,1.86,1h.15q3.41,0,5.93-6.24l.38-.44c-.85-1.59-1.93-2.38-3.27-2.38h-.52a3.09,3.09,0,0,0-3,2.08l-.08.52c0,.62.42,1,1.27,1.11h.29a2,2,0,0,0,1.64-.67v-.07h-.6c-.41,0-.68-.3-.82-.89v-.08c0-.5.38-.8,1.12-.89h.52q1,0,1,1.41v.38q0,2.55-3.19,3.63l-2.08.3a3.37,3.37,0,0,1-3.34-2.52l-.07-1q0-3.31,4.82-4.68Zm5.27,5.93a14.79,14.79,0,0,1-3.64,5,4.84,4.84,0,0,1-2.38.74h-.74a3.16,3.16,0,0,1-1.19-.15v.07a5.1,5.1,0,0,0,4.83,2.68h.81a8,8,0,0,0,6.16-3.05,3.89,3.89,0,0,0,.9-2.3c-.2-1.63-1-2.45-2.45-2.45l-.52-.07-1.64.22-.07-.67Z"/><path class="cls-1" d="M486.84,237.66h.59q2.6,0,3.86,3.34l.15,1.56a3.78,3.78,0,0,1-2.75,3.85,1.8,1.8,0,0,1-.81.15h-.15a2.65,2.65,0,0,1-2.82-1.93V244c.16-1.29.68-1.93,1.56-1.93h.22c.62,0,1,.49,1.19,1.48-.19.6-.49.89-.89.89h-.3a1.44,1.44,0,0,1-.89-.37l-.15.15v.37c0,.25.42.47,1.26.67h.45c.58,0,.93-.54,1-1.63-.21-1.53-.83-2.3-1.86-2.3-1.28,0-1.93.77-1.93,2.3V244l.45,7.27q.15,0,.15.75h-1.27c-.15,0-.22-.52-.22-1.56l.07-4.46a7.77,7.77,0,0,0-.74-3.93,3.65,3.65,0,0,0-1.63-.52,1.82,1.82,0,0,1-.52-1c0-.72.47-1.16,1.41-1.33.71,0,1.15.47,1.34,1.41h.07c0-1.28.82-2.24,2.45-2.9Z"/><path class="cls-1" d="M517.94,249.77h.44a3.94,3.94,0,0,1,3.86,2.82l.15,1.26c0,1.58-1,2.49-3,2.75h-.82a5,5,0,0,1-3.64-1.33,2.49,2.49,0,0,1-.37-1.34v-.15a1.23,1.23,0,0,1,1.11-1.26h.3c.46,0,.73.35.82,1-.06.49-.29.74-.67.74h-.22l-.08-.07-.22.07a1,1,0,0,0,1,.52c.89-.14,1.33-.56,1.33-1.26v-.15c0-1.09-.44-1.63-1.33-1.63-1.41,0-2.53.89-3.34,2.67a4.45,4.45,0,0,0-.23,1.26l.15,1h4.08c2.32,0,3.78.76,4.38,2.3a6,6,0,0,1,.52,2.59v.37a5.77,5.77,0,0,1-3.71,5.57,5,5,0,0,1-2.08.37h-.52a4.52,4.52,0,0,1-4.15-1.93c0,.51-.72,1.05-2.16,1.64a7.89,7.89,0,0,1-2.07.29h-.67q-3.37,0-5-3.93a9.45,9.45,0,0,1-.89-4.08,8.06,8.06,0,0,1,2.82-6.09,5.34,5.34,0,0,1,3.19-1.26h.74a3.76,3.76,0,0,1,3.49,2.37,4.3,4.3,0,0,1,.29,1.71v.3a2.52,2.52,0,0,1-1.55,2.45,3.93,3.93,0,0,1-1.19.22c-1.08,0-1.7-.69-1.86-2.08,0-.52.33-.81,1-.89h.07c.58,0,.93.45,1,1.34l-.3.74.38.07h.22c.49-.1.74-.34.74-.74-.25-1.38-.94-2.08-2.08-2.08l-.3-.07a5.05,5.05,0,0,0-4.52,2.89,4.68,4.68,0,0,0-.37,1.71c0,1.19.76,2,2.3,2.52a8.72,8.72,0,0,0,1.85.23H507a4.76,4.76,0,0,0,3.42-1.27l.07-.29-.15-.67c0-.48.37-.75,1.11-.82s1.06.25,1.19.75l-.15.81a4,4,0,0,0,3.57,1.49q3.53,0,4-2.45l.08-.3c0-1-.77-1.66-2.3-1.86h-5.35c-.59,0-.89-.17-.89-.51v-1.34q0-4.92,4.16-6.53A5.88,5.88,0,0,1,517.94,249.77Z"/><path class="cls-1" d="M529.55,245.17q7.74,0,10.61,7.72a13.79,13.79,0,0,1,.6,4.08v.08a10.82,10.82,0,0,1-5.42,9.87,10.37,10.37,0,0,1-4.08,1,7.25,7.25,0,0,1-7.13-4.45,6.46,6.46,0,0,1-.52-2.45v-.52q0-3.93,3-4.68a16,16,0,0,1,3.86-.37H534l.08-.52v-.74c0-1.05-.77-1.89-2.3-2.52a2.81,2.81,0,0,0-1.19-.22h-.3c-.95,0-1.49.34-1.63,1s.45,1,1.34,1.19a.65.65,0,0,0,.59-.29v-.08a.83.83,0,0,1-.22-.52v-.15c0-.39.27-.64.81-.74.85,0,1.27.37,1.27,1.11v.23c0,1.05-1,1.72-3.05,2-2.32-.2-3.61-.52-3.86-1a1.86,1.86,0,0,1-.74-1.56c0-1.57.92-2.64,2.75-3.19l1.33-.15h.23a6.44,6.44,0,0,1,5.64,2.74,6.1,6.1,0,0,1,.81,3v.37c-.08,1.09-.36,1.64-.81,1.64l-.6.07-5.34-.37c-1.49,0-2.45.49-2.9,1.48l-.14.75q0,2.19,4.08,2.89a12.1,12.1,0,0,0,2.3.22c3.33,0,5.5-1.68,6.53-5l.15-1.41v-.37q0-4.72-4.75-7.43a11.24,11.24,0,0,0-4.6-1,7.9,7.9,0,0,0-6.68,3.27,3.44,3.44,0,0,0-.37,1.41c.14.89.42,1.34.81,1.34l.6-.08c.69.19,1,.51,1,1V254c0,.56-.4.91-1.19,1A2.68,2.68,0,0,1,521,253a1.8,1.8,0,0,1-.15-.81v-.22c0-1.92,1.33-3.78,4-5.57A10.47,10.47,0,0,1,529.55,245.17Z"/><path class="cls-1" d="M546.46,249.35a6.91,6.91,0,0,1,5.71,2.67,8.57,8.57,0,0,1,5.42-2.23h.59q4.37,0,7.05,5.12a11.88,11.88,0,0,1-2.37,12.69,9.22,9.22,0,0,1-5.2,2.08c-1.09,0-1.63-.37-1.63-1.11v-.37c.12-.79.49-1.19,1.11-1.19s1.12.43,1.12,1a.59.59,0,0,0,.52.3H559q1.8,0,3.26-4.31a7.7,7.7,0,0,0,.23-1.78v-.15a9,9,0,0,0-4.09-7.64,5.69,5.69,0,0,0-3.19-1,6.57,6.57,0,0,0-2.08.37v.45h.67q4.66,0,6.31,4.75l.15,1.41V261q0,4.58-6.68,6.53l-2.75.3q-5.91,0-8.53-4.75a6.93,6.93,0,0,1-.67-3.19c0-1.24.17-1.86.52-1.86h.22a.49.49,0,0,1,.52.3v.59c0,.64.62,1,1.86,1h.15q3.4,0,5.93-6.24l.38-.44c-.85-1.59-1.93-2.38-3.27-2.38h-.52a3.08,3.08,0,0,0-3,2.08l-.08.52q0,.93,1.26,1.11h.3a2,2,0,0,0,1.63-.67v-.07h-.59c-.41,0-.68-.3-.82-.89v-.08c0-.5.38-.8,1.12-.89h.52q1,0,1,1.41v.38q0,2.55-3.19,3.63l-2.08.3a3.37,3.37,0,0,1-3.34-2.52l-.07-1q0-3.31,4.82-4.68Zm5.26,5.93a14.65,14.65,0,0,1-3.63,5,4.87,4.87,0,0,1-2.38.74H545a3.16,3.16,0,0,1-1.19-.15v.07a5.1,5.1,0,0,0,4.83,2.68h.81a8,8,0,0,0,6.16-3.05,3.87,3.87,0,0,0,.89-2.3c-.19-1.63-1-2.45-2.44-2.45l-.52-.07-1.64.22-.07-.67Z"/><path class="cls-1" d="M562.21,237.66h.59q2.6,0,3.86,3.34l.15,1.56a3.79,3.79,0,0,1-2.75,3.85,1.8,1.8,0,0,1-.81.15h-.15a2.65,2.65,0,0,1-2.82-1.93V244c.16-1.29.68-1.93,1.56-1.93h.22c.62,0,1,.49,1.19,1.48-.19.6-.49.89-.89.89h-.3a1.44,1.44,0,0,1-.89-.37l-.15.15v.37c0,.25.42.47,1.26.67h.45c.58,0,.92-.54,1-1.63-.21-1.53-.83-2.3-1.86-2.3-1.28,0-1.93.77-1.93,2.3V244l.45,7.27c.1,0,.14.25.14.75h-1.26c-.15,0-.22-.52-.22-1.56l.07-4.46a7.77,7.77,0,0,0-.74-3.93,3.65,3.65,0,0,0-1.63-.52,1.82,1.82,0,0,1-.52-1c0-.72.47-1.16,1.41-1.33.7,0,1.15.47,1.34,1.41h.07c0-1.28.82-2.24,2.45-2.9Z"/><path class="cls-1" d="M575.64,250.07a9.87,9.87,0,0,1,8,4.16,11.74,11.74,0,0,1,2,6.53v.15c-.1,3.39-1.38,5.61-3.86,6.68l-1.11.14q-1.41,0-1.41-1.26c0-.52.39-.86,1.18-1h.08c.54.1.82.35.82.75q2.82-1,2.82-5.2a9.71,9.71,0,0,0-3.72-7.79,8.91,8.91,0,0,0-5.19-1.78,7.4,7.4,0,0,0-5.57,2.74,6.68,6.68,0,0,0-1.33,4q0,3.82,3.93,5l1,.15h1q4.11,0,5.05-3l.08-.82c0-1.54-1.19-2.61-3.57-3.19l-1.26-.15h-.74a2.88,2.88,0,0,0-3.19,2.3v.22c.15.7.79,1,1.93,1s1.56-.24,1.56-.74c-.18-.49-.45-.74-.82-.74H573c0,.54-.27.82-.66.82h-.08c-.49-.08-.74-.3-.74-.67v-.08c0-.69.82-1.08,2.45-1.18h.37q3.71.34,3.71,2.45c0,1.27-1.31,2.09-3.93,2.44h-.6a3.72,3.72,0,0,1-3.71-2.52,1.85,1.85,0,0,1-.15-.82v-.44c0-1.39.84-2.38,2.53-3a8.56,8.56,0,0,1,2.22-.37,7.77,7.77,0,0,1,5.64,2.37,6.4,6.4,0,0,1,1.27,3.86,6.61,6.61,0,0,1-4.09,6.24,6.79,6.79,0,0,1-2.89.59q-4.95,0-7.13-5.56a11.76,11.76,0,0,1-.44-3.05v-.22a8.76,8.76,0,0,1,4.67-8.09A9.64,9.64,0,0,1,575.64,250.07Z"/><path class="cls-1" d="M591.17,249.35a6.92,6.92,0,0,1,5.72,2.67,8.57,8.57,0,0,1,5.41-2.23h.6q4.35,0,7.05,5.12a11.86,11.86,0,0,1-2.38,12.69,9.22,9.22,0,0,1-5.19,2.08c-1.09,0-1.63-.37-1.63-1.11v-.37c.12-.79.49-1.19,1.11-1.19s1.11.43,1.11,1a.61.61,0,0,0,.52.3h.22q1.8,0,3.27-4.31a7.66,7.66,0,0,0,.22-1.78v-.15a9,9,0,0,0-4.08-7.64,5.69,5.69,0,0,0-3.19-1,6.57,6.57,0,0,0-2.08.37v.45h.67c3.1,0,5.21,1.58,6.31,4.75l.15,1.41V261q0,4.58-6.68,6.53l-2.75.3q-5.92,0-8.53-4.75a6.93,6.93,0,0,1-.67-3.19c0-1.24.17-1.86.52-1.86h.22a.49.49,0,0,1,.52.3v.59c0,.64.62,1,1.85,1h.15q3.42,0,5.94-6.24l.37-.44c-.84-1.59-1.93-2.38-3.26-2.38h-.52a3.1,3.1,0,0,0-3,2.08l-.07.52q0,.93,1.26,1.11h.3a2,2,0,0,0,1.63-.67v-.07h-.59c-.41,0-.68-.3-.82-.89v-.08c0-.5.37-.8,1.11-.89h.52c.65,0,1,.47,1,1.41v.38c0,1.7-1.07,2.91-3.19,3.63l-2.08.3a3.37,3.37,0,0,1-3.34-2.52l-.08-1q0-3.31,4.83-4.68Zm5.27,5.93a14.79,14.79,0,0,1-3.64,5,4.81,4.81,0,0,1-2.37.74h-.74a3.16,3.16,0,0,1-1.19-.15v.07a5.09,5.09,0,0,0,4.82,2.68h.82a8,8,0,0,0,6.16-3.05,3.93,3.93,0,0,0,.89-2.3c-.2-1.63-1-2.45-2.45-2.45l-.52-.07-1.63.22-.07-.67Z"/><path class="cls-1" d="M606.92,237.66h.6q2.6,0,3.86,3.34l.15,1.56a3.79,3.79,0,0,1-2.75,3.85,1.85,1.85,0,0,1-.82.15h-.15a2.65,2.65,0,0,1-2.82-1.93V244c.17-1.29.69-1.93,1.56-1.93h.23c.61,0,1,.49,1.18,1.48-.18.6-.48.89-.89.89h-.29a1.46,1.46,0,0,1-.9-.37l-.14.15v.37c0,.25.42.47,1.26.67h.44c.59,0,.93-.54,1-1.63-.21-1.53-.83-2.3-1.85-2.3-1.29,0-1.93.77-1.93,2.3V244l.44,7.27q.15,0,.15.75H604c-.15,0-.22-.52-.22-1.56l.07-4.46a7.88,7.88,0,0,0-.74-3.93,3.7,3.7,0,0,0-1.63-.52,1.76,1.76,0,0,1-.52-1c0-.72.47-1.16,1.41-1.33.7,0,1.15.47,1.33,1.41h.08c0-1.28.81-2.24,2.45-2.9Z"/><path class="cls-1" d="M625.92,249.35a6.92,6.92,0,0,1,5.72,2.67,8.57,8.57,0,0,1,5.42-2.23h.59q4.36,0,7.05,5.12a11.88,11.88,0,0,1-2.37,12.69,9.25,9.25,0,0,1-5.2,2.08c-1.09,0-1.63-.37-1.63-1.11v-.37c.12-.79.49-1.19,1.11-1.19s1.11.43,1.11,1a.61.61,0,0,0,.52.3h.23c1.2,0,2.28-1.44,3.26-4.31a7.7,7.7,0,0,0,.23-1.78v-.15a9,9,0,0,0-4.09-7.64,5.69,5.69,0,0,0-3.19-1,6.57,6.57,0,0,0-2.08.37v.45h.67q4.66,0,6.31,4.75l.15,1.41V261q0,4.58-6.68,6.53l-2.75.3q-5.91,0-8.53-4.75a6.93,6.93,0,0,1-.67-3.19c0-1.24.17-1.86.52-1.86h.22a.49.49,0,0,1,.52.3v.59c0,.64.62,1,1.86,1h.15q3.4,0,5.93-6.24l.37-.44c-.84-1.59-1.93-2.38-3.26-2.38h-.52a3.08,3.08,0,0,0-3,2.08l-.08.52q0,.93,1.26,1.11h.3a2,2,0,0,0,1.63-.67v-.07h-.59c-.41,0-.68-.3-.82-.89v-.08c0-.5.37-.8,1.12-.89h.52q1,0,1,1.41v.38q0,2.55-3.19,3.63l-2.08.3a3.37,3.37,0,0,1-3.34-2.52l-.07-1c0-2.21,1.6-3.77,4.82-4.68Zm5.27,5.93a14.65,14.65,0,0,1-3.63,5,4.87,4.87,0,0,1-2.38.74h-.74a3.16,3.16,0,0,1-1.19-.15v.07a5.1,5.1,0,0,0,4.83,2.68h.81a8,8,0,0,0,6.16-3.05,3.87,3.87,0,0,0,.89-2.3c-.19-1.63-1-2.45-2.45-2.45l-.52-.07-1.63.22-.07-.67Z"/><path class="cls-1" d="M646.71,255h7.42q.81.15.81.75t-3,3.86q-2.52,3.31-2.52,6c.21,2.08,1.1,3.11,2.67,3.11a2.85,2.85,0,0,0,2.6-1.55l.07-.6c-.18-1-.58-1.56-1.19-1.56a2.42,2.42,0,0,1,.3,1.19v.15c0,.7-.45,1.13-1.34,1.26s-1.63-.64-1.78-1.93c0-1,.77-1.56,2.3-1.78h.23c1.59,0,2.71,1,3.34,2.89l.14,1.19c0,2.17-1.13,3.63-3.41,4.38l-1.34.15h-.44a4.79,4.79,0,0,1-4.9-3.71l-.15-1.49c0-3.12,1.68-6.32,5-9.57h-.15l-4.53.15q-.66-.23-.66-1.26v-.45C646.26,255.42,646.43,255,646.71,255Z"/><path class="cls-1" d="M660.73,249.07h.52a5.76,5.76,0,0,1,5.79,3.78,9.27,9.27,0,0,1,.3,2.16v.14c-.06,1.76-.21,2.68-.45,2.75h-2.3c-2.53,0-4,.27-4.38.82l-.15.66v.15q0,2.87,4.38,3.49l1.27.08a4.83,4.83,0,0,0,4.75-2.83l.14-1a1.2,1.2,0,0,0-1-1.34h-.15c-.11,0-.21.42-.3,1.27a1.25,1.25,0,0,1-.74.37h-.22c-.41,0-.68-.25-.82-.75a14.07,14.07,0,0,1,1.86-6.82,4.84,4.84,0,0,1,3.86-2.23h.44q4.9,0,7,6.38a12.29,12.29,0,0,1,.45,2.67q0,7.56-5.94,10.17a5.78,5.78,0,0,1-2.15.52h-.52c-1-.08-1.56-.41-1.56-1v-.3a1.29,1.29,0,0,1,1-1.34h.37c.43,0,.8.38,1.11,1.12l.37.07h.3c1.28,0,2.35-1.43,3.19-4.3l.22-2.23a9.2,9.2,0,0,0-2.45-6.68,3.42,3.42,0,0,0-2.37-1h-.08a2.78,2.78,0,0,0-3,2.37v.22h.38a3.08,3.08,0,0,1,3.26,2.6l.15,1.34V261q0,4.62-5.72,6.45a16.86,16.86,0,0,1-2.89.3,8.25,8.25,0,0,1-7.79-4.45,7.43,7.43,0,0,1-.6-2.38q0-3.57,4.46-4.82l1.56-.15h2.82l.37.07a4.6,4.6,0,0,0,.29-1.55V254a2.94,2.94,0,0,0-1.7-2.6l-1.34-.3c-1.09.14-1.63.61-1.63,1.41v.3c.13.89.58,1.33,1.33,1.33H663c.54-.12.84-.27.89-.44v-.15l-.67.08a.63.63,0,0,1-.52-.67v-.3c0-.48.35-.75,1-.82s1,.47,1.11,1.41v.15c0,1.29-1.11,2.13-3.34,2.53l-1.7.14c-1.7,0-2.84-.34-3.42-1a3.26,3.26,0,0,1-.66-2.08q0-2.28,2.89-3.57A9.68,9.68,0,0,1,660.73,249.07Z"/><path class="cls-1" d="M682,255h7.42q.81.15.81.75t-3,3.86q-2.52,3.31-2.52,6c.21,2.08,1.1,3.11,2.67,3.11a2.85,2.85,0,0,0,2.6-1.55l.07-.6c-.18-1-.58-1.56-1.19-1.56a2.42,2.42,0,0,1,.3,1.19v.15c0,.7-.44,1.13-1.33,1.26s-1.64-.64-1.79-1.93c0-1,.77-1.56,2.3-1.78h.23c1.59,0,2.71,1,3.34,2.89L692,268q0,3.25-3.42,4.38l-1.33.15h-.45a4.8,4.8,0,0,1-4.9-3.71l-.15-1.49c0-3.12,1.69-6.32,5.05-9.57h-.15l-4.53.15q-.66-.23-.66-1.26v-.45C681.55,255.42,681.72,255,682,255Z"/><path class="cls-1" d="M693.65,262.84c1.58.22,2.37,1,2.37,2.44v.23c-.29,1.58-1.09,2.37-2.37,2.37h-.3a2.41,2.41,0,0,1-2.3-1.85l-.07-.89c0-1.3.86-2.07,2.59-2.3Z"/><g id="muttiya_his"><path class="cls-2" d="M148.15,58.6c43.27,3.6,70.77-3.36,70.46-48.09,45.45,34.28,101.08,34.3,116.66-4.35C358.22,45.39,411,41.86,454.36,0c-1.67,42.1,6.11,64.47,77.27,38.9-17.17,31.43-35.84,48.69,53.85,60.86-62.38,11.45-69.72,34.52-50.15,59.58-46.72-10.59-71.51,1.71-78,48.48-37.83-30.19-89.81-16-112.84,27.28-22.69-41-74.19-49.85-121.22-6.47,7.37-36.82-31.61-52.26-95.95-29.55,10.67-34.32,2.07-48-33.92-58.3,61.83-14.51,72.25-40.8,54.79-82.18Z"/><path class="cls-1" d="M199.52,31.9h4.79q9.13,0,15.76,10.28,4.11,7.76,4.11,13.7v7.54q0,12.49-10.73,22.38-7.55,4.78-9.36,4.79a4.9,4.9,0,0,1-2.75-4.79,59.85,59.85,0,0,1,1.83-8.91h-.45Q192,89.51,185.59,93.56h-.46l-.68-3v-.23L196.78,78q-4.23,0-5.94-4.57c-.53,0-1.07-3.12-1.6-9.36q.63-10.5,4.11-12.33,1.54,0,5.71,4.57l.91-.23q3.43,0,3.43,4.34c.27.61,1.33.91,3.2.91q7.53,0,7.53-2.28l.92-.69h1.14a1.51,1.51,0,0,1,1.6.92V60q0,1.89-6.4,7.31-5.25,8.85-5.25,13v1.15A2.73,2.73,0,0,0,208,84.2h1.37q5.53-4.74,7.08-9.37a44,44,0,0,0,2.74-14.38q-1.14-9.2-3.88-14.39l-.69-.68a17.52,17.52,0,0,1-9.13,3q-7.43,0-13.71-6.16-3.58-4.05-4.11-7.08A25.37,25.37,0,0,1,199.52,31.9Zm-5.94,5.71v.23a12.42,12.42,0,0,0,5,3.88,20.62,20.62,0,0,0,7.77,1.83,10.14,10.14,0,0,0,5.71-1.83q-4.11-4.8-12.56-4.79A28.79,28.79,0,0,0,193.58,37.61Zm3,21.24a35.45,35.45,0,0,0-1.83,9.59c.27,2.85.72,4.3,1.37,4.34,1.52,0,2.44-2.06,2.74-6.17A15.85,15.85,0,0,0,196.55,58.85ZM203.4,65V71a22.2,22.2,0,0,0,3.65-4.11L203.63,65Z"/><path class="cls-1" d="M219,16.66l.22.23L219,19.17v1.14a2.24,2.24,0,0,0,.68,1.83,14.08,14.08,0,0,1,5-.69h.92q6.16.47,6.16,4.8V31q0,8.24-11.87,11.19L220.13,53l-.23.23h-4.34l-.46-.46v-.46l1.15-10.05V42q-13.77,0-22.16-8Q190,28.66,190,23.74l4.57-2.51h.23c.23,0,.68,1.86,1.37,5.48a19.1,19.1,0,0,0,11,10.5,24.13,24.13,0,0,0,8.22,2.06l.23-.69L214.19,18A11.5,11.5,0,0,1,219,16.66Zm.45,9.13.23,9.14v2.28l.46.46q6.39-2.74,6.39-9.82c0-1.49-1.22-2.32-3.65-2.51Z"/><path class="cls-1" d="M257.24,32.47h4.11q8.16,0,15.07,7.77,3.88,6,3.88,11.41V61.7q0,9.76-6.39,23.07-3.54,5.7-8.91,5.71-7.94,0-11.65-11l-.45-3.19V75.4q1.08-6.68,9.59-14.15,7.18-5,9.36-5A2.67,2.67,0,0,1,273.68,59Q271.91,66.9,262,78.83l-2.28,1.6v.45q4.62,4.58,7.08,4.57,4.34-2.79,6.85-11.87a59.36,59.36,0,0,0,1.14-10q0-19-10.05-24.43a28.14,28.14,0,0,0-8.45-1.83q-7.19,0-15.3,5.25c-.38,0-1.06-.61-2.05-1.83q1.2-2.85,11.19-6.62A22.61,22.61,0,0,1,257.24,32.47Zm-.92,44.3c.31.69.61,1.07.92,1.15a37.36,37.36,0,0,0,8.9-10.51q2.75-5.25,2.74-6.39Q256.33,68.44,256.32,76.77Z"/><path class="cls-1" d="M272.08,84.14c2,0,3,.23,3,.68V95.1l-.23,10.28a30.91,30.91,0,0,0-6.62,4.11h-.46q-.35-.06-2.28-5.48-6.16-11-17.13-11-10,0-20.1,8.45l-1.59-3.65q13.41-9.14,23.06-9.13H252q10.28,0,16.45,10h.45l.23-1.14-.23-13.24.23-.23Z"/><path class="cls-1" d="M292.52,29.39h4.34q8.56,0,15.3,10.5A18.55,18.55,0,0,1,314,46.75v5c0,.8-.23,1.25-.68,1.37q-4.33-3.2-4.34-4.8,0-7.59-7.31-13.93a15.82,15.82,0,0,0-7.53-2q-6.4,0-13.93,6.16h.22a21.46,21.46,0,0,1,7.31-1.37h3q9.93,0,16.67,10.74a27.16,27.16,0,0,1,2.06,10.27v1.15q0,11.86-10.51,24.89-6.11,5.7-10.5,5.71c-2.67,0-4.65-1.53-5.94-4.57L282,81.91q0-11.52,11.42-23.29c1.33-1.37,2.32-2.06,3-2.06,1.83.46,2.74.92,2.74,1.37q-10.39,10.74-11.88,18.73v2.06q.4,4.78,3,4.79h.69q4.62,0,9.59-9.59a34.45,34.45,0,0,0,3-13.7q0-13-9.82-18.73a13.89,13.89,0,0,0-6.17-1.37q-6.51,0-15.07,6.17h-.23l-1.82-2.51q5-3.09,6.39-5.48Q286.3,29.39,292.52,29.39Z"/><path class="cls-1" d="M329.4,27.79H334a12.62,12.62,0,0,1,9.82,4.8v.68q0,2.11-6.16,6.85h-.69v-2c0-2.67-2.81-4.26-8.45-4.8H328a24.27,24.27,0,0,0-18.73,8.22l-1.6,3.89,1.83.45q16.38-2.28,19.64-2.28,7.14,0,8.68,10.5l.23,2.74q0,11.43-8.45,24.44-7.14,8.67-13.25,8.68-5.47,0-6.16-8,0-12.84,13.47-25.12l.23-.23h.23c2.13.35,3.19.73,3.19,1.15q-9,9.42-11.87,18v3q0,4.16,3,4.79h.68q4.62,0,9.59-9.59,3.66-9.42,3.66-16.21-.57-8-3.2-8l-1.6-.22-19.64.68h-.23c-2,0-3.19-.46-3.65-1.37v-.23q0-13.47,21-20.32Z"/><path class="cls-1" d="M375.93,46.06h1.14a7.41,7.41,0,0,1,2.28,5.71v5.48q-1.59,14.39-8.22,14.39l-1.37-.23q4.8,6.61,4.8,8.68-4.29,7.3-9.37,8.9H365q-2.67,0-10-8.22l-.23-.23h-.23q-4.11,9.36-8.91,9.37h-.45q-3.94,0-6.17-6.63A61.39,61.39,0,0,1,338,71v-2q0-20.57,1.6-20.56l4.56-.91v.23q-1.37,14.1-1.37,23.06v1.37q0,10.27,3.43,10.28,2.17,0,4.57-4.57a16,16,0,0,0,.68-4.11V68.9q.4-.69,5.25-3.43v-.23q-3.93-4.68-9.36-12.33v-.23l4.8-3.65h.45q3.54,5,11,5c1.68,0,2.52-.68,2.52-2,.64-1.68,1.56-2.51,2.74-2.51h.68l1.6.22A18.55,18.55,0,0,1,375.93,46.06ZM357,65.93l-.45,3.65V70q0,9.36,10.27,13.7h.69c.91-.15,1.44-1.29,1.6-3.43Zm4.57-7.77H360.4v.46l3.65,5.25h.46l.68-6.16Zm8,2.74v1.15c.12,2.89.72,4.33,1.83,4.33s1.67-2,2.05-5.93v-3l-.45-5Q369.53,57,369.53,60.9Z"/><path class="cls-1" d="M469.87,89.71h6.39l1.07,1.06v2.67q-2.81,85.25-9.06,85.25l-2.67.53c-1.77-.62-2.66-1.51-2.66-2.66l.53-.53q-6.39-53.42-12.25-83.13A52.73,52.73,0,0,1,469.87,89.71Zm.53,100.7h2.66c2.13.18,3.2.72,3.2,1.6v1.07a26.26,26.26,0,0,1-10.12,21.31q-3.74-1.72-3.73-4.79v-5.33a42.66,42.66,0,0,0-2.13-11.73A23.06,23.06,0,0,1,470.4,190.41Z"/><path class="cls-1" d="M245.25,118.38l3-1.31.72.28.55,1.25q16.16,40.67,13.22,41.94l-1.14.8c-1,.07-1.57-.16-1.8-.71l.14-.36q-14-23.81-22.81-36.57A27.1,27.1,0,0,1,245.25,118.38Zm20.89,47.24,1.26-.55c1-.35,1.65-.32,1.83.1l.22.5a13.5,13.5,0,0,1-.39,12.1,2.75,2.75,0,0,1-2.74-1.49l-1.09-2.51a21.85,21.85,0,0,0-3.41-5.07A11.78,11.78,0,0,1,266.14,165.62Z"/><path class="cls-1" d="M406.24,30.1l3.21.65.43.65-.27,1.33Q399.49,75.3,396.34,74.66h-1.4c-.83-.5-1.18-1-1.06-1.61l.32-.22q2.25-27.49,2.34-43A27,27,0,0,1,406.24,30.1Zm-10,50.67,1.34.27c1.05.31,1.53.69,1.44,1.13l-.11.54a13.47,13.47,0,0,1-7.26,9.68,2.73,2.73,0,0,1-1.39-2.79l.55-2.68a21.71,21.71,0,0,0,.12-6.11A11.7,11.7,0,0,1,396.21,80.77Z"/><path class="cls-1" d="M300.15,140.82h1.41q.7,0,7.4,7.05,6.69,0,6.69,5.28,0,3.16,5.29,3.17h.35q6.25,0,12.33-4.93l1.06-.35q6.69,1.23,6.69,2.11-4,6.69-18.67,22.9-7.76,8.8-7.75,12.33v.35q0,6,7.75,10.92l1.41.35q8.44,0,11.27-7l.35-2.47c0-2.47-1.64-3.87-4.93-4.23q-3.53,0-9.16,6.34h-.7l-3.53-3.52v-.7q16-19.9,24.31-34.53c3.7-2.34,6.4-3.52,8.1-3.52h1.76q3.09,0,6.7,5.29l-.35,30.29v.35l2.28,27.92-9.51-1.85q-.26-5.62-.88-17.61l1.76-28.54v-.35q0-4.85-2.46-6.34h-1.06q-3.78,0-8.81,10.22l-7.75,10.57v.35h.36l4.22-1.41q6.53,0,7.4,9.86v.71q0,11.63-15.85,18.67l-5.28.7h-1.41q-7.49,0-15.5-13v-1.06q2-12,4.58-12,8.81-11.26,13-18A26.11,26.11,0,0,1,316,162l-.35.35.35.35v4.58q0,10.13-7.39,14.09a4.92,4.92,0,0,1-4.23,1.76q-6.87,0-9.51-13.74-.71-1.84-.71-7.39V160.9Q294.16,145.66,300.15,140.82Zm4.93,11.27q-2.46,9.6-2.46,14.8v1.76c0,3.29.7,5.28,2.11,6h.71q3.17-2.64,3.17-9.16v-.7q0-5-2.82-12.69Z"/><path class="cls-1" d="M310,93.88h11.27q8.81,0,24.31,11.27,12.15,12.51,12.32,15.5l-8.1,6c-.58-.29-1.76-2.41-3.52-6.34a52,52,0,0,0-27.83-20.08l-5.28-.7h-2.12q-17,0-27.47,16.91a30.46,30.46,0,0,0-1.77,8.45q0,12.08,15.5,17.26l3.88.35H304q6.6,0,13.38-6.34l3.88,2.82v.71q-8.28,8.81-19.38,8.8H299.8q-15.76,0-22.9-13.74a22.39,22.39,0,0,1-1.76-9.15v-1.41q0-11.81,14.44-23.25A41.45,41.45,0,0,1,310,93.88Z"/><path class="cls-1" d="M429.26,141.53l1.06,1.05q0,6.53-7.05,8.46Q412,154.39,412,162.66q0,7.14,9.51,11.63,8.28,5,9.51,6.34l.71,4.58v5.28q0,7.92-9.52,14.44l-2.81.71H418q-10.67,0-16.21-9.51h-.7q-8.81,13-14.09,13h-.36q-7.39,0-7.39-4.93l-.35-3.17.35-1.76-.35-5.29h-.36q-13.12,12.08-15.85,13.74-1.05,0-1.41-5.28,14.18-12,19.73-18.67v-.35h-.35l-1.06.35q-9.16,0-10.92-19V163q0-14.61,6.34-19.72,2.21,0,8.81,7h.35l1.06-.35q5.1,0,5.63,7.4a12.89,12.89,0,0,0,4.93.7q10.92,0,10.92-2.82c0-1.11,1.77-1.81,5.29-2.11A83.91,83.91,0,0,0,429.26,141.53Zm-49.32,12.68A56,56,0,0,0,377.12,169c.47,4.46,1.18,6.7,2.12,6.7q3.43,0,4.22-9.16A24,24,0,0,0,379.94,154.21Zm5.29,41.56v1.41c0,2.59,1,3.88,3.17,3.88q5.46,0,12-15.85,0-4.94,6.7-6v3.17q0,11.81,9.51,15.85h.7q7.05-1.5,7.05-5.28V191.9q0-3.35-10.92-12-7.05-7.39-7.05-15.14-18.23,15.58-20.08,23.95A21.8,21.8,0,0,0,385.23,195.77Zm5.63-32.05-.35.35v8.46h.7l4.94-6Z"/><path class="cls-1" d="M424.94,96.17l.36.35-.36,3.53v1.76a3.49,3.49,0,0,0,1.06,2.82,21.74,21.74,0,0,1,7.75-1.06h1.41q9.51.71,9.51,7.4v7.39q0,12.69-18.32,17.26l.36,16.56-.36.35h-6.69l-.7-.7v-.7l1.76-15.51v-.35q-21.23,0-34.17-12.33-6.35-8.28-6.34-15.85l7-3.87h.35c.36.06,1.06,2.87,2.12,8.45a29.41,29.41,0,0,0,16.91,16.2q8,3.18,12.68,3.18l.35-1.06-2.11-31.71A18,18,0,0,1,424.94,96.17Zm.71,14.09.35,14.09v3.52l.71.71q9.85-4.23,9.86-15.15,0-3.44-5.64-3.87Z"/></g></svg>