<svg id="Layer_1" data-name="Layer 1" xmlns="http://www.w3.org/2000/svg" xmlns:xlink="http://www.w3.org/1999/xlink" viewBox="0 0 254.13 431.62"><defs><style>.cls-1,.cls-12,.cls-14{fill:none;}.cls-2{fill:#be9c67;}.cls-3{fill:#461d2c;}.cls-4{fill:#bf2434;}.cls-5{fill:#d4af25;}.cls-6{fill:#d49625;}.cls-7{fill:#fdd089;}.cls-8{fill:#211f1f;}.cls-9{fill:#fff;}.cls-10{fill:#b28e90;}.cls-11{clip-path:url(#clip-path);}.cls-12,.cls-14{stroke:#461d2c;stroke-miterlimit:10;}.cls-12{stroke-width:0.68px;}.cls-13{clip-path:url(#clip-path-2);}.cls-14{stroke-width:0.5px;}.cls-15{fill:#e5c344;}.cls-16{fill:#b2203d;}.cls-17{fill:#f8ecee;}</style><clipPath id="clip-path"><path class="cls-1" d="M45.32,194.38s-17.54,34.27-11.16,70.41,19.13,66.26,23.38,90.7-3.19,42.87-3.19,42.87,60.59-12.4,97.44-97.07c4.6-42.87,5.66-69.45-16.3-102.75C110.69,180.47,45.32,194.38,45.32,194.38Z"/></clipPath><clipPath id="clip-path-2"><path class="cls-1" d="M151.41,301.7s-17.6,40-37.95,59.21c-1.83,5.74-3.39,9.66-3.39,9.66l30.52,24.13S153.37,360,151.41,301.7Z"/></clipPath></defs><title>1920x1080 UI Landing Page</title><path class="cls-2" d="M96.52,368.6S99,392.7,138,401.55c11.69-28.69,15.59-70.86,12.75-109.12C111,330.34,96.52,368.6,96.52,368.6Z"/><path class="cls-3" d="M138.27,402.14l-.41-.1C99,393.21,96,368.9,96,368.65v-.11l0-.11c.14-.39,15-38.81,54.33-76.36l.76-.73.08,1.05c3.06,41.31-1.72,82.18-12.79,109.35ZM97,368.66c.26,1.79,4.26,23.88,40.63,32.31,10.81-26.8,15.52-66.85,12.64-107.44C112.8,329.65,98,366.32,97,368.66Z"/><path class="cls-4" d="M43,201.37,132,197.48s-5-36.5-14.89-39.69l0-.25c-16.54,4-44.92,11.23-68.05,18.51C51,182.26,43,201.37,43,201.37Z"/><path class="cls-5" d="M96.16,95.08c-1.77-5,1.06-14.88,1.06-14.88S82.34,73.47,76,73.12s-14,3-14,3S45.14,87.47,42.66,107.66,42.13,142.38,49,176h0c23.13-7.28,51.51-14.48,68.05-18.51C119.17,137.75,117,114.49,96.16,95.08Z"/><path class="cls-5" d="M114.94,358.33c-7.44,13.46-17.36,43.58-17,48.89s8.86,7.8,14.17,7.8,22.68,1.41,22.68,1.41-1.42,8.51-16.3,8.86-41.1-1.42-41.1-1.42l-3.54-44.64Z"/><path class="cls-6" d="M114.22,426c-15,0-36.64-1.45-36.88-1.47l-.59,0-3.62-45.68,43.47-22.11-1.07,1.94c-7.53,13.63-17.25,43.63-16.92,48.52.31,4.67,8,7.16,13.49,7.16,5.29,0,22,1.36,22.74,1.42l.73.06-.12.73c-.06.37-1.68,9.06-16.95,9.42C117.16,426,115.72,426,114.22,426ZM78,423.24c4,.25,27,1.69,40.46,1.37,11.58-.27,14.67-5.6,15.42-7.57-3.52-.28-17.22-1.34-21.79-1.34-5.76,0-14.46-2.68-14.85-8.43-.35-5.38,8.88-33.32,16.08-47.36L74.55,379.63Z"/><path class="cls-5" d="M62.15,380.3l1.06,31.88S51.16,424.58,59,429.9c25.86,0,53.5,1.77,57.4.71s9.56-1.78,10.62-2.13-.7-2.83-7.44-5.31-16.65-1.07-23.38-5S82.7,410.06,82.7,398.72,93.33,358,93.33,358Z"/><path class="cls-6" d="M110.13,431.62c-4.33,0-10.46-.18-17.75-.39-9.74-.29-21.88-.65-33.42-.65h-.21l-.17-.12a6.27,6.27,0,0,1-2.89-4.7c-.57-5.61,5.6-12.52,6.83-13.84l-1.06-32,33.25-23.8L94,358.2c-.11.3-10.59,29.43-10.59,40.52,0,11.3,7,15.34,13.12,18.9,3.72,2.15,8.55,2.64,13.21,3.11a41.53,41.53,0,0,1,10.07,1.8c5,1.84,8.2,4,8.17,5.6a1,1,0,0,1-.75,1,32,32,0,0,1-3.15.62c-2.2.37-5.2.89-7.52,1.52A33.08,33.08,0,0,1,110.13,431.62Zm-51-2.4c11.5,0,23.56.36,33.26.65,12.12.36,21.69.64,23.75.08,2.38-.65,5.42-1.17,7.64-1.55,1.13-.19,2.14-.36,2.67-.49-.42-.63-2.19-2.27-7.18-4.11a40.64,40.64,0,0,0-9.73-1.72c-4.81-.49-9.78-1-13.76-3.29-6.15-3.56-13.8-8-13.8-20.07,0-9.72,7.53-32,9.94-38.94L62.84,380.64l1.06,31.81-.2.2c-.07.08-7.21,7.5-6.66,13A4.87,4.87,0,0,0,59.17,429.22Z"/><path class="cls-7" d="M45.32,194.38s-17.54,34.27-11.16,70.41,19.13,66.26,23.38,90.7-3.19,42.87-3.19,42.87,60.59-12.4,97.44-97.07c4.6-42.87,5.66-69.45-16.3-102.75C110.69,180.47,45.32,194.38,45.32,194.38Z"/><path class="cls-3" d="M53.54,399l.35-.86c.07-.19,7.34-18.59,3.16-42.6-1.92-11.06-5.67-23.55-9.64-36.76-4.81-16-10.26-34.17-13.74-53.94-6.34-35.89,11-70.39,11.2-70.73l.11-.21.23-.05c.66-.14,65.88-13.75,90.57,4.24l.12.13c22.47,34.07,20.87,61.36,16.38,103.08l0,.15c-19.08,43.85-44.63,68-62.7,80.5-19.61,13.59-34.93,16.83-35.09,16.87ZM45.66,194.82c-1.45,3-17,35.8-11,69.89,3.48,19.71,8.92,37.83,13.72,53.82,4,13.25,7.73,25.75,9.66,36.88a88.06,88.06,0,0,1-2.89,42.25c3.53-.9,17.11-4.9,33.88-16.52,17.94-12.45,43.31-36.42,62.28-80,4.45-41.42,6-68.55-16.18-102.27C111.47,181.77,50,193.93,45.66,194.82Z"/><path class="cls-8" d="M72.42,51.42C78.14,53,78.14,65.9,78.14,65.9s3,.26,5.84.26c.67-2.92-2.12-15.81-2.92-23-.77-6.88,12.16-11,29.39-11.15-.83-8.79-3.27-19.22-9.59-26.58C87.83-9.7,40.27,9.7,52.49,41.05c7.44,17.81,10.63,28.43,3.19,37.74a19.17,19.17,0,0,0,3.46-.27l14.35,2.66,1.06-5.58c-1.73-6.78-2.13-6.78-5.32-12S66.71,49.82,72.42,51.42Z"/><path class="cls-5" d="M105.6,85.88c-13.89,0-19.86-3.28-22.41-6a6.75,6.75,0,0,1-2.12-4.73l.06-.8-.8.07-5.27.48c-1.41-5.45-2-6.34-4.09-9.73l-1.16-1.86c-1.91-3.1-2.38-7.55-1.06-9.92a2.58,2.58,0,0,1,2.36-1.46,4.31,4.31,0,0,1,1.13.17c4.28,1.19,5.21,10.39,5.22,13.83v.62l.62,0s3.11.27,5.9.27h.54l.12-.53c.45-2-.49-7.72-1.5-13.8-.55-3.34-1.12-6.79-1.41-9.41A4.68,4.68,0,0,1,83,39.42c3.53-4,13.52-6.48,26.81-6.71a86,86,0,0,1-.08,16l0,.28.18.22c3.11,3.94,4.4,9.28,4.78,11.19l-6.26.52V85.83c-1,0-1.9,0-2.81,0Z"/><path class="cls-6" d="M109.21,33.41a85.51,85.51,0,0,1-.14,15.18l-.06.57.35.44a26.84,26.84,0,0,1,4.48,10.15l-4.86.41-1.25.1V85.17l-2.13,0c-13.58,0-19.39-3.13-21.87-5.76a6.21,6.21,0,0,1-2-4.26l.13-1.61-1.61.14-4.7.43a25.14,25.14,0,0,0-4-9.36l-1.15-1.85c-1.76-2.87-2.24-7.1-1-9.24a1.88,1.88,0,0,1,1.76-1.11,3.77,3.77,0,0,1,1,.14c3.84,1.08,4.72,10.1,4.72,13.18v1.24l1.24.11c.13,0,3.14.27,6,.27h1.09l.24-1.06c.44-2-.27-6.62-1.5-14.07-.55-3.32-1.11-6.76-1.4-9.36a3.94,3.94,0,0,1,1.12-3.16c3.29-3.72,13.07-6.17,25.68-6.46M110.45,32c-17.23.2-30.16,4.27-29.39,11.15.8,7.17,3.59,20.06,2.92,23-2.79,0-5.84-.26-5.84-.26s0-12.89-5.72-14.48a4.59,4.59,0,0,0-1.31-.2c-4.48,0-4.8,7.66-1.88,12.42,3.19,5.18,3.59,5.18,5.32,12l5.84-.53s-1,11.49,25.21,11.49c1.11,0,2.28,0,3.49-.07v-25l6.38-.53s-1.06-7.17-5-12.22a86.29,86.29,0,0,0,0-16.73Z"/><path class="cls-8" d="M110.16,63.37c-3.19.8-11.56,8.24-17,4.65,4.78,4.39,17.8,1.07,17.8,1.07Z"/><path class="cls-4" d="M50.44,88.32a48.74,48.74,0,0,0-7.78,18.1c38,6.38,51.82,20.46,56.87,50C98.58,112.26,68.08,94.77,50.44,88.32Z"/><path class="cls-9" d="M59.14,78.52a49.45,49.45,0,0,0-8.7,9.8c17.64,6.45,48.14,23.94,49.09,68.06C101.92,142.29,107,105.36,59.14,78.52Z"/><path class="cls-7" d="M110.58,26.44a53.59,53.59,0,0,1,5.6-19.58c-41,4.69-61.53,15.86-72.46,25.53a107.18,107.18,0,0,0-8.14,9.73L54.65,55.3C59.39,47.44,74.15,29.36,110.58,26.44Z"/><path class="cls-10" d="M105.9,7.75c-3.18-4.08-22.49-11.16-36-5.85S47.8,18.38,46.74,29.71a24.38,24.38,0,0,0-3,2.68c10.93-9.67,31.44-20.84,72.46-25.53Z"/><path class="cls-4" d="M54.65,55.3l5,3.47C77.74,40.17,86.59,35.56,110.45,32a44.81,44.81,0,0,1,.13-5.59C74.15,29.36,59.39,47.44,54.65,55.3Z"/><g class="cls-11"><path class="cls-12" d="M134.2,194.35S56.46,192.78.11,173.48"/><path class="cls-12" d="M134.44,194.42S66,202.59,2.37,189.69"/><path class="cls-12" d="M134.68,194.49S75.52,212.4,4.63,205.9"/><path class="cls-12" d="M134.93,194.56s-49.88,27.65-128,27.54"/><path class="cls-12" d="M135.17,194.63S94.58,232,9.15,238.31"/><path class="cls-12" d="M135.41,194.7s-31.3,47.13-124,59.82"/><path class="cls-12" d="M135.66,194.77s-22,56.86-122,76"/><path class="cls-12" d="M135.9,194.83s-12.73,66.61-120,92.11"/><path class="cls-12" d="M136.14,194.9S132.7,271.25,18.2,303.15"/><path class="cls-12" d="M136.39,195s5.84,86.09-115.93,124.39"/><path class="cls-12" d="M136.63,195s15.13,95.83-113.91,140.53"/><path class="cls-12" d="M136.87,195.11S161.29,300.68,25,351.77"/><path class="cls-12" d="M137.12,195.18S170.82,310.49,27.24,368"/><path class="cls-12" d="M137.36,195.25s43,125.05-107.86,188.94"/><path class="cls-12" d="M137.61,195.32S189.88,330.1,31.76,400.4"/><path class="cls-12" d="M137.85,195.39S199.41,339.91,34,416.61"/></g><path class="cls-5" d="M121.32,169.93c13.81-5.45,12.35-7.84,18.46-10s8.61-4.09,14.75-4.78c8.24-.93,10.37.8,10.1,2.66s-11.43,4.65-13.82,9.17c10.9,2.39,32.15-9,37.47-6.65-3.19,9.3-30,22.46-55.27,16.74-19.93,2.66-46,34.81-60.32,24.45l-27.9-75.73c-2.66-10.36-.71-18.34,5.84-23.39,0,0,18.73-5.85,25,12.49l10.63,69.62S111.26,173.89,121.32,169.93Z"/><path class="cls-6" d="M79.26,204.3a11.59,11.59,0,0,1-7-2.2l-.17-.12-.07-.2-27.9-75.73c-2.74-10.66-.63-19,6.07-24.15l.21-.11c.19-.06,19.43-5.84,25.82,12.91l0,.12,10.5,68.76c4.37-1.86,25.35-10.76,34.29-14.28,8-3.16,10.77-5.23,13-6.9a17.52,17.52,0,0,1,5.5-3.08c2-.68,3.61-1.37,5-2a31.78,31.78,0,0,1,9.86-2.84c5.32-.6,8.73-.17,10.15,1.28a2.46,2.46,0,0,1,.69,2.14c-.15,1.1-1.72,1.87-5,3.39-3,1.41-6.69,3.13-8.38,5.2,5.75.77,14.05-1.8,21.43-4.08,7-2.17,12.52-3.89,15.18-2.7l.56.26-.2.58c-3.16,9.23-29.56,23.12-55.94,17.21-8.24,1.15-17.68,7.49-26.8,13.62C96.38,198,87,204.3,79.26,204.3Zm-6-3.18c7.9,5.47,19.69-2.45,32.17-10.83,9.3-6.25,18.91-12.71,27.5-13.86l.12,0,.12,0c24.24,5.49,50.13-6.71,54.22-15.65-2.55-.49-7.93,1.18-13.6,2.94-8,2.48-17,5.28-23.11,3.94l-.88-.19.42-.79c1.5-2.84,6-4.92,9.55-6.6,1.69-.79,4-1.87,4.2-2.37a1.11,1.11,0,0,0-.33-1c-.62-.64-2.62-1.6-9-.88a30.3,30.3,0,0,0-9.48,2.74c-1.46.61-3.11,1.3-5.12,2a16.48,16.48,0,0,0-5.14,2.87c-2.28,1.72-5.12,3.86-13.31,7.08-9.93,3.92-34.8,14.5-35,14.61l-.81.34L75,115.09c-5.8-16.92-22.32-12.54-24-12-6.25,4.87-8.1,12.48-5.5,22.6Z"/><g class="cls-13"><path class="cls-14" d="M112,365.48s15.26-7.05,32.87,32.87"/><path class="cls-14" d="M115.13,360.41s14.16-6.48,30.63,31.09"/><path class="cls-14" d="M118.24,355.35s13.07-5.92,28.39,29.3"/><path class="cls-14" d="M121.35,350.28s12-5.35,26.15,27.52"/><path class="cls-14" d="M124.46,345.22s10.87-4.79,23.91,25.74"/><path class="cls-14" d="M127.57,340.15s9.77-4.22,21.67,24"/><path class="cls-14" d="M130.67,335.09s8.68-3.66,19.44,22.17"/><path class="cls-14" d="M133.78,330s7.58-3.09,17.2,20.39"/><path class="cls-14" d="M136.89,325s6.48-2.53,15,18.61"/><path class="cls-14" d="M140,319.89s5.38-2,12.72,16.83"/><path class="cls-14" d="M143.11,314.83s4.28-1.4,10.48,15"/><path class="cls-14" d="M146.22,309.76s3.18-.83,8.24,13.26"/><path class="cls-14" d="M149.33,304.7s2.08-.27,6,11.47"/></g><circle class="cls-3" cx="207.38" cy="91.1" r="46.75" transform="translate(-19.08 86.3) rotate(-22.5)"/><path class="cls-15" d="M211.13,74.53l5.67-16.19a.53.53,0,1,1,1,.35l-5.64,16.1a16.85,16.85,0,0,1,4.94,2.38l9.77-11.72A10.47,10.47,0,0,0,228,53.66l-.29-.51a10.47,10.47,0,0,0-19.6,4.25l-1.33,16.73c.2,0,.41,0,.62,0A17.17,17.17,0,0,1,211.13,74.53Z"/><path class="cls-15" d="M221.28,81.32l14.89-7.21a.53.53,0,0,1,.71.25.55.55,0,0,1-.25.71l-14.77,7.15A16.72,16.72,0,0,1,224,87.59l14.28-1.34a10.45,10.45,0,0,0,9.1-7.57l.16-.56A10.48,10.48,0,0,0,230.66,67.3L218.19,78A17.49,17.49,0,0,1,221.28,81.32Z"/><path class="cls-15" d="M249.31,99.7a10.48,10.48,0,0,0-9.64-9.45l-15.42-1.17a17,17,0,0,1,.13,2,17.37,17.37,0,0,1-.25,2.81l14.64,5a.53.53,0,0,1-.18,1l-.17,0-14.5-5a16.62,16.62,0,0,1-2.45,5.65l10.23,8.45a10.49,10.49,0,0,0,11.8,1l.51-.28A10.48,10.48,0,0,0,249.31,99.7Z"/><path class="cls-15" d="M216.68,105.32l6.4,13.07a.54.54,0,0,1-.24.72.59.59,0,0,1-.23,0,.53.53,0,0,1-.48-.3l-6.36-13a17,17,0,0,1-6.06,2L211,120.57a10.47,10.47,0,0,0,7.62,9.07l.56.16a10.48,10.48,0,0,0,10.74-16.94L220.45,102A17,17,0,0,1,216.68,105.32Z"/><path class="cls-15" d="M202.89,107.48l-4.63,13.63a.55.55,0,0,1-.51.36l-.17,0a.52.52,0,0,1-.33-.67l4.62-13.6a16.75,16.75,0,0,1-5.51-3.15l-8.24,10.07a10.48,10.48,0,0,0-1,11.81l.29.51A10.48,10.48,0,0,0,207,122l1-13.9c-.19,0-.38,0-.57,0A17,17,0,0,1,202.89,107.48Z"/><path class="cls-15" d="M178.74,105.52a.46.46,0,0,1-.23,0,.52.52,0,0,1-.48-.29.53.53,0,0,1,.24-.71l13.52-6.71A16.8,16.8,0,0,1,190.43,92L176.51,93.4a10.47,10.47,0,0,0-9,7.65l-.15.57a10.47,10.47,0,0,0,17,10.65l10.81-9.42a16.88,16.88,0,0,1-2.87-4Z"/><path class="cls-15" d="M175.91,80.7a.52.52,0,0,1-.33-.67.53.53,0,0,1,.67-.34l15.34,5.14A16.91,16.91,0,0,1,194.54,80l-11.66-9.45a10.47,10.47,0,0,0-11.81-.94l-.5.29a10.47,10.47,0,0,0,4.52,19.54l15.33,1a16.76,16.76,0,0,1,.81-4.61Z"/><path class="cls-15" d="M191.41,61.12a.54.54,0,0,1,.24-.72.53.53,0,0,1,.71.24L200,75.82a16.74,16.74,0,0,1,5.21-1.56l-1.65-15.43a10.49,10.49,0,0,0-7.7-9l-.57-.15a10.48,10.48,0,0,0-10.58,17L195.47,79A17.26,17.26,0,0,1,199,76.3Z"/><path class="cls-16" d="M217.8,58.69a.53.53,0,1,0-1-.35l-5.67,16.19c.35.08.69.16,1,.26Z"/><path class="cls-16" d="M236.63,75.07a.55.55,0,0,0,.25-.71.53.53,0,0,0-.71-.25l-14.89,7.21c.2.29.39.6.58.9Z"/><path class="cls-16" d="M238.42,100l.17,0a.53.53,0,0,0,.18-1l-14.64-5q-.09.53-.21,1Z"/><path class="cls-16" d="M222.13,118.86a.53.53,0,0,0,.48.3.59.59,0,0,0,.23,0,.54.54,0,0,0,.24-.72l-6.4-13.07c-.3.2-.6.38-.91.56Z"/><path class="cls-16" d="M197.25,120.77a.52.52,0,0,0,.33.67l.17,0a.55.55,0,0,0,.51-.36l4.63-13.63-1-.31Z"/><path class="cls-16" d="M178.27,104.57a.53.53,0,0,0-.24.71.52.52,0,0,0,.48.29.46.46,0,0,0,.23,0l13.51-6.7c-.16-.31-.32-.63-.46-1Z"/><path class="cls-16" d="M176.25,79.69a.53.53,0,0,0-.67.34.52.52,0,0,0,.33.67l15.32,5.12q.17-.5.36-1Z"/><path class="cls-16" d="M192.36,60.64a.53.53,0,0,0-.71-.24.54.54,0,0,0-.24.72L199,76.3c.31-.17.62-.33.94-.48Z"/><path class="cls-16" d="M209.71,89.5a.54.54,0,0,1,.68-.33l2.11.73.42-1.28-.53,0-.76-1.5-2,1a.46.46,0,0,1-.23.06.53.53,0,0,1-.23-1l2-1-.61-1.2-.34.41-1.59-.53L207.88,87a.53.53,0,0,1-.5.35.47.47,0,0,1-.17,0,.53.53,0,0,1-.33-.68l.74-2.1-1.38-.46.06.58-1.49.77,1,2a.54.54,0,0,1-.24.72.46.46,0,0,1-.23,0,.52.52,0,0,1-.48-.29l-1-2-1.19.62.41.34-.51,1.6,2.14.71a.53.53,0,0,1,.33.67.53.53,0,0,1-.5.36l-.17,0-2.12-.71-.4,1.28.52-.06.77,1.49,2-1a.54.54,0,0,1,.72.24.53.53,0,0,1-.24.71l-2,1,.61,1.19.34-.41,1.59.51.72-2.12a.55.55,0,0,1,.68-.34.53.53,0,0,1,.33.68l-.72,2.11,1.28.41-.05-.53,1.49-.76-1-2a.54.54,0,0,1,.24-.72.55.55,0,0,1,.72.25l1,2,1.19-.61-.41-.33.53-1.6L210,90.17A.53.53,0,0,1,209.71,89.5Z"/><path class="cls-16" d="M207.21,87.35a.47.47,0,0,0,.17,0,.53.53,0,0,0,.5-.35l.74-2.13-1-.33-.74,2.1A.53.53,0,0,0,207.21,87.35Z"/><polygon class="cls-16" points="210.38 84.67 210.56 85.03 212.04 83.24 210.38 84.67"/><path class="cls-16" d="M208.9,87.91a.53.53,0,0,0,.48.3.46.46,0,0,0,.23-.06l2-1-.47-1-2,1A.53.53,0,0,0,208.9,87.91Z"/><polygon class="cls-16" points="213.04 88.24 212.92 88.62 215.23 88.41 213.04 88.24"/><path class="cls-16" d="M210.39,89.17a.54.54,0,0,0-.68.33.53.53,0,0,0,.33.67l2.13.73.33-1Z"/><polygon class="cls-16" points="212.41 92.65 212.05 92.83 213.84 94.31 212.41 92.65"/><path class="cls-16" d="M209.16,91.19a.54.54,0,0,0-.24.72l1,2,1-.48-1-2A.55.55,0,0,0,209.16,91.19Z"/><polygon class="cls-16" points="208.85 95.34 208.47 95.21 208.7 97.52 208.85 95.34"/><path class="cls-16" d="M207.58,92a.55.55,0,0,0-.68.34l-.72,2.12,1,.33.72-2.11A.53.53,0,0,0,207.58,92Z"/><polygon class="cls-16" points="204.43 94.73 204.25 94.37 202.78 96.17 204.43 94.73"/><path class="cls-16" d="M205.88,91.47a.54.54,0,0,0-.72-.24l-2,1,.49,1,2-1A.53.53,0,0,0,205.88,91.47Z"/><polygon class="cls-16" points="201.74 91.18 201.86 90.8 199.55 91.03 201.74 91.18"/><path class="cls-16" d="M204.55,90.25a.53.53,0,0,0,.5-.36.53.53,0,0,0-.33-.67l-2.14-.71-.32,1,2.12.71Z"/><polygon class="cls-16" points="205.97 84.02 206.24 84.11 206.08 82.62 205.97 84.02"/><polygon class="cls-16" points="202.32 86.76 202.68 86.57 200.88 85.11 202.32 86.76"/><path class="cls-16" d="M205.35,88.24a.46.46,0,0,0,.23,0,.54.54,0,0,0,.24-.72l-1-2-.94.49,1,2A.52.52,0,0,0,205.35,88.24Z"/><path class="cls-16" d="M207.62,84.57l1,.33,1.59.53.34-.41-.17-.35L212,83.24l5.06-6.07a16.85,16.85,0,0,0-4.94-2.38c-.34-.1-.68-.18-1-.26a17.17,17.17,0,0,0-3.75-.43c-.21,0-.42,0-.62,0l-.68,8.49.16,1.49Z"/><path class="cls-16" d="M211.16,86.22l.47,1,.76,1.5.53,0,.12-.38,2.19.16,8.78-.81a16.72,16.72,0,0,0-2.15-5.37c-.19-.3-.38-.61-.58-.9A17.49,17.49,0,0,0,218.19,78L212,83.24,210.55,85Z"/><path class="cls-16" d="M224.25,89.08l-9-.68-2.31.22-.42,1.28-.33,1-.53,1.6.41.33.36-.18,1.43,1.66,7.63,6.3A16.62,16.62,0,0,0,223.92,95q.12-.52.21-1a17.37,17.37,0,0,0,.25-2.81A17,17,0,0,0,224.25,89.08Z"/><path class="cls-16" d="M210.86,93.44l-1,.48-1.49.76.05.53.38.13-.15,2.18,1,10.4a17,17,0,0,0,6.06-2c.31-.18.61-.36.91-.56a17,17,0,0,0,3.77-3.36l-6.61-7.65-1.79-1.48Z"/><path class="cls-16" d="M207.19,94.8l-1-.33L204.59,94l-.34.41.18.36-1.65,1.44L196.36,104a16.75,16.75,0,0,0,5.51,3.15l1,.31a17,17,0,0,0,4.49.62c.19,0,.38,0,.57,0l.75-10.55-.23-2.31Z"/><path class="cls-16" d="M203.64,93.18l-.49-1-.77-1.49-.52.06-.13.38L199.55,91l-9.12.94a16.8,16.8,0,0,0,1.36,5.89c.14.33.3.65.46,1a16.88,16.88,0,0,0,2.87,4l7.66-6.68,1.47-1.8Z"/><path class="cls-16" d="M202.26,89.52l.32-1,.51-1.6-.41-.34-.36.19-1.44-1.65L194.54,80a16.91,16.91,0,0,0-2.95,4.85q-.19.49-.36,1a16.76,16.76,0,0,0-.81,4.61l9.13.6,2.31-.23Z"/><path class="cls-16" d="M203.87,86l.94-.49,1.49-.77-.06-.58L206,84l.12-1.4-.9-8.36A16.74,16.74,0,0,0,200,75.82c-.32.15-.63.31-.94.48A17.26,17.26,0,0,0,195.47,79l5.41,6.14,1.8,1.46Z"/><circle class="cls-17" cx="207.38" cy="91.1" r="11.33" transform="translate(-19.1 87.85) rotate(-22.89)"/><path class="cls-16" d="M213.05,91.1a5.67,5.67,0,1,1-5.67-5.67A5.67,5.67,0,0,1,213.05,91.1Z"/></svg>