<svg id="Layer_1" data-name="Layer 1" xmlns="http://www.w3.org/2000/svg" xmlns:xlink="http://www.w3.org/1999/xlink" viewBox="0 0 189.12 431.62"><defs><style>.cls-1,.cls-12,.cls-14{fill:none;}.cls-2{fill:#be9c67;}.cls-3{fill:#461d2c;}.cls-4{fill:#bf2434;}.cls-5{fill:#d4af25;}.cls-6{fill:#d49625;}.cls-7{fill:#fdd089;}.cls-8{fill:#211f1f;}.cls-9{fill:#fff;}.cls-10{fill:#b28e90;}.cls-11{clip-path:url(#clip-path);}.cls-12,.cls-14{stroke:#461d2c;stroke-miterlimit:10;}.cls-12{stroke-width:0.68px;}.cls-13{clip-path:url(#clip-path-2);}.cls-14{stroke-width:0.5px;}</style><clipPath id="clip-path"><path class="cls-1" d="M45.32,194.38s-17.54,34.27-11.16,70.41,19.13,66.26,23.38,90.7-3.19,42.87-3.19,42.87,60.59-12.4,97.44-97.07c4.6-42.87,5.66-69.45-16.3-102.75C110.69,180.47,45.32,194.38,45.32,194.38Z"/></clipPath><clipPath id="clip-path-2"><path class="cls-1" d="M151.41,301.7s-17.6,40-37.95,59.21c-1.83,5.74-3.39,9.66-3.39,9.66l30.52,24.13S153.37,360,151.41,301.7Z"/></clipPath></defs><title>1920x1080 UI Landing Page</title><path class="cls-2" d="M96.52,368.6S99,392.7,138,401.55c11.69-28.69,15.59-70.86,12.75-109.12C111,330.34,96.52,368.6,96.52,368.6Z"/><path class="cls-3" d="M138.27,402.14l-.41-.1C99,393.21,96,368.9,96,368.65v-.11l0-.11c.14-.39,15-38.81,54.33-76.36l.76-.73.08,1.05c3.06,41.31-1.72,82.18-12.79,109.35ZM97,368.66c.26,1.79,4.26,23.88,40.63,32.31,10.81-26.8,15.52-66.85,12.64-107.44C112.8,329.65,98,366.32,97,368.66Z"/><path class="cls-4" d="M43,201.37,132,197.48s-5-36.5-14.89-39.69l0-.25c-16.54,4-44.92,11.23-68.05,18.51C51,182.26,43,201.37,43,201.37Z"/><path class="cls-5" d="M96.16,95.08c-1.77-5,1.06-14.88,1.06-14.88S82.34,73.47,76,73.12s-14,3-14,3S45.14,87.47,42.66,107.66,42.13,142.38,49,176h0c23.13-7.28,51.51-14.48,68.05-18.51C119.17,137.75,117,114.49,96.16,95.08Z"/><path class="cls-5" d="M114.94,358.33c-7.44,13.46-17.36,43.58-17,48.89s8.86,7.8,14.17,7.8,22.68,1.41,22.68,1.41-1.42,8.51-16.3,8.86-41.1-1.42-41.1-1.42l-3.54-44.64Z"/><path class="cls-6" d="M114.22,426c-15,0-36.64-1.45-36.88-1.47l-.59,0-3.62-45.68,43.47-22.11-1.07,1.94c-7.53,13.63-17.25,43.63-16.92,48.52.31,4.67,8,7.16,13.49,7.16,5.29,0,22,1.36,22.74,1.42l.73.06-.12.73c-.06.37-1.68,9.06-16.95,9.42C117.16,426,115.72,426,114.22,426ZM78,423.24c4,.25,27,1.69,40.46,1.37,11.58-.27,14.67-5.6,15.42-7.57-3.52-.28-17.22-1.34-21.79-1.34-5.76,0-14.46-2.68-14.85-8.43-.35-5.38,8.88-33.32,16.08-47.36L74.55,379.63Z"/><path class="cls-5" d="M62.15,380.3l1.06,31.88S51.16,424.58,59,429.9c25.86,0,53.5,1.77,57.4.71s9.56-1.78,10.62-2.13-.7-2.83-7.44-5.31-16.65-1.07-23.38-5S82.7,410.06,82.7,398.72,93.33,358,93.33,358Z"/><path class="cls-6" d="M110.13,431.62c-4.33,0-10.46-.18-17.75-.39-9.74-.29-21.88-.65-33.42-.65h-.21l-.17-.12a6.27,6.27,0,0,1-2.89-4.7c-.57-5.61,5.6-12.52,6.83-13.84l-1.06-32,33.25-23.8L94,358.2c-.11.3-10.59,29.43-10.59,40.52,0,11.3,7,15.34,13.12,18.9,3.72,2.15,8.55,2.64,13.21,3.11a41.53,41.53,0,0,1,10.07,1.8c5,1.84,8.2,4,8.17,5.6a1,1,0,0,1-.75,1,32,32,0,0,1-3.15.62c-2.2.37-5.2.89-7.52,1.52A33.08,33.08,0,0,1,110.13,431.62Zm-51-2.4c11.5,0,23.56.36,33.26.65,12.12.36,21.69.64,23.75.08,2.38-.65,5.42-1.17,7.64-1.55,1.13-.19,2.14-.36,2.67-.49-.42-.63-2.19-2.27-7.18-4.11a40.64,40.64,0,0,0-9.73-1.72c-4.81-.49-9.78-1-13.76-3.29-6.15-3.56-13.8-8-13.8-20.07,0-9.72,7.53-32,9.94-38.94L62.84,380.64l1.06,31.81-.2.2c-.07.08-7.21,7.5-6.66,13A4.87,4.87,0,0,0,59.17,429.22Z"/><path class="cls-7" d="M45.32,194.38s-17.54,34.27-11.16,70.41,19.13,66.26,23.38,90.7-3.19,42.87-3.19,42.87,60.59-12.4,97.44-97.07c4.6-42.87,5.66-69.45-16.3-102.75C110.69,180.47,45.32,194.38,45.32,194.38Z"/><path class="cls-3" d="M53.54,399l.35-.86c.07-.19,7.34-18.59,3.16-42.6-1.92-11.06-5.67-23.55-9.64-36.76-4.81-16-10.26-34.17-13.74-53.94-6.34-35.89,11-70.39,11.2-70.73l.11-.21.23-.05c.66-.14,65.88-13.75,90.57,4.24l.12.13c22.47,34.07,20.87,61.36,16.38,103.08l0,.15c-19.08,43.85-44.63,68-62.7,80.5-19.61,13.59-34.93,16.83-35.09,16.87ZM45.66,194.82c-1.45,3-17,35.8-11,69.89,3.48,19.71,8.92,37.83,13.72,53.82,4,13.25,7.73,25.75,9.66,36.88a88.06,88.06,0,0,1-2.89,42.25c3.53-.9,17.11-4.9,33.88-16.52,17.94-12.45,43.31-36.42,62.28-80,4.45-41.42,6-68.55-16.18-102.27C111.47,181.77,50,193.93,45.66,194.82Z"/><path class="cls-8" d="M72.42,51.42C78.14,53,78.14,65.9,78.14,65.9s3,.26,5.84.26c.67-2.92-2.12-15.81-2.92-23-.77-6.88,12.16-11,29.39-11.15-.83-8.79-3.27-19.22-9.59-26.58C87.83-9.7,40.27,9.7,52.49,41.05c7.44,17.81,10.63,28.43,3.19,37.74a19.17,19.17,0,0,0,3.46-.27l14.35,2.66,1.06-5.58c-1.73-6.78-2.13-6.78-5.32-12S66.71,49.82,72.42,51.42Z"/><path class="cls-5" d="M105.6,85.88c-13.89,0-19.86-3.28-22.41-6a6.75,6.75,0,0,1-2.12-4.73l.06-.8-.8.07-5.27.48c-1.41-5.45-2-6.34-4.09-9.73l-1.16-1.86c-1.91-3.1-2.38-7.55-1.06-9.92a2.58,2.58,0,0,1,2.36-1.46,4.31,4.31,0,0,1,1.13.17c4.28,1.19,5.21,10.39,5.22,13.83v.62l.62,0s3.11.27,5.9.27h.54l.12-.53c.45-2-.49-7.72-1.5-13.8-.55-3.34-1.12-6.79-1.41-9.41A4.68,4.68,0,0,1,83,39.42c3.53-4,13.52-6.48,26.81-6.71a86,86,0,0,1-.08,16l0,.28.18.22c3.11,3.94,4.4,9.28,4.78,11.19l-6.26.52V85.83c-1,0-1.9,0-2.81,0Z"/><path class="cls-6" d="M109.21,33.41a85.51,85.51,0,0,1-.14,15.18l-.06.57.35.44a26.84,26.84,0,0,1,4.48,10.15l-4.86.41-1.25.1V85.17l-2.13,0c-13.58,0-19.39-3.13-21.87-5.76a6.21,6.21,0,0,1-2-4.26l.13-1.61-1.61.14-4.7.43a25.14,25.14,0,0,0-4-9.36l-1.15-1.85c-1.76-2.87-2.24-7.1-1-9.24a1.88,1.88,0,0,1,1.76-1.11,3.77,3.77,0,0,1,1,.14c3.84,1.08,4.72,10.1,4.72,13.18v1.24l1.24.11c.13,0,3.14.27,6,.27h1.09l.24-1.06c.44-2-.27-6.62-1.5-14.07-.55-3.32-1.11-6.76-1.4-9.36a3.94,3.94,0,0,1,1.12-3.16c3.29-3.72,13.07-6.17,25.68-6.46M110.45,32c-17.23.2-30.16,4.27-29.39,11.15.8,7.17,3.59,20.06,2.92,23-2.79,0-5.84-.26-5.84-.26s0-12.89-5.72-14.48a4.59,4.59,0,0,0-1.31-.2c-4.48,0-4.8,7.66-1.88,12.42,3.19,5.18,3.59,5.18,5.32,12l5.84-.53s-1,11.49,25.21,11.49c1.11,0,2.28,0,3.49-.07v-25l6.38-.53s-1.06-7.17-5-12.22a86.29,86.29,0,0,0,0-16.73Z"/><path class="cls-8" d="M110.16,63.37c-3.19.8-11.56,8.24-17,4.65,4.78,4.39,17.8,1.07,17.8,1.07Z"/><path class="cls-4" d="M50.44,88.32a48.74,48.74,0,0,0-7.78,18.1c38,6.38,51.82,20.46,56.87,50C98.58,112.26,68.08,94.77,50.44,88.32Z"/><path class="cls-9" d="M59.14,78.52a49.45,49.45,0,0,0-8.7,9.8c17.64,6.45,48.14,23.94,49.09,68.06C101.92,142.29,107,105.36,59.14,78.52Z"/><path class="cls-7" d="M110.58,26.44a53.59,53.59,0,0,1,5.6-19.58c-41,4.69-61.53,15.86-72.46,25.53a107.18,107.18,0,0,0-8.14,9.73L54.65,55.3C59.39,47.44,74.15,29.36,110.58,26.44Z"/><path class="cls-10" d="M105.9,7.75c-3.18-4.08-22.49-11.16-36-5.85S47.8,18.38,46.74,29.71a24.38,24.38,0,0,0-3,2.68c10.93-9.67,31.44-20.84,72.46-25.53Z"/><path class="cls-4" d="M54.65,55.3l5,3.47C77.74,40.17,86.59,35.56,110.45,32a44.81,44.81,0,0,1,.13-5.59C74.15,29.36,59.39,47.44,54.65,55.3Z"/><g class="cls-11"><path class="cls-12" d="M134.2,194.35S56.46,192.78.11,173.48"/><path class="cls-12" d="M134.44,194.42S66,202.59,2.37,189.69"/><path class="cls-12" d="M134.68,194.49S75.52,212.4,4.63,205.9"/><path class="cls-12" d="M134.93,194.56s-49.88,27.65-128,27.54"/><path class="cls-12" d="M135.17,194.63S94.58,232,9.15,238.31"/><path class="cls-12" d="M135.41,194.7s-31.3,47.13-124,59.82"/><path class="cls-12" d="M135.66,194.77s-22,56.86-122,76"/><path class="cls-12" d="M135.9,194.83s-12.73,66.61-120,92.11"/><path class="cls-12" d="M136.14,194.9S132.7,271.25,18.2,303.15"/><path class="cls-12" d="M136.39,195s5.84,86.09-115.93,124.39"/><path class="cls-12" d="M136.63,195s15.13,95.83-113.91,140.53"/><path class="cls-12" d="M136.87,195.11S161.29,300.68,25,351.77"/><path class="cls-12" d="M137.12,195.18S170.82,310.49,27.24,368"/><path class="cls-12" d="M137.36,195.25s43,125.05-107.86,188.94"/><path class="cls-12" d="M137.61,195.32S189.88,330.1,31.76,400.4"/><path class="cls-12" d="M137.85,195.39S199.41,339.91,34,416.61"/></g><path class="cls-5" d="M121.32,169.93c13.81-5.45,12.35-7.84,18.46-10s8.61-4.09,14.75-4.78c8.24-.93,10.37.8,10.1,2.66s-11.43,4.65-13.82,9.17c10.9,2.39,32.15-9,37.47-6.65-3.19,9.3-30,22.46-55.27,16.74-19.93,2.66-46,34.81-60.32,24.45l-27.9-75.73c-2.66-10.36-.71-18.34,5.84-23.39,0,0,18.73-5.85,25,12.49l10.63,69.62S111.26,173.89,121.32,169.93Z"/><path class="cls-6" d="M79.26,204.3a11.59,11.59,0,0,1-7-2.2l-.17-.12-.07-.2-27.9-75.73c-2.74-10.66-.63-19,6.07-24.15l.21-.11c.19-.06,19.43-5.84,25.82,12.91l0,.12,10.5,68.76c4.37-1.86,25.35-10.76,34.29-14.28,8-3.16,10.77-5.23,13-6.9a17.52,17.52,0,0,1,5.5-3.08c2-.68,3.61-1.37,5-2a31.78,31.78,0,0,1,9.86-2.84c5.32-.6,8.73-.17,10.15,1.28a2.46,2.46,0,0,1,.69,2.14c-.15,1.1-1.72,1.87-5,3.39-3,1.41-6.69,3.13-8.38,5.2,5.75.77,14.05-1.8,21.43-4.08,7-2.17,12.52-3.89,15.18-2.7l.56.26-.2.58c-3.16,9.23-29.56,23.12-55.94,17.21-8.24,1.15-17.68,7.49-26.8,13.62C96.38,198,87,204.3,79.26,204.3Zm-6-3.18c7.9,5.47,19.69-2.45,32.17-10.83,9.3-6.25,18.91-12.71,27.5-13.86l.12,0,.12,0c24.24,5.49,50.13-6.71,54.22-15.65-2.55-.49-7.93,1.18-13.6,2.94-8,2.48-17,5.28-23.11,3.94l-.88-.19.42-.79c1.5-2.84,6-4.92,9.55-6.6,1.69-.79,4-1.87,4.2-2.37a1.11,1.11,0,0,0-.33-1c-.62-.64-2.62-1.6-9-.88a30.3,30.3,0,0,0-9.48,2.74c-1.46.61-3.11,1.3-5.12,2a16.48,16.48,0,0,0-5.14,2.87c-2.28,1.72-5.12,3.86-13.31,7.08-9.93,3.92-34.8,14.5-35,14.61l-.81.34L75,115.09c-5.8-16.92-22.32-12.54-24-12-6.25,4.87-8.1,12.48-5.5,22.6Z"/><g class="cls-13"><path class="cls-14" d="M112,365.48s15.26-7.05,32.87,32.87"/><path class="cls-14" d="M115.13,360.41s14.16-6.48,30.63,31.09"/><path class="cls-14" d="M118.24,355.35s13.07-5.92,28.39,29.3"/><path class="cls-14" d="M121.35,350.28s12-5.35,26.15,27.52"/><path class="cls-14" d="M124.46,345.22s10.87-4.79,23.91,25.74"/><path class="cls-14" d="M127.57,340.15s9.77-4.22,21.67,24"/><path class="cls-14" d="M130.67,335.09s8.68-3.66,19.44,22.17"/><path class="cls-14" d="M133.78,330s7.58-3.09,17.2,20.39"/><path class="cls-14" d="M136.89,325s6.48-2.53,15,18.61"/><path class="cls-14" d="M140,319.89s5.38-2,12.72,16.83"/><path class="cls-14" d="M143.11,314.83s4.28-1.4,10.48,15"/><path class="cls-14" d="M146.22,309.76s3.18-.83,8.24,13.26"/><path class="cls-14" d="M149.33,304.7s2.08-.27,6,11.47"/></g></svg>