<svg id="Layer_1" data-name="Layer 1" xmlns="http://www.w3.org/2000/svg" xmlns:xlink="http://www.w3.org/1999/xlink" viewBox="0 0 254.13 431.62"><defs><style>.cls-1,.cls-12,.cls-14{fill:none;}.cls-2{fill:#be9c67;}.cls-3{fill:#461d2c;}.cls-4{fill:#bf2434;}.cls-5{fill:#d4af25;}.cls-6{fill:#d49625;}.cls-7{fill:#fdd089;}.cls-8{fill:#211f1f;}.cls-9{fill:#fff;}.cls-10{fill:#b28e90;}.cls-11{clip-path:url(#clip-path);}.cls-12,.cls-14{stroke:#461d2c;stroke-miterlimit:10;}.cls-12{stroke-width:0.68px;}.cls-13{clip-path:url(#clip-path-2);}.cls-14{stroke-width:0.5px;}.cls-15{fill:#e5c344;}.cls-16{fill:#b2203d;}.cls-17{fill:#f8ecee;}</style><clipPath id="clip-path"><path class="cls-1" d="M208.81,194.38s17.54,34.27,11.16,70.41-19.13,66.26-23.38,90.7,3.19,42.87,3.19,42.87-60.59-12.4-97.43-97.07c-4.61-42.87-5.67-69.45,16.29-102.75C143.44,180.47,208.81,194.38,208.81,194.38Z"/></clipPath><clipPath id="clip-path-2"><path class="cls-1" d="M102.72,301.7s17.61,40,37.95,59.21c1.83,5.74,3.4,9.66,3.4,9.66L113.54,394.7S100.76,360,102.72,301.7Z"/></clipPath></defs><title>1920x1080 UI Landing Page</title><path class="cls-2" d="M157.62,368.6s-2.48,24.1-41.46,32.95c-11.69-28.69-15.59-70.86-12.75-109.12C143.09,330.34,157.62,368.6,157.62,368.6Z"/><path class="cls-3" d="M115.7,401.74c-11.07-27.17-15.85-68-12.79-109.35l.08-1.05.76.73c39.31,37.55,54.19,76,54.33,76.36l0,.11,0,.11c0,.25-3,24.56-41.84,33.39l-.41.1ZM103.83,293.53C101,334.12,105.66,374.17,116.47,401c36.38-8.43,40.37-30.52,40.63-32.31C156.18,366.32,141.33,329.65,103.83,293.53Z"/><path class="cls-4" d="M211.12,201.37l-88.93-3.89s5-36.5,14.88-39.69l0-.25c16.54,4,44.92,11.23,68.05,18.51C203.15,182.26,211.12,201.37,211.12,201.37Z"/><path class="cls-5" d="M158,95.08c1.77-5-1.06-14.88-1.06-14.88s14.88-6.73,21.26-7.08,14,3,14,3S209,87.47,211.47,107.66s.53,34.72-6.38,68.38h0C182,168.77,153.58,161.57,137,157.54,135,137.75,137.16,114.49,158,95.08Z"/><path class="cls-5" d="M139.19,358.33c7.44,13.46,17.36,43.58,17,48.89S147.34,415,142,415s-22.68,1.41-22.68,1.41,1.42,8.51,16.3,8.86,41.1-1.42,41.1-1.42l3.54-44.64Z"/><path class="cls-6" d="M135.63,426c-15.26-.36-16.89-9.05-16.95-9.42l-.12-.73.74-.06c.71-.06,17.45-1.42,22.73-1.42,5.45,0,13.18-2.49,13.49-7.16.33-4.89-9.39-34.89-16.92-48.52l-1.07-1.94L181,378.83l-3.62,45.68-.59,0c-.23,0-21.87,1.47-36.87,1.47C138.41,426,137,426,135.63,426Zm44-46.34L140.8,359.91c7.2,14,16.44,42,16.08,47.36-.39,5.75-9.09,8.43-14.85,8.43-4.57,0-18.27,1.06-21.79,1.34.75,2,3.84,7.3,15.43,7.57,13.44.32,36.49-1.12,40.45-1.37Z"/><path class="cls-5" d="M192,380.3l-1.06,31.88s12.05,12.4,4.25,17.72c-25.86,0-53.5,1.77-57.39.71s-9.57-1.78-10.63-2.13.7-2.83,7.44-5.31,16.65-1.07,23.38-5,13.46-8.15,13.46-19.49S160.8,358,160.8,358Z"/><path class="cls-6" d="M137.6,431.26c-2.32-.63-5.32-1.15-7.52-1.52a32,32,0,0,1-3.15-.62,1.06,1.06,0,0,1-.75-1c0-1.57,3.18-3.76,8.17-5.6a41.53,41.53,0,0,1,10.07-1.8c4.66-.47,9.49-1,13.21-3.11,6.15-3.56,13.12-7.6,13.12-18.9,0-11.09-10.48-40.22-10.58-40.52l-.75-2.05L192.67,380l-1.06,32c1.23,1.32,7.4,8.23,6.83,13.84a6.27,6.27,0,0,1-2.89,4.7l-.17.12h-.21c-11.54,0-23.67.36-33.42.65-7.29.21-13.42.39-17.75.39A33.08,33.08,0,0,1,137.6,431.26Zm59.49-5.63c.55-5.48-6.59-12.9-6.66-13l-.2-.2,1.06-31.81-29.12-20.86c2.41,6.92,9.94,29.22,9.94,38.94,0,12.08-7.65,16.51-13.8,20.07-4,2.31-8.95,2.8-13.76,3.29a40.64,40.64,0,0,0-9.73,1.72c-5,1.84-6.76,3.48-7.18,4.11.53.13,1.54.3,2.67.49,2.22.38,5.26.9,7.64,1.55,2.06.56,11.64.28,23.76-.08,9.69-.29,21.75-.65,33.25-.65A4.87,4.87,0,0,0,197.09,425.63Z"/><path class="cls-7" d="M208.81,194.38s17.54,34.27,11.16,70.41-19.13,66.26-23.38,90.7,3.19,42.87,3.19,42.87-60.59-12.4-97.43-97.07c-4.61-42.87-5.67-69.45,16.29-102.75C143.44,180.47,208.81,194.38,208.81,194.38Z"/><path class="cls-3" d="M199.68,398.86c-.15,0-15.48-3.28-35.09-16.87-18.07-12.52-43.62-36.65-62.7-80.5l0-.15c-4.48-41.72-6.09-69,16.38-103.08l.12-.13c24.7-18,89.91-4.38,90.57-4.24l.23.05.11.21c.17.34,17.54,34.84,11.2,70.73-3.48,19.77-8.93,37.92-13.74,53.94-4,13.21-7.71,25.7-9.64,36.76-4.17,24,3.09,42.41,3.16,42.6l.35.86ZM119,198.89c-22.21,33.72-20.62,60.85-16.17,102.27,19,43.56,44.33,67.53,62.28,80,16.76,11.62,30.35,15.62,33.87,16.52a88.19,88.19,0,0,1-2.89-42.25c1.93-11.13,5.69-23.63,9.66-36.88,4.8-16,10.24-34.11,13.72-53.82,6-34.09-9.56-66.94-11-69.89C204.15,193.93,142.66,181.77,119,198.89Z"/><path class="cls-8" d="M181.71,51.42C176,53,176,65.9,176,65.9s-3.06.26-5.85.26c-.66-2.92,2.13-15.81,2.92-23,.77-6.88-12.16-11-29.39-11.15.84-8.79,3.27-19.22,9.6-26.58,13-15.15,60.58,4.25,48.36,35.6C194.2,58.86,191,69.48,198.45,78.79a19.17,19.17,0,0,1-3.46-.27l-14.34,2.66-1.07-5.58c1.73-6.78,2.13-6.78,5.32-12S187.42,49.82,181.71,51.42Z"/><path class="cls-5" d="M148.53,85.88c13.89,0,19.86-3.28,22.41-6a6.75,6.75,0,0,0,2.12-4.73l-.06-.8.8.07,5.27.48c1.41-5.45,2-6.34,4.09-9.73l1.16-1.86c1.91-3.1,2.38-7.55,1.06-9.92A2.58,2.58,0,0,0,183,51.9a4.31,4.31,0,0,0-1.13.17c-4.27,1.19-5.21,10.39-5.22,13.83v.62l-.62,0s-3.11.27-5.9.27h-.54l-.12-.53c-.45-2,.49-7.72,1.5-13.8.55-3.34,1.12-6.79,1.41-9.41a4.68,4.68,0,0,0-1.29-3.68c-3.52-4-13.52-6.48-26.81-6.71a88.18,88.18,0,0,0,.08,16l0,.28-.18.22c-3.11,3.94-4.4,9.28-4.78,11.19l6.26.52V85.83c1,0,1.91,0,2.81,0Z"/><path class="cls-6" d="M144.93,33.41c12.6.29,22.38,2.74,25.67,6.46A3.94,3.94,0,0,1,171.72,43c-.29,2.6-.85,6-1.4,9.36-1.23,7.45-1.94,12.11-1.49,14.07l.24,1.06h1.08c2.82,0,5.84-.26,6-.27l1.24-.11V65.9c0-3.08.88-12.1,4.72-13.18a3.77,3.77,0,0,1,1-.14,1.9,1.9,0,0,1,1.77,1.11c1.19,2.14.71,6.37-1,9.24l-1.15,1.85a25.14,25.14,0,0,0-4,9.36l-4.7-.43-1.61-.14.13,1.61a6.15,6.15,0,0,1-2,4.26c-2.48,2.63-8.29,5.76-21.87,5.76l-2.13,0V60.26l-1.25-.1-4.86-.41a26.73,26.73,0,0,1,4.49-10.15l.35-.44-.07-.57a85,85,0,0,1-.13-15.18M143.68,32a86.29,86.29,0,0,0,0,16.73c-4,5.05-5.05,12.22-5.05,12.22l6.38.53v25c1.21,0,2.38.07,3.49.07,26.18,0,25.21-11.49,25.21-11.49l5.84.53c1.73-6.78,2.13-6.78,5.32-12,2.92-4.76,2.61-12.42-1.88-12.42a4.59,4.59,0,0,0-1.31.2C176,53,176,65.9,176,65.9s-3.06.26-5.85.26c-.66-2.92,2.13-15.81,2.92-23,.77-6.88-12.16-11-29.39-11.15Z"/><path class="cls-8" d="M144,63.37c3.18.8,11.55,8.24,17,4.65-4.78,4.39-17.8,1.07-17.8,1.07Z"/><path class="cls-4" d="M203.69,88.32a48.74,48.74,0,0,1,7.78,18.1c-38,6.38-51.82,20.46-56.87,50C155.55,112.26,186.05,94.77,203.69,88.32Z"/><path class="cls-9" d="M195,78.52a49.45,49.45,0,0,1,8.7,9.8c-17.64,6.45-48.14,23.94-49.09,68.06C152.21,142.29,147.16,105.36,195,78.52Z"/><path class="cls-7" d="M143.55,26.44A53.59,53.59,0,0,0,138,6.86c41,4.69,61.53,15.86,72.46,25.53a106.24,106.24,0,0,1,8.15,9.73L199.48,55.3C194.74,47.44,180,29.36,143.55,26.44Z"/><path class="cls-10" d="M148.23,7.75c3.19-4.08,22.5-11.16,36-5.85s22.14,16.48,23.21,27.81a25.11,25.11,0,0,1,3,2.68C199.48,22.72,179,11.55,138,6.86Z"/><path class="cls-4" d="M199.48,55.3l-5,3.47C176.39,40.17,167.54,35.56,143.68,32a43,43,0,0,0-.13-5.59C180,29.36,194.74,47.44,199.48,55.3Z"/><g class="cls-11"><path class="cls-12" d="M119.93,194.35s77.74-1.57,134.09-20.87"/><path class="cls-12" d="M119.69,194.42s68.45,8.17,132.07-4.73"/><path class="cls-12" d="M119.45,194.49S178.61,212.4,249.5,205.9"/><path class="cls-12" d="M119.2,194.56s49.88,27.65,128,27.54"/><path class="cls-12" d="M119,194.63S159.55,232,245,238.31"/><path class="cls-12" d="M118.72,194.7s31.3,47.13,124,59.82"/><path class="cls-12" d="M118.47,194.77s22,56.86,122,76"/><path class="cls-12" d="M118.23,194.83s12.73,66.61,120,92.11"/><path class="cls-12" d="M118,194.9s3.44,76.35,117.94,108.25"/><path class="cls-12" d="M117.74,195s-5.84,86.09,115.93,124.39"/><path class="cls-12" d="M117.5,195s-15.13,95.83,113.91,140.53"/><path class="cls-12" d="M117.26,195.11S92.84,300.68,229.15,351.77"/><path class="cls-12" d="M117,195.18S83.31,310.49,226.89,368"/><path class="cls-12" d="M116.77,195.25s-43,125.05,107.86,188.94"/><path class="cls-12" d="M116.53,195.32S64.25,330.1,222.37,400.4"/><path class="cls-12" d="M116.28,195.39S54.72,339.91,220.11,416.61"/></g><path class="cls-5" d="M132.82,169.93c-13.82-5.45-12.36-7.84-18.47-10s-8.61-4.09-14.75-4.78c-8.24-.93-10.36.8-10.1,2.66s11.43,4.65,13.82,9.17c-10.9,2.39-32.15-9-37.47-6.65,3.19,9.3,30,22.46,55.27,16.74,19.93,2.66,46,34.81,60.32,24.45l27.9-75.73c2.66-10.36.71-18.34-5.84-23.39,0,0-18.73-5.85-25,12.49l-10.63,69.62S142.87,173.89,132.82,169.93Z"/><path class="cls-6" d="M148,191.41c-9.13-6.13-18.57-12.47-26.81-13.62-26.38,5.91-52.77-8-55.94-17.21L65,160l.56-.26c2.66-1.19,8.19.53,15.18,2.7,7.38,2.28,15.68,4.85,21.43,4.08-1.69-2.07-5.36-3.79-8.38-5.2-3.25-1.52-4.81-2.29-5-3.39a2.46,2.46,0,0,1,.69-2.14c1.42-1.45,4.83-1.88,10.16-1.28a31.79,31.79,0,0,1,9.85,2.84c1.44.6,3.07,1.29,5,2a17.69,17.69,0,0,1,5.51,3.08c2.21,1.67,5,3.74,13,6.9,8.94,3.52,29.92,12.42,34.29,14.28l10.5-68.76,0-.12c6.39-18.75,25.63-13,25.82-12.91l.21.11c6.7,5.16,8.81,13.49,6.07,24.15l-27.9,75.73-.07.2-.17.12a11.59,11.59,0,0,1-7,2.2C167.13,204.3,157.75,198,148,191.41Zm60.73-65.76c2.59-10.12.74-17.73-5.51-22.6-1.68-.5-18.19-4.88-24,12l-10.75,70.42-.8-.34c-.25-.11-25.13-10.69-35.06-14.61-8.19-3.22-11-5.36-13.31-7.08a16.42,16.42,0,0,0-5.13-2.87c-2-.71-3.67-1.4-5.13-2a30.3,30.3,0,0,0-9.48-2.74c-6.4-.72-8.4.24-9,.88a1.11,1.11,0,0,0-.33,1c.2.5,2.52,1.58,4.21,2.37,3.58,1.68,8,3.76,9.54,6.6l.42.79-.88.19c-6.1,1.34-15.14-1.46-23.11-3.94-5.67-1.76-11-3.43-13.6-2.94,4.09,8.94,30,21.14,54.22,15.65l.12,0,.12,0c8.59,1.15,18.2,7.61,27.5,13.86,12.48,8.38,24.27,16.3,32.17,10.83Z"/><g class="cls-13"><path class="cls-14" d="M142.11,365.48s-15.26-7.05-32.87,32.87"/><path class="cls-14" d="M139,360.41s-14.16-6.48-30.63,31.09"/><path class="cls-14" d="M135.89,355.35s-13.06-5.92-28.39,29.3"/><path class="cls-14" d="M132.78,350.28s-12-5.35-26.15,27.52"/><path class="cls-14" d="M129.67,345.22S118.8,340.43,105.76,371"/><path class="cls-14" d="M126.57,340.15s-9.78-4.22-21.68,24"/><path class="cls-14" d="M123.46,335.09s-8.68-3.66-19.44,22.17"/><path class="cls-14" d="M120.35,330s-7.58-3.09-17.2,20.39"/><path class="cls-14" d="M117.24,325s-6.48-2.53-15,18.61"/><path class="cls-14" d="M114.13,319.89s-5.38-2-12.72,16.83"/><path class="cls-14" d="M111,314.83s-4.28-1.4-10.48,15"/><path class="cls-14" d="M107.91,309.76s-3.18-.83-8.24,13.26"/><path class="cls-14" d="M104.8,304.7s-2.08-.27-6,11.47"/></g><circle class="cls-3" cx="46.75" cy="91.1" r="46.75"/><path class="cls-15" d="M43,74.53,37.33,58.34a.53.53,0,0,0-.67-.33.54.54,0,0,0-.33.68L42,74.79A16.85,16.85,0,0,0,37,77.17L27.26,65.45a10.47,10.47,0,0,1-1.11-11.79l.29-.51A10.47,10.47,0,0,1,46,57.4l1.34,16.73c-.21,0-.42,0-.63,0A17.17,17.17,0,0,0,43,74.53Z"/><path class="cls-15" d="M32.86,81.32,18,74.11a.53.53,0,0,0-.71.25.53.53,0,0,0,.24.71l14.77,7.15a16.72,16.72,0,0,0-2.15,5.37L15.84,86.25a10.46,10.46,0,0,1-9.1-7.57l-.16-.56A10.48,10.48,0,0,1,23.47,67.3L35.94,78A17.12,17.12,0,0,0,32.86,81.32Z"/><path class="cls-15" d="M4.82,99.7a10.48,10.48,0,0,1,9.64-9.45l15.42-1.17a17,17,0,0,0-.13,2A17.37,17.37,0,0,0,30,93.91L15.36,99a.53.53,0,0,0-.32.68.53.53,0,0,0,.5.36.51.51,0,0,0,.17,0l14.5-5a16.82,16.82,0,0,0,2.45,5.65l-10.23,8.45a10.49,10.49,0,0,1-11.8,1l-.51-.28A10.48,10.48,0,0,1,4.82,99.7Z"/><path class="cls-15" d="M37.45,105.32l-6.4,13.07a.54.54,0,0,0,.24.72.59.59,0,0,0,.23,0,.53.53,0,0,0,.48-.3l6.36-13a17,17,0,0,0,6.06,2l-1.24,12.65a10.47,10.47,0,0,1-7.62,9.07l-.56.16a10.48,10.48,0,0,1-10.74-16.94L33.68,102A17,17,0,0,0,37.45,105.32Z"/><path class="cls-15" d="M51.24,107.48l4.64,13.63a.53.53,0,0,0,.5.36.51.51,0,0,0,.17,0,.52.52,0,0,0,.33-.67l-4.62-13.6A16.9,16.9,0,0,0,57.78,104L66,114.09a10.48,10.48,0,0,1,1,11.81l-.28.51A10.48,10.48,0,0,1,47.17,122l-1-13.9c.19,0,.38,0,.57,0A17,17,0,0,0,51.24,107.48Z"/><path class="cls-15" d="M75.39,105.52a.53.53,0,0,0,.47-1L62.34,97.86A17,17,0,0,0,63.71,92L77.62,93.4a10.47,10.47,0,0,1,9,7.65l.15.57a10.47,10.47,0,0,1-17,10.65L59,102.85a17.13,17.13,0,0,0,2.86-4Z"/><path class="cls-15" d="M78.22,80.7a.52.52,0,0,0,.33-.67.53.53,0,0,0-.67-.34L62.54,84.83A16.91,16.91,0,0,0,59.59,80l11.66-9.45a10.47,10.47,0,0,1,11.81-.94l.5.29A10.47,10.47,0,0,1,79,89.42l-15.32,1a17.54,17.54,0,0,0-.81-4.61Z"/><path class="cls-15" d="M62.72,61.12a.54.54,0,0,0-.24-.72.53.53,0,0,0-.71.24L54.16,75.82A16.66,16.66,0,0,0,49,74.26L50.6,58.83a10.51,10.51,0,0,1,7.71-9l.56-.15a10.48,10.48,0,0,1,10.58,17L58.66,79A17.26,17.26,0,0,0,55.1,76.3Z"/><path class="cls-16" d="M36.33,58.69a.54.54,0,0,1,.33-.68.53.53,0,0,1,.67.33L43,74.53c-.35.08-.69.16-1,.26Z"/><path class="cls-16" d="M17.5,75.07a.53.53,0,0,1-.24-.71.53.53,0,0,1,.71-.25l14.89,7.21c-.21.29-.4.6-.59.9Z"/><path class="cls-16" d="M15.71,100a.51.51,0,0,1-.17,0,.53.53,0,0,1-.5-.36.53.53,0,0,1,.32-.68l14.64-5q.09.53.21,1Z"/><path class="cls-16" d="M32,118.86a.53.53,0,0,1-.48.3.59.59,0,0,1-.23,0,.54.54,0,0,1-.24-.72l6.4-13.07c.3.2.6.38.91.56Z"/><path class="cls-16" d="M56.88,120.77a.52.52,0,0,1-.33.67.51.51,0,0,1-.17,0,.53.53,0,0,1-.5-.36l-4.64-13.63,1-.31Z"/><path class="cls-16" d="M75.86,104.57a.52.52,0,0,1,.24.71.54.54,0,0,1-.71.24l-13.51-6.7c.16-.31.32-.63.46-1Z"/><path class="cls-16" d="M77.88,79.69a.53.53,0,0,1,.67.34.52.52,0,0,1-.33.67L62.91,85.82c-.11-.33-.24-.66-.37-1Z"/><path class="cls-16" d="M61.77,60.64a.53.53,0,0,1,.71-.24.54.54,0,0,1,.24.72L55.1,76.3c-.31-.17-.62-.33-.94-.48Z"/><path class="cls-16" d="M44.42,89.5a.54.54,0,0,0-.68-.33l-2.11.73-.42-1.28.53,0,.76-1.5,2,1a.46.46,0,0,0,.23.06.53.53,0,0,0,.48-.3A.52.52,0,0,0,45,87.2l-2-1,.61-1.2.34.41,1.59-.53L46.25,87a.54.54,0,0,0,.5.35.57.57,0,0,0,.18,0,.53.53,0,0,0,.32-.68l-.74-2.1,1.38-.46-.06.58,1.49.77-1,2a.54.54,0,0,0,.24.72.47.47,0,0,0,.24,0,.51.51,0,0,0,.47-.29l1-2,1.19.62-.41.34.51,1.6-2.14.71a.53.53,0,0,0-.33.67.53.53,0,0,0,.5.36l.17,0,2.12-.71.41,1.28-.53-.06L51,92.23l-2-1a.54.54,0,0,0-.72.24.53.53,0,0,0,.24.71l2,1-.61,1.19L49.54,94,48,94.47l-.72-2.12a.53.53,0,1,0-1,.34l.72,2.11-1.28.41.05-.53-1.49-.76,1-2a.53.53,0,1,0-1-.47l-1,2-1.19-.61.41-.33L42,90.9l2.13-.73A.53.53,0,0,0,44.42,89.5Z"/><path class="cls-16" d="M46.93,87.35a.57.57,0,0,1-.18,0,.54.54,0,0,1-.5-.35l-.74-2.13,1-.33.74,2.1A.53.53,0,0,1,46.93,87.35Z"/><polygon class="cls-16" points="43.76 84.67 43.58 85.03 42.09 83.24 43.76 84.67"/><path class="cls-16" d="M45.23,87.91a.53.53,0,0,1-.48.3.46.46,0,0,1-.23-.06l-2-1,.47-1,2,1A.52.52,0,0,1,45.23,87.91Z"/><polygon class="cls-16" points="41.09 88.24 41.22 88.62 38.9 88.41 41.09 88.24"/><path class="cls-16" d="M43.74,89.17a.54.54,0,0,1,.68.33.53.53,0,0,1-.33.67L42,90.9l-.33-1Z"/><polygon class="cls-16" points="41.72 92.65 42.08 92.83 40.29 94.31 41.72 92.65"/><path class="cls-16" d="M45,91.19a.54.54,0,0,1,.24.72l-1,2-.95-.48,1-2A.54.54,0,0,1,45,91.19Z"/><polygon class="cls-16" points="45.28 95.34 45.66 95.21 45.44 97.52 45.28 95.34"/><path class="cls-16" d="M46.55,92a.55.55,0,0,1,.68.34L48,94.47l-1,.33-.72-2.11A.55.55,0,0,1,46.55,92Z"/><polygon class="cls-16" points="49.7 94.73 49.88 94.37 51.35 96.17 49.7 94.73"/><path class="cls-16" d="M48.25,91.47a.54.54,0,0,1,.72-.24l2,1-.49,1-2-1A.53.53,0,0,1,48.25,91.47Z"/><polygon class="cls-16" points="52.4 91.18 52.27 90.8 54.58 91.03 52.4 91.18"/><path class="cls-16" d="M49.58,90.25a.53.53,0,0,1-.5-.36.53.53,0,0,1,.33-.67l2.14-.71.32,1-2.12.71Z"/><polygon class="cls-16" points="48.17 84.02 47.9 84.11 48.05 82.62 48.17 84.02"/><polygon class="cls-16" points="51.81 86.76 51.45 86.57 53.26 85.11 51.81 86.76"/><path class="cls-16" d="M48.79,88.24a.47.47,0,0,1-.24,0,.54.54,0,0,1-.24-.72l1-2,.94.49-1,2A.51.51,0,0,1,48.79,88.24Z"/><path class="cls-16" d="M46.51,84.57l-1,.33-1.59.53L43.58,85l.18-.35-1.67-1.43L37,77.17A16.85,16.85,0,0,1,42,74.79c.34-.1.68-.18,1-.26a17.17,17.17,0,0,1,3.75-.43c.21,0,.42,0,.63,0l.67,8.49-.16,1.49Z"/><path class="cls-16" d="M43,86.22l-.47,1-.76,1.5-.53,0-.12-.38-2.19.16-8.78-.81a16.72,16.72,0,0,1,2.15-5.37c.19-.3.38-.61.59-.9A17.12,17.12,0,0,1,35.94,78l6.15,5.26L43.58,85Z"/><path class="cls-16" d="M29.88,89.08l9-.68,2.31.22.42,1.28.33,1,.53,1.6-.41.33-.36-.18-1.43,1.66-7.63,6.3A16.82,16.82,0,0,1,30.21,95q-.12-.52-.21-1a17.37,17.37,0,0,1-.25-2.81A17,17,0,0,1,29.88,89.08Z"/><path class="cls-16" d="M43.27,93.44l.95.48,1.49.76-.05.53-.38.13.16,2.18-1,10.4a17,17,0,0,1-6.06-2c-.31-.18-.61-.36-.91-.56A17,17,0,0,1,33.68,102l6.61-7.65,1.79-1.48Z"/><path class="cls-16" d="M46.94,94.8l1-.33L49.54,94l.34.41-.18.36,1.65,1.44L57.78,104a16.9,16.9,0,0,1-5.52,3.15l-1,.31a17,17,0,0,1-4.49.62c-.19,0-.38,0-.57,0l-.74-10.55.22-2.31Z"/><path class="cls-16" d="M50.49,93.18l.49-1,.77-1.49.53.06.12.38L54.58,91l9.13.94a17,17,0,0,1-1.37,5.89c-.14.33-.3.65-.46,1a17.13,17.13,0,0,1-2.86,4l-7.67-6.68-1.47-1.8Z"/><path class="cls-16" d="M51.87,89.52l-.32-1L51,86.91l.41-.34.36.19,1.44-1.65L59.59,80a16.91,16.91,0,0,1,2.95,4.85c.13.33.26.66.37,1a17.54,17.54,0,0,1,.81,4.61l-9.14.6-2.3-.23Z"/><path class="cls-16" d="M50.26,86l-.94-.49-1.49-.77.06-.58.28-.09-.12-1.4.9-8.36a16.66,16.66,0,0,1,5.21,1.56c.32.15.63.31.94.48A17.26,17.26,0,0,1,58.66,79l-5.41,6.14-1.8,1.46Z"/><circle class="cls-17" cx="46.75" cy="91.1" r="11.33" transform="translate(-55.31 99.43) rotate(-67.5)"/><path class="cls-16" d="M41.08,91.1a5.67,5.67,0,1,0,5.67-5.67A5.67,5.67,0,0,0,41.08,91.1Z"/></svg>