<svg id="Layer_1" data-name="Layer 1" xmlns="http://www.w3.org/2000/svg" xmlns:xlink="http://www.w3.org/1999/xlink" viewBox="0 0 189.12 431.62"><defs><style>.cls-1,.cls-12,.cls-14{fill:none;}.cls-2{fill:#be9c67;}.cls-3{fill:#461d2c;}.cls-4{fill:#bf2434;}.cls-5{fill:#d4af25;}.cls-6{fill:#d49625;}.cls-7{fill:#fdd089;}.cls-8{fill:#211f1f;}.cls-9{fill:#fff;}.cls-10{fill:#b28e90;}.cls-11{clip-path:url(#clip-path);}.cls-12,.cls-14{stroke:#461d2c;stroke-miterlimit:10;}.cls-12{stroke-width:0.68px;}.cls-13{clip-path:url(#clip-path-2);}.cls-14{stroke-width:0.5px;}</style><clipPath id="clip-path"><path class="cls-1" d="M143.8,194.38s17.54,34.27,11.16,70.41-19.13,66.26-23.38,90.7,3.19,42.87,3.19,42.87S74.18,386,37.34,301.29c-4.61-42.87-5.67-69.45,16.29-102.75C78.43,180.47,143.8,194.38,143.8,194.38Z"/></clipPath><clipPath id="clip-path-2"><path class="cls-1" d="M37.71,301.7s17.61,40,37.95,59.21c1.83,5.74,3.4,9.66,3.4,9.66L48.53,394.7S35.75,360,37.71,301.7Z"/></clipPath></defs><title>1920x1080 UI Landing Page</title><path class="cls-2" d="M92.61,368.6s-2.48,24.1-41.46,32.95C39.46,372.86,35.56,330.69,38.4,292.43,78.08,330.34,92.61,368.6,92.61,368.6Z"/><path class="cls-3" d="M50.69,401.74c-11.07-27.17-15.85-68-12.79-109.35l.08-1.05.76.73c39.31,37.55,54.19,76,54.33,76.36l.05.11,0,.11c0,.25-3,24.56-41.84,33.39l-.41.1ZM38.82,293.53C35.94,334.12,40.65,374.17,51.46,401c36.38-8.43,40.37-30.52,40.63-32.31C91.17,366.32,76.32,329.65,38.82,293.53Z"/><path class="cls-4" d="M146.11,201.37l-88.93-3.89s5-36.5,14.88-39.69l0-.25c16.54,4,44.92,11.23,68.05,18.51C138.14,182.26,146.11,201.37,146.11,201.37Z"/><path class="cls-5" d="M93,95.08c1.77-5-1.06-14.88-1.06-14.88s14.88-6.73,21.26-7.08,14,3,14,3S144,87.47,146.46,107.66s.53,34.72-6.38,68.38h0C117,168.77,88.57,161.57,72,157.54,70,137.75,72.15,114.49,93,95.08Z"/><path class="cls-5" d="M74.18,358.33c7.44,13.46,17.36,43.58,17,48.89S82.33,415,77,415s-22.68,1.41-22.68,1.41,1.42,8.51,16.3,8.86,41.1-1.42,41.1-1.42l3.54-44.64Z"/><path class="cls-6" d="M70.62,426c-15.26-.36-16.89-9.05-17-9.42l-.12-.73.74-.06c.71-.06,17.45-1.42,22.73-1.42,5.45,0,13.18-2.49,13.49-7.16.33-4.89-9.39-34.89-16.92-48.52l-1.07-1.94L116,378.83l-3.62,45.68-.59,0c-.23,0-21.87,1.47-36.87,1.47C73.4,426,72,426,70.62,426Zm43.95-46.34L75.79,359.91c7.2,14,16.44,42,16.08,47.36C91.48,413,82.78,415.7,77,415.7c-4.57,0-18.27,1.06-21.79,1.34.75,2,3.84,7.3,15.43,7.57,13.44.32,36.49-1.12,40.45-1.37Z"/><path class="cls-5" d="M127,380.3l-1.06,31.88s12.05,12.4,4.25,17.72c-25.86,0-53.5,1.77-57.39.71s-9.57-1.78-10.63-2.13.71-2.83,7.44-5.31,16.65-1.07,23.38-5,13.46-8.15,13.46-19.49S95.8,358,95.8,358Z"/><path class="cls-6" d="M72.59,431.26c-2.32-.63-5.32-1.15-7.52-1.52a32,32,0,0,1-3.15-.62,1.06,1.06,0,0,1-.75-1c0-1.57,3.18-3.76,8.17-5.6a41.53,41.53,0,0,1,10.07-1.8c4.66-.47,9.49-1,13.21-3.11,6.15-3.56,13.13-7.6,13.13-18.9,0-11.09-10.49-40.22-10.59-40.52l-.75-2.05L127.66,380l-1.06,32c1.23,1.32,7.4,8.23,6.83,13.84a6.27,6.27,0,0,1-2.89,4.7l-.17.12h-.21c-11.54,0-23.67.36-33.42.65-7.29.21-13.42.39-17.75.39A33.08,33.08,0,0,1,72.59,431.26Zm59.49-5.63c.55-5.48-6.58-12.9-6.66-13l-.2-.2,1.06-31.81L97.16,359.78c2.41,6.92,9.94,29.22,9.94,38.94,0,12.08-7.65,16.51-13.8,20.07-4,2.31-9,2.8-13.76,3.29a40.64,40.64,0,0,0-9.73,1.72c-5,1.84-6.76,3.48-7.18,4.11.53.13,1.54.3,2.67.49,2.22.38,5.26.9,7.64,1.55,2.06.56,11.64.28,23.76-.08,9.69-.29,21.75-.65,33.25-.65A4.87,4.87,0,0,0,132.08,425.63Z"/><path class="cls-7" d="M143.8,194.38s17.54,34.27,11.16,70.41-19.13,66.26-23.38,90.7,3.19,42.87,3.19,42.87S74.18,386,37.34,301.29c-4.61-42.87-5.67-69.45,16.29-102.75C78.43,180.47,143.8,194.38,143.8,194.38Z"/><path class="cls-3" d="M134.67,398.86c-.15,0-15.48-3.28-35.09-16.87-18.07-12.52-43.62-36.65-62.7-80.5l0-.15c-4.48-41.72-6.09-69,16.38-103.08l.12-.13c24.7-18,89.91-4.38,90.57-4.24l.23.05.11.21c.17.34,17.54,34.84,11.2,70.73-3.48,19.77-8.93,37.92-13.74,53.94-4,13.21-7.71,25.7-9.64,36.76-4.17,24,3.09,42.41,3.16,42.6l.35.86ZM54,198.89c-22.21,33.72-20.62,60.85-16.17,102.27,19,43.56,44.33,67.53,62.28,80,16.77,11.62,30.35,15.62,33.87,16.52a88.19,88.19,0,0,1-2.89-42.25c1.93-11.13,5.69-23.63,9.66-36.88,4.8-16,10.24-34.11,13.72-53.82,6-34.09-9.56-66.94-11-69.89C139.14,193.93,77.65,181.77,54,198.89Z"/><path class="cls-8" d="M116.7,51.42C111,53,111,65.9,111,65.9s-3.06.26-5.85.26c-.66-2.92,2.13-15.81,2.92-23,.77-6.88-12.16-11-29.39-11.15.84-8.79,3.27-19.22,9.6-26.58,13-15.15,60.58,4.25,48.36,35.6-7.44,17.81-10.63,28.43-3.19,37.74a19,19,0,0,1-3.45-.27l-14.35,2.66-1.07-5.58c1.73-6.78,2.13-6.78,5.32-12S122.41,49.82,116.7,51.42Z"/><path class="cls-5" d="M83.52,85.88c13.89,0,19.86-3.28,22.41-6a6.75,6.75,0,0,0,2.12-4.73l-.06-.8.8.07,5.27.48c1.41-5.45,2-6.34,4.09-9.73.34-.54.73-1.15,1.16-1.86,1.91-3.1,2.38-7.55,1.06-9.92A2.58,2.58,0,0,0,118,51.9a4.31,4.31,0,0,0-1.13.17c-4.27,1.19-5.21,10.39-5.22,13.83v.62l-.62,0s-3.11.27-5.9.27h-.54l-.12-.53c-.45-2,.49-7.72,1.5-13.8.55-3.34,1.12-6.79,1.41-9.41a4.68,4.68,0,0,0-1.29-3.68c-3.52-4-13.52-6.48-26.81-6.71a88.18,88.18,0,0,0,.08,16l0,.28-.18.22c-3.11,3.94-4.4,9.28-4.78,11.19l6.26.52V85.83c1,0,1.91,0,2.81,0Z"/><path class="cls-6" d="M79.92,33.41c12.6.29,22.38,2.74,25.67,6.46A3.94,3.94,0,0,1,106.71,43c-.29,2.6-.85,6-1.4,9.36-1.23,7.45-1.94,12.11-1.49,14.07l.24,1.06h1.08c2.82,0,5.84-.26,6-.27l1.24-.11V65.9c0-3.08.88-12.1,4.72-13.18a3.77,3.77,0,0,1,1-.14,1.9,1.9,0,0,1,1.77,1.11c1.19,2.14.71,6.37-1,9.24l-1.15,1.85a25.14,25.14,0,0,0-4,9.36l-4.7-.43-1.61-.14.13,1.61a6.15,6.15,0,0,1-2,4.26c-2.48,2.63-8.29,5.76-21.87,5.76l-2.13,0V60.26l-1.25-.1-4.86-.41A26.73,26.73,0,0,1,79.77,49.6l.35-.44-.07-.57a85,85,0,0,1-.13-15.18M78.67,32a86.29,86.29,0,0,0,0,16.73c-4,5.05-5,12.22-5,12.22l6.38.53v25c1.21,0,2.38.07,3.49.07,26.18,0,25.21-11.49,25.21-11.49l5.84.53c1.73-6.78,2.13-6.78,5.32-12,2.92-4.76,2.61-12.42-1.88-12.42a4.59,4.59,0,0,0-1.31.2C111,53,111,65.9,111,65.9s-3.06.26-5.85.26c-.66-2.92,2.13-15.81,2.92-23,.77-6.88-12.16-11-29.39-11.15Z"/><path class="cls-8" d="M79,63.37c3.18.8,11.55,8.24,17,4.65-4.78,4.39-17.8,1.07-17.8,1.07Z"/><path class="cls-4" d="M138.68,88.32a48.74,48.74,0,0,1,7.78,18.1c-38,6.38-51.82,20.46-56.87,50C90.54,112.26,121,94.77,138.68,88.32Z"/><path class="cls-9" d="M130,78.52a49.61,49.61,0,0,1,8.69,9.8C121,94.77,90.54,112.26,89.59,156.38,87.2,142.29,82.15,105.36,130,78.52Z"/><path class="cls-7" d="M78.55,26.44A53.71,53.71,0,0,0,72.94,6.86c41,4.69,61.53,15.86,72.46,25.53a106.24,106.24,0,0,1,8.15,9.73L134.47,55.3C129.73,47.44,115,29.36,78.55,26.44Z"/><path class="cls-10" d="M83.22,7.75c3.19-4.08,22.5-11.16,36-5.85s22.14,16.48,23.21,27.81a25.11,25.11,0,0,1,3,2.68C134.47,22.72,114,11.55,72.94,6.86Z"/><path class="cls-4" d="M134.47,55.3l-5,3.47C111.38,40.17,102.53,35.56,78.67,32a44.85,44.85,0,0,0-.12-5.59C115,29.36,129.73,47.44,134.47,55.3Z"/><g class="cls-11"><path class="cls-12" d="M54.92,194.35s77.74-1.57,134.09-20.87"/><path class="cls-12" d="M54.68,194.42s68.45,8.17,132.07-4.73"/><path class="cls-12" d="M54.44,194.49S113.6,212.4,184.49,205.9"/><path class="cls-12" d="M54.19,194.56s49.88,27.65,128,27.54"/><path class="cls-12" d="M54,194.63S94.54,232,180,238.31"/><path class="cls-12" d="M53.71,194.7s31.3,47.13,124,59.82"/><path class="cls-12" d="M53.46,194.77s22,56.86,122,76"/><path class="cls-12" d="M53.22,194.83s12.73,66.61,120,92.11"/><path class="cls-12" d="M53,194.9s3.44,76.35,117.94,108.25"/><path class="cls-12" d="M52.73,195s-5.84,86.09,115.93,124.39"/><path class="cls-12" d="M52.49,195S37.36,290.87,166.4,335.57"/><path class="cls-12" d="M52.25,195.11S27.83,300.68,164.14,351.77"/><path class="cls-12" d="M52,195.18S18.3,310.49,161.88,368"/><path class="cls-12" d="M51.76,195.25S8.77,320.3,159.62,384.19"/><path class="cls-12" d="M51.52,195.32S-.76,330.1,157.36,400.4"/><path class="cls-12" d="M51.27,195.39S-10.29,339.91,155.1,416.61"/></g><path class="cls-5" d="M67.81,169.93c-13.82-5.45-12.36-7.84-18.47-10s-8.61-4.09-14.75-4.78c-8.24-.93-10.36.8-10.1,2.66s11.43,4.65,13.82,9.17c-10.9,2.39-32.15-9-37.47-6.65,3.19,9.3,30,22.46,55.27,16.74,19.93,2.66,46,34.81,60.32,24.45l27.9-75.73c2.66-10.36.71-18.34-5.84-23.39,0,0-18.73-5.85-25,12.49l-10.63,69.62S77.86,173.89,67.81,169.93Z"/><path class="cls-6" d="M83,191.41c-9.13-6.13-18.57-12.47-26.81-13.62-26.38,5.91-52.77-8-55.94-17.21L0,160l.56-.26c2.66-1.19,8.19.53,15.19,2.7,7.37,2.28,15.67,4.85,21.42,4.08-1.69-2.07-5.36-3.79-8.38-5.2-3.25-1.52-4.81-2.29-5-3.39a2.46,2.46,0,0,1,.69-2.14c1.42-1.45,4.83-1.88,10.16-1.28a31.79,31.79,0,0,1,9.85,2.84c1.44.6,3.07,1.29,5,2a17.69,17.69,0,0,1,5.51,3.08c2.21,1.67,5,3.74,13,6.9C77,172.82,98,181.72,102.34,183.58l10.5-68.76,0-.12c6.39-18.75,25.63-13,25.82-12.91l.21.11c6.7,5.16,8.81,13.49,6.07,24.15l-27.9,75.73-.07.2-.17.12a11.59,11.59,0,0,1-7,2.2C102.12,204.3,92.74,198,83,191.41Zm60.73-65.76c2.59-10.12.74-17.73-5.51-22.6-1.68-.5-18.19-4.88-24,12l-10.75,70.42-.8-.34c-.25-.11-25.13-10.69-35.06-14.61-8.18-3.22-11-5.36-13.31-7.08a16.42,16.42,0,0,0-5.13-2.87c-2-.71-3.67-1.4-5.13-2a30.3,30.3,0,0,0-9.48-2.74c-6.4-.72-8.4.24-9,.88a1.11,1.11,0,0,0-.33,1c.2.5,2.52,1.58,4.21,2.37,3.58,1.68,8,3.76,9.54,6.6l.42.79-.88.19c-6.1,1.34-15.14-1.46-23.11-3.94-5.67-1.76-11-3.43-13.59-2.94,4.08,8.94,30,21.14,54.21,15.65l.12,0,.12,0c8.59,1.15,18.2,7.61,27.5,13.86,12.48,8.38,24.27,16.3,32.17,10.83Z"/><g class="cls-13"><path class="cls-14" d="M77.1,365.48s-15.26-7.05-32.87,32.87"/><path class="cls-14" d="M74,360.41s-14.16-6.48-30.63,31.09"/><path class="cls-14" d="M70.88,355.35s-13.06-5.92-28.39,29.3"/><path class="cls-14" d="M67.77,350.28s-12-5.35-26.15,27.52"/><path class="cls-14" d="M64.66,345.22S53.79,340.43,40.75,371"/><path class="cls-14" d="M61.56,340.15s-9.78-4.22-21.68,24"/><path class="cls-14" d="M58.45,335.09S49.77,331.43,39,357.26"/><path class="cls-14" d="M55.34,330s-7.58-3.09-17.2,20.39"/><path class="cls-14" d="M52.23,325s-6.48-2.53-15,18.61"/><path class="cls-14" d="M49.12,319.89s-5.38-2-12.72,16.83"/><path class="cls-14" d="M46,314.83s-4.28-1.4-10.48,15"/><path class="cls-14" d="M42.9,309.76s-3.18-.83-8.24,13.26"/><path class="cls-14" d="M39.79,304.7s-2.08-.27-6,11.47"/></g></svg>