<svg id="Layer_1" data-name="Layer 1" xmlns="http://www.w3.org/2000/svg" viewBox="0 0 295 302.55"><defs><style>.cls-1{fill:#4b231e;}.cls-2{fill:#273b2a;}.cls-3{fill:#bf2434;}.cls-3,.cls-4,.cls-6,.cls-7{stroke:#461d2c;stroke-miterlimit:10;stroke-width:1.3px;}.cls-4{fill:#8d9aa2;}.cls-5{fill:#596268;}.cls-6{fill:#9d6a70;}.cls-7{fill:#d4af25;}.cls-8{fill:#73a57a;}.cls-9{fill:#567c5c;}</style></defs><title>1920x1080 UI Landing Page</title><g id="right_leaf_with_kaju"><path class="cls-1" d="M216.33,78.59l.87,5.86-1.48.21c-.92.14-2.26.37-3.93.7q8.75-.93,17.28-1.39V77.46Q222.76,77.9,216.33,78.59Z"/><path class="cls-2" d="M194.64,84.5a162.23,162.23,0,0,1,15.56-4.63c1.92-.46,3.44-.79,4.49-1l1.3-.24c-3.58.39-7.18.83-10.8,1.35a349.34,349.34,0,0,0-45.93,9.69c-3.83,1.15-7.71,2.2-11.53,3.44L137.4,96.56l1.13,4.78L149.23,98c3.79-1.16,7.63-2.13,11.42-3.2q9.94-2.61,19.87-4.6,2-.92,4-1.77C188.08,86.93,191.46,85.59,194.64,84.5Z"/><path class="cls-1" d="M135,102.51l3.68-.68-.11-.49-.69.22Z"/><path class="cls-1" d="M136.26,96.94l1.14-.38-.12-.52-4.35,1-5,1.21-3.09.74-3.44.66-7.76,1.51-8.73,1.28c-1.51.25-3.06.42-4.62.56l-4.76.47c-3.2.4-6.46.43-9.73.65-1.63.11-3.26.13-4.89.13l-4.86,0c-3.22-.06-6.39-.18-9.46-.36s-6-.45-8.81-.87-5.42-.78-7.84-1.22-4.63-.93-6.56-1.44-3.62-1-5-1.42-2.44-.81-3.15-1.1-1.1-.45-1.1-.45.37.19,1.07.51,1.75.76,3.1,1.28,3,1.11,4.92,1.71,4.11,1.21,6.51,1.82,5,1.2,7.83,1.67,5.77.93,8.84,1.38,6.29.66,9.54.91l4.92.25c1.65.09,3.31.16,5,.14,3.31,0,6.64.12,9.9-.09l4.86-.21c1.6-.06,3.18-.14,4.73-.3l4.52-.41,3.62-1.24Z"/><path class="cls-1" d="M136.26,96.94l-22.79,8-3.62,1.24,4.43-.4,8-1.08,3.55-.48,3.18-.57,5.16-.94.82-.15,2.88-1,.69-.22-1.13-4.78Z"/><path class="cls-1" d="M216.32,78.56l-.33.07.34,0Z"/><path class="cls-2" d="M180.52,90.17c-2.28,1-4.59,2.13-6.92,3.34-3.74,1.88-7.48,4-11.23,6.34s-7.42,4.83-10.93,7.59a121.81,121.81,0,0,0-10.12,8.61c-1.61,1.5-3.09,3.1-4.61,4.61s-2.84,3.18-4.22,4.74l-3.81,4.81L125.29,135l-2.94,4.71c-.93,1.53-1.7,3.09-2.51,4.54s-1.48,2.89-2.11,4.26-1.27,2.66-1.78,3.91c-1,2.52-1.87,4.68-2.48,6.51-1.16,3.68-1.83,5.78-1.83,5.78l2.07-5.69c.68-1.8,1.69-3.92,2.74-6.38.56-1.22,1.26-2.46,1.93-3.8s1.39-2.75,2.27-4.14,1.69-2.91,2.67-4.38l3.1-4.53,3.54-4.58,3.95-4.57,4.34-4.48c1.55-1.42,3.06-2.92,4.7-4.32a118.71,118.71,0,0,1,10.25-8c3.54-2.54,7.27-4.79,11-7s7.49-4,11.21-5.71,7.36-3.19,10.85-4.53,6.84-2.44,10-3.37a156.69,156.69,0,0,1,15.22-3.84l.37-.07q-2.89.3-5.8.66C197.6,87.06,189.08,88.45,180.52,90.17Z"/><path class="cls-2" d="M217.2,84.45l-.87-5.86-.34,0-1.3.24c-1.05.21-2.57.54-4.49,1a162.23,162.23,0,0,0-15.56,4.63c-3.18,1.09-6.56,2.43-10.1,3.9q-2,.85-4,1.77C189.08,88.45,197.6,87.06,206,86q2.91-.36,5.8-.66c1.67-.33,3-.56,3.93-.7Z"/><path class="cls-3" d="M92.18,190.24c-2.82,7.64-2.15,15.82-3,23.8s-2.5,15.87-6,23.08c-2.26,4.61-5.26,8.88-7,13.71s-2.17,10.56.67,14.84c2.35,3.54,6.53,5.49,10.72,6.17s8.47.24,12.7-.06c6.66-.47,13.41-.58,20,.79,4.2.87,8.45,2.37,12.69,1.64,5.65-1,10.06-5.94,11.6-11.47s.6-11.48-1.29-16.9-4.69-10.47-7-15.71a107,107,0,0,1-7.89-27.62,94.1,94.1,0,0,0-2.19-12.27c-1.16-4-3.15-7.87-6.38-10.49-6.48-5.25-17.52-4.76-23.29,1.4-3.78,4-4.74,9.84-5.71,15.07"/><path class="cls-4" d="M116.25,274.09c2.87,2.05,4.25,5.74,4.79,9.32a19.17,19.17,0,0,1,.24,2.82,15.22,15.22,0,0,1-2.65,8.49,16.63,16.63,0,0,1-6.65,5.64,14.68,14.68,0,0,1-12,.46,7.62,7.62,0,0,1-1.76-1,5.43,5.43,0,0,1-.53-7.74c.7-.78,1.66-1.37,2.08-2.36a3.86,3.86,0,0,0-.14-2.83c-.35-.89-.89-1.7-1.3-2.57a9.51,9.51,0,0,1-.84-5.46,7.91,7.91,0,0,1,2.6-4.78,11.23,11.23,0,0,1,6.64-2.17c3.32-.24,7.06-.09,9.56,2.22"/><path class="cls-5" d="M99.09,286a2.72,2.72,0,0,1,1.28-.26,2.21,2.21,0,0,1,1.61,1.7,3.81,3.81,0,0,1-.42,3,3.18,3.18,0,0,1-2.38,1.5,1.09,1.09,0,0,1-1.12-.46,4.74,4.74,0,0,0,1.53-1.85,4.8,4.8,0,0,0-.5-3.57"/><path class="cls-6" d="M150.78,148.53c-2.82,7.64-2.15,15.82-3,23.8s-2.5,15.87-6,23.08c-2.27,4.61-5.27,8.88-7,13.71s-2.17,10.56.68,14.84c2.35,3.54,6.53,5.49,10.72,6.17s8.47.24,12.7-.06c6.66-.47,13.41-.58,19.94.79,4.21.87,8.46,2.37,12.69,1.64,5.66-1,10.07-5.94,11.6-11.47s.61-11.48-1.28-16.9-4.69-10.47-7-15.71a107.41,107.41,0,0,1-7.9-27.62,92.42,92.42,0,0,0-2.18-12.27c-1.16-4-3.15-7.87-6.38-10.49-6.49-5.25-17.52-4.76-23.3,1.4-3.77,4-4.73,9.84-5.71,15.07"/><path class="cls-4" d="M174.85,232.38c2.87,2.05,4.25,5.74,4.79,9.32a19.17,19.17,0,0,1,.24,2.82,15.3,15.3,0,0,1-2.65,8.49,16.59,16.59,0,0,1-6.66,5.64,14.65,14.65,0,0,1-12,.46,7.42,7.42,0,0,1-1.76-1,5.43,5.43,0,0,1-1.89-3.75,5.49,5.49,0,0,1,1.35-4c.71-.78,1.67-1.37,2.08-2.36a3.86,3.86,0,0,0-.13-2.83c-.36-.89-.89-1.7-1.3-2.57a9.43,9.43,0,0,1-.84-5.46,7.91,7.91,0,0,1,2.6-4.78,11.22,11.22,0,0,1,6.63-2.17c3.33-.24,7.07-.09,9.57,2.22"/><path class="cls-5" d="M157.69,244.31a2.72,2.72,0,0,1,1.28-.26,2.21,2.21,0,0,1,1.61,1.7,3.85,3.85,0,0,1-.42,3,3.25,3.25,0,0,1-2.38,1.51,1.13,1.13,0,0,1-1.13-.47,3.73,3.73,0,0,0,1-5.42"/><path class="cls-7" d="M116,135.61c-2.34,6.35-1.79,13.15-2.48,19.78a56.87,56.87,0,0,1-5,19.17c-1.88,3.84-4.37,7.38-5.85,11.39s-1.81,8.77.56,12.33c1.95,2.94,5.42,4.57,8.9,5.13a46.05,46.05,0,0,0,10.56,0,60.48,60.48,0,0,1,16.57.65c3.49.73,7,2,10.54,1.37,4.7-.81,8.36-4.94,9.64-9.53s.5-9.54-1.07-14-3.9-8.7-5.83-13.06a88.84,88.84,0,0,1-6.56-22.94,79,79,0,0,0-1.82-10.19,17.18,17.18,0,0,0-5.3-8.72c-5.39-4.36-14.55-4-19.35,1.16-3.14,3.34-3.94,8.18-4.75,12.52"/><path class="cls-4" d="M136,205.28c2.39,1.7,3.54,4.77,4,7.74a15.42,15.42,0,0,1,.2,2.35,12.69,12.69,0,0,1-2.2,7,13.93,13.93,0,0,1-5.53,4.69,12.21,12.21,0,0,1-10,.37,6,6,0,0,1-1.46-.86,4.51,4.51,0,0,1-.45-6.42c.59-.66,1.39-1.15,1.73-2a3.19,3.19,0,0,0-.11-2.35c-.29-.74-.74-1.41-1.08-2.13a8,8,0,0,1-.7-4.54,6.58,6.58,0,0,1,2.16-4,9.37,9.37,0,0,1,5.51-1.81c2.77-.2,5.87-.07,8,1.85"/><path class="cls-5" d="M121.7,215.19a2.23,2.23,0,0,1,1.07-.21,1.8,1.8,0,0,1,1.33,1.41,3.16,3.16,0,0,1-.34,2.46,2.66,2.66,0,0,1-2,1.25.89.89,0,0,1-.93-.39,3.09,3.09,0,0,0,.85-4.5"/><path class="cls-8" d="M28.88,173.76c22.2,18,55,10.63,77.71-2.28a156.93,156.93,0,0,0,20.59-13.74c17.89-14.27,31.9-36.38,32.63-59.19a1.79,1.79,0,0,0-.41-1L17.3,158.39A41.57,41.57,0,0,0,28.88,173.76Z"/><path class="cls-9" d="M99.89,80.22C82.34,82.16,64,85.08,48,92.94c-18.41,9-35.2,27.37-34.52,49a44,44,0,0,0,3.86,16.46L159.4,97.51a21.55,21.55,0,0,0-3.5-3.13C140.75,81.19,119.24,78.08,99.89,80.22Z"/><path class="cls-2" d="M159.69,100.86S65,138.84,37.31,149.48c0,0,87.74-39.48,120.15-54.18C157.46,95.3,162.36,96,159.69,100.86Z"/><path class="cls-2" d="M142.61,102.91s-.44-.52-1.31-1.41-2.14-2.12-3.74-3.52a71.9,71.9,0,0,0-5.7-4.54c-1.07-.79-2.22-1.55-3.4-2.31s-2.41-1.47-3.67-2.15c-.62-.34-1.25-.68-1.89-1s-1.27-.62-1.91-.91c-1.28-.58-2.56-1.09-3.82-1.55s-2.49-.84-3.68-1.17-2.31-.59-3.37-.77-2-.32-2.9-.45S105.6,83,105,83l-2-.06,2,0c.63,0,1.39,0,2.27.1s1.86.15,2.93.33,2.22.37,3.43.63,2.47.62,3.77,1,2.61.88,3.93,1.42c.65.26,1.32.54,2,.84s1.32.6,2,.92c1.31.63,2.58,1.33,3.82,2s2.43,1.45,3.56,2.2c2.27,1.49,4.3,3,6,4.38s3.05,2.58,4,3.46,1.45,1.41,1.45,1.41Z"/><path class="cls-2" d="M122.42,112l-.35-.4c-.22-.26-.56-.63-1-1.1s-1-1-1.63-1.68-1.36-1.35-2.2-2.09L116,105.58l-1.42-1.2c-1-.85-2-1.64-3.14-2.51s-2.29-1.68-3.51-2.48-2.46-1.64-3.77-2.36l-1.94-1.11c-.65-.36-1.32-.67-2-1s-1.31-.67-2-1l-2-.83c-.64-.27-1.27-.55-1.9-.79l-1.87-.64-1.77-.61c-.57-.19-1.15-.31-1.69-.46-1.08-.28-2.08-.55-3-.76l-2.33-.4-2-.35,2,.27,2.35.31c.9.17,1.9.4,3,.64.54.13,1.13.22,1.71.39l1.81.54,1.9.58c.65.21,1.29.47,2,.72l2,.76c.67.28,1.33.6,2,.9s1.37.6,2,.94l2,1c1.36.67,2.63,1.48,3.92,2.23s2.48,1.6,3.66,2.38,2.29,1.6,3.3,2.42l1.5,1.17,1.36,1.13c.88.72,1.64,1.44,2.33,2s1.27,1.18,1.74,1.66.85.84,1.1,1.11l.38.4Z"/><path class="cls-2" d="M102.8,121s-.54-.63-1.6-1.71-2.59-2.59-4.54-4.31a92.05,92.05,0,0,0-15.43-11.09c-1.5-.86-3-1.65-4.58-2.39s-3.09-1.41-4.6-2c-.75-.3-1.51-.56-2.24-.84s-1.47-.48-2.18-.72c-1.43-.43-2.79-.82-4.06-1.1s-2.45-.5-3.49-.71-2-.28-2.72-.37L55,95.5l2.4.13c.76.07,1.68.17,2.74.29s2.24.31,3.52.59,2.67.58,4.12,1c.72.22,1.47.41,2.22.65s1.52.49,2.3.77c1.54.56,3.12,1.17,4.7,1.87s3.17,1.44,4.72,2.26a93.62,93.62,0,0,1,16,10.7c2,1.68,3.66,3.17,4.78,4.23s1.73,1.73,1.73,1.73Z"/><path class="cls-2" d="M85.93,128.71s-.57-.47-1.61-1.29-2.55-2-4.4-3.27a116.93,116.93,0,0,0-14.22-8.68c-1.35-.7-2.72-1.35-4.07-2s-2.73-1.17-4.06-1.67-2.63-1-3.87-1.34-2.44-.7-3.55-1l-1.6-.34-1.45-.26c-.91-.17-1.72-.22-2.38-.32s-1.19-.08-1.54-.11l-.55,0,.55,0c.35,0,.88,0,1.54,0s1.48.09,2.4.23c.46.06,1,.11,1.47.2l1.62.28c1.12.23,2.34.49,3.61.83s2.6.74,4,1.2,2.75,1,4.15,1.53,2.8,1.17,4.19,1.82a118.7,118.7,0,0,1,14.71,8.2c1.93,1.26,3.5,2.36,4.59,3.14s1.71,1.27,1.71,1.27Z"/><path class="cls-2" d="M67.57,136.83s-2.19-1.31-5.62-3.14c-.86-.45-1.78-.95-2.78-1.44s-2-1-3.13-1.56-2.22-1.06-3.38-1.59-2.34-1-3.53-1.56l-3.57-1.46c-1.19-.44-2.36-.9-3.5-1.3s-2.26-.78-3.33-1.1l-3-.87-2.57-.63c-.77-.2-1.45-.28-2-.39l-1.75-.32,1.76.24c.56.09,1.26.13,2,.3l2.61.51,3.07.73c1.08.28,2.21.63,3.38,1s2.37.75,3.59,1.14,2.44.85,3.66,1.3,2.44.91,3.62,1.41,2.36.95,3.48,1.44,2.2,1,3.22,1.42,2,.92,2.87,1.33c3.52,1.67,5.84,2.92,5.84,2.92Z"/><path class="cls-2" d="M48,145.64s-1.63-.72-4.13-1.7c-1.24-.49-2.7-1.06-4.28-1.63s-3.26-1.15-5-1.71l-2.55-.79c-.84-.24-1.67-.5-2.48-.71s-1.59-.44-2.34-.61-1.45-.36-2.1-.5l-1.79-.37c-.54-.11-1-.17-1.39-.24l-1.22-.2,1.22.17c.39.06.86.11,1.4.22l1.8.32c.66.13,1.37.3,2.12.45s1.54.37,2.35.56,1.65.44,2.51.66l2.57.74c1.71.52,3.42,1.06,5,1.6S42.77,143,44,143.43c2.52.94,4.18,1.63,4.18,1.63Z"/><path class="cls-2" d="M142.37,106.08s.14.7.3,1.89.37,2.89.49,4.94a66.89,66.89,0,0,1,.05,7c-.06,1.28-.17,2.59-.31,3.93s-.35,2.68-.61,4-.55,2.68-.92,4-.77,2.54-1.22,3.74-.94,2.32-1.46,3.37c-.24.53-.53,1-.79,1.51s-.53.94-.8,1.37c-.51.88-1.07,1.63-1.54,2.31s-.94,1.22-1.32,1.68L133,147.19l1.17-1.43c.35-.48.77-1.06,1.24-1.73s1-1.47,1.42-2.36c.25-.44.51-.9.74-1.39s.49-1,.71-1.53c.46-1.05.9-2.19,1.29-3.38s.75-2.45,1-3.74.53-2.6.73-3.92.33-2.66.41-4,.14-2.61.14-3.87a66,66,0,0,0-.35-6.83c-.21-2-.48-3.64-.69-4.78s-.36-1.77-.36-1.77Z"/><path class="cls-2" d="M122.15,114.44s.17.73.37,2,.46,3,.63,5.16a68.06,68.06,0,0,1-.46,15.65c-.2,1.41-.48,2.81-.78,4.18-.15.68-.33,1.36-.5,2s-.37,1.31-.56,2l-.61,1.87-.67,1.76c-.46,1.12-.91,2.18-1.39,3.14s-1,1.8-1.35,2.56-.82,1.39-1.16,1.91c-.69,1-1.09,1.61-1.09,1.61l1-1.65c.31-.53.66-1.2,1.08-1.95s.83-1.63,1.23-2.61.83-2,1.25-3.17l.58-1.77c.17-.61.35-1.23.53-1.86s.31-1.29.47-1.95.29-1.34.41-2c.24-1.36.45-2.74.59-4.14a67.26,67.26,0,0,0-.19-15.36c-.26-2.08-.58-3.8-.83-5s-.43-1.84-.43-1.84Z"/><path class="cls-2" d="M102.43,122.56s.17.84.39,2.27.47,3.5.65,6,.27,5.38.18,8.48c0,1.55-.15,3.15-.29,4.77s-.34,3.26-.61,4.89c-.14.82-.27,1.63-.45,2.44s-.33,1.61-.53,2.4c-.37,1.58-.82,3.11-1.3,4.58s-1,2.87-1.59,4.17c-.26.66-.58,1.27-.86,1.87s-.58,1.18-.87,1.72c-.56,1.1-1.18,2.05-1.69,2.91s-1,1.56-1.46,2.15L92.62,173l1.31-1.84c.39-.6.85-1.34,1.38-2.19s1-1.84,1.57-3c.27-.55.56-1.12.81-1.73s.55-1.23.78-1.89c.51-1.31,1-2.71,1.42-4.18s.81-3,1.12-4.57c.17-.79.32-1.58.44-2.39s.24-1.61.35-2.41c.2-1.62.34-3.24.43-4.84s.13-3.18.11-4.71c0-3.05-.22-5.89-.48-8.32s-.59-4.42-.85-5.82-.45-2.15-.45-2.15Z"/><path class="cls-2" d="M85.46,129.79s0,.73,0,2,0,3.06-.16,5.22a99.6,99.6,0,0,1-2.06,15.64c-.3,1.41-.66,2.8-1,4.16-.21.68-.41,1.35-.61,2s-.42,1.31-.65,1.94c-.46,1.27-.93,2.48-1.43,3.61s-1,2.16-1.53,3.11c-.26.47-.52.92-.76,1.34s-.51.81-.74,1.18c-.46.74-.94,1.33-1.3,1.85s-.7.86-.91,1.12l-.32.4.31-.41c.2-.27.5-.65.86-1.16s.79-1.14,1.21-1.9c.21-.37.46-.77.68-1.2l.71-1.35c.45-1,.93-2,1.38-3.16s.87-2.35,1.26-3.62c.2-.63.38-1.29.57-1.94l.51-2c.31-1.37.61-2.75.85-4.15a97.6,97.6,0,0,0,1.39-15.52c0-2.12,0-3.89-.07-5.13s-.1-1.92-.1-1.92Z"/><path class="cls-2" d="M67.21,137.84s-.36,2.43-1.11,6c-.2.89-.39,1.85-.63,2.87s-.49,2.09-.78,3.19-.59,2.24-.91,3.39-.69,2.3-1,3.47-.77,2.3-1.15,3.43-.81,2.23-1.24,3.28-.84,2.07-1.28,3-.87,1.83-1.26,2.65l-1.18,2.17c-.34.66-.72,1.18-1,1.64l-.89,1.4s.29-.53.81-1.45c.25-.46.61-1,.91-1.67L57.54,169c.35-.84.73-1.74,1.12-2.7s.74-2,1.13-3.05.7-2.19,1.06-3.31.66-2.3,1-3.46.61-2.33.86-3.49.52-2.29.73-3.39.43-2.18.61-3.2.34-2,.49-2.87c.57-3.56.8-5.93.8-5.93Z"/><path class="cls-2" d="M46.3,145.87s-.43,1.61-1.2,4c-.38,1.19-.83,2.57-1.36,4s-1.12,3-1.73,4.57c-.32.77-.63,1.54-1,2.29s-.65,1.5-1,2.2-.64,1.39-1,2-.63,1.24-.93,1.79-.58,1-.83,1.49-.49.81-.68,1.12l-.6,1,.58-1c.17-.31.41-.68.65-1.13s.5-.95.79-1.5.57-1.17.88-1.81.61-1.34.93-2,.61-1.46.93-2.22.6-1.53.9-2.3c.58-1.56,1.13-3.12,1.61-4.6s.92-2.87,1.27-4.06c.7-2.39,1.1-4,1.1-4Z"/><path class="cls-9" d="M100.18,72.18c.12,12.79,12,22,22.95,26.17a70.49,70.49,0,0,0,10.62,3.19c10,2.1,21.66.63,29.74-5.63a.77.77,0,0,0,.24-.43L102.18,63.8A18.5,18.5,0,0,0,100.18,72.18Z"/><path class="cls-8" d="M152.72,70c-5.68-5.5-11.92-11-19.2-14.29-8.38-3.78-19.49-4.34-26.76,2.06a19.64,19.64,0,0,0-4.58,6l61.55,31.68a9.7,9.7,0,0,0,.08-2.1C164,84.39,159,76.08,152.72,70Z"/><path class="cls-2" d="M162.66,96.53S122.53,74.68,111,68.16c0,0,38.66,19,53,26C163.94,94.18,165.11,96.06,162.66,96.53Z"/><path class="cls-2" d="M157.08,91.22s0-.3.11-.85.12-1.34.15-2.3,0-2.07-.06-3.26c0-.59-.1-1.21-.17-1.83s-.18-1.25-.31-1.88c-.06-.31-.12-.63-.2-.93s-.15-.62-.23-.92c-.16-.61-.35-1.2-.55-1.77s-.42-1.1-.65-1.6-.45-1-.69-1.38-.47-.8-.67-1.13l-.58-.83-.54-.7.57.67c.17.23.38.5.61.82s.48.68.72,1.1a15.6,15.6,0,0,1,.76,1.37c.25.49.5,1,.72,1.59s.45,1.15.64,1.76c.09.3.19.61.27.92s.17.62.24.94c.16.63.28,1.27.39,1.89s.19,1.26.25,1.86a31.89,31.89,0,0,1,.2,3.32c0,1,0,1.79-.05,2.36s-.08.9-.08.9Z"/><path class="cls-2" d="M148.18,86.85l0-.24.09-.65c0-.29.07-.64.11-1s.08-.86.1-1.36l0-.78c0-.27,0-.54,0-.83,0-.57,0-1.17,0-1.8s-.07-1.27-.14-1.92-.14-1.32-.27-2c-.05-.33-.11-.66-.17-1s-.14-.65-.21-1-.15-.64-.22-1-.19-.61-.28-.91-.17-.6-.27-.89l-.31-.82-.29-.79c-.1-.25-.22-.48-.32-.71-.22-.46-.41-.88-.59-1.24s-.38-.67-.53-.92l-.46-.8.5.78.56.9c.2.36.4.77.64,1.22.11.23.24.45.35.71s.21.51.33.77.23.54.34.82.21.59.31.88.21.61.31.92.18.63.27,1,.18.64.25,1l.21,1c.16.66.24,1.33.35,2s.16,1.31.22,1.94.1,1.25.11,1.83c0,.29,0,.57,0,.85v.79c0,.51,0,1,0,1.39s0,.78-.07,1.07,0,.54-.07.7l0,.24Z"/><path class="cls-2" d="M139.49,82.64s.06-.37.13-1,.16-1.63.19-2.79a40.85,40.85,0,0,0-.57-8.49c-.13-.77-.3-1.53-.48-2.27s-.4-1.46-.62-2.16c-.11-.34-.24-.68-.35-1s-.25-.65-.37-1c-.26-.61-.52-1.19-.78-1.71s-.53-1-.75-1.41l-.65-1-.61-.88s.24.31.64.86c.2.28.42.63.68,1s.54.86.81,1.39.56,1.08.84,1.69c.13.31.28.63.41,1s.26.66.39,1c.25.69.48,1.41.69,2.15s.41,1.51.57,2.28a41.66,41.66,0,0,1,.88,8.58c0,1.18,0,2.17-.1,2.86s-.1,1.09-.1,1.09Z"/><path class="cls-2" d="M132,79s0-.33,0-.92-.05-1.44-.13-2.46a51.89,51.89,0,0,0-1.06-7.38c-.14-.66-.31-1.32-.48-2s-.37-1.27-.58-1.88-.42-1.18-.64-1.71-.46-1.05-.68-1.51l-.34-.65-.32-.57c-.21-.36-.42-.66-.57-.91l-.4-.57-.15-.2.15.2.43.55c.16.24.39.53.6.89l.35.56.37.64c.24.46.49.95.74,1.49s.49,1.1.72,1.7.44,1.23.65,1.87.4,1.3.57,2a53.39,53.39,0,0,1,1.36,7.42c.12,1,.19,1.88.23,2.48s.05,1,.05,1Z"/><path class="cls-2" d="M124,75s-.17-1.13-.52-2.84c-.09-.42-.18-.88-.29-1.37s-.23-1-.36-1.52-.27-1.07-.41-1.62-.31-1.11-.47-1.67-.35-1.1-.52-1.65-.36-1.07-.55-1.58-.37-1-.56-1.46L119.72,60c-.19-.4-.37-.75-.52-1.07s-.32-.58-.44-.81l-.39-.69s.16.24.42.67c.13.22.32.47.48.79l.57,1.05.62,1.26c.21.46.41.94.64,1.44s.41,1,.62,1.57l.6,1.63c.18.56.38,1.11.55,1.65s.34,1.09.49,1.62.3,1,.43,1.51l.36,1.37c.43,1.7.66,2.85.66,2.85Z"/><path class="cls-2" d="M115.33,70.75s-.22-.77-.59-1.91c-.19-.57-.41-1.24-.66-1.94s-.53-1.46-.83-2.21l-.45-1.1c-.16-.36-.3-.72-.46-1.06s-.3-.67-.46-1-.29-.6-.43-.87l-.38-.72c-.11-.22-.23-.4-.31-.55l-.28-.48.29.47.32.54.4.72c.15.26.29.55.45.86s.32.63.48,1,.32.7.49,1l.48,1.1c.31.74.61,1.48.87,2.19s.51,1.36.71,1.93c.4,1.13.63,1.9.63,1.9Z"/><path class="cls-2" d="M155.91,92s-.2.25-.56.65-.89,1-1.57,1.57a28.44,28.44,0,0,1-2.4,2c-.46.34-.94.68-1.45,1s-1,.65-1.56.94a17.64,17.64,0,0,1-1.63.81,16,16,0,0,1-1.64.65,15.35,15.35,0,0,1-1.58.46c-.25.07-.5.11-.74.16s-.48.08-.7.11c-.45.08-.87.1-1.24.13l-1,0-.83,0h.83l1-.07c.37,0,.78-.09,1.22-.18.23,0,.46-.08.69-.14s.49-.11.73-.19c.5-.14,1-.32,1.54-.52s1.06-.44,1.58-.71,1.06-.56,1.57-.87,1-.64,1.49-1,.94-.69,1.37-1.05a30.29,30.29,0,0,0,2.26-2.07c.63-.64,1.12-1.21,1.45-1.6s.51-.63.51-.63Z"/><path class="cls-2" d="M147.26,87.45s-.2.27-.57.69-.91,1-1.6,1.69a30.74,30.74,0,0,1-5.54,4.3c-.54.34-1.1.64-1.66.93l-.84.4-.83.36-.82.32-.8.28c-.52.16-1,.3-1.48.41s-.89.19-1.27.27l-1,.14-.87.09.86-.13c.28,0,.61-.11,1-.18s.8-.18,1.26-.32.94-.29,1.45-.47l.77-.31.8-.34.81-.4.81-.43c.53-.31,1.07-.63,1.6-1a30.07,30.07,0,0,0,5.24-4.45c.65-.68,1.15-1.28,1.49-1.71s.51-.67.51-.67Z"/><path class="cls-2" d="M138.83,83s-.24.3-.67.78-1.07,1.16-1.88,1.93a37.07,37.07,0,0,1-2.87,2.48c-.55.43-1.13.85-1.73,1.27s-1.23.81-1.87,1.18l-1,.54c-.33.18-.65.34-1,.5-.66.32-1.31.61-2,.86s-1.28.46-1.89.64c-.3.1-.6.16-.89.24s-.57.13-.84.19c-.54.12-1.05.17-1.49.24s-.84.09-1.16.11l-1,0,1-.08c.32,0,.71-.08,1.15-.15s.94-.16,1.47-.3c.26-.06.54-.12.83-.21s.58-.16.87-.27c.6-.2,1.22-.43,1.85-.7s1.27-.58,1.9-.92c.32-.17.63-.34,1-.53s.62-.37.93-.57c.62-.39,1.21-.81,1.79-1.23s1.14-.86,1.66-1.31a35.14,35.14,0,0,0,2.73-2.53c.76-.78,1.36-1.47,1.77-2s.61-.77.61-.77Z"/><path class="cls-2" d="M131.5,79.16l-.68.58c-.44.36-1.07.86-1.85,1.44a45.19,45.19,0,0,1-6,3.75c-.57.29-1.15.57-1.73.83l-.86.36-.86.33c-.57.21-1.12.38-1.65.53s-1,.27-1.51.37l-.68.12-.62.07c-.39.06-.73.06-1,.09s-.5,0-.65,0h-.23l.23,0,.65,0c.28,0,.62,0,1-.12.19,0,.4-.06.61-.11l.67-.14c.46-.12,1-.26,1.48-.43s1.06-.37,1.61-.59c.28-.11.55-.24.83-.36l.84-.4c.56-.28,1.13-.57,1.68-.89a43.46,43.46,0,0,0,5.75-4c.74-.59,1.34-1.11,1.75-1.48s.64-.59.64-.59Z"/><path class="cls-2" d="M123.51,75.16s-.94.57-2.38,1.33l-1.17.6-1.33.64c-.46.22-.94.43-1.43.65s-1,.42-1.49.63l-1.51.59c-.51.17-1,.35-1.49.5s-.95.3-1.4.42l-1.28.32-1.09.22c-.32.07-.61.08-.85.12l-.73.09.73-.13c.23,0,.52-.07.84-.16l1.07-.27,1.25-.38c.44-.14.9-.32,1.37-.48s1-.38,1.45-.58l1.47-.65c.48-.24,1-.46,1.45-.7s.94-.47,1.38-.72.87-.47,1.28-.69l1.13-.65c1.39-.83,2.27-1.42,2.27-1.42Z"/><path class="cls-2" d="M114.78,70.24s-.69.31-1.72.72c-.52.21-1.13.45-1.79.68s-1.36.48-2.07.71l-1.06.32-1,.29-1,.24-.88.19-.75.13a5.58,5.58,0,0,1-.58.09l-.51.07.51-.08c.16,0,.35,0,.57-.1l.75-.16c.27,0,.56-.13.87-.21s.64-.17,1-.26.68-.2,1-.31l1.05-.35c.71-.24,1.4-.5,2-.75s1.25-.5,1.76-.72c1-.44,1.69-.76,1.69-.76Z"/><path class="cls-9" d="M184.51,194.49c-18-3.26-27.29-22.69-29.76-39.55a103.51,103.51,0,0,1-1.19-16.15c.15-15,5.84-31.54,17.18-41.75a1.26,1.26,0,0,1,.69-.24L197,193.61A26.79,26.79,0,0,1,184.51,194.49Z"/><path class="cls-8" d="M203.92,118.87c6,9.55,11.82,19.94,14.18,31.27,2.71,13,.06,29.28-11.23,38.28a30.38,30.38,0,0,1-9.92,5.19L171.43,96.8a12.86,12.86,0,0,1,3,.39C187.17,99,197.31,108.34,203.92,118.87Z"/><path class="cls-2" d="M169.61,98.1s18.33,63.41,23.91,81.73c0,0-14.79-60.59-20.19-83C173.33,96.81,171.05,94.66,169.61,98.1Z"/><path class="cls-2" d="M175.36,107.46s.44,0,1.24.05,1.93.14,3.28.33a44.62,44.62,0,0,1,4.58.87c.83.2,1.68.44,2.53.69s1.71.56,2.56.89c.42.17.84.33,1.25.52s.83.36,1.23.55c.8.38,1.58.8,2.31,1.23s1.42.87,2.06,1.32,1.22.9,1.73,1.34,1,.87,1.38,1.24l1,1,.81,1-.77-1c-.26-.3-.58-.67-1-1.08s-.82-.86-1.34-1.31-1.07-.94-1.69-1.43-1.29-1-2-1.43-1.49-.92-2.29-1.34c-.4-.21-.8-.42-1.21-.62s-.83-.39-1.25-.57c-.84-.38-1.7-.71-2.56-1s-1.7-.58-2.53-.81a45.5,45.5,0,0,0-4.62-1.09c-1.37-.25-2.53-.4-3.34-.48s-1.3-.11-1.3-.11Z"/><path class="cls-2" d="M178.76,121.41h.34l1,0c.41,0,.92,0,1.5.09s1.23.09,1.94.19l1.11.14,1.17.18c.82.12,1.65.32,2.53.48s1.77.41,2.67.67,1.81.52,2.69.86l1.34.48c.44.17.87.36,1.3.54s.86.36,1.27.55l1.21.62c.39.2.78.39,1.16.6l1.07.65,1,.62c.33.2.62.43.91.64.57.42,1.11.79,1.57,1.14l1.13,1,1,.85-1-.9-1.09-1-1.52-1.22c-.29-.21-.57-.46-.89-.68l-1-.66-1.05-.7c-.37-.22-.76-.43-1.15-.65l-1.19-.68c-.41-.21-.83-.4-1.26-.61s-.85-.41-1.28-.6l-1.34-.55c-.88-.38-1.8-.66-2.69-1s-1.8-.54-2.67-.79-1.73-.44-2.55-.59l-1.19-.24-1.12-.18c-.71-.13-1.38-.2-2-.28s-1.1-.12-1.53-.15-.77-.06-1-.06l-.36,0Z"/><path class="cls-2" d="M182,135s.53,0,1.51,0,2.35.17,4,.4a55.85,55.85,0,0,1,11.79,2.87c1,.37,2,.8,3,1.24s1.94.92,2.85,1.41c.46.25.89.51,1.32.76s.83.52,1.24.77c.78.52,1.52,1,2.17,1.54s1.23,1,1.75,1.42l1.28,1.19c.67.7,1.06,1.09,1.06,1.09l-1-1.13c-.33-.35-.75-.76-1.23-1.23s-1.05-1-1.7-1.5-1.36-1.07-2.14-1.63c-.39-.26-.79-.55-1.21-.82s-.85-.54-1.3-.81c-.9-.52-1.84-1-2.83-1.53s-2-.94-3-1.36a57,57,0,0,0-11.83-3.34c-1.66-.28-3.06-.45-4.05-.54s-1.57-.11-1.57-.11Z"/><path class="cls-2" d="M184.76,146.73l1.3.24c.83.17,2,.42,3.42.78a71.81,71.81,0,0,1,10.08,3.3c.89.37,1.77.77,2.62,1.18s1.68.85,2.47,1.29,1.53.89,2.22,1.35,1.33.91,1.91,1.34l.81.64c.26.21.49.42.71.61.45.38.8.76,1.11,1l.67.71.24.26-.23-.26c-.15-.18-.36-.44-.64-.75s-.64-.7-1.07-1.09c-.22-.2-.44-.43-.69-.65l-.79-.68c-.56-.46-1.18-1-1.86-1.43s-1.41-1-2.18-1.45-1.59-.94-2.43-1.4-1.71-.88-2.6-1.29a71,71,0,0,0-10-3.76c-1.41-.42-2.59-.72-3.43-.92s-1.32-.31-1.32-.31Z"/><path class="cls-2" d="M187.93,159.35s1.55.52,3.84,1.43c.57.24,1.19.48,1.84.76s1.33.56,2,.88,1.42.65,2.15,1,1.46.72,2.2,1.08l2.17,1.14c.7.41,1.39.79,2.05,1.18s1.3.79,1.89,1.18l1.64,1.11,1.34,1c.41.29.72.6,1,.83l.86.73-.82-.77c-.27-.24-.57-.57-1-.88l-1.3-1.08-1.6-1.2c-.57-.42-1.19-.83-1.83-1.27s-1.32-.85-2-1.29-1.4-.84-2.12-1.25-1.43-.82-2.15-1.19-1.43-.76-2.12-1.1-1.37-.68-2-1l-1.81-.85c-2.26-1-3.82-1.64-3.82-1.64Z"/><path class="cls-2" d="M191.24,172.88s1,.5,2.51,1.31c.75.41,1.61.89,2.53,1.43s1.89,1.12,2.85,1.72l1.41.92c.46.32.92.62,1.35.93s.86.6,1.25.89l1.09.84.9.73c.27.21.49.42.68.58l.58.52-.57-.53c-.19-.17-.4-.38-.67-.6l-.88-.76L203.2,180c-.38-.31-.8-.61-1.23-.93s-.88-.63-1.33-1l-1.4-1c-.94-.62-1.9-1.24-2.81-1.79s-1.76-1.06-2.5-1.49c-1.48-.85-2.49-1.37-2.49-1.37Z"/><path class="cls-2" d="M173.84,109s-.41.23-1.08.66-1.62,1.07-2.71,1.9-2.33,1.83-3.59,3c-.63.58-1.26,1.21-1.88,1.85s-1.23,1.34-1.81,2-1.14,1.43-1.65,2.17-1,1.48-1.42,2.22-.81,1.47-1.14,2.18c-.18.35-.31.71-.45,1s-.27.67-.39,1c-.24.64-.4,1.24-.56,1.76s-.24,1-.33,1.38c-.14.77-.21,1.22-.21,1.22s.09-.44.26-1.21c.1-.38.23-.84.39-1.36s.37-1.11.63-1.73c.13-.31.26-.63.42-1s.31-.67.5-1A23,23,0,0,1,160,123a25.7,25.7,0,0,1,1.49-2.13c.53-.71,1.11-1.39,1.71-2.06s1.22-1.31,1.85-1.92,1.28-1.19,1.92-1.73a45.54,45.54,0,0,1,3.62-2.78c1.1-.76,2-1.33,2.71-1.72s1-.58,1-.58Z"/><path class="cls-2" d="M177.62,122.59s-.43.24-1.14.67-1.72,1.07-2.88,1.91a47.53,47.53,0,0,0-7.79,7c-.64.71-1.24,1.45-1.82,2.19-.29.37-.56.75-.84,1.12l-.77,1.12c-.24.37-.47.74-.7,1.11l-.63,1.08c-.39.72-.75,1.41-1.05,2.05s-.54,1.25-.77,1.78-.38,1-.51,1.4l-.39,1.24.44-1.22c.15-.39.35-.85.56-1.38s.5-1.12.84-1.74.71-1.29,1.12-2l.67-1,.74-1.07.81-1.07c.28-.35.56-.72.86-1.07.6-.71,1.22-1.41,1.88-2.08a46.61,46.61,0,0,1,7.9-6.54c1.17-.77,2.17-1.35,2.87-1.74s1.11-.58,1.11-.58Z"/><path class="cls-2" d="M181.34,135.89s-.5.27-1.32.79-2,1.27-3.3,2.25-2.85,2.19-4.39,3.57c-.78.69-1.55,1.44-2.32,2.2s-1.53,1.59-2.25,2.42c-.36.42-.72.84-1.07,1.27s-.68.86-1,1.3c-.65.87-1.26,1.76-1.81,2.63s-1.06,1.75-1.5,2.59c-.23.41-.41.83-.61,1.23s-.37.8-.53,1.18c-.34.75-.57,1.47-.81,2.09l-.51,1.65c-.23.93-.37,1.46-.37,1.46l.42-1.45c.15-.45.34-1,.57-1.62s.52-1.32.88-2.06c.17-.37.35-.76.56-1.15s.41-.8.65-1.2c.47-.82,1-1.66,1.57-2.51s1.2-1.7,1.88-2.53c.34-.42.68-.84,1-1.25s.72-.81,1.1-1.21c.74-.81,1.51-1.57,2.29-2.31s1.57-1.43,2.36-2.08a55,55,0,0,1,4.43-3.35c1.33-.92,2.49-1.62,3.3-2.1s1.28-.7,1.28-.7Z"/><path class="cls-2" d="M184.4,147.43s-.38.3-1,.85-1.55,1.34-2.6,2.33a69.47,69.47,0,0,0-7.15,7.77c-.6.76-1.16,1.54-1.71,2.31-.26.39-.53.78-.78,1.17s-.5.77-.73,1.16c-.47.77-.89,1.53-1.27,2.27s-.7,1.44-1,2.1l-.38,1c-.12.3-.21.6-.3.87-.2.55-.31,1-.43,1.44s-.16.72-.21.94-.08.33-.08.33l.09-.33c.06-.21.13-.53.25-.93s.26-.88.48-1.42c.11-.26.21-.56.34-.85l.41-.94c.31-.64.66-1.33,1.06-2s.85-1.45,1.34-2.2l.77-1.12.82-1.12c.57-.74,1.16-1.49,1.78-2.21a69.32,69.32,0,0,1,7.35-7.39c1.07-.93,2-1.67,2.64-2.18s1-.78,1-.78Z"/><path class="cls-2" d="M187.56,160s-1.09,1.23-2.61,3.14c-.37.48-.79,1-1.21,1.55s-.87,1.15-1.32,1.77-.9,1.25-1.36,1.91-.9,1.34-1.36,2-.86,1.38-1.29,2-.81,1.37-1.18,2-.71,1.31-1,1.93-.59,1.23-.85,1.77-.45,1.08-.64,1.53-.31.87-.44,1.2c-.23.66-.36,1-.36,1l.41-1c.14-.32.27-.73.49-1.17l.71-1.49.93-1.72c.33-.6.72-1.22,1.11-1.87s.83-1.3,1.26-2,.91-1.32,1.38-2,.94-1.3,1.43-1.93,1-1.24,1.44-1.83.94-1.15,1.38-1.68.88-1,1.27-1.48c1.6-1.82,2.71-3,2.71-3Z"/><path class="cls-2" d="M191.79,173.81s-.65.91-1.56,2.31c-.45.71-1,1.53-1.51,2.43s-1.1,1.86-1.65,2.83c-.26.49-.53,1-.78,1.46s-.51,1-.73,1.44-.45.92-.64,1.36-.38.85-.54,1.23l-.43,1c-.13.32-.22.6-.3.83l-.26.71.28-.71c.09-.22.18-.5.32-.81l.44-1.05c.17-.38.37-.78.57-1.21s.44-.88.68-1.34.5-.94.75-1.42l.82-1.44c.56-1,1.14-1.91,1.7-2.79s1.1-1.69,1.57-2.38c.93-1.38,1.6-2.27,1.6-2.27Z"/><path class="cls-2" d="M83.44,8.87a322.42,322.42,0,0,1,39.94,14c13,5.46,25.72,11.59,38.24,17.93s24.87,12.9,37.24,19.12a369,369,0,0,0,37.4,16.74,166.68,166.68,0,0,0,19,5.76c3.18.77,6.37,1.35,9.54,1.85s6.35.83,9.51,1A82.85,82.85,0,0,0,295,83.87v21.47a104.14,104.14,0,0,1-22.48-.4c-3.81-.44-7.53-1.15-11.23-1.91s-7.3-1.77-10.85-2.88a186.15,186.15,0,0,1-20.58-7.79,383.93,383.93,0,0,1-37.78-20c-12.12-7.16-24-14.53-35.91-21.62s-24-13.94-36.34-20.14A316.23,316.23,0,0,0,81.76,14.27,233,233,0,0,0,0,.84,235.72,235.72,0,0,1,83.44,8.87Z"/></g></svg>