<svg id="Layer_1" data-name="Layer 1" xmlns="http://www.w3.org/2000/svg" viewBox="0 0 315 323.06"><defs><style>.cls-1{fill:#4b231e;}.cls-2{fill:#273b2a;}.cls-3{fill:#bf2434;}.cls-3,.cls-4,.cls-6,.cls-7{stroke:#461d2c;stroke-miterlimit:10;stroke-width:1.39px;}.cls-4{fill:#8d9aa2;}.cls-5{fill:#596268;}.cls-6{fill:#9d6a70;}.cls-7{fill:#d4af25;}.cls-8{fill:#73a57a;}.cls-9{fill:#567c5c;}</style></defs><title>1920x1080 UI Landing Page</title><g id="left_leaf_with_kaju"><path class="cls-1" d="M84,83.91l-.94,6.26,1.59.23c1,.15,2.41.4,4.19.74q-9.34-1-18.45-1.48v-7Q77.13,83.18,84,83.91Z"/><path class="cls-2" d="M107.17,90.23c-6.76-2.39-12.54-4-16.62-5-2-.49-3.67-.84-4.79-1.06L84.36,84q5.73.62,11.54,1.44a375.1,375.1,0,0,1,49,10.35c4.08,1.22,8.22,2.35,12.3,3.68l11,3.68-1.2,5.1-11.43-3.59c-4-1.24-8.14-2.28-12.19-3.42-7.08-1.87-14.17-3.49-21.22-4.91q-2.17-1-4.29-1.9C114.17,92.82,110.56,91.39,107.17,90.23Z"/><path class="cls-1" d="M170.9,109.46l-3.94-.72.12-.53.74.23Z"/><path class="cls-1" d="M169.5,103.51l-1.22-.4.13-.56,4.65,1.13L178.4,105l3.29.78,3.68.71,8.29,1.61,9.31,1.37c1.62.27,3.27.45,4.94.6l5.08.5c3.42.42,6.9.46,10.39.69,1.74.12,3.49.14,5.23.14l5.19,0c3.43-.07,6.82-.2,10.09-.39s6.43-.48,9.41-.93,5.79-.84,8.38-1.3,4.94-1,7-1.54,3.86-1,5.33-1.51,2.6-.87,3.36-1.18,1.17-.48,1.17-.48-.39.21-1.14.54-1.87.81-3.3,1.37-3.21,1.18-5.26,1.82-4.39,1.29-6.95,2-5.37,1.28-8.36,1.79-6.16,1-9.45,1.47-6.7.71-10.18,1l-5.25.26c-1.77.1-3.54.18-5.31.15-3.54,0-7.09.13-10.57-.1l-5.19-.22c-1.71-.06-3.4-.14-5.05-.32l-4.83-.43L193.84,112Z"/><path class="cls-1" d="M169.5,103.51,193.84,112l3.86,1.33L193,112.9l-8.51-1.16-3.79-.51-3.39-.61-5.52-1-.86-.15-3.08-1-.74-.23,1.2-5.1Z"/><path class="cls-1" d="M84,83.89l.35.07-.35,0Z"/><path class="cls-2" d="M122.24,96.29c2.43,1.1,4.9,2.26,7.39,3.56,4,2,8,4.33,12,6.77s7.93,5.16,11.68,8.1a133.18,133.18,0,0,1,10.8,9.2c1.71,1.6,3.29,3.3,4.92,4.92s3,3.4,4.51,5.06L177.6,139l3.62,5.11q1.6,2.59,3.14,5c1,1.64,1.81,3.3,2.67,4.85a50.51,50.51,0,0,1,2.26,4.55c.67,1.47,1.36,2.84,1.9,4.17,1,2.69,2,5,2.64,7l2,6.17-2.21-6.08c-.73-1.92-1.8-4.18-2.93-6.81-.59-1.3-1.34-2.63-2.06-4.06s-1.48-2.93-2.42-4.42-1.8-3.11-2.86-4.68L180,145l-3.78-4.9L172,135.23l-4.64-4.79c-1.66-1.51-3.27-3.12-5-4.61a127.26,127.26,0,0,0-10.94-8.55c-3.78-2.71-7.77-5.12-11.72-7.43s-8-4.31-12-6.1-7.86-3.4-11.58-4.83-7.31-2.61-10.65-3.6a167,167,0,0,0-16.26-4.1l-.39-.08q3.09.33,6.2.71C104,93,113.1,94.45,122.24,96.29Z"/><path class="cls-2" d="M83.07,90.17,84,83.91l.35,0,1.4.26c1.12.22,2.74.57,4.79,1.06,4.08,1,9.86,2.56,16.62,5,3.39,1.16,7,2.59,10.78,4.16q2.11.92,4.29,1.9C113.1,94.45,104,93,95.05,91.85q-3.1-.37-6.2-.71c-1.78-.34-3.21-.59-4.19-.74Z"/><path class="cls-3" d="M216.57,203.13c3,8.17,2.3,16.9,3.19,25.42s2.67,16.95,6.44,24.64c2.42,4.93,5.62,9.49,7.52,14.64s2.32,11.28-.72,15.85c-2.51,3.78-7,5.87-11.45,6.59s-9,.25-13.56-.06c-7.11-.5-14.32-.62-21.29.83-4.49.94-9,2.54-13.55,1.76-6-1-10.75-6.34-12.39-12.25s-.64-12.26,1.37-18,5-11.18,7.5-16.78a114.54,114.54,0,0,0,8.43-29.49c.66-4.39,1.09-8.84,2.33-13.1s3.37-8.41,6.82-11.2c6.92-5.61,18.7-5.09,24.87,1.49,4,4.29,5.06,10.51,6.1,16.09"/><path class="cls-4" d="M190.87,292.68c-3.07,2.18-4.54,6.12-5.12,9.95a20.15,20.15,0,0,0-.25,3,16.25,16.25,0,0,0,2.82,9.06,17.85,17.85,0,0,0,7.11,6,15.69,15.69,0,0,0,12.86.48,7.7,7.7,0,0,0,1.87-1.11,5.8,5.8,0,0,0,.57-8.26c-.75-.84-1.78-1.47-2.22-2.53a4.09,4.09,0,0,1,.15-3c.38-1,1-1.82,1.39-2.75a10.1,10.1,0,0,0,.89-5.83,8.43,8.43,0,0,0-2.78-5.1c-1.95-1.65-4.57-2.15-7.08-2.32-3.55-.25-7.54-.1-10.21,2.38"/><path class="cls-5" d="M209.19,305.41a2.83,2.83,0,0,0-1.36-.27,2.32,2.32,0,0,0-1.72,1.81,4,4,0,0,0,.44,3.17,3.42,3.42,0,0,0,2.55,1.61,1.18,1.18,0,0,0,1.2-.5,4,4,0,0,1-1.11-5.79"/><path class="cls-6" d="M154,158.6c3,8.16,2.3,16.89,3.19,25.41s2.67,17,6.44,24.64c2.42,4.93,5.62,9.49,7.52,14.64s2.32,11.28-.72,15.86c-2.5,3.77-7,5.86-11.45,6.58s-9,.26-13.55-.06c-7.11-.5-14.32-.62-21.3.84-4.49.94-9,2.53-13.55,1.75-6-1-10.75-6.34-12.39-12.24s-.64-12.26,1.37-18.05,5-11.18,7.5-16.78a114.54,114.54,0,0,0,8.43-29.49,101.47,101.47,0,0,1,2.33-13.1c1.24-4.26,3.37-8.4,6.82-11.2,6.92-5.61,18.7-5.09,24.87,1.49,4,4.29,5.06,10.51,6.1,16.09"/><path class="cls-4" d="M128.3,248.14c-3.07,2.18-4.54,6.12-5.12,9.95a20.26,20.26,0,0,0-.25,3,16.25,16.25,0,0,0,2.82,9.06,17.85,17.85,0,0,0,7.11,6,15.65,15.65,0,0,0,12.86.48,7.7,7.7,0,0,0,1.87-1.11,5.78,5.78,0,0,0,.57-8.25c-.75-.84-1.78-1.48-2.22-2.53a4.11,4.11,0,0,1,.15-3c.38-1,.95-1.82,1.39-2.74a10.13,10.13,0,0,0,.89-5.84,8.43,8.43,0,0,0-2.78-5.1c-2-1.65-4.57-2.14-7.08-2.32-3.55-.25-7.54-.09-10.21,2.38"/><path class="cls-5" d="M146.62,260.87a3,3,0,0,0-1.36-.27,2.32,2.32,0,0,0-1.72,1.81,4,4,0,0,0,.44,3.17,3.44,3.44,0,0,0,2.55,1.61,1.18,1.18,0,0,0,1.2-.5,5,5,0,0,1-1.65-2,5.12,5.12,0,0,1,.54-3.8"/><path class="cls-7" d="M191.17,144.8c2.51,6.79,1.91,14,2.66,21.12a60.48,60.48,0,0,0,5.35,20.47c2,4.1,4.67,7.89,6.25,12.17s1.92,9.37-.6,13.17c-2.09,3.13-5.8,4.87-9.51,5.47s-7.51.21-11.27,0a64.26,64.26,0,0,0-17.69.69c-3.73.78-7.51,2.11-11.26,1.46-5-.86-8.93-5.27-10.29-10.17s-.54-10.19,1.14-15,4.16-9.28,6.23-13.94a95.17,95.17,0,0,0,7-24.5,83.16,83.16,0,0,1,1.94-10.88,18.35,18.35,0,0,1,5.66-9.31c5.75-4.66,15.54-4.22,20.66,1.24,3.35,3.57,4.21,8.74,5.07,13.37"/><path class="cls-4" d="M169.82,219.2c-2.55,1.81-3.77,5.09-4.25,8.26a16.24,16.24,0,0,0-.21,2.51,13.38,13.38,0,0,0,2.35,7.52,14.65,14.65,0,0,0,5.9,5,13,13,0,0,0,10.68.41,6.64,6.64,0,0,0,1.56-.93,4.79,4.79,0,0,0,1.68-3.32,4.92,4.92,0,0,0-1.2-3.54c-.63-.69-1.48-1.22-1.85-2.1a3.39,3.39,0,0,1,.12-2.5c.32-.8.79-1.51,1.15-2.28a8.44,8.44,0,0,0,.75-4.85,7,7,0,0,0-2.31-4.24,10,10,0,0,0-5.88-1.93c-3-.21-6.27-.08-8.49,2"/><path class="cls-5" d="M185.05,229.78a2.41,2.41,0,0,0-1.14-.23,1.94,1.94,0,0,0-1.43,1.51,3.4,3.4,0,0,0,.37,2.63A2.88,2.88,0,0,0,185,235a1,1,0,0,0,1-.42,3.3,3.3,0,0,1-.91-4.8"/><path class="cls-8" d="M284.16,185.54c-23.71,19.2-58.7,11.35-83-2.43a168.63,168.63,0,0,1-22-14.68c-19.1-15.24-34.06-38.84-34.83-63.2a2,2,0,0,1,.43-1.11l151.74,65A44.45,44.45,0,0,1,284.16,185.54Z"/><path class="cls-9" d="M208.34,85.66c18.74,2.07,38.37,5.18,55.45,13.58,19.66,9.67,37.58,29.22,36.86,52.31a47.07,47.07,0,0,1-4.12,17.58l-151.74-65a23,23,0,0,1,3.74-3.34C164.71,86.7,187.67,83.38,208.34,85.66Z"/><path class="cls-2" d="M144.49,107.7s101.13,40.56,130.67,51.92c0,0-93.69-42.16-128.3-57.86C146.86,101.76,141.63,102.46,144.49,107.7Z"/><path class="cls-2" d="M162.72,109.88s.47-.54,1.4-1.49,2.28-2.27,4-3.77,3.77-3.19,6.09-4.85c1.15-.83,2.38-1.65,3.63-2.46s2.58-1.58,3.92-2.3c.66-.36,1.33-.72,2-1.05s1.36-.66,2-1c1.36-.63,2.73-1.17,4.07-1.67s2.67-.89,3.93-1.24,2.48-.63,3.6-.82,2.17-.34,3.1-.48l2.4-.21,2.11-.06-2.11,0c-.67,0-1.49.05-2.42.1s-2,.16-3.13.35-2.37.4-3.66.68-2.64.66-4,1.09-2.79.94-4.2,1.51c-.7.29-1.41.58-2.11.9s-1.4.64-2.09,1c-1.39.68-2.75,1.42-4.07,2.17s-2.6,1.55-3.81,2.35c-2.42,1.59-4.59,3.22-6.4,4.68s-3.25,2.76-4.25,3.69-1.54,1.51-1.54,1.51Z"/><path class="cls-2" d="M184.28,119.6l.37-.43c.24-.27.6-.67,1.07-1.17s1.06-1.1,1.74-1.79,1.46-1.44,2.35-2.23l1.38-1.24,1.51-1.29c1-.9,2.2-1.74,3.36-2.67s2.44-1.79,3.75-2.66,2.63-1.75,4-2.51l2.07-1.19c.7-.38,1.41-.71,2.11-1.07s1.39-.71,2.09-1l2.09-.88c.69-.29,1.36-.59,2-.85l2-.69,1.89-.65c.61-.2,1.22-.33,1.8-.49,1.16-.29,2.22-.58,3.17-.81l2.49-.43,2.17-.37-2.19.29-2.51.33c-1,.18-2,.43-3.21.68-.58.14-1.21.24-1.83.42l-1.93.58-2,.61c-.68.23-1.37.51-2.08.77l-2.15.82c-.71.3-1.42.64-2.15,1s-1.46.64-2.17,1l-2.14,1.12c-1.45.72-2.81,1.59-4.19,2.38s-2.65,1.71-3.91,2.55-2.44,1.7-3.52,2.58l-1.6,1.24-1.45,1.22c-.94.76-1.75,1.53-2.49,2.18s-1.36,1.26-1.86,1.76-.9.9-1.17,1.19l-.4.43Z"/><path class="cls-2" d="M205.23,129.17s.58-.67,1.71-1.83,2.77-2.76,4.84-4.6a98.82,98.82,0,0,1,16.48-11.84c1.61-.92,3.26-1.76,4.9-2.55s3.29-1.5,4.9-2.15c.81-.32,1.62-.6,2.4-.89s1.57-.52,2.33-.77c1.52-.46,3-.88,4.33-1.18s2.62-.53,3.73-.75,2.1-.31,2.9-.4l2.55-.23-2.56.14c-.81.07-1.79.18-2.92.3s-2.4.33-3.76.63-2.85.62-4.41,1c-.77.23-1.56.44-2.37.7s-1.62.52-2.45.81c-1.64.6-3.33,1.26-5,2s-3.38,1.54-5,2.42a99.39,99.39,0,0,0-17.12,11.42c-2.17,1.79-3.9,3.38-5.1,4.52s-1.85,1.85-1.85,1.85Z"/><path class="cls-2" d="M223.25,137.44s.6-.51,1.71-1.38,2.72-2.09,4.7-3.49a125.47,125.47,0,0,1,15.18-9.27c1.44-.75,2.91-1.44,4.36-2.1s2.9-1.25,4.32-1.79,2.81-1,4.14-1.43,2.61-.75,3.79-1l1.71-.37c.54-.11,1.06-.19,1.55-.27,1-.19,1.84-.24,2.54-.34s1.27-.09,1.65-.12l.58,0h-.58c-.38,0-.94,0-1.66.06s-1.57.09-2.56.24c-.49.07-1,.12-1.57.21l-1.73.3c-1.2.25-2.49.53-3.85.89s-2.77.79-4.23,1.28-2.93,1-4.43,1.63-3,1.26-4.48,1.95a126.63,126.63,0,0,0-15.7,8.76c-2.06,1.34-3.74,2.51-4.9,3.35s-1.83,1.36-1.83,1.36Z"/><path class="cls-2" d="M242.84,146.11s2.35-1.41,6-3.36c.92-.47,1.9-1,3-1.54s2.17-1.1,3.34-1.66,2.37-1.13,3.61-1.7,2.5-1.1,3.76-1.66l3.82-1.56c1.27-.47,2.52-1,3.74-1.39s2.41-.83,3.55-1.17l3.21-.94,2.76-.66c.81-.22,1.54-.3,2.14-.43l1.87-.33-1.89.25c-.6.09-1.34.14-2.16.32l-2.79.54-3.27.79c-1.16.29-2.36.67-3.62,1s-2.52.8-3.82,1.22-2.61.91-3.91,1.39-2.61,1-3.87,1.5-2.52,1-3.71,1.54-2.36,1-3.45,1.52-2.11,1-3,1.41c-3.77,1.79-6.24,3.12-6.24,3.12Z"/><path class="cls-2" d="M263.78,155.52s1.74-.77,4.4-1.82c1.34-.53,2.89-1.13,4.57-1.74s3.49-1.23,5.3-1.82l2.72-.85c.91-.26,1.79-.53,2.65-.76s1.7-.47,2.5-.65,1.55-.38,2.25-.53l1.91-.4c.57-.12,1.08-.18,1.49-.26l1.29-.21-1.3.18c-.41.07-.92.12-1.49.23l-1.92.35c-.71.14-1.46.31-2.27.48s-1.64.4-2.51.6-1.76.47-2.67.71l-2.75.78c-1.83.56-3.65,1.13-5.35,1.71s-3.27,1.14-4.62,1.64c-2.69,1-4.47,1.73-4.47,1.73Z"/><path class="cls-2" d="M163,113.27s-.15.75-.33,2-.39,3.09-.51,5.27a68,68,0,0,0,0,7.48c0,1.36.17,2.77.33,4.2s.37,2.86.64,4.29.59,2.86,1,4.23.83,2.72,1.31,4a38.58,38.58,0,0,0,1.56,3.6c.25.57.56,1.09.84,1.61s.56,1,.85,1.46c.55.94,1.15,1.74,1.65,2.47s1,1.3,1.41,1.79l1.32,1.48-1.26-1.53c-.37-.51-.82-1.13-1.32-1.85s-1-1.56-1.52-2.52c-.27-.47-.54-1-.78-1.48s-.54-1.06-.76-1.63a36.39,36.39,0,0,1-1.38-3.62c-.42-1.27-.8-2.61-1.11-4s-.57-2.78-.78-4.19-.35-2.84-.45-4.24-.14-2.79-.14-4.13a68.8,68.8,0,0,1,.38-7.3c.21-2.12.5-3.88.73-5.1s.39-1.89.39-1.89Z"/><path class="cls-2" d="M184.57,122.2s-.18.78-.4,2.1-.48,3.22-.67,5.5a73,73,0,0,0,.49,16.72c.22,1.5.51,3,.83,4.46.17.73.36,1.44.53,2.15s.41,1.4.6,2.09.45,1.34.66,2l.71,1.88c.5,1.2,1,2.33,1.49,3.35s1,1.93,1.44,2.74.88,1.48,1.24,2l1.16,1.72-1.09-1.77c-.33-.57-.7-1.28-1.15-2.08s-.89-1.74-1.31-2.78-.9-2.18-1.34-3.39l-.62-1.89c-.18-.65-.37-1.31-.56-2s-.34-1.38-.51-2.08-.3-1.42-.43-2.15c-.26-1.45-.48-2.93-.63-4.42a71.8,71.8,0,0,1,.2-16.41c.28-2.22.62-4,.88-5.32s.46-2,.46-2Z"/><path class="cls-2" d="M205.63,130.86s-.19.9-.42,2.43-.51,3.74-.69,6.39a86.78,86.78,0,0,0-.19,9c0,1.66.15,3.36.3,5.1s.37,3.48.66,5.22c.14.87.29,1.74.47,2.6s.36,1.72.57,2.56c.4,1.69.88,3.33,1.39,4.9s1.1,3.06,1.7,4.45c.27.7.62,1.35.91,2s.62,1.25.94,1.83c.59,1.18,1.26,2.19,1.8,3.11s1.12,1.66,1.56,2.29c.93,1.22,1.47,1.91,1.47,1.91l-1.4-2c-.42-.64-.91-1.43-1.47-2.34s-1.13-2-1.68-3.15c-.29-.59-.59-1.2-.86-1.85s-.59-1.31-.84-2c-.54-1.4-1-2.9-1.51-4.46s-.87-3.21-1.2-4.89c-.18-.84-.34-1.69-.47-2.54s-.26-1.72-.37-2.58c-.22-1.73-.36-3.46-.46-5.17s-.14-3.4-.11-5a85.43,85.43,0,0,1,.51-8.88c.27-2.59.63-4.73.9-6.21s.49-2.31.49-2.31Z"/><path class="cls-2" d="M223.74,138.58s0,.79,0,2.14,0,3.26.16,5.56A106.28,106.28,0,0,0,226.09,163c.32,1.5.7,3,1.1,4.44.22.72.43,1.44.64,2.15s.46,1.4.7,2.07c.49,1.35,1,2.64,1.53,3.85s1.09,2.31,1.63,3.33c.28.49.56,1,.81,1.43s.55.86.8,1.25c.48.8,1,1.43,1.38,2s.74.92,1,1.2l.34.43s-.11-.16-.33-.44-.53-.7-.91-1.25-.85-1.21-1.29-2c-.23-.4-.49-.82-.74-1.28l-.75-1.45c-.49-1-1-2.15-1.47-3.37s-.93-2.51-1.35-3.86c-.22-.68-.4-1.38-.61-2.08s-.36-1.42-.55-2.15c-.33-1.45-.64-2.93-.9-4.43a104.54,104.54,0,0,1-1.48-16.56c0-2.27,0-4.16.06-5.48s.11-2.05.11-2.05Z"/><path class="cls-2" d="M243.23,147.18s.39,2.59,1.19,6.4c.21.95.41,2,.68,3.06s.52,2.23.83,3.41.63,2.39,1,3.62.74,2.46,1.11,3.7.81,2.46,1.22,3.67.87,2.38,1.32,3.5.91,2.21,1.37,3.22.93,2,1.35,2.83l1.26,2.33c.36.7.77,1.26,1.06,1.74.61,1,1,1.5,1,1.5s-.31-.56-.87-1.54c-.27-.5-.65-1.07-1-1.79s-.72-1.51-1.14-2.37-.78-1.86-1.2-2.88-.78-2.13-1.2-3.26-.75-2.34-1.14-3.54-.7-2.45-1-3.69-.65-2.49-.92-3.72-.55-2.45-.78-3.63-.46-2.33-.66-3.41-.35-2.12-.52-3.06c-.6-3.81-.85-6.35-.85-6.35Z"/><path class="cls-2" d="M265.56,155.76s.46,1.72,1.28,4.26c.41,1.27.89,2.75,1.46,4.32s1.19,3.23,1.84,4.88c.35.82.68,1.64,1,2.44s.69,1.6,1.05,2.35.69,1.48,1,2.16.67,1.32,1,1.91l.89,1.58c.26.48.53.87.73,1.2l.64,1-.62-1.05c-.19-.34-.44-.74-.69-1.22l-.85-1.6c-.31-.59-.61-1.25-1-1.93s-.64-1.43-1-2.18-.66-1.56-1-2.36-.64-1.64-1-2.47c-.61-1.66-1.21-3.33-1.72-4.91s-1-3.05-1.35-4.33c-.75-2.55-1.17-4.26-1.17-4.26Z"/><path class="cls-9" d="M208,77.07c-.14,13.66-12.83,23.5-24.51,28a74.7,74.7,0,0,1-11.34,3.4c-10.71,2.25-23.12.68-31.75-6a.86.86,0,0,1-.26-.47l65.72-33.83A19.79,19.79,0,0,1,208,77.07Z"/><path class="cls-8" d="M151.92,74.75C158,68.87,164.66,63,172.43,59.49c8.95-4,20.81-4.64,28.57,2.19a21,21,0,0,1,4.89,6.44L140.17,102a9.81,9.81,0,0,1-.09-2.24C139.83,90.11,145.24,81.23,151.92,74.75Z"/><path class="cls-2" d="M141.31,103.08s42.86-23.34,55.2-30.3c0,0-41.27,20.32-56.57,27.78C139.94,100.56,138.69,102.57,141.31,103.08Z"/><path class="cls-2" d="M147.27,97.41s-.05-.32-.11-.91S147,95.06,147,94s0-2.2.07-3.48c0-.63.1-1.29.18-2s.19-1.33.33-2c.06-.34.13-.67.21-1s.16-.66.25-1c.17-.65.37-1.28.58-1.88s.45-1.18.7-1.71.49-1,.74-1.48.5-.85.72-1.21l.61-.88.58-.75-.61.72-.65.87c-.24.35-.51.73-.77,1.18s-.54.93-.82,1.45-.52,1.1-.77,1.7-.47,1.23-.67,1.88c-.1.33-.21.65-.29,1s-.18.66-.26,1c-.17.67-.3,1.35-.41,2s-.21,1.34-.28,2c-.14,1.29-.2,2.5-.21,3.54s0,1.91.06,2.52.08,1,.08,1Z"/><path class="cls-2" d="M156.78,92.74l-.05-.25c0-.16-.06-.4-.1-.71s-.07-.68-.12-1.11-.08-.91-.1-1.44l0-.83c0-.29,0-.59,0-.89,0-.62,0-1.26,0-1.93s.08-1.35.15-2,.15-1.4.29-2.1c.06-.35.12-.71.17-1.06s.16-.69.24-1,.15-.68.23-1,.2-.65.29-1,.19-.64.29-.95.23-.59.33-.88l.32-.84c.1-.27.23-.51.34-.76.23-.48.43-.93.63-1.32s.4-.71.56-1l.49-.86-.52.83-.61,1c-.21.38-.43.82-.68,1.3-.12.24-.26.49-.37.75s-.23.55-.35.83-.25.58-.37.88-.22.62-.33.94l-.33,1c-.1.34-.19.68-.29,1s-.19.69-.27,1-.15.7-.22,1c-.17.71-.26,1.43-.37,2.13s-.17,1.4-.24,2.07-.11,1.33-.12,2c0,.31,0,.61,0,.9v.85c0,.54,0,1,0,1.48s0,.83.08,1.15.06.57.08.74l0,.26Z"/><path class="cls-2" d="M166.06,88.24s-.07-.4-.15-1.12-.16-1.74-.2-3a44,44,0,0,1,.61-9.07c.14-.81.32-1.62.51-2.41s.43-1.57.66-2.31c.12-.37.26-.73.38-1.08s.27-.69.4-1c.27-.66.54-1.28.83-1.84s.56-1,.8-1.5.49-.81.69-1.12l.65-.94-.68.92c-.21.3-.45.67-.73,1.1s-.57.92-.86,1.48-.6,1.16-.9,1.81c-.14.33-.29.67-.43,1s-.29.71-.42,1.08c-.27.73-.52,1.51-.75,2.3s-.43,1.61-.6,2.43a44.1,44.1,0,0,0-.93,9.16c0,1.26.05,2.32.1,3s.11,1.17.11,1.17Z"/><path class="cls-2" d="M174.05,84.38s0-.36,0-1,.06-1.54.14-2.62a56.87,56.87,0,0,1,1.13-7.88c.15-.71.33-1.41.52-2.1s.39-1.36.61-2,.45-1.26.69-1.83.49-1.12.72-1.61l.36-.69c.12-.22.24-.42.35-.61.22-.39.44-.71.61-1l.43-.6.15-.21-.16.2c-.1.14-.26.33-.45.59s-.42.57-.65,1c-.12.19-.25.39-.37.6s-.26.45-.39.69c-.26.48-.53,1-.79,1.58s-.52,1.18-.77,1.82-.48,1.31-.7,2-.42,1.39-.61,2.1a55.75,55.75,0,0,0-1.45,7.92c-.13,1.09-.2,2-.24,2.65s-.06,1-.06,1Z"/><path class="cls-2" d="M182.63,80.09s.19-1.22.56-3c.1-.45.19-.94.31-1.46s.24-1.06.38-1.63.29-1.14.45-1.73.33-1.18.5-1.77.36-1.18.55-1.76.38-1.15.58-1.69.41-1.07.61-1.56l.6-1.38.55-1.14c.16-.34.34-.62.47-.86l.41-.74-.45.72c-.14.24-.33.51-.5.84L187,64l-.66,1.35c-.23.49-.45,1-.69,1.54L185,68.57l-.63,1.75c-.2.59-.41,1.17-.59,1.76s-.36,1.16-.52,1.72-.32,1.11-.46,1.62-.27,1-.39,1.46c-.45,1.81-.7,3-.7,3Z"/><path class="cls-2" d="M191.85,75.54s.23-.82.63-2c.2-.61.44-1.32.71-2.07s.57-1.55.88-2.35l.48-1.18c.17-.38.33-.77.49-1.13s.33-.72.49-1,.31-.64.46-.93l.41-.77c.12-.23.24-.42.33-.59l.3-.5-.31.5c-.09.16-.22.35-.34.58s-.28.48-.43.76-.31.59-.48.92-.34.68-.51,1-.35.74-.52,1.12L193.93,69c-.33.79-.66,1.59-.94,2.34s-.54,1.45-.75,2.06c-.43,1.21-.68,2-.68,2Z"/><path class="cls-2" d="M148.52,98.28s.21.27.6.69.95,1,1.67,1.69a33,33,0,0,0,2.57,2.14c.48.37,1,.74,1.54,1.09s1.1.69,1.67,1,1.15.61,1.74.87a18.12,18.12,0,0,0,1.75.69,17.53,17.53,0,0,0,1.69.49c.27.07.54.11.79.17l.75.12c.48.08.93.1,1.32.14l1,0,.89,0h-.89l-1-.07c-.39,0-.83-.09-1.3-.19a7,7,0,0,1-.74-.16c-.25-.06-.52-.11-.78-.2-.53-.15-1.08-.33-1.64-.55a17.94,17.94,0,0,1-1.69-.76c-.57-.27-1.12-.59-1.67-.92s-1.08-.69-1.59-1.06-1-.74-1.47-1.13a32.32,32.32,0,0,1-2.41-2.21c-.67-.68-1.2-1.28-1.55-1.71s-.54-.67-.54-.67Z"/><path class="cls-2" d="M157.76,93.38s.21.28.61.73,1,1.09,1.7,1.81a33.09,33.09,0,0,0,5.91,4.6c.59.35,1.19.67,1.78,1l.9.43.89.39.87.34.85.29c.56.17,1.09.33,1.58.45s1,.2,1.36.28.77.12,1.06.15l.92.09-.92-.13c-.29,0-.64-.12-1-.19s-.86-.19-1.34-.34-1-.31-1.55-.51l-.83-.32-.85-.37-.86-.42-.86-.47c-.58-.32-1.15-.67-1.71-1a32.06,32.06,0,0,1-5.61-4.75c-.68-.73-1.22-1.37-1.58-1.83s-.55-.71-.55-.71Z"/><path class="cls-2" d="M166.75,88.58s.26.32.72.84,1.15,1.24,2,2.06,1.9,1.74,3.07,2.65c.58.46,1.21.9,1.84,1.35s1.31.86,2,1.26c.34.2.68.4,1,.58s.69.36,1,.53c.7.35,1.4.65,2.09.92s1.37.49,2,.68c.32.11.65.18,1,.26s.61.14.9.2c.58.13,1.12.19,1.59.26l1.24.12,1.07,0-1.07-.08-1.23-.16c-.47-.09-1-.17-1.57-.32-.28-.07-.58-.14-.88-.23s-.62-.17-.94-.29c-.63-.21-1.3-.46-2-.75s-1.35-.61-2-1c-.34-.18-.68-.36-1-.56s-.67-.4-1-.61q-1-.63-1.92-1.32c-.61-.46-1.21-.92-1.77-1.39-1.12-.94-2.1-1.88-2.92-2.71s-1.45-1.57-1.88-2.09-.66-.82-.66-.82Z"/><path class="cls-2" d="M174.59,84.53s.26.24.72.62,1.15.92,2,1.53a47.1,47.1,0,0,0,6.4,4c.61.31,1.23.6,1.85.88l.92.39.92.35c.6.22,1.19.41,1.76.57s1.11.28,1.61.39l.73.12.66.09c.41.06.78.06,1.07.09h.7l-.69,0c-.3,0-.66-.06-1.07-.13l-.65-.12-.72-.15c-.49-.13-1-.27-1.58-.45s-1.13-.4-1.72-.64l-.89-.38-.9-.43c-.59-.3-1.19-.61-1.78-1a46.36,46.36,0,0,1-6.14-4.21c-.79-.64-1.43-1.19-1.87-1.59s-.68-.62-.68-.62Z"/><path class="cls-2" d="M183.11,80.26s1,.6,2.55,1.41c.39.2.8.42,1.25.64l1.41.69,1.53.69c.52.24,1.06.45,1.59.68s1.09.42,1.62.62,1.07.38,1.59.54,1,.32,1.5.45l1.36.34,1.16.23c.35.08.66.09.91.13l.78.1-.78-.14c-.24,0-.55-.08-.89-.17l-1.15-.29-1.33-.4c-.47-.15-1-.34-1.47-.52l-1.54-.61-1.57-.7c-.52-.25-1-.49-1.55-.75s-1-.5-1.48-.76l-1.36-.75L186,81c-1.49-.88-2.44-1.52-2.44-1.52Z"/><path class="cls-2" d="M192.44,75s.73.33,1.84.77c.55.22,1.2.48,1.91.73s1.45.51,2.21.75l1.13.35,1.11.3c.36.09.71.19,1.05.26s.64.15.94.2l.8.15.62.09.54.07-.54-.08-.62-.11-.79-.16-.94-.23-1-.28-1.1-.33-1.12-.37c-.75-.26-1.5-.53-2.19-.81s-1.34-.53-1.88-.77c-1.1-.46-1.81-.81-1.81-.81Z"/><path class="cls-9" d="M118,207.68c19.22-3.48,29.14-24.24,31.78-42.24A110.19,110.19,0,0,0,151,148.19c-.17-16.05-6.24-33.67-18.35-44.57a1.3,1.3,0,0,0-.73-.26L104.7,206.73A28.39,28.39,0,0,0,118,207.68Z"/><path class="cls-8" d="M97.25,126.93c-6.4,10.2-12.62,21.29-15.14,33.38-2.89,13.94-.06,31.28,12,40.88a32.28,32.28,0,0,0,10.6,5.54L132,103.36a14.36,14.36,0,0,0-3.19.42C115.14,105.72,104.31,115.69,97.25,126.93Z"/><path class="cls-2" d="M133.89,104.75S114.32,172.46,108.35,192c0,0,15.8-64.7,21.57-88.65C129.92,103.37,132.36,101.07,133.89,104.75Z"/><path class="cls-2" d="M127.75,114.75s-.47,0-1.32,0-2.06.15-3.51.35-3.12.5-4.89.93c-.88.21-1.79.47-2.7.74s-1.83.6-2.73,1c-.45.17-.9.35-1.34.55s-.88.39-1.31.59c-.86.41-1.68.85-2.47,1.31s-1.51.93-2.19,1.41-1.31,1-1.85,1.43-1,.93-1.48,1.33l-1.06,1.11c-.56.64-.87,1-.87,1l.82-1.05c.28-.33.63-.71,1-1.16s.88-.91,1.43-1.4,1.14-1,1.8-1.52,1.39-1,2.15-1.53,1.59-1,2.44-1.43c.43-.23.86-.45,1.3-.66s.89-.42,1.34-.61c.89-.4,1.81-.76,2.72-1.09s1.82-.62,2.71-.87a50.16,50.16,0,0,1,4.93-1.16c1.46-.27,2.7-.43,3.57-.52s1.39-.11,1.39-.11Z"/><path class="cls-2" d="M124.12,129.64h-.36l-1,0c-.44,0-1,.05-1.6.09s-1.32.1-2.07.2l-1.18.15-1.26.2c-.87.12-1.76.33-2.7.51s-1.88.44-2.84.71-1.94.55-2.88.92l-1.43.51c-.47.18-.93.39-1.39.58l-1.36.59-1.28.66c-.42.22-.85.42-1.24.64l-1.15.69-1.08.66c-.35.22-.66.47-1,.68-.61.45-1.18.85-1.67,1.23l-1.21,1.05-1,.91,1-1c.33-.3.72-.67,1.17-1.1s1-.82,1.63-1.3c.3-.23.6-.5.94-.73l1.06-.7,1.12-.75c.4-.24.81-.46,1.23-.7l1.27-.72c.43-.22.89-.43,1.34-.65s.91-.45,1.38-.65l1.42-.58c.94-.41,1.92-.71,2.88-1s1.92-.58,2.85-.85,1.84-.47,2.72-.63l1.27-.26,1.19-.19c.77-.14,1.48-.21,2.11-.3s1.18-.13,1.64-.16.81-.06,1.07-.07H124Z"/><path class="cls-2" d="M120.67,144.17s-.58,0-1.62.06-2.51.18-4.27.42a59.89,59.89,0,0,0-12.59,3.07c-1.11.4-2.19.85-3.25,1.32s-2.07,1-3,1.51c-.49.26-1,.54-1.41.81s-.89.55-1.32.82c-.84.56-1.63,1.1-2.32,1.64s-1.32,1.07-1.87,1.53-1,.91-1.36,1.27l-1.13,1.16,1.09-1.21c.35-.37.8-.81,1.31-1.32s1.13-1,1.82-1.59,1.45-1.15,2.28-1.74c.42-.29.85-.59,1.3-.88s.91-.58,1.39-.86c1-.56,2-1.12,3-1.63s2.13-1,3.24-1.46a60.13,60.13,0,0,1,12.63-3.56c1.78-.31,3.28-.48,4.33-.58s1.68-.13,1.68-.13Z"/><path class="cls-2" d="M117.71,156.68s-.5.08-1.39.26-2.14.45-3.65.82a76.48,76.48,0,0,0-10.76,3.54c-1,.39-1.89.82-2.8,1.25s-1.8.9-2.64,1.38-1.63.95-2.37,1.43-1.42,1-2,1.44l-.87.69c-.27.22-.52.45-.76.65-.48.4-.85.81-1.18,1.11s-.55.59-.72.77l-.25.27.24-.28c.16-.18.38-.46.69-.8s.67-.74,1.14-1.16c.23-.22.47-.46.73-.69l.84-.73c.6-.49,1.26-1,2-1.53s1.51-1,2.33-1.55,1.7-1,2.6-1.49,1.83-.95,2.77-1.38a78.1,78.1,0,0,1,10.71-4c1.5-.44,2.77-.76,3.66-1s1.42-.32,1.42-.32Z"/><path class="cls-2" d="M114.33,170.15s-1.65.56-4.1,1.53c-.61.26-1.27.51-2,.81s-1.43.6-2.18.94-1.52.69-2.3,1.06-1.56.77-2.35,1.15l-2.31,1.22c-.75.43-1.5.84-2.2,1.26s-1.38.84-2,1.25l-1.75,1.2-1.44,1.08c-.43.31-.77.63-1.06.88l-.92.78.88-.83c.28-.25.6-.6,1-.93L93,180.4l1.7-1.29c.61-.44,1.28-.88,2-1.35s1.41-.91,2.14-1.38l2.27-1.34c.77-.42,1.53-.87,2.3-1.27s1.52-.81,2.26-1.17,1.46-.73,2.14-1.06l1.94-.91c2.41-1.09,4.07-1.75,4.07-1.75Z"/><path class="cls-2" d="M110.79,184.6s-1.08.54-2.68,1.4c-.79.44-1.72.95-2.7,1.52s-2,1.2-3,1.85l-1.51,1c-.49.34-1,.65-1.44,1s-.92.64-1.33.95-.81.61-1.16.89L96,194c-.29.23-.53.45-.73.63l-.62.55.61-.57c.2-.17.43-.4.71-.64l.94-.8,1.15-.92c.4-.33.85-.65,1.3-1s.94-.67,1.43-1l1.49-1c1-.66,2-1.32,3-1.91s1.88-1.14,2.67-1.59c1.58-.91,2.66-1.47,2.66-1.47Z"/><path class="cls-2" d="M129.37,116.34s.44.25,1.16.71,1.73,1.13,2.89,2a47.35,47.35,0,0,1,3.83,3.2c.68.61,1.35,1.28,2,2s1.31,1.43,1.93,2.18,1.22,1.52,1.77,2.31,1.06,1.59,1.52,2.37.86,1.58,1.21,2.33c.19.38.33.76.49,1.12s.28.71.4,1c.26.68.43,1.32.6,1.88s.27,1.07.36,1.47c.14.83.23,1.3.23,1.3s-.11-.47-.29-1.28c-.11-.41-.25-.9-.41-1.46s-.39-1.18-.68-1.84a10.08,10.08,0,0,0-.45-1c-.17-.35-.32-.72-.52-1.08-.38-.73-.81-1.49-1.3-2.25s-1-1.52-1.59-2.27-1.19-1.48-1.82-2.19-1.31-1.4-2-2-1.36-1.28-2-1.85a46.57,46.57,0,0,0-3.87-3c-1.17-.81-2.18-1.42-2.89-1.84s-1.12-.62-1.12-.62Z"/><path class="cls-2" d="M125.33,130.91s.47.24,1.23.7,1.83,1.15,3.07,2a51.07,51.07,0,0,1,8.32,7.46c.68.75,1.33,1.54,1.94,2.33.31.4.6.81.89,1.2l.83,1.2c.25.4.5.8.75,1.18s.45.79.67,1.16c.42.77.81,1.5,1.12,2.19s.58,1.33.83,1.9.4,1.08.54,1.49l.42,1.32-.47-1.3c-.16-.41-.37-.9-.61-1.47s-.53-1.19-.89-1.85-.75-1.38-1.2-2.13l-.71-1.12-.79-1.14-.86-1.15-.92-1.14c-.64-.76-1.31-1.51-2-2.23a49.29,49.29,0,0,0-8.44-7c-1.24-.83-2.31-1.45-3.06-1.87s-1.19-.62-1.19-.62Z"/><path class="cls-2" d="M121.37,145.1s.53.29,1.4.84,2.11,1.36,3.53,2.41,3,2.33,4.69,3.82c.83.73,1.65,1.52,2.48,2.34s1.62,1.69,2.4,2.59c.38.44.77.89,1.13,1.35s.74.92,1.08,1.39c.71.93,1.35,1.87,1.94,2.81s1.13,1.86,1.6,2.76c.25.44.44.89.65,1.32s.39.85.56,1.25c.37.81.62,1.57.87,2.24s.4,1.27.55,1.76l.39,1.55s-.16-.56-.45-1.53q-.24-.74-.6-1.74c-.28-.66-.55-1.41-.94-2.2-.19-.4-.38-.81-.6-1.23s-.44-.85-.7-1.28c-.49-.88-1-1.77-1.67-2.68s-1.29-1.81-2-2.71c-.36-.44-.73-.89-1.11-1.32s-.77-.88-1.17-1.3c-.79-.86-1.62-1.68-2.45-2.46s-1.67-1.54-2.51-2.23c-1.67-1.4-3.31-2.6-4.74-3.58s-2.66-1.72-3.52-2.23-1.37-.76-1.37-.76Z"/><path class="cls-2" d="M118.1,157.42s.41.33,1.09.91,1.65,1.43,2.77,2.49a73.75,73.75,0,0,1,7.64,8.3c.64.81,1.24,1.64,1.82,2.47.29.41.57.83.84,1.24s.53.83.78,1.24c.5.83,1,1.64,1.35,2.42s.75,1.54,1.05,2.25c.14.35.28.69.4,1s.23.64.33.93c.21.59.33,1.12.46,1.54s.17.77.22,1l.08.36-.09-.35c-.06-.23-.14-.57-.27-1s-.28-.94-.52-1.51c-.11-.29-.22-.6-.36-.92s-.28-.65-.44-1c-.33-.68-.7-1.42-1.13-2.18s-.91-1.55-1.43-2.34c-.26-.4-.54-.79-.82-1.2s-.58-.79-.87-1.2c-.61-.79-1.24-1.58-1.9-2.36a73.83,73.83,0,0,0-7.85-7.88c-1.15-1-2.13-1.79-2.82-2.33s-1.09-.84-1.09-.84Z"/><path class="cls-2" d="M114.72,170.81s1.17,1.31,2.79,3.35c.4.51.84,1.06,1.29,1.66s.93,1.22,1.41,1.88,1,1.34,1.45,2,1,1.43,1.45,2.15.93,1.47,1.38,2.19.87,1.46,1.26,2.17.77,1.4,1.1,2.07l.9,1.89c.25.6.48,1.15.69,1.63s.33.93.46,1.28l.39,1.12-.44-1.1c-.15-.35-.29-.78-.53-1.25s-.47-1-.75-1.6-.64-1.18-1-1.83-.78-1.31-1.18-2-.9-1.37-1.35-2.09-1-1.4-1.47-2.1-1-1.4-1.54-2.06-1-1.34-1.53-2l-1.48-1.8c-.47-.57-.94-1.09-1.35-1.58-1.71-1.94-2.9-3.16-2.9-3.16Z"/><path class="cls-2" d="M110.21,185.59s.69,1,1.66,2.47c.49.76,1,1.63,1.62,2.59s1.17,2,1.75,3c.28.52.57,1,.84,1.56s.54,1,.78,1.53.48,1,.68,1.45.41.91.58,1.32.32.79.46,1.12.23.64.32.88l.27.77s-.1-.28-.29-.76c-.09-.24-.19-.54-.34-.87l-.48-1.12c-.18-.4-.39-.83-.61-1.3s-.47-.93-.72-1.43-.53-1-.8-1.51-.58-1-.88-1.54c-.6-1-1.21-2-1.81-3s-1.17-1.81-1.67-2.55c-1-1.47-1.71-2.42-1.71-2.42Z"/><path class="cls-2" d="M225.9,9.47A345.68,345.68,0,0,0,183.26,24.4c-13.9,5.83-27.46,12.37-40.83,19.14S115.87,57.32,102.66,64A392.65,392.65,0,0,1,62.72,81.83,178.66,178.66,0,0,1,42.42,88c-3.39.81-6.79,1.43-10.18,2s-6.78.87-10.15,1A88.37,88.37,0,0,1,0,89.55v22.93a111.9,111.9,0,0,0,24-.43c4.06-.46,8-1.22,12-2s7.8-1.89,11.59-3.07a196.27,196.27,0,0,0,22-8.32,407.72,407.72,0,0,0,40.34-21.4c13-7.65,25.6-15.51,38.35-23.09S173.85,39.25,187,32.64a337.23,337.23,0,0,1,40.66-17.4A248.58,248.58,0,0,1,315,.9,251.68,251.68,0,0,0,225.9,9.47Z"/></g></svg>