<svg id="Layer_1" data-name="Layer 1" xmlns="http://www.w3.org/2000/svg" xmlns:xlink="http://www.w3.org/1999/xlink" viewBox="0 0 152.62 239.94"><defs><style>.cls-1{fill:none;}.cls-2{fill:#fff;}.cls-3{fill:#461d2c;}.cls-4{fill:#fdd089;}.cls-5{clip-path:url(#clip-path);}.cls-6{fill:#fde1bf;}.cls-7{fill:#fab360;}</style><clipPath id="clip-path"><path class="cls-1" d="M137.13,179.46c0,33-26.78,55.8-59.8,55.8s-59.81-22.77-59.81-55.8A59.66,59.66,0,0,1,40,132.72h0S52.85,122,46.16,114.85h-1.3a8.43,8.43,0,0,1-8.44-8.43v-1.26a8.43,8.43,0,0,1,8.44-8.43l.32,0a206.89,206.89,0,0,0,64.29,0l.33,0a8.43,8.43,0,0,1,8.44,8.43v1.26a8.43,8.43,0,0,1-8.44,8.43h-1.42c-7.07,6,6.26,17.87,6.26,17.87h0A59.68,59.68,0,0,1,137.13,179.46Z"/></clipPath></defs><title>1920x1080 UI Landing Page</title><g id="pot_1"><rect class="cls-2" x="22.54" y="62.82" width="85.18" height="1.35" transform="translate(-18.46 99.38) rotate(-67.5)"/><rect class="cls-2" x="91.89" y="23.54" width="1.35" height="85.49" transform="translate(-13.4 24.64) rotate(-14.15)"/><path class="cls-3" d="M77.33,237.23c-16.74,0-32.22-5.69-43.61-16a55.55,55.55,0,0,1-18.17-41.74,61.42,61.42,0,0,1,19.22-44.77h-.15l1.94-1.63c.65-.58,1.31-1.13,2-1.68l.21-.17c2-1.65,7.1-6.9,7.35-11.28a4.73,4.73,0,0,0-.87-3.11h-.38a10.42,10.42,0,0,1-10.41-10.4v-1.26A10.42,10.42,0,0,1,44.86,94.75H45l.48.08a205.73,205.73,0,0,0,31.84,2.49,205.73,205.73,0,0,0,31.84-2.49l.47-.08h.16a10.42,10.42,0,0,1,10.41,10.41v1.26a10.42,10.42,0,0,1-10.41,10.4h-.62a3.38,3.38,0,0,0-.89,2.34c-.06,4.24,5.51,10.16,7.66,12.09l0,.05a61.43,61.43,0,0,1,23.1,48.16,55.58,55.58,0,0,1-18.16,41.74C109.55,231.54,94.06,237.23,77.33,237.23Z"/><path class="cls-4" d="M137.13,179.46c0,33-26.78,55.8-59.8,55.8s-59.81-22.77-59.81-55.8A59.66,59.66,0,0,1,40,132.72h0S52.85,122,46.16,114.85h-1.3a8.43,8.43,0,0,1-8.44-8.43v-1.26a8.43,8.43,0,0,1,8.44-8.43l.32,0a206.89,206.89,0,0,0,64.29,0l.33,0a8.43,8.43,0,0,1,8.44,8.43v1.26a8.43,8.43,0,0,1-8.44,8.43h-1.42c-7.07,6,6.26,17.87,6.26,17.87h0A59.68,59.68,0,0,1,137.13,179.46Z"/><path class="cls-2" d="M48.21,119.71s31.31,8.74,57.86-1"/><g class="cls-5"><path class="cls-6" d="M24.43,171.73s0-.35.12-1,.24-1.61.52-2.82a46.16,46.16,0,0,1,3.41-9.69,49,49,0,0,1,3.44-6,45.2,45.2,0,0,1,4.89-6,42.84,42.84,0,0,1,6.33-5.43c1.14-.85,2.39-1.57,3.62-2.31.61-.39,1.27-.68,1.91-1s1.28-.68,1.94-1a54.33,54.33,0,0,1,8.13-2.81l2-.51c.68-.16,1.37-.25,2.05-.37l2-.34c.67-.11,1.35-.15,2-.22a63.81,63.81,0,0,1,7.69-.35l3.56.15c1.15,0,2.25.22,3.3.31s2.07.21,3,.36l2.7.49,2.36.43,2,.49c2.39.59,3.75,1,3.75,1s-1.41-.11-3.85-.37l-2-.21L87,134.3l-2.7-.18c-1,0-2-.05-3-.08-2.08-.1-4.33,0-6.71.06s-4.86.34-7.4.74c-.64.09-1.29.15-1.93.28l-1.92.4c-.65.14-1.31.25-2,.42l-1.94.52a50.74,50.74,0,0,0-7.63,2.74c-.62.27-1.22.59-1.83.89s-1.23.57-1.8.93c-1.17.69-2.35,1.34-3.43,2.13s-2.15,1.55-3.2,2.34c-.53.39-1,.85-1.48,1.27s-1,.83-1.43,1.3l-1.35,1.33-1.26,1.37-.63.68-.57.7c-.38.47-.78.92-1.13,1.39A59.85,59.85,0,0,0,30,159c-1,1.79-1.94,3.46-2.64,5s-1.29,2.9-1.71,4.05A37.38,37.38,0,0,0,24.43,171.73Z"/><path class="cls-7" d="M49.06,207.52c-.93-.91-1.84-1.84-2.77-2.74a28.7,28.7,0,0,0-3-2.47,26.82,26.82,0,0,0-3.3-2,43,43,0,0,0-7.33-2.93c-.65-.19-1.31-.37-2-.52s-1.36-.3-2.06-.43-1.41-.22-2.14-.29a20.8,20.8,0,0,0-2.27-.11l-.71,1a18.09,18.09,0,0,0,.87,2.1c.31.66.65,1.29,1,1.91s.72,1.21,1.09,1.79.77,1.14,1.17,1.69a42,42,0,0,0,5.25,5.9,25.8,25.8,0,0,0,3,2.43,28.93,28.93,0,0,0,3.33,1.94c1.16.58,2.35,1.12,3.52,1.68s2.32,1.15,3.45,1.78l1.91,1.06-2-.85c-1.18-.51-2.35-1.07-3.51-1.66s-2.31-1.2-3.47-1.76a26.76,26.76,0,0,0-3.57-1.46,25,25,0,0,0-3.75-.9,42.52,42.52,0,0,0-7.88-.57c-.67,0-1.35,0-2,.11s-1.39.12-2.09.22-1.41.21-2.13.37a17.57,17.57,0,0,0-2.2.59l-.37,1.18a18.27,18.27,0,0,0,1.47,1.73c.51.54,1,1,1.54,1.52s1.05.94,1.58,1.38,1.08.85,1.63,1.25a42.12,42.12,0,0,0,6.79,4,26.15,26.15,0,0,0,3.59,1.4,30,30,0,0,0,3.76.84c1.28.2,2.58.35,3.87.53s2.56.39,3.82.64l2.15.44-2.16-.21q-1.92-.19-3.84-.51c-1.29-.21-2.57-.44-3.85-.63a27.61,27.61,0,0,0-3.85-.3,24.81,24.81,0,0,0-3.84.28,42.88,42.88,0,0,0-7.68,1.85c-.64.22-1.28.46-1.91.72s-1.28.55-1.92.85-1.28.63-1.92,1a16.2,16.2,0,0,0-1.91,1.23v1.24a20.28,20.28,0,0,0,1.93,1.2c.64.36,1.28.68,1.93,1s1.28.58,1.92.83,1.29.49,1.93.7a42,42,0,0,0,7.7,1.77,24.77,24.77,0,0,0,3.84.25,27.68,27.68,0,0,0,3.84-.35c1.28-.19,2.56-.44,3.84-.66s2.56-.41,3.85-.55l2.17-.24-2.12.45c-1.25.27-2.53.5-3.81.69s-2.58.35-3.86.57a26.66,26.66,0,0,0-3.76.88,26.06,26.06,0,0,0-3.57,1.43,42.23,42.23,0,0,0-6.75,4.1c-.55.41-1.08.82-1.61,1.27s-1.05.91-1.57,1.39-1,1-1.52,1.54a18.53,18.53,0,0,0-1.46,1.75l.39,1.18a21.53,21.53,0,0,0,2.2.56c.72.15,1.43.26,2.14.35s1.39.16,2.08.2,1.37.08,2,.09a42.44,42.44,0,0,0,7.87-.66,25.24,25.24,0,0,0,3.74-.93,28.15,28.15,0,0,0,3.55-1.5c1.16-.58,2.31-1.2,3.46-1.8s2.31-1.17,3.49-1.69l2-.89-1.88,1.08c-1.11.64-2.26,1.24-3.43,1.81s-2.34,1.12-3.5,1.71a29,29,0,0,0-3.31,2,26.73,26.73,0,0,0-3,2.46,42,42,0,0,0-5.18,5.95c-.4.55-.78,1.12-1.15,1.7s-.73,1.19-1.07,1.8-.68,1.26-1,1.93a20.17,20.17,0,0,0-.85,2.11l.72,1a20.83,20.83,0,0,0,2.28-.14c.73-.07,1.44-.19,2.14-.31s1.38-.28,2-.44,1.33-.35,2-.55a42.21,42.21,0,0,0,7.3-3,25.61,25.61,0,0,0,3.28-2,27.66,27.66,0,0,0,2.93-2.5c.93-.91,1.83-1.85,2.75-2.77s1.84-1.82,2.81-2.67l1.64-1.46-1.47,1.6c-.87.95-1.78,1.87-2.72,2.77s-1.89,1.78-2.81,2.7a27.89,27.89,0,0,0-2.55,2.89,24.81,24.81,0,0,0-2.08,3.24,42.87,42.87,0,0,0-3.14,7.25c-.2.64-.4,1.3-.57,2s-.33,1.35-.48,2-.26,1.4-.35,2.13a20.51,20.51,0,0,0-.17,2.27l1,.74a17.63,17.63,0,0,0,2.12-.82c.67-.29,1.31-.62,1.94-1s1.23-.68,1.82-1,1.16-.73,1.72-1.12a42.78,42.78,0,0,0,6-5.09,24.81,24.81,0,0,0,2.5-2.93,28,28,0,0,0,2-3.27c.61-1.15,1.18-2.32,1.77-3.47s1.21-2.3,1.87-3.41l2-3.32,1.94-3.34.14-.25c.65.34,1.3.64,2,.92h0l-.08.22L65,259.83l-1.24,3.66c-.41,1.22-.88,2.43-1.37,3.63s-1,2.4-1.48,3.61a27.42,27.42,0,0,0-1.17,3.67,27,27,0,0,0-.59,3.81,42.62,42.62,0,0,0,.06,7.9c.07.67.15,1.35.27,2s.24,1.37.39,2.06.33,1.39.54,2.09a19.79,19.79,0,0,0,.76,2.15l1.21.27a18.73,18.73,0,0,0,1.61-1.6c.5-.55,1-1.1,1.4-1.66s.85-1.12,1.24-1.69.76-1.14,1.12-1.71a43.49,43.49,0,0,0,3.47-7.1,25.84,25.84,0,0,0,1.64-7.51c.09-1.29.14-2.59.22-3.89s.18-2.59.33-3.87l.26-2.17,0,2.16c0,1.29-.09,2.58-.19,3.88s-.24,2.59-.32,3.88a27.62,27.62,0,0,0,0,3.86,24.72,24.72,0,0,0,.59,3.81,41.87,41.87,0,0,0,2.46,7.5c.27.62.55,1.24.87,1.86s.65,1.23,1,1.84.73,1.22,1.15,1.83a20.19,20.19,0,0,0,1.38,1.81l1.23-.1a17,17,0,0,0,1.05-2c.31-.67.57-1.34.83-2s.46-1.33.66-2,.39-1.32.55-2A42.58,42.58,0,0,0,86.06,280a27.44,27.44,0,0,0-.07-3.85,29,29,0,0,0-.65-3.8c-.3-1.26-.65-2.52-1-3.78s-.61-2.52-.85-3.78l-.41-2.15.62,2.07c.37,1.23.69,2.49,1,3.75s.56,2.54.88,3.8A28.51,28.51,0,0,0,86.76,276a26.41,26.41,0,0,0,1.72,3.45,42.54,42.54,0,0,0,4.63,6.4c.45.51.91,1,1.4,1.5s1,1,1.51,1.46,1.07.94,1.65,1.39a21,21,0,0,0,1.86,1.31l1.15-.48a21,21,0,0,0,.38-2.24c.09-.73.14-1.45.18-2.16s0-1.4,0-2.09,0-1.38-.08-2.05a42,42,0,0,0-1.28-7.79A24.88,24.88,0,0,0,98.67,271a28.53,28.53,0,0,0-1.77-3.43c-.67-1.11-1.39-2.2-2.08-3.3s-1.35-2.21-2-3.34l-1-1.93L93,260.81c.73,1.06,1.42,2.16,2.09,3.27s1.31,2.25,2,3.35a28,28,0,0,0,2.24,3.15,26.84,26.84,0,0,0,2.68,2.76,42.47,42.47,0,0,0,6.36,4.69c.58.35,1.17.69,1.78,1s1.24.63,1.88.93,1.31.57,2,.83a19,19,0,0,0,2.17.67l1-.8a19.34,19.34,0,0,0-.32-2.25c-.13-.72-.3-1.42-.48-2.11s-.39-1.35-.61-2-.45-1.3-.7-1.93a42.33,42.33,0,0,0-3.59-7,25.75,25.75,0,0,0-2.28-3.1,28.15,28.15,0,0,0-2.74-2.72c-1-.85-2-1.67-3-2.51s-2-1.7-2.89-2.59L99,252.89l1.7,1.33c1,.79,2,1.63,3,2.49s1.93,1.74,2.92,2.59a27.91,27.91,0,0,0,3.09,2.31,24.44,24.44,0,0,0,3.39,1.81,42.47,42.47,0,0,0,7.48,2.54q1,.24,2,.42c.68.12,1.37.22,2.07.31s1.42.15,2.16.18a19.21,19.21,0,0,0,2.27,0l.66-1.05a19.46,19.46,0,0,0-1-2.05c-.35-.65-.72-1.26-1.1-1.86s-.78-1.17-1.19-1.72-.82-1.1-1.25-1.63a42.75,42.75,0,0,0-5.56-5.61,25.52,25.52,0,0,0-3.12-2.26,27.69,27.69,0,0,0-3.43-1.76c-1.18-.52-2.4-1-3.6-1.49s-2.38-1-3.54-1.59l-2-1,2,.74c1.21.45,2.4.94,3.59,1.47s2.37,1.07,3.56,1.58a27.16,27.16,0,0,0,3.65,1.26,26.64,26.64,0,0,0,3.79.7,42.27,42.27,0,0,0,7.89.14c.68,0,1.36-.11,2-.21s1.38-.2,2.07-.33,1.4-.3,2.11-.49a19.33,19.33,0,0,0,2.16-.7l.31-1.2a19.25,19.25,0,0,0-1.56-1.66c-.53-.51-1.07-1-1.62-1.43s-1.1-.88-1.65-1.29-1.12-.8-1.69-1.17a42.49,42.49,0,0,0-7-3.65,27,27,0,0,0-3.66-1.21,28.43,28.43,0,0,0-3.8-.64c-1.29-.13-2.59-.21-3.89-.32s-2.58-.25-3.85-.44l-2.17-.32,2.16.1c1.29,0,2.58.16,3.87.3s2.59.31,3.88.42a27.55,27.55,0,0,0,3.85.1,25.92,25.92,0,0,0,3.82-.49,41.92,41.92,0,0,0,7.57-2.26c.63-.25,1.25-.52,1.88-.82s1.25-.61,1.87-1,1.24-.7,1.86-1.1a21.32,21.32,0,0,0,1.85-1.33l-.08-1.24a17.91,17.91,0,0,0-2-1.1c-.66-.33-1.32-.61-2-.88s-1.32-.5-2-.72-1.31-.42-2-.6a42.72,42.72,0,0,0-7.78-1.35,24.89,24.89,0,0,0-3.86,0,29.14,29.14,0,0,0-3.81.55c-1.27.27-2.54.58-3.8.87s-2.54.55-3.81.76l-2.16.35,2.09-.57c1.24-.33,2.5-.62,3.78-.88s2.55-.5,3.82-.78a29.09,29.09,0,0,0,3.7-1.08,25.7,25.7,0,0,0,3.49-1.63,42.59,42.59,0,0,0,6.53-4.45c.52-.43,1-.88,1.53-1.36s1-1,1.5-1.46,1-1.05,1.43-1.62a18.9,18.9,0,0,0,1.36-1.83l-.44-1.15a19.31,19.31,0,0,0-2.24-.45c-.72-.11-1.44-.18-2.15-.23s-1.4-.09-2.09-.09-1.37,0-2,0a42.46,42.46,0,0,0-7.82,1.07,27.19,27.19,0,0,0-3.69,1.14,27.76,27.76,0,0,0-3.47,1.69c-1.12.63-2.23,1.32-3.35,2s-2.25,1.29-3.4,1.88l-2,1,1.82-1.17c1.08-.7,2.19-1.36,3.33-2s2.28-1.25,3.4-1.9a28.37,28.37,0,0,0,3.2-2.15,25.89,25.89,0,0,0,2.83-2.61,43.11,43.11,0,0,0,4.87-6.23c.36-.57.71-1.15,1-1.76s.66-1.22,1-1.85.61-1.29.88-2a18.06,18.06,0,0,0,.74-2.15l-.78-1a20,20,0,0,0-2.26.26c-.72.11-1.42.27-2.12.43s-1.36.35-2,.55-1.31.41-1.94.65a42.15,42.15,0,0,0-7.13,3.39,25.89,25.89,0,0,0-3.16,2.21,27,27,0,0,0-2.8,2.66c-.88.95-1.73,1.94-2.59,2.91s-1.75,1.91-2.67,2.81l-1.55,1.54,1.37-1.67c.82-1,1.68-2,2.57-2.91s1.79-1.88,2.66-2.84a27.75,27.75,0,0,0,2.4-3,26.8,26.8,0,0,0,1.9-3.35,42.35,42.35,0,0,0,2.74-7.4c.17-.66.34-1.32.47-2s.26-1.36.37-2.06.18-1.42.23-2.15a19,19,0,0,0,0-2.28l-1-.68a17.21,17.21,0,0,0-2.08.93c-.66.33-1.28.69-1.89,1.05s-1.19.75-1.76,1.14-1.12.79-1.65,1.21a42.36,42.36,0,0,0-5.76,5.4,26.46,26.46,0,0,0-2.35,3.06,28.35,28.35,0,0,0-1.85,3.38c-.55,1.18-1.06,2.38-1.59,3.57S90.1,201.82,89.5,203l-1,1.94.8-2c.48-1.2,1-2.38,1.56-3.55S92,197,92.52,195.82a28.1,28.1,0,0,0,1.36-3.61,25.27,25.27,0,0,0,.8-3.77,42.06,42.06,0,0,0,.36-7.89c0-.68-.08-1.36-.16-2s-.17-1.38-.28-2.08-.25-1.41-.43-2.12a19.06,19.06,0,0,0-.64-2.18l-1.19-.34a18.13,18.13,0,0,0-1.7,1.52c-.53.51-1,1-1.48,1.57s-.91,1.08-1.33,1.62-.82,1.1-1.21,1.66a41.57,41.57,0,0,0-3.84,6.9,26.56,26.56,0,0,0-1.31,3.62,27,27,0,0,0-.73,3.79c-.17,1.28-.29,2.58-.43,3.87s-.32,2.58-.54,3.85l-.38,2.15.15-2.16c.09-1.28.23-2.57.41-3.86s.37-2.57.52-3.86a27.67,27.67,0,0,0,.2-3.85,24.72,24.72,0,0,0-.38-3.83,42.76,42.76,0,0,0-2.06-7.63c-.24-.63-.49-1.27-.77-1.9s-.58-1.26-.9-1.89-.67-1.26-1-1.89a17.87,17.87,0,0,0-1.28-1.88l-1.24,0a17.24,17.24,0,0,0-1.15,2c-.35.65-.64,1.3-.93,1.95s-.54,1.3-.77,2-.46,1.29-.66,1.94a42.83,42.83,0,0,0-1.56,7.74,26.14,26.14,0,0,0-.14,3.85,27.58,27.58,0,0,0,.45,3.83c.23,1.28.51,2.55.77,3.82s.48,2.55.65,3.83l.29,2.17-.51-2.1c-.3-1.26-.56-2.53-.78-3.8s-.43-2.57-.68-3.84a27.63,27.63,0,0,0-1-3.73,24.56,24.56,0,0,0-1.53-3.54A42.72,42.72,0,0,0,61.19,179c-.42-.53-.86-1.06-1.32-1.57s-.93-1-1.43-1.54-1-1-1.58-1.48a18.84,18.84,0,0,0-1.79-1.4l-1.16.41a19.55,19.55,0,0,0-.51,2.22c-.13.73-.21,1.44-.29,2.14s-.12,1.41-.14,2.1,0,1.37,0,2a42.13,42.13,0,0,0,.86,7.86,26.49,26.49,0,0,0,1,3.71,27.65,27.65,0,0,0,1.6,3.51c.6,1.14,1.26,2.27,1.89,3.41s1.23,2.28,1.78,3.44l.94,2L59.92,204c-.67-1.1-1.3-2.23-1.9-3.38s-1.19-2.32-1.81-3.45a28.09,28.09,0,0,0-2.07-3.26,25.76,25.76,0,0,0-2.53-2.9,43.53,43.53,0,0,0-6.1-5c-.56-.38-1.13-.75-1.73-1.1s-1.2-.69-1.82-1-1.28-.64-2-.93a17.77,17.77,0,0,0-2.13-.8l-1,.75a18.12,18.12,0,0,0,.19,2.27c.1.73.23,1.43.37,2.13s.31,1.37.5,2,.38,1.32.59,2a42.68,42.68,0,0,0,3.21,7.21,24.86,24.86,0,0,0,2.12,3.22,26.86,26.86,0,0,0,2.58,2.87c.93.9,1.89,1.78,2.84,2.67s1.87,1.8,2.75,2.74l1.49,1.6-1.63-1.42C50.93,209.32,50,208.44,49.06,207.52Zm5.65,45.36-2.89,2.56c-.91.81-1.84,1.69-2.84,2.7l-1,1c-.58.58-1.17,1.19-1.77,1.77a26.55,26.55,0,0,1-2.87,2.45,25.12,25.12,0,0,1-3.19,2,41.17,41.17,0,0,1-7.2,3c-.76.23-1.36.4-1.95.54s-1.23.28-2,.43c-.61.11-1.34.23-2.1.31-.51.05-1.17.12-1.89.13l-.35-.49c.24-.68.51-1.28.73-1.75.31-.69.66-1.34,1-1.88s.72-1.26,1.06-1.78.66-1,1.12-1.67a41.57,41.57,0,0,1,5.11-5.86,24.71,24.71,0,0,1,2.9-2.4A25.91,25.91,0,0,1,39.81,252c.74-.38,1.5-.76,2.25-1.11l1.24-.61c1.28-.62,2.41-1.22,3.46-1.83l3.35-1.91,3.37-1.89.29-.15c-.11-.22-.21-.44-.32-.65l-.32.15-3.52,1.6-3.53,1.56c-1.11.49-2.26,1-3.53,1.71l-1.22.64c-.73.39-1.48.79-2.22,1.16a28.5,28.5,0,0,1-3.48,1.46A26.29,26.29,0,0,1,32,253a42.14,42.14,0,0,1-7.75.64c-.8,0-1.42,0-2-.09s-1.26-.1-2-.19c-.62-.09-1.35-.19-2.1-.35a18.44,18.44,0,0,1-1.83-.45l-.19-.57c.43-.57.88-1.07,1.22-1.44.52-.57,1.05-1.08,1.49-1.51s1.07-1,1.55-1.37.94-.77,1.58-1.24a41,41,0,0,1,6.65-4A25.42,25.42,0,0,1,32,241a26.59,26.59,0,0,1,3.67-.86c.82-.14,1.67-.26,2.48-.37l1.37-.2c1.41-.21,2.67-.44,3.85-.69l3.78-.81,3.78-.77.41-.08h0A23.28,23.28,0,0,0,52,240h0l-4.47,1.32c-1.77.53-3.52,1.09-5.26,1.7l-2.6.94c-.86.33-1.73.65-2.59,1-1.72.67-3.43,1.37-5.11,2.15l0,.15c1.82-.36,3.61-.8,5.4-1.27.9-.22,1.78-.48,2.67-.72l2.66-.77q2.65-.78,5.26-1.71l4.38-1.55a25,25,0,0,0,2.83,5.69h0l-3.79,2.57q-2.3,1.56-4.5,3.22l-2.19,1.69c-.72.57-1.45,1.13-2.16,1.72-1.44,1.16-2.85,2.35-4.22,3.61l.09.12c1.62-.89,3.2-1.86,4.76-2.84.79-.49,1.55-1,2.33-1.5l2.3-1.54q2.28-1.56,4.48-3.23L56,247.93h0a21.89,21.89,0,0,0,1.83,2.15h0l-.22.21Zm1.86-33.95a23.8,23.8,0,1,1,4.9,33.29A23.83,23.83,0,0,1,56.57,218.93Zm7.16,36-1.94,3.34-2,3.32c-.62,1-1.24,2.16-1.89,3.43-.21.41-.42.82-.62,1.23-.38.74-.76,1.5-1.15,2.23a26.49,26.49,0,0,1-2,3.21,24.11,24.11,0,0,1-2.44,2.86,42.5,42.5,0,0,1-5.95,5c-.66.46-1.18.79-1.7,1.1s-1.08.65-1.77,1-1.21.62-1.91.93a17.59,17.59,0,0,1-1.76.69l-.48-.36a17.68,17.68,0,0,1,.16-1.88c.09-.76.22-1.48.34-2.09.16-.77.31-1.41.47-2s.32-1.17.56-1.93A42.23,42.23,0,0,1,42.78,268a25.41,25.41,0,0,1,2-3.17,26.29,26.29,0,0,1,2.5-2.82c.59-.59,1.21-1.18,1.81-1.75l1-.95c1-1,1.93-1.9,2.75-2.79l2.61-2.85,2.63-2.81.2-.2h0a27,27,0,0,0,2.66,2.3l-.54-.43-2.81,3.57c-1.13,1.45-2.24,2.93-3.3,4.43l-1.58,2.28c-.51.76-1,1.52-1.53,2.3-1,1.54-2,3.1-2.93,4.71l.13.1c1.27-1.35,2.48-2.75,3.67-4.16.6-.71,1.17-1.43,1.76-2.14l1.72-2.16c1.14-1.46,2.23-2.94,3.29-4.45l2.61-3.71a26.53,26.53,0,0,0,2.4,1.5h0Zm19.17,10c.23,1.19.51,2.45.86,3.83.12.44.24.88.35,1.33.21.8.43,1.62.63,2.43a26.79,26.79,0,0,1,.63,3.72,24.47,24.47,0,0,1,.07,3.76,41.53,41.53,0,0,1-1.13,7.7c-.19.77-.36,1.37-.54,1.94s-.38,1.21-.65,2c-.22.58-.49,1.27-.81,2-.22.47-.5,1.06-.86,1.69l-.6.05c-.46-.55-.84-1.1-1.13-1.52-.43-.63-.81-1.26-1.12-1.79-.4-.69-.71-1.26-1-1.82s-.54-1.09-.86-1.82A41.54,41.54,0,0,1,74.33,281a24.62,24.62,0,0,1-.58-3.72,26.27,26.27,0,0,1,0-3.77c0-.83.12-1.68.2-2.5,0-.46.08-.91.11-1.37.12-1.42.18-2.7.2-3.92l.07-3.85.11-3.86v-.23l-.73-.05,0,.24-.42,3.84-.46,3.84c-.15,1.2-.26,2.48-.34,3.9,0,.46,0,.92-.07,1.38-.05.82-.09,1.67-.15,2.5a27.89,27.89,0,0,1-.52,3.74,26.44,26.44,0,0,1-1.08,3.6,42,42,0,0,1-3.42,7c-.42.68-.76,1.2-1.1,1.69s-.74,1-1.22,1.66-.85,1.06-1.37,1.62c-.34.38-.79.86-1.32,1.35l-.59-.13c-.27-.67-.47-1.3-.62-1.8-.22-.72-.39-1.44-.53-2-.16-.78-.28-1.42-.38-2s-.18-1.2-.26-2a41.25,41.25,0,0,1-.07-7.79,27,27,0,0,1,.58-3.71A27.27,27.27,0,0,1,61.5,271c.3-.77.63-1.56.94-2.32.18-.42.36-.85.53-1.27.54-1.32,1-2.52,1.38-3.67L65.59,260l1.27-3.64.08-.22a24.32,24.32,0,0,0,2.71.86l-1.11,4.36q-.69,2.67-1.24,5.39l-.52,2.71c-.16.91-.33,1.82-.48,2.73-.3,1.82-.57,3.65-.76,5.49l.15,0c.62-1.75,1.16-3.52,1.67-5.29.27-.88.5-1.78.75-2.67l.7-2.67q.68-2.69,1.22-5.39l.88-4.42a24.37,24.37,0,0,0,6.37.4l.27,4.51c.11,1.84.26,3.68.46,5.51l.33,2.74c.12.92.23,1.83.37,2.75.27,1.82.56,3.65.94,5.47l.16,0c.06-1.85,0-3.7,0-5.55,0-.92-.07-1.84-.1-2.76l-.15-2.76c-.11-1.84-.27-3.68-.48-5.51l-.5-4.5a23.94,23.94,0,0,0,2.79-.49h0l0,.26.76,3.79Zm9.41-3.7c.58,1.07,1.23,2.17,2,3.38.24.39.49.78.74,1.17.44.69.9,1.41,1.33,2.12a29.4,29.4,0,0,1,1.74,3.35,25.6,25.6,0,0,1,1.2,3.56,41.26,41.26,0,0,1,1.26,7.68c.06.8.08,1.42.08,2s0,1.26,0,2.05c0,.62-.08,1.36-.17,2.12a17.91,17.91,0,0,1-.31,1.86l-.55.23a17.61,17.61,0,0,1-1.54-1.1c-.6-.47-1.16-.95-1.62-1.36s-1.05-1-1.49-1.44-.84-.87-1.37-1.47a41.74,41.74,0,0,1-4.55-6.3,24.74,24.74,0,0,1-2.83-7c-.21-.81-.39-1.64-.57-2.44-.11-.45-.21-.9-.31-1.35-.32-1.39-.65-2.63-1-3.79l-1.11-3.69-1.07-3.71-.07-.25h0a24.86,24.86,0,0,0,2.69-.88l1.64,4.23c.66,1.72,1.37,3.43,2.11,5.11l1.15,2.52c.4.83.78,1.67,1.19,2.5.81,1.66,1.64,3.31,2.56,4.92l.14-.06c-.5-1.78-1.09-3.54-1.69-5.28-.3-.88-.63-1.74-.94-2.61l-1-2.58c-.66-1.72-1.38-3.42-2.13-5.11l-1.86-4.15a23.82,23.82,0,0,0,2.54-1.35l0,0,.15.26,1.88,3.38Zm7.85-6.39c.87.84,1.83,1.7,2.92,2.62l1,.88c.64.53,1.29,1.08,1.92,1.62a28,28,0,0,1,2.67,2.67,25.14,25.14,0,0,1,2.23,3,42.47,42.47,0,0,1,3.54,6.94c.29.74.5,1.32.69,1.9s.38,1.2.59,2c.16.6.33,1.32.48,2.07.09.5.21,1.15.28,1.87l-.46.39c-.7-.19-1.32-.41-1.8-.59-.72-.26-1.4-.55-2-.8-.72-.33-1.31-.62-1.85-.92s-1.07-.57-1.76-1a41.93,41.93,0,0,1-6.25-4.62,26.51,26.51,0,0,1-2.63-2.7,27.92,27.92,0,0,1-2.18-3.07c-.44-.71-.87-1.44-1.29-2.16l-.7-1.18c-.73-1.23-1.42-2.31-2.1-3.31l-2.18-3.19-2.15-3.2-.16-.25a24.66,24.66,0,0,0,2.28-1.67l2.88,3.58q1.73,2.16,3.57,4.22L99.64,262c.63.68,1.25,1.36,1.9,2,1.27,1.34,2.57,2.66,3.93,3.92l.12-.1c-1-1.55-2.11-3-3.22-4.52-.55-.74-1.12-1.47-1.69-2.2L99,259c-1.16-1.43-2.36-2.83-3.58-4.21l-3.08-3.43a27,27,0,0,0,2-2l.27.25,2.82,2.65Zm5.53-8.47c1.09.54,2.26,1.06,3.57,1.61l1.28.52c.76.31,1.55.63,2.32,1a26.56,26.56,0,0,1,3.35,1.73,25.29,25.29,0,0,1,3.05,2.2,41.94,41.94,0,0,1,5.47,5.53c.51.62.89,1.11,1.24,1.6s.73,1,1.16,1.69.72,1.16,1.08,1.83c.25.45.55,1,.84,1.7l-.32.51c-.72,0-1.38,0-1.9,0-.76,0-1.49-.11-2.1-.17-.79-.1-1.44-.2-2-.31s-1.19-.23-2-.41a40.72,40.72,0,0,1-7.36-2.5,25.81,25.81,0,0,1-3.32-1.77,27.17,27.17,0,0,1-3-2.26c-.63-.54-1.27-1.11-1.88-1.67l-1-.91c-1.06-.95-2-1.77-3-2.52l-3-2.37L95,249l-.28-.23c.24-.3.47-.59.7-.9s.65-.92,1-1.38l3.9,2.58q2.3,1.53,4.68,2.94l2.39,1.38c.81.45,1.61.92,2.42,1.35,1.62.89,3.25,1.75,4.93,2.54l.09-.13c-1.45-1.17-2.94-2.26-4.44-3.33-.75-.54-1.52-1.06-2.27-1.58l-2.3-1.55c-1.54-1-3.1-2-4.69-2.92l-4-2.38a22.7,22.7,0,0,0,1.25-2.52l.41.19,3.49,1.66Zm2.69-9.75c1.2.18,2.48.33,3.9.45l1.37.11c.83.06,1.68.13,2.5.21a27.94,27.94,0,0,1,3.72.62,24.82,24.82,0,0,1,3.57,1.18,41.26,41.26,0,0,1,6.9,3.6c.67.44,1.18.79,1.66,1.15s1,.76,1.62,1.26,1,.88,1.59,1.41c.37.35.84.82,1.31,1.36l-.15.59c-.67.25-1.31.43-1.8.56-.74.2-1.46.36-2.06.48-.78.14-1.43.25-2,.33s-1.21.15-2,.21a41.51,41.51,0,0,1-7.78-.15,25.1,25.1,0,0,1-3.7-.68,26.74,26.74,0,0,1-3.57-1.23l-2.29-1-1.26-.57c-1.3-.57-2.49-1.06-3.63-1.48l-3.62-1.33L99,242.33l-.41-.16a23.31,23.31,0,0,0,.88-2.68l4.57,1.3c1.77.51,3.56,1,5.36,1.38l2.7.59c.9.19,1.8.38,2.71.55,1.81.35,3.63.68,5.47.92l0-.15c-1.73-.67-3.48-1.26-5.24-1.82-.88-.29-1.76-.55-2.65-.82l-2.65-.77c-1.78-.5-3.56-.95-5.36-1.36l-4.65-1.06a26.12,26.12,0,0,0,.43-2.77l.53.06,3.82.53Zm-.39-10.1c1.2-.2,2.46-.45,3.84-.76l1.35-.32c.8-.19,1.63-.38,2.44-.55a24.93,24.93,0,0,1,7.5-.51,41.67,41.67,0,0,1,7.66,1.34c.77.21,1.37.39,1.93.59s1.2.42,1.93.71,1.26.52,1.94.86a17.08,17.08,0,0,1,1.66.9l0,.6c-.56.44-1.12.81-1.55,1.09-.64.41-1.28.78-1.81,1.08-.7.37-1.29.67-1.85.93s-1.1.51-1.84.81a40.66,40.66,0,0,1-7.46,2.22A24.29,24.29,0,0,1,120,236a25.93,25.93,0,0,1-3.77-.1c-.83-.07-1.67-.17-2.49-.26l-1.37-.15c-1.42-.16-2.7-.26-3.91-.31l-3.85-.17-3.86-.21-.53,0a26.16,26.16,0,0,0,0-2.8l4.83-.16c1.85-.05,3.69-.16,5.52-.31l2.76-.26c.92-.1,1.83-.18,2.75-.3,1.83-.21,3.66-.46,5.49-.79V230c-1.85-.11-3.7-.14-5.54-.14-.93,0-1.85,0-2.77,0l-2.77.07c-1.84.07-3.68.18-5.52.34l-4.83.41c-.1-.93-.25-1.85-.44-2.76l.61-.12,3.81-.66ZM104.54,217c1.08-.55,2.21-1.17,3.43-1.9l1.19-.7c.7-.43,1.44-.87,2.16-1.28a27.17,27.17,0,0,1,3.39-1.64,24,24,0,0,1,3.59-1.11,41.14,41.14,0,0,1,7.72-1.06c.79,0,1.41,0,2,0s1.27,0,2.05.08c.62.05,1.36.12,2.11.23.51.08,1.16.18,1.86.36l.22.56c-.4.59-.82,1.11-1.15,1.51-.48.59-1,1.13-1.4,1.58s-1,1-1.47,1.45-.9.82-1.51,1.33a41.51,41.51,0,0,1-6.43,4.38,24.65,24.65,0,0,1-3.41,1.59,26.92,26.92,0,0,1-3.62,1.05c-.81.19-1.65.35-2.46.51l-1.35.27c-1.39.29-2.64.58-3.81.9l-3.73,1-3.73,1-.6.14a25.65,25.65,0,0,0-.82-2.67h0l4.64-1.64q2.6-.93,5.16-2l2.55-1.08,2.53-1.12c1.68-.77,3.35-1.56,5-2.43l-.06-.14c-1.8.45-3.57,1-5.33,1.55-.88.27-1.75.58-2.63.86l-2.61.91q-2.59.93-5.15,2l-4.56,1.89h0a27.65,27.65,0,0,0-1.24-2.5l.6-.32,3.43-1.79Zm-8.92-5.3L98.37,209c.86-.86,1.74-1.79,2.69-2.85.31-.34.61-.69.91-1,.55-.61,1.11-1.25,1.67-1.86a28.08,28.08,0,0,1,2.74-2.61,25.29,25.29,0,0,1,3.08-2.14,41.29,41.29,0,0,1,7-3.35c.75-.28,1.34-.47,1.92-.64s1.21-.35,2-.54,1.33-.3,2.09-.42a17.66,17.66,0,0,1,1.87-.23l.38.47c-.2.69-.44,1.3-.63,1.78-.28.71-.6,1.38-.86,1.93-.35.71-.66,1.29-1,1.83s-.61,1.06-1,1.73a40.68,40.68,0,0,1-4.79,6.13,24,24,0,0,1-2.76,2.55,28.23,28.23,0,0,1-3.13,2.11c-.72.41-1.47.83-2.19,1.22l-1.2.67c-1.25.7-2.35,1.36-3.37,2l-3.24,2.09-3.26,2.06-.59.36h0a27.67,27.67,0,0,0-1.59-2.3l4-3q2.19-1.68,4.31-3.46l2.1-1.8c.69-.61,1.39-1.21,2.07-1.84,1.37-1.23,2.72-2.5,4-3.82l-.1-.12c-1.57,1-3.1,2-4.6,3.09-.76.53-1.5,1.09-2.24,1.63l-2.22,1.66c-1.46,1.11-2.9,2.27-4.3,3.46L94.32,217c-.61-.69-1.25-1.36-1.94-2l.52-.54Zm-3.87-12,.56-1.26c.33-.76.67-1.54,1-2.29a26.92,26.92,0,0,1,1.81-3.31,26.1,26.1,0,0,1,2.29-3,41.59,41.59,0,0,1,5.67-5.33c.64-.49,1.14-.85,1.64-1.19s1.05-.71,1.72-1.12,1.17-.69,1.85-1c.46-.23,1-.53,1.72-.79l.5.33a17.78,17.78,0,0,1-.06,1.89c0,.76-.14,1.5-.23,2.1-.12.79-.23,1.43-.36,2s-.25,1.19-.46,2a41.19,41.19,0,0,1-2.7,7.3,25.41,25.41,0,0,1-1.86,3.27,27,27,0,0,1-2.34,2.95c-.56.62-1.14,1.24-1.71,1.84l-1,1c-1,1-1.82,2-2.59,2.94l-2.45,3L92.34,214l-.49.57c-.47-.41-1-.82-1.48-1.2-.23-.18-.48-.34-.72-.51h0l2.9-4.12q1.59-2.27,3.06-4.6l1.45-2.36c.47-.79,1-1.57,1.41-2.38.93-1.59,1.84-3.2,2.67-4.86l-.13-.09c-1.2,1.42-2.33,2.88-3.44,4.35-.56.74-1.1,1.49-1.65,2.23l-1.6,2.25c-1.06,1.51-2.07,3.05-3,4.61l-2.68,4.28a24.09,24.09,0,0,0-2.44-1.33h0l.35-.7,1.76-3.44,1.79-3.42C90.61,202.17,91.17,201,91.75,199.72Zm-11.37.57c.21-1.19.39-2.46.54-3.88l.15-1.37c.08-.82.17-1.67.28-2.49a26.71,26.71,0,0,1,.72-3.7,25.26,25.26,0,0,1,1.27-3.54,41.25,41.25,0,0,1,3.79-6.8c.45-.66.82-1.16,1.19-1.63s.79-1,1.3-1.59.91-1,1.46-1.55c.36-.36.84-.81,1.39-1.27l.58.17a17.3,17.3,0,0,1,.52,1.82c.18.74.32,1.46.42,2.07.13.78.21,1.43.27,2.05s.12,1.2.16,2a41.78,41.78,0,0,1-.35,7.77,26.08,26.08,0,0,1-.78,3.69A27.3,27.3,0,0,1,92,195.56c-.35.76-.72,1.53-1.07,2.27l-.6,1.24c-.61,1.29-1.13,2.46-1.58,3.59l-1.43,3.58-1.46,3.57-.31.72a22.63,22.63,0,0,0-2.6-1l1.5-4.82c.56-1.76,1.06-3.53,1.52-5.32l.67-2.68c.21-.9.43-1.8.62-2.7.4-1.8.78-3.61,1.07-5.45l-.15,0c-.72,1.71-1.36,3.45-2,5.19-.31.87-.6,1.75-.89,2.62L84.45,199q-.83,2.64-1.51,5.32l-1.25,4.9h0A23,23,0,0,0,79,208.7l.12-.79.63-3.81Zm-10.12.13c-.16-1.21-.38-2.47-.66-3.87l-.27-1.35c-.17-.81-.35-1.64-.49-2.46A26.48,26.48,0,0,1,68.4,189a25.47,25.47,0,0,1,.13-3.76,41.26,41.26,0,0,1,1.55-7.63c.23-.76.43-1.35.64-1.91s.45-1.19.75-1.91c.26-.57.56-1.24.92-1.92.23-.45.55-1,.94-1.64l.6,0c.43.58.78,1.14,1,1.58.4.65.75,1.3,1,1.85.36.7.64,1.3.88,1.87s.48,1.11.76,1.86a41.41,41.41,0,0,1,2,7.51,23.9,23.9,0,0,1,.37,3.74,26.84,26.84,0,0,1-.19,3.77c-.1.83-.22,1.67-.33,2.49-.07.45-.13.91-.2,1.36-.19,1.41-.32,2.69-.4,3.9L78.65,204l-.31,3.84-.08.78.52.06a25.82,25.82,0,0,0-3.29-.19h0l0-5.06c0-1.84-.07-3.68-.17-5.52l-.18-2.76c-.07-.92-.13-1.84-.23-2.76-.16-1.84-.36-3.68-.64-5.51h-.15c-.17,1.85-.24,3.7-.29,5.54,0,.93,0,1.85,0,2.77V198c0,1.84.08,3.68.19,5.52l.29,5.05h0a25.81,25.81,0,0,0-2.77.32l-.12-.77-.56-3.82Zm-9.6,3.19c-.52-1.1-1.11-2.24-1.8-3.48-.22-.4-.45-.8-.67-1.21-.41-.71-.83-1.46-1.22-2.19a26.12,26.12,0,0,1-1.55-3.44,24.08,24.08,0,0,1-1-3.62,42.42,42.42,0,0,1-.85-7.73c0-.8,0-1.42,0-2s.07-1.27.15-2c.06-.62.15-1.35.28-2.1.09-.51.21-1.16.4-1.85l.57-.2c.59.42,1.09.84,1.48,1.18.58.5,1.1,1,1.54,1.45s1,1,1.41,1.51.8.92,1.29,1.54A41.45,41.45,0,0,1,64.91,186a24.22,24.22,0,0,1,1.5,3.45,28.39,28.39,0,0,1,1,3.64c.15.82.3,1.66.43,2.47l.24,1.36c.25,1.41.51,2.66.79,3.84l.91,3.75.87,3.76.16.75a23.71,23.71,0,0,0-2.69.71l-1.55-4.79q-.86-2.62-1.84-5.21l-1-2.58c-.35-.85-.69-1.71-1.06-2.56-.71-1.7-1.46-3.39-2.28-5l-.15,0c.41,1.81.89,3.6,1.41,5.37.25.89.53,1.77.79,2.65l.84,2.64q.85,2.63,1.86,5.2l1.8,4.7h0a22.88,22.88,0,0,0-2.54,1.13h0l-.33-.66-1.7-3.47Zm-8.17,6c-.83-.89-1.74-1.8-2.78-2.77l-1-.94c-.61-.56-1.23-1.14-1.83-1.72a26.61,26.61,0,0,1-2.52-2.81,23.39,23.39,0,0,1-2.07-3.14,41.23,41.23,0,0,1-3.16-7.11c-.25-.76-.43-1.35-.59-1.93s-.32-1.23-.48-2c-.13-.6-.27-1.33-.37-2.09-.07-.5-.15-1.16-.18-1.88l.48-.36a17.12,17.12,0,0,1,1.77.68c.7.3,1.36.62,1.91.9s1.27.7,1.8,1,1,.63,1.7,1.07a41.76,41.76,0,0,1,6,5,24.26,24.26,0,0,1,2.47,2.83,26.87,26.87,0,0,1,2,3.19c.4.72.79,1.48,1.17,2.21.21.41.42.82.64,1.23.66,1.26,1.29,2.38,1.92,3.41l2,3.3,2,3.32.36.62h0a23.36,23.36,0,0,0-2.36,1.49l-2.9-4q-1.62-2.25-3.34-4.41l-1.75-2.15c-.59-.7-1.17-1.42-1.78-2.11-1.2-1.41-2.42-2.79-3.71-4.13l-.13.1c.94,1.6,2,3.15,3,4.68.5.77,1,1.53,1.56,2.29l1.6,2.25c1.08,1.5,2.19,3,3.35,4.4l3.11,3.88a23.19,23.19,0,0,0-2.28,2.05l.19-.2-.47-.48-2.67-2.79Zm1.91,3.6,2.89,2.56.49.44a25.84,25.84,0,0,0-1.89,2.25l.09-.12L52,215.38c-1.48-1.1-3-2.17-4.52-3.19l-2.32-1.51c-.78-.5-1.55-1-2.34-1.48-1.57-1-3.16-1.92-4.79-2.8l-.09.13c1.38,1.24,2.81,2.41,4.26,3.56.71.58,1.45,1.14,2.18,1.7l2.21,1.67q2.22,1.64,4.53,3.17l4.08,2.71A24.54,24.54,0,0,0,52.4,225l-4.55-1.56c-1.75-.6-3.5-1.15-5.28-1.66L39.91,221c-.89-.23-1.78-.48-2.68-.7-1.79-.44-3.59-.86-5.42-1.2l0,.14c1.69.77,3.41,1.45,5.13,2.1.86.34,1.73.64,2.6,1l2.61.91q2.63.9,5.28,1.65L52,226.18a24.6,24.6,0,0,0-1,6.24l-4.74-.1c-1.84,0-3.68,0-5.53,0l-2.76.1-2.76.15c-1.85.12-3.69.27-5.53.5v.15c1.85.22,3.69.34,5.53.44.92.06,1.85.09,2.77.13l2.76.07c1.85,0,3.69,0,5.53,0L51,233.7a26.2,26.2,0,0,0,.23,2.8h0l-.43.06L47,237l-3.84.42c-1.21.13-2.48.31-3.88.56l-1.36.24-2.47.42a28.75,28.75,0,0,1-3.76.34,24.54,24.54,0,0,1-3.75-.24A42.12,42.12,0,0,1,20.35,237c-.76-.26-1.34-.47-1.9-.7s-1.17-.48-1.89-.8c-.56-.27-1.22-.59-1.89-1a18.8,18.8,0,0,1-1.61-1V233a17.68,17.68,0,0,1,1.6-1c.66-.38,1.32-.71,1.87-1,.72-.34,1.32-.6,1.9-.84s1.12-.44,1.88-.7a41.14,41.14,0,0,1,7.56-1.83,24.79,24.79,0,0,1,3.75-.27,28,28,0,0,1,3.76.29c.82.12,1.67.26,2.48.4l1.36.23c1.41.23,2.68.4,3.88.51l3.84.38,3.84.42.49.06c0-.24.07-.47.11-.71l-.5-.09-3.8-.73-3.78-.77c-1.19-.24-2.46-.46-3.87-.65l-1.37-.19c-.81-.1-1.66-.21-2.48-.34a27.06,27.06,0,0,1-3.68-.82A25.25,25.25,0,0,1,28.4,224a41.23,41.23,0,0,1-6.7-4c-.64-.47-1.13-.85-1.6-1.24s-1-.81-1.55-1.34-1-.93-1.51-1.49c-.35-.37-.79-.86-1.23-1.43l.18-.58c.68-.21,1.33-.36,1.83-.47.75-.16,1.48-.27,2.08-.36.79-.1,1.44-.17,2.06-.22s1.21-.08,2-.1a41.25,41.25,0,0,1,7.76.56,25.15,25.15,0,0,1,3.66.88,27,27,0,0,1,3.49,1.42c.75.37,1.5.76,2.24,1.14l1.22.62c1.27.65,2.43,1.2,3.55,1.68l3.54,1.52L53,222.13l.53.25c.1-.22.21-.43.32-.64l-.53-.28-3.4-1.85-3.37-1.88c-1.06-.6-2.2-1.18-3.48-1.8l-1.25-.59c-.75-.35-1.52-.71-2.26-1.08a28.5,28.5,0,0,1-3.26-1.9A25.52,25.52,0,0,1,33.34,210a40.62,40.62,0,0,1-5.17-5.82c-.47-.64-.83-1.15-1.15-1.66s-.68-1.07-1.07-1.75-.66-1.19-1-1.88a17.49,17.49,0,0,1-.74-1.74l.34-.49c.72,0,1.38.06,1.89.11.76.07,1.49.18,2.09.28.78.14,1.43.28,2,.42s1.18.29,1.94.51a41.83,41.83,0,0,1,7.23,2.9A25.42,25.42,0,0,1,43,202.81a28.29,28.29,0,0,1,2.89,2.42L47.65,207l1,1c1,1,2,1.88,2.87,2.67Z"/><path class="cls-7" d="M66.93,244.88a14.65,14.65,0,1,0-3-20.49A14.65,14.65,0,0,0,66.93,244.88Z"/><path class="cls-7" d="M63.05,250.1a21.15,21.15,0,1,0-4.35-29.59A21.14,21.14,0,0,0,63.05,250.1Zm25-33.61a20.72,20.72,0,1,1-29,4.27A20.75,20.75,0,0,1,88,216.49Z"/><path class="cls-7" d="M121.17,144.9c-.32-.32-.64-.65-1-1a10.54,10.54,0,0,0-1-.87,9.65,9.65,0,0,0-1.16-.7,14.09,14.09,0,0,0-2.56-1l-.7-.19L114,141l-.75-.11a7,7,0,0,0-.8,0l-.25.35a7,7,0,0,0,.31.73c.11.24.23.46.35.68s.25.42.38.62.27.4.41.59a14.63,14.63,0,0,0,1.83,2.07,10.55,10.55,0,0,0,1,.85,11.17,11.17,0,0,0,1.17.68c.4.2.82.39,1.23.58s.81.41,1.21.63l.67.37-.7-.3c-.41-.18-.82-.37-1.23-.58l-1.21-.62a12.14,12.14,0,0,0-1.25-.51,8.44,8.44,0,0,0-1.32-.31,14.66,14.66,0,0,0-2.75-.2,5.79,5.79,0,0,0-.72,0c-.24,0-.48,0-.73.07l-.74.13a7.34,7.34,0,0,0-.77.21l-.13.41a6.33,6.33,0,0,0,.51.61c.18.19.36.36.54.53s.37.33.55.48.38.3.57.44a14.88,14.88,0,0,0,2.38,1.41,9.66,9.66,0,0,0,1.26.49,9.55,9.55,0,0,0,1.31.29l1.35.19c.46.06.9.14,1.34.23l.75.15-.75-.08c-.45,0-.9-.1-1.35-.17s-.89-.16-1.34-.22a8.78,8.78,0,0,0-1.35-.11,8.64,8.64,0,0,0-1.34.1,14.62,14.62,0,0,0-2.69.65c-.22.07-.45.16-.67.25l-.67.29c-.22.11-.45.23-.67.36a4.46,4.46,0,0,0-.67.43v.43a6.15,6.15,0,0,0,.67.42,7.18,7.18,0,0,0,.68.34,6.46,6.46,0,0,0,.67.29l.68.25a14.51,14.51,0,0,0,2.69.62,9.09,9.09,0,0,0,2.69,0l1.34-.23c.45-.08.9-.14,1.35-.19l.76-.08-.74.15c-.44.1-.89.18-1.34.24l-1.35.2a11.86,11.86,0,0,0-1.31.31,9.58,9.58,0,0,0-1.25.5,14.06,14.06,0,0,0-2.36,1.44c-.19.14-.38.28-.57.44l-.55.49c-.18.17-.36.35-.53.54a6.33,6.33,0,0,0-.51.61l.14.41a5.83,5.83,0,0,0,.77.2l.74.12c.25,0,.49.06.73.07l.72,0a14.76,14.76,0,0,0,2.76-.23,8.25,8.25,0,0,0,1.3-.33,9.7,9.7,0,0,0,1.25-.52l1.21-.63c.4-.21.81-.41,1.22-.59l.7-.31-.66.37c-.39.23-.79.44-1.2.64s-.82.39-1.22.6a8.87,8.87,0,0,0-1.16.69,9.49,9.49,0,0,0-1,.86,15.24,15.24,0,0,0-1.82,2.08c-.13.2-.27.39-.4.6s-.25.41-.37.63-.24.44-.35.67a6,6,0,0,0-.29.74l.25.35a5,5,0,0,0,.79,0l.75-.11.72-.16c.23-.05.46-.12.69-.19a14.47,14.47,0,0,0,2.56-1.05,9.47,9.47,0,0,0,1.14-.71,10.65,10.65,0,0,0,1-.88c.32-.31.64-.64,1-1s.65-.63,1-.93l.58-.51-.52.56c-.3.33-.62.65-1,1s-.66.62-1,.94a12.25,12.25,0,0,0-.9,1,8.42,8.42,0,0,0-.72,1.14,14,14,0,0,0-1.1,2.53c-.07.23-.14.46-.2.69s-.12.48-.17.72-.09.49-.12.74a6.83,6.83,0,0,0-.06.8l.35.26a7.12,7.12,0,0,0,.74-.29c.24-.1.46-.22.68-.33l.64-.37.6-.39a15.27,15.27,0,0,0,2.11-1.78,9.47,9.47,0,0,0,.88-1,12.24,12.24,0,0,0,.71-1.15c.21-.4.41-.81.62-1.22s.42-.8.65-1.19l.69-1.16.68-1.17.05-.08c.23.11.46.22.69.31h0l0,.08-.45,1.28-.43,1.28c-.14.43-.3.85-.48,1.27l-.52,1.26a10.1,10.1,0,0,0-.4,1.29,8.56,8.56,0,0,0-.21,1.33,14.26,14.26,0,0,0,0,2.77c0,.23,0,.47.09.71s.09.48.14.72.12.48.19.73a5.63,5.63,0,0,0,.27.75l.42.1a5.92,5.92,0,0,0,.56-.56c.18-.19.34-.39.49-.58s.3-.4.43-.59l.4-.6a15,15,0,0,0,1.21-2.49,9.59,9.59,0,0,0,.39-1.29,11.68,11.68,0,0,0,.19-1.34c0-.45.05-.9.07-1.36s.06-.9.12-1.35l.09-.76v.76c0,.45,0,.9-.07,1.35s-.08.91-.11,1.36a8.69,8.69,0,0,0,0,1.35,8.56,8.56,0,0,0,.21,1.33,14.43,14.43,0,0,0,.86,2.63c.09.22.19.43.3.65l.35.64c.13.22.26.43.41.64a4.64,4.64,0,0,0,.48.64l.43,0c.14-.24.26-.47.37-.71s.2-.46.28-.7.17-.46.24-.69.13-.46.19-.69a14.5,14.5,0,0,0,.4-2.74,10,10,0,0,0,0-1.34,10.43,10.43,0,0,0-.23-1.34c-.11-.44-.23-.88-.34-1.32s-.22-.88-.3-1.32l-.14-.75.21.72c.13.43.25.87.35,1.32s.2.88.31,1.32a9.67,9.67,0,0,0,.41,1.29,9.08,9.08,0,0,0,.6,1.21,14.28,14.28,0,0,0,1.62,2.24c.16.17.32.35.49.52s.34.34.53.51a7.12,7.12,0,0,0,.58.49,6.76,6.76,0,0,0,.65.46l.4-.17a7.64,7.64,0,0,0,.13-.79q0-.37.06-.75c0-.25,0-.49,0-.73s0-.48,0-.72a15.11,15.11,0,0,0-.45-2.73,10.53,10.53,0,0,0-.43-1.27,9.14,9.14,0,0,0-.63-1.2c-.23-.39-.48-.77-.72-1.16s-.47-.77-.69-1.17l-.36-.67.42.62c.26.38.5.76.73,1.15s.46.79.7,1.17a8.71,8.71,0,0,0,.78,1.1,8.62,8.62,0,0,0,.94,1,14.92,14.92,0,0,0,2.23,1.64c.2.12.4.24.62.35s.43.22.66.33.46.2.7.28a5.63,5.63,0,0,0,.76.24l.33-.28a6.54,6.54,0,0,0-.11-.79c-.05-.25-.11-.49-.17-.73l-.21-.71c-.08-.23-.16-.45-.25-.67a14.94,14.94,0,0,0-1.25-2.46,9.87,9.87,0,0,0-.8-1.09,10.76,10.76,0,0,0-1-.95c-.34-.3-.7-.59-1-.88s-.69-.59-1-.91l-.56-.53.6.47c.36.28.7.57,1,.87l1,.9a9.22,9.22,0,0,0,1.08.81,10.46,10.46,0,0,0,1.19.64,15,15,0,0,0,2.62.89l.7.14c.24,0,.48.08.73.11s.49.05.75.06a5.34,5.34,0,0,0,.8,0l.23-.37a6.87,6.87,0,0,0-.35-.72c-.12-.22-.25-.44-.38-.65s-.28-.41-.42-.6-.29-.39-.44-.57a15,15,0,0,0-1.94-2,9.14,9.14,0,0,0-1.09-.79,9.74,9.74,0,0,0-1.2-.62l-1.26-.52c-.42-.18-.84-.36-1.24-.56l-.69-.34.71.27q.63.22,1.26.51l1.24.55a8.81,8.81,0,0,0,1.28.44,8.43,8.43,0,0,0,1.33.25A14.89,14.89,0,0,0,149,160c.23,0,.47,0,.71-.08l.73-.11.73-.17c.25-.07.5-.15.76-.25L152,159a7.64,7.64,0,0,0-.55-.58c-.18-.18-.37-.34-.56-.5l-.58-.45c-.2-.15-.4-.28-.59-.41a15.5,15.5,0,0,0-2.45-1.28,10.07,10.07,0,0,0-1.28-.42,8.51,8.51,0,0,0-1.34-.22l-1.35-.12c-.46,0-.91-.08-1.35-.15l-.76-.11.76,0c.45,0,.9.06,1.35.11l1.35.14a10.25,10.25,0,0,0,1.35,0,8.62,8.62,0,0,0,1.34-.17,15.41,15.41,0,0,0,2.65-.79l.66-.29c.22-.1.43-.22.65-.33s.44-.25.65-.39.43-.29.65-.46l0-.44a5.91,5.91,0,0,0-.69-.38c-.23-.12-.46-.21-.7-.31s-.45-.18-.68-.25l-.69-.21a15.38,15.38,0,0,0-2.72-.48,10.14,10.14,0,0,0-1.35,0,10.29,10.29,0,0,0-1.34.19l-1.33.31c-.44.1-.88.19-1.33.26l-.75.13.73-.2c.43-.12.87-.22,1.32-.31l1.34-.27a9.55,9.55,0,0,0,1.29-.38,9,9,0,0,0,1.22-.57,14.72,14.72,0,0,0,2.29-1.56l.53-.47c.18-.17.36-.34.53-.52s.34-.36.5-.56.32-.41.47-.64l-.15-.41a5.93,5.93,0,0,0-.78-.15l-.75-.09-.74,0h-.71a14.36,14.36,0,0,0-2.74.38,8.37,8.37,0,0,0-1.29.4,9.7,9.7,0,0,0-1.22.58l-1.17.7c-.39.23-.79.45-1.19.66l-.68.34.64-.41c.37-.24.76-.47,1.16-.7s.8-.43,1.19-.66a10.92,10.92,0,0,0,1.12-.75,9.55,9.55,0,0,0,1-.92,14.77,14.77,0,0,0,1.7-2.18c.13-.2.26-.4.37-.61s.23-.43.34-.65.22-.45.31-.69a5.65,5.65,0,0,0,.26-.76l-.27-.33a4.89,4.89,0,0,0-.79.09c-.26,0-.5.09-.75.15s-.47.12-.7.19a6.78,6.78,0,0,0-.68.23,14.71,14.71,0,0,0-2.5,1.18,8.71,8.71,0,0,0-1.1.78,8.58,8.58,0,0,0-1,.93c-.31.33-.61.68-.91,1s-.61.67-.93,1l-.55.54.48-.59c.29-.34.59-.68.9-1s.63-.66.93-1a9.3,9.3,0,0,0,.84-1.06,9.59,9.59,0,0,0,.67-1.17,15.67,15.67,0,0,0,1-2.59c.06-.23.11-.46.16-.7s.09-.48.13-.72.06-.5.08-.76a6.77,6.77,0,0,0,0-.79l-.36-.24c-.26.1-.5.21-.73.32l-.66.37c-.21.13-.42.26-.62.4l-.58.42a15.13,15.13,0,0,0-2,1.9,9,9,0,0,0-1.47,2.25c-.19.41-.37.83-.55,1.25s-.38.82-.59,1.22L135,144l.28-.7c.17-.42.35-.84.55-1.25s.4-.82.58-1.23a9.6,9.6,0,0,0,.48-1.26,8.37,8.37,0,0,0,.28-1.32,14.86,14.86,0,0,0,.12-2.76c0-.24,0-.48,0-.72s-.06-.48-.1-.73-.09-.49-.15-.74-.13-.5-.22-.76l-.42-.12a6.14,6.14,0,0,0-.59.53c-.19.18-.36.37-.52.55l-.47.57c-.15.19-.29.38-.42.58A15.18,15.18,0,0,0,133,137a9.17,9.17,0,0,0-.71,2.6c-.06.45-.1.9-.15,1.35s-.11.9-.19,1.35l-.13.75.05-.75c0-.45.08-.9.14-1.35s.13-.9.19-1.35a10.18,10.18,0,0,0,.07-1.35,8.58,8.58,0,0,0-.14-1.34,13.55,13.55,0,0,0-.72-2.67c-.08-.22-.17-.45-.27-.67s-.2-.44-.31-.66-.24-.44-.37-.66a6.44,6.44,0,0,0-.45-.66h-.43a4.91,4.91,0,0,0-.4.69c-.13.23-.23.46-.33.68s-.19.46-.27.69-.16.45-.23.68a15.22,15.22,0,0,0-.55,2.7,12.18,12.18,0,0,0,0,1.35,10,10,0,0,0,.16,1.34c.08.45.18.89.27,1.34s.17.89.23,1.34l.1.76-.18-.74c-.1-.44-.19-.88-.27-1.33s-.15-.9-.24-1.34a9.69,9.69,0,0,0-.34-1.31,9.56,9.56,0,0,0-.54-1.23,15.29,15.29,0,0,0-1.49-2.33c-.15-.18-.3-.37-.46-.55l-.5-.54c-.18-.17-.36-.34-.56-.51a5.15,5.15,0,0,0-.62-.49l-.41.14a7.92,7.92,0,0,0-.18.78c0,.25-.07.5-.1.75s0,.49,0,.73,0,.48,0,.72a14.55,14.55,0,0,0,.3,2.74,9.23,9.23,0,0,0,.36,1.3,11.33,11.33,0,0,0,.56,1.23c.21.4.44.8.66,1.19s.44.8.63,1.21l.33.69-.4-.65c-.23-.38-.45-.78-.66-1.18s-.42-.81-.64-1.21a9.09,9.09,0,0,0-.72-1.14,8.47,8.47,0,0,0-.89-1,14.14,14.14,0,0,0-2.13-1.76l-.6-.39-.64-.36c-.22-.11-.45-.22-.69-.32a7.12,7.12,0,0,0-.74-.28l-.35.26c0,.28,0,.54.07.8s.08.5.13.74.11.48.18.71.13.47.2.69a14.85,14.85,0,0,0,1.13,2.53,8.34,8.34,0,0,0,.74,1.12,9.55,9.55,0,0,0,.9,1l1,.93c.34.31.66.63,1,1l.52.56-.57-.5C121.83,145.53,121.5,145.22,121.17,144.9Zm2,15.87-1,.9c-.32.28-.64.59-1,.94l-.33.34-.62.63a9.92,9.92,0,0,1-1,.85,9.16,9.16,0,0,1-1.11.7,14.91,14.91,0,0,1-2.52,1l-.68.18-.71.15c-.21,0-.46.08-.73.11l-.66,0-.12-.17a5.67,5.67,0,0,1,.25-.62,6.44,6.44,0,0,1,.34-.65c.13-.25.25-.44.37-.63L114,164a13.7,13.7,0,0,1,1.79-2,8.32,8.32,0,0,1,1-.84,10.4,10.4,0,0,1,1.14-.68l.78-.39.44-.21c.44-.22.84-.43,1.21-.64l1.17-.67,1.18-.66.1-.05-.11-.23-.11,0-1.23.56-1.24.55c-.39.17-.79.37-1.23.6l-.43.22-.78.41a9.72,9.72,0,0,1-1.22.51,8.72,8.72,0,0,1-1.27.32,14.12,14.12,0,0,1-2.72.22c-.28,0-.49,0-.7,0l-.72-.06-.73-.12-.64-.16-.07-.2a6.65,6.65,0,0,1,.43-.51c.18-.2.37-.38.52-.52s.38-.34.54-.48.33-.27.55-.44A14.57,14.57,0,0,1,114,157.1a7.58,7.58,0,0,1,1.22-.49,9.14,9.14,0,0,1,1.29-.3l.87-.13.47-.07,1.35-.24,1.33-.29,1.32-.27.14,0h0c.06.32.13.64.22,1h0l-1.56.46c-.62.18-1.24.38-1.84.6l-.92.32-.9.35c-.6.23-1.2.48-1.79.75l0,.05c.63-.12,1.26-.28,1.89-.44l.93-.25.93-.27c.62-.18,1.23-.38,1.84-.6l1.53-.54a9.28,9.28,0,0,0,1,2h0l-1.33.9c-.53.36-1.06.74-1.57,1.13l-.77.59c-.25.2-.51.39-.76.6-.5.41-1,.82-1.47,1.26l0,0c.57-.31,1.12-.65,1.66-1,.28-.17.55-.35.82-.53l.8-.53c.54-.37,1.06-.75,1.57-1.14l1.28-1h0a9.06,9.06,0,0,0,.64.75h0l-.08.07Zm.65-11.88a8.33,8.33,0,1,1,1.72,11.65A8.33,8.33,0,0,1,123.8,148.89Zm2.51,12.61-.68,1.17-.69,1.16c-.22.37-.44.76-.66,1.21-.08.14-.15.28-.22.43s-.26.52-.4.78a10,10,0,0,1-.7,1.12,7.66,7.66,0,0,1-.85,1,14.63,14.63,0,0,1-2.08,1.75c-.23.16-.42.28-.6.39l-.62.36a7.09,7.09,0,0,1-.67.32,4.75,4.75,0,0,1-.61.25l-.17-.13c0-.25,0-.48,0-.66s.08-.52.12-.73.11-.49.17-.7.11-.41.2-.68A13.59,13.59,0,0,1,119,166a8.11,8.11,0,0,1,.71-1.11,10.27,10.27,0,0,1,.87-1l.63-.6.35-.34c.36-.34.68-.66,1-1l.92-1,.92-1,.07-.07h0a7.3,7.3,0,0,0,.93.81l-.19-.15-1,1.25c-.4.51-.79,1-1.16,1.55l-.55.79-.54.81c-.35.54-.7,1.09-1,1.65l0,0c.45-.47.87-1,1.29-1.45l.61-.75.61-.76c.39-.51.78-1,1.15-1.55l.91-1.3a7.31,7.31,0,0,0,.84.52h0ZM133,165c.08.42.17.85.3,1.34l.12.46.22.85a10.84,10.84,0,0,1,.22,1.31,8.07,8.07,0,0,1,0,1.31,14.64,14.64,0,0,1-.39,2.7c-.07.27-.13.48-.19.68s-.13.42-.23.68-.17.44-.28.68a5.5,5.5,0,0,1-.3.59l-.21,0c-.16-.19-.29-.38-.4-.53s-.28-.44-.39-.62-.25-.45-.34-.64-.19-.38-.3-.64a13.93,13.93,0,0,1-.85-2.58,8,8,0,0,1-.2-1.31,8.18,8.18,0,0,1,0-1.32c0-.29.05-.58.07-.87s0-.32,0-.48c0-.5.07-1,.07-1.37l0-1.35,0-1.35v-.08l-.26,0v.09l-.14,1.34-.17,1.34c0,.42-.09.87-.11,1.37l0,.48c0,.29,0,.59-.05.88a10.47,10.47,0,0,1-.18,1.3,9,9,0,0,1-.38,1.26,14.29,14.29,0,0,1-1.2,2.45c-.14.24-.26.42-.38.59l-.43.58c-.13.17-.3.37-.48.57s-.28.3-.46.47l-.21,0c-.09-.24-.16-.46-.21-.63s-.14-.51-.19-.72-.1-.49-.13-.71a5.5,5.5,0,0,1-.09-.7,14.47,14.47,0,0,1,0-2.72,8.41,8.41,0,0,1,.21-1.3,9.44,9.44,0,0,1,.4-1.26c.1-.27.22-.54.33-.81l.18-.44c.19-.47.35-.89.49-1.29l.43-1.28.44-1.27,0-.08a8,8,0,0,0,.95.3l-.39,1.53c-.16.62-.3,1.25-.43,1.88l-.18,1c-.06.32-.12.64-.17,1q-.17.94-.27,1.92h0c.22-.61.41-1.23.59-1.85.09-.31.17-.62.26-.93l.25-.94c.15-.62.3-1.25.42-1.89l.31-1.54a8.81,8.81,0,0,0,2.23.14l.09,1.58c0,.64.1,1.28.17,1.92l.11,1c0,.32.08.64.13,1,.09.64.2,1.27.33,1.91h.05c0-.64,0-1.29,0-1.94l0-1-.05-1c0-.65-.1-1.29-.17-1.93l-.18-1.57c.33,0,.65-.1,1-.17h0l0,.09.26,1.32Zm3.29-1.3c.2.38.43.76.7,1.19l.25.4c.16.25.32.5.47.75a11.12,11.12,0,0,1,.61,1.17,9.63,9.63,0,0,1,.42,1.25,14.13,14.13,0,0,1,.44,2.68c0,.28,0,.5,0,.71s0,.44,0,.72,0,.47-.06.74-.06.41-.11.65l-.19.08a4.86,4.86,0,0,1-.54-.38l-.57-.48-.52-.5c-.15-.15-.29-.31-.48-.52a14.38,14.38,0,0,1-1.59-2.2,9.27,9.27,0,0,1-.59-1.18,9.4,9.4,0,0,1-.4-1.26c-.07-.28-.14-.57-.2-.85s-.07-.32-.11-.47c-.11-.49-.23-.92-.35-1.33l-.39-1.29-.37-1.3,0-.09h0a6.58,6.58,0,0,0,.95-.31l.57,1.49c.23.6.48,1.19.74,1.78l.4.88c.14.3.27.59.42.88.28.58.57,1.16.89,1.72l.05,0c-.18-.62-.38-1.24-.59-1.85l-.33-.91-.34-.9c-.24-.61-.48-1.2-.75-1.79l-.65-1.45c.3-.14.6-.3.89-.47h0l0,.1.66,1.18Zm2.75-2.23c.3.29.64.59,1,.91l.37.31.67.57a10.17,10.17,0,0,1,.93.93,8.8,8.8,0,0,1,.78,1.06,14.29,14.29,0,0,1,1.24,2.43c.1.26.18.46.24.66s.14.43.21.69.12.46.17.72.07.41.09.66l-.16.13c-.24-.06-.46-.14-.63-.2s-.49-.19-.68-.28l-.65-.32c-.19-.1-.37-.2-.61-.35a13.83,13.83,0,0,1-2.19-1.61,9.05,9.05,0,0,1-.92-1,8.25,8.25,0,0,1-.77-1.07l-.45-.76-.24-.41c-.26-.43-.5-.81-.74-1.16l-.76-1.11-.75-1.13-.06-.08a9.15,9.15,0,0,0,.8-.59l1,1.26c.4.5.82,1,1.25,1.47l.65.72c.22.24.43.48.66.71.44.47.9.93,1.37,1.37l.05,0c-.36-.54-.74-1.06-1.13-1.58-.19-.26-.39-.51-.59-.77l-.6-.76c-.41-.5-.82-1-1.25-1.47l-1.08-1.2a9.28,9.28,0,0,0,.69-.71l.09.09,1,.92Zm1.93-3c.38.18.79.37,1.25.56l.45.18.81.34a9,9,0,0,1,1.17.6,8.93,8.93,0,0,1,1.07.77,15.27,15.27,0,0,1,1.92,1.94c.17.21.3.39.43.56l.4.59a6,6,0,0,1,.38.64,4.65,4.65,0,0,1,.29.59l-.11.18c-.25,0-.48,0-.66,0s-.52,0-.74-.06l-.71-.11-.69-.14a15.42,15.42,0,0,1-2.58-.88,7.91,7.91,0,0,1-1.16-.62,10,10,0,0,1-1.06-.79l-.65-.58-.36-.32c-.38-.33-.72-.62-1.06-.88l-1.06-.83-1.06-.84-.1-.08.25-.32q.18-.24.33-.48l1.36.9c.54.36,1.09.7,1.64,1l.84.48.85.48c.56.31,1.14.61,1.72.88l0,0c-.5-.41-1-.79-1.55-1.17-.26-.19-.53-.37-.8-.55L141,160c-.54-.36-1.09-.7-1.64-1l-1.42-.84a6,6,0,0,0,.44-.88l.15.07,1.22.58Zm.94-3.42c.42.07.87.12,1.37.16l.48,0,.87.07a8.55,8.55,0,0,1,1.3.22,8.27,8.27,0,0,1,1.25.41,14.93,14.93,0,0,1,2.42,1.26l.58.4.57.44c.16.14.36.31.55.5a5.21,5.21,0,0,1,.46.47l-.05.21c-.24.09-.46.15-.63.2s-.51.12-.72.16l-.72.12-.7.07a14.62,14.62,0,0,1-2.72-.05,8.34,8.34,0,0,1-1.3-.24,9.23,9.23,0,0,1-1.24-.43l-.81-.35-.44-.2c-.45-.2-.87-.37-1.27-.52l-1.26-.46-1.27-.48-.14-.06c.12-.31.22-.62.31-.94l1.6.46c.62.17,1.24.34,1.87.48l1,.21.95.19c.63.12,1.27.24,1.91.32v-.05c-.6-.24-1.21-.44-1.83-.64l-.92-.28-.93-.27c-.63-.18-1.25-.34-1.88-.48l-1.63-.37a8.13,8.13,0,0,0,.15-1l.19,0,1.34.19Zm-.13-3.53c.42-.07.86-.16,1.34-.27l.47-.11.86-.19a8.68,8.68,0,0,1,1.3-.19,8.35,8.35,0,0,1,1.32,0,14.43,14.43,0,0,1,2.68.47l.68.2.67.25c.2.08.44.18.68.3s.37.19.58.32l0,.21c-.2.15-.39.28-.55.38l-.63.38-.65.32-.64.29a15.22,15.22,0,0,1-2.61.78,9,9,0,0,1-1.31.16,10.08,10.08,0,0,1-1.32,0l-.87-.09-.48-.06c-.49-.05-.94-.09-1.37-.1l-1.34-.07-1.35-.07h-.19a8,8,0,0,0,0-1l1.69-.06c.65,0,1.29,0,1.94-.11l1-.09,1-.1c.64-.08,1.28-.16,1.92-.28v-.05c-.65,0-1.29,0-1.94,0h-1l-1,0c-.64,0-1.29.06-1.93.12l-1.69.14c0-.32-.09-.64-.15-1l.21,0,1.33-.24Zm-1.21-3.33c.38-.19.77-.41,1.2-.66l.41-.25.76-.45a9,9,0,0,1,1.19-.57,8.48,8.48,0,0,1,1.26-.39,15,15,0,0,1,2.69-.37h.71l.72,0c.21,0,.47,0,.74.08s.4.06.65.12l.07.2a5.58,5.58,0,0,1-.4.53,7.22,7.22,0,0,1-.49.55c-.19.2-.36.36-.52.51s-.31.29-.52.46a13.94,13.94,0,0,1-2.25,1.54,8.57,8.57,0,0,1-1.2.56,8.32,8.32,0,0,1-1.26.36l-.86.18-.47.1c-.49.1-.93.2-1.34.31l-1.3.35-1.31.34-.21,0a8.29,8.29,0,0,0-.29-.93h0l1.63-.58c.6-.21,1.21-.44,1.8-.69l.89-.38c.3-.13.6-.25.89-.39.59-.27,1.17-.54,1.75-.85l0-.05c-.63.16-1.25.35-1.87.54l-.92.31-.91.32c-.61.21-1.21.45-1.81.69l-1.59.67h0a8,8,0,0,0-.44-.88l.22-.11,1.19-.63Zm-3.12-1.85,1-1c.3-.3.61-.63.94-1l.32-.36.59-.66a8.78,8.78,0,0,1,.95-.91,10.23,10.23,0,0,1,1.08-.75,14.48,14.48,0,0,1,2.46-1.17,5.73,5.73,0,0,1,.67-.22c.21-.07.43-.13.69-.19s.47-.11.73-.15.41-.06.66-.08l.13.16a6.4,6.4,0,0,1-.22.63c-.1.25-.21.48-.3.67s-.23.45-.34.64-.21.37-.36.61a14.48,14.48,0,0,1-1.68,2.14,8.86,8.86,0,0,1-1,.9,10,10,0,0,1-1.1.73l-.76.43-.43.24c-.43.24-.82.47-1.17.7l-1.14.73-1.14.72-.2.13h0a7.62,7.62,0,0,0-.56-.8l1.39-1.06c.51-.39,1-.79,1.51-1.21l.74-.63.72-.64c.48-.43.95-.88,1.41-1.34l0,0c-.55.34-1.08.71-1.61,1.08l-.78.57-.78.58c-.51.39-1,.8-1.5,1.21L137,148.21a8.91,8.91,0,0,0-.68-.7l.19-.18Zm-1.36-4.2.2-.45c.11-.26.23-.53.36-.8a10.27,10.27,0,0,1,.63-1.16,9.05,9.05,0,0,1,.8-1,13.86,13.86,0,0,1,2-1.86c.22-.17.39-.3.57-.42l.6-.39c.19-.11.41-.24.65-.36s.37-.19.6-.28l.18.12c0,.25,0,.48,0,.66s-.06.52-.08.73-.09.51-.13.72-.09.41-.16.68a14.46,14.46,0,0,1-1,2.56,8.28,8.28,0,0,1-.65,1.14,9.47,9.47,0,0,1-.82,1l-.6.64-.33.35c-.34.36-.63.7-.9,1l-.86,1-.87,1-.17.2-.52-.42-.25-.18h0l1-1.44c.37-.53.73-1.06,1.07-1.61l.51-.82c.17-.28.34-.56.5-.84.32-.55.64-1.12.93-1.7l-.05,0c-.42.5-.81,1-1.2,1.52l-.58.78-.56.79c-.37.53-.72,1.07-1.06,1.62l-.94,1.49a7.1,7.1,0,0,0-.86-.46h0l.13-.25.61-1.2.63-1.2C135.72,143,135.91,142.62,136.11,142.17Zm-4,.2c.08-.42.14-.87.19-1.36l.06-.48.09-.87a9.62,9.62,0,0,1,.26-1.3,8.83,8.83,0,0,1,.44-1.24,15.2,15.2,0,0,1,1.33-2.38c.16-.23.28-.4.41-.57s.28-.34.46-.55a6.23,6.23,0,0,1,.51-.54,4.58,4.58,0,0,1,.49-.45l.2.06c.08.24.14.46.18.63s.11.52.15.73.07.5.09.72,0,.42.06.7a14.79,14.79,0,0,1-.13,2.72,8.4,8.4,0,0,1-.27,1.29,9.6,9.6,0,0,1-.46,1.23c-.12.27-.25.53-.38.79l-.21.44c-.21.45-.39.86-.55,1.26l-.5,1.25L134,145.7l-.11.25a7.69,7.69,0,0,0-.91-.34l.53-1.69c.19-.61.37-1.23.53-1.86l.23-.94c.07-.31.15-.63.22-.94.14-.63.27-1.27.37-1.91h-.05c-.25.6-.47,1.2-.69,1.81-.11.31-.2.62-.31.92l-.29.92c-.19.62-.37,1.24-.53,1.86l-.44,1.72h0a7.58,7.58,0,0,0-1-.18l0-.28.22-1.33Zm-3.54,0c-.05-.42-.13-.86-.23-1.35l-.09-.48-.18-.86a11.46,11.46,0,0,1-.15-1.31,8.38,8.38,0,0,1,0-1.31,14.19,14.19,0,0,1,.54-2.67c.08-.27.15-.47.22-.67s.16-.42.27-.67.19-.43.32-.67a5.35,5.35,0,0,1,.33-.57h.21a6.27,6.27,0,0,1,.36.55c.14.23.27.46.36.65s.23.45.31.65.17.39.27.65a14.73,14.73,0,0,1,.71,2.63,8.8,8.8,0,0,1,.13,1.31,8.93,8.93,0,0,1-.07,1.32c0,.29-.07.58-.11.87s-.05.32-.07.48c-.07.49-.11.94-.14,1.36l-.1,1.35-.11,1.35,0,.27.19,0a9,9,0,0,0-1.16-.07h0v-1.77c0-.64,0-1.29-.06-1.93l-.06-1c0-.32,0-.64-.08-1-.06-.65-.13-1.29-.22-1.93h-.06c-.05.65-.08,1.29-.1,1.94,0,.32,0,.64,0,1v1c0,.65,0,1.29.07,1.94l.1,1.77h0a6.4,6.4,0,0,0-1,.11l0-.27-.19-1.34Zm-3.36,1.12c-.18-.39-.38-.79-.63-1.22-.07-.14-.15-.28-.23-.42l-.43-.77a9.22,9.22,0,0,1-.54-1.2,9,9,0,0,1-.36-1.27,15.05,15.05,0,0,1-.29-2.71c0-.28,0-.49,0-.7a6.55,6.55,0,0,1,0-.72c0-.22,0-.47.1-.74a5.89,5.89,0,0,1,.14-.64l.2-.07a5,5,0,0,1,.51.41c.21.18.39.36.54.51s.35.36.5.53.27.32.45.54a14.7,14.7,0,0,1,1.47,2.29,8.82,8.82,0,0,1,.53,1.2,10.77,10.77,0,0,1,.33,1.28c.06.29.11.58.15.86l.09.48c.08.49.17.93.27,1.34l.32,1.31.31,1.32.05.26c-.32.07-.63.15-.94.25l-.54-1.67c-.2-.62-.42-1.23-.65-1.83l-.35-.9c-.12-.3-.24-.6-.37-.9-.25-.59-.51-1.18-.8-1.76h-.05c.14.64.31,1.26.49,1.88.09.31.19.62.28.93l.29.92c.2.62.42,1.22.65,1.82l.63,1.65h0a7.75,7.75,0,0,0-.89.39h0l-.11-.23-.59-1.21Zm-2.86,2.08c-.29-.31-.6-.63-1-1l-.35-.33-.64-.6a9.34,9.34,0,0,1-.88-1,7.46,7.46,0,0,1-.72-1.1,13.67,13.67,0,0,1-1.11-2.49c-.09-.26-.15-.47-.21-.67s-.11-.43-.17-.7-.09-.47-.12-.73a5.36,5.36,0,0,1-.07-.66l.17-.13c.24.08.45.17.62.24s.48.22.67.32l.63.35c.18.11.36.22.59.38a14.07,14.07,0,0,1,2.1,1.73,9.64,9.64,0,0,1,.87,1,8.06,8.06,0,0,1,.7,1.12c.14.25.28.52.41.77l.23.43c.23.44.45.83.67,1.2l.7,1.15.69,1.16.13.22h0a8.88,8.88,0,0,0-.83.52l-1-1.41c-.38-.53-.77-1-1.17-1.55l-.61-.75c-.21-.25-.41-.5-.63-.74-.42-.49-.84-1-1.3-1.44l0,0c.33.56.68,1.1,1,1.64l.55.8.56.79c.37.52.77,1,1.17,1.54l1.09,1.36a9,9,0,0,0-.8.71l.07-.07-.17-.16-.93-1Zm.67,1.26,1,.9.17.15a8.47,8.47,0,0,0-.67.79l0,0-1.37-1q-.78-.57-1.59-1.11l-.81-.53-.82-.52c-.54-.34-1.1-.67-1.67-1l0,0c.48.43,1,.84,1.49,1.25l.76.59.77.58q.78.59,1.59,1.11l1.43.95a8.51,8.51,0,0,0-1,2l-1.59-.55c-.61-.21-1.23-.4-1.85-.58l-.93-.26c-.31-.08-.62-.17-.94-.24q-.93-.24-1.89-.42l0,.05c.59.27,1.2.5,1.8.73l.91.34.91.32c.61.21,1.23.4,1.85.57l1.62.46a8.62,8.62,0,0,0-.34,2.19l-1.66,0c-.65,0-1.29,0-1.94,0l-1,0-1,0c-.65,0-1.29.09-1.94.17v.06c.65.07,1.29.12,1.94.15l1,0,1,0c.65,0,1.29,0,1.94,0l1.65-.05c0,.32,0,.65.08,1h0l-.15,0-1.34.16-1.34.14c-.43,0-.87.11-1.36.2l-.48.08-.86.15a11.32,11.32,0,0,1-1.32.12,8.57,8.57,0,0,1-1.31-.09,13.14,13.14,0,0,1-2.65-.61c-.27-.08-.47-.16-.67-.24l-.66-.28c-.19-.09-.43-.21-.66-.34a6.48,6.48,0,0,1-.56-.34v-.21a6.27,6.27,0,0,1,.57-.36l.65-.34c.25-.12.46-.21.66-.29l.66-.25a14.87,14.87,0,0,1,2.65-.64,8.57,8.57,0,0,1,1.31-.09,9.26,9.26,0,0,1,1.32.1l.86.14.48.08c.49.08.94.14,1.36.18l1.34.13,1.35.15.17,0a2.17,2.17,0,0,1,0-.25l-.18,0-1.33-.26-1.32-.27c-.42-.08-.86-.16-1.36-.22l-.47-.07c-.29,0-.59-.07-.87-.12a8.76,8.76,0,0,1-2.52-.77,14.55,14.55,0,0,1-2.34-1.38c-.23-.17-.4-.3-.56-.44a6.66,6.66,0,0,1-.54-.47,6.36,6.36,0,0,1-.53-.52,6.29,6.29,0,0,1-.43-.5l.06-.2c.24-.08.47-.13.64-.17l.73-.12.72-.08.7,0a14.91,14.91,0,0,1,2.72.2,9.22,9.22,0,0,1,1.28.31,8.29,8.29,0,0,1,1.22.5l.78.39.43.22c.45.23.85.42,1.24.59l1.24.53,1.24.55.18.08.12-.22-.19-.1-1.19-.64-1.18-.66c-.37-.21-.77-.42-1.22-.63l-.43-.21-.79-.38a9.79,9.79,0,0,1-1.15-.66,9.29,9.29,0,0,1-1-.83,15,15,0,0,1-1.81-2c-.16-.22-.29-.4-.4-.58s-.24-.37-.37-.61-.23-.42-.35-.66-.17-.37-.26-.61l.12-.17a6,6,0,0,1,.67,0,6.79,6.79,0,0,1,.73.1l.71.14.68.18a15.76,15.76,0,0,1,2.53,1,8.12,8.12,0,0,1,1.12.68,10,10,0,0,1,1,.84l.63.62.34.34c.36.35.69.66,1,.93Z"/><path class="cls-7" d="M127.43,158a5.13,5.13,0,1,0-1.06-7.17A5.13,5.13,0,0,0,127.43,158Z"/><path class="cls-7" d="M126.07,159.79a7.4,7.4,0,1,0-1.52-10.35A7.41,7.41,0,0,0,126.07,159.79ZM134.81,148a7.26,7.26,0,1,1-10.14,1.5A7.27,7.27,0,0,1,134.81,148Z"/><path class="cls-7" d="M12.82,144.9l-1-1a10.65,10.65,0,0,0-1-.87,9.52,9.52,0,0,0-1.15-.7,14.49,14.49,0,0,0-2.57-1l-.69-.19L5.68,141l-.75-.11a7,7,0,0,0-.8,0l-.25.35a7,7,0,0,0,.31.73c.11.24.23.46.35.68s.25.42.38.62.27.4.41.59a14.69,14.69,0,0,0,1.84,2.07,10.43,10.43,0,0,0,1,.85,12.3,12.3,0,0,0,1.17.68l1.23.58c.41.2.82.41,1.21.63l.67.37-.7-.3c-.41-.18-.82-.37-1.23-.58s-.8-.42-1.21-.62A12.14,12.14,0,0,0,8.1,147a8.59,8.59,0,0,0-1.31-.31,14.77,14.77,0,0,0-2.76-.2,5.9,5.9,0,0,0-.72,0c-.24,0-.48,0-.73.07l-.74.13c-.25.06-.51.12-.77.21l-.13.41c.17.23.34.42.51.61s.36.36.54.53.37.33.56.48.37.3.56.44a14.88,14.88,0,0,0,2.38,1.41,9.66,9.66,0,0,0,1.26.49,9.69,9.69,0,0,0,1.32.29l1.35.19c.45.06.89.14,1.34.23l.75.15-.76-.08c-.45,0-.89-.1-1.34-.17s-.9-.16-1.35-.22a8.67,8.67,0,0,0-2.69,0,14.62,14.62,0,0,0-2.69.65c-.22.07-.44.16-.67.25l-.67.29c-.22.11-.45.23-.67.36a5,5,0,0,0-.67.43v.43a6.26,6.26,0,0,0,.68.42,7,7,0,0,0,.67.34,6.61,6.61,0,0,0,.68.29l.67.25a14.7,14.7,0,0,0,2.69.62,9.09,9.09,0,0,0,2.69,0l1.35-.23c.44-.08.89-.14,1.34-.19l.76-.08-.74.15c-.44.1-.88.18-1.33.24l-1.35.2a11.52,11.52,0,0,0-1.32.31,9.58,9.58,0,0,0-1.25.5,14.91,14.91,0,0,0-2.36,1.44c-.19.14-.38.28-.56.44l-.55.49q-.27.25-.54.54c-.17.19-.34.38-.51.61l.14.41a5.83,5.83,0,0,0,.77.2q.38.08.75.12c.24,0,.49.06.73.07l.71,0A14.69,14.69,0,0,0,6.88,161a8.66,8.66,0,0,0,1.31-.33,10.19,10.19,0,0,0,1.24-.52c.41-.2.81-.42,1.21-.63s.81-.41,1.22-.59l.7-.31-.66.37c-.39.23-.79.44-1.2.64s-.82.39-1.22.6a10.42,10.42,0,0,0-1.16.69,9.49,9.49,0,0,0-1,.86,15.17,15.17,0,0,0-1.81,2.08c-.14.2-.28.39-.4.6s-.26.41-.38.63-.24.44-.34.67a6,6,0,0,0-.3.74l.25.35a5.23,5.23,0,0,0,.8,0l.74-.11.72-.16a7,7,0,0,0,.69-.19,14.47,14.47,0,0,0,2.56-1.05,9.47,9.47,0,0,0,1.14-.71,9.57,9.57,0,0,0,1-.88c.33-.31.64-.64,1-1s.65-.63,1-.93l.57-.51-.51.56c-.31.33-.63.65-1,1s-.67.62-1,.94a10.54,10.54,0,0,0-.89,1,9.6,9.6,0,0,0-.73,1.14,14.76,14.76,0,0,0-1.1,2.53c-.07.23-.14.46-.2.69s-.12.48-.17.72-.09.49-.12.74a6.83,6.83,0,0,0-.06.8l.35.26a6.34,6.34,0,0,0,.74-.29c.24-.1.46-.22.68-.33l.64-.37a6.17,6.17,0,0,0,.6-.39,14.7,14.7,0,0,0,2.11-1.78,8.47,8.47,0,0,0,.88-1,9.13,9.13,0,0,0,.71-1.15c.22-.4.42-.81.62-1.22s.43-.8.66-1.19l.69-1.16.68-1.17,0-.08c.23.11.46.22.69.31h0l0,.08-.44,1.28L18,164.48c-.14.43-.3.85-.48,1.27s-.35.84-.51,1.26a8.77,8.77,0,0,0-.41,1.29,8.56,8.56,0,0,0-.21,1.33,15.1,15.1,0,0,0,0,2.77c0,.23.06.47.1.71s.08.48.13.72.12.48.19.73a7.51,7.51,0,0,0,.27.75l.42.1a7.56,7.56,0,0,0,.57-.56c.17-.19.33-.39.48-.58l.44-.59q.21-.3.39-.6a15,15,0,0,0,1.21-2.49A8.33,8.33,0,0,0,21,169.3a9.83,9.83,0,0,0,.19-1.34c0-.45.05-.9.07-1.36s.07-.9.12-1.35l.09-.76v.76c0,.45,0,.9-.07,1.35s-.08.91-.11,1.36a10.14,10.14,0,0,0,0,1.35,10,10,0,0,0,.21,1.33,14.43,14.43,0,0,0,.86,2.63,6.39,6.39,0,0,0,.31.65c.1.21.22.43.34.64s.26.43.41.64a5.62,5.62,0,0,0,.48.64l.43,0a6,6,0,0,0,.37-.71c.11-.23.2-.46.29-.7s.16-.46.23-.69.13-.46.19-.69a14.5,14.5,0,0,0,.4-2.74,8.55,8.55,0,0,0,0-1.34,8.94,8.94,0,0,0-.23-1.34c-.1-.44-.23-.88-.34-1.32s-.21-.88-.3-1.32l-.14-.75.21.72c.13.43.25.87.35,1.32s.2.88.31,1.32a9.67,9.67,0,0,0,.41,1.29,9.08,9.08,0,0,0,.6,1.21,15,15,0,0,0,1.62,2.24c.16.17.32.35.49.52l.53.51a7.12,7.12,0,0,0,.58.49,6.76,6.76,0,0,0,.65.46l.4-.17a7.64,7.64,0,0,0,.13-.79c0-.25,0-.5.07-.75s0-.49,0-.73,0-.48,0-.72a14.28,14.28,0,0,0-.45-2.73,7.91,7.91,0,0,0-.43-1.27,10.46,10.46,0,0,0-.62-1.2l-.73-1.16q-.36-.57-.69-1.17l-.36-.67.43.62c.25.38.49.76.72,1.15s.46.79.7,1.17a9.86,9.86,0,0,0,.78,1.1,9.59,9.59,0,0,0,.94,1,15.45,15.45,0,0,0,2.23,1.64l.62.35.66.33c.23.1.46.2.7.28a5.63,5.63,0,0,0,.76.24l.33-.28a6.54,6.54,0,0,0-.11-.79c0-.25-.11-.49-.17-.73s-.13-.48-.21-.71-.16-.45-.25-.67a14.2,14.2,0,0,0-1.25-2.46,8.73,8.73,0,0,0-.8-1.09,9.57,9.57,0,0,0-1-.95c-.34-.3-.69-.59-1-.88s-.69-.59-1-.91l-.56-.53.6.47c.36.28.7.57,1,.87s.68.61,1,.9a8.45,8.45,0,0,0,1.08.81,9.54,9.54,0,0,0,1.18.64,15,15,0,0,0,2.62.89l.7.14c.24,0,.48.08.73.11s.5.05.75.06a5.34,5.34,0,0,0,.8,0l.23-.37a6.84,6.84,0,0,0-.34-.72l-.39-.65c-.14-.2-.27-.41-.42-.6s-.28-.39-.43-.57a15.05,15.05,0,0,0-1.95-2,9,9,0,0,0-2.29-1.41L34,158.86c-.42-.18-.84-.36-1.24-.56L32,158l.71.27q.63.22,1.26.51l1.25.55a8.3,8.3,0,0,0,1.27.44,8.43,8.43,0,0,0,1.33.25,14.91,14.91,0,0,0,2.76.05c.24,0,.47,0,.71-.08l.73-.11.74-.17c.24-.07.5-.15.75-.25l.11-.42a7.64,7.64,0,0,0-.55-.58c-.18-.18-.37-.34-.56-.5s-.39-.31-.58-.45-.39-.28-.59-.41a14.68,14.68,0,0,0-2.45-1.28,10.07,10.07,0,0,0-1.28-.42,8.58,8.58,0,0,0-1.33-.22c-.45,0-.91-.08-1.36-.12s-.91-.08-1.35-.15l-.76-.11.76,0c.45,0,.9.06,1.35.11l1.36.14a10.15,10.15,0,0,0,1.35,0,8.64,8.64,0,0,0,1.33-.17,15.15,15.15,0,0,0,2.65-.79l.66-.29c.22-.1.44-.22.65-.33s.44-.25.65-.39a7,7,0,0,0,.65-.46l0-.44a7,7,0,0,0-.7-.38c-.23-.12-.46-.21-.69-.31s-.46-.18-.69-.25-.46-.15-.69-.21a15.38,15.38,0,0,0-2.72-.48,10.14,10.14,0,0,0-1.35,0,9.91,9.91,0,0,0-1.33.19l-1.33.31c-.45.1-.89.19-1.34.26l-.75.13.73-.2c.43-.12.88-.22,1.32-.31l1.34-.27a9.55,9.55,0,0,0,1.29-.38,9.76,9.76,0,0,0,1.23-.57,14.64,14.64,0,0,0,2.28-1.56l.54-.47c.17-.17.35-.34.52-.52s.34-.36.5-.56a6.28,6.28,0,0,0,.48-.64l-.16-.41a5.93,5.93,0,0,0-.78-.15q-.37-.06-.75-.09l-.73,0h-.72a14.36,14.36,0,0,0-2.74.38,8.37,8.37,0,0,0-1.29.4,9,9,0,0,0-1.21.58l-1.18.7c-.39.23-.78.45-1.19.66l-.68.34.64-.41c.38-.24.77-.47,1.16-.7s.8-.43,1.19-.66a10.92,10.92,0,0,0,1.12-.75,9.65,9.65,0,0,0,1-.92,15.47,15.47,0,0,0,1.7-2.18c.12-.2.25-.4.36-.61s.24-.43.35-.65.21-.45.3-.69a5.65,5.65,0,0,0,.26-.76l-.27-.33a4.89,4.89,0,0,0-.79.09c-.26,0-.5.09-.74.15s-.48.12-.71.19-.46.14-.68.23a14.71,14.71,0,0,0-2.5,1.18,9.49,9.49,0,0,0-1.1.78,8.58,8.58,0,0,0-1,.93c-.31.33-.6.68-.91,1s-.61.67-.93,1l-.55.54.49-.59c.28-.34.58-.68.89-1s.63-.66.94-1a10.45,10.45,0,0,0,.83-1.06,7.53,7.53,0,0,0,.67-1.17,14.82,14.82,0,0,0,1-2.59c.06-.23.12-.46.16-.7s.09-.48.13-.72a6.31,6.31,0,0,0,.08-.76,6.77,6.77,0,0,0,0-.79l-.36-.24c-.26.1-.5.21-.73.32l-.66.37c-.21.13-.42.26-.61.4l-.58.42a14.63,14.63,0,0,0-2,1.9,9.47,9.47,0,0,0-.82,1.07,11.14,11.14,0,0,0-.65,1.18c-.19.41-.37.83-.55,1.25s-.38.82-.59,1.22l-.36.68.28-.7c.17-.42.36-.84.55-1.25s.4-.82.59-1.23a9.55,9.55,0,0,0,.47-1.26,8.37,8.37,0,0,0,.28-1.32,15.77,15.77,0,0,0,.13-2.76q0-.36-.06-.72c0-.24-.06-.48-.1-.73s-.09-.49-.15-.74-.13-.5-.22-.76l-.42-.12a6.14,6.14,0,0,0-.59.53c-.19.18-.36.37-.52.55l-.47.57c-.15.19-.28.38-.42.58A14.37,14.37,0,0,0,24.62,137a8.8,8.8,0,0,0-.46,1.27,10.08,10.08,0,0,0-.26,1.33c-.06.45-.1.9-.15,1.35s-.11.9-.19,1.35l-.13.75.05-.75c0-.45.08-.9.15-1.35s.13-.9.18-1.35a10.18,10.18,0,0,0,.07-1.35,8.58,8.58,0,0,0-.14-1.34,14.24,14.24,0,0,0-.71-2.67c-.09-.22-.18-.45-.28-.67s-.2-.44-.31-.66a7.3,7.3,0,0,0-.37-.66,5.15,5.15,0,0,0-.45-.66h-.43a6.13,6.13,0,0,0-.4.69c-.12.23-.23.46-.33.68s-.19.46-.27.69-.16.45-.23.68a14.35,14.35,0,0,0-.54,2.7,8.71,8.71,0,0,0-.05,1.35,8.59,8.59,0,0,0,.15,1.34c.08.45.18.89.27,1.34s.17.89.23,1.34l.1.76-.17-.74c-.11-.44-.2-.88-.28-1.33s-.15-.9-.24-1.34a8.4,8.4,0,0,0-.34-1.31,8.29,8.29,0,0,0-.53-1.23,14.62,14.62,0,0,0-1.5-2.33c-.15-.18-.3-.37-.46-.55l-.5-.54-.55-.51a6.21,6.21,0,0,0-.63-.49l-.41.14a5.75,5.75,0,0,0-.17.78c-.05.25-.08.5-.11.75s0,.49-.05.73,0,.48,0,.72a16.41,16.41,0,0,0,.3,2.74,9.25,9.25,0,0,0,.37,1.3,9.63,9.63,0,0,0,.55,1.23l.67,1.19c.22.4.43.8.62,1.21l.33.69-.39-.65c-.24-.38-.46-.78-.67-1.18s-.41-.81-.63-1.21a10.49,10.49,0,0,0-.73-1.14,8.38,8.38,0,0,0-.88-1,15.21,15.21,0,0,0-2.13-1.76L11,137l-.64-.36-.68-.32A7.31,7.31,0,0,0,8.9,136l-.34.26a6.83,6.83,0,0,0,.06.8c0,.25.08.5.13.74s.11.48.18.71a7,7,0,0,0,.21.69,14.82,14.82,0,0,0,1.12,2.53,8.34,8.34,0,0,0,.74,1.12,9.55,9.55,0,0,0,.9,1l1,.93q.49.47,1,1l.52.56-.57-.5C13.47,145.53,13.14,145.22,12.82,144.9Zm2,15.87-1,.9c-.32.28-.64.59-1,.94-.12.11-.23.23-.34.34l-.62.63a9.89,9.89,0,0,1-1,.85,9.3,9.3,0,0,1-1.12.7,14.58,14.58,0,0,1-2.52,1l-.68.18-.7.15c-.22,0-.47.08-.74.11l-.66,0-.12-.17c.08-.24.18-.45.25-.62s.24-.47.34-.65.25-.44.37-.63l.39-.58a14.29,14.29,0,0,1,1.79-2,7.68,7.68,0,0,1,1-.84,9.35,9.35,0,0,1,1.13-.68l.79-.39.43-.21c.45-.22.84-.43,1.21-.64l1.17-.67,1.18-.66.11-.05-.12-.23-.11,0L13,158.2l-1.24.55q-.57.25-1.23.6l-.43.22-.78.41a10.29,10.29,0,0,1-1.21.51,9.21,9.21,0,0,1-1.28.32,14,14,0,0,1-2.71.22c-.28,0-.5,0-.71,0l-.71-.06L2,160.82l-.64-.16-.06-.2c.15-.2.3-.38.42-.51s.37-.38.52-.52l.55-.48a6.19,6.19,0,0,1,.55-.44,13.74,13.74,0,0,1,2.33-1.41,7.58,7.58,0,0,1,1.22-.49,8.67,8.67,0,0,1,1.28-.3l.87-.13.48-.07,1.35-.24,1.32-.29,1.32-.27.14,0h0c.06.32.13.64.22,1h0l-1.56.46c-.62.18-1.23.38-1.84.6l-.91.32-.91.35c-.6.23-1.2.48-1.79.75l0,.05c.64-.12,1.26-.28,1.89-.44l.93-.25.93-.27c.62-.18,1.24-.38,1.84-.6l1.54-.54a8.8,8.8,0,0,0,1,2h0l-1.33.9c-.53.36-1.06.74-1.57,1.13l-.77.59c-.25.2-.51.39-.76.6-.5.41-1,.82-1.47,1.26l0,0c.57-.31,1.12-.65,1.67-1l.81-.53.8-.53c.54-.37,1.06-.75,1.57-1.14l1.28-1h0a9.06,9.06,0,0,0,.64.75h0l-.08.07Zm.65-11.88a8.33,8.33,0,1,1,1.72,11.65A8.34,8.34,0,0,1,15.44,148.89ZM18,161.5l-.68,1.17-.69,1.16c-.22.37-.43.76-.66,1.21-.07.14-.15.28-.22.43s-.26.52-.4.78a10,10,0,0,1-.69,1.12,8.64,8.64,0,0,1-.86,1,14.63,14.63,0,0,1-2.08,1.75c-.23.16-.41.28-.6.39l-.62.36c-.19.1-.42.22-.66.32a5.67,5.67,0,0,1-.62.25L9,171.31a5.55,5.55,0,0,1,.06-.66c0-.26.08-.52.12-.73s.11-.49.16-.7.11-.41.2-.68a14.31,14.31,0,0,1,1.08-2.5,9.19,9.19,0,0,1,.71-1.11,10.27,10.27,0,0,1,.87-1l.64-.6c.11-.12.23-.23.35-.34.35-.34.67-.66,1-1l.91-1,.92-1,.07-.07h0a9,9,0,0,0,.93.81l-.19-.15-1,1.25c-.4.51-.78,1-1.16,1.55l-.55.79-.54.81c-.35.54-.7,1.09-1,1.65l0,0c.45-.47.87-1,1.29-1.45l.62-.75.6-.76c.4-.51.78-1,1.15-1.55l.91-1.3a9.57,9.57,0,0,0,.84.52h0ZM24.66,165c.08.42.18.85.3,1.34l.12.46c.08.28.15.57.22.85a9.17,9.17,0,0,1,.22,1.31,9.33,9.33,0,0,1,0,1.31,15.54,15.54,0,0,1-.4,2.7c-.07.27-.12.48-.19.68s-.13.42-.23.68-.17.44-.28.68a4.12,4.12,0,0,1-.3.59l-.21,0a5.83,5.83,0,0,1-.39-.53c-.15-.22-.29-.44-.4-.62s-.24-.45-.34-.64-.19-.38-.3-.64a13.93,13.93,0,0,1-.85-2.58,9.27,9.27,0,0,1-.2-1.31,9.65,9.65,0,0,1,0-1.32c0-.29,0-.58.07-.87s0-.32,0-.48c0-.5.06-1,.07-1.37l0-1.35,0-1.35v-.08l-.25,0v.09l-.15,1.34-.16,1.34c-.05.42-.09.87-.12,1.37l0,.48c0,.29,0,.59-.05.88a10.47,10.47,0,0,1-.18,1.3,7.84,7.84,0,0,1-.38,1.26,14.29,14.29,0,0,1-1.2,2.45c-.14.24-.26.42-.38.59s-.26.36-.43.58-.29.37-.47.57-.28.3-.47.47l-.2,0a6.1,6.1,0,0,1-.22-.63c-.08-.26-.14-.51-.19-.72s-.1-.49-.13-.71-.06-.42-.09-.7a14.49,14.49,0,0,1,0-2.72,8.43,8.43,0,0,1,.2-1.3,9.44,9.44,0,0,1,.4-1.26c.1-.27.22-.54.33-.81s.12-.3.19-.44c.18-.47.34-.89.48-1.29l.43-1.28.45-1.27,0-.08a8.68,8.68,0,0,0,.95.3l-.39,1.53c-.16.62-.3,1.25-.43,1.88l-.18,1c-.06.32-.12.64-.17,1q-.17.94-.27,1.92h.05c.22-.61.41-1.23.59-1.85.09-.31.18-.62.26-.93l.25-.94q.24-.93.42-1.89l.31-1.54a8.81,8.81,0,0,0,2.23.14l.1,1.58c0,.64.09,1.28.16,1.92l.11,1c.05.32.08.64.13,1,.1.64.2,1.27.33,1.91h.06c0-.64,0-1.29,0-1.94,0-.32,0-.64,0-1l-.05-1c0-.65-.1-1.29-.17-1.93l-.18-1.57c.33,0,.66-.1,1-.17h0l0,.09.26,1.32Zm3.29-1.3c.21.38.43.76.7,1.19l.26.4.46.75A9.51,9.51,0,0,1,30,167.2a8.32,8.32,0,0,1,.42,1.25,14.13,14.13,0,0,1,.44,2.68c0,.28,0,.5,0,.71s0,.44,0,.72,0,.47-.06.74a4.9,4.9,0,0,1-.11.65l-.19.08a6,6,0,0,1-.54-.38l-.57-.48-.52-.5-.48-.52A14.38,14.38,0,0,1,26.8,170a9.27,9.27,0,0,1-.59-1.18,9.4,9.4,0,0,1-.4-1.26c-.07-.28-.14-.57-.2-.85s-.07-.32-.11-.47c-.11-.49-.23-.92-.35-1.33l-.38-1.29-.38-1.3,0-.09h0a6.46,6.46,0,0,0,.94-.31l.57,1.49c.23.6.48,1.19.74,1.78l.4.88c.14.3.27.59.42.88.28.58.57,1.16.89,1.72l.05,0c-.17-.62-.38-1.24-.59-1.85-.1-.3-.22-.61-.33-.91l-.34-.9c-.23-.61-.48-1.2-.75-1.79l-.65-1.45a9.42,9.42,0,0,0,.89-.47h0l0,.1.66,1.18Zm2.75-2.23c.3.29.64.59,1,.91l.37.31.67.57a9,9,0,0,1,.93.93,8.8,8.8,0,0,1,.78,1.06,14.29,14.29,0,0,1,1.24,2.43c.1.26.18.46.24.66s.14.43.21.69.12.46.17.72.07.41.1.66l-.16.13a6.24,6.24,0,0,1-.64-.2c-.25-.09-.48-.19-.68-.28l-.65-.32c-.18-.1-.37-.2-.61-.35a14.31,14.31,0,0,1-2.19-1.61,9.05,9.05,0,0,1-.92-1,9.34,9.34,0,0,1-.76-1.07c-.16-.25-.31-.51-.45-.76s-.17-.27-.25-.41c-.26-.43-.5-.81-.74-1.16l-.76-1.11-.75-1.13-.06-.08a7.86,7.86,0,0,0,.8-.59l1,1.26c.4.5.82,1,1.25,1.47l.65.72.66.71c.45.47.9.93,1.38,1.37l0,0c-.36-.54-.74-1.06-1.13-1.58-.19-.26-.39-.51-.59-.77l-.6-.76c-.4-.5-.82-1-1.25-1.47L28,160.22a9.28,9.28,0,0,0,.69-.71l.1.09,1,.92Zm1.93-3c.38.18.79.37,1.25.56l.45.18c.27.11.55.22.81.34a9.92,9.92,0,0,1,1.18.6,9.72,9.72,0,0,1,1.06.77,14.64,14.64,0,0,1,1.92,1.94c.17.21.31.39.43.56s.26.36.41.59.25.4.38.64.19.36.29.59l-.11.18c-.26,0-.49,0-.67,0s-.52,0-.73-.06l-.72-.11-.69-.14a15.42,15.42,0,0,1-2.58-.88,8.54,8.54,0,0,1-2.21-1.41c-.23-.19-.45-.39-.66-.58l-.36-.32c-.38-.33-.72-.62-1-.88L30,160.24l-1.06-.84-.1-.08.25-.32q.18-.24.33-.48l1.37.9c.53.36,1.08.7,1.64,1l.83.48.85.48c.57.31,1.14.61,1.73.88l0,0c-.5-.41-1-.79-1.55-1.17l-.79-.55-.81-.54c-.54-.36-1.08-.7-1.64-1l-1.41-.84a9,9,0,0,0,.44-.88l.14.07,1.22.58Zm.95-3.42c.42.07.86.12,1.36.16l.48,0,.87.07a8.79,8.79,0,0,1,2.56.63,15.25,15.25,0,0,1,2.41,1.26l.58.4.57.44c.17.14.36.31.55.5a5.21,5.21,0,0,1,.46.47l-.05.21c-.23.09-.46.15-.63.2s-.51.12-.72.16l-.72.12-.7.07a14.62,14.62,0,0,1-2.72-.05,8.21,8.21,0,0,1-1.29-.24,9.33,9.33,0,0,1-1.25-.43l-.8-.35-.44-.2c-.46-.2-.88-.37-1.27-.52l-1.27-.46-1.26-.48-.15-.06a8,8,0,0,0,.31-.94l1.6.46c.62.17,1.25.34,1.87.48l1,.21.95.19c.63.12,1.27.24,1.91.32l0-.05c-.61-.24-1.22-.44-1.84-.64l-.92-.28-.93-.27c-.62-.18-1.25-.34-1.88-.48l-1.62-.37c.06-.32.11-.65.15-1l.18,0,1.34.19Zm-.14-3.53c.42-.07.86-.16,1.34-.27l.47-.11.86-.19a8.62,8.62,0,0,1,1.31-.19,8.22,8.22,0,0,1,1.31,0,14.53,14.53,0,0,1,2.69.47l.67.2.68.25c.2.08.43.18.67.3s.37.19.59.32v.21l-.54.38-.64.38c-.24.13-.45.23-.65.32l-.64.29a15.22,15.22,0,0,1-2.61.78,8.86,8.86,0,0,1-1.3.16,10,10,0,0,1-1.32,0l-.88-.09-.48-.06c-.49-.05-.94-.09-1.36-.1l-1.35-.07-1.35-.07h-.19a6.43,6.43,0,0,0,0-1l1.7-.06c.64,0,1.28,0,1.93-.11l1-.09,1-.1c.65-.08,1.29-.16,1.93-.28v-.05c-.65,0-1.29,0-1.94,0h-1l-1,0c-.65,0-1.29.06-1.94.12l-1.69.14a8,8,0,0,0-.15-1l.21,0,1.33-.24Zm-1.21-3.33c.38-.19.77-.41,1.2-.66l.42-.25.75-.45a9,9,0,0,1,1.19-.57,8.48,8.48,0,0,1,1.26-.39,15,15,0,0,1,2.7-.37h.7l.72,0c.22,0,.47,0,.74.08s.4.06.65.12l.07.2a8.62,8.62,0,0,1-.89,1.08l-.51.51c-.15.14-.32.29-.53.46a13.94,13.94,0,0,1-2.25,1.54,9,9,0,0,1-1.19.56,8.47,8.47,0,0,1-1.27.36c-.28.07-.58.13-.86.18l-.47.1c-.49.1-.93.2-1.34.31l-1.3.35-1.31.34-.21,0a8.22,8.22,0,0,0-.28-.93h0l1.62-.58q.92-.32,1.8-.69l.9-.38c.29-.13.59-.25.88-.39.59-.27,1.17-.54,1.75-.85l0-.05c-.63.16-1.25.35-1.87.54l-.92.31-.91.32c-.61.21-1.21.45-1.8.69l-1.6.67h0c-.13-.3-.27-.59-.43-.88l.21-.11,1.2-.63Zm-3.12-1.85,1-1c.3-.3.61-.63.94-1l.32-.36.59-.66a9.81,9.81,0,0,1,.95-.91,10.23,10.23,0,0,1,1.08-.75,14.48,14.48,0,0,1,2.46-1.17,6.41,6.41,0,0,1,.67-.22,6.9,6.9,0,0,1,.7-.19c.21,0,.46-.11.72-.15s.41-.06.66-.08l.13.16a6.4,6.4,0,0,1-.22.63c-.1.25-.21.48-.3.67s-.23.45-.34.64-.21.37-.36.61a14.4,14.4,0,0,1-1.67,2.14,8.92,8.92,0,0,1-1,.9,10,10,0,0,1-1.1.73l-.76.43-.42.24c-.44.24-.82.47-1.18.7l-1.13.73-1.15.72-.2.13h0a6.37,6.37,0,0,0-.56-.8l1.39-1.06c.52-.39,1-.79,1.51-1.21l.74-.63.72-.64c.48-.43,1-.88,1.41-1.34l0,0c-.55.34-1.08.71-1.61,1.08l-.78.57-.78.58c-.51.39-1,.8-1.5,1.21l-1.34,1.13c-.21-.24-.43-.47-.67-.7l.18-.18Zm-1.35-4.2.19-.45.36-.8a12.15,12.15,0,0,1,.63-1.16,9.05,9.05,0,0,1,.8-1,13.86,13.86,0,0,1,2-1.86l.57-.42.6-.39c.19-.11.41-.24.65-.36s.37-.19.6-.28l.18.12c0,.25,0,.48,0,.66s-.05.52-.08.73-.08.51-.13.72-.09.41-.16.68a15.23,15.23,0,0,1-.94,2.56,9.48,9.48,0,0,1-.66,1.14,10.64,10.64,0,0,1-.81,1l-.6.64-.33.35c-.35.36-.64.7-.91,1l-.86,1-.87,1-.17.2-.52-.42-.25-.18h0l1-1.44c.38-.53.73-1.06,1.08-1.61l.5-.82c.17-.28.34-.56.5-.84.32-.55.64-1.12.93-1.7l0,0c-.42.5-.82,1-1.21,1.52l-.57.78-.56.79c-.37.53-.73,1.07-1.07,1.62l-.94,1.49a7.8,7.8,0,0,0-.85-.46h0l.12-.25.61-1.2.63-1.2C27.36,143,27.55,142.62,27.76,142.17Zm-4,.2c.07-.42.13-.87.19-1.36,0-.16,0-.32.05-.48s.06-.59.1-.87a8.35,8.35,0,0,1,.25-1.3,10.32,10.32,0,0,1,.44-1.24,15.2,15.2,0,0,1,1.33-2.38c.16-.23.29-.4.42-.57s.27-.34.45-.55.32-.36.51-.54a5.81,5.81,0,0,1,.49-.45l.2.06c.08.24.14.46.18.63s.11.52.15.73.07.5.1.72,0,.42.05.7a13.94,13.94,0,0,1-.12,2.72,9.77,9.77,0,0,1-.28,1.29,9.6,9.6,0,0,1-.46,1.23c-.12.27-.25.53-.38.79l-.21.44c-.21.45-.39.86-.55,1.26l-.5,1.25-.51,1.25-.11.25a7.69,7.69,0,0,0-.91-.34l.53-1.69c.19-.61.37-1.23.53-1.86l.23-.94c.08-.31.15-.63.22-.94.14-.63.27-1.27.37-1.91h-.05c-.25.6-.47,1.2-.68,1.81-.11.31-.21.62-.32.92l-.29.92c-.19.62-.37,1.24-.53,1.86l-.44,1.72h0a8.1,8.1,0,0,0-1-.18l0-.28.22-1.33Zm-3.54,0c-.06-.42-.14-.86-.23-1.35,0-.16-.07-.32-.1-.48s-.12-.57-.17-.86a9.7,9.7,0,0,1-.16-1.31,9.81,9.81,0,0,1,.05-1.31,14.19,14.19,0,0,1,.54-2.67c.08-.27.15-.47.23-.67s.15-.42.26-.67.19-.43.32-.67a5.35,5.35,0,0,1,.33-.57h.21c.15.2.27.4.37.55s.26.46.36.65.22.45.31.65.16.39.26.65a13.93,13.93,0,0,1,.71,2.63,8.8,8.8,0,0,1,.13,1.31,8.93,8.93,0,0,1-.07,1.32c0,.29-.07.58-.11.87s-.05.32-.07.48c-.07.49-.11.94-.14,1.36l-.1,1.35L23.06,145l0,.27.18,0a9,9,0,0,0-1.16-.07h0v-1.77c0-.64,0-1.29-.05-1.93l-.07-1c0-.32,0-.64-.08-1-.05-.65-.12-1.29-.22-1.93h-.06c-.05.65-.08,1.29-.1,1.94,0,.32,0,.64,0,1v1c0,.65,0,1.29.07,1.94l.1,1.77h0a6.27,6.27,0,0,0-1,.11l-.05-.27-.19-1.34Zm-3.36,1.12c-.19-.39-.39-.79-.63-1.22l-.24-.42c-.14-.25-.29-.51-.42-.77a9.39,9.39,0,0,1-.55-1.2,9,9,0,0,1-.35-1.27,14.23,14.23,0,0,1-.3-2.71c0-.28,0-.49,0-.7s0-.45,0-.72.05-.47.1-.74a5.89,5.89,0,0,1,.14-.64l.2-.07c.2.14.38.29.52.41s.38.36.53.51a5.9,5.9,0,0,1,.5.53c.14.15.28.32.45.54a14.7,14.7,0,0,1,1.47,2.29,8.82,8.82,0,0,1,.53,1.2,9.13,9.13,0,0,1,.33,1.28c.06.29.11.58.16.86s.05.32.08.48c.08.49.18.93.28,1.34l.31,1.31.31,1.32.06.26c-.32.07-.64.15-1,.25L18.93,144c-.2-.62-.41-1.23-.64-1.83l-.36-.9c-.12-.3-.24-.6-.37-.9-.25-.59-.51-1.18-.8-1.76h-.05c.14.64.31,1.26.49,1.88.09.31.19.62.28.93l.3.92c.2.62.41,1.22.64,1.82l.64,1.65h0a7.06,7.06,0,0,0-.89.39h0l-.12-.23-.59-1.21ZM14,145.61c-.29-.31-.61-.63-1-1l-.36-.33-.64-.6a9.34,9.34,0,0,1-.88-1,8.37,8.37,0,0,1-.72-1.1,14.39,14.39,0,0,1-1.11-2.49c-.09-.26-.15-.47-.2-.67S9,138,9,137.77a6.43,6.43,0,0,1-.13-.73,5.55,5.55,0,0,1-.06-.66l.16-.13c.24.08.46.17.62.24a7.09,7.09,0,0,1,.67.32l.63.35c.18.11.36.22.59.38a14.07,14.07,0,0,1,2.1,1.73,8.57,8.57,0,0,1,.87,1,9.11,9.11,0,0,1,.71,1.12c.14.25.27.52.41.77s.14.29.22.43c.23.44.45.83.67,1.2l.7,1.15.69,1.16.13.22h0c-.28.16-.56.33-.83.52l-1-1.41c-.38-.53-.77-1-1.17-1.55l-.61-.75c-.21-.25-.41-.5-.62-.74-.42-.49-.85-1-1.3-1.44l-.05,0c.33.56.68,1.1,1,1.64l.55.8.56.79c.38.52.77,1,1.17,1.54l1.09,1.36a10.69,10.69,0,0,0-.8.71l.07-.07-.17-.16-.93-1Zm.67,1.26,1,.9.17.15a8.37,8.37,0,0,0-.66.79l0,0-1.38-1c-.52-.38-1-.75-1.58-1.11l-.81-.53-.82-.52c-.55-.34-1.11-.67-1.68-1l0,0c.48.43,1,.84,1.49,1.25l.76.59L12,147c.51.39,1,.76,1.58,1.11L15,149a8.87,8.87,0,0,0-1,2l-1.6-.55c-.61-.21-1.22-.4-1.84-.58l-.94-.26c-.31-.08-.62-.17-.93-.24-.63-.16-1.26-.3-1.9-.42l0,.05c.6.27,1.2.5,1.8.73l.91.34.91.32c.62.21,1.23.4,1.85.57l1.62.46a8.62,8.62,0,0,0-.34,2.19l-1.66,0c-.65,0-1.29,0-1.94,0l-1,0-1,0c-.65,0-1.29.09-1.93.17v.06c.64.07,1.29.12,1.93.15l1,0,1,0c.64,0,1.29,0,1.93,0l1.66-.05a6.58,6.58,0,0,0,.08,1h0l-.16,0-1.34.16-1.34.14c-.42,0-.87.11-1.36.2l-.48.08c-.28.05-.57.11-.86.15a11.36,11.36,0,0,1-1.31.12,8.79,8.79,0,0,1-1.32-.09,13.14,13.14,0,0,1-2.65-.61c-.27-.08-.47-.16-.67-.24l-.66-.28-.66-.34c-.15-.09-.35-.2-.56-.34v-.21a5.1,5.1,0,0,1,.56-.36l.65-.34c.25-.12.46-.21.67-.29l.65-.25a14.87,14.87,0,0,1,2.65-.64,8.57,8.57,0,0,1,1.31-.09,9.26,9.26,0,0,1,1.32.1l.87.14.47.08c.49.08.94.14,1.36.18l1.35.13,1.34.15.17,0c0-.08,0-.17,0-.25l-.18,0-1.33-.26-1.32-.27c-.42-.08-.86-.16-1.35-.22L9,151.53c-.29,0-.58-.07-.87-.12a9.21,9.21,0,0,1-1.29-.29,8.54,8.54,0,0,1-1.22-.48,14.23,14.23,0,0,1-2.35-1.38l-.56-.44c-.16-.13-.34-.28-.54-.47s-.34-.32-.53-.52a6.29,6.29,0,0,1-.43-.5l.06-.2c.24-.08.47-.13.64-.17l.73-.12.72-.08.71,0a14.8,14.8,0,0,1,2.71.2,9.22,9.22,0,0,1,1.28.31,8.29,8.29,0,0,1,1.22.5l.79.39.43.22c.44.23.85.42,1.24.59l1.24.53,1.23.55.19.08.11-.22-.19-.1-1.18-.64-1.19-.66c-.37-.21-.77-.42-1.21-.63l-.44-.21-.79-.38a9.6,9.6,0,0,1-1.14-.66,8.44,8.44,0,0,1-1-.83,14.39,14.39,0,0,1-1.82-2c-.16-.22-.28-.4-.4-.58l-.37-.61c-.11-.19-.23-.42-.34-.66a4.65,4.65,0,0,1-.26-.61l.12-.17a6,6,0,0,1,.66,0,6.79,6.79,0,0,1,.73.1l.71.14.68.18a15.39,15.39,0,0,1,2.53,1,8.12,8.12,0,0,1,1.12.68,10,10,0,0,1,1,.84l.62.62c.12.11.23.23.34.34.36.35.69.66,1,.93Z"/><path class="cls-7" d="M19.07,158A5.13,5.13,0,1,0,18,150.8,5.13,5.13,0,0,0,19.07,158Z"/><path class="cls-7" d="M17.71,159.79a7.4,7.4,0,1,0-1.52-10.35A7.41,7.41,0,0,0,17.71,159.79ZM26.45,148a7.26,7.26,0,1,1-10.14,1.5A7.27,7.27,0,0,1,26.45,148Z"/></g><path class="cls-2" d="M82.09,26.59l-.09-.1c-1.14-1.19-11.2-12.08-10.4-20a7.11,7.11,0,0,1,3.2-5.35c1.69-1.17,3-1.46,4-.91C81.08,1.46,81,6.35,80.92,12c-.08,5.34-.17,11.38,1.9,13.67.06.07.09.11.1.11ZM77.74,1.16a4.49,4.49,0,0,0-2.29,1,5.93,5.93,0,0,0-2.7,4.5c-.53,5.23,4.36,12.2,7.55,16.13-.66-3-.6-6.93-.54-10.79.07-4.83.15-9.83-1.46-10.69A1.13,1.13,0,0,0,77.74,1.16Z"/><path class="cls-2" d="M81.25,25.73,81,25.26l.06,0c1.35-.68,3.08-3.56,4.62-6.1,1.94-3.23,3.17-5.21,4.21-5,.43.07.73.49.91,1.29,1.14,5.06-8.63,9.9-9.53,10.34ZM89.79,14.6c-.74,0-2.34,2.65-3.64,4.79A42.89,42.89,0,0,1,83,24.21c3-1.71,8.13-5.26,7.35-8.73-.12-.53-.3-.85-.48-.88Z"/><path class="cls-2" d="M72.13,29.47H72a.26.26,0,0,1-.16-.34c0-.06,2.41-6.3,10.23-5a.25.25,0,0,1,.21.3.26.26,0,0,1-.3.22c-7.39-1.27-9.62,4.56-9.64,4.62A.26.26,0,0,1,72.13,29.47Z"/><path class="cls-2" d="M87.44,29.06c-1,0-4.27-.33-5.54-4.46a.16.16,0,0,1,.11-.21.16.16,0,0,1,.21.11c1.43,4.63,5.45,4.22,5.49,4.21a.17.17,0,0,1,0,.34Z"/></g></svg>