<svg id="Layer_1" data-name="Layer 1" xmlns="http://www.w3.org/2000/svg" viewBox="0 0 70.83 70.83"><defs><style>.cls-1{fill:#461d2c;}.cls-2{fill:#f5e7b4;}</style></defs><title>1920x1080 UI Landing Page</title><g id="share_icon"><circle class="cls-1" cx="35.42" cy="35.42" r="35.42"/><path class="cls-2" d="M25.73,41.94a8,8,0,1,1,0-12.25L28.54,28c2.59-1.56,5.18-3.13,7.77-4.68a.45.45,0,0,0,.26-.57,8,8,0,1,1,9.24,6.37,7.73,7.73,0,0,1-6.19-1.48.41.41,0,0,0-.54,0c-3.45,2.1-6.92,4.19-10.38,6.26-.23.14-.32.26-.26.54a7.35,7.35,0,0,1-.05,3.13l3.25,2L39,43.94a.51.51,0,0,0,.69,0,8,8,0,1,1-3.18,7.64,7.48,7.48,0,0,1,.08-2.79.3.3,0,0,0-.16-.41L25.79,42Z"/></g></svg>