<svg id="Layer_1" data-name="Layer 1" xmlns="http://www.w3.org/2000/svg" viewBox="0 0 70.83 70.83"><defs><style>.cls-1{fill:#461d2c;}.cls-2{fill:#f5e7b4;}</style></defs><title>1920x1080 UI Landing Page</title><g id="twitter_icon"><circle class="cls-1" cx="35.42" cy="35.42" r="35.42"/><path class="cls-2" d="M28.26,55.81C45.56,55.81,55,41.48,55,29.06c0-.41,0-.82,0-1.22A19.05,19.05,0,0,0,59.68,23a18.78,18.78,0,0,1-5.4,1.48,9.48,9.48,0,0,0,4.14-5.2,18.73,18.73,0,0,1-6,2.28A9.41,9.41,0,0,0,36.17,28a9.51,9.51,0,0,0,.25,2.15A26.7,26.7,0,0,1,17,20.28,9.42,9.42,0,0,0,20,32.84a9.26,9.26,0,0,1-4.26-1.18.49.49,0,0,0,0,.12A9.41,9.41,0,0,0,23.23,41a9.64,9.64,0,0,1-2.48.33A9.32,9.32,0,0,1,19,41.16a9.4,9.4,0,0,0,8.79,6.53,18.84,18.84,0,0,1-11.68,4,20.91,20.91,0,0,1-2.25-.13,26.64,26.64,0,0,0,14.42,4.22"/></g></svg>