<svg id="Layer_1" data-name="Layer 1" xmlns="http://www.w3.org/2000/svg" viewBox="0 0 70.83 70.83"><defs><style>.cls-1{fill:#461d2c;}.cls-2{fill:#f5e7b4;fill-rule:evenodd;}</style></defs><title>1920x1080 UI Landing Page</title><g id="whatsapp_icon"><circle class="cls-1" cx="35.42" cy="35.42" r="35.42"/><g id="WA_Logo" data-name="WA Logo"><path class="cls-2" d="M52.45,18.82A22.46,22.46,0,0,0,17.09,45.91L13.9,57.55l11.91-3.12a22.47,22.47,0,0,0,10.74,2.73h0A22.46,22.46,0,0,0,52.45,18.82ZM36.56,53.37h0a18.61,18.61,0,0,1-9.5-2.6l-.68-.41L19.3,52.22l1.88-6.89-.44-.71a18.67,18.67,0,1,1,15.82,8.75Zm10.24-14c-.56-.28-3.32-1.64-3.83-1.83s-.89-.28-1.27.28-1.45,1.83-1.77,2.2-.66.43-1.22.15A15.62,15.62,0,0,1,34.2,37.4a17.13,17.13,0,0,1-3.13-3.89c-.33-.56,0-.86.25-1.14s.56-.66.84-1a3.84,3.84,0,0,0,.56-.93,1,1,0,0,0,0-1c-.14-.28-1.26-3-1.73-4.16s-.91-.95-1.26-1l-1.07,0a2.07,2.07,0,0,0-1.5.71,6.27,6.27,0,0,0-2,4.68c0,2.76,2,5.43,2.3,5.8s3.95,6,9.59,8.48a30.82,30.82,0,0,0,3.2,1.18,7.55,7.55,0,0,0,3.53.22c1.08-.16,3.32-1.36,3.79-2.67A4.69,4.69,0,0,0,47.88,40C47.74,39.81,47.36,39.67,46.8,39.39Z"/></g></g></svg>