<svg id="Layer_1" data-name="Layer 1" xmlns="http://www.w3.org/2000/svg" viewBox="0 0 519.36 226.59"><defs><style>.cls-1{fill:#303336;}.cls-2{fill:#18191b;}.cls-3{fill:#fff;}.cls-4{fill:#ee412b;}.cls-5{fill:#fedc01;}</style></defs><title>1920x1080 UI Landing Page</title><g id="subapethum"><path class="cls-1" d="M246.56,38.73s-12.76-11.16-19-20.41-14.09-8.81-22.63-5.27c4.73.61,14.17,5.69,18.33,15.5S246.56,38.73,246.56,38.73Z"/><path class="cls-2" d="M307.75,21s-11.33,4.87-9.25,15.76-20.41,32.65-50.81,10.39-59.56-27.62-59.56-27.62,22.35-11.16,37.76,1.75S248,40.61,253.46,43.51s34,15.39,40.17-3.33l-4.71-3.62L288.78,35S300.44,12.64,307.75,21Z"/><path class="cls-1" d="M254.63,40.45A20.5,20.5,0,0,0,268.41,52c5.54,1.52,12,1.93,16.85-1,.42-.25.82-.51,1.21-.75a21.77,21.77,0,0,0,4.76-4.11l0-.06c1.92-2.34,2.53-4.55,2.31-6.33a1.36,1.36,0,0,0,0-.29,5.41,5.41,0,0,0-.62-1.69.12.12,0,0,0-.05-.07,4.35,4.35,0,0,0-3.19-2.16s6.67-16.64,16.21-16c0,0-5.94-4.36-10.56,2.5-2.66,3.93-4,6.44-5.72,8.34a14.27,14.27,0,0,1-5.2,3.55c-4.7,2.08-11.44-3.2-14.65-6a28.91,28.91,0,0,1-2.45-2.38l-.14-.14c-3.69-3.72-5-7.47-5.12-10.89a11.92,11.92,0,0,0-1.85-4.22,7,7,0,0,0-.51-.63,14.47,14.47,0,0,0-1.24-1.37A18,18,0,0,0,257,7c-1.26,3.6-.61,7.49-1.55,8.87C253.6,18.57,247.41,24.2,254.63,40.45Z"/><path class="cls-1" d="M254.63,40.45A20.5,20.5,0,0,0,268.41,52a25.49,25.49,0,0,0,18.06-1.74,13.39,13.39,0,0,0,4.76-4.11l0-.06c1.84-2.75,2.42-4.81,2.31-6.33a1.36,1.36,0,0,0,0-.29,4.1,4.1,0,0,0-.62-1.69.12.12,0,0,0-.05-.07,5.76,5.76,0,0,0-3.51-2.16c-15.78,6.67-31.05-11.38-30.31-22.21a17.91,17.91,0,0,1,.64-3.69A14.33,14.33,0,0,1,268.93,0,17.21,17.21,0,0,0,257,7c-4.54,6.52-1.07,8.06-1.55,8.87C253.76,18.67,247.41,24.2,254.63,40.45Z"/><path class="cls-2" d="M255.55,24.16s.47,4.44,6.66,6.11c-3.78,1.94-3,12.59,6.72,15.31,8.78,2.46,18.69,1.79,20.45-10a27.86,27.86,0,0,0,.25-5.16s-9.6,7.79-22.3-4.86l-.14-.14c-3.69-3.72-5-7.47-5.12-10.89C261.89,6.34,268.93,0,268.93,0h-.09a13.69,13.69,0,0,0-10.37,8.26c-2.92,7.38.41,8.86.41,8.86S254.72,20,255.55,24.16Z"/><path class="cls-3" d="M302.3,20.11s-2.05.05-2.1,1.07S301.94,20.62,302.3,20.11Z"/><path class="cls-4" d="M305.56,19.31a3.1,3.1,0,0,1-.16,3,21.25,21.25,0,0,1,6.6-1.21A21.56,21.56,0,0,0,305.56,19.31Z"/><path class="cls-2" d="M300.79,20.74a.35.35,0,1,0,.35-.35A.34.34,0,0,0,300.79,20.74Z"/><path class="cls-5" d="M96.13,55.54q10,0,14,9.65l.51,4.57q0,6.48-7.37,8.89l-3.8.51h-1q-9.78,0-13.71-5.59L84,69.76c.42-3.22,1.94-4.82,4.57-4.82,1.52,0,2.54,1.18,3,3.55A3.24,3.24,0,0,1,90.29,71H87.5v.25c0,.68,1.1,1.27,3.3,1.78q3.75,0,4.57-4.82,0-5.59-4.57-5.59-8.11,0-11.68,10.41l-.25,2.54v1c0,1.86.25,2.79.76,2.79H95.12q10.53,0,13.71,10.41a29.86,29.86,0,0,1,.76,6.35v.76q0,14.79-14.22,20.06a25,25,0,0,1-6.85.76q-9.84,0-14.22-6.6Q70.12,118,59.06,118q-14.54,0-19.8-15l-.51-4.31q0-6.6,5.59-12.95H36.72c-.51-.17-.76-.68-.76-1.53V80.42l.51-.5,27.67-.26h4.07l.5-4.06q0-5.71-6.6-11.17a13.8,13.8,0,0,0-5.58-1.52c-3.9.25-5.84,2-5.84,5.33,0,3,1.77,4.69,5.33,5.08a5.1,5.1,0,0,0,4.06-1.78v-.26H57.79c-1.35,0-2-.93-2-2.79.47-2,1.4-3,2.8-3h1q2.93,0,3.81,4.83,0,5.9-7.62,8.38a19.18,19.18,0,0,1-5.33.76h-.51q-10.59,0-13-4.57a11.62,11.62,0,0,1-1.52-5.59q0-8.31,9.4-12.44a17.42,17.42,0,0,1,4.57-.76h3q9.72,0,17,9.65a27.32,27.32,0,0,1,4.07,14.72l-.26,5.08q0,1.08-18.53,1.27A10.4,10.4,0,0,0,45.1,92.1l-.25,1.27v1q0,5.52,12.44,7.36h.76q7.94,0,12.19-4.82v-.76l-.51-2q0-2.36,3.3-2.8h.76a4.15,4.15,0,0,1,3.56,1.78,8.37,8.37,0,0,1-.51,3.3q3.24,5.08,11.68,5.08H90q10.72,0,12.7-8.38v-1c0-2.53-1.53-4.4-4.57-5.58l-4.32-.76L80.65,86Q74,86,74,85.25V78.9Q74,62.6,88.52,57.07,90.35,56.05,96.13,55.54Z"/><path class="cls-5" d="M101.09,108l.25,1.78-.25,11.17v10.16q0,9.39,2.28,9.39a7.26,7.26,0,0,1,2,4.32v.51c0,2.83-1.86,4.53-5.58,5.08-3.39-.89-5.08-2.42-5.08-4.57a5.72,5.72,0,0,1,1.78-3.05v-.26h-.26q-1.59,0-22.34,8.64a44,44,0,0,1-12.7,2.28q-16.76,0-22.34-12.69a27.86,27.86,0,0,1-1-6.6v-.77q0-9.59,10.41-13l2.54-.25h1q7.94,0,10.66,8.13v1.27q-1.08,6.6-5.58,6.6-5.59-1-5.59-5.08,0-2.16,3.3-3.05a4.82,4.82,0,0,1,2.79,1.53l.26-.26v-.25a2.76,2.76,0,0,0-1.78-2.54H54.37q-4.57,1.26-4.57,5.84v.51q0,5.32,9.39,7.11l6.1.5q10.65,0,23.61-5.58l2.79-.26h1l1.77.26V112.8l-.25-3Z"/><path class="cls-5" d="M138.79,39.29q17,0,30.22,13,13.45,14.59,13.45,33.26V86a39.61,39.61,0,0,1-6.34,21.58q-7.25,9.9-18.79,9.9-12.06,0-15.24-13.45l-.51-4.57V96.93q0-9.15,8.13-14.73a4.52,4.52,0,0,0,1-2.79v-1q0-5.72-10.41-6.6-10.59,0-17.26,10.41a16,16,0,0,0-1.78,7.62q0,8.19,7.62,9.9h.76q3.81,0,5.08-4.31V93.88q-.57-4.06-3-4.06-.83,3.81-3.3,3.81h-1c-1.87-.34-2.8-1.27-2.8-2.8v-.76q0-4,5.84-4.82,7.31,0,9.65,11.68l.25,4.57q0,14.16-11.68,16.5-10.9,0-14-17.52l-.25-4.82v-.25q0-18.16,16.5-30.22,7.88-4.83,14.73-4.82h2.79q12.12,0,16.25,9.9l.76,4.06q0,8.51-12.19,11.43-3,2-3,7.61v1.27q0,6.1,6.34,6.1,9.47,0,15.49-11.17a23.8,23.8,0,0,0,1.78-8.64q0-15.23-14.47-28.69-9.9-7.37-19.55-7.36-15.75,0-27.17,14.72c-1.52,3.18-2.29,5.72-2.29,7.62a6.9,6.9,0,0,0,2,4.83,5.74,5.74,0,0,1,4.07-1.78q3.55.83,3.55,3.3v.25c0,2.29-2.11,3.56-6.35,3.81q-8.37-2.16-8.37-10.41,0-12.37,14.21-22.34A36,36,0,0,1,138.79,39.29Z"/><path class="cls-5" d="M199,55q13.4,0,19.8,14.48a39.84,39.84,0,0,1,1.53,10.66c0,3.39-.43,5.08-1.27,5.08h-.26L209.19,85q-10.6,0-12.7,4.83v1.27q0,8.19,20.57,11.17h2.79q15.1,0,22.34-4.82,3.81-3.3,3.81-6.35v-.51q0-4.12-6.09-5.84L221.37,85l-.5-.5V77.63q0-15.67,13.71-21.33A21.9,21.9,0,0,1,241.69,55h.76q9.53,0,13.71,9.65l.25,2.8v.76q0,6.35-5.58,8.63A15.46,15.46,0,0,1,245,78.14q-8.9,0-13.21-5.84l-.76-3c0-3.38,1.69-5.08,5.08-5.08A4.08,4.08,0,0,1,238.64,68v.76a2.62,2.62,0,0,1-2.29,1.53h-1.27l-.25-.26h-.25v.51a2.61,2.61,0,0,0,2.28,1.53h.76q2.48,0,3.3-3.56V66.21c-.29-2.88-1.65-4.32-4.06-4.32q-7.68,0-11.17,10.16l-.25,2.79v.51c0,2.2.25,3.3.76,3.3h9.9q13.52,0,17.52,9.39a11.37,11.37,0,0,1,1.52,5.33v.51q0,13.08-11.93,20.57Q235.91,118,225.69,118h-8.12q-18.85,0-24.89-7.61-6.85-5.72-6.85-12.7V95.91q0-10,10.92-15.74a24.81,24.81,0,0,1,9.14-1.78l9.39.26v-.26l.51-3.55q0-7.25-8.38-12.19a6.15,6.15,0,0,0-3.3-.76h-.26q-5.07,1-5.07,5.08v.76c.5,3.22,2.11,4.82,4.82,4.82a4.6,4.6,0,0,0,4.06-2h-2.79a2.11,2.11,0,0,1-1.27-2V67.22q0-1.91,2.79-2.79,4.32.69,4.32,5.33,0,5.46-6.86,7.87a15.4,15.4,0,0,1-6.09,1q-10.6,0-12.95-6.86l-.51-3.3v-1q0-7.31,8.64-11.43A24.84,24.84,0,0,1,199,55Z"/><path class="cls-5" d="M260.29,74h25.39c1.86.34,2.79,1.19,2.79,2.54q0,2.61-10.41,13.21-8.64,11.35-8.63,20.56Q270.51,121,278.57,121a9.68,9.68,0,0,0,8.88-5.34l.26-2c-.64-3.55-2-5.33-4.07-5.33a8.24,8.24,0,0,1,1,4.06v.51q0,3.61-4.57,4.32c-3.55,0-5.59-2.2-6.09-6.6q0-5,7.87-6.1h.76q8.19,0,11.42,9.9l.51,4.07q0,11.1-11.68,15l-4.57.51h-1.52q-12.63,0-16.76-12.7l-.51-5.08q0-16.05,17.27-32.75h-.51l-15.49.51q-2.28-.77-2.28-4.32V78.08C258.76,75.37,259.35,74,260.29,74Z"/><path class="cls-5" d="M314.37,55.54a28.22,28.22,0,0,1,20.82,8.89q9.45-6.09,19-6.1,15.61,0,24.12,18.54a44.32,44.32,0,0,1,2,12.19q0,17.7-11.93,30-9.27,6.6-17.27,6.6-5.83,0-5.84-4.57c.51-3.22,1.78-4.82,3.81-4.82s3.6,1.26,4.32,3.8q.31,1,2.28,1H356q4.82,0,9.65-11.43a29.26,29.26,0,0,0,2-11.17v-.76q0-15.42-14-24.88a17.52,17.52,0,0,0-8.38-2.54h-2.79a18.27,18.27,0,0,0-5.33,1l.51.51h1q13.08,0,20.06,13.71a23.6,23.6,0,0,1,2,9.4q0,17.89-23.61,22.85l-5.08.25q-18.66,0-23.1-13a5.27,5.27,0,0,0-2-2.54h-1.27c-2.32,0-3.93,2.21-4.82,6.61l-2,.76h-.51c-2.2-.26-3.3-1.27-3.3-3q0-4.18,25.64-30L330.36,68q-4.07-7.35-11.42-7.36h-1q-11.18.95-11.17,7.36v.26q0,4.56,6.35,5.33,4.06-1,4.06-3.3l-.25.25h-1q-3.3-.31-3.3-3.3,0-3.16,4.06-3.81c3.22.68,4.83,2,4.83,4.07v2Q321.48,80,306,83.22l-3.81.25Q291,80.74,291,72.55q0-9.7,12.44-15.23A40.25,40.25,0,0,1,314.37,55.54ZM308,96.93h.51a40.48,40.48,0,0,1,7.61-2.79q3.12,0,7.88,6.09a13.71,13.71,0,0,0,6.34,2h1.78q9,0,16.5-9.65a30.71,30.71,0,0,0,1.27-7.36q0-6.91-6.09-9.14a12.25,12.25,0,0,0-4.57-.76l-6.86.76-.25-.26V73.57h-.25Q319.76,80.49,308,96.93Z"/><path class="cls-5" d="M350.17,118.76c2,.43,3,1.44,3,3v.76c-.33,2.37-1.52,3.56-3.55,3.56-2.2-.21-3.3-1.06-3.3-2.54q-1.77,0-3.56,6.85v.26q0,7.29,12.45,8.88h1.27q8.31,0,10.15-7.36V131c-.51-3-1.69-4.57-3.55-4.57a3,3,0,0,0-3.05,2.54l2-.51q3,0,3,4.07c0,1.9-1.36,3.08-4.06,3.55h-.26q-3,0-3.81-4.82v-.77q1-6.34,7.62-6.34h.51q7.23,0,9.9,7.87l.25,2.54q0,10.1-11.93,14.22l-4.57.5h-1.52q-12.19,0-17.27-10.66a10.59,10.59,0,0,1-.76-4.57,16.4,16.4,0,0,1,8.89-15.24Z"/><path class="cls-5" d="M410.72,25.58h3.56q14.73,0,21.33,18.79,3.17,6.85,5.84,6.86A3.65,3.65,0,0,0,444,47.42a4.63,4.63,0,0,1-2.8,1.52h-.5a4.21,4.21,0,0,1-3.56-4.57q.83-3.81,4.57-3.81,6.35,1.21,6.35,6.35v1q0,5.53-5.33,7.62h-1.78q-3.44,0-9.65-8.38-9.46-9.39-19.3-9.39h-.76c-4.19,0-7,1-8.38,3l1.78-.26h3.3q19.43,0,31.49,17a44.65,44.65,0,0,1,6.34,23.36q0,21.58-17,33-7.54,4.07-14,4.06h-3.05Q395,118,386.1,100.74a26.22,26.22,0,0,1-2.29-9.91V88.55a26.6,26.6,0,0,1,8.63-19.81,13.17,13.17,0,0,1,6.6-2.28h.26q2.85,0,3.3,4.32l-1.78,6.6q2.1,6.34,12.44,6.35h3.56q9.53,0,12.69-5.59a9.43,9.43,0,0,0,1.27-4.06c-1-3.9-3-5.84-5.84-5.84h-1.27c-3.89.34-5.84,1.77-5.84,4.31a3,3,0,0,0,3.3,2.8c1.27,0,1.95-.26,2-.77-1,0-1.57-.67-1.78-2,.46-1.69,1.31-2.54,2.54-2.54h.25q3.3.26,3.3,3.31v1.26q0,4.45-10.15,5.84h-.51q-10.41,0-13.2-7.1L403.36,71V70q0-8.94,13.46-10.91h1.52q8.13,0,14.22,8.12a14,14,0,0,1,2.29,8.13q0,8.19-10.41,11.93a40.92,40.92,0,0,1-9.15,1.27q-10.59,0-16.75-6.09a9.66,9.66,0,0,1-2.29-5.59A13,13,0,0,1,398,71.28h-.51q-3.61,0-5.84,9.14V82q0,11.1,13.71,15.23a56.49,56.49,0,0,0,10.67,1.27q17.26,0,22.34-16.5l.51-4.57V75.6q0-14.41-16-24.63a32.52,32.52,0,0,0-15.74-4.06H405.9A30.85,30.85,0,0,0,388.13,52c0,.34-.43.5-1.27.5h-1.27c-2-.46-3-1.39-3-2.79v-.51q0-2.47,6.09-4.57l4.58-2.28q0-11.75,14.72-16.51Z"/><path class="cls-5" d="M468.81,28.12q7.74,0,9.64,12.19l.26,3v4.07q-5.85,18.92-5.84,34.78a98.42,98.42,0,0,0,1,12.7l-.25.25-2.29-.51-7.1,1.27-.26-.25q0-35.8-5.08-45.7-1.51-1-1.52-5.84v-2q0-8.94,8.12-13.2A7.05,7.05,0,0,1,468.81,28.12Zm1.52,72.62q8.39,1.26,8.38,8.38-1.14,8.88-8.63,8.88h-.51q-6.35,0-8.13-7.36V108.1Q462.84,100.74,470.33,100.74Z"/><path class="cls-5" d="M18.55,160.14q6.84,0,14.66,4.79,11.37,8.92,11.37,21.69v1.19q0,11.79-10.32,17.36a14.18,14.18,0,0,1-4,.6q-5.28,0-7.63-3.3a7.22,7.22,0,0,1-6.43,3.44q-7.56,0-11.67-8.82A21.58,21.58,0,0,1,3.44,191q0-10.87,9-15.25l1.49-.3c1.22,0,2,.84,2.25,2.54l-1.05,4.19c0,.57.65,1.32,1.94,2.24a13.49,13.49,0,0,0,6.59,1.35q6.84,0,8.52-3.59l.6-2.1c0-1.24-.85-2.39-2.54-3.44l-1.5-.15q-3.06,0-3.59,2.55v.15c.23,1,.72,1.49,1.5,1.49h.9l.74-.15c-.69-.52-1-1-1-1.49.42-1,1-1.5,1.64-1.5q1.75,0,1.95,2.1V180q0,2.78-5.39,3.59H24.08c-3.83,0-6.28-1.39-7.33-4.18l-.15-.9v-1q0-4.81,7-6.28l1.49-.15q5.13,0,8.83,5.09a9,9,0,0,1,1.19,4.63q0,5-6.58,7a15.42,15.42,0,0,1-4.19.6H23.19q-8.46-.45-10.47-5.23l-.3-1.5a9.22,9.22,0,0,1,.89-3.29H13q-2.05,0-4.48,5.53a14.84,14.84,0,0,0-.3,3.3q0,5.64,4.78,7.77a9.59,9.59,0,0,0,4,.75c3.1-.57,4.64-1.62,4.64-3.14V192l-.15-1.34a2.08,2.08,0,0,1,1.8-1.35h.89q1.8.45,1.8,1.2a6.33,6.33,0,0,0-.45,2.24v.15q.75,3.28,3.59,3.29,4.26,0,8.38-5.08a12.74,12.74,0,0,0,2.09-7.63q0-8.49-8.52-15.86a20,20,0,0,0-11.52-4H18.4q-7.44,0-13.91,7.33a7.87,7.87,0,0,0-1.65,3.74v.45A1.3,1.3,0,0,0,4,176.44l.9-.29c1.39.39,2.09,1,2.09,1.94-.45,1.9-1.3,2.84-2.54,2.84Q0,180,0,176.44v-1.19q0-7,10.47-13.17A21.35,21.35,0,0,1,18.55,160.14Z"/><path class="cls-5" d="M61,159.54q10,0,17.8,7.63a28.14,28.14,0,0,1,7.93,19.6v.3A23.38,23.38,0,0,1,83,199.78a13.12,13.12,0,0,1-11.07,5.84q-7.11,0-9-7.93l-.3-2.7V193.5a10.1,10.1,0,0,1,4.79-8.68,2.66,2.66,0,0,0,.6-1.64v-.6c0-2.25-2-3.54-6.13-3.89q-6.26,0-10.18,6.13a9.44,9.44,0,0,0-1,4.49q0,4.83,4.48,5.83h.45c1.5,0,2.49-.84,3-2.54v-.9c-.22-1.59-.82-2.39-1.79-2.39-.33,1.5-1,2.24-2,2.24h-.59c-1.1-.2-1.65-.74-1.65-1.64v-.45c0-1.6,1.15-2.54,3.44-2.84q4.3,0,5.69,6.88l.15,2.69q0,8.34-6.89,9.72-6.42,0-8.22-10.32l-.15-2.84v-.15q0-10.69,9.72-17.8A16.72,16.72,0,0,1,65,172h1.64q7.14,0,9.58,5.83l.45,2.39q0,5-7.19,6.74c-1.19.77-1.79,2.27-1.79,4.48v.75c0,2.4,1.25,3.59,3.74,3.59,3.71,0,6.76-2.19,9.12-6.58a14,14,0,0,0,1-5.09q0-9-8.53-16.9-5.82-4.33-11.51-4.34-9.29,0-16,8.68A11.15,11.15,0,0,0,44.24,176a4.06,4.06,0,0,0,1.2,2.84,3.37,3.37,0,0,1,2.39-1.05c1.4.33,2.1,1,2.1,2v.15c0,1.34-1.25,2.09-3.74,2.24q-4.94-1.27-4.94-6.13,0-7.31,8.38-13.17A21.24,21.24,0,0,1,61,159.54Z"/><path class="cls-5" d="M149.45,148.77h.15q6.39,0,8.52,5.23l.45,2.7q0,6.09-7.93,8.67-7.84,0-12.86,3.74a12.83,12.83,0,0,1,3-.44q5.94,0,7.93,6l.15,1.64q0,5.66-6.88,6.44h-1.05q-6.88,0-8.83-5.54V177c-.4.13-.75,1.33-1,3.59l.29,2.1h6.29c4.93,0,8.23,1.69,9.87,5.08a7.52,7.52,0,0,1,1.2,3.89q0,6.28-5.54,11.22-4.64,3-12.11,3h-4.34q-10.24,0-13.77-3.44-5.23-4-5.23-9.12,0-6.54,6.88-9.87a15,15,0,0,1,4.94-.9l5.68.15v-.15l.15-1.65v-.75q0-2.91-3.29-6.13a7.28,7.28,0,0,0-3.44-1.05h-.45c-1.55,0-2.49,1-2.84,3,.35,2.09,1.29,3.14,2.84,3.14a3,3,0,0,0,2.39-1l-.15-.15v-.15l-.15.15h-1.19a1.75,1.75,0,0,1-.9-1.79q.41-1.8,1.8-1.8c1.29,0,2.09.9,2.39,2.69v.45c0,2.3-1.45,3.89-4.34,4.79a11.14,11.14,0,0,1-3.29.45q-5.35,0-6.88-2.84a7,7,0,0,1-1-3.45q0-4.33,4.79-6.88a10.93,10.93,0,0,1,4-.74q7.14,0,11.22,7.47a18.93,18.93,0,0,1,1.19,6.14v3.14c0,.7-.3,1.05-.89,1.05l-5.54-.15c-4.39,0-6.88.94-7.48,2.84v1.2q0,2.91,7,5.23a34.39,34.39,0,0,0,6.58.9h.3q11.26,0,14.66-4.64l.6-2.09c0-1.67-1.19-2.87-3.59-3.59l-11.07.15-.15-.15v-.15l-.15-3.14q0-7.26,4-11.07,1.5-4.76,7.18-8.53,8.53-5.13,8.53-8.23c0-1.59-.55-2.39-1.65-2.39H146q-1.35.3-1.35.75v.15c1.3.37,1.94,1,1.94,1.79v.6c0,1.17-.89,1.92-2.69,2.24h-.45c-1.69-.25-2.54-1-2.54-2.24v-.6q0-4.45,5.83-6.43Zm-15.26,25.58v1.2c0,2.29.89,3.44,2.69,3.44h.6c1.89-.43,2.84-1.22,2.84-2.4v-1c-.2-1.8-1-2.7-2.39-2.7h-.15A4.57,4.57,0,0,0,134.19,174.35Z"/><path class="cls-5" d="M184.19,169.41h.9q5.49,0,7.78,5.69l.3,2.54c0,3.17-2,5-6.14,5.54h-1.64a10.12,10.12,0,0,1-7.33-2.7,4.76,4.76,0,0,1-.75-2.69v-.3a2.48,2.48,0,0,1,2.24-2.54h.6c.92,0,1.47.7,1.65,2.09q-.2,1.5-1.35,1.5H180l-.15-.15-.45.15a2.13,2.13,0,0,0,1.95,1.05c1.79-.28,2.69-1.13,2.69-2.55v-.3c0-2.19-.9-3.29-2.69-3.29q-4.26,0-6.73,5.39a9.08,9.08,0,0,0-.45,2.54l.3,2h8.22q7,0,8.83,4.63a12.25,12.25,0,0,1,1,5.24V194q0,7.74-7.48,11.22a10.18,10.18,0,0,1-4.19.74h-1.05q-5.91,0-8.38-3.88c0,1-1.44,2.11-4.33,3.29a15.46,15.46,0,0,1-4.19.59H161.6q-6.81,0-10-7.92a19.2,19.2,0,0,1-1.8-8.23,16.28,16.28,0,0,1,5.69-12.27A10.84,10.84,0,0,1,161.9,175h1.5c3.09,0,5.43,1.59,7,4.79a8.66,8.66,0,0,1,.6,3.44v.59a5.05,5.05,0,0,1-3.15,4.94,7.91,7.91,0,0,1-2.39.45q-3.26,0-3.74-4.19c0-1.05.65-1.64,1.95-1.79h.14c1.18,0,1.87.89,2.1,2.69l-.6,1.5.75.14h.45c1-.19,1.49-.69,1.49-1.49-.5-2.79-1.89-4.19-4.19-4.19l-.59-.15q-5.76,0-9.13,5.83a9.57,9.57,0,0,0-.75,3.44c0,2.4,1.55,4.09,4.64,5.09a17.64,17.64,0,0,0,3.74.45h.3a9.63,9.63,0,0,0,6.88-2.54l.15-.6-.3-1.35c0-1,.75-1.52,2.25-1.64,1.32,0,2.11.5,2.39,1.49l-.3,1.65q2.06,3,7.18,3,7.11,0,8.08-4.94l.15-.6c0-2.09-1.55-3.34-4.64-3.73H173.12q-1.8,0-1.8-1.05v-2.69q0-9.91,8.38-13.17A12,12,0,0,1,184.19,169.41Z"/><path class="cls-5" d="M209.1,168.29q7,0,7.78,8.38,0,5.39-6.88,6.43-3.08,0-4.19-3.29v-.75A1.85,1.85,0,0,1,207.9,177h.6c1,0,1.57.7,1.79,2.09l-.14.9v.3h.14q1.5,0,1.5-1.2v-.3c0-1.39-.9-2.19-2.69-2.39h-.45q-4.16,0-8.53,4.19a8.71,8.71,0,0,0-1.49,4.64v.29q0,5.69,7.48,9.43a19.67,19.67,0,0,0,6.73,1.2h2.09a7.09,7.09,0,0,0,7.18-4.79l.15-1.35v-.3c-.25-2.49-1.14-3.74-2.69-3.74h-.45c0,2.2-.65,3.3-1.94,3.3q-1.8-.57-1.8-1.8a20.34,20.34,0,0,1,6-15,12.09,12.09,0,0,1,7.93-3.14q10.89,0,15,13.61A23,23,0,0,1,245,188q0,15.33-13,20.64a16.87,16.87,0,0,1-3.89.6H228c-2.3,0-3.44-.65-3.44-1.94v-.6a2.59,2.59,0,0,1,2.39-2.84c1.07,0,1.92.79,2.54,2.39l1.05.15h.15q4.11,0,6.58-8.83l.45-4.19q0-10.95-8.08-14.81a8.91,8.91,0,0,0-3.74-.74h-.15c-3.19,0-5.18,1.34-6,4l-.3,1.19h.45q7,0,8.23,6.73l.15,1.65v.15q0,9.54-9.13,13a30.29,30.29,0,0,1-6.88,1.05q-9.94,0-16.46-10.77a19,19,0,0,1-1.64-8.23q0-12.3,9.27-17.2A14.92,14.92,0,0,1,209.1,168.29Z"/><path class="cls-5" d="M212.84,206.7l.75-.19q7-1.68,9.91,2.88l.18.86q.27,3.78-3.33,4.64l-.14,0c-2.4.57-4-.06-4.94-1.91-.33-1.4.44-2.49,2.28-3.29l.75-.19a4.94,4.94,0,0,1,2.13,0l-.08-.29a3.27,3.27,0,0,0-3.32-1.05l-.71.15a3.94,3.94,0,0,0-3.26,3.85l.15,1.2q1.13,4.78,10.59,5a17.84,17.84,0,0,0,5.08-.6q9-2.13,11.75-8.15l0-1.39c-.2-.79-1.27-1.21-3.22-1.23l.26.41a2.88,2.88,0,0,1-2.5,3c-2.3.27-3.64-.42-4-2.09-.13-1.72.5-2.75,1.87-3.07l1.38-.64q8.86-.93,10.29,5.09l0,.15q1.05,4.41-4.56,9.83a28,28,0,0,1-11.85,5.76l-.86.19q-12.46,3-20-3.66a9.34,9.34,0,0,1-2.66-4.15l-.19-.72q-1.48-6.27,6.55-9.87Z"/><path class="cls-5" d="M255.92,169.71q10.07,0,12.72,15.86l.3,3.59q0,12.19-8.83,16a16.69,16.69,0,0,1-4.79.74,8.52,8.52,0,0,1-8.52-5.83,14.75,14.75,0,0,1-.6-3.44q0-6,4.93-8.38l1.8-.3h.45q3.74.82,3.74,3.59v1c-.35,1.9-1.05,2.84-2.1,2.84h-1c-1.18,0-1.92-.89-2.25-2.69v-.6l.45-1.79H252c-1,0-1.67,1-2.09,3.14,0,2.22,1.44,3.56,4.34,4q5.46,0,7.92-9.73l.15-2.09v-.6l.15-.6a20.77,20.77,0,0,0-2.39-9.27c-1.6-1.9-3.29-2.84-5.09-2.84q-4.19.74-4.18,2.24H251c.65,0,1.3.6,2,1.79v.15c-.35,1.8-1.15,2.7-2.39,2.7h-1.2c-1.3,0-2.05-.9-2.24-2.7q0-4.74,6.13-6.58Z"/><path class="cls-5" d="M280.16,168h1q8.49,0,11.67,7.63a18.69,18.69,0,0,1,.6,4.34v.3c-.13,3.54-.42,5.38-.9,5.53h-4.64q-7.67,0-8.82,1.65l-.3,1.35v.3q0,5.74,8.83,7l2.54.15q6.84,0,9.57-5.69l.3-1.94a2.41,2.41,0,0,0-1.94-2.7h-.3q-.35,0-.6,2.55a2.45,2.45,0,0,1-1.5.75h-.44q-1.25,0-1.65-1.5A28.48,28.48,0,0,1,297.36,174q3.43-4.5,7.78-4.49h.9q9.87,0,14.21,12.86a25,25,0,0,1,.9,5.39q0,15.22-12,20.49a11.78,11.78,0,0,1-4.34,1.05h-1c-2.09-.17-3.14-.82-3.14-1.94v-.6a2.61,2.61,0,0,1,2-2.7h.74c.88,0,1.62.75,2.25,2.25l.75.15h.59q3.9,0,6.44-8.68l.44-4.49q0-8.34-4.93-13.46a6.91,6.91,0,0,0-4.79-1.94h-.15q-4.86,0-6,4.78v.45h.75c3.51,0,5.71,1.75,6.58,5.24l.3,2.69v1.05q0,9.3-11.52,13a34.45,34.45,0,0,1-5.84.6q-10.77,0-15.7-9a15.07,15.07,0,0,1-1.2-4.78q0-7.22,9-9.73l3.14-.29h5.68l.75.14a8.91,8.91,0,0,0,.6-3.14v-1q0-3.26-3.44-5.24l-2.7-.6c-2.19.28-3.29,1.22-3.29,2.84v.6c.28,1.8,1.18,2.69,2.7,2.69h.89c1.1-.24,1.7-.54,1.8-.89V177l-1.35.15a1.26,1.26,0,0,1-1-1.35v-.6c0-1,.69-1.52,2.09-1.64,1.2,0,1.94.95,2.24,2.84v.3c0,2.59-2.24,4.29-6.73,5.08l-3.44.3c-3.42,0-5.71-.69-6.88-2.09a6.48,6.48,0,0,1-1.35-4.19q0-4.61,5.84-7.18A18.62,18.62,0,0,1,280.16,168Z"/><path class="cls-5" d="M333.41,169.26h.45A16.17,16.17,0,0,1,346,174.5q5.94-3.44,10.77-3.44h1.05q9.12,0,14.06,11.52a26.29,26.29,0,0,1,.9,6.28v.6a23.7,23.7,0,0,1-6.44,16.75q-5.34,4.35-9.72,4.34h-.9c-2.19,0-3.29-.8-3.29-2.39v-.45c.23-1.7,1-2.54,2.25-2.54h.14c1.15,0,1.95.74,2.4,2.24q0,.3,1.05.45,4.89,0,7-8.08l.3-3.44a23.27,23.27,0,0,0-4.79-13.91q-4.49-4.49-8.38-4.49h-1.2l-2.24.15v.15q4.63,0,9.13,5.24a17.08,17.08,0,0,1,3,9.42v.9a12.28,12.28,0,0,1-4.19,9.72,12.14,12.14,0,0,1-6.88,2.1h-.6q-4.41,0-5.09-3.59-2.5,3.89-6.28,3.88H336.7c-4.58-.59-6.88-2-6.88-4.33v-1.5a1.06,1.06,0,0,0-1.19-1.2H328q-1.95,0-1.95,1.35c0,.9-.6,1.35-1.79,1.35s-1.65-.65-1.8-2v-.15q2-5.39,20.65-23a7.9,7.9,0,0,0-7.33-4c-3.42,0-5.51,1.24-6.29,3.74V177c.33,2,1.57,3,3.74,3,.83,0,1.57-.54,2.25-1.64v-.3l-.75.15q-1.58,0-1.8-2V176q.5-2,2-1.95h.9q2.08,0,2.54,3.89v.3q0,4.94-7.63,7.48a13.62,13.62,0,0,1-3.29.45H327q-5.06,0-6.73-5.39l-.15-1.49v-.15q0-6.85,10.47-9.58Zm-3.89,24.84h.15q3.33-2.7,4.64-2.7h.6c.67,0,1.77.65,3.29,1.95l1.5.3c1.49-.35,2.24-1,2.24-1.8a9,9,0,0,1-.45-2.54c.22-1.3,1.12-1.94,2.69-1.94h.15c1.3,0,1.95.59,1.95,1.79l-.15,3.29c0,.8.65,1.2,1.94,1.2a10.43,10.43,0,0,0,7.78-3.44,5.4,5.4,0,0,0,.9-3q0-5.17-7.33-6.14h-1.05a17.64,17.64,0,0,0-3.74.45l-.3-.45V180h-.15q-3.92,1.8-11.37,10A34.53,34.53,0,0,0,329.52,194.1Z"/><path class="cls-5" d="M391.57,170q9.57,0,16.15,8.38a23.54,23.54,0,0,1,4,13.16v.3q-.3,10.25-7.78,13.47l-2.24.3c-1.89,0-2.84-.85-2.84-2.55,0-1,.8-1.74,2.39-2.09h.15c1.1.2,1.65.7,1.65,1.49q5.69-1.91,5.68-10.47a19.63,19.63,0,0,0-7.48-15.71,18.06,18.06,0,0,0-10.47-3.59q-6.21,0-11.22,5.54a13.48,13.48,0,0,0-2.69,8.08q0,7.69,7.93,10l2.09.3h1.95q8.26,0,10.17-6.13l.15-1.65q0-4.68-7.18-6.43l-2.55-.3H388c-3.57,0-5.71,1.55-6.44,4.64v.45c.3,1.39,1.6,2.09,3.89,2.09q3.15,0,3.15-1.5c-.35-1-.9-1.49-1.65-1.49h-.6c-.1,1.09-.55,1.64-1.34,1.64h-.15c-1-.15-1.5-.59-1.5-1.34v-.15q0-2.1,4.94-2.4H389q7.49.72,7.48,4.94,0,3.86-7.92,4.94h-1.2a7.52,7.52,0,0,1-7.48-5.09,3.72,3.72,0,0,1-.3-1.64v-.9q0-4.19,5.09-6a17.55,17.55,0,0,1,4.48-.74,15.69,15.69,0,0,1,11.37,4.78,13,13,0,0,1,2.55,7.78q0,8.46-8.23,12.57a13.86,13.86,0,0,1-5.84,1.19q-10,0-14.36-11.21a23.48,23.48,0,0,1-.89-6.14v-.45a17.64,17.64,0,0,1,9.42-16.3A19.23,19.23,0,0,1,391.57,170Z"/><path class="cls-5" d="M447.26,169.41h.89q5.5,0,7.78,5.69l.3,2.54c0,3.17-2,5-6.13,5.54h-1.65a10.12,10.12,0,0,1-7.33-2.7,4.76,4.76,0,0,1-.75-2.69v-.3a2.49,2.49,0,0,1,2.25-2.54h.6c.92,0,1.47.7,1.64,2.09-.12,1-.57,1.5-1.34,1.5h-.45l-.15-.15-.45.15a2.11,2.11,0,0,0,1.94,1.05q2.7-.42,2.7-2.55v-.3c0-2.19-.9-3.29-2.7-3.29q-4.26,0-6.73,5.39a9.08,9.08,0,0,0-.45,2.54l.3,2h8.23q7,0,8.83,4.63a12.4,12.4,0,0,1,1,5.24V194q0,7.74-7.48,11.22a10.11,10.11,0,0,1-4.19.74h-1q-5.91,0-8.38-3.88c0,1-1.45,2.11-4.34,3.29a15.4,15.4,0,0,1-4.19.59h-1.34q-6.81,0-10-7.92a19.34,19.34,0,0,1-1.79-8.23,16.27,16.27,0,0,1,5.68-12.27A10.86,10.86,0,0,1,425,175h1.49c3.09,0,5.44,1.59,7,4.79a8.66,8.66,0,0,1,.6,3.44v.59a5.06,5.06,0,0,1-3.14,4.94,7.91,7.91,0,0,1-2.39.45q-3.26,0-3.74-4.19c0-1.05.64-1.64,1.94-1.79h.15c1.17,0,1.87.89,2.09,2.69l-.59,1.5.74.14h.45c1-.19,1.5-.69,1.5-1.49q-.75-4.19-4.19-4.19l-.6-.15q-5.76,0-9.12,5.83a9.57,9.57,0,0,0-.75,3.44c0,2.4,1.54,4.09,4.64,5.09a17.57,17.57,0,0,0,3.74.45h.3A9.65,9.65,0,0,0,432,194l.15-.6-.3-1.35c0-1,.74-1.52,2.24-1.64,1.32,0,2.12.5,2.39,1.49l-.3,1.65c1.38,2,3.77,3,7.19,3,4.73,0,7.43-1.65,8.07-4.94l.15-.6c0-2.09-1.54-3.34-4.63-3.73H436.18c-1.19,0-1.79-.35-1.79-1.05v-2.69q0-9.91,8.38-13.17A12,12,0,0,1,447.26,169.41Z"/><path class="cls-5" d="M468.65,169.26h.45a16.16,16.16,0,0,1,12.11,5.24q6-3.44,10.77-3.44h1q9.14,0,14.06,11.52a26.29,26.29,0,0,1,.9,6.28v.6a23.69,23.69,0,0,1-6.43,16.75q-5.35,4.35-9.73,4.34h-.89c-2.2,0-3.29-.8-3.29-2.39v-.45c.22-1.7,1-2.54,2.24-2.54H490c1.15,0,1.94.74,2.39,2.24q0,.3,1.05.45,4.9,0,7-8.08l.3-3.44A23.27,23.27,0,0,0,496,182.43q-4.49-4.49-8.37-4.49h-1.2l-2.24.15v.15q4.64,0,9.12,5.24a17,17,0,0,1,3,9.42v.9a12.25,12.25,0,0,1-4.19,9.72,12.1,12.1,0,0,1-6.88,2.1h-.6q-4.41,0-5.08-3.59c-1.67,2.59-3.77,3.88-6.28,3.88h-1.35c-4.59-.59-6.88-2-6.88-4.33v-1.5a1.06,1.06,0,0,0-1.2-1.2h-.6c-1.29,0-1.94.45-1.94,1.35s-.6,1.35-1.8,1.35c-1,0-1.64-.65-1.79-2v-.15q1.93-5.39,20.64-23a7.89,7.89,0,0,0-7.33-4c-3.41,0-5.51,1.24-6.28,3.74V177c.32,2,1.57,3,3.74,3a2.77,2.77,0,0,0,2.24-1.64v-.3l-.75.15c-1,0-1.64-.65-1.79-2V176c.32-1.3,1-1.95,1.94-1.95h.9q2.1,0,2.54,3.89v.3q0,4.94-7.62,7.48a13.69,13.69,0,0,1-3.3.45h-.44q-5.06,0-6.74-5.39l-.15-1.49v-.15q0-6.85,10.48-9.58Zm-3.89,24.84h.15c2.22-1.8,3.76-2.7,4.64-2.7h.59c.68,0,1.77.65,3.29,1.95l1.5.3c1.5-.35,2.24-1,2.24-1.8a9.33,9.33,0,0,1-.44-2.54c.22-1.3,1.12-1.94,2.69-1.94h.15c1.29,0,1.94.59,1.94,1.79l-.15,3.29q0,1.2,1.95,1.2a10.44,10.44,0,0,0,7.78-3.44,5.39,5.39,0,0,0,.89-3q0-5.17-7.33-6.14h-1a17.64,17.64,0,0,0-3.74.45l-.3-.45V180h-.15q-3.93,1.8-11.37,10A33.53,33.53,0,0,0,464.76,194.1Z"/><path class="cls-5" d="M499.91,145h1.2q5.24,0,7.78,6.73l.3,3.15c0,3.83-1.85,6.43-5.54,7.77a3.69,3.69,0,0,1-1.64.3h-.3c-3,0-4.86-1.29-5.69-3.89v-1.19c.33-2.6,1.38-3.89,3.15-3.89h.44c1.25,0,2.05,1,2.4,3-.38,1.2-1,1.79-1.8,1.79h-.6a2.88,2.88,0,0,1-1.79-.74l-.3.3v.74c0,.5.85.95,2.54,1.35h.9c1.17,0,1.87-1.1,2.1-3.29q-.65-4.63-3.75-4.64-3.88,0-3.88,4.64v.75l.89,14.66c.2,0,.3.5.3,1.49h-2.54c-.3,0-.45-1-.45-3.14l.15-9q0-5.51-1.5-7.93a7.39,7.39,0,0,0-3.29-1.05,3.63,3.63,0,0,1-1-2.09c0-1.45.94-2.35,2.84-2.7,1.42,0,2.32,1,2.69,2.85h.15q0-3.85,4.94-5.84Z"/><path class="cls-5" d="M514.57,195.74c3.2.45,4.79,2.1,4.79,4.94v.45c-.6,3.19-2.19,4.78-4.79,4.78H514c-2.17,0-3.72-1.24-4.64-3.74l-.15-1.79c0-2.62,1.74-4.16,5.23-4.64Z"/></g></svg>